<svg width="24" height="24" viewBox="0 0 24 24" fill="none" xmlns="http://www.w3.org/2000/svg">
<path d="M2.16431 13.1255C2.16431 10.0405 3.69727 7.12695 6.02051 5.39404C6.52515 4.9751 7.14404 5.06079 7.44873 5.49878C7.78198 5.96533 7.63916 6.51758 7.19165 6.89844C5.31592 8.33618 4.10669 10.5737 4.09717 13.1255C4.09717 17.5054 7.62012 21.0283 12 21.0283C16.3799 21.0283 19.8933 17.5054 19.8933 13.1255C19.8933 9.42163 17.3796 6.33667 13.9519 5.48926V6.83179C13.9519 7.57446 13.4187 7.76489 12.8284 7.34595L9.63867 5.07031C9.15308 4.72754 9.15308 4.19434 9.63867 3.86108L12.8379 1.58545C13.4187 1.1665 13.9519 1.37598 13.9519 2.09961V3.49927C18.427 4.41333 21.8357 8.41235 21.8357 13.1255C21.8357 18.5146 17.3796 22.9612 12 22.9612C6.62036 22.9612 2.16431 18.5146 2.16431 13.1255Z" fill="white"/>
</svg>
