<svg width="24" height="24" viewBox="0 0 24 24" fill="none" xmlns="http://www.w3.org/2000/svg">
<path d="M20.3057 3.34229C21.3618 4.38818 21.5566 5.84424 21.5566 7.71045V15.5137C21.5566 17.3799 21.3618 18.8257 20.3057 19.8818C19.2495 20.9277 17.7935 21.1328 15.9272 21.1328H8.0625C6.19629 21.1328 4.74023 20.9277 3.67383 19.8818C2.62793 18.8257 2.43311 17.3799 2.43311 15.5137V7.68994C2.43311 5.84424 2.62793 4.39844 3.68408 3.34229C4.72998 2.29639 6.19629 2.08105 8.03174 2.08105H15.9272C17.7935 2.08105 19.2495 2.28613 20.3057 3.34229ZM19.5469 7.43359C19.5469 6.36719 19.4136 5.38281 18.8394 4.80859C18.2651 4.24463 17.2705 4.09082 16.2144 4.09082H7.7959C6.71924 4.09082 5.71436 4.23438 5.14014 4.80859C4.57617 5.38281 4.44287 6.36719 4.44287 7.4541V15.7905C4.44287 16.8569 4.57617 17.8413 5.15039 18.4053C5.72461 18.9795 6.71924 19.123 7.77539 19.123H16.2144C17.2705 19.123 18.2651 18.9795 18.8394 18.4053C19.4033 17.8413 19.5469 16.8569 19.5469 15.7905V7.43359Z" fill="black"/>
</svg>
