<svg width="16" height="16" viewBox="0 0 16 16" fill="none" xmlns="http://www.w3.org/2000/svg">
<g clip-path="url(#clip0_21_4)">
<rect x="5" y="4" width="6" height="9" fill="white"/>
<path d="M1.43652 9.88965C0.47168 8.91846 0.458984 7.92188 1.42383 6.95703L6.54004 1.84082C7.50488 0.875977 8.50146 0.882324 9.47266 1.85352L14.5635 6.94434C15.5347 7.91553 15.541 8.91211 14.5762 9.87695L9.45996 14.9932C8.50146 15.958 7.50488 15.9517 6.53369 14.9805L1.43652 9.88965ZM7.29541 11.5527C7.53027 11.5527 7.7334 11.4321 7.87939 11.2163L10.8501 6.58252C10.939 6.44287 11.0151 6.28418 11.0151 6.13818C11.0151 5.80811 10.7231 5.58594 10.4121 5.58594C10.209 5.58594 10.0312 5.69385 9.89795 5.91602L7.27002 10.1182L6.04492 8.56299C5.88623 8.35986 5.72754 8.28369 5.53076 8.28369C5.20703 8.28369 4.95312 8.55029 4.95312 8.87402C4.95312 9.03271 5.01025 9.18506 5.12451 9.32471L6.67969 11.2163C6.85742 11.4448 7.04785 11.5527 7.29541 11.5527Z" fill="#FFA500"/>
</g>
<defs>
<clipPath id="clip0_21_4">
<rect width="16" height="16" fill="white"/>
</clipPath>
</defs>
</svg>
