<svg width="24" height="24" viewBox="0 0 24 24" fill="none" xmlns="http://www.w3.org/2000/svg">
<path d="M18.1562 19.2656L4.92188 6.03906C4.6875 5.80469 4.6875 5.39844 4.92188 5.16406C5.16406 4.91406 5.57031 4.92188 5.80469 5.16406L19.0391 18.3828C19.2812 18.625 19.2969 19 19.0391 19.2656C18.7891 19.5234 18.4062 19.5078 18.1562 19.2656ZM18.8906 16.8906L15.9688 13.9375C16.1797 13.4609 16.2969 12.9219 16.2969 12.375C16.2969 9.98438 14.375 8.09375 12 8.09375C11.4453 8.09375 10.9141 8.21094 10.4375 8.40625L8.30469 6.27344C9.42969 5.89844 10.6719 5.67969 12 5.67969C18.3281 5.67969 22.625 10.7891 22.625 12.3672C22.625 13.2891 21.1719 15.3594 18.8906 16.8906ZM12 19.0625C5.75 19.0625 1.375 13.9531 1.375 12.3672C1.375 11.4453 2.86719 9.30469 5.30469 7.74219L8.10938 10.5625C7.85156 11.1094 7.70312 11.7188 7.70312 12.375C7.71094 14.6953 9.61719 16.6406 12 16.6406C12.6406 16.6406 13.25 16.5 13.7812 16.2344L15.9297 18.375C14.7578 18.8047 13.4297 19.0625 12 19.0625ZM14.5078 12.2109C14.5078 12.2969 14.4922 12.3828 14.4844 12.4609L11.7734 9.75C11.8516 9.74219 11.9375 9.73438 12.0234 9.73438C13.3984 9.73438 14.5078 10.8438 14.5078 12.2109ZM9.48438 12.2344C9.48438 12.1406 9.49219 12.0469 9.5 11.9531L12.25 14.6953C12.1562 14.7031 12.0703 14.7109 11.9766 14.7109C10.6172 14.7109 9.48438 13.6016 9.48438 12.2344Z" fill="black"/>
</svg>
