<svg width="24" height="25" viewBox="0 0 24 25" fill="none" xmlns="http://www.w3.org/2000/svg">
<path d="M12 23.1992C6.20654 23.1992 1.40771 18.4106 1.40771 12.6069C1.40771 6.81348 6.19629 2.01465 11.9897 2.01465C17.7935 2.01465 22.5923 6.81348 22.5923 12.6069C22.5923 18.4106 17.7935 23.1992 12 23.1992ZM16.7988 18.1748C17.0039 18.3696 17.3525 18.3696 17.5576 18.1748C17.7627 17.9595 17.7627 17.6313 17.5576 17.416L7.19092 7.03906C6.97559 6.83398 6.63721 6.83398 6.41162 7.03906C6.2168 7.24414 6.2168 7.59277 6.41162 7.79785L16.7988 18.1748ZM14.8506 13.5093L16.9321 15.6113C18.4497 14.5347 19.3418 13.2119 19.3418 12.6172C19.3418 11.52 16.3682 7.99268 12 7.99268C11.1797 7.99268 10.4004 8.13623 9.68262 8.34131L11.1182 9.7666C11.3848 9.67432 11.6924 9.61279 12 9.61279C13.6611 9.61279 15.0044 10.9458 15.0044 12.6172C15.0044 12.9248 14.9531 13.2222 14.8506 13.5093ZM14.3276 16.8828L12.8921 15.4473C12.6152 15.5601 12.3179 15.6113 12 15.6113C10.3389 15.6113 8.99561 14.2476 8.98535 12.6172C8.98535 12.2993 9.04688 11.9917 9.14941 11.7148L7.06787 9.62305C5.56055 10.6997 4.6582 12.0225 4.6582 12.6172C4.6582 13.7041 7.67285 17.2417 12 17.2417C12.8306 17.2417 13.6099 17.0981 14.3276 16.8828ZM12.3384 10.9971L13.6099 12.2686C13.5894 11.6123 13.0254 11.0176 12.3384 10.9971ZM11.6719 14.2271L10.3799 12.9351C10.3799 13.6016 10.9541 14.2168 11.6719 14.2271Z" fill="black"/>
</svg>
