<svg width="24" height="24" viewBox="0 0 24 24" fill="none" xmlns="http://www.w3.org/2000/svg">
<path d="M8.89014 20.28C4.4187 20.28 0.785156 16.6465 0.785156 12.1831C0.785156 7.71973 4.4187 4.08618 8.88208 4.08618C9.42188 4.08618 9.9375 4.13452 10.4451 4.2312C10.9526 4.13452 11.4763 4.08618 12.0081 4.08618C12.5398 4.08618 13.0554 4.13452 13.563 4.2312C14.0625 4.13452 14.5862 4.08618 15.1179 4.08618C19.5813 4.08618 23.2148 7.71973 23.2148 12.1831C23.2148 16.6465 19.5813 20.28 15.1179 20.28C14.5862 20.28 14.0625 20.2317 13.563 20.127C13.0554 20.2317 12.5398 20.28 12.0081 20.28C11.4763 20.28 10.9526 20.2317 10.4451 20.127C9.94556 20.2317 9.42188 20.28 8.89014 20.28ZM2.40454 12.1831C2.40454 15.0029 4.18506 17.3958 6.69873 18.29C4.99072 16.8076 3.91113 14.6162 3.91113 12.1831C3.91113 9.75 4.99072 7.55859 6.69873 6.07617C4.18506 6.9624 2.40454 9.35522 2.40454 12.1831ZM16.9871 12.1831C16.9871 14.6162 15.9075 16.8076 14.1995 18.29C16.7051 17.3958 18.4937 15.0029 18.4937 12.1831C18.4937 9.35522 16.7051 6.97046 14.1995 6.07617C15.9075 7.55859 16.9871 9.75 16.9871 12.1831ZM20.105 12.1831C20.105 14.6162 19.0254 16.7996 17.3254 18.282C19.823 17.3877 21.6035 15.0029 21.6035 12.1831C21.6035 9.36328 19.823 6.97852 17.3254 6.08423C19.0254 7.56665 20.105 9.75 20.105 12.1831ZM5.52246 12.1831C5.52246 15.0029 7.30298 17.3796 9.80054 18.282C8.09253 16.7996 7.021 14.6082 7.021 12.1831C7.021 9.75 8.09253 7.56665 9.79248 6.08423C7.29492 6.98657 5.52246 9.36328 5.52246 12.1831ZM8.63232 12.1831C8.63232 14.6484 9.9939 16.7754 12 17.8792C14.0142 16.7754 15.3757 14.6404 15.3677 12.1831C15.3677 9.71777 14.0142 7.58276 12 6.48706C9.9939 7.58276 8.63232 9.71777 8.63232 12.1831Z" fill="black"/>
</svg>
