<svg width="24" height="25" viewBox="0 0 24 25" fill="none" xmlns="http://www.w3.org/2000/svg">
<path d="M8.7959 21.3491C4.18896 21.3491 0.445312 17.6055 0.445312 13.0068C0.445312 8.4082 4.18896 4.66455 8.7876 4.66455C9.34375 4.66455 9.875 4.71436 10.3979 4.81396C10.9209 4.71436 11.4604 4.66455 12.0083 4.66455C12.5562 4.66455 13.0874 4.71436 13.6104 4.81396C14.125 4.71436 14.6646 4.66455 15.2124 4.66455C19.811 4.66455 23.5547 8.4082 23.5547 13.0068C23.5547 17.6055 19.811 21.3491 15.2124 21.3491C14.6646 21.3491 14.125 21.2993 13.6104 21.1914C13.0874 21.2993 12.5562 21.3491 12.0083 21.3491C11.4604 21.3491 10.9209 21.2993 10.3979 21.1914C9.8833 21.2993 9.34375 21.3491 8.7959 21.3491ZM2.11377 13.0068C2.11377 15.9121 3.94824 18.3774 6.53809 19.2988C4.77832 17.7715 3.66602 15.5137 3.66602 13.0068C3.66602 10.5 4.77832 8.24219 6.53809 6.71484C3.94824 7.62793 2.11377 10.0933 2.11377 13.0068ZM17.1382 13.0068C17.1382 15.5137 16.0259 17.7715 14.2661 19.2988C16.8477 18.3774 18.6904 15.9121 18.6904 13.0068C18.6904 10.0933 16.8477 7.63623 14.2661 6.71484C16.0259 8.24219 17.1382 10.5 17.1382 13.0068ZM20.3506 13.0068C20.3506 15.5137 19.2383 17.7632 17.4868 19.2905C20.0601 18.3691 21.8945 15.9121 21.8945 13.0068C21.8945 10.1016 20.0601 7.64453 17.4868 6.72314C19.2383 8.25049 20.3506 10.5 20.3506 13.0068ZM5.32617 13.0068C5.32617 15.9121 7.16064 18.3608 9.73389 19.2905C7.97412 17.7632 6.87012 15.5054 6.87012 13.0068C6.87012 10.5 7.97412 8.25049 9.72559 6.72314C7.15234 7.65283 5.32617 10.1016 5.32617 13.0068ZM8.53027 13.0068C8.53027 15.5469 9.93311 17.7383 12 18.8755C14.0752 17.7383 15.478 15.5386 15.4697 13.0068C15.4697 10.4668 14.0752 8.26709 12 7.13818C9.93311 8.26709 8.53027 10.4668 8.53027 13.0068Z" fill="black"/>
</svg>
