<svg width="24" height="24" viewBox="0 0 24 24" fill="none" xmlns="http://www.w3.org/2000/svg">
<path d="M12 22.1992C6.20654 22.1992 1.40771 17.4106 1.40771 11.6069C1.40771 5.81348 6.19629 1.01465 11.9897 1.01465C17.7935 1.01465 22.5923 5.81348 22.5923 11.6069C22.5923 17.4106 17.7935 22.1992 12 22.1992ZM12.2666 17.667C14.748 17.667 16.8809 16.1494 17.6704 14.2319C17.7319 14.0781 17.7524 13.9243 17.7524 13.8525C17.7524 13.627 17.5781 13.4834 17.3833 13.4834C17.3013 13.4834 17.209 13.5039 17.0654 13.5449C16.645 13.6987 15.9272 13.8525 15.2197 13.8525C12.123 13.8525 10.1543 11.9248 10.1543 8.83838C10.1543 8.17188 10.3184 7.26953 10.5234 6.79785C10.585 6.64404 10.6055 6.5415 10.6055 6.46973C10.6055 6.29541 10.4619 6.11084 10.2363 6.11084C10.1543 6.11084 10.0107 6.13135 9.86719 6.18262C7.69336 7.04395 6.24756 9.35107 6.24756 11.7915C6.24756 15.2061 8.85205 17.667 12.2666 17.667Z" fill="white"/>
</svg>
