<svg width="24" height="25" viewBox="0 0 24 25" fill="none" xmlns="http://www.w3.org/2000/svg">
<path d="M12 23.1992C6.20654 23.1992 1.40771 18.4106 1.40771 12.6069C1.40771 6.81348 6.19629 2.01465 11.9897 2.01465C17.7935 2.01465 22.5923 6.81348 22.5923 12.6069C22.5923 18.4106 17.7935 23.1992 12 23.1992ZM12.2666 18.667C14.748 18.667 16.8809 17.1494 17.6704 15.2319C17.7319 15.0781 17.7524 14.9243 17.7524 14.8525C17.7524 14.627 17.5781 14.4834 17.3833 14.4834C17.3013 14.4834 17.209 14.5039 17.0654 14.5449C16.645 14.6987 15.9272 14.8525 15.2197 14.8525C12.123 14.8525 10.1543 12.9248 10.1543 9.83838C10.1543 9.17188 10.3184 8.26953 10.5234 7.79785C10.585 7.64404 10.6055 7.5415 10.6055 7.46973C10.6055 7.29541 10.4619 7.11084 10.2363 7.11084C10.1543 7.11084 10.0107 7.13135 9.86719 7.18262C7.69336 8.04395 6.24756 10.3511 6.24756 12.7915C6.24756 16.2061 8.85205 18.667 12.2666 18.667Z" fill="white"/>
</svg>
