<svg width="24" height="25" viewBox="0 0 24 25" fill="none" xmlns="http://www.w3.org/2000/svg">
<path d="M6.38086 11.8071C3.89941 11.8071 1.87939 9.77686 1.87939 7.30566C1.87939 4.85498 3.89941 2.82471 6.38086 2.82471C8.85205 2.82471 10.8721 4.85498 10.8721 7.30566C10.8721 9.77686 8.85205 11.8071 6.38086 11.8071ZM17.6191 11.8071C15.1274 11.8071 13.1177 9.77686 13.1177 7.30566C13.1177 4.85498 15.1274 2.82471 17.6191 2.82471C20.0801 2.82471 22.1104 4.85498 22.1104 7.30566C22.1104 9.77686 20.0801 11.8071 17.6191 11.8071ZM6.38086 22.3687C3.89941 22.3687 1.87939 20.3384 1.87939 17.8672C1.87939 15.4165 3.89941 13.376 6.38086 13.376C8.85205 13.376 10.8721 15.4165 10.8721 17.8672C10.8721 20.3384 8.85205 22.3687 6.38086 22.3687ZM17.6191 22.3687C15.1274 22.3687 13.1177 20.3384 13.1177 17.8672C13.1177 15.4165 15.1274 13.376 17.6191 13.376C20.0801 13.376 22.1104 15.4165 22.1104 17.8672C22.1104 20.3384 20.0801 22.3687 17.6191 22.3687Z" fill="black"/>
</svg>
