<svg width="24" height="24" viewBox="0 0 24 24" fill="none" xmlns="http://www.w3.org/2000/svg">
<path d="M4.62744 10.8071C3.15088 10.8071 2.42285 10.0894 2.42285 8.57178V4.27539C2.42285 2.75781 3.15088 2.04004 4.62744 2.04004H8.98535C10.4619 2.04004 11.1899 2.75781 11.1899 4.27539V8.57178C11.1899 10.0894 10.4619 10.8071 8.98535 10.8071H4.62744ZM15.0044 10.8071C13.5176 10.8071 12.7998 10.0894 12.7998 8.57178V4.27539C12.7998 2.75781 13.5176 2.04004 15.0044 2.04004H19.3623C20.8389 2.04004 21.5669 2.75781 21.5669 4.27539V8.57178C21.5669 10.0894 20.8389 10.8071 19.3623 10.8071H15.0044ZM4.6377 9.12549H8.96484C9.32373 9.12549 9.5083 8.94092 9.5083 8.57178V4.27539C9.5083 3.90625 9.32373 3.72168 8.96484 3.72168H4.6377C4.27881 3.72168 4.10449 3.90625 4.10449 4.27539V8.57178C4.10449 8.94092 4.27881 9.12549 4.6377 9.12549ZM15.0146 9.12549H19.3521C19.7109 9.12549 19.875 8.94092 19.875 8.57178V4.27539C19.875 3.90625 19.7109 3.72168 19.3521 3.72168H15.0146C14.6558 3.72168 14.4814 3.90625 14.4814 4.27539V8.57178C14.4814 8.94092 14.6558 9.12549 15.0146 9.12549ZM4.62744 21.1841C3.15088 21.1841 2.42285 20.4663 2.42285 18.9385V14.6523C2.42285 13.1348 3.15088 12.417 4.62744 12.417H8.98535C10.4619 12.417 11.1899 13.1348 11.1899 14.6523V18.9385C11.1899 20.4663 10.4619 21.1841 8.98535 21.1841H4.62744ZM15.0044 21.1841C13.5176 21.1841 12.7998 20.4663 12.7998 18.9385V14.6523C12.7998 13.1348 13.5176 12.417 15.0044 12.417H19.3623C20.8389 12.417 21.5669 13.1348 21.5669 14.6523V18.9385C21.5669 20.4663 20.8389 21.1841 19.3623 21.1841H15.0044ZM4.6377 19.4922H8.96484C9.32373 19.4922 9.5083 19.3179 9.5083 18.9487V14.6523C9.5083 14.2832 9.32373 14.0986 8.96484 14.0986H4.6377C4.27881 14.0986 4.10449 14.2832 4.10449 14.6523V18.9487C4.10449 19.3179 4.27881 19.4922 4.6377 19.4922ZM15.0146 19.4922H19.3521C19.7109 19.4922 19.875 19.3179 19.875 18.9487V14.6523C19.875 14.2832 19.7109 14.0986 19.3521 14.0986H15.0146C14.6558 14.0986 14.4814 14.2832 14.4814 14.6523V18.9487C14.4814 19.3179 14.6558 19.4922 15.0146 19.4922Z" fill="black"/>
</svg>
