<svg width="24" height="25" viewBox="0 0 24 25" fill="none" xmlns="http://www.w3.org/2000/svg">
<path d="M12 23.189C6.20654 23.189 1.40771 18.4004 1.40771 12.5967C1.40771 6.80322 6.19629 2.00439 11.9897 2.00439C17.7935 2.00439 22.5923 6.80322 22.5923 12.5967C22.5923 18.4004 17.7935 23.189 12 23.189ZM12 21.1074C16.7168 21.1074 20.5107 17.3135 20.5107 12.5967C20.5005 7.87988 16.7065 4.09619 11.9897 4.09619C7.27295 4.09619 3.49951 7.87988 3.49951 12.5967C3.49951 17.3135 7.2832 21.1074 12 21.1074ZM7.83691 17.1289C6.80127 17.1289 6.25781 16.5957 6.25781 15.5703V9.67432C6.25781 8.63867 6.80127 8.10547 7.83691 8.10547H16.1426C17.1885 8.10547 17.7217 8.63867 17.7217 9.67432V15.5703C17.7217 16.5957 17.1885 17.1289 16.1426 17.1289H7.83691ZM10.021 12.7197C10.6772 12.7197 11.2104 12.1763 11.2104 11.5098C11.2104 10.8535 10.6772 10.3101 10.021 10.3101C9.35449 10.3101 8.81104 10.8535 8.81104 11.5098C8.81104 12.1763 9.35449 12.7197 10.021 12.7197ZM7.9292 16.083H16.0605C16.4399 16.083 16.6758 15.8472 16.6758 15.4678V14.5449L14.6558 12.7095C14.4404 12.4941 14.1636 12.3916 13.897 12.3916C13.6201 12.3916 13.3638 12.4941 13.1382 12.6992L10.8413 14.7397L9.91846 13.9092C9.70312 13.7246 9.45703 13.6118 9.23145 13.6118C9.00586 13.6118 8.79053 13.7144 8.5752 13.8989L7.30371 14.9756V15.4678C7.30371 15.8472 7.53955 16.083 7.9292 16.083Z" fill="black"/>
</svg>
