<svg width="24" height="24" viewBox="0 0 24 24" fill="none" xmlns="http://www.w3.org/2000/svg">
<path d="M3.84009 21.0186C1.78345 21.0186 0.717041 19.9617 0.717041 17.9336V6.33643C0.717041 4.29883 1.78345 3.25146 3.84009 3.25146H20.1504C22.207 3.25146 23.2734 4.30835 23.2734 6.33643V17.9336C23.2734 19.9617 22.207 21.0186 20.1504 21.0186H3.84009ZM2.58325 6.49829V16.6863L5.21118 14.325C5.61108 13.9727 6.00146 13.7917 6.43945 13.7917C6.88696 13.7917 7.32495 13.9822 7.72485 14.3345L9.48633 15.9246L13.7805 12.0779C14.2185 11.697 14.6851 11.5161 15.2087 11.5161C15.7134 11.5161 16.2085 11.7161 16.637 12.0969L21.4072 16.5625V6.49829C21.4072 5.57471 20.9121 5.10815 20.0361 5.10815H3.95435C3.06885 5.10815 2.58325 5.57471 2.58325 6.49829ZM8.09619 12.3064C6.82983 12.3064 5.81104 11.2781 5.81104 10.0212C5.81104 8.77393 6.82983 7.73608 8.09619 7.73608C9.34351 7.73608 10.3718 8.77393 10.3718 10.0212C10.3718 11.2781 9.34351 12.3064 8.09619 12.3064Z" fill="white"/>
</svg>
