<svg width="24" height="25" viewBox="0 0 24 25" fill="none" xmlns="http://www.w3.org/2000/svg">
<path d="M12 23.189C6.20654 23.189 1.40771 18.4004 1.40771 12.5967C1.40771 6.80322 6.19629 2.00439 11.9897 2.00439C17.7935 2.00439 22.5923 6.80322 22.5923 12.5967C22.5923 18.4004 17.7935 23.189 12 23.189ZM12 21.1074C16.7168 21.1074 20.5107 17.3135 20.5107 12.5967C20.5005 7.87988 16.7065 4.09619 11.9897 4.09619C7.27295 4.09619 3.49951 7.87988 3.49951 12.5967C3.49951 17.3135 7.2832 21.1074 12 21.1074ZM7.22168 14.1348C6.37061 14.1348 5.67334 13.4478 5.67334 12.5864C5.67334 11.7354 6.37061 11.0483 7.22168 11.0483C8.0625 11.0483 8.77002 11.7354 8.77002 12.5864C8.77002 13.4478 8.07275 14.1348 7.22168 14.1348ZM11.9897 14.1348C11.1387 14.1348 10.4414 13.4478 10.4414 12.5864C10.4414 11.7354 11.1387 11.0483 11.9897 11.0483C12.8408 11.0483 13.5278 11.7354 13.5278 12.5864C13.5278 13.4478 12.8408 14.1348 11.9897 14.1348ZM16.7476 14.1348C15.8965 14.1348 15.2095 13.4478 15.2095 12.5864C15.2095 11.7354 15.8965 11.0483 16.7476 11.0483C17.6089 11.0483 18.2959 11.7354 18.2959 12.5864C18.2959 13.4478 17.6089 14.1348 16.7476 14.1348Z" fill="black"/>
</svg>
