<svg width="24" height="24" viewBox="0 0 24 24" fill="none" xmlns="http://www.w3.org/2000/svg">
<path d="M7.10889 23.0195C6.28857 23.0195 5.80664 22.4556 5.80664 21.543V19.0103H5.38623C2.4126 19.0103 0.638672 17.2466 0.638672 14.2012V6.24414C0.638672 3.19873 2.37158 1.43506 5.45801 1.43506H18.5317C21.6182 1.43506 23.3511 3.19873 23.3511 6.24414V14.2012C23.3511 17.2466 21.6182 19.0103 18.5317 19.0103H12.3281L8.81104 22.1274C8.11377 22.7427 7.68311 23.0195 7.10889 23.0195ZM7.61133 20.7637L10.8618 17.5542C11.2925 17.103 11.6001 17.0005 12.2153 17.0005H18.4702C20.4082 17.0005 21.3413 16.0264 21.3413 14.1396V6.30566C21.3413 4.41895 20.4082 3.44482 18.4702 3.44482H5.50928C3.57129 3.44482 2.64844 4.41895 2.64844 6.30566V14.1396C2.64844 16.0264 3.57129 17.0005 5.50928 17.0005H6.77051C7.35498 17.0005 7.61133 17.2363 7.61133 17.8413V20.7637ZM12 11.9351C11.4258 11.9351 11.0977 11.6172 11.0874 11.0327L10.9336 6.03906C10.9233 5.44434 11.354 5.01367 11.9897 5.01367C12.6152 5.01367 13.0664 5.45459 13.0459 6.04932L12.8921 11.0327C12.8716 11.6172 12.5537 11.9351 12 11.9351ZM12 15.3291C11.3438 15.3291 10.8003 14.8472 10.8003 14.2012C10.8003 13.5654 11.3335 13.0835 12 13.0835C12.6665 13.0835 13.1997 13.5552 13.1997 14.2012C13.1997 14.8574 12.6562 15.3291 12 15.3291Z" fill="black"/>
</svg>
