<svg width="24" height="24" viewBox="0 0 24 24" fill="none" xmlns="http://www.w3.org/2000/svg">
<path d="M6.91553 12.135C6.91553 13.2395 6.00146 14.144 4.87793 14.144C3.77344 14.144 2.8689 13.2395 2.8689 12.135C2.8689 11.021 3.77344 10.126 4.87793 10.126C6.02051 10.126 6.91553 11.0115 6.91553 12.135ZM13.9995 12.135C13.9995 13.2395 13.095 14.144 12 14.144C10.886 14.144 9.99097 13.2395 9.99097 12.135C9.99097 11.021 10.886 10.126 12 10.126C13.1235 10.126 13.9995 11.0115 13.9995 12.135ZM21.1311 12.135C21.1311 13.2395 20.217 14.144 19.1125 14.144C17.989 14.144 17.0845 13.2395 17.0845 12.135C17.0845 11.021 17.989 10.126 19.1125 10.126C20.2361 10.126 21.1311 11.0115 21.1311 12.135Z" fill="black"/>
</svg>
