<svg width="24" height="24" viewBox="0 0 24 24" fill="none" xmlns="http://www.w3.org/2000/svg">
<path d="M7.45825 23.7324C6.69653 23.7324 6.24902 23.2087 6.24902 22.3613V20.0095H5.85864C3.09741 20.0095 1.4502 18.3718 1.4502 15.5439V8.15527C1.4502 5.32739 3.05933 3.6897 5.92529 3.6897H18.0652C20.9312 3.6897 22.5403 5.32739 22.5403 8.15527V15.5439C22.5403 18.3718 20.9312 20.0095 18.0652 20.0095H12.3047L9.03882 22.9041C8.39136 23.4753 7.99146 23.7324 7.45825 23.7324ZM7.9248 21.6377L10.9431 18.6575C11.343 18.2385 11.6287 18.1433 12.2 18.1433H18.0081C19.8076 18.1433 20.6741 17.2388 20.6741 15.4868V8.2124C20.6741 6.46045 19.8076 5.55591 18.0081 5.55591H5.9729C4.17334 5.55591 3.31641 6.46045 3.31641 8.2124V15.4868C3.31641 17.2388 4.17334 18.1433 5.9729 18.1433H7.14404C7.68677 18.1433 7.9248 18.3623 7.9248 18.9241V21.6377ZM8.96265 16.3152C8.44849 16.3152 8.12476 16.001 8.12476 15.5154C8.12476 15.363 8.16284 15.1917 8.24854 14.9346L10.686 8.26001C10.9146 7.61255 11.343 7.28882 11.981 7.28882C12.6379 7.28882 13.0854 7.61255 13.314 8.26001L15.7515 14.9346C15.8372 15.1917 15.8752 15.363 15.8752 15.5249C15.8752 16.001 15.542 16.3152 15.0374 16.3152C14.6089 16.3152 14.3232 16.0962 14.1709 15.563L13.5806 13.8396H10.4099L9.8291 15.563C9.67676 16.0962 9.39111 16.3152 8.96265 16.3152ZM10.8098 12.5161H13.1807L12.0476 9.07886H11.9429L10.8098 12.5161Z" fill="black"/>
</svg>
