<svg width="24" height="24" viewBox="0 0 24 24" fill="none" xmlns="http://www.w3.org/2000/svg">
<path d="M7.45825 22.7324C6.69653 22.7324 6.24902 22.2087 6.24902 21.3613V19.0095H5.85864C3.09741 19.0095 1.4502 17.3718 1.4502 14.5439V7.15527C1.4502 4.32739 3.05933 2.6897 5.92529 2.6897H18.0652C20.9312 2.6897 22.5403 4.32739 22.5403 7.15527V14.5439C22.5403 17.3718 20.9312 19.0095 18.0652 19.0095H12.3047L9.03882 21.9041C8.39136 22.4753 7.99146 22.7324 7.45825 22.7324ZM7.9248 20.6377L10.9431 17.6575C11.343 17.2385 11.6287 17.1433 12.2 17.1433H18.0081C19.8076 17.1433 20.6741 16.2388 20.6741 14.4868V7.2124C20.6741 5.46045 19.8076 4.55591 18.0081 4.55591H5.9729C4.17334 4.55591 3.31641 5.46045 3.31641 7.2124V14.4868C3.31641 16.2388 4.17334 17.1433 5.9729 17.1433H7.14404C7.68677 17.1433 7.9248 17.3623 7.9248 17.9241V20.6377ZM14.2471 15.7722C13.8757 15.7722 13.571 15.4675 13.571 15.0867V6.60303C13.571 6.22217 13.8757 5.91748 14.2471 5.91748C14.6184 5.91748 14.9421 6.23169 14.9421 6.60303V9.84033H15.9705C16.3323 9.84033 16.637 10.145 16.637 10.5068C16.637 10.8687 16.3323 11.1733 15.9705 11.1733H14.9421V15.0867C14.9421 15.458 14.6184 15.7722 14.2471 15.7722ZM7.78198 7.68848C7.78198 7.32666 8.08667 7.02197 8.44849 7.02197H11.7905C12.2571 7.02197 12.5427 7.31714 12.5142 7.75513C12.3809 10.3259 11.2383 12.1255 8.85791 13.4871C8.02954 13.9917 7.34399 12.8015 8.17236 12.335C9.9624 11.3257 10.8765 10.0974 11.105 8.35498H8.44849C8.07715 8.35498 7.78198 8.05981 7.78198 7.68848Z" fill="black"/>
</svg>
