<svg width="24" height="24" viewBox="0 0 24 24" fill="none" xmlns="http://www.w3.org/2000/svg">
<path d="M7.45825 23.7324C6.69653 23.7324 6.24902 23.2087 6.24902 22.3613V20.0095H5.85864C3.09741 20.0095 1.4502 18.3718 1.4502 15.5439V8.15527C1.4502 5.32739 3.05933 3.6897 5.92529 3.6897H18.0652C20.9312 3.6897 22.5403 5.32739 22.5403 8.15527V15.5439C22.5403 18.3718 20.9312 20.0095 18.0652 20.0095H12.3047L9.03882 22.9041C8.39136 23.4753 7.99146 23.7324 7.45825 23.7324ZM7.9248 21.6377L10.9431 18.6575C11.343 18.2385 11.6287 18.1433 12.2 18.1433H18.0081C19.8076 18.1433 20.6741 17.2388 20.6741 15.4868V8.2124C20.6741 6.46045 19.8076 5.55591 18.0081 5.55591H5.9729C4.17334 5.55591 3.31641 6.46045 3.31641 8.2124V15.4868C3.31641 17.2388 4.17334 18.1433 5.9729 18.1433H7.14404C7.68677 18.1433 7.9248 18.3623 7.9248 18.9241V21.6377ZM14.2471 16.7722C13.8757 16.7722 13.571 16.4675 13.571 16.0867V7.60303C13.571 7.22217 13.8757 6.91748 14.2471 6.91748C14.6184 6.91748 14.9421 7.23169 14.9421 7.60303V10.8403H15.9705C16.3323 10.8403 16.637 11.145 16.637 11.5068C16.637 11.8687 16.3323 12.1733 15.9705 12.1733H14.9421V16.0867C14.9421 16.458 14.6184 16.7722 14.2471 16.7722ZM7.78198 8.68848C7.78198 8.32666 8.08667 8.02197 8.44849 8.02197H11.7905C12.2571 8.02197 12.5427 8.31714 12.5142 8.75513C12.3809 11.3259 11.2383 13.1255 8.85791 14.4871C8.02954 14.9917 7.34399 13.8015 8.17236 13.335C9.9624 12.3257 10.8765 11.0974 11.105 9.35498H8.44849C8.07715 9.35498 7.78198 9.05981 7.78198 8.68848Z" fill="black"/>
</svg>
