<svg width="24" height="24" viewBox="0 0 24 24" fill="none" xmlns="http://www.w3.org/2000/svg">
<path d="M7.45825 22.7324C6.69653 22.7324 6.24902 22.2087 6.24902 21.3613V19.0095H5.85864C3.09741 19.0095 1.4502 17.3718 1.4502 14.5439V7.15527C1.4502 4.32739 3.05933 2.6897 5.92529 2.6897H18.0652C20.9312 2.6897 22.5403 4.32739 22.5403 7.15527V14.5439C22.5403 17.3718 20.9312 19.0095 18.0652 19.0095H12.3047L9.03882 21.9041C8.39136 22.4753 7.99146 22.7324 7.45825 22.7324ZM7.9248 20.6377L10.9431 17.6575C11.343 17.2385 11.6287 17.1433 12.2 17.1433H18.0081C19.8076 17.1433 20.6741 16.2388 20.6741 14.4868V7.2124C20.6741 5.46045 19.8076 4.55591 18.0081 4.55591H5.9729C4.17334 4.55591 3.31641 5.46045 3.31641 7.2124V14.4868C3.31641 16.2388 4.17334 17.1433 5.9729 17.1433H7.14404C7.68677 17.1433 7.9248 17.3623 7.9248 17.9241V20.6377ZM8.96265 15.3152C8.44849 15.3152 8.12476 15.001 8.12476 14.5154C8.12476 14.363 8.16284 14.1917 8.24854 13.9346L10.686 7.26001C10.9146 6.61255 11.343 6.28882 11.981 6.28882C12.6379 6.28882 13.0854 6.61255 13.314 7.26001L15.7515 13.9346C15.8372 14.1917 15.8752 14.363 15.8752 14.5249C15.8752 15.001 15.542 15.3152 15.0374 15.3152C14.6089 15.3152 14.3232 15.0962 14.1709 14.563L13.5806 12.8396H10.4099L9.8291 14.563C9.67676 15.0962 9.39111 15.3152 8.96265 15.3152ZM10.8098 11.5161H13.1807L12.0476 8.07886H11.9429L10.8098 11.5161Z" fill="black"/>
</svg>
