<svg width="24" height="24" viewBox="0 0 24 24" fill="none" xmlns="http://www.w3.org/2000/svg">
<path d="M12 3.70117C11.2925 3.70117 10.7183 3.12695 10.7183 2.41943C10.7183 1.72217 11.2925 1.14795 12 1.14795C12.6973 1.14795 13.2715 1.72217 13.2715 2.41943C13.2715 3.12695 12.6973 3.70117 12 3.70117ZM5.50928 6.37744C4.80176 6.37744 4.23779 5.81348 4.23779 5.10596C4.23779 4.39844 4.80176 3.83447 5.50928 3.83447C6.2168 3.83447 6.79102 4.39844 6.79102 5.10596C6.79102 5.81348 6.2168 6.37744 5.50928 6.37744ZM18.4907 6.37744C17.7832 6.37744 17.209 5.81348 17.209 5.10596C17.209 4.39844 17.7832 3.83447 18.4907 3.83447C19.188 3.83447 19.7622 4.39844 19.7622 5.10596C19.7622 5.81348 19.188 6.37744 18.4907 6.37744ZM12 16.9492C9.06738 16.9492 6.63721 14.5293 6.63721 11.5967C6.63721 8.66406 9.06738 6.23389 12 6.23389C14.9326 6.23389 17.3525 8.66406 17.3525 11.5967C17.3525 14.5293 14.9326 16.9492 12 16.9492ZM12 15.0625C13.897 15.0625 15.4658 13.4937 15.4658 11.5967C15.4658 9.69971 13.897 8.13086 12 8.13086C10.103 8.13086 8.53418 9.70996 8.53418 11.5967C8.53418 13.4937 10.103 15.0625 12 15.0625ZM2.82275 12.8682C2.12549 12.8682 1.55127 12.2939 1.55127 11.5967C1.55127 10.8892 2.12549 10.3149 2.82275 10.3149C3.53027 10.3149 4.10449 10.8892 4.10449 11.5967C4.10449 12.2939 3.53027 12.8682 2.82275 12.8682ZM21.167 12.8682C20.4697 12.8682 19.8955 12.2939 19.8955 11.5967C19.8955 10.8892 20.4697 10.3149 21.167 10.3149C21.8745 10.3149 22.4487 10.8892 22.4487 11.5967C22.4487 12.2939 21.8745 12.8682 21.167 12.8682ZM18.4907 19.3589C17.7832 19.3589 17.209 18.7847 17.209 18.0874C17.209 17.3799 17.7832 16.8057 18.4907 16.8057C19.188 16.8057 19.7622 17.3799 19.7622 18.0874C19.7622 18.7847 19.188 19.3589 18.4907 19.3589ZM5.50928 19.3589C4.80176 19.3589 4.23779 18.7847 4.23779 18.0874C4.23779 17.3799 4.80176 16.8057 5.50928 16.8057C6.2168 16.8057 6.79102 17.3799 6.79102 18.0874C6.79102 18.7847 6.2168 19.3589 5.50928 19.3589ZM12 22.0454C11.2925 22.0454 10.7183 21.4712 10.7183 20.7637C10.7183 20.0664 11.2925 19.4922 12 19.4922C12.6973 19.4922 13.2715 20.0664 13.2715 20.7637C13.2715 21.4712 12.6973 22.0454 12 22.0454Z" fill="black"/>
</svg>
