<svg width="24" height="25" viewBox="0 0 24 25" fill="none" xmlns="http://www.w3.org/2000/svg">
<path d="M12 4.70117C11.2925 4.70117 10.7183 4.12695 10.7183 3.41943C10.7183 2.72217 11.2925 2.14795 12 2.14795C12.6973 2.14795 13.2715 2.72217 13.2715 3.41943C13.2715 4.12695 12.6973 4.70117 12 4.70117ZM5.50928 7.37744C4.80176 7.37744 4.23779 6.81348 4.23779 6.10596C4.23779 5.39844 4.80176 4.83447 5.50928 4.83447C6.2168 4.83447 6.79102 5.39844 6.79102 6.10596C6.79102 6.81348 6.2168 7.37744 5.50928 7.37744ZM18.4907 7.37744C17.7832 7.37744 17.209 6.81348 17.209 6.10596C17.209 5.39844 17.7832 4.83447 18.4907 4.83447C19.188 4.83447 19.7622 5.39844 19.7622 6.10596C19.7622 6.81348 19.188 7.37744 18.4907 7.37744ZM12 17.9492C9.06738 17.9492 6.63721 15.5293 6.63721 12.5967C6.63721 9.66406 9.06738 7.23389 12 7.23389C14.9326 7.23389 17.3525 9.66406 17.3525 12.5967C17.3525 15.5293 14.9326 17.9492 12 17.9492ZM12 16.0625C13.897 16.0625 15.4658 14.4937 15.4658 12.5967C15.4658 10.6997 13.897 9.13086 12 9.13086C10.103 9.13086 8.53418 10.71 8.53418 12.5967C8.53418 14.4937 10.103 16.0625 12 16.0625ZM2.82275 13.8682C2.12549 13.8682 1.55127 13.2939 1.55127 12.5967C1.55127 11.8892 2.12549 11.3149 2.82275 11.3149C3.53027 11.3149 4.10449 11.8892 4.10449 12.5967C4.10449 13.2939 3.53027 13.8682 2.82275 13.8682ZM21.167 13.8682C20.4697 13.8682 19.8955 13.2939 19.8955 12.5967C19.8955 11.8892 20.4697 11.3149 21.167 11.3149C21.8745 11.3149 22.4487 11.8892 22.4487 12.5967C22.4487 13.2939 21.8745 13.8682 21.167 13.8682ZM18.4907 20.3589C17.7832 20.3589 17.209 19.7847 17.209 19.0874C17.209 18.3799 17.7832 17.8057 18.4907 17.8057C19.188 17.8057 19.7622 18.3799 19.7622 19.0874C19.7622 19.7847 19.188 20.3589 18.4907 20.3589ZM5.50928 20.3589C4.80176 20.3589 4.23779 19.7847 4.23779 19.0874C4.23779 18.3799 4.80176 17.8057 5.50928 17.8057C6.2168 17.8057 6.79102 18.3799 6.79102 19.0874C6.79102 19.7847 6.2168 20.3589 5.50928 20.3589ZM12 23.0454C11.2925 23.0454 10.7183 22.4712 10.7183 21.7637C10.7183 21.0664 11.2925 20.4922 12 20.4922C12.6973 20.4922 13.2715 21.0664 13.2715 21.7637C13.2715 22.4712 12.6973 23.0454 12 23.0454Z" fill="black"/>
</svg>
