<svg width="24" height="24" viewBox="0 0 24 24" fill="none" xmlns="http://www.w3.org/2000/svg">
<path d="M4.21765 8.16064C3.81262 8.16064 3.5426 7.93884 3.5426 7.47595V4.90112H3.52332L3.08936 5.20007C2.92542 5.30615 2.85791 5.32544 2.73254 5.32544C2.5011 5.33508 2.29858 5.15186 2.29858 4.88184C2.29858 4.66968 2.39502 4.53467 2.60718 4.39966L3.29187 3.92712C3.55225 3.75354 3.77405 3.63782 4.13086 3.63782C4.56482 3.63782 4.87341 3.90784 4.87341 4.3418V7.47595C4.87341 7.93884 4.60339 8.16064 4.21765 8.16064ZM8.30652 7.04199C7.78577 7.04199 7.39038 6.63696 7.39038 6.12585C7.39038 5.61475 7.79541 5.20972 8.30652 5.20972H21.0264C21.5375 5.20972 21.9425 5.61475 21.9425 6.12585C21.9425 6.63696 21.5375 7.04199 21.0264 7.04199H8.30652ZM2.63611 14.0625C2.29858 14.0625 2.08643 13.8407 2.08643 13.5128C2.08643 13.291 2.16357 13.1078 2.36609 12.9438L3.63904 11.9023C4.1405 11.4973 4.26587 11.3044 4.26587 11.0826C4.26587 10.8223 4.073 10.639 3.80298 10.639C3.5426 10.639 3.36902 10.7548 3.22437 10.9862C3.07971 11.1984 2.92542 11.2755 2.70361 11.2755C2.35645 11.2755 2.14429 11.1019 2.14429 10.774C2.14429 10.1472 2.82898 9.66504 3.77405 9.66504C4.85413 9.66504 5.52917 10.1954 5.52917 10.9862C5.52917 11.5745 5.24951 11.8927 4.58411 12.4231L3.80298 13.0499V13.0789H5.16272C5.45203 13.0789 5.66418 13.2717 5.66418 13.5707C5.66418 13.8696 5.44238 14.0625 5.16272 14.0625H2.63611ZM8.30652 12.9631C7.78577 12.9631 7.39038 12.5581 7.39038 12.047C7.39038 11.5359 7.79541 11.1309 8.30652 11.1309H21.0264C21.5375 11.1309 21.9425 11.5359 21.9425 12.047C21.9425 12.5581 21.5375 12.9631 21.0264 12.9631H8.30652ZM3.80298 20.1379C2.98328 20.1379 2.0575 19.7715 2.0575 19.0964C2.0575 18.7782 2.28894 18.5853 2.62646 18.5853C2.80969 18.5853 2.91577 18.6625 3.03149 18.7686C3.21472 18.9325 3.45581 19.135 3.80298 19.135C4.11157 19.135 4.34302 18.9614 4.34302 18.701C4.34302 18.4117 4.12122 18.2671 3.70654 18.2671H3.57153C3.29187 18.2671 3.11829 18.1128 3.11829 17.8331C3.11829 17.5438 3.30151 17.3992 3.57153 17.3992H3.6969C4.073 17.3992 4.2948 17.2642 4.2948 17.0038C4.2948 16.7241 4.073 16.5891 3.78369 16.5891C3.56189 16.5891 3.37866 16.6566 3.14722 16.8977C3.00256 17.0424 2.90613 17.1195 2.68433 17.1195C2.36609 17.1195 2.16357 16.9266 2.16357 16.6373C2.16357 15.9816 3.02185 15.6248 3.79333 15.6248C4.76733 15.6248 5.50989 16.0298 5.50989 16.7916C5.50989 17.3606 5.1145 17.6981 4.62268 17.7849V17.8138C5.30737 17.8717 5.68347 18.2478 5.68347 18.7878C5.68347 19.6172 4.98914 20.1379 3.80298 20.1379ZM8.30652 18.8843C7.78577 18.8843 7.39038 18.4792 7.39038 17.9681C7.39038 17.457 7.79541 17.052 8.30652 17.052H21.0264C21.5375 17.052 21.9425 17.457 21.9425 17.9681C21.9425 18.4792 21.5375 18.8843 21.0264 18.8843H8.30652Z" fill="black"/>
</svg>
