<svg width="24" height="25" viewBox="0 0 24 25" fill="none" xmlns="http://www.w3.org/2000/svg">
<path d="M12 23.189C6.20654 23.189 1.40771 18.4004 1.40771 12.5967C1.40771 6.80322 6.19629 2.00439 11.9897 2.00439C17.7935 2.00439 22.5923 6.80322 22.5923 12.5967C22.5923 18.4004 17.7935 23.189 12 23.189ZM7.02686 10.1357C7.53955 10.1357 7.97021 9.69482 7.97021 9.19238C7.97021 8.65918 7.5498 8.23877 7.02686 8.23877C6.51416 8.23877 6.0835 8.65918 6.0835 9.19238C6.0835 9.70508 6.51416 10.1357 7.02686 10.1357ZM9.60059 9.86914H17.1885C17.5781 9.86914 17.8857 9.57178 17.8857 9.19238C17.8857 8.80273 17.5781 8.50537 17.1885 8.50537H9.60059C9.21094 8.50537 8.92383 8.80273 8.92383 9.19238C8.92383 9.56152 9.23145 9.86914 9.60059 9.86914ZM7.02686 13.5503C7.53955 13.5503 7.97021 13.1196 7.97021 12.6069C7.97021 12.0942 7.53955 11.6636 7.02686 11.6636C6.51416 11.6636 6.0835 12.084 6.0835 12.6069C6.0835 13.1299 6.51416 13.5503 7.02686 13.5503ZM9.60059 13.2939H17.1885C17.5781 13.2939 17.8857 12.9966 17.8857 12.6069C17.8857 12.2275 17.5781 11.9199 17.1885 11.9199H9.60059C9.23145 11.9199 8.92383 12.2378 8.92383 12.6069C8.92383 12.9863 9.23145 13.2939 9.60059 13.2939ZM7.02686 16.9751C7.5498 16.9751 7.97021 16.5547 7.97021 16.0317C7.97021 15.519 7.53955 15.0884 7.02686 15.0884C6.51416 15.0884 6.0835 15.5088 6.0835 16.0317C6.0835 16.5547 6.51416 16.9751 7.02686 16.9751ZM9.60059 16.7085H17.1885C17.5781 16.7085 17.8857 16.4111 17.8857 16.0317C17.8857 15.6421 17.5781 15.3447 17.1885 15.3447H9.60059C9.23145 15.3447 8.92383 15.6523 8.92383 16.0317C8.92383 16.4111 9.21094 16.7085 9.60059 16.7085Z" fill="black"/>
</svg>
