<svg width="24" height="25" viewBox="0 0 24 25" fill="none" xmlns="http://www.w3.org/2000/svg">
<path d="M1.30518 13.1094C1.30518 6.52637 5.79639 2.14795 12.2153 2.14795C18.3164 2.14795 22.6846 6.03418 22.6846 11.9814C22.6846 15.9395 20.8696 18.6978 17.9165 18.6978C16.2759 18.6978 15.0659 17.8467 14.8198 16.4419H14.6968C14.1123 17.8672 12.9331 18.6978 11.3643 18.6978C8.65723 18.6978 6.80127 16.4214 6.80127 13.1401C6.80127 9.8999 8.64697 7.66455 11.2822 7.66455C12.7896 7.66455 14.0405 8.43359 14.5532 9.68457H14.6865V8.7002C14.6865 8.0542 15.0557 7.66455 15.6709 7.66455C16.2861 7.66455 16.645 8.0542 16.645 8.7002V15.2832C16.645 16.3701 17.2397 17.0059 18.2856 17.0059C19.8545 17.0059 20.8389 15.0371 20.8389 12.1147C20.8389 6.89551 16.9834 3.92188 12.1948 3.92188C6.85254 3.92188 3.27393 7.71582 3.27393 13.1709C3.27393 18.8311 7.03711 22.1943 12.6357 22.1943C13.9482 22.1943 14.9121 22.0098 16.0195 21.7534C16.2246 21.7124 16.3989 21.6919 16.5425 21.6919C17.0142 21.6919 17.332 22.0098 17.332 22.4507C17.332 22.8711 17.0962 23.23 16.4194 23.4556C15.4863 23.7632 13.979 23.9785 12.2974 23.9785C5.89893 23.9785 1.30518 19.8462 1.30518 13.1094ZM11.7642 16.8521C13.4971 16.8521 14.6045 15.396 14.6045 13.1196C14.6045 10.8843 13.5073 9.47949 11.7744 9.47949C10.0723 9.47949 8.99561 10.9048 8.99561 13.1606C8.99561 15.4268 10.062 16.8521 11.7642 16.8521Z" fill="black"/>
</svg>
