<svg width="24" height="24" viewBox="0 0 24 24" fill="none" xmlns="http://www.w3.org/2000/svg">
<path d="M4.43994 20.4854C2.3833 20.4854 1.31689 19.438 1.31689 17.4004V6.87915C1.31689 4.84155 2.3833 3.78467 4.2019 3.78467H19.5505C21.6072 3.78467 22.6736 4.85107 22.6736 6.87915V17.4004C22.6736 19.4285 21.6167 20.4854 19.7981 20.4854H4.43994ZM10.9146 12.4778C11.3145 12.8682 11.6572 13.0396 12.0095 13.0396C12.3618 13.0396 12.7046 12.8777 13.1045 12.4778L20.0552 5.61279C19.9028 5.57471 19.741 5.55566 19.5505 5.55566H4.43994C4.26855 5.55566 4.10669 5.57471 3.96387 5.60327L10.9146 12.4778ZM3.06885 6.99341V17.2576L8.26758 12.1064L3.06885 6.99341ZM15.7515 12.1064L20.9312 17.2385V7.02197L15.7515 12.1064ZM4.43994 18.7239H19.5505C19.741 18.7239 19.9124 18.7048 20.0647 18.6572L14.5994 13.2395L14.0757 13.7632C13.3901 14.4392 12.7141 14.7249 12.0095 14.7249C11.3049 14.7249 10.6289 14.4392 9.94336 13.7632L9.41968 13.2395L3.94482 18.6667C4.09717 18.7048 4.25903 18.7239 4.43994 18.7239Z" fill="black"/>
</svg>
