<svg width="24" height="24" viewBox="0 0 24 24" fill="none" xmlns="http://www.w3.org/2000/svg">
<path d="M12 19.1328C5.67969 19.1328 1.26562 13.9688 1.26562 12.3672C1.26562 10.7656 5.6875 5.60938 12 5.60938C18.3984 5.60938 22.7266 10.7656 22.7266 12.3672C22.7266 13.9688 18.4062 19.1328 12 19.1328ZM12 17.6328C16.9844 17.6328 20.9609 13.4609 20.9609 12.3672C20.9609 11.4531 16.9844 7.10938 12 7.10938C7.00781 7.10938 3.03906 11.4531 3.03906 12.3672C3.03906 13.4609 7.00781 17.6328 12 17.6328ZM12 16.5781C9.64844 16.5781 7.78906 14.6641 7.77344 12.3672C7.76562 10.0156 9.64844 8.16406 12 8.16406C14.3438 8.16406 16.2188 10.0156 16.2188 12.3672C16.2188 14.6641 14.3438 16.5781 12 16.5781ZM12 13.7266C12.7578 13.7266 13.3672 13.1172 13.3672 12.3672C13.3672 11.6172 12.7578 11.0078 12 11.0078C11.2422 11.0078 10.625 11.6172 10.625 12.3672C10.625 13.1172 11.2422 13.7266 12 13.7266Z" fill="black"/>
</svg>
