<svg width="24" height="25" viewBox="0 0 24 25" fill="none" xmlns="http://www.w3.org/2000/svg">
<path d="M12 23.189C6.20654 23.189 1.40771 18.4004 1.40771 12.5967C1.40771 6.80322 6.19629 2.00439 11.9897 2.00439C17.7935 2.00439 22.5923 6.80322 22.5923 12.5967C22.5923 18.4004 17.7935 23.189 12 23.189ZM12 21.1074C16.7168 21.1074 20.5107 17.3135 20.5107 12.5967C20.5005 7.87988 16.7065 4.09619 11.9897 4.09619C7.27295 4.09619 3.49951 7.87988 3.49951 12.5967C3.49951 17.3135 7.2832 21.1074 12 21.1074ZM11.9897 16.8828C7.99072 16.8828 5.19141 13.6118 5.19141 12.5967C5.19141 11.5918 7.97021 8.33105 11.9897 8.33105C16.0195 8.33105 18.7778 11.5918 18.7778 12.5967C18.7778 13.6118 16.0298 16.8828 11.9897 16.8828ZM11.9897 15.3755C13.5278 15.3755 14.7686 14.104 14.7686 12.6069C14.7686 11.0586 13.5278 9.82812 11.9897 9.82812C10.4517 9.82812 9.20068 11.0586 9.21094 12.6069C9.21094 14.104 10.4517 15.3755 11.9897 15.3755ZM12 13.8169C11.3335 13.8169 10.7798 13.2529 10.7798 12.6069C10.7798 11.9507 11.3335 11.3867 12 11.3867C12.6562 11.3867 13.21 11.9507 13.21 12.6069C13.21 13.2529 12.6562 13.8169 12 13.8169Z" fill="black"/>
</svg>
