<svg width="24" height="24" viewBox="0 0 24 24" fill="none" xmlns="http://www.w3.org/2000/svg">
<path d="M7.1853 21.9177C5.2522 21.9177 4.24951 20.915 4.24951 18.9548V5.33276C4.24951 3.38159 5.26123 2.36987 7.1853 2.36987H16.8057C18.7388 2.36987 19.7415 3.37256 19.7415 5.33276V14.4563C19.2537 13.9143 18.6484 13.4988 17.9709 13.2368V5.44116C17.9709 4.60107 17.5012 4.14038 16.6611 4.14038H7.33887C6.46265 4.14038 6.02002 4.61011 6.02002 5.44116V18.8645C6.02002 19.7046 6.46265 20.1472 7.33887 20.1472H11.0696C11.3315 20.8247 11.7561 21.4299 12.2891 21.9177H7.1853ZM8.69385 7.81689C8.35962 7.81689 8.11572 7.55493 8.11572 7.22974C8.11572 6.91357 8.35962 6.66968 8.69385 6.66968H15.3062C15.6404 6.66968 15.8843 6.91357 15.8843 7.22974C15.8843 7.55493 15.6404 7.81689 15.3062 7.81689H8.69385ZM8.69385 10.8972C8.35962 10.8972 8.11572 10.6443 8.11572 10.3191C8.11572 10.0029 8.35962 9.75903 8.69385 9.75903H15.3062C15.6404 9.75903 15.8843 10.0029 15.8843 10.3191C15.8843 10.6443 15.6404 10.8972 15.3062 10.8972H8.69385ZM15.7578 21.9177C13.5718 21.9177 11.7651 20.1292 11.7651 17.9341C11.7651 15.748 13.5718 13.9414 15.7578 13.9414C17.9529 13.9414 19.7415 15.73 19.7415 17.9341C19.7415 18.7471 19.4976 19.5059 19.073 20.1382L21.0332 22.0984C21.1958 22.27 21.2952 22.4868 21.2952 22.7036C21.2952 23.2004 20.9519 23.5618 20.4822 23.5618C20.2292 23.5618 20.0034 23.4714 19.7957 23.2546L17.8535 21.3215C17.2483 21.7009 16.5256 21.9177 15.7578 21.9177ZM15.7578 20.5447C17.1941 20.5447 18.3594 19.3794 18.3594 17.9341C18.3594 16.5068 17.1851 15.3235 15.7578 15.3235C14.3125 15.3235 13.1382 16.5068 13.1382 17.9341C13.1382 19.3794 14.3125 20.5447 15.7578 20.5447Z" fill="black"/>
</svg>
