<svg width="24" height="25" viewBox="0 0 24 25" fill="none" xmlns="http://www.w3.org/2000/svg">
<g clip-path="url(#clip0_1980_686)">
<path d="M7.1853 22.9177C5.2522 22.9177 4.24951 21.915 4.24951 19.9548V6.33276C4.24951 4.38159 5.26123 3.36987 7.1853 3.36987H16.8057C18.7388 3.36987 19.7415 4.37256 19.7415 6.33276V15.4563C19.2537 14.9143 18.6484 14.4988 17.9709 14.2368V6.44116C17.9709 5.60107 17.5012 5.14038 16.6611 5.14038H7.33887C6.46265 5.14038 6.02002 5.61011 6.02002 6.44116V19.8645C6.02002 20.7046 6.46265 21.1472 7.33887 21.1472H11.0696C11.3315 21.8247 11.7561 22.4299 12.2891 22.9177H7.1853ZM8.69385 8.81689C8.35962 8.81689 8.11572 8.55493 8.11572 8.22974C8.11572 7.91357 8.35962 7.66968 8.69385 7.66968H15.3062C15.6404 7.66968 15.8843 7.91357 15.8843 8.22974C15.8843 8.55493 15.6404 8.81689 15.3062 8.81689H8.69385ZM8.69385 11.8972C8.35962 11.8972 8.11572 11.6443 8.11572 11.3191C8.11572 11.0029 8.35962 10.759 8.69385 10.759H15.3062C15.6404 10.759 15.8843 11.0029 15.8843 11.3191C15.8843 11.6443 15.6404 11.8972 15.3062 11.8972H8.69385ZM15.7578 22.9177C13.5718 22.9177 11.7651 21.1292 11.7651 18.9341C11.7651 16.748 13.5718 14.9414 15.7578 14.9414C17.9529 14.9414 19.7415 16.73 19.7415 18.9341C19.7415 19.7471 19.4976 20.5059 19.073 21.1382L21.0332 23.0984C21.1958 23.27 21.2952 23.4868 21.2952 23.7036C21.2952 24.2004 20.9519 24.5618 20.4822 24.5618C20.2292 24.5618 20.0034 24.4714 19.7957 24.2546L17.8535 22.3215C17.2483 22.7009 16.5256 22.9177 15.7578 22.9177ZM15.7578 21.5447C17.1941 21.5447 18.3594 20.3794 18.3594 18.9341C18.3594 17.5068 17.1851 16.3235 15.7578 16.3235C14.3125 16.3235 13.1382 17.5068 13.1382 18.9341C13.1382 20.3794 14.3125 21.5447 15.7578 21.5447Z" fill="black"/>
</g>
<defs>
<clipPath id="clip0_1980_686">
<rect width="24" height="24" fill="white" transform="translate(0 0.571411)"/>
</clipPath>
</defs>
</svg>
