<svg width="24" height="24" viewBox="0 0 24 24" fill="none" xmlns="http://www.w3.org/2000/svg">
<path d="M12.9033 3.43579V6.20898C12.9033 6.69678 12.4878 7.1123 11.991 7.1123C11.5032 7.1123 11.0876 6.69678 11.0876 6.20898V3.43579C11.0876 2.93896 11.5032 2.52344 11.991 2.52344C12.4878 2.52344 12.9033 2.93896 12.9033 3.43579ZM15.7668 7.40137L17.709 5.45923C18.0522 5.10693 18.6394 5.10693 18.9827 5.4502C19.335 5.80249 19.335 6.38965 18.9917 6.73291L17.0496 8.67505C16.7063 9.02734 16.1101 9.02734 15.7668 8.68408C15.4236 8.33179 15.4146 7.74463 15.7668 7.40137ZM6.93237 8.67505L5.0083 6.72388C4.66504 6.38062 4.66504 5.79346 5.0083 5.4502C5.35156 5.10693 5.93872 5.11597 6.29102 5.45923L8.21509 7.40137C8.55835 7.74463 8.55835 8.33179 8.20605 8.68408C7.86279 9.02734 7.27563 9.01831 6.93237 8.67505ZM19.1904 21.3396L10.6089 12.7129C10.1843 12.2793 10.1753 11.5657 10.6089 11.105C11.0334 10.6624 11.7832 10.6624 12.2168 11.105L20.7983 19.7317C21.2319 20.1743 21.2319 20.8879 20.7983 21.3396C20.3828 21.7822 19.6331 21.7822 19.1904 21.3396ZM2.97583 11.5386H5.75806C6.25488 11.5386 6.67041 11.9541 6.67041 12.4419C6.67041 12.9297 6.25488 13.3452 5.75806 13.3452H2.97583C2.48804 13.3452 2.07251 12.9297 2.07251 12.4419C2.07251 11.9541 2.48804 11.5386 2.97583 11.5386ZM21.0061 13.3452H18.2329C17.7451 13.3452 17.3296 12.9297 17.3296 12.4419C17.3296 11.9541 17.7451 11.5386 18.2329 11.5386H21.0061C21.5029 11.5386 21.9185 11.9541 21.9185 12.4419C21.9185 12.9297 21.5029 13.3452 21.0061 13.3452ZM19.606 20.626C19.7957 20.8157 20.0125 20.8608 20.1841 20.6982C20.3557 20.5085 20.3015 20.3008 20.1208 20.1201L14.9719 14.9622L14.4661 15.468L19.606 20.626ZM4.99927 18.1418L6.94141 16.2178C7.28467 15.8745 7.87183 15.8745 8.21509 16.2178C8.55835 16.5701 8.55835 17.1482 8.20605 17.5005L6.27295 19.4336C5.92065 19.7769 5.3335 19.7678 4.9812 19.4155C4.64697 19.0723 4.64697 18.4851 4.99927 18.1418ZM12.9033 18.6838V21.457C12.9033 21.9539 12.4878 22.3694 11.991 22.3694C11.5032 22.3694 11.0876 21.9539 11.0876 21.457V18.6838C11.0876 18.196 11.5032 17.7805 11.991 17.7805C12.4878 17.7805 12.9033 18.196 12.9033 18.6838Z" fill="black"/>
</svg>
