<svg width="24" height="24" viewBox="0 0 24 24" fill="none" xmlns="http://www.w3.org/2000/svg">
<path d="M6.85999 22.4813C4.79626 22.4813 3.72583 21.4012 3.72583 19.3182V4.76611C3.72583 2.69275 4.79626 1.60303 6.85999 1.60303H11.5082C12.7136 1.60303 13.379 1.7959 14.1891 2.6156L19.252 7.76526C20.0909 8.61389 20.2645 9.23108 20.2645 10.5715V19.3182C20.2645 21.3916 19.1941 22.4813 17.1304 22.4813H6.85999ZM7.01428 20.5912H16.9664C17.9019 20.5912 18.3744 20.0994 18.3744 19.2025V10.8223H13.1765C11.8071 10.8223 11.1224 10.1569 11.1224 8.77783V3.49316H7.01428C6.07886 3.49316 5.61597 3.99463 5.61597 4.88184V19.2025C5.61597 20.0994 6.07886 20.5912 7.01428 20.5912ZM13.3501 9.16357H18.114L12.7908 3.75354V8.5946C12.7908 8.98999 12.9547 9.16357 13.3501 9.16357Z" fill="white"/>
</svg>
