<svg width="24" height="25" viewBox="0 0 24 25" fill="none" xmlns="http://www.w3.org/2000/svg">
<path d="M12 23.189C6.20654 23.189 1.40771 18.4004 1.40771 12.5967C1.40771 6.80322 6.19629 2.00439 11.9897 2.00439C17.7935 2.00439 22.5923 6.80322 22.5923 12.5967C22.5923 18.4004 17.7935 23.189 12 23.189ZM12 21.1074C16.7168 21.1074 20.5107 17.3135 20.5107 12.5967C20.5005 7.87988 16.7065 4.09619 11.9897 4.09619C7.27295 4.09619 3.49951 7.87988 3.49951 12.5967C3.49951 17.3135 7.2832 21.1074 12 21.1074ZM9.35449 18.0415C8.21631 18.0415 7.62158 17.4468 7.62158 16.2881V8.62842C7.62158 7.49023 8.21631 6.88525 9.35449 6.88525H11.3027V10.9868C11.3027 11.6636 11.6309 11.9917 12.3076 11.9917H16.3579V16.2881C16.3579 17.4365 15.7734 18.0415 14.6353 18.0415H9.35449ZM12.4512 11.1406C12.2563 11.1406 12.1538 11.0381 12.1538 10.8433V6.93652C12.3896 6.96729 12.6255 7.1416 12.8921 7.41846L15.8145 10.3921C16.0913 10.6689 16.2759 10.9048 16.3066 11.1406H12.4512Z" fill="black"/>
</svg>
