<svg width="24" height="24" viewBox="0 0 24 24" fill="none" xmlns="http://www.w3.org/2000/svg">
<path d="M12 22.189C6.20654 22.189 1.40771 17.4004 1.40771 11.5967C1.40771 5.80322 6.19629 1.00439 11.9897 1.00439C17.7935 1.00439 22.5923 5.80322 22.5923 11.5967C22.5923 17.4004 17.7935 22.189 12 22.189ZM5.82715 5.14697C6.33984 5.49561 6.95508 5.79297 7.67285 6.01855C8.13428 4.76758 8.74951 3.74219 9.47754 3.01416C8.09326 3.42432 6.85254 4.17285 5.82715 5.14697ZM14.5327 3.02441C15.2505 3.74219 15.8657 4.76758 16.3271 6.02881C17.0449 5.79297 17.6602 5.50586 18.1626 5.14697C17.1475 4.17285 15.9067 3.43457 14.5327 3.02441ZM12.7178 3.35254V6.60303C13.4971 6.57227 14.2251 6.50049 14.9019 6.37744C14.3481 4.87012 13.5688 3.7627 12.7178 3.35254ZM9.09814 6.37744C9.7749 6.50049 10.5029 6.57227 11.2822 6.60303V3.35254C10.4312 3.7627 9.66211 4.87012 9.09814 6.37744ZM3.0791 10.8789H6.77051C6.82178 9.61768 6.99609 8.42822 7.2627 7.36182C6.31934 7.06445 5.50928 6.66455 4.88379 6.20312C3.87891 7.52588 3.22266 9.13574 3.0791 10.8789ZM17.2295 10.8789H20.9209C20.7773 9.13574 20.1211 7.52588 19.106 6.20312C18.4907 6.6748 17.6807 7.06445 16.7373 7.36182C17.0039 8.42822 17.1782 9.61768 17.2295 10.8789ZM8.23682 10.8789H11.2822V8.03857C10.3696 7.99756 9.49805 7.89502 8.67773 7.73096C8.44189 8.69482 8.28809 9.76123 8.23682 10.8789ZM12.7178 10.8789H15.7632C15.7119 9.76123 15.5581 8.69482 15.3223 7.73096C14.502 7.89502 13.6304 7.99756 12.7178 8.03857V10.8789ZM3.0791 12.3145C3.22266 14.0679 3.88916 15.688 4.91455 17.021C5.52979 16.5596 6.32959 16.1699 7.2627 15.8726C6.99609 14.7959 6.82178 13.5962 6.77051 12.3145H3.0791ZM8.23682 12.3145C8.27783 13.4424 8.44189 14.5293 8.68799 15.5034C9.49805 15.3496 10.3799 15.2471 11.2822 15.2061V12.3145H8.23682ZM12.7178 15.2061C13.6304 15.2471 14.502 15.3496 15.312 15.5034C15.5581 14.5293 15.7222 13.4424 15.7632 12.3145H12.7178V15.2061ZM16.7373 15.8726C17.6704 16.1699 18.4702 16.5596 19.0854 17.021C20.1108 15.688 20.7773 14.0679 20.9209 12.3145H17.2295C17.1782 13.5962 17.0142 14.7959 16.7373 15.8726ZM12.7178 16.6416V19.8408C13.5586 19.4409 14.3276 18.3438 14.8813 16.8672C14.2148 16.7441 13.4868 16.6724 12.7178 16.6416ZM9.11865 16.8672C9.67236 18.3438 10.4414 19.4409 11.2822 19.8408V16.6416C10.5132 16.6724 9.78516 16.7441 9.11865 16.8672ZM5.85791 18.0771C6.87305 19.0308 8.10352 19.7588 9.45703 20.1689C8.74951 19.4512 8.14453 18.4463 7.68311 17.2158C6.97559 17.4414 6.36035 17.7285 5.85791 18.0771ZM16.3169 17.2158C15.8555 18.4463 15.2505 19.4512 14.543 20.1689C15.8965 19.7588 17.127 19.0308 18.1421 18.0771C17.6396 17.7285 17.0244 17.4414 16.3169 17.2158Z" fill="black"/>
</svg>
