<svg width="24" height="25" viewBox="0 0 24 25" fill="none" xmlns="http://www.w3.org/2000/svg">
<path d="M12 23.189C6.20654 23.189 1.40771 18.4004 1.40771 12.5967C1.40771 6.80322 6.19629 2.00439 11.9897 2.00439C17.7935 2.00439 22.5923 6.80322 22.5923 12.5967C22.5923 18.4004 17.7935 23.189 12 23.189ZM5.82715 6.14697C6.33984 6.49561 6.95508 6.79297 7.67285 7.01855C8.13428 5.76758 8.74951 4.74219 9.47754 4.01416C8.09326 4.42432 6.85254 5.17285 5.82715 6.14697ZM14.5327 4.02441C15.2505 4.74219 15.8657 5.76758 16.3271 7.02881C17.0449 6.79297 17.6602 6.50586 18.1626 6.14697C17.1475 5.17285 15.9067 4.43457 14.5327 4.02441ZM12.7178 4.35254V7.60303C13.4971 7.57227 14.2251 7.50049 14.9019 7.37744C14.3481 5.87012 13.5688 4.7627 12.7178 4.35254ZM9.09814 7.37744C9.7749 7.50049 10.5029 7.57227 11.2822 7.60303V4.35254C10.4312 4.7627 9.66211 5.87012 9.09814 7.37744ZM3.0791 11.8789H6.77051C6.82178 10.6177 6.99609 9.42822 7.2627 8.36182C6.31934 8.06445 5.50928 7.66455 4.88379 7.20312C3.87891 8.52588 3.22266 10.1357 3.0791 11.8789ZM17.2295 11.8789H20.9209C20.7773 10.1357 20.1211 8.52588 19.106 7.20312C18.4907 7.6748 17.6807 8.06445 16.7373 8.36182C17.0039 9.42822 17.1782 10.6177 17.2295 11.8789ZM8.23682 11.8789H11.2822V9.03857C10.3696 8.99756 9.49805 8.89502 8.67773 8.73096C8.44189 9.69482 8.28809 10.7612 8.23682 11.8789ZM12.7178 11.8789H15.7632C15.7119 10.7612 15.5581 9.69482 15.3223 8.73096C14.502 8.89502 13.6304 8.99756 12.7178 9.03857V11.8789ZM3.0791 13.3145C3.22266 15.0679 3.88916 16.688 4.91455 18.021C5.52979 17.5596 6.32959 17.1699 7.2627 16.8726C6.99609 15.7959 6.82178 14.5962 6.77051 13.3145H3.0791ZM8.23682 13.3145C8.27783 14.4424 8.44189 15.5293 8.68799 16.5034C9.49805 16.3496 10.3799 16.2471 11.2822 16.2061V13.3145H8.23682ZM12.7178 16.2061C13.6304 16.2471 14.502 16.3496 15.312 16.5034C15.5581 15.5293 15.7222 14.4424 15.7632 13.3145H12.7178V16.2061ZM16.7373 16.8726C17.6704 17.1699 18.4702 17.5596 19.0854 18.021C20.1108 16.688 20.7773 15.0679 20.9209 13.3145H17.2295C17.1782 14.5962 17.0142 15.7959 16.7373 16.8726ZM12.7178 17.6416V20.8408C13.5586 20.4409 14.3276 19.3438 14.8813 17.8672C14.2148 17.7441 13.4868 17.6724 12.7178 17.6416ZM9.11865 17.8672C9.67236 19.3438 10.4414 20.4409 11.2822 20.8408V17.6416C10.5132 17.6724 9.78516 17.7441 9.11865 17.8672ZM5.85791 19.0771C6.87305 20.0308 8.10352 20.7588 9.45703 21.1689C8.74951 20.4512 8.14453 19.4463 7.68311 18.2158C6.97559 18.4414 6.36035 18.7285 5.85791 19.0771ZM16.3169 18.2158C15.8555 19.4463 15.2505 20.4512 14.543 21.1689C15.8965 20.7588 17.127 20.0308 18.1421 19.0771C17.6396 18.7285 17.0244 18.4414 16.3169 18.2158Z" fill="black"/>
</svg>
