<?xml version="1.0" encoding="UTF-8"?>
<svg id="_레이어_2" data-name="레이어_2" xmlns="http://www.w3.org/2000/svg" viewBox="0 0 354.24 201.2">
  <defs>
    <style>
      .cls-1 {
        fill: #5e5e5e;
      }
    </style>
  </defs>
  <g id="_레이어_1-2" data-name="레이어_1">
    <g>
      <path class="cls-1" d="M346.81,108.6c-10.86,24.32-83.66,14.96-123.6-9.77-11.61-7.19-26.15-25.9-35.13-9.88-12.52,22.32,18.3,27.91,54.95,29.35,7.49.29,28.95,15.03,9.58,62.97-5.69,14.09.43,19.36,10.86,19.92,5.71.31,15.35-9.56,17.32-20.1,7.77-41.63-20.3-59.57-20.3-59.57,0,0,79.48,22.5,91.32-12.78,11.84-35.28-22.93-47.39-26.2-34.47-3.27,12.92,28.58,17.82,21.21,34.32Z"/>
      <path class="cls-1" d="M91.02,36.2c-9.13,8.88-16.04,18.77-18.31,28.23-5.32,22.16,1.96,25.05,16.9,24.12,1.81-.11,2.57,2.28,1.01,3.21-14.22,8.45-46.28,29.01-51.32,45.44-1.88,6.11,2.47,12.44,8.86,12.58,4.41.1,10.76-1.61,19.48-7.85,17.48-12.49,74.62-57.09,81.94-45.31,7.74,12.47-2.44,57.91-23.79,72.81-21.35,14.9,1.52,28.64,10.5,27.81,26.89-2.48,52.82-89.39,25.1-108.26-35.67-24.28-105.74,68.41-104.48,48.94,1.74-26.84,74.02-68.79,95.08-71.1,21.06-2.31,25.96,1.46,32.7,5.47,6.74,4.01,16.67-7.63,8.7-12.95-7.85-5.23-22.94-13.67-80.6,18.93-2.86,1.62-5.91,2.91-9.11,3.67-6.97,1.66-16.82,1.68-15.19-12.24,1.02-8.7,8.89-20.42,19.11-31.01,23.06,2.63,39.82,1.63,52.18-6.07,12.36-7.7,13.6-19.53,3.84-23.87-4.3-1.91-10.16-2.95-18.11-2.02-11.52,1.35-25.77,7.68-38.65,16.53C82.59,17.87-11.26,29.54,1.12,48.72c12.38,19.18,84.59-13.53,89.9-12.52ZM152.79,12.24c8.51-.52,10.57,8.28,10.37,11.22-1.1,16.14-43.57,5.61-43.57,5.61,0,0,21.64-16.12,33.2-16.83Z"/>
      <path class="cls-1" d="M233.32,20.61c23.76-.48,33.62,6.69,29.55,9.44-7.97,5.4-63.13-13.47-62.97,6.5.16,19.96,54.96,23.76,54.96,23.76,0,0-27.88,18.28-9.03,37.1,18.85,18.82,88.29,21.94,86.78-1.54-1.51-23.48-111.77,22.83-76.37-21.13,13.43-16.68,15.31-20.72,42.75-12.29,31.82,8.32,30.44-22.19,11.84-18.59-18.6,3.6-118.08,17.24-102.62-5.47,13.22-19.43,79.67,18.61,80.96-.49,1.01-14.9-38.73-26.38-53.18-35.94-14.45-9.57-26.43,19.14-2.66,18.66Z"/>
    </g>
  </g>
</svg>