<?xml version="1.0" encoding="UTF-8"?>
<svg id="_레이어_2" data-name="레이어_2" xmlns="http://www.w3.org/2000/svg" viewBox="0 0 1308.15 976.26">
  <defs>
    <style>
      .cls-1, .cls-2 {
        fill: #fff;
      }

      .cls-3 {
        fill: #ff56db;
      }

      .cls-4 {
        fill: #5e5e5e;
      }

      .cls-2 {
        stroke: #5e5e5e;
        stroke-miterlimit: 10;
      }
    </style>
  </defs>
  <g id="_레이어_1-2" data-name="레이어_1">
    <g>
      <polygon class="cls-2" points="660.89 270.04 666.97 279.59 674.01 291.44 675.94 300.91 676.77 309.36 687.09 322.13 684.51 330.16 684.13 337.12 687.05 340.42 686.01 344.44 689.14 352.25 687.85 359.16 662.15 370.75 658.59 377.67 668.9 385.53 685.13 387.34 692.01 396.7 708.05 400.29 723.55 397.29 736.15 396.13 735.59 407 744.34 418.34 751.19 424.52 752.6 434.53 755.94 439.56 764.22 435.72 768.81 437.06 774.83 434.62 783.86 441.76 787.14 449.95 788.44 451.58 793.8 447.76 799.9 447.76 812.98 439.27 826.94 425.7 838.38 413.18 841.02 400.37 848.93 399.19 853.38 381.59 862.81 378.8 869.83 382.21 873.68 382.21 882.37 368.13 892.03 364.11 907.11 363.19 911.06 363.4 920.66 347.93 930.12 348.24 946.27 337.87 947.64 332.3 944.93 324.4 942.29 319.11 935.93 321.07 930.43 322.23 919.71 322.49 916.33 316.17 907.15 310.4 899.01 303.59 882.47 285.81 880.77 287.45 873.75 292.67 871.13 300.33 861.5 310.59 849.74 320.76 846.91 326.72 819.57 342.22 821.41 330.92 812.89 329.33 798.66 333.48 781.28 320.58 773.91 321.42 762.34 315.98 751.72 308 747.68 295.24 748.8 286.93 735.87 283.85 721.96 278.25 715.49 267.92 708.74 263.55 704.97 257.84 697.73 256.18 688.65 248.75 675.97 237.25 656.99 247.4 653.15 253.1 651.89 252.72 653.65 263.83 660.89 270.04"/>
      <polygon class="cls-2" points="700.23 251.34 708.34 253.2 712.69 259.78 719.49 264.18 725.66 274.04 737.74 278.9 754.8 282.92 753.21 294.79 756.4 304.86 765.42 311.64 774.84 316.01 782.82 315.1 799.75 327.66 812.61 323.91 827.58 326.71 826.7 332.08 842.7 323.01 845.29 317.55 857.8 306.75 866.35 297.61 869.14 289.47 877.33 283.38 878.78 281.97 870.92 270.69 860.88 265.32 860.82 265.59 860.12 264.91 859.46 264.55 859.56 264.37 853.73 258.7 842.66 247.04 831.57 233.11 826.65 220.06 819.72 212.92 806.99 207.18 797.02 195.39 785.97 195.32 774.78 192.85 769.25 182.09 770.71 176.4 767.54 175.25 768.56 145.13 773.56 142.29 772.07 135.79 773.61 125.8 780.08 118.26 779.45 114.58 775.81 107.52 767.01 100.31 762.98 85.49 751.52 77.47 749.12 58.8 743.45 58.01 738.26 59.11 734.64 62.4 728.55 60.86 723.58 61.96 719.29 64.6 716.13 68.11 710.49 75.13 706.43 76.67 703.27 79.08 704.39 84.57 707.33 92.25 710.04 106.95 708.01 128.24 688.37 138.99 682.05 154.35 669.41 163.35 664.89 165.1 665.12 170.59 669.86 173.44 671.21 181.78 680.92 200.65 676.18 212.29 682.27 215.58 684.98 222.6 680.18 233.87 692.25 244.81 700.23 251.34"/>
      <path class="cls-2" d="M405.64,437.28l23.26,18.58,28.29-29.41,3.91-10.27,12.65,6.79,1.3,8.37,13.02-1.75,1.53-5.72,2.75-2.67,3.22-10.3,5.2,5.06,4.53-.79-.63-5.45v-8.9l10.58-11.57,15.53-9.24,7.2-1.22,5.58-1.97,2.2-3.11-.68-3.98-2.94-7.85,5.34-4.82,3.97-5.26h7.47l2.5-3.54,6.08-7.89,6.24-1.35,4.32-1.47.96-6.33.82-8.54-3.24-7.16-.31-12.08-2.2-15.6,5.51-10.36,9.12-1.71,8.53-1.81,6.52-9.06h5.69l11.37-1.93,6.84-3.6,5.47-3.25,12.76-6.35-.16-1.03-8.2-8.13-2.48-12.51-9.71-12.29-11.51-7.24-1.35-12.73-5.42-4.17-10.16-14.92-10.38-8.56c-11.74-.66-21.45-14.92-21.45-14.92l-25.06,14.26-5.64,11.41c-8.8,9.22-18.06,4.61-18.06,4.61l-26.41,17.56-9.48,1.54c-13.77,9.66-32.28-8.34-32.28-8.34l-4.29-.66-1.13,2.41-.68,3.51,2.48,2.85,3.84,4.83-.23,3.95v3.95l1.13,2.41,2.48,5.27.68,2.85-1.35,1.54-.68,5.93.68,2.63.9,2.63-.9,3.73-3.61,2.19-2.71,3.07-4.51,5.71-.9,4.83,2.26,3.29,4.97,6.15-.45,7.46-1.35,3.73-4.06,3.51-.9,1.97-.23,3.51,1.58,2.85,1.13,2.41-4.29,2.85-3.39,4.17-2.94,4.17-4.74,4.83-.68,4.61-1.58,7.9-2.03,1.97-.23,3.29,1.81,3.29,2.26,3.51,1.13,6.58-.68,3.29-2.03,1.32-.68,2.85,1.35,2.85,1.81,3.07.23,2.63-1.81,1.76-3.39,2.85-.45,5.71,2.71,6.36v2.85l-1.13,2.63.68,3.07,2.48,3.51-.68,4.39-4.06,2.41-3.16,3.95.23,9,.9,3.51-6.1,1.76-5.64.66-1.81-1.54-5.19-.44-3.39,3.95-2.71.66-2.48-3.07h-3.39l-4.29.44-2.26-1.97-2.03-4.17.23-3.73,4.29-4.17-1.58-2.63-4.51-3.73-3.16,2.19-5.42,7.02-3.72,3.16,20.59,19.46,18.25,15.41Z"/>
      <polygon class="cls-3" points="325.98 473.13 344.01 485.39 356.46 494.84 373.25 506.79 389.29 517.09 404.22 528.66 416.68 540.19 432.03 549.86 446.78 561.27 465.59 574.12 475.4 577.3 486.33 574.6 497.1 572.99 510.23 572.68 518.34 577.41 528.68 582.44 533.67 580.82 542.58 582.26 548.28 589.25 557.39 604.88 557.44 604.77 559.31 605.47 559.36 605.47 566.78 604.89 577.83 604.34 581.76 601.71 594.09 588.58 601 579.35 604.78 569.25 609.9 565.83 616.5 556.59 615.8 552.99 614.59 545.61 613.22 535.34 618.31 529.23 612.38 525.81 604.94 527.91 594.7 529.08 583.79 530.85 553.66 533.45 541.15 537.01 532.58 536.68 514.9 527.94 502.9 522.45 504.48 512.82 507.04 507.4 501.88 503.64 473.06 493.2 470.25 488.66 442.76 474.65 426.81 461.78 427.2 461.32 402.14 441.31 383.72 425.75 362.71 405.89 358.11 409.79 356.75 418.57 348.4 424.49 347.95 429.54 350.88 431.08 350.88 437 349.53 438.1 347.72 444.24 342.3 446.66 331.92 450.61 317.25 454.78 307.68 460.32 309.7 461.69 325.98 473.13"/>
      <path class="cls-2" d="M1033.51,298.23l-8.52,4.97-12.11,7.23-5.22-7.46-5.69-6.63-5.01.84s-4.31.69-8.61,1.36c-2.15.34-4.3.67-5.92.92-.88.13-1.66.25-2.34.31-.77.42-1.76.88-3.01,1.47-2.08.97-4.85,2.26-7.62,3.55-4.94,2.29-9.89,4.58-10.9,5.05l-11.21,7.39,2.65,5.36,3.26,9.49-.09.35,3.44,33.42-7.94,13.23.86,18.15,2.35,13.07,7.05,9.67,11.97,21.85,3.5,12.72-.92,12.27.65,5.71,7.95,1.4,15.42,1.71,17.43-.64,17.4-3.17,8.85-5.03,3.76-2.36-.14-5.02,1.13-2.19,4.74-6.8,1.58-3.73.45-4.39,1.8-1.97,4.74-2.41,4.29-3.07,6.1-3.07,2.26-6.8,2.03-8.12,1.8-7.02,3.61-7.9,1.81-4.39,5.87-3.51,3.16-1.76,3.16-2.85.68-4.17-.9-5.93-2.71-5.71-2.94-4.17,1.58-3.29,3.61-4.83,4.29-4.83,1.13-4.83.45-9-1.13-4.39-3.16-5.05-.45-2.85,2.48-3.29-.68-6.14-.23-7.9-.45-6.58-.45-3.73-5.65-5.05s-7.45-2.85-8.13-3.07c-.68-.22-7.68-2.19-7.68-2.19l-10.39,1.1-4.41-1.17-12.32,4.63-12.41,1.29Z"/>
      <polygon class="cls-2" points="756.6 74.54 767.72 82.32 771.81 97.35 780.16 104.19 784.66 112.93 785.83 119.78 778.75 128.04 777.58 135.6 779.71 144.9 773.87 148.21 773.08 171.64 777.14 173.12 774.99 181.48 778.48 188.27 786.87 190.12 799.58 190.12 810.39 202.91 822.94 208.57 831.36 217.24 836.37 230.53 846.88 243.72 857.69 255.1 860.79 241.73 869.36 229.23 867.28 223.18 875.21 218.56 878.31 212.11 886.28 206.29 895.43 216.55 895.93 210.9 897.63 205.11 897.63 201.33 892.74 192.69 891.31 180.54 890.88 166.25 883.23 152.7 881.88 134.7 873.57 119.9 877.9 97.15 881.89 85.07 884.09 69.64 884.54 55.73 885.01 48.01 885.3 45.9 884.09 42.65 883.86 37.16 882.96 32.34 880.93 27.29 877.76 21.58 875.28 22.24 872.12 24.66 868.28 27.07 864.9 25.31 861.96 22.02 857.45 18.51 854.97 19.61 849.55 23.56 846.39 27.95 841.42 30.14 833.29 31.02 831.26 34.53 827.88 35.41 826.3 32.78 824.72 28.39 823.36 24 820.65 16.76 818.17 11.05 813.65 5.12 807.11 2.05 800.11 .52 791.98 2.93 777.31 6 769.63 8.42 762.41 10.39 757.67 14.34 754.06 21.8 752.48 26.85 751.35 32.99 749.32 40.02 749.99 43.31 752.7 47.48 754.74 52.31 753.56 54.67 754.04 54.61 756.6 74.54"/>
      <path class="cls-2" d="M889.95,55.97l-.47,14.25-2.36,16.24-4.01,12.13-3.86,20.42,7.95,14.17,1.35,17.99,7.7,13.66.47,15.44,1.28,10.79,5.05,8.92v5.87l-1.83,6.24-1.38,17.44-14.33-16.08-2.86,2.08-3.22,6.72-5.62,3.28,1.54,4.49-9.49,13.83-3.73,16.12,12.56,6.72,8.99,12.9.18-.15,19.06,20.5,7.63,6.36,9.93,6.21,2.49,4.65,7.07-.17,4.59-1.02,9.43-2.92,12.02-7.89c6.66-3.08,16.13-7.46,20.12-9.34l-.08-.31,4.81-1.56.17.4c3.38-.51,10.34-1.61,14.99-2.35l8.07-1.35,7.93,9.27,2.38,3.41,7.73-4.61,9.56-5.58,12.87-1.34,5.98-2.28,2.46-.92,2.14-2.78.23-6.14,2.26-4.39,1.35-2.85,2.48-3.73,5.87-3.51,3.84-3.73,2.26-3.51,2.48-3.07,1.36-9.87.45-3.73v-6.8l-.45-6.8-.45-6.58-1.8-5.71-4.74-5.05-8.58-5.93s-9.48-3.95-10.16-3.95-5.19-.66-5.19-.66l-4.74.44-5.19.88-5.87.88-7.68-.44-3.84-6.8-4.06-5.27,2.03-1.32,1.35-3.73,1.13-3.07.9-3.95-1.81-7.9-4.29-2.19.23-4.17-1.35-3.51-.23-6.14.9-2.41,2.26-3.07,2.48-3.07,3.39-4.39-.9-4.39-.68-8.78,1.58-1.97,1.58-3.51,1.81-4.39.9-3.95v-4.61l-3.16-5.49-3.84-4.39-.45-4.17-1.13-4.39-1.58-3.07-2.71-3.95-.45-5.05,2.48-3.95,2.71-3.95,2.93-5.05,4.52-5.93.68-4.17-.9-6.58-1.81-4.61-4.97-1.98-5.87-2.41-5.64.88-7.22-1.54-5.64-2.41-3.16-5.71-.9-3.07-3.39-6.15-5.42-6.58-8.13-.88-5.64,1.32-4.52.88-7.45,3.51-3.84,1.98-5.87.88-5.42-.44-5.19-1.1-9.71-1.97-5.19,1.1-.9,2.85-1.81,4.17-3.84,4.83-6.77,4.17-4.51,3.07-4.06,2.19-4.06.88-3.7,3.24-.37,2.72-.45,7.36Z"/>
      <polygon class="cls-2" points="1034.26 476.81 1015.34 480.23 997.31 480.9 981.3 479.12 975.29 478.06 969.6 489.5 958.71 509.34 956.3 514.04 960.19 516.12 958.94 524.03 958.77 524.38 945.9 550.5 923.11 597.66 916.24 613.31 924.95 617.63 945.44 625.86 973.11 632.74 981.31 632.53 994.38 632.11 1010.1 626.2 1022.3 609.18 1037.77 597.68 1051.15 583.15 1062.85 569.4 1069.14 564.92 1073.66 556.93 1076.57 546.31 1083.65 526.61 1088.22 519.95 1087.1 519.4 1083.87 514.91 1078.22 512.27 1073.48 515.57 1068.52 518.86 1060.16 525.66 1057.23 523.25 1053.17 519.3 1047.3 515.35 1047.07 511.62 1048.65 504.15 1051.13 494.5 1053.17 484.4 1054.75 477.38 1053.62 471.89 1049.56 468.38 1048.83 468.24 1044.03 471.25 1034.26 476.81"/>
      <polygon class="cls-2" points="625.89 506.74 626.34 497.96 632.93 491.56 632.37 486.62 626.83 484.94 612.28 480.83 593.84 464.29 586.66 450.33 598.38 443.03 596.92 437.02 597.44 427.93 602.57 421.41 598 415.47 595.93 403.9 598.45 399 600.61 390.59 601.72 384.5 593.83 376.13 584.52 378.79 583.34 360.99 586.91 355.98 578.28 343.04 575.11 344.11 570.67 345.07 565.85 351.32 561.8 357.05 554.22 357.05 551.38 360.74 548.48 363.35 550.4 368.61 551.49 374.93 547.07 381.18 539.17 383.93 532.75 385.02 518.79 393.33 510.11 402.82 510.11 409.57 511.29 419.48 498.96 421.62 498.14 420.83 497.15 423.99 494.49 426.58 492.41 434.32 470.51 437.26 468.8 426.32 464 423.74 461.89 429.27 432.66 459.66 446 470.42 474.12 484.68 476.73 488.92 504.5 498.97 513.78 505.74 509.72 514.36 508.89 519.37 517.28 523.21 533.99 531.46 540.47 531.72 552.91 528.23 583.21 525.61 593.94 523.87 604.07 522.71 613.11 520.1 614.57 520.95 618.69 513.74 625.89 506.74"/>
      <polygon class="cls-3" points="586.37 626.3 588.86 636.91 592.76 647.45 597.16 650.79 604.74 653.07 610.05 655.19 617.63 658.92 621.55 661.64 636.57 667.08 653.4 673.8 671.03 679.23 681.08 679.75 690.27 675.15 703.72 667.02 722.05 655.62 731.95 650.12 735.67 642.33 744.73 632.65 751.77 627.41 764.57 621.05 772.16 607.47 778.48 598.72 773.21 596.27 765.6 598.26 756.65 595.61 753.02 586.08 752.74 577.09 748.78 573.45 743.78 567.3 742.94 559.95 736.12 555.97 726.36 559.04 717.25 563.63 707.82 563.63 703.45 552.84 697.39 547.21 677.18 540.57 665.01 542.09 660.72 539.1 653.02 539.6 645.27 542.2 639.12 548.61 633.79 540.41 629.4 536.14 622.9 532.08 618.89 536.9 619.95 544.86 621.14 552.09 622.24 557.79 613.79 569.62 609.28 572.63 605.83 581.84 598.19 592.03 585.08 605.88 579.64 609.52 571.23 609.94 575.34 611.48 586.37 626.3"/>
      <polygon class="cls-2" points="459.93 750.38 483.21 744 487.98 734.19 493.34 713.95 498.96 695.29 504.62 684.28 503.83 677.41 529.11 672.24 545.87 668.16 554.88 665.37 533.71 643.25 519.71 627.37 508.66 624.15 497.55 622.95 488.78 618.29 485.17 615.29 460.47 612.01 451.53 617.6 442.69 612.91 437.77 602.15 399.76 572.71 379.08 557.78 365.52 552.98 357.54 543.56 355.6 543.75 358.17 550.25 364.21 561.46 364.38 561.33 375.58 574.15 383.51 589.61 391.6 610.16 389.56 622.72 380.33 632.98 369.81 638.99 364.44 642.65 360.9 649.52 361.95 657.13 366.3 666.8 364.85 679.01 381.09 687.72 394.04 693.72 405.31 705.32 405.96 718.58 405.96 736.26 406.54 745.69 412.44 762.32 418.86 778.2 427.69 788.4 432.86 789.94 443.77 774.56 459.93 750.38"/>
      <polygon class="cls-2" points="1137.81 654.41 1111.22 645 1095.83 637.85 1095.83 626.03 1106.78 610.07 1108.37 598.73 1104.43 592.5 1088.29 583.61 1082.82 595.98 1065.47 624.48 1059.82 638.51 1054.07 642.23 1045.88 652.64 1036.01 654.44 1027.28 662.35 1013.79 669.16 991.6 675.1 975.49 676.3 957.47 671.63 943.76 673.11 942.97 677.72 947.1 699.5 949.45 715.44 956.43 726.42 969.3 730.23 992.66 736.05 1038.95 749.67 1065.08 767.8 1080.37 793.37 1098.37 819.05 1109.32 833.85 1120.48 852.69 1121.11 853.15 1121.11 849.13 1124.73 847.81 1129.47 852.64 1141.43 853.74 1146.62 853.08 1157.91 850.67 1159.04 848.47 1154.3 842.98 1145.95 841.45 1138.5 835.52 1138.05 825.87 1143.92 822.14 1159.94 830.7 1166.49 830.48 1189.06 814.02 1191.32 809.41 1195.16 802.39 1198.55 795.8 1199.45 790.32 1205.32 789.22 1210.51 783.95 1211.19 778.47 1229.02 763.54 1229.25 749.06 1231.05 747.31 1231.5 740.28 1233.76 738.31 1231.95 731.29 1227.89 728.43 1223.83 720.53 1220.44 720.97 1218.41 724.26 1214.57 722.73 1212.09 717.24 1202.16 709.12 1199.22 712.63 1196.06 717.46 1185.68 720.53 1172.36 714.39 1171.91 709.78 1170.55 705.83 1167.62 700.34 1171.46 687.61 1176.42 684.1 1175.29 678.4 1178.76 677.38 1165.69 665.95 1137.81 654.41"/>
      <polygon class="cls-2" points="190.71 578.87 195 567.55 200.36 561.3 206.49 568.26 208.67 577.42 207.53 579.62 213.14 582.97 220.26 586.43 222.36 597.57 222.36 606.28 227.58 615.88 232.92 628.59 238.52 637.99 306.83 627.47 307.82 616.39 305.92 604.64 309.65 598.59 309.65 589.64 301.66 578.89 303.75 567.52 306.89 557.84 311.81 547.46 328.2 557.85 339.43 563.86 352.91 562.77 358.24 561.73 353.17 552.28 350.41 545.29 334.07 531.68 310.13 514.23 276.47 490.86 252.45 475.1 235.76 463.52 202.43 449.31 172.74 428.69 151.96 411.41 133.3 389.76 120.17 372.37 109.64 364.46 109.56 365.46 108.21 367.66 105.5 369.41 103.02 371.83 102.34 385.21 107.31 393.77 109.56 398.38 111.82 402.99 112.05 409.13 111.14 416.59 107.08 418.35 102.34 424.27 97.6 430.86 97.15 434.59 94.21 439.2 89.7 446.22 89.25 455.44 88.12 453.02 87.67 450.39 84.73 448.63 82.02 452.14 77.51 456.31 72.77 459.83 66.45 464.65 56.97 469.7 56.74 474.75 54.26 474.97 51.77 479.8 54.71 482.65 56.29 485.28 52.23 485.94 47.49 490.55 44.1 490.11 40.04 488.13 37.1 490.77 36.42 494.72 38.91 498.01 42.52 507.23 43.2 517.54 41.62 515.35 37.55 512.49 34.17 515.78 28.75 525 26.04 527.42 18.14 526.54 12.27 527.2 6.63 530.27 .98 534.44 .53 537.51 24.46 562.31 35.75 562.09 49.07 572.84 73.22 573.72 84.05 581.4 84.96 587.98 88.12 589.08 91.73 590.18 92.41 592.81 89.7 594.35 88.8 599.18 91.73 602.47 93.76 610.59 96.24 611.03 111.82 600.49 112.5 598.08 116.79 593.25 121.53 588.86 125.59 586.01 130.78 582.72 137.1 582.5 138.23 584.25 140.49 588.2 144.78 590.4 150.65 592.59 178.19 592.15 178.51 596.37 185.49 587.32 190.71 578.87"/>
      <polygon class="cls-2" points="201.48 704.41 210.15 705.94 210.85 714.71 218.02 722.76 222.5 727.11 227.72 724.15 235.16 718.03 240.15 711.96 246.97 708.35 253.69 702.47 262.91 703.67 268.44 699.91 278.54 697.1 284.61 701.23 292.43 699.33 299.43 708.97 316.29 701.52 311.09 716.68 312.54 719.22 316.54 718.35 325.39 720.07 330.28 718.34 334.34 710.6 345.18 697.72 359.12 681.34 360.75 667.61 356.68 658.56 355.31 648.61 360.21 639.1 366.97 634.51 376.83 628.87 384.45 620.4 386.02 610.72 378.5 591.6 370.88 576.8 361.73 566.42 353.52 568.01 338.25 569.24 325.32 562.32 314.1 555.21 311.88 559.89 308.97 568.93 307.4 577.61 315.07 587.94 315.07 600.05 311.57 605.71 313.28 616.2 311.86 632.03 235.7 643.75 227.98 630.75 222.61 618 216.94 607.59 216.94 597.81 215.43 589.98 210.4 587.52 200.47 581.58 202.95 576.75 201.51 570.7 200.42 569.46 199.76 570.23 195.49 581.36 189.91 590.37 179.08 604.41 178.89 604.28 179.09 613.88 185.86 622.66 186.77 626.83 189.03 629.68 193.31 631.65 197.15 633.41 197.38 643.29 193.09 647.02 190.83 652.5 189.7 661.72 188.57 672.03 185.86 677.08 183.38 679.49 183.38 685.42 186.09 686.52 187.44 688.93 188.35 695.51 185.19 695.3 183.61 700.12 184.74 704.73 185.99 705.22 186.16 703.2 201.48 704.41"/>
      <polygon class="cls-2" points="1016.66 879.32 1012.43 863.43 1005.37 856.57 1001.29 847.52 991.57 841.85 992.58 829.13 991.74 829.43 981.24 832.63 972.36 830.47 968.97 833.73 957.82 842.16 939.66 848.84 919.15 853.59 904.84 853.56 893.63 851.63 877.22 832.59 867.95 819.98 858.99 793.86 849.45 796.24 834.69 796.92 829.3 779.25 820.32 757.13 805.83 724.84 796.8 699.68 787.69 676.56 783.09 656.46 776.36 651.66 768.66 656.34 760.6 665.85 755.06 673.94 749.31 673.94 745.65 681.57 736.47 691.13 724.39 695.24 706.28 712.85 694.87 716.11 682.6 714.89 674.76 714.4 669.1 721.08 675.89 726.64 685.78 734.97 686.64 744.18 679.93 747.74 680.47 761.46 679.12 780.4 676.25 788.77 676.25 804.92 675.28 818.08 678.56 837.83 684.09 848.04 696.66 857.21 697.33 872.09 696.12 885.02 696.12 891.88 698.3 890.39 712.97 878.54 719.97 877.66 725.61 871.07 725.16 866.9 721.33 861.86 722.23 859.01 740.97 859.66 742.55 865.15 749.09 879.85 759.02 893.9 780.47 905.97 784.31 902.46 784.08 898.07 788.15 896.75 791.31 900.48 795.37 900.26 801.46 897.63 816.59 886.22 818.17 878.75 827.42 864.27 831.04 864.71 838.94 870.64 837.58 874.15 835.78 883.8 840.52 889.29 842.1 894.99 844.81 898.29 837.36 904.87 838.71 909.92 846.39 920.01 847.52 924.18 843.45 926.6 844.36 932.08 848.42 933.84 849.32 937.57 845.26 943.05 839.84 951.61 841.42 960.61 848.64 962.37 858.13 964.78 865.35 972.24 879.12 974.44 953.61 973.78 962.64 965.66 964.22 962.15 957.23 957.54 956.77 949.2 973.25 948.76 979.58 952.71 988.6 951.83 996.51 939.98 1004.41 939.54 1008.02 933.84 1008.7 918.48 1013.89 912.33 1013.89 908.16 1016.6 907.5 1025.63 899.16 1028.33 894.78 1028.79 887.75 1028.8 887.6 1022.97 884.76 1016.66 879.32"/>
      <polygon class="cls-3" points="1104.69 836.59 1093.94 822.07 1075.73 796.1 1060.98 771.43 1036.53 754.46 991.21 741.12 967.84 735.3 952.9 730.88 944.24 717.28 941.75 700.35 937.47 677.76 938.52 671.62 933.01 666.26 925.33 660.51 906.36 647.96 894.31 635.68 870.67 631.06 850.81 624.04 834.18 618.84 817.72 615.53 808.23 619.63 800.63 628.15 787.52 640.31 780.95 648.4 787.94 653.38 792.93 675.22 801.89 697.86 810.91 723.01 825.32 755.1 834.46 777.65 838.68 791.47 848.91 790.99 862.53 787.51 872.83 817.56 881.57 829.45 896.52 846.78 905.54 848.33 918.83 848.33 938.22 843.76 955.13 837.52 965.52 829.67 970.69 824.64 981.08 827.16 989.98 824.45 998.63 821.3 997.23 839.01 1005.57 843.87 1009.92 853.55 1017.31 860.73 1021.5 876.44 1026.03 880.36 1029.2 881.9 1029.24 881.39 1037.59 875.68 1044.14 875.68 1057.68 875.02 1071.9 875.46 1082.29 878.75 1092.22 888.19 1096.28 888.19 1099.22 885.12 1101.25 880.95 1104.18 871.51 1110.96 869.54 1120.89 860.76 1120.93 859.6 1116.34 856.25 1104.69 836.59"/>
      <polygon class="cls-3" points="691.9 871.97 691.36 859.93 679.86 851.54 673.35 839.52 670.69 823.5 660.49 824.91 641.82 826.17 614.79 800.53 618.21 794.55 616.22 789.24 610.58 770.39 611.63 763.24 608.47 761.08 602.81 764.62 602.81 771.08 588.28 771.08 565.87 764.77 554.29 768.71 544.48 769.31 532.57 771.75 518.85 767.75 514.15 759.99 510.83 763.54 505.6 773.07 489.37 776.86 475.54 779.66 466.1 787.69 452.44 793.12 435.93 798.6 435.54 797.46 429.53 808.55 445.58 803.05 455.22 807.73 455.83 816.59 465.56 821.92 465.56 834.99 454.71 840.55 457.43 848.46 464.66 856.57 473.04 862 471.64 870.17 474.07 879.64 471.95 887.9 477.98 892.09 494.18 889.66 509.5 910.15 516.69 917.77 517.22 930.23 518.61 934.28 530.8 945.03 540.73 954.91 540.28 966.1 543.44 969.61 552.02 971.8 554.95 968.29 559.69 966.97 566.24 967.19 567.14 964.78 577.08 962.15 582.27 959.07 586.56 961.05 598.97 961.05 605.52 960.17 610.03 955.56 620.64 955.12 622.45 951.83 624.71 946.79 625.38 939.54 628.77 936.03 641.64 932.3 653.15 930.76 657.67 928.57 659.47 922.65 665.12 915.62 673.69 907.94 678.21 902.46 678.43 896.31 685.21 895.43 690.7 894.75 690.71 884.66 691.9 871.97"/>
      <polygon class="cls-2" points="505.22 913.38 491.73 895.36 476.62 897.62 465.8 890.1 468.49 879.64 466.11 870.38 467.12 864.5 461.04 860.56 452.63 851.12 448.12 837.97 460.14 831.82 460.14 825 450.62 819.78 450.02 811.09 445.21 808.75 425.83 815.41 425.83 815.4 423.89 818.97 418.16 817.37 400.2 820.39 380.46 806.76 360.03 790.3 342.79 788.62 342.99 786.65 342.08 786.81 335.98 786.15 334.63 788.78 336.43 790.1 337.34 801.95 342.98 812.04 342.98 817.09 349.53 828.5 373.91 860.32 373.46 862.95 370.3 862.74 368.04 864.05 367.81 867.34 377.07 875.68 384.97 876.34 384.29 878.98 379.1 879.63 376.84 883.36 378.42 886.44 379.78 897.41 381.81 898.73 384.97 902.46 389.48 908.38 392.42 913.43 396.03 913.65 406.41 923.74 406.19 930.76 408.9 933.62 414.77 942.62 417.7 949.86 419.06 960.83 419.28 974.65 460.37 975.75 460.82 972.9 463.3 966.54 466.91 961.05 473.91 959.29 483.84 958.85 486.33 957.32 492.65 947.44 497.16 938.23 502.13 933.4 509.13 926.38 511.56 924.7 511.36 919.91 505.22 913.38"/>
      <polygon class="cls-2" points="1305.77 542.12 1296.52 536.63 1296.29 531.8 1296.06 520.83 1296.06 512.71 1293.13 505.47 1289.52 500.2 1288.62 493.62 1290.42 486.16 1288.17 480.45 1283.87 471.46 1276.88 459.39 1272.36 447.32 1274.85 443.15 1270.1 439.86 1264.69 442.71 1260.17 445.34 1258.59 443.59 1256.5 442.83 1245.67 451.86 1238.24 462.69 1223.8 469.4 1210.23 476.86 1197.52 486.85 1190.14 491.41 1173.14 490.19 1158.46 490.76 1150.15 492.37 1127.04 506.97 1108.79 537.31 1090.45 578.75 1108.31 588.59 1114 597.58 1111.98 611.98 1101.25 627.62 1101.25 634.53 1113.44 640.2 1139.8 649.52 1168.65 661.44 1182.74 673.78 1182.74 666.77 1191.77 660.18 1194.93 642.41 1208.48 629.24 1208.7 623.1 1210.28 619.15 1214.8 617.39 1216.61 612.78 1215.7 609.05 1217.28 607.3 1219.76 605.54 1221.12 601.37 1218.64 600.27 1217.96 595.88 1219.76 593.91 1224.28 586.23 1237.37 570.87 1241.44 570.65 1242.57 573.94 1248.66 572.18 1260.62 570.43 1263.78 569.33 1275.3 570.87 1276.43 567.58 1278.01 564.5 1287.94 562.75 1292.68 565.38 1299.9 569.55 1299.9 566.7 1298.1 560.99 1297.65 555.73 1300.58 551.55 1304.87 550.46 1307.58 547.82 1305.77 542.12"/>
      <polygon class="cls-2" points="383.84 802.64 401.5 814.82 418.46 811.98 421.15 812.73 430.83 794.84 424.57 792.97 414.14 780.93 407.36 764.14 401.18 746.72 400.55 736.41 400.55 718.7 400 707.51 390.8 698.05 378.61 692.41 363.59 684.35 338.73 713.71 334.16 722.57 325.81 725.53 316.6 723.74 309.77 725.21 305.2 717.21 307.22 711.31 297.59 715.57 290.15 705.31 283.52 706.92 277.55 702.85 270.8 704.73 264.29 709.16 255.45 708.01 249.85 712.82 243.7 716.08 238.86 721.88 230.65 728.59 221.62 733.7 213.99 726.28 205.58 716.85 205.07 710.4 200.64 709.61 187.23 708.57 181.35 711.54 180.45 721.19 179.32 726.9 174.13 731.94 170.51 736.11 168.93 740.5 164.65 741.38 160.81 743.58 153.58 743.35 151.1 747.74 150.2 753.45 152.46 758.72 155.39 762.89 154.94 767.93 161.49 773.64 164.65 775.61 169.16 774.52 171.19 772.98 176.38 774.52 182.25 778.03 183.61 783.29 180 786.15 171.19 790.98 170.51 793.61 171.87 801.29 172.55 810.95 171.42 815.55 164.42 816.87 161.26 820.82 159.68 827.4 157.42 827.18 156.07 831.35 159.45 833.77 164.19 838.16 168.93 838.82 173 835.52 173.45 833.11 175.93 828.06 179.09 826.97 181.35 830.7 184.96 830.7 185.86 827.84 190.15 827.18 193.31 830.92 198.73 830.92 201.22 828.28 209.57 823.24 211.83 824.11 216.79 826.53 219.5 830.7 225.37 829.82 226.5 827.62 230.34 828.06 235.08 826.09 242.08 826.97 249.75 835.52 259.23 835.96 260.36 831.35 256.3 829.82 255.39 826.53 259.91 822.8 259.46 813.36 261.94 806.56 274.81 807.87 284.06 800.19 284.06 796.02 287.22 793.83 293.09 793.17 295.35 789.88 302.35 781.76 307.09 775.39 313.86 772.32 322.66 765.96 326.5 767.06 338.24 774.08 338.47 781.32 341.18 782.42 344.11 782.42 345.24 780.66 347.5 781.32 347.26 783.77 362.21 785.22 383.84 802.64"/>
      <polygon class="cls-2" points="653.59 715.57 649.62 718.32 636.67 711.04 623.44 702.85 571.3 676.93 566.99 677.4 549.62 683.22 533.36 687.31 519.41 690.4 508.85 687.83 503.91 697.43 498.56 715.34 492.99 736.22 487.05 748.42 463.36 754.91 448.27 777.49 437.64 792.47 450.54 788.19 463.21 783.15 473.04 774.79 488.19 771.72 501.97 768.5 506.6 760.24 515.09 751.15 522.44 763.3 532.8 766.32 543.95 764.06 553.21 763.5 565.71 759.25 589.05 765.81 597.39 765.81 597.39 761.74 608.6 754.74 617.47 760.78 616.11 770.01 621.37 787.61 624.14 795.01 621.54 799.57 643.87 820.75 660.02 819.66 669.83 818.3 670.84 804.64 670.84 787.92 673.87 779.06 675.05 761.39 674.39 744.68 680.92 741.21 680.58 737.55 672.37 730.64 660.97 721.31 653.59 715.57"/>
      <polygon class="cls-3" points="582.03 314.33 585.41 321.8 584.44 331.84 583.11 340.61 593.43 356.07 588.87 362.48 589.49 371.88 595.54 370.15 607.52 382.85 605.89 391.78 603.43 401.09 601.57 404.71 603.11 413.32 609.37 421.44 602.76 429.84 602.38 436.55 604.53 445.46 593.68 452.21 598.24 461.07 615.02 476.12 628.4 479.9 637.36 482.62 637.77 486.17 648.28 481.55 668.63 481.57 688.74 484.18 705.11 483.76 713.17 480.05 724.96 474.79 738.96 478.88 755.02 477.19 762.55 475.82 777.86 477.62 789.6 479.25 799.36 473.49 799.36 453.02 795.58 453.02 787.4 458.85 782.38 452.58 779.33 444.97 773.92 440.7 769.1 442.65 764.66 441.35 753.98 446.3 747.39 436.4 746.09 427.1 740.15 421.68 730.08 408.63 730.43 401.95 724.2 402.52 707.97 405.68 688.79 401.38 682.12 392.3 666.75 390.6 651.77 379.15 658.15 366.75 683.02 355.53 683.53 352.78 680.34 344.79 681.11 341.78 678.61 338.94 679.24 328.91 681.07 323.21 671.52 311.4 670.56 301.55 668.87 293.33 662.32 282.29 656.7 273.47 648.59 266.52 646.81 255.24 635.74 260.74 630.41 263.91 622.68 267.99 609.74 270.15 606.63 270.15 600.51 278.65 589.85 280.91 583.25 282.15 579.73 288.76 581.74 303.15 582.03 314.33"/>
      <polygon class="cls-2" points="823.71 479.71 832.76 476.11 843 470.24 853.84 468.82 865.35 468.82 886.75 479.91 896.71 491.81 914.62 502 937 510.53 951.85 510.91 953.9 506.93 964.77 487.11 969.75 477.08 969.21 476.99 968.05 466.9 968.94 455.03 965.75 443.46 954.24 422.59 946.76 412.37 944.14 397.62 943.2 377.75 951.06 364.65 948.79 342.57 931.66 353.57 923.66 353.3 914.01 368.84 907.13 368.47 893.3 369.31 886.11 372.3 876.74 387.48 868.55 387.48 862.32 384.45 857.91 385.76 853.33 403.86 845.59 405.02 843.41 415.62 830.88 429.32 816.21 443.51 804.78 450.92 804.78 472.15 816.37 478.59 823.71 479.71"/>
      <polygon class="cls-2" points="777.15 482.84 762.72 481.14 755.7 482.41 738.45 484.23 725.36 480.41 715.46 484.82 706.39 489 688.45 489.46 668.1 486.82 649.45 486.82 638.4 491.67 638.61 493.49 631.65 500.25 631.2 509.03 623.05 516.95 619.23 523.64 626.45 527.8 626.32 527.97 633.02 532.21 638.22 537.35 639.95 540.02 642.23 537.65 651.94 534.4 662.29 533.72 666.43 536.6 677.73 535.19 700.27 542.59 708.06 549.83 711.51 558.36 715.93 558.36 724.48 554.1 736.79 550.22 748.03 556.77 748.99 565.22 752.11 569.06 763.07 558.9 769.46 551.56 775.86 546.96 778.07 542.67 779.66 529.64 789.75 522.99 795.86 522.74 798.42 515.03 805.63 505.1 806.46 502.51 800.32 497.62 799.52 479.56 790.75 484.73 777.15 482.84"/>
      <polygon class="cls-2" points="949.18 516.11 935.91 515.77 912.06 506.65 893.13 495.87 883.23 484.06 864 474.09 854.02 474.09 844.81 475.31 835 480.92 824.36 485.14 814.55 483.64 804.89 478.27 805.63 495.04 812.73 500.68 810.55 507.46 803.32 517.42 799.85 527.85 791.52 528.19 784.75 532.65 783.33 544.2 780.12 550.45 772.94 555.61 766.92 562.61 755.94 572.79 758.09 574.74 758.41 585.06 760.8 591.33 765.69 592.78 773.74 590.68 781.28 594.26 786.01 585.46 793.4 578.27 813.27 577.96 822.56 578.58 844.04 587.23 866.52 595.39 892.24 604.11 904.5 607.09 911.44 610.82 918.16 595.51 941 548.24 953.71 522.46 954.26 518.96 949.12 516.21 949.18 516.11"/>
      <g>
        <path class="cls-4" d="M113.41,506.66c2.38-.42,4.27-1.94,4.48-4.6h-4.89l.05-1.24v-1.87l-.05-1.24h10.52c.21,8.79-2.97,12.42-9.52,13.64l-1.89-4.48c.38,0,.9-.12,1.31-.2ZM113.79,515.67c0-3.14,3.28-4.95,8.21-4.95s8.19,1.87,8.19,4.95-3.25,5.15-8.19,5.15-8.21-1.99-8.21-5.15ZM124.44,516.59c.44-.12.72-.5.72-.87s-.28-.72-.72-.9c-.51-.22-1.51-.37-2.43-.37s-1.97.15-2.53.37c-.46.15-.67.52-.67.9s.2.72.67.87c.54.17,1.61.32,2.53.32s1.92-.15,2.43-.32ZM124.74,499.45l-.05-2.49h5.17l-.05,2.49v2.36h1.87l-.05,1.24v2.07l.05,1.25h-1.87v1.67l.05,2.49h-5.17l.05-2.49v-8.59Z"/>
        <path class="cls-4" d="M133.68,511.94c2.41-3.04,2.15-8.04,2.15-12.02,0-.4-.03-1.17-.08-1.84h5.37c-.08.67-.05,1.44-.05,1.84,0,3.88.05,8.16,2.17,11.22.33.5.97,1.19,1.64,1.57l-2.28,4.48c-1.79-1.02-3.25-3.16-3.86-5.65-.69,2.74-2.3,5.2-4.15,6.1l-2.41-4.43c.56-.3.92-.57,1.48-1.27ZM145.3,508.53h-2.79l.05-1.24v-2.27l-.05-1.27h2.79v-4.31l-.05-2.49h5.42l-.05,2.49v18.27l.05,2.49h-5.42l.05-2.49v-9.18Z"/>
        <path class="cls-4" d="M159.25,511.44h-7.04l.05-1.12v-2.17l-.05-1.12h11.69c.33-1.67.64-3.58.82-5.2h-11.23l.05-1.24v-1.94l-.05-1.24h16.63l-.15,2.61c-.21,2.09-.56,4.7-.97,7.02h2.41l-.05,1.12v2.17l.05,1.12h-6.93v5.92l.05,2.96h-5.32l.05-2.96v-5.92Z"/>
      </g>
      <g>
        <path class="cls-4" d="M235.88,664.07c0-3.06,1.59-6.3,5.94-6.3s5.94,3.24,5.94,6.3-1.51,6.27-5.94,6.27-5.94-3.16-5.94-6.27ZM237.47,676.04c0-3.19,3.25-5.13,8.14-5.13s8.11,1.97,8.11,5.13-3.22,5.3-8.11,5.3-8.14-2.12-8.14-5.3ZM243.07,664.09c0-.97-.26-2.02-1.13-2.02s-1.08,1.04-1.08,2.02c0,.85.23,1.87,1.08,1.87s1.13-1.02,1.13-1.87ZM248.01,676.93c.44-.12.69-.5.69-.85s-.26-.72-.69-.9c-.51-.17-1.51-.32-2.41-.32s-1.94.15-2.51.32c-.46.17-.64.55-.64.9s.18.72.64.85c.54.15,1.61.3,2.51.3s1.89-.12,2.41-.3ZM248.55,659.84l-.05-2.49h5.14l-.05,2.29h1.77l-.05,1.25v1.69l.05,1.24h-1.77v1.44h1.82l-.05,1.24v1.69l.05,1.24h-1.79l.03,1.47h-5.14l.05-2.49v-8.59Z"/>
        <path class="cls-4" d="M269.23,667.28h-2.05l.05-1.17v-1.97l-.03-.5h-2.35c.33,2.02,1.28,3.26,2.56,4.16.31.2.61.37.92.47l-1.92,4.26c-1.64-.67-3.15-2.14-3.92-4.13-.77,2.14-2.43,3.58-4.5,4.31l-1.97-4.46c.36-.08.77-.25,1.13-.45,1.51-.87,2.41-2.04,2.71-4.16h-3.35l.05-1.27v-1.67l-.05-1.24h3.4v-.45l-.05-1.57h4.94l-.05,1.54v.47h3.22l-.05,1.24v1.67l.03.57h1.28v-3.11l-.05-2.49h5.25l-.05,2.49v11.82l.05,2.49h-5.25l.05-2.49v-4.38ZM258.18,674.99l-.05-1.99h5.53l-.05,2.14v1.09h10.98l-.03,1.25v1.87l.03,1.24h-16.45l.05-2.02v-3.58Z"/>
        <path class="cls-4" d="M282.98,671.83h-7.04l.05-1.12v-2.17l-.05-1.12h11.69c.33-1.67.64-3.58.82-5.2h-11.23l.05-1.24v-1.94l-.05-1.24h16.63l-.15,2.61c-.21,2.09-.56,4.7-.97,7.02h2.41l-.05,1.12v2.17l.05,1.12h-6.93v5.92l.05,2.96h-5.32l.05-2.96v-5.92Z"/>
      </g>
      <g>
        <path class="cls-4" d="M229.81,765.46h-7.04l.05-1.12v-2.17l-.05-1.12h11.69c.33-1.67.64-3.58.82-5.2h-11.23l.05-1.24v-1.94l-.05-1.24h16.63l-.15,2.61c-.21,2.09-.56,4.7-.97,7.02h2.41l-.05,1.12v2.17l.05,1.12h-6.93v5.92l.05,2.96h-5.32l.05-2.96v-5.92Z"/>
        <path class="cls-4" d="M243.04,770.02l-.05-1.12h6.6l-.05-2.19h5.58l-.05,2.19h6.86l-.05,1.12v2.17l.05,1.12h-18.94l.05-1.12v-2.17ZM244.32,759.72l-.05-2.39h10.57v-1.14h-10.62l.03-1.17v-1.74l-.03-1.17h15.81l-.03,2.36v4.21l.03,2.36h-10.42v1.17h10.67l-.05,1.2v1.59l.05,1.17h-16.02l.05-2.36v-4.08Z"/>
        <path class="cls-4" d="M269.74,765.46h-7.04l.05-1.12v-2.17l-.05-1.12h11.69c.33-1.67.64-3.58.82-5.2h-11.23l.05-1.24v-1.94l-.05-1.24h16.63l-.15,2.61c-.21,2.09-.56,4.7-.97,7.02h2.41l-.05,1.12v2.17l.05,1.12h-6.93v5.92l.05,2.96h-5.32l.05-2.96v-5.92Z"/>
      </g>
      <g>
        <path class="cls-1" d="M435.02,527.08l.05,2.49h-10.65l.05-2.49v-14.09l-.05-2.49h10.65l-.05,2.49v14.09ZM429.04,514.93v10.18h1.89v-10.18h-1.89ZM436.28,511.77l-.05-2.49h5.25l-.05,2.49v6.3h1.89l-.05,1.24v2.51l.05,1.24h-1.89v6.97l.05,2.49h-5.25l.05-2.49v-18.27Z"/>
        <path class="cls-1" d="M444.19,527.82l-.05-1.17h6.53v-.22l-.05-2.27h5.78l-.05,2.27v.22h6.73l-.05,1.17v2.31l.05,1.17h-18.94l.05-1.17v-2.31ZM445.29,511.65l-.05-1.24h16.53l-.05,1.24v1.52l.05,1.25h-16.53l.05-1.25v-1.52ZM445.37,520.68l-.05-1.25h2.25l-.67-4.38,4.91-.2.51,4.58h2.35l.56-4.58,4.86.2-.67,4.38h2.2l-.05,1.25v1.47l.05,1.24h-16.33l.05-1.24v-1.47Z"/>
        <path class="cls-1" d="M470.89,523.77h-7.04l.05-1.12v-2.17l-.05-1.12h11.69c.33-1.67.64-3.58.82-5.2h-11.23l.05-1.24v-1.94l-.05-1.24h16.63l-.15,2.61c-.21,2.09-.56,4.7-.97,7.02h2.41l-.05,1.12v2.17l.05,1.12h-6.93v5.92l.05,2.96h-5.32l.05-2.96v-5.92Z"/>
      </g>
      <g>
        <path class="cls-4" d="M484.45,463.64c2.41-3.04,2.15-8.04,2.15-12.02,0-.4-.03-1.17-.08-1.84h5.37c-.08.67-.05,1.44-.05,1.84,0,3.88.05,8.16,2.17,11.22.33.5.97,1.19,1.64,1.57l-2.28,4.48c-1.79-1.02-3.25-3.16-3.86-5.65-.69,2.74-2.3,5.2-4.15,6.1l-2.41-4.43c.56-.3.92-.57,1.48-1.27ZM496.07,460.23h-2.79l.05-1.24v-2.27l-.05-1.27h2.79v-4.31l-.05-2.49h5.42l-.05,2.49v18.27l.05,2.49h-5.42l.05-2.49v-9.18Z"/>
        <path class="cls-4" d="M503.55,452.49l-.05-2.49h8.27l-.03,1.24v2.36l.03,1.24h-3.28v9.03c.82-.07,1.71-.27,2.41-.45.31-.1.56-.2.74-.3l.49,4.63c-1.41.62-3.58.97-6.04,1.19-1.15.1-2.02.12-2.58.12l.05-2.46v-14.14ZM521.79,472.15h-4.27l.03-2.49v-7.27h-.9v6.55l.03,2.49h-3.89l.05-2.49v-17.65l-.05-2.49h3.89l-.03,2.49v6.37h.9v-6.52l-.03-2.49h4.27l-.05,2.49v18.52l.05,2.49Z"/>
        <path class="cls-4" d="M531.01,463.46h-7.93l.05-1.02v-1.79l-.05-1.02h18.94l-.05,1.02v1.79l.05,1.02h-6.4v.72l.05,2.36h-4.71l.05-2.36v-.72ZM524.38,466.5l-.05-1.84h5.27l-.05,1.94v1.15h11.34l-.03,1.24v1.47l.03,1.24h-16.56l.05-1.87v-3.33ZM524.49,451.69l-.05-2.49h16.22l-.05,2.49v4.28l.05,2.49h-16.22l.05-2.49v-4.28ZM535.39,454.8v-1.79h-5.68v1.79h5.68Z"/>
        <path class="cls-4" d="M549.95,463.14h-7.04l.05-1.12v-2.17l-.05-1.12h11.69c.33-1.67.64-3.58.82-5.2h-11.23l.05-1.24v-1.94l-.05-1.24h16.63l-.15,2.61c-.21,2.09-.56,4.7-.97,7.02h2.41l-.05,1.12v2.17l.05,1.12h-6.93v5.92l.05,2.96h-5.32l.05-2.96v-5.92Z"/>
      </g>
      <g>
        <path class="cls-4" d="M472.77,285.22l-.05-1.05h18.94l-.05,1.05v1.97l.05,1.05h-18.94l.05-1.05v-1.97ZM473.61,278.38c0-3.48,3.97-5.25,8.55-5.25s8.57,1.77,8.57,5.25-3.94,4.95-8.57,4.95-8.55-1.39-8.55-4.95ZM474.07,290.97l-.05-1.69h5.45l-.05,1.77v.75h11.08l-.03,1.24v1.59l.03,1.24h-16.48l.05-1.74v-3.16ZM484.54,279.22c.46-.17.72-.4.72-.82,0-.4-.26-.62-.72-.77-.49-.17-1.43-.37-2.35-.37s-1.87.2-2.35.37c-.49.15-.72.4-.72.77,0,.42.23.65.72.82.49.15,1.43.32,2.35.32s1.87-.17,2.35-.32Z"/>
        <path class="cls-4" d="M504.12,284.13l.28,1.59c-3.53.45-7.06.8-11.18,1.1l-.67-4.03,1.66-.1-.67-4.5,4.09-.25.36,4.53.77-.05.26-4.48,4.07.25-.54,3.93,1.1-.1v-.77l-.05-1.05h2.33v-.82h-2.3l.05-1.02v-1h-10.77l.05-1.24v-1.34l-.05-1.24h10.93l-.05,1.24v.67h2.15v-.22l-.05-2.49h5.09l-.05,2.49v8.69l.05,2.49h-5.09l.05-2.26h-1.82ZM494.52,291.69c0-2.99,3.28-4.65,8.19-4.65s8.16,1.69,8.16,4.63-3.25,4.88-8.16,4.88-8.19-1.82-8.19-4.85ZM505.17,292.51c.44-.12.69-.45.69-.8,0-.32-.26-.65-.72-.8-.51-.15-1.51-.3-2.43-.3s-1.97.15-2.53.32c-.46.12-.67.45-.67.77s.21.65.67.77c.54.12,1.61.3,2.53.3s1.92-.15,2.46-.27Z"/>
        <path class="cls-4" d="M519.56,287.21h-7.04l.05-1.12v-2.17l-.05-1.12h11.69c.33-1.67.64-3.58.82-5.2h-11.23l.05-1.24v-1.94l-.05-1.24h16.63l-.15,2.61c-.21,2.09-.56,4.7-.97,7.02h2.41l-.05,1.12v2.17l.05,1.12h-6.93v5.92l.05,2.96h-5.32l.05-2.96v-5.92Z"/>
      </g>
      <g>
        <path class="cls-1" d="M633.52,439.26l-.05-1h6.88v-1.99h5.12v1.99h6.93l-.05,1v1.69l.05,1h-18.94l.05-1v-1.69ZM640.1,431.79h-5.3l.05-1.24v-1.44l-.05-1.24h16.33l-.05,1.24v1.44l.05,1.24h-5.3c1.25,1.05,3.63,1.67,6.4,2.02l-1.82,3.88c-2.89-.45-5.91-1.64-7.45-3.24-1.54,1.59-4.56,2.79-7.45,3.24l-1.82-3.88c2.76-.35,5.14-.97,6.4-2.02ZM634.8,446.78c0-2.94,3.15-4.33,8.11-4.33s8.09,1.42,8.09,4.28-3.12,4.53-8.09,4.53-8.11-1.49-8.11-4.48ZM645.35,447.6c.46-.12.74-.47.74-.85,0-.32-.31-.62-.77-.8-.49-.17-1.48-.3-2.41-.3s-1.94.15-2.51.32c-.49.15-.72.45-.72.77,0,.35.23.65.72.8.56.17,1.61.32,2.51.32s1.92-.15,2.43-.27Z"/>
        <path class="cls-1" d="M653.59,446.4l-.05-1.12h6.6l-.05-2.19h5.58l-.05,2.19h6.86l-.05,1.12v2.17l.05,1.12h-18.94l.05-1.12v-2.17ZM654.87,436.1l-.05-2.39h10.57v-1.15h-10.62l.03-1.17v-1.74l-.03-1.17h15.81l-.03,2.36v4.21l.03,2.36h-10.41v1.17h10.67l-.05,1.19v1.59l.05,1.17h-16.02l.05-2.36v-4.08Z"/>
        <path class="cls-1" d="M680.28,441.85h-7.04l.05-1.12v-2.17l-.05-1.12h11.69c.33-1.67.64-3.58.82-5.2h-11.23l.05-1.24v-1.94l-.05-1.24h16.63l-.15,2.61c-.21,2.09-.56,4.7-.97,7.02h2.41l-.05,1.12v2.17l.05,1.12h-6.93v5.92l.05,2.96h-5.32l.05-2.96v-5.92Z"/>
      </g>
      <g>
        <path class="cls-4" d="M745.62,373.39c2.12-1.79,2.51-4.43,2.51-7.34,0-.37-.03-.77-.05-1.15h5.53c-.03.4-.05.82-.05,1.17,0,2.79.28,5.28,2.33,6.77.36.27.84.57,1.28.75l-2.1,4.38c-1.77-1-3.28-2.34-4.17-4.65-.72,2.59-2.25,4.28-4.61,5.33l-2.05-4.43c.49-.15.92-.4,1.38-.82ZM746.57,383.29c0-3.06,3.28-4.83,8.19-4.83s8.16,1.79,8.16,4.8-3.25,5.03-8.16,5.03-8.19-1.94-8.19-5ZM757.21,384.12c.43-.1.69-.45.69-.8,0-.32-.26-.67-.69-.82-.51-.15-1.54-.32-2.46-.32s-2,.17-2.56.35c-.46.12-.64.47-.64.8s.18.67.64.8c.56.15,1.64.3,2.56.3s1.94-.15,2.46-.3ZM757.59,371.9h-2.46l.05-1.24v-1.99l-.05-1.27h2.46v-.52l-.05-2.49h5.25l-.05,2.49v8.91l.05,2.49h-5.25l.05-2.49v-3.88Z"/>
        <path class="cls-4" d="M764.38,376l-.05-1.05h19.19l-.05,1.05v1.82l.05,1.02h-6.96v1.1h5.37l-.05,2.29v3.63l.05,2.19h-5.37l.05-2.02v-2.26h-10.8l.05-1.17v-1.49l-.05-1.17h5.53v-1.1h-7.01l.05-1.02v-1.82ZM765.76,364.65h5.45v1.67h5.4v-1.67h5.48l-.05,1.99v4.95l.05,2.49h-16.33l.05-2.49v-4.95l-.05-1.99ZM776.64,369.41h-5.42v1.39h5.42v-1.39Z"/>
        <path class="cls-4" d="M791.33,378.86h-7.04l.05-1.12v-2.17l-.05-1.12h11.69c.33-1.67.64-3.58.82-5.2h-11.23l.05-1.24v-1.94l-.05-1.24h16.63l-.15,2.61c-.21,2.09-.56,4.7-.97,7.02h2.41l-.05,1.12v2.17l.05,1.12h-6.93v5.92l.05,2.96h-5.32l.05-2.96v-5.92Z"/>
      </g>
      <g>
        <path class="cls-4" d="M727.75,227.37c2.38-.42,4.27-1.94,4.48-4.6h-4.89l.05-1.24v-1.87l-.05-1.24h10.52c.21,8.79-2.97,12.42-9.52,13.64l-1.89-4.48c.38,0,.9-.12,1.3-.2ZM728.13,236.38c0-3.14,3.28-4.95,8.21-4.95s8.19,1.87,8.19,4.95-3.25,5.15-8.19,5.15-8.21-1.99-8.21-5.15ZM738.78,237.3c.43-.12.72-.5.72-.87s-.28-.72-.72-.9c-.51-.22-1.51-.37-2.43-.37s-1.97.15-2.53.37c-.46.15-.67.52-.67.9s.2.72.67.87c.54.17,1.61.32,2.53.32s1.92-.15,2.43-.32ZM739.09,220.15l-.05-2.49h5.17l-.05,2.49v2.36h1.87l-.05,1.24v2.07l.05,1.24h-1.87v1.67l.05,2.49h-5.17l.05-2.49v-8.59Z"/>
        <path class="cls-4" d="M746.64,229.29l-.05-1.05h19.19l-.05,1.05v1.82l.05,1.02h-6.96v1.1h5.37l-.05,2.29v3.63l.05,2.19h-5.37l.05-2.02v-2.26h-10.8l.05-1.17v-1.49l-.05-1.17h5.53v-1.1h-7.01l.05-1.02v-1.82ZM748.02,217.94h5.45v1.67h5.4v-1.67h5.48l-.05,1.99v4.95l.05,2.49h-16.33l.05-2.49v-4.95l-.05-1.99ZM758.9,222.69h-5.42v1.39h5.42v-1.39Z"/>
        <path class="cls-4" d="M773.59,232.15h-7.04l.05-1.12v-2.17l-.05-1.12h11.69c.33-1.67.64-3.58.82-5.2h-11.23l.05-1.24v-1.94l-.05-1.24h16.63l-.15,2.61c-.21,2.09-.56,4.7-.97,7.02h2.41l-.05,1.12v2.17l.05,1.12h-6.93v5.92l.05,2.96h-5.32l.05-2.96v-5.92Z"/>
      </g>
      <g>
        <path class="cls-4" d="M799.54,126.71l-.05-1.14h6.73v-.97l-.05-2.26h5.58l-.05,2.26v.97h6.73l-.05,1.14v2.36l.05,1.17h-18.94l.05-1.17v-2.36ZM800.92,111.73l-.05-2.49h16.07l-.03,1.24v1.84l.03,1.24h-10.93v3.36h11.05l-.03,1.24v1.92l.03,1.24h-16.2l.05-2.49v-7.12Z"/>
        <path class="cls-4" d="M820.81,108.67h5.45v1.57h5.3v-1.57h5.48l-.05,1.92v4.78l.05,2.49h-5.53v.97h6.88l-.05.97v1.62l.05,1h-18.94l.05-1v-1.62l-.05-.97h6.93v-.97h-5.58l.05-2.49v-4.78l-.05-1.92ZM820.66,127.44c0-3.01,3.22-4.55,8.24-4.55s8.21,1.57,8.21,4.5-3.2,4.73-8.21,4.73-8.24-1.64-8.24-4.68ZM831.33,128.18c.46-.1.72-.42.72-.77,0-.3-.26-.62-.72-.75-.54-.12-1.48-.3-2.43-.3s-1.94.17-2.53.32c-.46.12-.67.42-.67.72,0,.32.2.62.67.75.59.15,1.61.27,2.53.27s1.89-.12,2.43-.25ZM831.58,113.28h-5.32v1.34h5.32v-1.34Z"/>
        <path class="cls-4" d="M846.33,122.71h-7.04l.05-1.12v-2.17l-.05-1.12h11.69c.33-1.67.64-3.58.82-5.2h-11.23l.05-1.24v-1.94l-.05-1.24h16.63l-.15,2.61c-.21,2.09-.56,4.7-.97,7.02h2.41l-.05,1.12v2.17l.05,1.12h-6.93v5.92l.05,2.96h-5.32l.05-2.96v-5.92Z"/>
      </g>
      <g>
        <path class="cls-4" d="M931.53,198.98l-.05-1.17h6.81v-1.99l-.05-2.26h5.37l-.05,2.26v1.99h6.86l-.05,1.17v2.31l.05,1.15h-18.94l.05-1.15v-2.31ZM932.84,183.72l-.08-2.21h5.66l-.05,2.56v4.18h10.64l-.05,1.24v2.07l.05,1.24h-16.25l.08-2.24v-6.84Z"/>
        <path class="cls-4" d="M963.55,189.69l.44,3.53c-.79.15-2.28.32-3.97.52v.47l.05,2.21h-5.12l.05-2.21c-1.18.1-2.28.17-3.15.22l-.54-3.86c3.38-.1,9.95-.6,12.23-.9ZM951.91,185.26c0-2.99,2.43-4.65,5.76-4.65s5.73,1.67,5.73,4.65-2.43,4.58-5.73,4.58-5.76-1.54-5.76-4.58ZM953.44,198.68l-.05-1.77h5.3l-.05,1.84v1.02h11.41l-.03,1.24v1.47l.03,1.24h-16.66l.05-1.79v-3.26ZM959.1,185.24c0-.72-.59-1-1.31-1s-1.33.27-1.33,1,.64.97,1.33.97,1.31-.27,1.31-.97ZM961.38,197.66l.05-1.05v-1.09l-.05-1.1h3.3v-11.52l-.05-2.49h5.25l-.05,2.49v13.29l.05,2.49h-5.25l.03-1.02h-3.28Z"/>
        <path class="cls-4" d="M978.32,194.89h-7.04l.05-1.12v-2.17l-.05-1.12h11.69c.33-1.67.64-3.58.82-5.2h-11.23l.05-1.24v-1.94l-.05-1.24h16.63l-.15,2.61c-.21,2.09-.56,4.7-.97,7.02h2.41l-.05,1.12v2.17l.05,1.12h-6.93v5.92l.05,2.96h-5.32l.05-2.96v-5.92Z"/>
      </g>
      <g>
        <path class="cls-4" d="M692.33,516.52l-.05-.97h19.19l-.05.97v1.67l.05,1h-7.06v.82c3.56.42,5.71,1.77,5.71,4.13,0,2.96-3.17,4.53-8.21,4.53s-8.24-1.49-8.24-4.46c0-2.39,2.07-3.73,5.53-4.18v-.85h-6.91l.05-1v-1.67ZM699.12,509.17h-5.37l.05-1.25v-1.49l-.05-1.24h16.38l-.05,1.24v1.49l.05,1.25h-5.37c1.23,1.29,3.63,1.94,6.42,2.12l-1.79,3.86c-2.84-.25-5.89-1.47-7.45-3.24-1.56,1.77-4.61,2.99-7.45,3.24l-1.82-3.86c2.81-.17,5.22-.82,6.45-2.12ZM704.36,524.93c.46-.1.72-.42.72-.77,0-.3-.28-.6-.72-.72-.54-.15-1.51-.3-2.46-.3s-1.94.17-2.56.32c-.46.12-.67.4-.67.7,0,.32.2.62.67.75.61.15,1.61.3,2.56.3s1.92-.15,2.46-.27Z"/>
        <path class="cls-4" d="M719.28,519.2h-7.04l.05-1.12v-2.17l-.05-1.12h11.69c.33-1.67.64-3.58.82-5.2h-11.23l.05-1.24v-1.94l-.05-1.25h16.63l-.15,2.61c-.21,2.09-.56,4.7-.97,7.02h2.41l-.05,1.12v2.17l.05,1.12h-6.93v5.92l.05,2.96h-5.32l.05-2.96v-5.92Z"/>
      </g>
      <g>
        <path class="cls-1" d="M633.5,607.34l-.05-1h2.97v-1.57h2.15c-2.3-.62-3.86-1.87-3.86-3.96,0-3.01,3.76-4.68,8.21-4.68s8.21,1.67,8.21,4.68c0,2.09-1.48,3.33-3.79,3.96h2.05v1.57h2.99l-.05,1v1.69l.05,1h-18.94l.05-1v-1.69ZM634.78,615.11c0-3.06,3.2-4.58,8.19-4.58s8.14,1.54,8.14,4.53-3.15,4.8-8.14,4.8-8.19-1.69-8.19-4.75ZM645.4,615.88c.46-.1.72-.45.72-.77s-.26-.65-.72-.77c-.54-.15-1.51-.3-2.43-.3s-1.95.15-2.53.3c-.46.12-.67.45-.67.77s.21.65.67.75c.59.15,1.61.3,2.53.3s1.89-.12,2.43-.27ZM645.22,601.64c.41-.1.69-.3.69-.8,0-.32-.26-.55-.69-.67-.51-.15-1.36-.3-2.28-.3s-1.79.15-2.28.3c-.43.12-.69.35-.69.67,0,.52.28.7.69.8.49.15,1.36.27,2.28.27s1.77-.12,2.28-.27ZM641.15,605.2v1.14h3.51v-1.14c-.56.05-1.15.07-1.74.07s-1.2-.02-1.77-.07Z"/>
        <path class="cls-1" d="M654.31,605.53c2.17-1.94,2.56-4.7,2.56-7.71,0-.37-.03-.8-.05-1.19h5.55c-.03.42-.05.87-.05,1.22,0,2.89.28,5.45,2.3,7.24.36.32.84.7,1.28.9l-2.15,4.33c-1.84-.8-3.48-2.41-4.22-4.7-.72,2.51-2.2,4.28-4.45,5.2l-2.15-4.43c.49-.15.92-.4,1.38-.85ZM655.07,613.49l-.05-2.09h5.45l-.05,2.24v1.12h10.95l-.03,1.24v2.02l.03,1.25h-16.35l.05-2.12v-3.66ZM665.98,598.43l-.05-2.49h5.04l-.05,2.49v3.73h1.77l-.05,1.24v2.34l.05,1.24h-1.77v3.53l.05,2.49h-5.04l.05-2.49v-12.1Z"/>
        <path class="cls-1" d="M680.28,610.43h-7.04l.05-1.12v-2.17l-.05-1.12h11.69c.33-1.67.64-3.58.82-5.2h-11.23l.05-1.24v-1.94l-.05-1.24h16.63l-.15,2.61c-.21,2.09-.56,4.7-.97,7.02h2.41l-.05,1.12v2.17l.05,1.12h-6.93v5.92l.05,2.96h-5.32l.05-2.96v-5.92Z"/>
      </g>
      <g>
        <path class="cls-4" d="M825.11,539.91c2.12-1.79,2.51-4.43,2.51-7.34,0-.37-.03-.77-.05-1.14h5.53c-.03.4-.05.82-.05,1.17,0,2.79.28,5.28,2.33,6.77.36.27.84.57,1.28.75l-2.1,4.38c-1.77-1-3.28-2.34-4.17-4.65-.72,2.59-2.25,4.28-4.61,5.33l-2.05-4.43c.49-.15.92-.4,1.38-.82ZM826.06,549.82c0-3.06,3.28-4.83,8.19-4.83s8.16,1.79,8.16,4.8-3.25,5.03-8.16,5.03-8.19-1.94-8.19-5ZM836.7,550.64c.43-.1.69-.45.69-.8,0-.32-.26-.67-.69-.82-.51-.15-1.54-.32-2.46-.32s-2,.17-2.56.35c-.46.12-.64.47-.64.8s.18.67.64.8c.56.15,1.64.3,2.56.3s1.94-.15,2.46-.3ZM837.09,538.42h-2.46l.05-1.24v-1.99l-.05-1.27h2.46v-.52l-.05-2.49h5.25l-.05,2.49v8.91l.05,2.49h-5.25l.05-2.49v-3.88Z"/>
        <path class="cls-4" d="M844,542.13l-.05-1.02h6.93v-1h-5.53l.05-2.49v-3.73l-.05-2.49h16.17l-.03,1.25v1.27l.03,1.25h-11v1.14h11.13l-.03,1.24v1.32l.03,1.24h-5.66v1h6.88l-.05,1.02v1.87l.05,1.02h-18.94l.05-1.02v-1.87ZM845.23,550.02c0-3.04,3.17-4.53,8.21-4.53s8.19,1.52,8.19,4.45-3.15,4.73-8.19,4.73-8.21-1.62-8.21-4.65ZM855.88,550.74c.43-.08.72-.42.72-.75,0-.3-.28-.62-.72-.75-.54-.12-1.51-.3-2.43-.3s-1.92.17-2.53.32c-.46.12-.67.42-.67.72s.21.62.67.75c.59.12,1.61.27,2.53.27s1.89-.15,2.43-.27Z"/>
        <path class="cls-4" d="M870.83,545.39h-7.04l.05-1.12v-2.17l-.05-1.12h11.69c.33-1.67.64-3.58.82-5.2h-11.23l.05-1.24v-1.94l-.05-1.24h16.63l-.15,2.61c-.21,2.09-.56,4.7-.97,7.02h2.41l-.05,1.12v2.17l.05,1.12h-6.93v5.92l.05,2.96h-5.32l.05-2.96v-5.92Z"/>
      </g>
      <g>
        <path class="cls-4" d="M854.66,431.49l-.05-1.02h6.93v-1h-5.53l.05-2.49v-3.73l-.05-2.49h16.17l-.03,1.24v1.27l.03,1.24h-11v1.15h11.13l-.03,1.24v1.32l.03,1.24h-5.66v1h6.88l-.05,1.02v1.87l.05,1.02h-18.94l.05-1.02v-1.87ZM855.89,439.38c0-3.04,3.17-4.53,8.21-4.53s8.19,1.52,8.19,4.46-3.15,4.73-8.19,4.73-8.21-1.62-8.21-4.65ZM866.54,440.1c.43-.07.72-.42.72-.75,0-.3-.28-.62-.72-.75-.54-.12-1.51-.3-2.43-.3s-1.92.17-2.53.32c-.46.12-.67.42-.67.72s.21.62.67.75c.59.12,1.61.27,2.53.27s1.89-.15,2.43-.27Z"/>
        <path class="cls-4" d="M875.01,424.1l-.05-2.49h8.27l-.03,1.24v2.36l.03,1.24h-3.28v9.03c.82-.07,1.71-.27,2.41-.45.31-.1.56-.2.74-.3l.49,4.63c-1.41.62-3.58.97-6.04,1.19-1.15.1-2.02.12-2.58.12l.05-2.46v-14.14ZM893.26,443.76h-4.27l.03-2.49v-7.27h-.9v6.55l.03,2.49h-3.89l.05-2.49v-17.65l-.05-2.49h3.89l-.03,2.49v6.37h.9v-6.52l-.03-2.49h4.27l-.05,2.49v18.52l.05,2.49Z"/>
        <path class="cls-4" d="M902.48,435.08h-7.93l.05-1.02v-1.79l-.05-1.02h18.94l-.05,1.02v1.79l.05,1.02h-6.4v.72l.05,2.36h-4.71l.05-2.36v-.72ZM895.85,438.11l-.05-1.84h5.27l-.05,1.94v1.15h11.34l-.03,1.24v1.47l.03,1.24h-16.56l.05-1.87v-3.33ZM895.95,423.31l-.05-2.49h16.22l-.05,2.49v4.28l.05,2.49h-16.22l.05-2.49v-4.28ZM906.85,426.42v-1.79h-5.68v1.79h5.68Z"/>
        <path class="cls-4" d="M921.42,434.75h-7.04l.05-1.12v-2.17l-.05-1.12h11.69c.33-1.67.64-3.58.82-5.2h-11.23l.05-1.24v-1.94l-.05-1.24h16.63l-.15,2.61c-.21,2.09-.56,4.7-.97,7.02h2.41l-.05,1.12v2.17l.05,1.12h-6.93v5.92l.05,2.96h-5.32l.05-2.96v-5.92Z"/>
      </g>
      <g>
        <path class="cls-4" d="M986.05,376.18l-.05-.97h19.19l-.05.97v1.67l.05,1h-7.06v.82c3.56.42,5.71,1.77,5.71,4.13,0,2.96-3.17,4.53-8.21,4.53s-8.24-1.49-8.24-4.46c0-2.39,2.07-3.73,5.53-4.18v-.85h-6.91l.05-1v-1.67ZM992.83,368.84h-5.37l.05-1.24v-1.49l-.05-1.24h16.38l-.05,1.24v1.49l.05,1.24h-5.37c1.23,1.29,3.63,1.94,6.42,2.12l-1.79,3.86c-2.84-.25-5.89-1.47-7.45-3.23-1.56,1.77-4.61,2.99-7.45,3.23l-1.82-3.86c2.81-.17,5.22-.82,6.45-2.12ZM998.08,384.59c.46-.1.72-.42.72-.77,0-.3-.28-.6-.72-.72-.54-.15-1.51-.3-2.46-.3s-1.94.17-2.56.32c-.46.12-.67.4-.67.7,0,.32.2.62.67.75.61.15,1.61.3,2.56.3s1.92-.15,2.46-.27Z"/>
        <path class="cls-4" d="M1006.55,372.12l-.05-2.46h5.53v-.92h-5.55l.05-1.24v-1.17l-.05-1.24h10.65l-.05,2.39v3.11l.05,2.44h-5.45v1.27c1.05,0,2.94-.17,4.2-.32.67-.07,1.13-.17,1.56-.3l.46,3.78c-2.25.52-5.78.7-8.24.8-.9.02-2.07.02-3.15.02l.05-2.46v-3.68ZM1007.55,383.39c0-3.04,3.25-4.7,8.21-4.7s8.19,1.69,8.19,4.68-3.22,4.93-8.19,4.93-8.21-1.82-8.21-4.9ZM1018.22,384.24c.44-.12.72-.45.72-.82,0-.32-.28-.65-.72-.8-.54-.17-1.51-.32-2.46-.32s-1.97.15-2.56.32c-.46.15-.67.47-.67.8,0,.35.21.67.67.8.59.15,1.64.3,2.56.3s1.92-.15,2.46-.27ZM1018.66,366.87l-.05-2.49h5.09l-.05,2.49v2.36h1.71l-.05,1.24v1.92l.05,1.24h-1.71v2.29l.05,2.49h-5.09l.05-2.49v-9.06Z"/>
        <path class="cls-4" d="M1032.97,378.86h-7.04l.05-1.12v-2.17l-.05-1.12h11.69c.33-1.67.64-3.58.82-5.2h-11.23l.05-1.24v-1.94l-.05-1.24h16.63l-.15,2.61c-.21,2.09-.56,4.7-.97,7.02h2.41l-.05,1.12v2.17l.05,1.12h-6.93v5.92l.05,2.96h-5.32l.05-2.96v-5.92Z"/>
      </g>
      <g>
        <path class="cls-4" d="M972.19,541.52h3.89v3.66c2.23-.08,4.38-.2,5.71-.3l.36,3.91c-2.35.25-8.14.62-11.28.72l-.72-4.16,2.05-.02v-3.81ZM977.38,540.3h-6.35l.05-.95v-2.24l-.05-.97h10.93c-.05.62-.08,1.27-.1,1.89-.08,1.47-.41,4.7-.67,6.52l-4.2-.35c.18-1.22.31-2.44.38-3.91ZM971.75,554.43c0-3.06,3.25-4.85,8.09-4.85s8.06,1.84,8.06,4.83-3.22,5.03-8.06,5.03-8.09-1.94-8.09-5ZM982.24,555.25c.41-.1.69-.45.69-.82,0-.32-.26-.65-.72-.82s-1.48-.32-2.38-.32-1.94.17-2.48.32c-.46.15-.67.5-.67.82,0,.35.21.7.67.82.51.12,1.61.3,2.48.3s1.92-.15,2.41-.3ZM982.81,538.11l-.05-2.49h4.99l-.05,2.49v2.94h1.84l-.05,1.25v1.79l.05,1.25h-1.84v1.67l.05,2.49h-4.99l.05-2.49v-8.88Z"/>
        <path class="cls-4" d="M991.41,545.47c1.59-.75,2.46-2.19,2.79-4.68h-3.3l.05-1.27v-1.82l-.05-1.24h11l-.05,1.24v1.82l.05,1.27h-3.12c.33,2.44,1.36,3.86,2.79,4.63.51.27.9.37,1.28.47l-1.51,4.26c-1.97-.37-3.74-1.79-4.66-3.66-.92,2.07-2.58,3.41-4.89,4.06l-1.74-4.63c.38-.05.95-.22,1.36-.45ZM992.25,553.14l-.05-2.04h5.6l-.05,2.19v1.14h10.98l-.03,1.24v1.94l.03,1.24h-16.53l.05-2.09v-3.63ZM1003.23,538.11l-.05-2.49h5.09l-.05,2.49v12.15l.05,2.49h-5.09l.05-2.49v-12.15Z"/>
        <path class="cls-4" d="M1017.11,550.1h-7.04l.05-1.12v-2.17l-.05-1.12h11.69c.33-1.67.64-3.58.82-5.2h-11.23l.05-1.24v-1.94l-.05-1.24h16.63l-.15,2.61c-.21,2.09-.56,4.7-.97,7.02h2.41l-.05,1.12v2.17l.05,1.12h-6.93v5.92l.05,2.96h-5.32l.05-2.96v-5.92Z"/>
      </g>
      <g>
        <path class="cls-4" d="M1153.85,546.94c2.38-.42,4.27-1.94,4.48-4.6h-4.89l.05-1.24v-1.87l-.05-1.25h10.52c.21,8.79-2.97,12.42-9.52,13.64l-1.89-4.48c.38,0,.9-.12,1.3-.2ZM1154.24,555.94c0-3.14,3.28-4.95,8.21-4.95s8.19,1.87,8.19,4.95-3.25,5.15-8.19,5.15-8.21-1.99-8.21-5.15ZM1164.88,556.87c.43-.12.72-.5.72-.87s-.28-.72-.72-.9c-.51-.22-1.51-.37-2.43-.37s-1.97.15-2.53.37c-.46.15-.67.52-.67.9s.2.72.67.87c.54.17,1.61.32,2.53.32s1.92-.15,2.43-.32ZM1165.19,539.72l-.05-2.49h5.17l-.05,2.49v2.36h1.87l-.05,1.24v2.07l.05,1.24h-1.87v1.67l.05,2.49h-5.17l.05-2.49v-8.59Z"/>
        <path class="cls-4" d="M1172.87,548.45l-.05-1.02h6.93v-1h-5.53l.05-2.49v-3.73l-.05-2.49h16.17l-.03,1.25v1.27l.03,1.25h-11v1.14h11.13l-.03,1.24v1.32l.03,1.24h-5.66v1h6.88l-.05,1.02v1.87l.05,1.02h-18.94l.05-1.02v-1.87ZM1174.1,556.34c0-3.04,3.17-4.53,8.21-4.53s8.19,1.52,8.19,4.45-3.15,4.73-8.19,4.73-8.21-1.62-8.21-4.65ZM1184.74,557.06c.43-.08.72-.42.72-.75,0-.3-.28-.62-.72-.75-.54-.12-1.51-.3-2.43-.3s-1.92.17-2.53.32c-.46.12-.67.42-.67.72s.21.62.67.75c.59.12,1.61.27,2.53.27s1.89-.15,2.43-.27Z"/>
        <path class="cls-4" d="M1199.69,551.71h-7.04l.05-1.12v-2.17l-.05-1.12h11.69c.33-1.67.64-3.58.82-5.2h-11.23l.05-1.24v-1.94l-.05-1.24h16.63l-.15,2.61c-.21,2.09-.56,4.7-.97,7.02h2.41l-.05,1.12v2.17l.05,1.12h-6.93v5.92l.05,2.96h-5.32l.05-2.96v-5.92Z"/>
      </g>
      <g>
        <path class="cls-4" d="M1056.59,718.65l-.05-1.02h6.91v-2.21h5.12v2.21h6.91l-.05,1.02v1.77l.05,1.02h-18.94l.05-1.02v-1.77ZM1063.42,707.72h5.17c.05,2.74,3.22,4.93,6.81,5.38l-2.05,3.96c-3.38-.72-6.09-2.36-7.34-4.11-1.23,1.74-3.92,3.38-7.34,4.11l-2.05-3.96c3.84-.45,6.75-2.69,6.81-5.38ZM1057.66,726.71c0-3.01,3.28-4.55,8.34-4.55s8.32,1.57,8.32,4.5-3.25,4.75-8.32,4.75-8.34-1.69-8.34-4.7ZM1068.51,727.48c.44-.12.72-.45.72-.8,0-.32-.28-.65-.72-.77-.56-.15-1.54-.32-2.51-.32s-2,.17-2.61.35c-.46.12-.67.42-.67.75s.21.65.67.77c.61.15,1.64.3,2.61.3s1.95-.12,2.51-.27Z"/>
        <path class="cls-4" d="M1077.22,714.42l4.27-.25.38,9.18.9-.05.26-9.28,4.22.25-.51,8.76,1.25-.1.36,4.16c-3.61.4-7.4.75-11.59,1.07l-.54-4.48,1.69-.1-.69-9.16ZM1076.63,710.09l-.05-1.25h11.34l-.05,1.25v1.72l.05,1.24h-11.34l.05-1.24v-1.72ZM1089.09,710.01l-.05-2.49h5.09l-.05,2.49v6.47h1.69l-.05,1.24v2.51l.05,1.25h-1.69v6.79l.05,2.49h-5.09l.05-2.49v-18.27Z"/>
        <path class="cls-4" d="M1103.38,722.01h-7.04l.05-1.12v-2.17l-.05-1.12h11.69c.33-1.67.64-3.58.82-5.2h-11.23l.05-1.24v-1.94l-.05-1.24h16.63l-.15,2.61c-.21,2.09-.56,4.7-.97,7.02h2.41l-.05,1.12v2.17l.05,1.12h-6.93v5.92l.05,2.96h-5.32l.05-2.96v-5.92Z"/>
      </g>
      <g>
        <path class="cls-1" d="M872.49,760.68c2.38-.42,4.27-1.94,4.48-4.6h-4.89l.05-1.24v-1.87l-.05-1.25h10.52c.21,8.79-2.97,12.42-9.52,13.64l-1.89-4.48c.38,0,.9-.12,1.3-.2ZM872.87,769.69c0-3.14,3.28-4.95,8.21-4.95s8.19,1.87,8.19,4.95-3.25,5.15-8.19,5.15-8.21-1.99-8.21-5.15ZM883.52,770.61c.43-.12.72-.5.72-.87s-.28-.72-.72-.9c-.51-.22-1.51-.37-2.43-.37s-1.97.15-2.53.37c-.46.15-.67.52-.67.9s.2.72.67.87c.54.17,1.61.32,2.53.32s1.92-.15,2.43-.32ZM883.82,753.47l-.05-2.49h5.17l-.05,2.49v2.36h1.87l-.05,1.24v2.07l.05,1.24h-1.87v1.67l.05,2.49h-5.17l.05-2.49v-8.59Z"/>
        <path class="cls-1" d="M892.02,754.16l-.05-2.49h5.45l-.05,2.49v4.33c1.71-.07,3.48-.3,5.04-.62l.67,4.36c-2.46.52-5.14.85-7.96.92-1.25.05-2.17.07-3.15.05l.05-2.54v-6.5ZM908.98,774.6h-5.27v-.62h-5.45v.62h-5.27l.05-2.49v-5.3l-.05-2.49h15.99l-.05,2.49v5.3l.05,2.49ZM898.26,768.03v2.07h5.45v-2.07h-5.45ZM903.79,753.47l-.05-2.49h5.25l-.05,2.49v1.74h1.79l-.05,1.24v1.84l.05,1.24h-1.79v1.62l.05,2.49h-5.25l.05-2.49v-7.69Z"/>
        <path class="cls-1" d="M918.33,765.46h-7.04l.05-1.12v-2.17l-.05-1.12h11.69c.33-1.67.64-3.58.82-5.2h-11.23l.05-1.24v-1.94l-.05-1.24h16.63l-.15,2.61c-.21,2.09-.56,4.7-.97,7.02h2.41l-.05,1.12v2.17l.05,1.12h-6.93v5.92l.05,2.96h-5.32l.05-2.96v-5.92Z"/>
      </g>
      <g>
        <path class="cls-4" d="M728.06,796.17c2.41-3.04,2.15-8.04,2.15-12.02,0-.4-.03-1.17-.08-1.84h5.37c-.08.67-.05,1.44-.05,1.84,0,3.88.05,8.16,2.17,11.22.33.5.97,1.19,1.64,1.57l-2.28,4.48c-1.79-1.02-3.25-3.16-3.86-5.65-.69,2.74-2.3,5.2-4.15,6.1l-2.41-4.43c.56-.3.92-.57,1.48-1.27ZM739.68,792.76h-2.79l.05-1.24v-2.26l-.05-1.27h2.79v-4.31l-.05-2.49h5.42l-.05,2.49v18.27l.05,2.49h-5.42l.05-2.49v-9.18Z"/>
        <path class="cls-4" d="M746.9,800.05l-.05-1.14h6.63v-1.05l-.05-2.26h5.58l-.05,2.26v1.05h6.83l-.05,1.14v2.36l.05,1.17h-18.94l.05-1.17v-2.36ZM753.14,787.91h-5.09l.05-1.22v-1.77l-.05-1.24h5.37v-.55l-.05-1.57h5.6l-.05,1.52v.6h5.35l-.05,1.24v1.77l.05,1.22h-5.09c.97,2.94,3.15,4.23,6.04,4.6l-2.28,4.48c-2.66-.5-5.27-2.49-6.78-5.15-1.51,2.66-4.12,4.65-6.76,5.15l-2.3-4.48c2.89-.37,5.07-1.67,6.04-4.6Z"/>
        <path class="cls-4" d="M773.59,795.67h-7.04l.05-1.12v-2.17l-.05-1.12h11.69c.33-1.67.64-3.58.82-5.2h-11.23l.05-1.24v-1.94l-.05-1.24h16.63l-.15,2.61c-.21,2.09-.56,4.7-.97,7.02h2.41l-.05,1.12v2.17l.05,1.12h-6.93v5.92l.05,2.96h-5.32l.05-2.96v-5.92Z"/>
      </g>
      <g>
        <path class="cls-4" d="M538.99,726.51l-.05-1.02h6.93v-1h-5.53l.05-2.49v-3.73l-.05-2.49h16.17l-.03,1.25v1.27l.03,1.25h-11v1.14h11.13l-.03,1.24v1.32l.03,1.24h-5.66v1h6.88l-.05,1.02v1.87l.05,1.02h-18.94l.05-1.02v-1.87ZM540.21,734.4c0-3.04,3.17-4.53,8.21-4.53s8.19,1.52,8.19,4.45-3.15,4.73-8.19,4.73-8.21-1.62-8.21-4.65ZM550.86,735.12c.43-.08.72-.42.72-.75,0-.3-.28-.62-.72-.75-.54-.12-1.51-.3-2.43-.3s-1.92.17-2.53.32c-.46.12-.67.42-.67.72s.21.62.67.75c.59.12,1.61.27,2.53.27s1.89-.15,2.43-.27Z"/>
        <path class="cls-4" d="M559.98,724.47c1.51-.67,2.48-2.09,2.84-4.36h-3.33l.05-1.27v-1.69l-.05-1.24h10.93l-.05,1.24v1.69l.05,1.27h-3.02c.31,2.24,1.28,3.29,2.51,4.06.44.3.79.45,1.18.6l-1.74,4.08c-1.64-.35-3.3-1.72-4.09-3.51-.82,1.99-2.41,3.36-4.61,3.98l-2.02-4.41c.38-.07.95-.22,1.36-.45ZM576.4,736.59l.05,2.31h-5.35l.05-2.26v-2.61h-10.52l.05-1.25v-1.64l-.05-1.24h15.81l-.05,2.39v4.3ZM571.39,717.77l-.05-2.49h5.09l-.05,2.49v2.64h1.79l-.05,1.24v1.84l.05,1.24h-1.79v1.97l.05,2.49h-5.09l.05-2.49v-8.93Z"/>
        <path class="cls-4" d="M585.77,729.77h-7.04l.05-1.12v-2.17l-.05-1.12h11.69c.33-1.67.64-3.58.82-5.2h-11.23l.05-1.24v-1.94l-.05-1.24h16.63l-.15,2.61c-.21,2.09-.56,4.7-.97,7.02h2.41l-.05,1.12v2.17l.05,1.12h-6.93v5.92l.05,2.96h-5.32l.05-2.96v-5.92Z"/>
      </g>
      <g>
        <path class="cls-4" d="M408.81,666.33l.05-1.12v-1.82c-.64,2.14-2.3,3.86-5.53,3.86-4.27,0-5.86-3.16-5.86-6.27s1.56-6.35,5.86-6.35c3.22,0,4.89,1.77,5.53,3.93v-1.12l-.05-1.09h1.77l-.05-2.17h5.25l-.05,2.49v8.71l.05,2.49h-5.25l.03-1.54h-1.74ZM399.52,672.95c0-3.14,3.25-4.95,8.14-4.95s8.11,1.87,8.11,4.95-3.22,5.13-8.11,5.13-8.14-2.02-8.14-5.13ZM404.53,660.98c0-.97-.23-2.04-1.07-2.04s-1.05,1.07-1.05,2.04c0,.85.23,1.87,1.05,1.87s1.07-1.02,1.07-1.87ZM410.06,673.8c.43-.1.72-.45.72-.82,0-.35-.26-.67-.72-.85-.51-.17-1.48-.32-2.41-.32s-1.95.15-2.51.32c-.46.15-.67.5-.67.85s.2.7.67.82c.54.15,1.61.3,2.51.3s1.89-.15,2.41-.3ZM410.57,660.56h-1.38v.42c0,.37-.03.77-.08,1.14h1.46v-1.57Z"/>
        <path class="cls-4" d="M417.49,665.21l-.05-1.02h18.94l-.05,1.02v1.79l.05,1.02h-18.94l.05-1.02v-1.79ZM418.87,657.2l-.05-2.49h16.1l-.03,1.24v1.24l.03,1.25h-10.98v1.02h11.11l-.03,1.25v1.29l.03,1.24h-16.22l.05-2.49v-3.56ZM418.84,673.4c0-3.09,3.1-4.55,8.06-4.55s8.04,1.52,8.04,4.5-3.07,4.73-8.04,4.73-8.06-1.62-8.06-4.68ZM429.26,674.15c.43-.1.72-.42.72-.77,0-.3-.28-.62-.72-.75-.51-.15-1.48-.3-2.35-.3s-1.87.15-2.46.3c-.46.12-.67.45-.67.75,0,.32.21.62.67.75.56.12,1.59.27,2.46.27s1.84-.12,2.35-.25Z"/>
        <path class="cls-4" d="M437.58,672.73l-.05-1.17h6.53v-.22l-.05-2.27h5.78l-.05,2.27v.22h6.73l-.05,1.17v2.31l.05,1.17h-18.94l.05-1.17v-2.31ZM438.68,656.55l-.05-1.24h16.53l-.05,1.24v1.52l.05,1.25h-16.53l.05-1.25v-1.52ZM438.76,665.59l-.05-1.25h2.25l-.67-4.38,4.91-.2.51,4.58h2.35l.56-4.58,4.86.2-.67,4.38h2.2l-.05,1.25v1.47l.05,1.24h-16.33l.05-1.24v-1.47Z"/>
        <path class="cls-4" d="M464.27,668.67h-7.04l.05-1.12v-2.17l-.05-1.12h11.69c.33-1.67.64-3.58.82-5.2h-11.23l.05-1.24v-1.94l-.05-1.24h16.63l-.15,2.61c-.21,2.09-.56,4.7-.97,7.02h2.41l-.05,1.12v2.17l.05,1.12h-6.93v5.92l.05,2.96h-5.32l.05-2.96v-5.92Z"/>
      </g>
      <g>
        <path class="cls-1" d="M535.03,847.38h3.99v3.98c2.23-.08,4.38-.17,5.71-.27l.36,3.98c-2.33.25-8.06.57-11.18.67l-.72-4.23,1.84-.03v-4.11ZM540.17,845.68h-6.07l.05-1.02v-2.19l-.05-1h10.85c-.05.67-.08,1.32-.1,1.97-.08,1.47-.36,4.9-.59,6.77l-4.48-.25c.18-1.52.31-2.79.38-4.28ZM535.08,858.55l-.05-2.04h5.58l-.05,2.19v1.17h10.57l-.03,1.25v1.89l.03,1.25h-16.09l.05-2.07v-3.63ZM545.8,843.45l-.05-2.49h5.12l-.05,2.49v3.86h1.77l-.05,1.24v2.29l.05,1.24h-1.77v2.99l.05,2.49h-5.12l.05-2.49v-11.62Z"/>
        <path class="cls-1" d="M553.02,847.63c0-3.04,1.54-6.25,5.86-6.25s5.86,3.21,5.86,6.25-1.46,6.22-5.86,6.22-5.86-3.14-5.86-6.22ZM570.75,862.14l.05,2.36h-5.09l.05-2.32v-2.74h-11l.05-1.24v-1.67l-.05-1.25h16.04l-.05,2.41v4.43ZM560.11,847.63c0-.92-.26-1.97-1.1-1.97s-1.05,1.04-1.05,1.97c0,.85.23,1.84,1.05,1.84s1.1-1,1.1-1.84ZM565.76,843.47l-.05-2.49h5.09l-.05,2.49v2.31h1.79l-.05,1.24v1.97l.05,1.24h-1.79v1.89l.05,2.49h-5.09l.05-2.49v-8.66Z"/>
        <path class="cls-1" d="M580.15,855.47h-7.04l.05-1.12v-2.17l-.05-1.12h11.69c.33-1.67.64-3.58.82-5.2h-11.23l.05-1.24v-1.94l-.05-1.24h16.63l-.15,2.61c-.21,2.09-.56,4.7-.97,7.02h2.41l-.05,1.12v2.17l.05,1.12h-6.93v5.92l.05,2.96h-5.32l.05-2.96v-5.92Z"/>
      </g>
      <g>
        <path class="cls-4" d="M397.52,885.93l-.05-1.07h11.8c.26-1.02.46-2.21.59-3.36h-11.03l.05-1.24v-1.69l-.05-1.24h16.43l-.18,2.69c-.13,1.62-.38,3.33-.69,4.85h2.02l-.05,1.07v1.97l.05,1.07h-18.94l.05-1.07v-1.97ZM414.9,900.39h-5.3v-.52h-5.3v.52h-5.3l.05-2.39v-5.18l-.05-2.49h15.89l-.05,2.49v5.18l.05,2.39ZM404.3,893.99v2.02h5.3v-2.02h-5.3Z"/>
        <path class="cls-4" d="M430.56,886.73h-2.05l.05-1.17v-1.97l-.03-.5h-2.35c.33,2.02,1.28,3.26,2.56,4.16.31.2.61.37.92.47l-1.92,4.26c-1.64-.67-3.15-2.14-3.92-4.13-.77,2.14-2.43,3.58-4.5,4.31l-1.97-4.46c.36-.08.77-.25,1.13-.45,1.51-.87,2.41-2.04,2.71-4.16h-3.35l.05-1.27v-1.67l-.05-1.24h3.4v-.45l-.05-1.57h4.94l-.05,1.54v.47h3.22l-.05,1.24v1.67l.03.57h1.28v-3.11l-.05-2.49h5.25l-.05,2.49v11.82l.05,2.49h-5.25l.05-2.49v-4.38ZM419.51,894.44l-.05-1.99h5.53l-.05,2.14v1.09h10.98l-.03,1.25v1.87l.03,1.24h-16.45l.05-2.02v-3.58Z"/>
        <path class="cls-4" d="M444.31,891.28h-7.04l.05-1.12v-2.17l-.05-1.12h11.69c.33-1.67.64-3.58.82-5.2h-11.23l.05-1.24v-1.94l-.05-1.24h16.63l-.15,2.61c-.21,2.09-.56,4.7-.97,7.02h2.41l-.05,1.12v2.17l.05,1.12h-6.93v5.92l.05,2.96h-5.32l.05-2.96v-5.92Z"/>
      </g>
    </g>
  </g>
</svg>