<?xml version="1.0" encoding="UTF-8"?>
<svg id="_레이어_2" data-name="레이어_2" xmlns="http://www.w3.org/2000/svg" viewBox="0 0 367.45 214.92">
  <defs>
    <style>
      .cls-1 {
        fill: #5e5e5e;
      }
    </style>
  </defs>
  <g id="_레이어_1-2" data-name="레이어_1">
    <g>
      <g>
        <path class="cls-1" d="M324.04,107.94c-2.28-2.02-4.24-4.9-5.88-8.62-1.08-2.48-2.01-5.27-2.76-8.37-.76-3.1-1.34-6.49-1.74-10.18-.4-3.69-.6-7.55-.6-11.6,0-1.11.02-1.96.05-2.55,0-.98.02-1.94.07-2.89.05-.95.1-1.88.16-2.79.28-3.65.74-7.1,1.37-10.33.63-3.23,1.42-6.15,2.37-8.76.94-2.61,2.04-4.93,3.27-6.95,1.55-2.41,3.27-4.27,5.16-5.58,1.89-1.3,3.9-1.96,6.04-1.96h.05c1.42,0,2.79.28,4.09.83,1.3.56,2.52,1.36,3.67,2.4l-6.6,25.85c-.12-.13-.29-.2-.51-.2h-.14c-.65,0-1.2.51-1.65,1.52-.45,1.01-.79,2.56-1.02,4.65-.23,2.09-.35,4.67-.35,7.73,0,4.11.22,7.38.65,9.79.25,1.37.56,2.4.95,3.08.39.69.84,1.03,1.37,1.03s.99-.37,1.39-1.13c.4-.75.73-1.88.98-3.38.22-1.11.37-2.45.46-4.01.09-1.57.14-3.36.14-5.38,0-3.98-.19-7.13-.58-9.45-.39-2.32-.95-3.74-1.7-4.26l-.09-.1.09.1,1.63-2.94c2.14-3.85,3.73-6.71,4.79-8.57,1.05-1.86,2.62-4.65,4.69-8.37,2.01,3.79,3.56,8.47,4.65,14.05,1.08,5.58,1.63,11.77,1.63,18.55,0,6.4-.49,12.29-1.46,17.67-.98,5.38-2.38,9.94-4.2,13.66-.5,1.04-1.03,2.01-1.6,2.89-.57.88-1.17,1.71-1.79,2.5-1.36,1.63-2.84,2.89-4.44,3.77-1.6.88-3.27,1.32-5.04,1.32-2.76,0-5.27-1.01-7.55-3.04ZM350.91,100.74V28.73h16.54v84.2h-16.54v-12.19Z"/>
        <path class="cls-1" d="M168.31,174.78c.68-3.2,1.18-5.56,1.51-7.1.33-1.53.81-3.83,1.46-6.9.62-3.07,1.08-5.34,1.37-6.8.29-1.47.74-3.7,1.32-6.71v-.1h-5.3v-15.96h35.26v15.96h-14.17c-.28.33-.49.57-.63.73-.14.16-.29.34-.44.54-.16.2-.37.46-.65.78-.4.52-.7.91-.88,1.17-.19.26-.48.65-.88,1.17h.93l.46,7.15h-1.39l-.32,2.35c-.09.98-.2,1.96-.32,2.94-.12,1.31-.34,3.26-.65,5.87-.09.78-.19,1.6-.28,2.45-.06.65-.13,1.31-.21,1.96-.08.65-.16,1.31-.26,1.96h-16.26l.32-1.47ZM172.72,201.02v-9.89h33.35v-2.94h-33.35v-9.5h49.71v17.13h-33.4v2.94h34.79l-1.44,16.15h-49.66v-13.9ZM188.75,171.84c-.12-1.5-.26-3-.42-4.5-.12-1.89-.26-3.75-.42-5.58-.03-.52-.06-1.03-.09-1.52-.03-.49-.08-.99-.14-1.52h-1.39v-7.15h14.49l.19.98c.31,1.76.62,3.51.93,5.24.31,1.73.62,3.44.93,5.14.25,1.44.45,2.48.6,3.13.31,1.7.62,3.39.93,5.09.31,1.7.63,3.39.98,5.09h-16.26c-.12-1.96-.23-3.43-.33-4.41ZM205.24,163.13v-32.41h17.19v45.53h-17.19v-13.12Z"/>
        <path class="cls-1" d="M317.45,201.34c.25-2.41.5-5.25.74-8.52.43-5.16.75-8.97.95-11.46.2-2.48.52-6.2.95-11.16.28-3.2.49-5.58.63-7.15.14-1.57.35-3.92.63-7.05v-.1h-10.13v-26.73h26.29c-.74,12.6-1.3,22.05-1.67,28.34-.37,6.3-.75,12.6-1.14,18.9-.39,6.3-.95,15.75-1.7,28.34l-.14,2.25h-15.93c.19-1.89.36-3.78.51-5.68ZM339.84,195.27v-13.71h-3.86v-26.43h3.81s.05-.03.05-.1v-27.81h10.68v84.2h-10.68v-16.15ZM352.61,193.95v-66.72h11.94v84.2h-11.94v-17.48Z"/>
        <path class="cls-1" d="M176.22,76.73c-2.24-1.14-4.18-2.79-5.82-4.94-1.09-1.5-2-3.21-2.75-5.13-.75-1.92-1.32-4.04-1.72-6.36-.4-2.31-.61-4.81-.61-7.48,0-.78.02-1.37.05-1.76.03-.65.08-1.3.14-1.96.06-.65.12-1.27.19-1.86.28-2.28.71-4.37,1.3-6.26.59-1.89,1.34-3.63,2.24-5.23.9-1.6,1.97-2.98,3.21-4.16,1.49-1.43,3.18-2.53,5.08-3.28,1.89-.75,3.93-1.12,6.1-1.12h.05c1.37,0,2.69.18,3.98.54,1.29.36,2.46.83,3.52,1.42l-6.2,17.89h-.75c-.75,0-1.37.28-1.89.83-.51.55-.91,1.39-1.19,2.49-.28,1.11-.42,2.48-.42,4.11,0,1.11.06,2.1.19,2.98.12.88.31,1.65.56,2.3.31.72.68,1.26,1.12,1.61.43.36.96.54,1.58.54.59,0,1.11-.2,1.56-.59.45-.39.83-.98,1.14-1.76.25-.65.43-1.38.54-2.2.11-.81.16-1.78.16-2.88,0-2.15-.23-3.85-.68-5.08-.45-1.24-1.09-2.02-1.93-2.35l.19-.98.47.1,3.68-4.79c1.09-1.5,2.18-2.97,3.28-4.4,1.1-1.43,2.18-2.8,3.24-4.11,1.99,2.28,3.52,5.12,4.59,8.51,1.07,3.39,1.61,7.2,1.61,11.44s-.47,7.79-1.42,11.05c-.95,3.26-2.34,6.06-4.17,8.41-1.06,1.3-2.19,2.38-3.4,3.23-1.34.98-2.79,1.71-4.36,2.2-1.57.49-3.24.73-5.01.73-2.73,0-5.22-.57-7.45-1.71ZM170.44,108.4v-27.52h16.87v31.78h-16.87v-4.25ZM187.3,97.8h16.12v-6.36h-16.26l1.86-10.56h31.26v31.78h-32.99v-14.86ZM203.05,63.77V28.57h17.24v49.38h-17.24v-14.18Z"/>
      </g>
      <g>
        <path class="cls-1" d="M17.77,206.71c.15,21.08,75.24-17.39,91.22-33.87,14.43.31,31.96-2.06,41.54-6.85,6.62-3.31,10.61-7.08,12.97-10.73,5.34-8.29-1.61-16.8-15.05-16.49-13.45.31-26.9,8.02-43.38,21.74-13.26-3.01-25.27-8.07-30.47-14.28-8.31-9.92-.69-14.9,5.53-17.15,2.86-1.03,5.87-1.58,8.9-1.78,61.04-4.02,68.43-18.18,71.84-26.2,3.47-8.14-10.1-12.11-13.28-5.59-3.18,6.52-5.05,11.9-22.49,20.79-17.44,8.89-94.52,13.1-109.45-6.75-10.83-14.4-20.29,1.26-13.23,9.49,10.34,12.05,47.4,9.78,62.66,9.1,1.68-.07,2.31,2.16.85,2.99-12.02,6.85-16.17,12.77-.84,27.19,6.55,6.16,16.9,10.3,28.45,12.53-3.59,3.48-75.93,14.79-75.78,35.87ZM119.23,161.88s27.47-29.64,36.49-17.74c1.64,2.17,4.51,10.02-2.33,13.92-9.28,5.3-34.16,3.82-34.16,3.82Z"/>
        <path class="cls-1" d="M116.9,91.95c6.41-7.34,47.44-8.3,40.44-24-7-15.71-51.58.18-51.58.18,0,0,15.71-24.04-5.65-32.41-21.37-8.36-77.27,13.1-67.99,31.12,9.28,18.02,80.38-56.55,67.58-9.64-4.86,17.8-10.43,24.36-43.45,32.66-27.99,4.4-16.38,28.01-2.94,18.76,13.44-9.25,101.23-62.53,96.85-39.27-3.75,19.9-56.07,14.71-50.51,30.23,4.34,12.11,15.15-5.22,17.25-7.64Z"/>
      </g>
      <g>
        <path class="cls-1" d="M274.51,110.95c.05-9.73,1.99-13.84,17.69-22.57,13.66-6.06,4.53-16.51-1.06-9.96-5.59,6.55-43.06,45.66-44,33.21-.8-10.65,26.57-15.14,21.62-22.29-1.88-2.71-13.47,4.72-23.4,7.24,4.49-9.47,22.62-20.81,28.32-20.81,6.18,0-.72,8.16,8.55,8.16s6.4-17.55-2.5-18.48c-15.31-1.61-33.34,19.24-37.59,31.77-3.47.46-6.54.02-8.65-2.05,6.73-26.88,30.58-33.94,50.92-39.59,3.72-1.03,4.84-7.61.13-7.67-4.64-.06-24.63,7.7-41.05,24.96-2.43,2.55-6.02,1.13-6.85-5.71-1.77-14.5,12.46-38.78,20.07-44.09,14.46-10.08-6.04,34.23,10.13,27.01,10.15-4.53,8.56-27.99-6.59-31.33-16.52-3.64-31.76,27.9-30.83,45.59.31,6.03,3.97,10.95,7.24,12.35.82.35,1.85.37,1.27,1.06-10.33,12.21-12.4,24.74-9.02,32.49,1.62,3.71,4.35,4.47,7.03,2.82,1.85-1.14,4.01-3.54,5.94-8.45.6-1.52,1.32-3.24,2.13-5.07,8.28-1.21,17.41-5.26,17-3.94-1.3,4.17-23.04,10.7-17.33,17.74,5.71,7.05,26.26-7.12,26.26-7.12,0,0-4.73,14.39,7.3,15.74,12.03,1.35,37.59-17.21,30.4-25.12-7.19-7.92-33.25,39.77-33.12,14.12ZM237.39,106.7c-1.01.16-2.07-1.17-3.33-4.59-.4-1.09-.63-2.47-.67-4.06,1.87,1.52,4.7,1.94,7.86,1.76-1.4,3.96-2.59,6.69-3.85,6.89Z"/>
        <path class="cls-1" d="M322.87.01c-19.37-.8-30.52,45.91-30.52,45.91,0,0-3.59-8.33-8.34-10.78-4.75-2.45-6.53-1.14-7.09,1.91-.55,3.05,5.14,6.93,10.37,8.26,5.23,1.33,4.08,6.25,3.51,10.26-1.32,9.19-1.04,17.52,6.17,17.54,9.61.03,6.22-12.7,4.3-19.41-2.43-8.53-1.66-18.08,2.14-26.96,4.96-11.58,12.48-23.96,18.25-24.23,9.52-.44,3.74,16.29,10.56,17.11,6.82.82,10-18.82-9.36-19.63Z"/>
      </g>
      <path class="cls-1" d="M268.69,159.31c8.14,1.03,10.34,6.56,10.56,11.65.21,4.76-1.34,9.42-4.22,13.22-5.08,6.71-16.41,19.8-30.95,25.05-.62.22-1.32.2-1.9-.12-.49-.27-1.58-1.25-.81-1.55,31.79-12.5,34.75-44.48,23.84-43.5-10.91.98-29.28,35.53-36.81,27.57-9.63-10.17,24.56-34.32,40.29-32.32Z"/>
      <path class="cls-1" d="M286.43,131.36c-5.66,2.7-7.95,17.41-6.57,30.29,1.06,9.88,7.07,19.1,14.21,26,5.62,5.43,16.04,15.83,6.35,19.89-7.27,3.04-15.85-12.41-19.57-21.53-1.62-3.97-3.76-9.64-3.76-9.64,0,0-10.77-40.39,9.16-47.86,19.93-7.47,27.54,12.16,20.22,14.29-7.32,2.13-10.71-15.89-20.04-11.44Z"/>
    </g>
  </g>
</svg>