<svg width="17" height="17" viewBox="0 0 17 17" fill="none" xmlns="http://www.w3.org/2000/svg">
<path d="M6 2H4.2C3.08 2 2.52 2 2.092 2.218C1.71565 2.40969 1.40969 2.71565 1.218 3.092C1 3.52 1 4.08 1 5.2V12.8C1 13.92 1 14.48 1.218 14.908C1.40974 15.2843 1.71569 15.5903 2.092 15.782C2.519 16 3.079 16 4.197 16H11.803C12.921 16 13.48 16 13.907 15.782C14.284 15.59 14.59 15.284 14.782 14.908C15 14.48 15 13.921 15 12.803V11M16 6V1M16 1H11M16 1L9 8" stroke="black" stroke-width="2" stroke-linecap="round" stroke-linejoin="round"/>
</svg>
