<?xml version="1.0" encoding="UTF-8"?>
<svg id="_레이어_2" data-name="레이어 2" xmlns="http://www.w3.org/2000/svg" viewBox="0 0 1920 158.65">
  <defs>
    <style>
      .cls-1 {
        fill: #d3942b;
      }

      .cls-2 {
        fill: #d89529;
      }

      .cls-3 {
        fill: #252f54;
      }

      .cls-4 {
        fill: #d59429;
      }
    </style>
  </defs>
  <g id="Layer_1" data-name="Layer 1">
    <g>
      <rect class="cls-3" width="1920" height="158.65"/>
      <g>
        <path class="cls-1" d="M397.21,103.05c.16,1.71.62,2.26,2.42,2.73v1.25h-16.13v-1.25c1.79-.47,2.26-1.01,2.42-2.73v-39.43h-16.13c-1.71.16-2.26.62-2.73,2.42h-1.25v-13.4h1.25c.47,1.79,1.01,2.26,2.73,2.42h43.56c1.71-.16,2.26-.62,2.73-2.42h1.25v13.4h-1.25c-.47-1.79-1.01-2.26-2.73-2.42h-16.13v39.43Z"/>
        <path class="cls-1" d="M439.44,107.02h-16.13v-1.25c1.79-.47,2.26-1.01,2.42-2.73v-44.03c-.16-1.71-.62-2.26-2.42-2.73v-1.25h16.13v1.25c-1.79.47-2.26,1.01-2.42,2.73v44.03c.08,1.71.62,2.26,2.42,2.73v1.25Z"/>
        <path class="cls-1" d="M506.46,100.01l-.94.7c-.78-.7-1.25-.94-1.87-.94-.55,0-2.03.7-3.74,1.79-6.62,4.29-13.87,6.39-21.66,6.39-8.18,0-14.96-1.95-20.18-5.84-6.62-4.83-10.36-12.47-10.36-21.12s3.74-16.21,10.36-21.04c5.3-3.9,12-5.84,20.26-5.84,7.79,0,13.95,1.79,21.12,6.16,2.57,1.56,3.66,2.03,4.44,2.03.47,0,.78-.23,1.64-.94l.94.7-7.17,10.83-1.01-.7v-1.01c0-.94-.23-1.48-1.09-2.18-4.44-3.82-11.07-6.08-18-6.08-11.69,0-19.87,7.4-19.87,18.16,0,5.3,2.26,10.29,6.23,13.64,3.58,3.04,8.1,4.44,14.18,4.44,5.22,0,9.51-1.17,14.18-3.82,3.19-1.79,4.36-2.96,4.36-4.36v-1.09l1.01-.7,7.17,10.83Z"/>
        <path class="cls-1" d="M527.27,89.1v13.95c.16,1.71.62,2.26,2.42,2.73v1.25h-16.13v-1.25c1.79-.47,2.26-1.01,2.42-2.73v-44.03c-.16-1.71-.62-2.26-2.42-2.73v-1.25h16.13v1.25c-1.79.47-2.26,1.01-2.42,2.73v18.16l20.65-16.83c1.79-1.4,2.26-2.03,2.26-2.57,0-.7-.78-1.25-2.26-1.48v-1.25h21.27v1.25c-1.17.16-1.64.39-2.34.86-.31.23-.7.47-1.09.86-1.56,1.25-3.19,2.57-4.75,3.9l-17.61,14.18,20.03,24.08c4.36,5.06,4.68,5.3,7.09,5.61v1.25h-20.26v-1.25c1.32-.23,1.95-.7,1.95-1.4,0-.55-.31-.94-1.79-2.81l-15.35-18.86-7.79,6.39Z"/>
        <path class="cls-1" d="M590.47,98.45h33.51c1.64-.16,2.26-.62,2.73-2.42h1.17v13.4h-1.17c-.47-1.79-1.01-2.26-2.73-2.42h-47.22v-1.25c1.79-.47,2.26-1.01,2.42-2.73v-44.03c-.16-1.71-.62-2.26-2.42-2.73v-1.25h46.29c1.71-.16,2.26-.62,2.73-2.42h1.25v13.4h-1.25c-.47-1.79-1.01-2.26-2.73-2.42h-32.57v12.39h21.12c1.71-.08,2.26-.62,2.73-2.49h1.25v13.17h-1.25c-.47-1.79-1.01-2.26-2.73-2.42h-21.12v14.18Z"/>
        <path class="cls-1" d="M664.26,103.05c.16,1.71.62,2.26,2.42,2.73v1.25h-16.13v-1.25c1.79-.47,2.26-1.01,2.42-2.73v-39.43h-16.13c-1.71.16-2.26.62-2.73,2.42h-1.25v-13.4h1.25c.47,1.79,1.01,2.26,2.73,2.42h43.56c1.71-.16,2.26-.62,2.73-2.42h1.25v13.4h-1.25c-.47-1.79-1.01-2.26-2.73-2.42h-16.13v39.43Z"/>
        <path class="cls-1" d="M764.56,56.29c-2.18.31-2.42.55-4.52,5.14l-18,38.81q-1.17,2.57-1.17,3.27c0,1.25.86,2.03,2.42,2.26v1.25h-17.85v-1.25c1.48-.23,2.34-1.01,2.34-2.26,0-.7-.16-1.17-1.09-3.27l-18-38.81c-2.1-4.6-2.34-4.83-4.6-5.14v-1.25h18.47v1.25c-1.79.31-2.49.94-2.49,2.1,0,.7.31,1.79.86,3.04l13.79,30.47,13.71-30.47c.55-1.17.86-2.34.86-3.04,0-1.17-.7-1.79-2.49-2.1v-1.25h17.77v1.25Z"/>
        <path class="cls-1" d="M783.96,98.45h33.51c1.64-.16,2.26-.62,2.73-2.42h1.17v13.4h-1.17c-.47-1.79-1.01-2.26-2.73-2.42h-47.22v-1.25c1.79-.47,2.26-1.01,2.42-2.73v-44.03c-.16-1.71-.62-2.26-2.42-2.73v-1.25h46.29c1.71-.16,2.26-.62,2.73-2.42h1.25v13.4h-1.25c-.47-1.79-1.01-2.26-2.73-2.42h-32.57v12.39h21.12c1.71-.08,2.26-.62,2.73-2.49h1.25v13.17h-1.25c-.47-1.79-1.01-2.26-2.73-2.42h-21.12v14.18Z"/>
        <path class="cls-1" d="M842.25,103.05c.08,1.71.62,2.26,2.42,2.73v1.25h-15.2v-1.25c1.79-.47,2.26-1.01,2.42-2.73v-44.03c-.16-1.71-.62-2.26-2.42-2.73v-1.25h17.61v1.25c-1.09.23-1.64.86-1.64,1.71,0,.7.31,1.17,1.09,2.03l28.68,29.85v-30.86c-.16-1.71-.62-2.26-2.42-2.73v-1.25h15.2v1.25c-1.79.47-2.34,1.01-2.42,2.73v44.03c.08,1.71.62,2.26,2.42,2.73v1.25h-16.29v-1.25c1.09-.23,1.56-.7,1.56-1.64,0-.62-.31-1.09-1.87-2.65l-29.14-30.08v31.64Z"/>
        <path class="cls-1" d="M926.26,55.04c9.66,0,15.27,1.56,19.95,5.53,5.46,4.6,8.26,11.61,8.26,20.42s-2.81,15.9-8.26,20.49c-4.6,3.97-10.36,5.53-19.95,5.53h-28.91v-1.25c1.79-.47,2.26-1.01,2.42-2.73v-44.03c-.16-1.71-.62-2.26-2.42-2.73v-1.25h28.91ZM925.32,98.45c6.86,0,10.68-1.32,13.56-4.6,2.73-3.04,3.97-7.01,3.97-12.86s-1.25-9.74-3.97-12.78c-2.88-3.35-6.7-4.6-13.56-4.6h-14.26v34.83h14.26Z"/>
        <path class="cls-1" d="M978.78,107.02h-16.13v-1.25c1.79-.47,2.26-1.01,2.42-2.73v-44.03c-.16-1.71-.62-2.26-2.42-2.73v-1.25h16.13v1.25c-1.79.47-2.26,1.01-2.42,2.73v44.03c.08,1.71.62,2.26,2.42,2.73v1.25Z"/>
        <path class="cls-1" d="M1000.99,103.05c.08,1.71.62,2.26,2.42,2.73v1.25h-15.2v-1.25c1.79-.47,2.26-1.01,2.42-2.73v-44.03c-.16-1.71-.62-2.26-2.42-2.73v-1.25h17.61v1.25c-1.09.23-1.64.86-1.64,1.71,0,.7.31,1.17,1.09,2.03l28.68,29.85v-30.86c-.16-1.71-.62-2.26-2.42-2.73v-1.25h15.2v1.25c-1.79.47-2.34,1.01-2.42,2.73v44.03c.08,1.71.62,2.26,2.42,2.73v1.25h-16.29v-1.25c1.09-.23,1.56-.7,1.56-1.64,0-.62-.31-1.09-1.87-2.65l-29.15-30.08v31.64Z"/>
        <path class="cls-1" d="M1089.2,88.32c-1.71.16-2.26.62-2.73,2.42h-1.25v-12.08h1.25c.47,1.79,1.09,2.34,2.73,2.42h24.62v1.25c-1.64.39-2.34,1.17-2.42,2.73v10.68c.08,1.64.7,2.34,2.42,2.81v.94c-9.82,5.77-19.17,8.49-28.68,8.49-18.55,0-30.55-10.6-30.55-26.96s12.31-26.88,31.33-26.88c6.31,0,10.44.93,18.78,4.13.94.39,1.71.55,2.34.55s1.09-.23,1.87-.94l1.01.55-6.08,12.47-1.09-.55c0-1.56-.31-2.18-1.87-3.27-3.19-2.34-9.97-4.13-15.2-4.13-11.46,0-19.48,7.48-19.48,18.23s7.95,18,20.1,18c5.77,0,11.77-1.4,15.74-3.74v-7.09h-12.86Z"/>
        <path class="cls-1" d="M1154.9,71.1v31.95c.08,1.71.62,2.26,2.41,2.73v1.25h-15.2v-1.25c1.79-.47,2.26-1.01,2.42-2.73v-44.03c-.16-1.71-.62-2.26-2.42-2.73v-1.25h19.95v1.25c-1.17.23-1.79,1.01-1.79,2.03,0,.55.16,1.09.55,1.79l14.18,26.1,14.42-25.64c.62-1.17.93-1.95.93-2.57,0-1.01-.62-1.64-1.87-1.71v-1.25h19.56v1.25c-1.79.47-2.34,1.01-2.42,2.73v44.03c.08,1.71.62,2.26,2.42,2.73v1.25h-16.13v-1.25c1.79-.47,2.26-1.01,2.42-2.73v-31.95l-20.26,35.22-19.17-35.22Z"/>
        <path class="cls-1" d="M1232.82,93.77l-3.51,7.33c-.39.94-.7,1.87-.7,2.42,0,1.09.86,1.87,2.49,2.26v1.25h-17.14v-1.25c1.95-.31,2.57-.94,4.13-3.97l19.09-39.98c.62-1.25.93-2.26.93-3.04,0-1.17-.7-2.03-2.18-2.49v-1.25h18.39v1.25c-1.32.39-2.26,1.17-2.26,2.03,0,.78.47,2.26,1.33,3.9l19.25,38.89c1.87,3.58,2.65,4.36,4.68,4.68v1.25h-19.09v-1.25c1.64-.23,2.49-1.01,2.49-2.34,0-.62-.23-1.32-.7-2.34l-3.58-7.33h-23.61ZM1244.75,68.14l-8.57,18.55h16.99l-8.42-18.55Z"/>
        <path class="cls-1" d="M1335.69,100.01l-.94.7c-.78-.7-1.25-.94-1.87-.94-.55,0-2.03.7-3.74,1.79-6.62,4.29-13.87,6.39-21.66,6.39-8.18,0-14.96-1.95-20.18-5.84-6.62-4.83-10.36-12.47-10.36-21.12s3.74-16.21,10.36-21.04c5.3-3.9,12-5.84,20.26-5.84,7.79,0,13.95,1.79,21.12,6.16,2.57,1.56,3.66,2.03,4.44,2.03.47,0,.78-.23,1.64-.94l.94.7-7.17,10.83-1.01-.7v-1.01c0-.94-.23-1.48-1.09-2.18-4.44-3.82-11.07-6.08-18-6.08-11.69,0-19.87,7.4-19.87,18.16,0,5.3,2.26,10.29,6.23,13.64,3.58,3.04,8.1,4.44,14.18,4.44,5.22,0,9.51-1.17,14.18-3.82,3.2-1.79,4.36-2.96,4.36-4.36v-1.09l1.01-.7,7.17,10.83Z"/>
        <path class="cls-1" d="M1356.5,84.35v18.7c.08,1.71.62,2.26,2.42,2.73v1.25h-16.13v-1.25c1.79-.47,2.26-1.01,2.42-2.73v-44.03c-.16-1.71-.62-2.26-2.42-2.73v-1.25h16.13v1.25c-1.79.47-2.26,1.01-2.42,2.73v16.75h30.08v-16.75c-.16-1.71-.62-2.26-2.42-2.73v-1.25h16.13v1.25c-1.79.47-2.34,1.01-2.42,2.73v44.03c.08,1.71.62,2.26,2.42,2.73v1.25h-16.13v-1.25c1.79-.47,2.26-1.01,2.42-2.73v-18.7h-30.08Z"/>
        <path class="cls-1" d="M1425.77,107.02h-16.13v-1.25c1.79-.47,2.26-1.01,2.42-2.73v-44.03c-.16-1.71-.62-2.26-2.42-2.73v-1.25h16.13v1.25c-1.79.47-2.26,1.01-2.42,2.73v44.03c.08,1.71.62,2.26,2.42,2.73v1.25Z"/>
        <path class="cls-1" d="M1447.98,103.05c.08,1.71.62,2.26,2.42,2.73v1.25h-15.2v-1.25c1.79-.47,2.26-1.01,2.42-2.73v-44.03c-.16-1.71-.62-2.26-2.42-2.73v-1.25h17.61v1.25c-1.09.23-1.64.86-1.64,1.71,0,.7.31,1.17,1.09,2.03l28.68,29.85v-30.86c-.16-1.71-.62-2.26-2.42-2.73v-1.25h15.2v1.25c-1.79.47-2.34,1.01-2.42,2.73v44.03c.08,1.71.62,2.26,2.42,2.73v1.25h-16.29v-1.25c1.09-.23,1.56-.7,1.56-1.64,0-.62-.31-1.09-1.87-2.65l-29.15-30.08v31.64Z"/>
        <path class="cls-1" d="M1516.79,98.45h33.51c1.64-.16,2.26-.62,2.73-2.42h1.17v13.4h-1.17c-.47-1.79-1.01-2.26-2.73-2.42h-47.22v-1.25c1.79-.47,2.26-1.01,2.42-2.73v-44.03c-.16-1.71-.62-2.26-2.42-2.73v-1.25h46.29c1.71-.16,2.26-.62,2.73-2.42h1.25v13.4h-1.25c-.47-1.79-1.01-2.26-2.73-2.42h-32.57v12.39h21.12c1.71-.08,2.26-.62,2.73-2.49h1.25v13.17h-1.25c-.47-1.79-1.01-2.26-2.73-2.42h-21.12v14.18Z"/>
      </g>
      <g>
        <rect class="cls-2" y="9.04" width="1920" height="2.84"/>
        <rect class="cls-2" y="146.77" width="1920" height="2.84"/>
      </g>
      <g>
        <g>
          <path class="cls-4" d="M228.68,72.61s-7.03-6.15-25.41,6.72c18.38,12.87,25.41,6.71,25.41,6.71-5.08,16.14,9.86,16.74,9.86,16.74.45-20.33,21.67-23.46,21.67-23.46,0,0-21.23-3.13-21.67-23.46,0,0-14.95.6-9.86,16.74Z"/>
          <rect class="cls-4" x="260.97" y="74.7" width="21.77" height="9.25" rx="4.3" ry="4.3" transform="translate(192.52 351.17) rotate(-90)"/>
          <path class="cls-4" d="M260.22,115.5s-12.69-3.5-9.61-16.5c2.76-11.64,14.63-15.33,14.63-15.33v-1.31s-2.42.95-2.59,1.02c-2.09.91-4.11,1.96-6.05,3.16-4.93,3.06-9.65,7.34-11.4,13.05-1.3,4.26-.95,9.46,1.74,13.12,1.9,2.6,4.74,5.06,8.16,4.92.87-.04,1.72-.24,2.52-.57.42-.17,2.23-1.21,2.6-1.56Z"/>
          <path class="cls-4" d="M281.6,79.33s3.69,3.25,12.75,3.25,12.75-3.25,12.75-3.25c0,0-3.69-3.25-12.75-3.25s-12.75,3.25-12.75,3.25Z"/>
          <path class="cls-4" d="M278.21,81.61c4.45.7,8.94,2.16,12.98,4.12,6.49,3.15,12.16,8.53,11.69,16.37-.15,2.41-1.08,4.81-2.83,6.51-1.46,1.42-4.03,1.3-4.72-.9-1.28-4.09-.58-8.74-2.65-12.64-2.76-5.19-8.11-9.02-12.81-12.34-.4-.28-1.1-.69-1.65-1.13Z"/>
          <path class="cls-4" d="M278.21,77.01c4.45-.7,8.94-2.16,12.98-4.12,6.49-3.15,12.16-8.53,11.69-16.37-.15-2.41-1.08-4.81-2.83-6.51-1.46-1.42-4.03-1.3-4.72.9-1.28,4.09-.58,8.74-2.65,12.64-2.76,5.19-8.11,9.02-12.81,12.34-.4.28-1.1.69-1.65,1.13Z"/>
          <path class="cls-4" d="M260.22,43.15s-12.69,3.5-9.61,16.5c2.76,11.64,14.63,15.33,14.63,15.33v1.31s-2.42-.95-2.59-1.02c-2.09-.91-4.11-1.96-6.05-3.16-4.93-3.06-9.65-7.34-11.4-13.05-1.3-4.26-.95-9.46,1.74-13.12,1.9-2.6,4.74-5.07,8.16-4.92.87.04,1.72.24,2.52.57.42.17,2.23,1.21,2.6,1.56Z"/>
        </g>
        <g>
          <path class="cls-4" d="M1691.32,86.04s7.03,6.15,25.41-6.72c-18.38-12.87-25.41-6.71-25.41-6.71,5.08-16.14-9.86-16.74-9.86-16.74-.45,20.33-21.67,23.46-21.67,23.46,0,0,21.23,3.13,21.67,23.46,0,0,14.95-.6,9.86-16.74Z"/>
          <rect class="cls-4" x="1637.27" y="74.7" width="21.77" height="9.25" rx="4.3" ry="4.3" transform="translate(1727.47 -1568.83) rotate(90)"/>
          <path class="cls-4" d="M1659.78,43.15s12.69,3.5,9.61,16.5c-2.76,11.64-14.63,15.33-14.63,15.33v1.31s2.42-.95,2.59-1.02c2.09-.91,4.11-1.96,6.05-3.16,4.93-3.06,9.65-7.34,11.4-13.05,1.3-4.26.95-9.46-1.74-13.12-1.9-2.6-4.74-5.06-8.16-4.92-.87.04-1.72.24-2.52.57-.42.17-2.23,1.21-2.6,1.56Z"/>
          <path class="cls-4" d="M1638.4,79.32s-3.69-3.25-12.75-3.25-12.75,3.25-12.75,3.25c0,0,3.69,3.25,12.75,3.25s12.75-3.25,12.75-3.25Z"/>
          <path class="cls-4" d="M1641.79,77.04c-4.45-.7-8.94-2.16-12.98-4.12-6.49-3.15-12.16-8.53-11.69-16.37.15-2.41,1.08-4.81,2.83-6.51,1.46-1.42,4.03-1.3,4.72.9,1.28,4.09.58,8.74,2.65,12.64,2.76,5.19,8.11,9.02,12.81,12.34.4.28,1.1.69,1.65,1.13Z"/>
          <path class="cls-4" d="M1641.79,81.64c-4.45.7-8.94,2.16-12.98,4.12-6.49,3.15-12.16,8.53-11.69,16.37.15,2.41,1.08,4.81,2.83,6.51,1.46,1.42,4.03,1.3,4.72-.9,1.28-4.09.58-8.74,2.65-12.64,2.76-5.19,8.11-9.02,12.81-12.34.4-.28,1.1-.69,1.65-1.13Z"/>
          <path class="cls-4" d="M1659.78,115.5s12.69-3.5,9.61-16.5c-2.76-11.64-14.63-15.33-14.63-15.33v-1.32s2.42.95,2.59,1.02c2.09.91,4.11,1.96,6.05,3.16,4.93,3.06,9.65,7.34,11.4,13.05,1.3,4.26.95,9.46-1.74,13.12-1.9,2.6-4.74,5.07-8.16,4.92-.87-.04-1.72-.24-2.52-.57-.42-.17-2.23-1.21-2.6-1.56Z"/>
        </g>
      </g>
    </g>
  </g>
</svg>