<?xml version="1.0" encoding="UTF-8"?>
<svg id="_레이어_2" data-name="레이어 2" xmlns="http://www.w3.org/2000/svg" viewBox="0 0 234.12 62">
  <defs>
    <style>
      .cls-1 {
        fill: #252f54;
      }

      .cls-2 {
        fill: #9aa7c1;
      }
    </style>
  </defs>
  <g id="Layer_1" data-name="Layer 1">
    <g>
      <rect class="cls-2" width="234.12" height="62"/>
      <g>
        <path class="cls-1" d="M35.17,31.28h-1.66v2.52c0,.81.05,1.46.15,1.95.1.49.3.92.6,1.28v.11h-4.54v-.11c.25-.37.42-.8.52-1.28.1-.49.14-1.12.14-1.9v-8.85c0-.74-.05-1.35-.14-1.84-.1-.49-.27-.92-.52-1.28v-.11h5.45c1.18,0,2.24.18,3.16.54.93.36,1.66.9,2.18,1.6.52.71.79,1.57.79,2.59s-.26,1.86-.8,2.58c-.53.72-1.26,1.26-2.18,1.64-.92.38-1.97.56-3.15.56ZM33.51,23.71v5.62h1.46c.99,0,1.75-.24,2.29-.72.54-.48.81-1.18.81-2.11s-.27-1.63-.81-2.09c-.54-.46-1.3-.7-2.29-.7h-1.46Z"/>
        <path class="cls-1" d="M45.09,37.45c-.8,0-1.47-.25-2.01-.76-.55-.51-.82-1.18-.82-2,0-.89.34-1.56,1.03-2.04.69-.47,1.67-.87,2.96-1.19l2.39-.6.09,1.35-1.84.6c-.4.13-.72.27-.97.4-.25.13-.44.29-.58.46-.13.18-.2.39-.2.64,0,.35.1.63.31.83s.46.3.75.3.59-.09.88-.27c.29-.18.54-.45.73-.83.19-.38.29-.84.29-1.38v-2.61c0-.65-.23-1.14-.67-1.46-.45-.32-.99-.49-1.61-.49-.92,0-1.9.31-2.94.93l-.31-1.46c.56-.44,1.2-.81,1.9-1.1.71-.29,1.42-.43,2.15-.43s1.45.13,2.09.38c.64.25,1.17.69,1.59,1.31s.63,1.45.63,2.48v4.32c0,.29.05.51.16.64.1.13.27.2.49.2s.44-.05.64-.15l.2,1.28c-.34.22-.67.38-1.01.49-.33.1-.68.15-1.05.15-.63,0-1.16-.17-1.58-.52-.42-.35-.65-.78-.67-1.29h-.11c-.3.59-.7,1.04-1.21,1.36-.51.32-1.07.48-1.69.48Z"/>
        <path class="cls-1" d="M56.79,37.45c-.59,0-1.16-.08-1.71-.24-.55-.16-1.06-.39-1.52-.69v-2.41h.13c.41.52.87.9,1.37,1.16.5.26,1.03.39,1.57.39.5,0,.93-.1,1.27-.3.35-.2.52-.48.52-.83,0-.27-.08-.48-.25-.63-.17-.15-.44-.31-.81-.48l-1.53-.64c-.74-.31-1.29-.71-1.65-1.21-.36-.49-.54-1.07-.54-1.72s.18-1.28.54-1.81c.36-.53.87-.95,1.52-1.25.65-.3,1.37-.45,2.17-.45.53,0,1.04.06,1.53.18.49.12.92.28,1.31.49v2.41h-.13c-.25-.4-.61-.72-1.07-.95-.46-.24-.99-.35-1.56-.35-.52,0-.95.1-1.29.3-.35.2-.52.48-.52.85,0,.28.09.51.27.68.18.17.46.34.84.5l1.68.71c.69.3,1.22.67,1.57,1.13s.53,1.01.53,1.66c0,.69-.19,1.31-.56,1.85-.38.54-.89.95-1.54,1.24-.65.29-1.36.43-2.12.43Z"/>
        <path class="cls-1" d="M65.98,37.45c-.59,0-1.16-.08-1.71-.24-.55-.16-1.06-.39-1.52-.69v-2.41h.13c.41.52.87.9,1.37,1.16.5.26,1.03.39,1.57.39.5,0,.93-.1,1.27-.3s.52-.48.52-.83c0-.27-.08-.48-.25-.63-.17-.15-.44-.31-.81-.48l-1.53-.64c-.74-.31-1.29-.71-1.65-1.21-.36-.49-.54-1.07-.54-1.72s.18-1.28.54-1.81c.36-.53.87-.95,1.52-1.25.65-.3,1.37-.45,2.17-.45.53,0,1.04.06,1.53.18.49.12.92.28,1.31.49v2.41h-.13c-.25-.4-.61-.72-1.07-.95-.46-.24-.99-.35-1.56-.35-.52,0-.95.1-1.29.3s-.52.48-.52.85c0,.28.09.51.27.68.18.17.46.34.84.5l1.68.71c.69.3,1.22.67,1.57,1.13s.53,1.01.53,1.66c0,.69-.19,1.31-.56,1.85-.38.54-.89.95-1.54,1.24-.65.29-1.36.43-2.12.43Z"/>
        <path class="cls-1" d="M77.35,37.45c-1.06,0-2.02-.23-2.87-.69-.85-.46-1.51-1.11-1.99-1.97-.48-.86-.72-1.85-.72-2.99,0-1,.22-1.93.67-2.77.45-.84,1.06-1.5,1.84-1.98s1.63-.72,2.58-.72c.87,0,1.63.18,2.28.53.65.35,1.15.87,1.52,1.55.36.68.54,1.49.54,2.43v.93h-7.52v-1.53h6.22l-1.44.33c0-.56-.07-1.04-.2-1.43-.13-.39-.34-.69-.61-.89-.27-.2-.6-.3-.99-.3s-.73.12-1.05.35c-.32.24-.57.59-.76,1.07-.19.48-.29,1.06-.29,1.74,0,.93.16,1.7.48,2.3.32.61.74,1.05,1.28,1.33.54.28,1.15.42,1.85.42.49,0,.97-.07,1.45-.22s.94-.37,1.38-.66l.33,1.37c-.53.58-1.14,1.01-1.83,1.32-.69.3-1.41.45-2.16.45Z"/>
        <path class="cls-1" d="M83.71,29.51c0-.61-.04-1.1-.13-1.47-.09-.38-.24-.7-.44-.98v-.13l3.41-.33h.07v1.55h.11c.31-.56.72-1,1.23-1.32.51-.32,1.08-.48,1.71-.48s1.25.16,1.77.48c.52.32.92.79,1.21,1.41.29.62.43,1.36.43,2.24v4.23c0,.58.03,1.03.1,1.37.07.34.18.66.34.97v.11h-3.79v-.11c.18-.28.29-.59.35-.92.06-.33.09-.81.09-1.43v-4.12c0-.47-.06-.87-.19-1.2-.13-.32-.31-.57-.54-.73-.24-.16-.52-.24-.84-.24s-.64.1-.95.29c-.31.19-.56.49-.75.89-.19.4-.29.89-.29,1.48v3.63c0,.62.03,1.1.09,1.43.06.33.18.64.35.92v.11h-3.81v-.11c.18-.29.3-.61.36-.95.07-.34.1-.8.1-1.39v-5.18Z"/>
        <path class="cls-1" d="M99.8,41.88c-1.02,0-1.9-.12-2.66-.35-.75-.24-1.33-.56-1.73-.97-.4-.41-.6-.89-.6-1.42,0-.4.14-.77.41-1.11.27-.34.65-.63,1.14-.86v-.84l1.9,1c-.34.12-.61.29-.81.53-.2.24-.3.5-.3.8,0,.5.24.9.71,1.18.47.29,1.14.43,2.01.43.61,0,1.16-.06,1.67-.19.51-.13.91-.31,1.21-.56.29-.25.44-.55.44-.91s-.12-.63-.37-.8c-.24-.16-.63-.24-1.16-.24h-3.78c-.68,0-1.27-.21-1.78-.64-.51-.43-.76-.97-.76-1.62,0-.46.14-.9.42-1.34.28-.44.73-.82,1.35-1.14v-.69l1.68,1.11c-.38.1-.69.27-.91.49-.22.22-.33.46-.33.71,0,.24.11.42.33.56.22.14.52.21.91.21h3.08c1.33,0,2.34.24,3.03.71.69.47,1.04,1.16,1.04,2.06,0,.74-.25,1.4-.76,1.99-.51.59-1.23,1.05-2.17,1.39-.94.34-2.01.51-3.22.51ZM100.17,33.67c-.87,0-1.65-.15-2.32-.46-.68-.31-1.21-.75-1.59-1.31-.38-.56-.58-1.19-.58-1.88,0-.75.19-1.41.56-1.96.38-.55.9-.98,1.58-1.27.68-.3,1.45-.44,2.32-.44,1.4,0,2.63.44,3.67,1.31v.73c.21.18.37.41.5.71.12.29.19.62.19.97,0,.68-.18,1.29-.53,1.84-.35.55-.86.98-1.52,1.3-.66.32-1.42.48-2.29.48ZM100.15,32.09c.35,0,.67-.08.94-.24.27-.16.48-.4.62-.72.14-.32.21-.69.21-1.12,0-.65-.16-1.16-.48-1.55-.32-.38-.75-.58-1.29-.58-.35,0-.66.08-.93.25-.27.17-.47.42-.62.74-.15.32-.22.7-.22,1.13,0,.65.16,1.16.48,1.53.32.37.75.55,1.29.55ZM102.41,28.27l-.73-1.59,4.36-.53h.07v2.15l-3.7-.02Z"/>
        <path class="cls-1" d="M112.57,37.45c-1.06,0-2.02-.23-2.87-.69-.85-.46-1.51-1.11-1.99-1.97-.48-.86-.72-1.85-.72-2.99,0-1,.22-1.93.67-2.77.45-.84,1.06-1.5,1.84-1.98s1.63-.72,2.58-.72c.87,0,1.63.18,2.28.53.65.35,1.15.87,1.52,1.55s.54,1.49.54,2.43v.93h-7.52v-1.53h6.22l-1.44.33c0-.56-.07-1.04-.2-1.43-.13-.39-.34-.69-.61-.89-.27-.2-.6-.3-.99-.3s-.73.12-1.05.35c-.32.24-.57.59-.76,1.07-.19.48-.29,1.06-.29,1.74,0,.93.16,1.7.48,2.3.32.61.74,1.05,1.28,1.33.54.28,1.15.42,1.85.42.49,0,.97-.07,1.45-.22.48-.15.94-.37,1.38-.66l.33,1.37c-.53.58-1.14,1.01-1.83,1.32-.69.3-1.41.45-2.16.45Z"/>
        <path class="cls-1" d="M118.92,29.53c0-.65-.04-1.16-.11-1.53-.07-.37-.22-.69-.44-.95v-.13l3.36-.33h.09v2.83h.11c.25-.99.63-1.75,1.13-2.28.5-.53,1.14-.8,1.92-.8.28,0,.54.02.78.07v2.97c-.31-.1-.67-.15-1.08-.15-.5,0-.97.12-1.39.35-.43.24-.78.63-1.05,1.17-.27.55-.41,1.25-.41,2.1v1.77c0,.63.04,1.12.11,1.46.07.34.22.66.44.95v.11h-3.9v-.11c.16-.31.28-.63.34-.97.07-.34.1-.82.1-1.44v-5.09Z"/>
        <path class="cls-1" d="M130.12,37.45c-.59,0-1.16-.08-1.71-.24-.55-.16-1.06-.39-1.52-.69v-2.41h.13c.41.52.87.9,1.37,1.16.5.26,1.03.39,1.57.39.5,0,.93-.1,1.27-.3.35-.2.52-.48.52-.83,0-.27-.08-.48-.25-.63-.17-.15-.44-.31-.81-.48l-1.53-.64c-.74-.31-1.29-.71-1.65-1.21-.36-.49-.54-1.07-.54-1.72s.18-1.28.54-1.81c.36-.53.87-.95,1.52-1.25.65-.3,1.37-.45,2.17-.45.53,0,1.04.06,1.53.18.49.12.92.28,1.31.49v2.41h-.13c-.25-.4-.61-.72-1.07-.95-.46-.24-.99-.35-1.56-.35-.52,0-.95.1-1.29.3s-.52.48-.52.85c0,.28.09.51.27.68.18.17.46.34.84.5l1.68.71c.69.3,1.22.67,1.57,1.13s.53,1.01.53,1.66c0,.69-.19,1.31-.56,1.85-.38.54-.89.95-1.54,1.24-.65.29-1.36.43-2.12.43Z"/>
        <path class="cls-1" d="M148.02,22.43l-5.6,17.13h-2.24l5.6-17.13h2.24Z"/>
        <path class="cls-1" d="M167.88,31.97h-14.35v-1.74h14.35v1.74ZM160.7,26.34c-.51.79-1.25,1.45-2.22,1.98-.96.53-2.11.88-3.42,1.05l-.85-1.73c1.13-.13,2.1-.39,2.9-.79.8-.4,1.41-.87,1.82-1.41.41-.54.62-1.1.62-1.68v-.53h1.91v.53c0,.93-.26,1.79-.77,2.58ZM163.61,33.36c.82.22,1.45.54,1.88.97.44.43.66.95.66,1.56s-.22,1.11-.66,1.54c-.44.43-1.07.75-1.88.98-.82.22-1.8.34-2.94.34-1.15,0-2.13-.12-2.96-.34-.82-.22-1.46-.55-1.9-.98-.44-.43-.66-.94-.66-1.54s.22-1.14.66-1.56c.44-.43,1.07-.75,1.9-.97.83-.22,1.81-.33,2.96-.33s2.12.11,2.94.33ZM158.85,34.83c-.48.08-.84.21-1.08.39s-.36.4-.36.67.12.49.36.66c.24.18.6.31,1.08.39.48.08,1.09.12,1.82.12s1.33-.04,1.81-.12c.48-.08.84-.21,1.08-.39.24-.18.36-.4.36-.66s-.12-.49-.36-.67c-.24-.18-.6-.31-1.08-.39-.48-.09-1.08-.13-1.81-.13s-1.35.04-1.82.13ZM162.45,25.43c.41.54,1.02,1.02,1.82,1.42.8.4,1.76.66,2.87.79l-.8,1.73c-1.31-.17-2.45-.53-3.41-1.06-.97-.53-1.71-1.19-2.23-1.98-.52-.79-.78-1.64-.78-2.57v-.53h1.9v.53c0,.57.2,1.13.61,1.67Z"/>
        <path class="cls-1" d="M175.04,27.63c-.43,1.04-1.09,1.95-1.98,2.73-.88.78-2.01,1.44-3.38,1.98l-1.05-1.65c1.13-.41,2.05-.9,2.77-1.46.72-.56,1.25-1.21,1.59-1.93.34-.72.51-1.52.51-2.39v-.83h2.17c.01,1.33-.2,2.51-.63,3.55ZM174.21,25.85h-4.8v-1.77h4.8v1.77ZM182.34,38.73h-2.19v-4.12h-8.79v-1.78h10.98v5.9ZM178.84,32.15h-2.08v-8.87h2.08v8.87ZM180.84,28.42h-2.58v-1.79h2.58v1.79ZM182.34,32.22h-2.1v-9.21h2.1v9.21Z"/>
        <path class="cls-1" d="M192.26,31.35h-7.48v-7.2h7.48v7.2ZM194.91,32.98c.81.24,1.44.58,1.87,1.05.43.46.65,1.01.65,1.66s-.22,1.18-.65,1.64c-.44.46-1.06.81-1.87,1.05-.81.24-1.78.35-2.91.35s-2.07-.12-2.88-.35c-.81-.24-1.43-.59-1.87-1.05-.43-.46-.65-1.01-.65-1.64s.22-1.2.65-1.66c.44-.46,1.06-.81,1.87-1.05.81-.24,1.77-.35,2.88-.35s2.09.12,2.91.35ZM186.97,29.61h3.12v-3.72h-3.12v3.72ZM190.24,34.46c-.48.1-.84.25-1.08.46-.25.2-.37.46-.37.77,0,.29.12.53.37.74.25.2.61.36,1.09.47.48.11,1.07.16,1.76.16s1.29-.05,1.77-.16c.48-.11.84-.26,1.08-.46.24-.2.36-.45.36-.75s-.12-.56-.36-.77c-.24-.2-.6-.36-1.08-.46-.48-.1-1.07-.15-1.79-.15s-1.29.05-1.77.15ZM195.88,27.03h-4.1v-1.74h4.1v1.74ZM195.94,30.22h-4.16v-1.8h4.16v1.8ZM197.38,32.21h-2.2v-9.23h2.2v9.23Z"/>
      </g>
    </g>
  </g>
</svg>