<svg width="627" height="62" viewBox="0 0 627 62" fill="none" xmlns="http://www.w3.org/2000/svg">
<path d="M626.62 0H0.62V62H626.62V0Z" fill="#C7CEE0"/>
<path d="M234.62 0H0.5V62H234.62V0Z" fill="#9AA7C1"/>
<path d="M35.67 31.28H34.01V33.8C34.01 34.61 34.06 35.26 34.16 35.75C34.26 36.24 34.46 36.67 34.76 37.03V37.14H30.22V37.03C30.47 36.66 30.64 36.23 30.74 35.75C30.84 35.26 30.88 34.63 30.88 33.85V25C30.88 24.26 30.83 23.65 30.74 23.16C30.64 22.67 30.47 22.24 30.22 21.88V21.77H35.67C36.85 21.77 37.91 21.95 38.83 22.31C39.76 22.67 40.49 23.21 41.01 23.91C41.53 24.62 41.8 25.48 41.8 26.5C41.8 27.52 41.54 28.36 41 29.08C40.47 29.8 39.74 30.34 38.82 30.72C37.9 31.1 36.85 31.28 35.67 31.28ZM34.01 23.71V29.33H35.47C36.46 29.33 37.22 29.09 37.76 28.61C38.3 28.13 38.57 27.43 38.57 26.5C38.57 25.57 38.3 24.87 37.76 24.41C37.22 23.95 36.46 23.71 35.47 23.71H34.01Z" fill="#252F54"/>
<path d="M45.59 37.45C44.79 37.45 44.12 37.2 43.58 36.69C43.03 36.18 42.76 35.51 42.76 34.69C42.76 33.8 43.1 33.13 43.79 32.65C44.48 32.18 45.46 31.78 46.75 31.46L49.14 30.86L49.23 32.21L47.39 32.81C46.99 32.94 46.67 33.08 46.42 33.21C46.17 33.34 45.98 33.5 45.84 33.67C45.71 33.85 45.64 34.06 45.64 34.31C45.64 34.66 45.74 34.94 45.95 35.14C46.16 35.34 46.41 35.44 46.7 35.44C46.99 35.44 47.29 35.35 47.58 35.17C47.87 34.99 48.12 34.72 48.31 34.34C48.5 33.96 48.6 33.5 48.6 32.96V30.35C48.6 29.7 48.37 29.21 47.93 28.89C47.48 28.57 46.94 28.4 46.32 28.4C45.4 28.4 44.42 28.71 43.38 29.33L43.07 27.87C43.63 27.43 44.27 27.06 44.97 26.77C45.68 26.48 46.39 26.34 47.12 26.34C47.85 26.34 48.57 26.47 49.21 26.72C49.85 26.97 50.38 27.41 50.8 28.03C51.22 28.65 51.43 29.48 51.43 30.51V34.83C51.43 35.12 51.48 35.34 51.59 35.47C51.69 35.6 51.86 35.67 52.08 35.67C52.3 35.67 52.52 35.62 52.72 35.52L52.92 36.8C52.58 37.02 52.25 37.18 51.91 37.29C51.58 37.39 51.23 37.44 50.86 37.44C50.23 37.44 49.7 37.27 49.28 36.92C48.86 36.57 48.63 36.14 48.61 35.63H48.5C48.2 36.22 47.8 36.67 47.29 36.99C46.78 37.31 46.22 37.47 45.6 37.47L45.59 37.45Z" fill="#252F54"/>
<path d="M57.29 37.45C56.7 37.45 56.13 37.37 55.58 37.21C55.03 37.05 54.52 36.82 54.06 36.52V34.11H54.19C54.6 34.63 55.06 35.01 55.56 35.27C56.06 35.53 56.59 35.66 57.13 35.66C57.63 35.66 58.06 35.56 58.4 35.36C58.75 35.16 58.92 34.88 58.92 34.53C58.92 34.26 58.84 34.05 58.67 33.9C58.5 33.75 58.23 33.59 57.86 33.42L56.33 32.78C55.59 32.47 55.04 32.07 54.68 31.57C54.32 31.08 54.14 30.5 54.14 29.85C54.14 29.2 54.32 28.57 54.68 28.04C55.04 27.51 55.55 27.09 56.2 26.79C56.85 26.49 57.57 26.34 58.37 26.34C58.9 26.34 59.41 26.4 59.9 26.52C60.39 26.64 60.82 26.8 61.21 27.01V29.42H61.08C60.83 29.02 60.47 28.7 60.01 28.47C59.55 28.23 59.02 28.12 58.45 28.12C57.93 28.12 57.5 28.22 57.16 28.42C56.81 28.62 56.64 28.9 56.64 29.27C56.64 29.55 56.73 29.78 56.91 29.95C57.09 30.12 57.37 30.29 57.75 30.45L59.43 31.16C60.12 31.46 60.65 31.83 61 32.29C61.35 32.75 61.53 33.3 61.53 33.95C61.53 34.64 61.34 35.26 60.97 35.8C60.59 36.34 60.08 36.75 59.43 37.04C58.78 37.33 58.07 37.47 57.31 37.47L57.29 37.45Z" fill="#252F54"/>
<path d="M66.48 37.45C65.89 37.45 65.32 37.37 64.77 37.21C64.22 37.05 63.71 36.82 63.25 36.52V34.11H63.38C63.79 34.63 64.25 35.01 64.75 35.27C65.25 35.53 65.78 35.66 66.32 35.66C66.82 35.66 67.25 35.56 67.59 35.36C67.93 35.16 68.11 34.88 68.11 34.53C68.11 34.26 68.03 34.05 67.86 33.9C67.69 33.75 67.42 33.59 67.05 33.42L65.52 32.78C64.78 32.47 64.23 32.07 63.87 31.57C63.51 31.08 63.33 30.5 63.33 29.85C63.33 29.2 63.51 28.57 63.87 28.04C64.23 27.51 64.74 27.09 65.39 26.79C66.04 26.49 66.76 26.34 67.56 26.34C68.09 26.34 68.6 26.4 69.09 26.52C69.58 26.64 70.01 26.8 70.4 27.01V29.42H70.27C70.02 29.02 69.66 28.7 69.2 28.47C68.74 28.23 68.21 28.12 67.64 28.12C67.12 28.12 66.69 28.22 66.35 28.42C66.01 28.62 65.83 28.9 65.83 29.27C65.83 29.55 65.92 29.78 66.1 29.95C66.28 30.12 66.56 30.29 66.94 30.45L68.62 31.16C69.31 31.46 69.84 31.83 70.19 32.29C70.54 32.75 70.72 33.3 70.72 33.95C70.72 34.64 70.53 35.26 70.16 35.8C69.78 36.34 69.27 36.75 68.62 37.04C67.97 37.33 67.26 37.47 66.5 37.47L66.48 37.45Z" fill="#252F54"/>
<path d="M77.85 37.45C76.79 37.45 75.83 37.22 74.98 36.76C74.13 36.3 73.47 35.65 72.99 34.79C72.51 33.93 72.27 32.94 72.27 31.8C72.27 30.8 72.49 29.87 72.94 29.03C73.39 28.19 74 27.53 74.78 27.05C75.56 26.57 76.41 26.33 77.36 26.33C78.23 26.33 78.99 26.51 79.64 26.86C80.29 27.21 80.79 27.73 81.16 28.41C81.52 29.09 81.7 29.9 81.7 30.84V31.77H74.18V30.24H80.4L78.96 30.57C78.96 30.01 78.89 29.53 78.76 29.14C78.63 28.75 78.42 28.45 78.15 28.25C77.88 28.05 77.55 27.95 77.16 27.95C76.77 27.95 76.43 28.07 76.11 28.3C75.79 28.54 75.54 28.89 75.35 29.37C75.16 29.85 75.06 30.43 75.06 31.11C75.06 32.04 75.22 32.81 75.54 33.41C75.86 34.02 76.28 34.46 76.82 34.74C77.36 35.02 77.97 35.16 78.67 35.16C79.16 35.16 79.64 35.09 80.12 34.94C80.6 34.79 81.06 34.57 81.5 34.28L81.83 35.65C81.3 36.23 80.69 36.66 80 36.97C79.31 37.27 78.59 37.42 77.84 37.42L77.85 37.45Z" fill="#252F54"/>
<path d="M84.21 29.51C84.21 28.9 84.17 28.41 84.08 28.04C83.99 27.66 83.84 27.34 83.64 27.06V26.93L87.05 26.6H87.12V28.15H87.23C87.54 27.59 87.95 27.15 88.46 26.83C88.97 26.51 89.54 26.35 90.17 26.35C90.8 26.35 91.42 26.51 91.94 26.83C92.46 27.15 92.86 27.62 93.15 28.24C93.44 28.86 93.58 29.6 93.58 30.48V34.71C93.58 35.29 93.61 35.74 93.68 36.08C93.75 36.42 93.86 36.74 94.02 37.05V37.16H90.23V37.05C90.41 36.77 90.52 36.46 90.58 36.13C90.64 35.8 90.67 35.32 90.67 34.7V30.58C90.67 30.11 90.61 29.71 90.48 29.38C90.35 29.06 90.17 28.81 89.94 28.65C89.7 28.49 89.42 28.41 89.1 28.41C88.78 28.41 88.46 28.51 88.15 28.7C87.84 28.89 87.59 29.19 87.4 29.59C87.21 29.99 87.11 30.48 87.11 31.07V34.7C87.11 35.32 87.14 35.8 87.2 36.13C87.26 36.46 87.38 36.77 87.55 37.05V37.16H83.74V37.05C83.92 36.76 84.04 36.44 84.1 36.1C84.17 35.76 84.2 35.3 84.2 34.71V29.53L84.21 29.51Z" fill="#252F54"/>
<path d="M100.3 41.88C99.28 41.88 98.4 41.76 97.64 41.53C96.89 41.29 96.31 40.97 95.91 40.56C95.51 40.15 95.31 39.67 95.31 39.14C95.31 38.74 95.45 38.37 95.72 38.03C95.99 37.69 96.37 37.4 96.86 37.17V36.33L98.76 37.33C98.42 37.45 98.15 37.62 97.95 37.86C97.75 38.1 97.65 38.36 97.65 38.66C97.65 39.16 97.89 39.56 98.36 39.84C98.83 40.13 99.5 40.27 100.37 40.27C100.98 40.27 101.53 40.21 102.04 40.08C102.55 39.95 102.95 39.77 103.25 39.52C103.54 39.27 103.69 38.97 103.69 38.61C103.69 38.25 103.57 37.98 103.32 37.81C103.08 37.65 102.69 37.57 102.16 37.57H98.38C97.7 37.57 97.11 37.36 96.6 36.93C96.09 36.5 95.84 35.96 95.84 35.31C95.84 34.85 95.98 34.41 96.26 33.97C96.54 33.53 96.99 33.15 97.61 32.83V32.14L99.29 33.25C98.91 33.35 98.6 33.52 98.38 33.74C98.16 33.96 98.05 34.2 98.05 34.45C98.05 34.69 98.16 34.87 98.38 35.01C98.6 35.15 98.9 35.22 99.29 35.22H102.37C103.7 35.22 104.71 35.46 105.4 35.93C106.09 36.4 106.44 37.09 106.44 37.99C106.44 38.73 106.19 39.39 105.68 39.98C105.17 40.57 104.45 41.03 103.51 41.37C102.57 41.71 101.5 41.88 100.29 41.88H100.3ZM100.67 33.67C99.8 33.67 99.02 33.52 98.35 33.21C97.67 32.9 97.14 32.46 96.76 31.9C96.38 31.34 96.18 30.71 96.18 30.02C96.18 29.27 96.37 28.61 96.74 28.06C97.12 27.51 97.64 27.08 98.32 26.79C99 26.49 99.77 26.35 100.64 26.35C102.04 26.35 103.27 26.79 104.31 27.66V28.39C104.52 28.57 104.68 28.8 104.81 29.1C104.93 29.39 105 29.72 105 30.07C105 30.75 104.82 31.36 104.47 31.91C104.12 32.46 103.61 32.89 102.95 33.21C102.29 33.53 101.53 33.69 100.66 33.69L100.67 33.67ZM100.65 32.09C101 32.09 101.32 32.01 101.59 31.85C101.86 31.69 102.07 31.45 102.21 31.13C102.35 30.81 102.42 30.44 102.42 30.01C102.42 29.36 102.26 28.85 101.94 28.46C101.62 28.08 101.19 27.88 100.65 27.88C100.3 27.88 99.99 27.96 99.72 28.13C99.45 28.3 99.25 28.55 99.1 28.87C98.95 29.19 98.88 29.57 98.88 30C98.88 30.65 99.04 31.16 99.36 31.53C99.68 31.9 100.11 32.08 100.65 32.08V32.09ZM102.91 28.27L102.18 26.68L106.54 26.15H106.61V28.3L102.91 28.28V28.27Z" fill="#252F54"/>
<path d="M113.07 37.45C112.01 37.45 111.05 37.22 110.2 36.76C109.35 36.3 108.69 35.65 108.21 34.79C107.73 33.93 107.49 32.94 107.49 31.8C107.49 30.8 107.71 29.87 108.16 29.03C108.61 28.19 109.22 27.53 110 27.05C110.78 26.57 111.63 26.33 112.58 26.33C113.45 26.33 114.21 26.51 114.86 26.86C115.51 27.21 116.01 27.73 116.38 28.41C116.75 29.09 116.92 29.9 116.92 30.84V31.77H109.4V30.24H115.62L114.18 30.57C114.18 30.01 114.11 29.53 113.98 29.14C113.85 28.75 113.64 28.45 113.37 28.25C113.1 28.05 112.77 27.95 112.38 27.95C111.99 27.95 111.65 28.07 111.33 28.3C111.01 28.54 110.76 28.89 110.57 29.37C110.38 29.85 110.28 30.43 110.28 31.11C110.28 32.04 110.44 32.81 110.76 33.41C111.08 34.02 111.5 34.46 112.04 34.74C112.58 35.02 113.19 35.16 113.89 35.16C114.38 35.16 114.86 35.09 115.34 34.94C115.82 34.79 116.28 34.57 116.72 34.28L117.05 35.65C116.52 36.23 115.91 36.66 115.22 36.97C114.53 37.27 113.81 37.42 113.06 37.42L113.07 37.45Z" fill="#252F54"/>
<path d="M119.42 29.53C119.42 28.88 119.38 28.37 119.31 28C119.24 27.63 119.09 27.31 118.87 27.05V26.92L122.23 26.59H122.32V29.42H122.43C122.68 28.43 123.06 27.67 123.56 27.14C124.06 26.61 124.7 26.34 125.48 26.34C125.76 26.34 126.02 26.36 126.26 26.41V29.38C125.95 29.28 125.59 29.23 125.18 29.23C124.68 29.23 124.21 29.35 123.79 29.58C123.36 29.82 123.01 30.21 122.74 30.75C122.47 31.3 122.33 32 122.33 32.85V34.62C122.33 35.25 122.37 35.74 122.44 36.08C122.51 36.42 122.66 36.74 122.88 37.03V37.14H118.98V37.03C119.14 36.72 119.26 36.4 119.32 36.06C119.39 35.72 119.42 35.24 119.42 34.62V29.53Z" fill="#252F54"/>
<path d="M130.62 37.45C130.03 37.45 129.46 37.37 128.91 37.21C128.36 37.05 127.85 36.82 127.39 36.52V34.11H127.52C127.93 34.63 128.39 35.01 128.89 35.27C129.39 35.53 129.92 35.66 130.46 35.66C130.96 35.66 131.39 35.56 131.73 35.36C132.08 35.16 132.25 34.88 132.25 34.53C132.25 34.26 132.17 34.05 132 33.9C131.83 33.75 131.56 33.59 131.19 33.42L129.66 32.78C128.92 32.47 128.37 32.07 128.01 31.57C127.65 31.08 127.47 30.5 127.47 29.85C127.47 29.2 127.65 28.57 128.01 28.04C128.37 27.51 128.88 27.09 129.53 26.79C130.18 26.49 130.9 26.34 131.7 26.34C132.23 26.34 132.74 26.4 133.23 26.52C133.72 26.64 134.15 26.8 134.54 27.01V29.42H134.41C134.16 29.02 133.8 28.7 133.34 28.47C132.88 28.23 132.35 28.12 131.78 28.12C131.26 28.12 130.83 28.22 130.49 28.42C130.15 28.62 129.97 28.9 129.97 29.27C129.97 29.55 130.06 29.78 130.24 29.95C130.42 30.12 130.7 30.29 131.08 30.45L132.76 31.16C133.45 31.46 133.98 31.83 134.33 32.29C134.68 32.75 134.86 33.3 134.86 33.95C134.86 34.64 134.67 35.26 134.3 35.8C133.92 36.34 133.41 36.75 132.76 37.04C132.11 37.33 131.4 37.47 130.64 37.47L130.62 37.45Z" fill="#252F54"/>
<path d="M148.52 22.43L142.92 39.56H140.68L146.28 22.43H148.52Z" fill="#252F54"/>
<path d="M168.38 31.97H154.03V30.23H168.38V31.97ZM161.2 26.34C160.69 27.13 159.95 27.79 158.98 28.32C158.02 28.85 156.87 29.2 155.56 29.37L154.71 27.64C155.84 27.51 156.81 27.25 157.61 26.85C158.41 26.45 159.02 25.98 159.43 25.44C159.84 24.9 160.05 24.34 160.05 23.76V23.23H161.96V23.76C161.96 24.69 161.7 25.55 161.19 26.34H161.2ZM164.11 33.36C164.93 33.58 165.56 33.9 165.99 34.33C166.43 34.76 166.65 35.28 166.65 35.89C166.65 36.5 166.43 37 165.99 37.43C165.55 37.86 164.92 38.18 164.11 38.41C163.29 38.63 162.31 38.75 161.17 38.75C160.02 38.75 159.04 38.63 158.21 38.41C157.39 38.19 156.75 37.86 156.31 37.43C155.87 37 155.65 36.49 155.65 35.89C155.65 35.29 155.87 34.75 156.31 34.33C156.75 33.9 157.38 33.58 158.21 33.36C159.04 33.14 160.02 33.03 161.17 33.03C162.32 33.03 163.29 33.14 164.11 33.36ZM159.35 34.83C158.87 34.91 158.51 35.04 158.27 35.22C158.03 35.4 157.91 35.62 157.91 35.89C157.91 36.16 158.03 36.38 158.27 36.55C158.51 36.73 158.87 36.86 159.35 36.94C159.83 37.02 160.44 37.06 161.17 37.06C161.9 37.06 162.5 37.02 162.98 36.94C163.46 36.86 163.82 36.73 164.06 36.55C164.3 36.37 164.42 36.15 164.42 35.89C164.42 35.63 164.3 35.4 164.06 35.22C163.82 35.04 163.46 34.91 162.98 34.83C162.5 34.74 161.9 34.7 161.17 34.7C160.44 34.7 159.82 34.74 159.35 34.83ZM162.95 25.43C163.36 25.97 163.97 26.45 164.77 26.85C165.57 27.25 166.53 27.51 167.64 27.64L166.84 29.37C165.53 29.2 164.39 28.84 163.43 28.31C162.46 27.78 161.72 27.12 161.2 26.33C160.68 25.54 160.42 24.69 160.42 23.76V23.23H162.32V23.76C162.32 24.33 162.52 24.89 162.93 25.43H162.95Z" fill="#252F54"/>
<path d="M175.54 27.63C175.11 28.67 174.45 29.58 173.56 30.36C172.68 31.14 171.55 31.8 170.18 32.34L169.13 30.69C170.26 30.28 171.18 29.79 171.9 29.23C172.62 28.67 173.15 28.02 173.49 27.3C173.83 26.58 174 25.78 174 24.91V24.08H176.17C176.18 25.41 175.97 26.59 175.54 27.63ZM174.71 25.85H169.91V24.08H174.71V25.85ZM182.84 38.73H180.65V34.61H171.86V32.83H182.84V38.73ZM179.34 32.15H177.26V23.28H179.34V32.15ZM181.34 28.42H178.76V26.63H181.34V28.42ZM182.84 32.22H180.74V23.01H182.84V32.22Z" fill="#252F54"/>
<path d="M192.76 31.35H185.28V24.15H192.76V31.35ZM195.41 32.98C196.22 33.22 196.85 33.56 197.28 34.03C197.71 34.49 197.93 35.04 197.93 35.69C197.93 36.34 197.71 36.87 197.28 37.33C196.84 37.79 196.22 38.14 195.41 38.38C194.6 38.62 193.63 38.73 192.5 38.73C191.37 38.73 190.43 38.61 189.62 38.38C188.81 38.14 188.19 37.79 187.75 37.33C187.32 36.87 187.1 36.32 187.1 35.69C187.1 35.06 187.32 34.49 187.75 34.03C188.19 33.57 188.81 33.22 189.62 32.98C190.43 32.74 191.39 32.63 192.5 32.63C193.61 32.63 194.59 32.75 195.41 32.98ZM187.47 29.61H190.59V25.89H187.47V29.61ZM190.74 34.46C190.26 34.56 189.9 34.71 189.66 34.92C189.41 35.12 189.29 35.38 189.29 35.69C189.29 35.98 189.41 36.22 189.66 36.43C189.91 36.63 190.27 36.79 190.75 36.9C191.23 37.01 191.82 37.06 192.51 37.06C193.2 37.06 193.8 37.01 194.28 36.9C194.76 36.79 195.12 36.64 195.36 36.44C195.6 36.24 195.72 35.99 195.72 35.69C195.72 35.39 195.6 35.13 195.36 34.92C195.12 34.72 194.76 34.56 194.28 34.46C193.8 34.36 193.21 34.31 192.49 34.31C191.77 34.31 191.2 34.36 190.72 34.46H190.74ZM196.38 27.03H192.28V25.29H196.38V27.03ZM196.44 30.22H192.28V28.42H196.44V30.22ZM197.88 32.21H195.68V22.98H197.88V32.21Z" fill="#252F54"/>
<path d="M328.32 31.28V33.8C328.32 34.61 328.37 35.26 328.47 35.75C328.57 36.24 328.77 36.67 329.07 37.03V37.14H324.53V37.03C324.78 36.66 324.95 36.23 325.05 35.75C325.15 35.26 325.19 34.63 325.19 33.85V25C325.19 24.26 325.14 23.65 325.05 23.16C324.95 22.67 324.78 22.24 324.53 21.88V21.77H329.98C331.16 21.77 332.22 21.95 333.15 22.31C334.08 22.67 334.81 23.21 335.33 23.91C335.85 24.62 336.12 25.48 336.12 26.5C336.12 27.52 335.86 28.36 335.32 29.08C334.79 29.8 334.06 30.34 333.14 30.72C332.22 31.1 331.17 31.28 329.99 31.28H328.32ZM328.32 23.71V29.33H329.78C330.77 29.33 331.53 29.09 332.07 28.61C332.61 28.13 332.88 27.43 332.88 26.5C332.88 25.57 332.61 24.87 332.07 24.41C331.53 23.95 330.77 23.71 329.78 23.71H328.32Z" fill="white"/>
<path d="M337.66 37.03C337.84 36.74 337.95 36.41 338.01 36.06C338.07 35.71 338.1 35.2 338.1 34.56V24.49C338.1 23.8 338.07 23.27 338 22.92C337.93 22.57 337.78 22.2 337.55 21.84V21.71L340.94 21.38H341.01V34.57C341.01 35.26 341.04 35.78 341.09 36.12C341.14 36.46 341.26 36.77 341.46 37.05V37.16H337.67V37.05L337.66 37.03Z" fill="white"/>
<path d="M348.86 37.45C347.8 37.45 346.84 37.22 345.99 36.76C345.14 36.3 344.48 35.65 344 34.79C343.52 33.93 343.28 32.94 343.28 31.8C343.28 30.8 343.5 29.87 343.95 29.03C344.4 28.19 345.01 27.53 345.79 27.05C346.57 26.57 347.42 26.33 348.37 26.33C349.24 26.33 350 26.51 350.65 26.86C351.3 27.21 351.8 27.73 352.17 28.41C352.53 29.09 352.71 29.9 352.71 30.84V31.77H345.19V30.24H351.41L349.97 30.57C349.97 30.01 349.9 29.53 349.77 29.14C349.64 28.75 349.43 28.45 349.16 28.25C348.89 28.05 348.56 27.95 348.17 27.95C347.78 27.95 347.44 28.07 347.12 28.3C346.8 28.54 346.55 28.89 346.36 29.37C346.17 29.85 346.07 30.43 346.07 31.11C346.07 32.04 346.23 32.81 346.55 33.41C346.87 34.02 347.29 34.46 347.83 34.74C348.37 35.02 348.98 35.16 349.68 35.16C350.17 35.16 350.65 35.09 351.13 34.94C351.61 34.79 352.07 34.57 352.51 34.28L352.84 35.65C352.31 36.23 351.7 36.66 351.01 36.97C350.32 37.27 349.6 37.42 348.85 37.42L348.86 37.45Z" fill="white"/>
<path d="M357.18 37.45C356.38 37.45 355.71 37.2 355.17 36.69C354.62 36.18 354.35 35.51 354.35 34.69C354.35 33.8 354.69 33.13 355.38 32.65C356.07 32.18 357.05 31.78 358.34 31.46L360.73 30.86L360.82 32.21L358.98 32.81C358.58 32.94 358.26 33.08 358.01 33.21C357.76 33.34 357.57 33.5 357.43 33.67C357.3 33.85 357.23 34.06 357.23 34.31C357.23 34.66 357.33 34.94 357.54 35.14C357.75 35.34 358 35.44 358.29 35.44C358.58 35.44 358.88 35.35 359.17 35.17C359.46 34.99 359.71 34.72 359.9 34.34C360.09 33.96 360.19 33.5 360.19 32.96V30.35C360.19 29.7 359.96 29.21 359.52 28.89C359.07 28.57 358.53 28.4 357.91 28.4C357 28.4 356.01 28.71 354.97 29.33L354.66 27.87C355.22 27.43 355.86 27.06 356.56 26.77C357.27 26.48 357.98 26.34 358.71 26.34C359.44 26.34 360.16 26.47 360.8 26.72C361.44 26.97 361.97 27.41 362.39 28.03C362.81 28.65 363.02 29.48 363.02 30.51V34.83C363.02 35.12 363.07 35.34 363.18 35.47C363.28 35.6 363.45 35.67 363.67 35.67C363.89 35.67 364.11 35.62 364.31 35.52L364.51 36.8C364.17 37.02 363.84 37.18 363.5 37.29C363.17 37.39 362.82 37.44 362.45 37.44C361.82 37.44 361.29 37.27 360.87 36.92C360.45 36.57 360.22 36.14 360.2 35.63H360.09C359.79 36.22 359.39 36.67 358.88 36.99C358.37 37.31 357.81 37.47 357.19 37.47L357.18 37.45Z" fill="white"/>
<path d="M368.89 37.45C368.3 37.45 367.73 37.37 367.18 37.21C366.63 37.05 366.12 36.82 365.66 36.52V34.11H365.79C366.2 34.63 366.66 35.01 367.16 35.27C367.66 35.53 368.19 35.66 368.73 35.66C369.23 35.66 369.66 35.56 370 35.36C370.35 35.16 370.52 34.88 370.52 34.53C370.52 34.26 370.44 34.05 370.27 33.9C370.1 33.75 369.83 33.59 369.46 33.42L367.93 32.78C367.19 32.47 366.64 32.07 366.28 31.57C365.92 31.08 365.74 30.5 365.74 29.85C365.74 29.2 365.92 28.57 366.28 28.04C366.64 27.51 367.15 27.09 367.8 26.79C368.45 26.49 369.17 26.34 369.97 26.34C370.5 26.34 371.01 26.4 371.5 26.52C371.99 26.64 372.42 26.8 372.81 27.01V29.42H372.68C372.43 29.02 372.07 28.7 371.61 28.47C371.15 28.23 370.62 28.12 370.05 28.12C369.53 28.12 369.1 28.22 368.76 28.42C368.41 28.62 368.24 28.9 368.24 29.27C368.24 29.55 368.33 29.78 368.51 29.95C368.69 30.12 368.97 30.29 369.35 30.45L371.03 31.16C371.72 31.46 372.25 31.83 372.6 32.29C372.95 32.75 373.13 33.3 373.13 33.95C373.13 34.64 372.94 35.26 372.57 35.8C372.19 36.34 371.68 36.75 371.03 37.04C370.38 37.33 369.67 37.47 368.91 37.47L368.89 37.45Z" fill="white"/>
<path d="M380.26 37.45C379.2 37.45 378.24 37.22 377.39 36.76C376.54 36.3 375.88 35.65 375.4 34.79C374.92 33.93 374.68 32.94 374.68 31.8C374.68 30.8 374.9 29.87 375.35 29.03C375.8 28.19 376.41 27.53 377.19 27.05C377.96 26.57 378.82 26.33 379.77 26.33C380.64 26.33 381.4 26.51 382.05 26.86C382.7 27.21 383.2 27.73 383.57 28.41C383.94 29.09 384.11 29.9 384.11 30.84V31.77H376.59V30.24H382.81L381.37 30.57C381.37 30.01 381.3 29.53 381.17 29.14C381.04 28.75 380.83 28.45 380.56 28.25C380.29 28.05 379.96 27.95 379.57 27.95C379.18 27.95 378.84 28.07 378.52 28.3C378.2 28.54 377.95 28.89 377.76 29.37C377.57 29.85 377.47 30.43 377.47 31.11C377.47 32.04 377.63 32.81 377.95 33.41C378.27 34.02 378.69 34.46 379.23 34.74C379.77 35.02 380.38 35.16 381.08 35.16C381.57 35.16 382.05 35.09 382.53 34.94C383.01 34.79 383.47 34.57 383.91 34.28L384.24 35.65C383.71 36.23 383.1 36.66 382.41 36.97C381.72 37.27 381 37.42 380.25 37.42L380.26 37.45Z" fill="white"/>
<path d="M396.44 37.45C395.38 37.45 394.42 37.22 393.57 36.76C392.72 36.3 392.06 35.65 391.58 34.79C391.1 33.93 390.86 32.94 390.86 31.8C390.86 30.8 391.08 29.87 391.53 29.03C391.98 28.19 392.59 27.53 393.37 27.05C394.15 26.57 395 26.33 395.95 26.33C396.82 26.33 397.58 26.51 398.23 26.86C398.88 27.21 399.38 27.73 399.75 28.41C400.12 29.09 400.29 29.9 400.29 30.84V31.77H392.77V30.24H398.99L397.55 30.57C397.55 30.01 397.48 29.53 397.35 29.14C397.22 28.75 397.01 28.45 396.74 28.25C396.47 28.05 396.14 27.95 395.75 27.95C395.36 27.95 395.02 28.07 394.7 28.3C394.38 28.54 394.13 28.89 393.94 29.37C393.75 29.85 393.65 30.43 393.65 31.11C393.65 32.04 393.81 32.81 394.13 33.41C394.45 34.02 394.87 34.46 395.41 34.74C395.95 35.02 396.56 35.16 397.26 35.16C397.75 35.16 398.23 35.09 398.71 34.94C399.19 34.79 399.65 34.57 400.09 34.28L400.42 35.65C399.89 36.23 399.28 36.66 398.59 36.97C397.9 37.27 397.18 37.42 396.43 37.42L396.44 37.45Z" fill="white"/>
<path d="M402.8 29.51C402.8 28.9 402.76 28.41 402.67 28.04C402.58 27.66 402.43 27.34 402.23 27.06V26.93L405.64 26.6H405.71V28.15H405.82C406.13 27.59 406.54 27.15 407.05 26.83C407.56 26.51 408.13 26.35 408.76 26.35C409.39 26.35 410.01 26.51 410.53 26.83C411.05 27.15 411.45 27.62 411.74 28.24C412.03 28.86 412.17 29.6 412.17 30.48V34.71C412.17 35.29 412.2 35.74 412.27 36.08C412.34 36.42 412.45 36.74 412.61 37.05V37.16H408.82V37.05C409 36.77 409.11 36.46 409.17 36.13C409.23 35.8 409.26 35.32 409.26 34.7V30.58C409.26 30.11 409.2 29.71 409.07 29.38C408.94 29.06 408.76 28.81 408.53 28.65C408.29 28.49 408.01 28.41 407.69 28.41C407.37 28.41 407.05 28.51 406.74 28.7C406.43 28.89 406.18 29.19 405.99 29.59C405.8 29.99 405.7 30.48 405.7 31.07V34.7C405.7 35.32 405.73 35.8 405.79 36.13C405.85 36.46 405.97 36.77 406.14 37.05V37.16H402.33V37.05C402.51 36.76 402.63 36.44 402.69 36.1C402.76 35.76 402.79 35.3 402.79 34.71V29.53L402.8 29.51Z" fill="white"/>
<path d="M419.17 37.45C418.55 37.45 417.99 37.32 417.49 37.07C416.99 36.82 416.59 36.43 416.29 35.91C415.99 35.39 415.85 34.74 415.85 33.97V28.5H413.73V26.75C414.48 26.74 415.04 26.65 415.39 26.5C415.74 26.35 416 26.07 416.14 25.67C416.29 25.27 416.38 24.65 416.41 23.81H418.71V26.64H421.68V28.5H418.71V33.86C418.71 34.41 418.84 34.81 419.1 35.07C419.36 35.33 419.72 35.46 420.17 35.46C420.62 35.46 421.1 35.36 421.54 35.15L421.81 36.52C421.44 36.82 421.04 37.04 420.6 37.21C420.16 37.37 419.69 37.45 419.17 37.45Z" fill="white"/>
<path d="M428.31 37.45C427.25 37.45 426.29 37.22 425.44 36.76C424.59 36.3 423.93 35.65 423.45 34.79C422.97 33.93 422.73 32.94 422.73 31.8C422.73 30.8 422.95 29.87 423.4 29.03C423.85 28.19 424.46 27.53 425.24 27.05C426.01 26.57 426.87 26.33 427.82 26.33C428.69 26.33 429.45 26.51 430.1 26.86C430.75 27.21 431.25 27.73 431.62 28.41C431.99 29.09 432.16 29.9 432.16 30.84V31.77H424.64V30.24H430.86L429.42 30.57C429.42 30.01 429.35 29.53 429.22 29.14C429.09 28.75 428.88 28.45 428.61 28.25C428.34 28.05 428.01 27.95 427.62 27.95C427.23 27.95 426.89 28.07 426.57 28.3C426.25 28.54 426 28.89 425.81 29.37C425.62 29.85 425.52 30.43 425.52 31.11C425.52 32.04 425.68 32.81 426 33.41C426.32 34.02 426.74 34.46 427.28 34.74C427.82 35.02 428.43 35.16 429.13 35.16C429.62 35.16 430.1 35.09 430.58 34.94C431.06 34.79 431.52 34.57 431.96 34.28L432.29 35.65C431.76 36.23 431.15 36.66 430.46 36.97C429.77 37.27 429.05 37.42 428.3 37.42L428.31 37.45Z" fill="white"/>
<path d="M434.67 29.53C434.67 28.88 434.63 28.37 434.56 28C434.49 27.63 434.34 27.31 434.12 27.05V26.92L437.48 26.59H437.57V29.42H437.68C437.93 28.43 438.31 27.67 438.81 27.14C439.31 26.61 439.95 26.34 440.73 26.34C441.01 26.34 441.27 26.36 441.51 26.41V29.38C441.2 29.28 440.84 29.23 440.43 29.23C439.93 29.23 439.46 29.35 439.04 29.58C438.61 29.82 438.26 30.21 437.99 30.75C437.72 31.3 437.58 32 437.58 32.85V34.62C437.58 35.25 437.62 35.74 437.69 36.08C437.76 36.42 437.91 36.74 438.13 37.03V37.14H434.23V37.03C434.39 36.72 434.51 36.4 434.57 36.06C434.64 35.72 434.67 35.24 434.67 34.62V29.53Z" fill="white"/>
<path d="M447.46 29.37C447.19 28.69 446.97 28.17 446.79 27.82C446.61 27.47 446.37 27.11 446.09 26.76V26.65H450.23V26.76C450.1 27.1 450.05 27.47 450.1 27.86C450.14 28.25 450.27 28.73 450.48 29.29L452.1 33.61H453.21L450.95 38.06L447.48 29.38L447.46 29.37ZM448.12 41.88C447.46 41.88 446.87 41.73 446.35 41.44V39.18C446.87 39.4 447.42 39.51 448.01 39.51C448.64 39.51 449.18 39.37 449.63 39.09C450.07 38.81 450.43 38.32 450.69 37.63L453.81 29.33C454.02 28.75 454.14 28.25 454.19 27.83C454.23 27.4 454.18 27.05 454.01 26.77V26.66H457.35V26.77C457.07 27.04 456.83 27.36 456.62 27.75C456.41 28.14 456.18 28.68 455.91 29.38L452.41 38.41C451.91 39.72 451.3 40.63 450.58 41.13C449.86 41.63 449.04 41.88 448.11 41.88H448.12Z" fill="white"/>
<path d="M463.35 37.45C462.3 37.45 461.36 37.21 460.52 36.74C459.68 36.27 459.02 35.61 458.55 34.76C458.08 33.91 457.84 32.95 457.84 31.87C457.84 30.79 458.08 29.86 458.55 29.02C459.02 28.18 459.68 27.52 460.52 27.05C461.36 26.58 462.31 26.34 463.35 26.34C464.39 26.34 465.34 26.58 466.17 27.05C467 27.52 467.66 28.18 468.14 29.02C468.62 29.86 468.86 30.81 468.86 31.87C468.86 32.93 468.62 33.91 468.14 34.76C467.66 35.61 467 36.27 466.17 36.74C465.34 37.21 464.4 37.45 463.35 37.45ZM463.35 35.57C463.85 35.57 464.29 35.42 464.66 35.13C465.03 34.84 465.31 34.41 465.51 33.86C465.71 33.31 465.81 32.65 465.81 31.88C465.81 31.11 465.71 30.46 465.51 29.91C465.31 29.36 465.03 28.95 464.66 28.66C464.29 28.37 463.86 28.23 463.35 28.23C462.84 28.23 462.41 28.37 462.04 28.66C461.67 28.95 461.39 29.36 461.19 29.91C460.99 30.46 460.89 31.11 460.89 31.88C460.89 32.65 460.99 33.31 461.19 33.86C461.39 34.41 461.67 34.84 462.04 35.13C462.41 35.43 462.84 35.57 463.35 35.57Z" fill="white"/>
<path d="M474.24 37.45C473.62 37.45 473.07 37.29 472.58 36.99C472.09 36.68 471.71 36.22 471.43 35.61C471.15 35 471.01 34.26 471.01 33.39V29.3C471.01 28.67 470.97 28.16 470.9 27.8C470.83 27.43 470.7 27.09 470.52 26.78V26.67H473.91V33.62C473.91 34.23 474.04 34.67 474.29 34.96C474.54 35.25 474.88 35.39 475.31 35.39C475.64 35.39 475.95 35.28 476.25 35.07C476.55 34.86 476.79 34.53 476.98 34.1C477.16 33.66 477.26 33.14 477.26 32.52V29.31C477.26 28.68 477.22 28.17 477.15 27.81C477.08 27.44 476.95 27.1 476.77 26.79V26.68H480.16V34.4C480.16 34.95 480.2 35.4 480.27 35.75C480.34 36.1 480.46 36.43 480.62 36.72V36.85L477.34 37.2H477.27V35.61H477.14C476.85 36.19 476.45 36.64 475.96 36.97C475.47 37.3 474.89 37.47 474.24 37.47V37.45Z" fill="white"/>
<path d="M483.34 29.53C483.34 28.88 483.3 28.37 483.23 28C483.16 27.63 483.01 27.31 482.79 27.05V26.92L486.15 26.59H486.24V29.42H486.35C486.6 28.43 486.98 27.67 487.48 27.14C487.98 26.61 488.62 26.34 489.4 26.34C489.68 26.34 489.94 26.36 490.18 26.41V29.38C489.87 29.28 489.51 29.23 489.1 29.23C488.6 29.23 488.13 29.35 487.71 29.58C487.28 29.82 486.93 30.21 486.66 30.75C486.39 31.3 486.25 32 486.25 32.85V34.62C486.25 35.25 486.29 35.74 486.36 36.08C486.43 36.42 486.58 36.74 486.8 37.03V37.14H482.9V37.03C483.06 36.72 483.18 36.4 483.24 36.06C483.31 35.72 483.34 35.24 483.34 34.62V29.53Z" fill="white"/>
<path d="M496.75 29.51C496.75 28.9 496.71 28.41 496.62 28.04C496.53 27.66 496.38 27.34 496.18 27.06V26.93L499.59 26.6H499.66V28.15H499.77C500.08 27.59 500.49 27.15 501 26.83C501.51 26.51 502.08 26.35 502.71 26.35C503.34 26.35 503.96 26.51 504.48 26.83C505 27.15 505.4 27.62 505.69 28.24C505.98 28.86 506.12 29.6 506.12 30.48V34.71C506.12 35.29 506.15 35.74 506.22 36.08C506.29 36.42 506.4 36.74 506.56 37.05V37.16H502.77V37.05C502.95 36.77 503.06 36.46 503.12 36.13C503.18 35.8 503.21 35.32 503.21 34.7V30.58C503.21 30.11 503.15 29.71 503.02 29.38C502.89 29.06 502.71 28.81 502.48 28.65C502.24 28.49 501.96 28.41 501.64 28.41C501.32 28.41 501 28.51 500.69 28.7C500.38 28.89 500.13 29.19 499.94 29.59C499.75 29.99 499.65 30.48 499.65 31.07V34.7C499.65 35.32 499.68 35.8 499.74 36.13C499.8 36.46 499.92 36.77 500.09 37.05V37.16H496.28V37.05C496.46 36.76 496.58 36.44 496.64 36.1C496.71 35.76 496.74 35.3 496.74 34.71V29.53L496.75 29.51Z" fill="white"/>
<path d="M511.14 37.45C510.34 37.45 509.67 37.2 509.13 36.69C508.58 36.18 508.31 35.51 508.31 34.69C508.31 33.8 508.65 33.13 509.34 32.65C510.03 32.18 511.01 31.78 512.3 31.46L514.69 30.86L514.78 32.21L512.94 32.81C512.54 32.94 512.22 33.08 511.97 33.21C511.72 33.34 511.53 33.5 511.39 33.67C511.26 33.85 511.19 34.06 511.19 34.31C511.19 34.66 511.29 34.94 511.5 35.14C511.71 35.34 511.96 35.44 512.25 35.44C512.54 35.44 512.84 35.35 513.13 35.17C513.42 34.99 513.67 34.72 513.86 34.34C514.05 33.96 514.15 33.5 514.15 32.96V30.35C514.15 29.7 513.92 29.21 513.48 28.89C513.03 28.57 512.49 28.4 511.87 28.4C510.96 28.4 509.97 28.71 508.93 29.33L508.62 27.87C509.18 27.43 509.82 27.06 510.52 26.77C511.23 26.48 511.94 26.34 512.67 26.34C513.4 26.34 514.12 26.47 514.76 26.72C515.4 26.97 515.93 27.41 516.35 28.03C516.77 28.65 516.98 29.48 516.98 30.51V34.83C516.98 35.12 517.03 35.34 517.14 35.47C517.24 35.6 517.41 35.67 517.63 35.67C517.85 35.67 518.07 35.62 518.27 35.52L518.47 36.8C518.13 37.02 517.8 37.18 517.46 37.29C517.13 37.39 516.78 37.44 516.41 37.44C515.78 37.44 515.25 37.27 514.83 36.92C514.41 36.57 514.18 36.14 514.16 35.63H514.05C513.75 36.22 513.35 36.67 512.84 36.99C512.33 37.31 511.77 37.47 511.15 37.47L511.14 37.45Z" fill="white"/>
<path d="M520.32 29.55C520.32 28.92 520.28 28.41 520.2 28.05C520.12 27.68 519.97 27.35 519.75 27.05V26.92L523.14 26.59H523.21V28.12H523.34C523.65 27.54 524.06 27.11 524.57 26.8C525.08 26.5 525.65 26.35 526.28 26.35C526.91 26.35 527.46 26.52 527.95 26.87C528.44 27.22 528.82 27.71 529.07 28.36H529.2C529.52 27.73 529.95 27.23 530.47 26.88C530.99 26.53 531.62 26.35 532.34 26.35C532.99 26.35 533.56 26.51 534.07 26.83C534.57 27.15 534.96 27.6 535.24 28.2C535.52 28.8 535.66 29.5 535.66 30.31V34.6C535.66 35.23 535.69 35.72 535.76 36.06C535.83 36.4 535.95 36.72 536.13 37.03V37.14H532.32V37.03C532.51 36.74 532.64 36.42 532.7 36.09C532.76 35.76 532.79 35.26 532.79 34.6V30.46C532.79 29.77 532.67 29.25 532.41 28.91C532.16 28.57 531.8 28.4 531.35 28.4C530.98 28.4 530.65 28.5 530.37 28.7C530.08 28.9 529.86 29.19 529.69 29.56C529.53 29.94 529.45 30.39 529.45 30.92V34.59C529.45 35.27 529.48 35.77 529.54 36.1C529.6 36.42 529.72 36.73 529.92 37.03V37.14H526.11V37.03C526.29 36.72 526.41 36.4 526.48 36.07C526.55 35.74 526.58 35.27 526.58 34.66V30.41C526.58 29.76 526.46 29.26 526.23 28.92C525.99 28.57 525.65 28.4 525.19 28.4C524.85 28.4 524.53 28.5 524.23 28.71C523.93 28.92 523.68 29.22 523.5 29.62C523.32 30.02 523.22 30.48 523.22 30.99V34.6C523.22 35.25 523.25 35.74 523.31 36.07C523.37 36.4 523.49 36.72 523.69 37.03V37.14H519.88V37.03C520.07 36.72 520.2 36.4 520.26 36.07C520.32 35.74 520.35 35.25 520.35 34.6V29.55H520.32Z" fill="white"/>
<path d="M543.43 37.45C542.37 37.45 541.41 37.22 540.56 36.76C539.71 36.3 539.05 35.65 538.57 34.79C538.09 33.93 537.85 32.94 537.85 31.8C537.85 30.8 538.07 29.87 538.52 29.03C538.97 28.19 539.58 27.53 540.36 27.05C541.14 26.57 541.99 26.33 542.94 26.33C543.81 26.33 544.57 26.51 545.22 26.86C545.87 27.21 546.37 27.73 546.74 28.41C547.11 29.09 547.28 29.9 547.28 30.84V31.77H539.76V30.24H545.98L544.54 30.57C544.54 30.01 544.47 29.53 544.34 29.14C544.21 28.75 544 28.45 543.73 28.25C543.46 28.05 543.13 27.95 542.74 27.95C542.35 27.95 542.01 28.07 541.69 28.3C541.37 28.54 541.12 28.89 540.93 29.37C540.74 29.85 540.64 30.43 540.64 31.11C540.64 32.04 540.8 32.81 541.12 33.41C541.44 34.02 541.86 34.46 542.4 34.74C542.94 35.02 543.55 35.16 544.25 35.16C544.74 35.16 545.22 35.09 545.7 34.94C546.18 34.79 546.64 34.57 547.08 34.28L547.41 35.65C546.88 36.23 546.27 36.66 545.58 36.97C544.89 37.27 544.17 37.42 543.42 37.42L543.43 37.45Z" fill="white"/>
</svg>
