<svg width="193" height="62" viewBox="0 0 193 62" fill="none" xmlns="http://www.w3.org/2000/svg">
<g clip-path="url(#clip0_1693_635)">
<path d="M192.32 0H0.5V62H192.32V0Z" fill="#D3942B"/>
<path d="M31.0401 33.3403H28.9301V36.5503C28.9301 37.5803 29.0001 38.4103 29.1301 39.0303C29.2601 39.6503 29.5101 40.1903 29.8901 40.6603V40.8003H24.1201V40.6603C24.4401 40.1903 24.6601 39.6503 24.7801 39.0303C24.9001 38.4103 24.9601 37.6003 24.9601 36.6103V25.3603C24.9601 24.4203 24.9001 23.6403 24.7801 23.0303C24.6601 22.4103 24.4401 21.8703 24.1201 21.4003V21.2603H31.0401C32.5401 21.2603 33.8801 21.4903 35.0601 21.9503C36.2401 22.4103 37.1701 23.0903 37.8301 23.9903C38.5001 24.8903 38.8301 25.9903 38.8301 27.2803C38.8301 28.5703 38.4901 29.6503 37.8201 30.5603C37.1401 31.4703 36.2201 32.1603 35.0501 32.6403C33.8801 33.1203 32.5401 33.3603 31.0401 33.3603V33.3403ZM28.9301 23.7203V30.8703H30.7901C32.0501 30.8703 33.0201 30.5703 33.7001 29.9603C34.3801 29.3503 34.7301 28.4503 34.7301 27.2703C34.7301 26.0903 34.3901 25.2003 33.7001 24.6103C33.0101 24.0203 32.0401 23.7203 30.7901 23.7203H28.9301Z" fill="#252F54"/>
<path d="M41.3104 31.1203C41.3104 30.2903 41.2603 29.6503 41.1703 29.1803C41.0803 28.7103 40.8904 28.3103 40.6104 27.9703V27.8003L44.8904 27.3803H45.0004V30.9803H45.1404C45.4604 29.7203 45.9404 28.7603 46.5704 28.0803C47.2004 27.4003 48.0204 27.0703 49.0204 27.0703C49.3804 27.0703 49.7004 27.1003 50.0004 27.1503V30.9203C49.6104 30.7903 49.1503 30.7203 48.6203 30.7203C47.9803 30.7203 47.3903 30.8703 46.8503 31.1703C46.3103 31.4703 45.8603 31.9703 45.5103 32.6603C45.1603 33.3503 44.9904 34.2403 44.9904 35.3303V37.5803C44.9904 38.3903 45.0404 39.0103 45.1304 39.4403C45.2204 39.8703 45.4103 40.2703 45.6903 40.6503V40.7903H40.7404V40.6503C40.9504 40.2603 41.0904 39.8403 41.1804 39.4103C41.2604 38.9803 41.3104 38.3703 41.3104 37.5803V31.1103V31.1203Z" fill="#252F54"/>
<path d="M56.16 37.5302C56.16 38.3902 56.2 39.0402 56.27 39.4602C56.34 39.8802 56.5 40.2802 56.72 40.6602V40.8002H51.91V40.6602C52.14 40.2702 52.29 39.8502 52.37 39.4202C52.45 38.9902 52.5 38.3602 52.5 37.5302V30.9202C52.5 30.2302 52.44 29.6502 52.33 29.2002C52.22 28.7502 52.03 28.3402 51.77 27.9602V27.7902L56.07 27.3702H56.15V37.5302H56.16ZM54.42 25.4102C53.78 25.4102 53.24 25.1902 52.8 24.7502C52.36 24.3102 52.14 23.7702 52.14 23.1302C52.14 22.5302 52.36 22.0102 52.8 21.5702C53.24 21.1302 53.78 20.9102 54.42 20.9102C55.02 20.9102 55.54 21.1302 55.98 21.5702C56.42 22.0102 56.64 22.5302 56.64 23.1302C56.64 23.7702 56.42 24.3102 55.98 24.7502C55.54 25.1902 55.02 25.4102 54.42 25.4102Z" fill="#252F54"/>
<path d="M60.1499 31.0903C60.1499 30.3203 60.0899 29.7003 59.9799 29.2203C59.8699 28.7403 59.6799 28.3203 59.4199 27.9703V27.8003L63.7499 27.3803H63.8299V29.3503H63.9699C64.3599 28.6403 64.8799 28.0803 65.5299 27.6803C66.1799 27.2803 66.8999 27.0703 67.7099 27.0703C68.5199 27.0703 69.2999 27.2703 69.9599 27.6803C70.6199 28.0803 71.1299 28.6803 71.4899 29.4703C71.8599 30.2603 72.0399 31.2103 72.0399 32.3103V37.6803C72.0399 38.4103 72.0799 38.9903 72.1699 39.4203C72.2499 39.8503 72.3999 40.2603 72.6099 40.6603V40.8003H67.7999V40.6603C68.0299 40.3003 68.1699 39.9103 68.2499 39.4903C68.3199 39.0703 68.3599 38.4603 68.3599 37.6803V32.4503C68.3599 31.8503 68.2799 31.3403 68.1199 30.9303C67.9599 30.5203 67.7299 30.2103 67.4299 30.0003C67.1299 29.7903 66.7699 29.6903 66.3599 29.6903C65.9499 29.6903 65.5399 29.8103 65.1499 30.0603C64.7599 30.3003 64.4399 30.6803 64.1899 31.1903C63.9499 31.7003 63.8199 32.3303 63.8199 33.0703V37.6803C63.8199 38.4703 63.8599 39.0703 63.9299 39.4903C63.9999 39.9103 64.1599 40.3003 64.3799 40.6603V40.8003H59.5399V40.6603C59.7699 40.2803 59.9199 39.8803 59.9999 39.4503C60.0799 39.0203 60.1299 38.4303 60.1299 37.6803V31.1003L60.1499 31.0903Z" fill="#252F54"/>
<path d="M80.9703 41.1903C80.1803 41.1903 79.4703 41.0304 78.8303 40.7104C78.1903 40.3904 77.6903 39.9004 77.3103 39.2304C76.9303 38.5604 76.7503 37.7404 76.7503 36.7704V29.8204H74.0503V27.6004C75.0103 27.5804 75.7103 27.4704 76.1603 27.2804C76.6103 27.0804 76.9303 26.7304 77.1203 26.2204C77.3103 25.7104 77.4203 24.9304 77.4603 23.8604H80.3903V27.4604H84.1603V29.8204H80.3903V36.6304C80.3903 37.3204 80.5503 37.8304 80.8803 38.1604C81.2103 38.4904 81.6603 38.6504 82.2403 38.6504C82.8203 38.6504 83.4203 38.5203 83.9803 38.2603L84.3203 40.0004C83.8503 40.3804 83.3403 40.6703 82.7903 40.8703C82.2403 41.0803 81.6303 41.1804 80.9803 41.1804L80.9703 41.1903Z" fill="#252F54"/>
<path d="M96.0199 40.6603C96.3899 40.1903 96.6499 39.6503 96.7899 39.0403C96.9299 38.4303 96.9999 37.5903 96.9999 36.5203V23.7803H95.2299C94.0299 23.7803 93.0799 23.9003 92.3899 24.1503C91.6999 24.3903 91.1799 24.7703 90.8399 25.2803H90.6699V21.2603H107.3V25.2803H107.13C106.79 24.7703 106.28 24.4003 105.58 24.1503C104.89 23.9103 103.94 23.7803 102.74 23.7803H100.97V36.5203C100.97 37.5903 101.04 38.4303 101.18 39.0403C101.32 39.6503 101.58 40.1903 101.95 40.6603V40.8003H96.0099V40.6603H96.0199Z" fill="#252F54"/>
<path d="M113.3 37.5302C113.3 38.3902 113.34 39.0402 113.41 39.4602C113.48 39.8802 113.63 40.2802 113.86 40.6602V40.8002H109.05V40.6602C109.28 40.2702 109.43 39.8502 109.51 39.4202C109.59 38.9902 109.64 38.3602 109.64 37.5302V30.9202C109.64 30.2302 109.58 29.6502 109.47 29.2002C109.36 28.7502 109.17 28.3402 108.91 27.9602V27.7902L113.21 27.3702H113.29V37.5302H113.3ZM111.55 25.4102C110.91 25.4102 110.37 25.1902 109.93 24.7502C109.49 24.3102 109.27 23.7702 109.27 23.1302C109.27 22.5302 109.49 22.0102 109.93 21.5702C110.37 21.1302 110.91 20.9102 111.55 20.9102C112.15 20.9102 112.67 21.1302 113.11 21.5702C113.55 22.0102 113.77 22.5302 113.77 23.1302C113.77 23.7702 113.55 24.3102 113.11 24.7502C112.67 25.1902 112.15 25.4102 111.55 25.4102Z" fill="#252F54"/>
<path d="M123.26 41.1901C121.85 41.1901 120.62 40.8801 119.55 40.2801C118.48 39.6701 117.65 38.8401 117.06 37.7801C116.47 36.7201 116.17 35.5201 116.17 34.1601C116.17 32.8001 116.48 31.6001 117.11 30.5201C117.74 29.4401 118.62 28.6001 119.75 27.9901C120.88 27.3801 122.17 27.0801 123.59 27.0801C124.3 27.0801 124.96 27.1601 125.57 27.3101C126.18 27.4601 126.74 27.6701 127.24 27.9301V31.0201H127.07C126.75 30.5301 126.31 30.1401 125.76 29.8401C125.21 29.5401 124.62 29.3901 124 29.3901C123.19 29.3901 122.48 29.5601 121.86 29.9101C121.24 30.2601 120.76 30.7601 120.43 31.4201C120.09 32.0801 119.92 32.8501 119.92 33.7501C119.92 34.6501 120.1 35.5001 120.45 36.2001C120.81 36.8901 121.32 37.4201 121.98 37.7901C122.65 38.1601 123.43 38.3401 124.33 38.3401C124.93 38.3401 125.51 38.2501 126.07 38.0701C126.63 37.8901 127.17 37.6401 127.67 37.3201L128.09 39.0401C127.43 39.7701 126.7 40.3201 125.9 40.6701C125.09 41.0301 124.2 41.2001 123.23 41.2001L123.26 41.1901Z" fill="#252F54"/>
<path d="M130.04 40.6602C130.27 40.3002 130.41 39.8902 130.49 39.4102C130.56 38.9302 130.6 38.2502 130.6 37.3702V24.5402C130.6 23.7202 130.55 23.0802 130.46 22.6402C130.37 22.2002 130.18 21.7602 129.9 21.3302V21.1602L134.15 20.7402H134.23V37.3702C134.23 38.2302 134.27 38.9002 134.36 39.3802C134.44 39.8602 134.61 40.2902 134.85 40.6602V40.8002H130.04V40.6602ZM133.72 36.9402L133.33 33.2002H134.37L137.52 29.9702C138.04 29.4302 138.39 28.9902 138.56 28.6502C138.73 28.3102 138.81 27.9702 138.81 27.6102V27.4702H143.79V27.6102C143.21 27.9902 142.67 28.3802 142.16 28.8102C141.65 29.2302 141.01 29.8302 140.22 30.6002L133.72 36.9602V36.9402ZM140.05 40.8002L134.9 33.7102L137.83 31.8002L144.58 40.7202V40.8002H140.05Z" fill="#252F54"/>
<path d="M151.64 41.1903C150.29 41.1903 149.08 40.9003 148 40.3203C146.92 39.7403 146.08 38.9003 145.47 37.8203C144.86 36.7303 144.56 35.4703 144.56 34.0203C144.56 32.7503 144.85 31.5703 145.42 30.5003C145.99 29.4303 146.77 28.5903 147.75 27.9803C148.73 27.3703 149.83 27.0703 151.03 27.0703C152.14 27.0703 153.1 27.3003 153.93 27.7503C154.76 28.2003 155.4 28.8603 155.86 29.7203C156.32 30.5803 156.55 31.6103 156.55 32.8103V33.9903H146.98V32.0503H154.89L153.06 32.4703C153.06 31.7603 152.98 31.1503 152.81 30.6603C152.64 30.1603 152.38 29.7903 152.04 29.5303C151.69 29.2803 151.28 29.1503 150.79 29.1503C150.3 29.1503 149.86 29.3003 149.45 29.6003C149.04 29.9003 148.72 30.3503 148.48 30.9603C148.24 31.5703 148.11 32.3103 148.11 33.1703C148.11 34.3503 148.31 35.3303 148.71 36.1003C149.11 36.8703 149.66 37.4303 150.34 37.7903C151.02 38.1503 151.81 38.3203 152.69 38.3203C153.31 38.3203 153.92 38.2303 154.53 38.0403C155.14 37.8503 155.73 37.5703 156.29 37.2003L156.71 38.9403C156.04 39.6703 155.26 40.2303 154.39 40.6103C153.52 40.9903 152.6 41.1903 151.65 41.1903H151.64Z" fill="#252F54"/>
<path d="M164.7 41.1903C163.91 41.1903 163.2 41.0304 162.56 40.7104C161.92 40.3904 161.42 39.9004 161.04 39.2304C160.66 38.5604 160.48 37.7404 160.48 36.7704V29.8204H157.78V27.6004C158.74 27.5804 159.44 27.4704 159.89 27.2804C160.34 27.0804 160.66 26.7304 160.85 26.2204C161.04 25.7104 161.15 24.9304 161.19 23.8604H164.12V27.4604H167.89V29.8204H164.12V36.6304C164.12 37.3204 164.28 37.8304 164.61 38.1604C164.94 38.4904 165.39 38.6504 165.97 38.6504C166.55 38.6504 167.15 38.5203 167.71 38.2603L168.05 40.0004C167.58 40.3804 167.07 40.6703 166.52 40.8703C165.97 41.0803 165.36 41.1804 164.71 41.1804L164.7 41.1903Z" fill="#252F54"/>
</g>
<defs>
<clipPath id="clip0_1693_635">
<rect width="191.82" height="62" fill="white" transform="translate(0.5)"/>
</clipPath>
</defs>
</svg>
