<svg width="24" height="24" viewBox="0 0 24 24" fill="none" xmlns="http://www.w3.org/2000/svg">
<path d="M12 18.25C10.022 16.632 8.52733 15.0417 7.516 13.479C6.50467 11.9163 5.99933 10.4287 6 9.016C6 7.25267 6.56 5.80933 7.68 4.686C8.80133 3.562 10.2413 3 12 3C13.7587 3 15.1987 3.562 16.32 4.686C17.44 5.80867 18 7.252 18 9.016C18 10.4287 17.4947 11.913 16.484 13.469C15.4733 15.025 13.9787 16.6187 12 18.25ZM12.004 10.616C12.4487 10.616 12.8287 10.4573 13.144 10.14C13.4593 9.82267 13.6167 9.44167 13.616 8.997C13.6153 8.55233 13.4567 8.17233 13.14 7.857C12.8233 7.54167 12.4423 7.38433 11.997 7.385C11.5517 7.38567 11.1717 7.544 10.857 7.86C10.5423 8.176 10.385 8.55733 10.385 9.004C10.385 9.45067 10.5433 9.83067 10.86 10.144C11.1767 10.4573 11.558 10.6147 12.004 10.616ZM6 21V20H18V21H6Z" fill="#DDDDDD"/>
</svg>
