<svg width="448" height="39" viewBox="0 0 448 39" fill="none" xmlns="http://www.w3.org/2000/svg">
<path d="M4.70559 24.5515C5.01007 31.3882 9.71566 34.9035 16.0267 34.9035C21.618 34.9035 25.1334 32.5231 25.1334 28.3989C25.1334 24.939 22.8636 23.2782 17.992 22.3371L10.5461 20.8978C5.01007 19.846 1.19024 16.8566 1.19024 11.0163C1.19024 4.45635 6.36639 0 14.5873 0C23.9985 0 29.4238 5.00994 29.4791 13.4521L24.7736 13.7012C24.6075 7.50106 20.843 3.98581 14.6427 3.98581C9.21742 3.98581 6.17263 6.55997 6.17263 10.7119C6.17263 14.3932 8.60846 15.5834 12.9542 16.4414L19.7358 17.7424C26.5728 19.0433 30.0327 22.0326 30.0327 28.039C30.0327 34.9588 24.0816 38.9446 15.9713 38.9446C6.72623 38.9446 0 33.8793 0 24.8282L4.65023 24.5238L4.70559 24.5515Z" fill="white"/>
<path d="M40.9386 38.2527H35.8179V0.719659H49.4641C58.7645 0.719659 64.0514 5.12065 64.0514 12.4556C64.0514 19.7906 58.7369 24.247 49.4641 24.247H40.9386V38.2527ZM49.3257 20.0121C55.8858 20.0121 59.0413 17.3272 59.0413 12.4556C59.0413 7.5841 55.8858 4.95458 49.3257 4.95458H40.9386V20.0121H49.3257Z" fill="white"/>
<path d="M83.7318 0.719659L99.3433 38.2527H93.8627L89.3509 27.2363H72.2447L67.8436 38.2527H62.7781L78.0575 0.719659H83.7318ZM87.6624 23.1121L80.7978 6.42158H80.5487L73.8224 23.1121H87.6624Z" fill="white"/>
<path d="M118.609 0C129.321 0 135.41 6.61533 136.13 16.2477L131.12 16.4968C130.705 9.57701 126.359 4.40099 118.609 4.40099C110.858 4.40099 105.516 10.2413 105.516 19.4862C105.516 28.731 110.997 34.5436 118.609 34.5436C126.221 34.5436 130.705 29.3676 131.12 22.4478L136.13 22.6969C135.41 32.357 129.348 38.9723 118.609 38.9723C107.869 38.9723 100.201 31.0561 100.201 19.4862C100.201 7.91625 108.256 0 118.609 0Z" fill="white"/>
<path d="M168.349 38.2527H141.611V0.719659H167.824V5.00994H146.621V16.8013H163.478V21.0362H146.621V33.9624H168.349V38.2527Z" fill="white"/>
<path d="M190.134 38.2527H185.013V0.719659H198.659C207.959 0.719659 213.246 5.12065 213.246 12.4556C213.246 19.7906 207.932 24.247 198.659 24.247H190.134V38.2527ZM198.548 20.0121C205.108 20.0121 208.264 17.3272 208.264 12.4556C208.264 7.5841 205.108 4.95458 198.548 4.95458H190.134V20.0121H198.548Z" fill="white"/>
<path d="M223.322 0.719659V33.9624H244.22V38.2527H218.118V0.719659H223.322Z" fill="white"/>
<path d="M267.416 0.719659L283.027 38.2527H277.547L273.035 27.2363H255.929L251.528 38.2527H246.462L261.769 0.719659H267.416ZM257.534 23.1121H271.347L264.51 6.42158H264.26L257.534 23.1121Z" fill="white"/>
<path d="M313.309 29.423V0.719659H318.126V38.2527H314.029L292.217 8.11001V38.2527H287.401V0.719659H292.771L313.309 29.423Z" fill="white"/>
<path d="M351.342 29.423V0.719659H356.158V38.2527H352.061L330.249 8.11001V38.2527H325.433V0.719659H330.803L351.342 29.423Z" fill="white"/>
<path d="M368.642 0.719659V38.2527H363.465V0.719659H368.642Z" fill="white"/>
<path d="M401.83 29.423V0.719659H406.646V38.2527H402.55L380.738 8.11001V38.2527H375.921V0.719659H381.291L401.83 29.423Z" fill="white"/>
<path d="M412.21 19.4862C412.21 7.94393 420.182 0 430.562 0C440.942 0 447.308 5.89567 447.945 15.5004L442.99 15.8048C442.575 8.94038 438.174 4.42867 430.589 4.42867C423.005 4.42867 417.497 10.269 417.497 19.5692C417.497 28.8694 422.977 34.6544 431.088 34.6544C438.118 34.6544 442.658 30.2534 443.294 23.8041H431.863V19.763H448V38.2803H443.294V31.6097C441.634 36.3705 436.319 39 430.479 39C419.877 39 412.182 31.1945 412.182 19.5138L412.21 19.4862Z" fill="white"/>
</svg>
