<?xml version="1.0" standalone="no"?>
<!DOCTYPE svg PUBLIC "-//W3C//DTD SVG 20010904//EN"
 "http://www.w3.org/TR/2001/REC-SVG-20010904/DTD/svg10.dtd">
<svg version="1.0" xmlns="http://www.w3.org/2000/svg"
 width="1025.000000pt" height="1025.000000pt" viewBox="0 0 1025.000000 1025.000000"
 preserveAspectRatio="xMidYMid meet">
<metadata>
Created by potrace 1.14, written by Peter Selinger 2001-2017
</metadata>
<g transform="translate(0.000000,1025.000000) scale(0.100000,-0.100000)"
fill="#000000" stroke="none">
<path d="M0 5120 l0 -5120 5120 0 5120 0 0 5120 0 5120 -5120 0 -5120 0 0
-5120z m5235 3220 c641 -42 1132 -167 1514 -385 490 -279 769 -696 857 -1280
25 -166 25 -537 0 -720 -41 -298 -143 -593 -283 -812 -295 -465 -832 -777
-1533 -891 -280 -46 -530 -62 -992 -62 l-318 0 0 -1270 0 -1270 -675 0 -675 0
0 3350 0 3350 973 0 c560 0 1040 -4 1132 -10z"/>
<path d="M4480 6269 l0 -1021 363 5 c386 5 471 13 655 62 383 102 621 326 696
654 43 191 40 413 -9 600 -90 339 -341 567 -734 667 -171 44 -296 54 -647 54
l-324 0 0 -1021z"/>
</g>
</svg>
