<?xml version="1.0" encoding="UTF-8"?>
<svg id="_레이어_2" data-name="레이어 2" xmlns="http://www.w3.org/2000/svg" viewBox="0 0 921.87 175.88">
  <defs>
    <style>
      .cls-1 {
        fill: #fff;
      }
    </style>
  </defs>
  <g id="_레이어_3" data-name="레이어 3">
    <g>
      <path class="cls-1" d="m171.45,75.99v30.09H0v-30.09h51.88v-11.19h48.02v11.19h71.55ZM6.94,39.15l106.84-1.35.39-4.82H9.26l-.39-29.31h155.06v14.66c0,16.97-2.12,38.38-4.05,53.61h-49.37c.77-4.05,1.35-11.19,1.93-15.04l-103.37,5.98-2.12-23.72Zm154.48,105.11c0,20.83-25.65,31.44-75.79,31.44s-75.6-10.61-75.6-31.44,25.46-31.44,75.41-31.44,75.99,10.61,75.99,31.44Zm-53.04,0c0-4.24-7.52-6.36-22.95-6.36s-22.56,2.12-22.56,6.36,7.52,6.17,22.56,6.17,22.95-1.93,22.95-6.17Z"/>
      <path class="cls-1" d="m365.66,65.19v41.46h-22.18v67.5h-48.41v-31.24c-28.54,4.05-66.34,6.75-90.64,6.94-8.1-.19-9.45-.96-9.45-11.96V7.33h47.44v100.09c13.69,0,35.87-2.12,52.65-5.79V0h48.41v65.19h22.18Z"/>
      <path class="cls-1" d="m548.3,90.45h-61.71v7.71h48.6l-1.35,43.39-88.13.77v5.59h92.57l1.74,26.23h-138.86c-8.1,0-9.45-.77-9.45-11.76v-35.49l91.61-.19v-6.56l-91.61.58-.77-22.56h47.83v-7.71h-61.91v-27.96h171.45v27.96Zm-13.11-34.91h-145.99V1.74h145.99v53.81Zm-48.41-20.64v-8.49h-49.76v8.49h49.76Z"/>
      <path class="cls-1" d="m564.12,60.56c27.96-2.31,47.44-11.19,55.74-20.25l-46.86.19V3.28h155.83v37.22l-52.84-.19c-1.54,3.47-3.47,6.94-5.79,10.22,9.06-1.54,18.51-2.31,27.19-2.31,16.78,2.31,33.17,11.76,33.17,23.72,0,8.68-7.52,14.85-21.79,15.62-9.45.39-19.67-1.35-26.23-4.05-10.03-3.47-20.63-9.64-30.47-14.27-14.66,10.8-34.33,18.32-57.09,21.21l-30.86-29.89Zm172.61,75.99h-59.4v38.96h-52.46v-38.96h-59.59v-42.04h171.45v42.04Z"/>
      <path class="cls-1" d="m921.87,0v103.37h-41.08v-30.47h-7.33v30.28h-34.33v-5.4c-21.79,2.89-46.09,4.82-75.79,4.82-8.1,0-9.26-.96-9.26-11.76V5.79h73.86v28.93h-32.98v7.14h32.4v24.3h-32.4v7.52c13.69,0,32.4-2.51,44.16-4.24V2.12h34.33v37.41h7.33V0h41.08Zm-148.69,144.26v-34.33h148.5v65.96h-48.41v-31.63h-100.09Z"/>
    </g>
  </g>
</svg>