<?xml version="1.0" encoding="UTF-8"?>
<svg id="_레이어_2" data-name="레이어 2" xmlns="http://www.w3.org/2000/svg" viewBox="0 0 1125 164.91">
  <defs>
    <style>
      .cls-1 {
        fill: #040204;
      }

      .cls-2 {
        fill: #fff;
      }
    </style>
  </defs>
  <g id="_레이어_1-2" data-name="레이어 1">
    <g>
      <rect class="cls-1" width="1125" height="164.91"/>
      <g>
        <path class="cls-2" d="m93.99,115.84c-2.35-5.39-7.3-14.87-11.82-21.64v7.74c.09,4.69.26,9.39.78,14.08h-26.69c.52-4.69.7-9.39.78-14.08v-36.51c-.09-4.7-.26-9.39-.78-14.08h26.69c-.52,4.69-.7,9.39-.78,14.08v7.13c5.13-6.69,10.34-15.82,12.43-21.04h26.6c-4.61,8.78-11.39,19.73-19.04,29.99,7.22,10.34,15.21,23.99,20.08,34.34h-28.25Z"/>
        <path class="cls-2" d="m126.06,83.59c0-22.17,11.13-33.29,32.77-33.29s32.77,11.13,32.77,33.29-11.21,33.47-32.77,33.47-32.77-11.13-32.77-33.47Zm39.47,0c0-9.39-1.3-14-6.69-14s-6.69,4.61-6.69,14,1.3,14.08,6.69,14.08,6.69-4.52,6.69-14.08Z"/>
        <path class="cls-2" d="m264.8,101.93c.09,4.69.26,9.39.78,14.08h-23.3l-16.86-30.16v16.08c.09,4.69.26,9.39.78,14.08h-25.99c.52-4.69.7-9.39.78-14.08v-36.51c-.09-4.7-.26-9.39-.78-14.08l23.21.09,16.95,28.17v-14.17c-.09-4.7-.26-9.39-.78-14.08h25.99c-.52,4.69-.7,9.39-.78,14.08v36.51Z"/>
        <path class="cls-2" d="m274.11,82.98c0-26.08,15.13-32.42,37.55-32.69,6-.09,11.74.78,18.69,1.83-.52,6.69-1.65,16.34-2.09,21.82-5.39-1.74-10.61-2.69-14.95-2.69-10.52,0-14.34,2.09-14.34,10.87,0,10,1.83,14.17,8.69,14.17h1.83v-5.3h-4.61v-14.26h28.08c-.43,4.69-.78,9.39-.78,14.08v19.82l.61,4.61c-9.65,1.3-18.25,1.91-26.17,1.82-17.91-.17-32.51-8-32.51-34.08Z"/>
        <path class="cls-2" d="m407.11,101.93c.09,4.69.26,9.39.78,14.08h-23.3l-16.86-30.16v16.08c.09,4.69.26,9.39.78,14.08h-25.99c.52-4.69.7-9.39.78-14.08v-36.51c-.09-4.7-.26-9.39-.78-14.08l23.21.09,16.95,28.17v-14.17c-.09-4.7-.26-9.39-.78-14.08h25.99c-.52,4.69-.7,9.39-.78,14.08v36.51Z"/>
        <path class="cls-2" d="m450.92,116.01c-.35-2.35-.87-5.13-1.39-8.17h-12.69c-.61,3.04-1.13,5.82-1.48,8.17h-21.91c5.22-21.56,10.34-43.12,16.17-64.67h30.43c5.65,21.56,11.21,43.12,16.43,64.67h-25.56Zm-4.35-23.99c-1.04-4.96-2.09-9.74-3.04-14h-.17c-1.04,4.26-2.17,9.04-3.3,14h6.52Z"/>
        <path class="cls-2" d="m536.63,116.01c-.35-12.43-1.13-28.16-1.65-37.55h-.17c-1.13,9.39-3.04,25.21-5.13,37.55h-23.12l-6.69-37.55h-.17c-.09,9.39-.35,25.99-.43,37.55h-20.17c2-21.56,3.82-43.12,5.82-64.67h30.86c1.48,10.34,2.78,21.47,4.26,34.16h.26c1.91-12.69,3.39-23.82,4.78-34.16h29.64c1.83,21.56,3.74,43.12,5.56,64.67h-23.65Z"/>
        <path class="cls-2" d="m568.54,65.42c-.09-4.7-.26-9.39-.78-14.08h26.77c-.52,4.69-.7,9.39-.78,14.08v20.43c0,6.87.96,9.39,5.04,9.39s5.13-2.52,5.13-9.39v-20.43c-.09-4.7-.26-9.39-.78-14.08h24.17c-.52,4.69-.7,9.39-.78,14.08v23.3c0,19.47-12.52,28.34-29.47,28.34-22.69,0-28.51-8.87-28.51-28.08v-23.56Z"/>
        <path class="cls-2" d="m685.54,116.01h-47.81c.52-4.69.7-9.39.78-14.08v-36.51c-.09-4.7-.26-9.39-.78-14.08h26.69c-.52,4.69-.7,9.39-.78,14.08v30.08c7.21-.26,16.43-1.22,21.91-2.52-.26,6.35-.17,17.04,0,23.04Z"/>
        <path class="cls-2" d="m704.06,94.1c1.74.7,5.22,1.3,7.91,1.3,5.13,0,6.52-2.43,6.52-6.69v-23.3c-.09-4.7-.26-9.39-.78-14.08h26.77c-.52,4.69-.7,9.39-.78,14.08v31.29c0,13.04-8.78,20.51-21.21,20.51-9.13,0-14.08-.43-18.78-1.3.35-7.3.43-14.61.35-21.82Z"/>
        <path class="cls-2" d="m755.69,65.42c-.09-4.7-.26-9.39-.78-14.08h26.77c-.52,4.69-.7,9.39-.78,14.08v20.43c0,6.87.96,9.39,5.04,9.39s5.13-2.52,5.13-9.39v-20.43c-.09-4.7-.26-9.39-.78-14.08h24.17c-.52,4.69-.7,9.39-.78,14.08v23.3c0,19.47-12.52,28.34-29.47,28.34-22.69,0-28.51-8.87-28.51-28.08v-23.56Z"/>
        <path class="cls-2" d="m820.46,51.34h53.29v23.47c-4.43-.26-9.04-.52-14-.7v27.64c.09,4.69.26,9.39.78,14.08h-26.77c.52-4.69.7-9.39.78-14.08v-27.64c-4.52.17-9.04.43-14.08.7v-23.47Z"/>
        <path class="cls-2" d="m912.51,116.01c-.35-2.35-.87-5.13-1.39-8.17h-12.69c-.61,3.04-1.13,5.82-1.48,8.17h-21.91c5.22-21.56,10.34-43.12,16.17-64.67h30.42c5.65,21.56,11.21,43.12,16.43,64.67h-25.56Zm-4.35-23.99c-1.04-4.96-2.09-9.74-3.04-14h-.17c-1.04,4.26-2.17,9.04-3.3,14h6.52Z"/>
        <path class="cls-2" d="m969.8,96.45c9.13-.17,18.43-.61,24.17-1.22v20.78h-50.16c.52-4.69.7-9.39.78-14.08v-36.51c-.09-4.7-.26-9.39-.78-14.08h49.55l-.78,19.39c-6.52-.44-15.04-.78-22.78-.96v6c7.13-.09,15.3-.26,19.73-.78v15.91c-4.43-.43-12.6-.78-19.73-.87v6.43Z"/>
        <path class="cls-2" d="m1039.17,115.84c-2.35-5.39-7.3-14.87-11.82-21.64v7.74c.09,4.69.26,9.39.78,14.08h-26.69c.52-4.69.7-9.39.78-14.08v-36.51c-.09-4.7-.26-9.39-.78-14.08h26.69c-.52,4.69-.7,9.39-.78,14.08v7.13c5.13-6.69,10.34-15.82,12.43-21.04h26.6c-4.61,8.78-11.39,19.73-19.04,29.99,7.21,10.34,15.21,23.99,20.08,34.34h-28.25Z"/>
      </g>
    </g>
  </g>
</svg>