<?xml version="1.0" encoding="UTF-8"?>
<svg id="_레이어_2" data-name="레이어 2" xmlns="http://www.w3.org/2000/svg" xmlns:xlink="http://www.w3.org/1999/xlink" viewBox="0 0 108 108">
  <defs>
    <style>
      .cls-1, .cls-2 {
        fill: none;
      }

      .cls-1, .cls-2, .cls-3 {
        stroke: #231815;
        stroke-miterlimit: 10;
      }

      .cls-1, .cls-3 {
        stroke-width: 3px;
      }

      .cls-4 {
        clip-path: url(#clippath);
      }

      .cls-5 {
        fill: #f6f3d6;
      }

      .cls-6, .cls-3 {
        fill: #fff;
      }

      .cls-7 {
        fill: #ffe765;
      }

      .cls-8 {
        fill: #231815;
      }

      .cls-2 {
        stroke-linecap: round;
        stroke-width: 2px;
      }
    </style>
    <clipPath id="clippath">
      <rect class="cls-3" x="1.5" y="1.5" width="105" height="105"/>
    </clipPath>
  </defs>
  <g id="_레이어_3" data-name="레이어 3">
    <g>
      <rect class="cls-6" x="1.5" y="1.5" width="105" height="105"/>
      <g class="cls-4">
        <g>
          <g>
            <path class="cls-5" d="m57.65,150.81c-1.19,0-2.03-.27-2.5-.82l-.27-.3.02-.4c.42-8.96.55-17.97.4-26.78-.02-.89-.16-1.79-.31-2.74-.15-.91-.3-1.85-.33-2.81-.11-3.07,0-6.17.1-9.16.14-4.29.29-8.72-.2-13.05v-.11c0-11.48-2.25-23.28-4.41-34.68-.4-2.08-.79-4.16-1.17-6.24l-.19-1.03,10.54-1.42.23.85c.97,3.56,1.81,7.3,2.5,11.11,3.58,19.64,3.29,39.57,3,58.83l-.04,2.48c-.06,4.12-.14,8.24-.22,12.36-.02,1.1-.11,2.74-.2,4.48-.11,2.08-.22,4.23-.22,5.53,0,.14.02.33.04.55l.04.34-.18.29c-1.17,1.86-4.64,2.73-6.62,2.73h0Z"/>
            <path class="cls-8" d="m58.57,52.37c.99,3.65,1.81,7.33,2.49,11.03,3.71,20.38,3.24,40.75,2.95,61.12-.06,4.12-.14,8.24-.22,12.36-.05,2.41-.41,7.62-.42,10.02,0,.17.02.39.04.66-.86,1.37-3.79,2.26-5.77,2.26-.81,0-1.47-.15-1.75-.48.42-8.95.55-17.9.4-26.84-.03-1.86-.58-3.71-.65-5.57-.27-7.44.74-14.85-.1-22.29,0-13.66-3.09-27.5-5.59-41.1l8.63-1.16m1.47-2.22l-1.74.23-8.63,1.16-2.08.28.38,2.06c.38,2.08.78,4.16,1.17,6.25,2.16,11.36,4.39,23.11,4.39,34.49v.22c.49,4.26.35,8.46.2,12.9-.1,3.01-.21,6.13-.1,9.23.04,1.02.19,2,.34,2.94.15.91.29,1.78.3,2.6.15,8.8.02,17.79-.4,26.72l-.04.81.53.61c.67.77,1.77,1.16,3.26,1.16,2.11,0,6-.87,7.46-3.2l.37-.58-.07-.69c-.03-.3-.03-.41-.03-.44,0-1.27.12-3.42.22-5.49.09-1.74.17-3.39.2-4.5.07-3.69.16-8.04.22-12.37l.04-2.5c.28-19.31.57-39.28-3.02-59.01-.7-3.84-1.55-7.6-2.52-11.19l-.46-1.69h0Z"/>
          </g>
          <g>
            <path class="cls-7" d="m49.42,81.83c-6.65,0-14.58-2.3-16.88-8.76-.44-1.24-.64-2.6-.6-4.03.09-2.71.86-5.38,2.24-7.74.88-1.52,2.05-2.78,3.18-3.99.74-.8,1.44-1.55,2.07-2.37.95-1.24,1.64-2.97,2-5.01.39-2.23.49-4.63.58-6.94.05-1.28.1-2.6.2-3.89.06-.77.11-1.58.17-2.4.5-7.62,1.12-17.11,9.49-20.83,1.44-.58,3.03-.88,4.62-.88,4.16,0,7.95,1.96,9.89,5.12,1.37,2.23,1.61,4.65,1.84,6.99v.1c.26,2.57.35,5.17.43,7.69l.08,2.49c.29,8.4.58,17.09-.58,25.45-.23,1.63-.51,3.22-.83,4.73-1.94,8.92-8.29,14.13-17.43,14.27h-.45Z"/>
            <path class="cls-8" d="m56.47,15.98c3.58,0,7.17,1.61,9.04,4.64,1.27,2.06,1.48,4.33,1.71,6.67.25,2.55.33,5.11.42,7.67.29,9.04.78,18.63-.49,27.72-.22,1.57-.49,3.12-.82,4.65-1.8,8.28-7.59,13.34-16.47,13.49-.14,0-.29,0-.44,0-6.06,0-13.77-2.02-15.94-8.09-.42-1.18-.58-2.42-.54-3.66.08-2.51.81-5.06,2.1-7.27,1.38-2.36,3.53-4.1,5.18-6.26,1.19-1.55,1.85-3.55,2.19-5.44.63-3.55.51-7.33.79-10.93.61-7.75.37-18.54,9.06-22.39,1.33-.54,2.77-.8,4.21-.8m0-2h0c-1.72,0-3.43.33-4.96.94h-.03s-.03.03-.03.03c-8.92,3.96-9.59,14.2-10.08,21.68-.05.82-.11,1.62-.17,2.38-.1,1.31-.15,2.64-.2,3.93-.09,2.28-.18,4.64-.56,6.81-.33,1.88-.96,3.46-1.81,4.57-.6.78-1.28,1.52-2.01,2.3-1.17,1.26-2.37,2.56-3.31,4.17-1.46,2.5-2.28,5.34-2.38,8.22-.05,1.56.17,3.04.65,4.4,2.48,6.95,10.83,9.42,17.83,9.42.16,0,.31,0,.47,0,9.65-.16,16.35-5.65,18.39-15.06.33-1.53.62-3.14.85-4.8,1.18-8.46.88-17.19.59-25.64l-.08-2.42c-.08-2.56-.17-5.19-.43-7.81v-.09c-.25-2.46-.5-5-2-7.43-2.13-3.45-6.24-5.59-10.74-5.59h0Z"/>
          </g>
          <path class="cls-2" d="m48.73,48.12c-.03,1.45-.07,2.9-.1,4.36"/>
          <path class="cls-2" d="m56.64,46.94c.04,1.9.07,3.8.11,5.7"/>
        </g>
      </g>
      <rect class="cls-1" x="1.5" y="1.5" width="105" height="105"/>
    </g>
  </g>
</svg>