<?xml version="1.0" encoding="UTF-8"?>
<svg id="_레이어_2" data-name="레이어 2" xmlns="http://www.w3.org/2000/svg" viewBox="0 0 116.17 278.66">
  <defs>
    <style>
      .cls-1 {
        fill: #f6f3d6;
      }

      .cls-2 {
        fill: #ffe765;
      }

      .cls-3 {
        fill: #231815;
      }
    </style>
  </defs>
  <g id="_레이어_1-2" data-name="레이어 1">
    <g>
      <g>
        <path class="cls-1" d="m68.35,272.53c6.22,0,17.77-2.1,22.24-7.74l1.61-2.03-.33-2.57c-.04-.3-.07-.57-.08-.78.02-2.95.35-8.04.66-12.97.27-4.19.53-8.16.6-10.87.22-8.76.47-19.12.66-29.63l.11-5.97c.85-46.37,1.73-94.31-9.18-141.83-2.13-9.26-4.71-18.35-7.68-27.01l-1.59-4.63-37.82,4.04,1.57,6.75c1.15,4.98,2.35,9.96,3.55,14.96,6.49,27.07,13.19,55.05,13.19,82.04v.43l.06.43c1.42,9.98,1,19.93.55,30.46-.31,7.26-.63,14.77-.29,22.31.12,2.63.61,5.04,1.08,7.38.42,2.08.82,4.05.86,5.81.46,21,.06,42.45-1.19,63.77l-.17,2.95,2.19,1.97c2.06,1.85,5.05,2.72,9.41,2.72Z"/>
        <path class="cls-3" d="m71.15,33.12c3,8.74,5.47,17.54,7.51,26.39,11.21,48.77,9.79,97.55,8.92,146.31-.18,9.86-.41,19.72-.66,29.59-.15,5.76-1.23,18.24-1.26,23.99,0,.4.05.94.13,1.57-2.61,3.29-11.45,5.42-17.43,5.42-2.45,0-4.43-.36-5.3-1.14,1.26-21.42,1.68-42.84,1.2-64.26-.1-4.46-1.75-8.88-1.95-13.33-.8-17.81,2.22-35.55-.31-53.36,0-32.69-9.35-65.82-16.9-98.39l26.06-2.79m8.43-13.25l-9.74,1.04-26.06,2.79-13.78,1.47,3.13,13.5c1.16,5.01,2.38,10.1,3.56,15.02,6.4,26.72,13.02,54.34,13.02,80.6v.87s.12.86.12.86c1.34,9.42.93,19.1.49,29.34-.32,7.39-.64,15.04-.29,22.85.14,3.1.7,5.88,1.2,8.33.37,1.81.71,3.52.74,4.72.46,20.83.06,42.12-1.19,63.27l-.35,5.89,4.39,3.95c3.21,2.89,7.63,4.29,13.51,4.29.78,0,19.16-.11,27.05-10.06l3.23-4.07-.67-5.15c0-.07-.02-.14-.03-.21.04-2.86.36-7.89.65-12.35.28-4.26.54-8.28.61-11.11.22-8.84.48-19.29.66-29.68l.11-5.97c.86-46.73,1.75-95.06-9.34-143.31-2.17-9.47-4.82-18.76-7.86-27.63l-3.18-9.26h0Z"/>
      </g>
      <g>
        <path class="cls-2" d="m52.8,195.28c3.21,0,6.44-.19,9.61-.56,26.56-3.1,43.5-19.93,46.5-46.18.48-4.22.81-8.66.98-13.2.87-23.13-2.37-46.58-5.5-69.25-.47-3.37-.93-6.71-1.37-10.02-.95-7.08-2.02-13.45-3.28-19.46-1.25-5.96-2.84-12.26-7.24-17.93-6.09-7.86-16.35-12.55-27.43-12.55-6.17,0-12.19,1.44-17.42,4.16l-.18.1c-23.58,13.31-22.55,41.3-21.79,61.74.08,2.21.16,4.37.21,6.45.08,3.56.31,7.17.54,10.66.41,6.41.8,12.47.36,18.34-.38,5.02-1.6,9.33-3.53,12.44-1.39,2.24-3.04,4.4-4.78,6.68-2.85,3.73-5.81,7.59-7.95,12.26-3.33,7.25-4.81,15.24-4.26,23.13.3,4.3,1.33,8.32,3.08,11.93,6.51,13.51,22.36,21.26,43.48,21.26,0,0,0,0,0,0Z"/>
        <path class="cls-3" d="m65.06,12.27c8.68,0,17.32,3.39,22.58,10.17,3.59,4.62,4.93,9.93,6.08,15.43,1.32,6.29,2.35,12.64,3.21,19.02,3.39,25.27,7.8,52.21,6.83,78.23-.16,4.27-.47,8.52-.95,12.73-2.59,22.76-16.96,37.96-41.11,40.78-2.83.33-5.83.52-8.9.52-14.95,0-31.49-4.4-37.95-17.78-1.47-3.05-2.25-6.36-2.48-9.69-.47-6.77.81-13.83,3.71-20.14,3.09-6.72,8.48-12,12.37-18.26,2.8-4.51,4.06-10.05,4.44-15.22.73-9.72-.66-19.84-.88-29.6-.49-21.01-4.12-49.95,18.47-62.7,4.43-2.31,9.52-3.46,14.58-3.46m0-12.27c-7.15,0-14.15,1.68-20.25,4.85l-.18.1-.18.1c-26.83,15.15-25.68,46.54-24.91,67.31.08,2.18.16,4.31.21,6.36.09,3.69.32,7.36.55,10.91.4,6.19.77,12.04.37,17.5-.3,3.98-1.23,7.41-2.62,9.66-1.24,1.99-2.8,4.03-4.45,6.19-2.92,3.81-6.22,8.14-8.65,13.42-3.76,8.18-5.43,17.21-4.8,26.12.35,5.08,1.59,9.85,3.67,14.17,7.58,15.72,25.44,24.73,49,24.73,3.45,0,6.92-.2,10.32-.6,29.19-3.41,48.59-22.69,51.88-51.58.5-4.37.84-8.97,1.02-13.66.89-23.67-2.39-47.39-5.56-70.33-.46-3.36-.92-6.69-1.37-9.99-.97-7.23-2.07-13.74-3.36-19.9-1.33-6.37-3.19-13.73-8.4-20.44C90.09,5.58,78.02,0,65.06,0h0Z"/>
      </g>
      <path class="cls-3" d="m50.49,118.85c.16,0,.32,0,.49-.02,3.38-.27,5.9-3.22,5.64-6.6l-.93-11.75c-.27-3.38-3.22-5.89-6.6-5.64-3.38.27-5.9,3.22-5.64,6.6l.93,11.74c.25,3.22,2.94,5.66,6.11,5.66Z"/>
      <path class="cls-3" d="m72.65,117.08c.25,0,.5-.01.76-.05,3.36-.41,5.76-3.48,5.34-6.84l-1.88-15.3c-.41-3.36-3.46-5.76-6.84-5.34-3.36.41-5.76,3.48-5.34,6.84l1.88,15.3c.38,3.11,3.03,5.39,6.08,5.39Z"/>
    </g>
  </g>
</svg>