<?xml version="1.0" encoding="UTF-8"?>
<svg id="_레이어_2" data-name="레이어 2" xmlns="http://www.w3.org/2000/svg" viewBox="0 0 113 113">
  <defs>
    <style>
      .cls-1 {
        fill: #e95513;
      }

      .cls-1, .cls-2, .cls-3 {
        stroke: #000;
        stroke-width: 2px;
      }

      .cls-1, .cls-4 {
        stroke-miterlimit: 10;
      }

      .cls-2, .cls-3 {
        stroke-linecap: round;
        stroke-linejoin: round;
      }

      .cls-2, .cls-4 {
        fill: #fff;
      }

      .cls-3 {
        fill: #009fe8;
      }

      .cls-4 {
        stroke: #221714;
        stroke-width: 3px;
      }
    </style>
  </defs>
  <g id="_레이어_3" data-name="레이어 3">
    <g>
      <circle class="cls-4" cx="56.5" cy="56.5" r="55"/>
      <g>
        <rect class="cls-1" x="38.65" y="30.89" width="35.7" height="25.8" transform="translate(-5.83 8.79) rotate(-8.46)"/>
        <path class="cls-3" d="m79.23,85.4h-45.47c-1.91,0-3.52-1.52-3.78-3.57l-3.12-24.28c-.32-2.49,1.46-4.71,3.78-4.71h51.72c2.32,0,4.1,2.22,3.78,4.71l-3.12,24.28c-.26,2.05-1.88,3.57-3.78,3.57Z"/>
        <rect class="cls-3" x="23.24" y="46.67" width="66.51" height="11.68" rx="5.84" ry="5.84"/>
        <g>
          <path class="cls-2" d="m38.62,63.9c-.1-1.15-1.1-1.99-2.25-1.89-1.15.1-1.99,1.11-1.89,2.25l1.26,14.67c.09,1.08,1,1.9,2.07,1.9.06,0,.12,0,.18,0,1.15-.1,1.99-1.11,1.89-2.25l-1.26-14.67Z"/>
          <path class="cls-2" d="m46.43,62c-1.15.05-2.04,1.02-1.99,2.17l.63,14.67c.05,1.12.97,1.99,2.08,1.99.03,0,.06,0,.09,0,1.15-.05,2.04-1.02,1.99-2.17l-.63-14.67c-.05-1.15-1.02-2.04-2.17-1.99Z"/>
          <path class="cls-2" d="m56.5,62c-1.15,0-2.08.93-2.08,2.08v14.67c0,1.15.93,2.08,2.08,2.08s2.08-.93,2.08-2.08v-14.67c0-1.15-.93-2.08-2.08-2.08Z"/>
          <path class="cls-2" d="m66.57,62c-1.15-.05-2.12.84-2.17,1.99l-.63,14.67c-.05,1.15.84,2.12,1.99,2.17.03,0,.06,0,.09,0,1.11,0,2.03-.87,2.08-1.99l.63-14.67c.05-1.15-.84-2.12-1.99-2.17Z"/>
          <path class="cls-2" d="m76.63,62c-1.15-.1-2.15.75-2.25,1.89l-1.26,14.67c-.1,1.15.75,2.15,1.89,2.25.06,0,.12,0,.18,0,1.07,0,1.98-.82,2.07-1.9l1.26-14.67c.1-1.15-.75-2.15-1.89-2.25Z"/>
        </g>
        <g>
          <path class="cls-3" d="m77.94,29.84h6.53v24.63c0,1.8-1.46,3.27-3.27,3.27h0c-1.8,0-3.27-1.46-3.27-3.27v-24.63h0Z" transform="translate(58.23 -45.57) rotate(47.24)"/>
          <path class="cls-3" d="m31.79,29.84h0c1.8,0,3.27,1.46,3.27,3.27v24.63h-6.53v-24.63c0-1.8,1.46-3.27,3.27-3.27Z" transform="translate(85.52 50.18) rotate(132.76)"/>
        </g>
      </g>
    </g>
  </g>
</svg>