<?xml version="1.0" encoding="UTF-8"?>
<svg id="_레이어_2" data-name="레이어 2" xmlns="http://www.w3.org/2000/svg" viewBox="0 0 166.6 356.62">
  <defs>
    <style>
      .cls-1, .cls-2, .cls-3, .cls-4, .cls-5 {
        stroke: #231815;
        stroke-linecap: round;
        stroke-width: 6px;
      }

      .cls-1, .cls-3 {
        stroke-miterlimit: 10;
      }

      .cls-1, .cls-5 {
        fill: none;
      }

      .cls-2 {
        fill: #f3f0d3;
      }

      .cls-2, .cls-4, .cls-5 {
        stroke-linejoin: round;
      }

      .cls-3 {
        fill: #ffe465;
      }

      .cls-4 {
        fill: #1a1a1a;
      }
    </style>
  </defs>
  <g id="_레이어_3" data-name="레이어 3">
    <g>
      <path class="cls-2" d="m49.57,142.47c-6.25,25.5-15.19,49.74-16.33,76.42-1.06,24.69,2.39,51.64,16.04,72.77,11.59,17.94,30.97,38.77,54.29,37.71,17.96-.81,24.34-21.45,22.03-36.51-5.24-34.22-30.78-57.82-4.46-90.73,11.47-14.34,25.58-19.7,42.46-25.28-12.36,11.13-22.86,14.36-31.45,30.33-15.17,28.2,3.61,43.88,12.08,72.58,18.97,64.24-44.46,92.78-91.69,60.51C18.29,316.87,1.13,274.32,3.16,233.65c1.9-38.06,10.32-83.09,35.67-112.93"/>
      <g>
        <g>
          <path class="cls-3" d="m25.75,116.81c-.16,4.06-.19,8.12-.05,12.15.76,21.77,13.1,37.24,35.52,41.66,15.44,3.05,36.68,1.75,45.15-12.98,1.6-2.78,2.58-5.87,3.04-9.01.94-6.39.26-13.17-2-19.37-2.41-6.6-7.06-11.99-10.25-18.22-2.29-4.48-3.06-9.83-3.04-14.76.03-9.28,2.07-18.78,3-28.02,2-19.89,7.53-47.08-12.69-60.81-10.82-6.82-26.71-5.91-35.3,3.67-4.15,4.63-5.72,10.28-7.38,16.09-1.8,6.34-3.19,12.79-4.57,19.23-4.88,22.75-10.48,46.79-11.43,70.38Z"/>
          <path class="cls-1" d="m59.54,81.75c-.96,4.79-1.92,9.58-2.89,14.38"/>
        </g>
        <g>
          <path class="cls-4" d="m45.62,76.33c6.37-.72,12.9.07,18.91,2.28,2.63.97,5.2,2.22,7.27,4.12,2.07,1.89,3.6,4.48,3.79,7.27.6,8.63-8.23,13.47-16.63,13.41-12.81-.09-14.72-12.57-14.29-22.31"/>
          <path class="cls-4" d="m76.49,86.29c7.04-3.37,15.79-2.87,22.39,1.29,1.54.97,3,2.16,3.91,3.74,2.03,3.53,1.25,9.21-.34,12.76-3.03,6.8-12.33,7-17.97,3.41s-7.35-10.68-7.79-16.9"/>
        </g>
        <path class="cls-5" d="m45.42,79.07c-4.77-1.22-9.54-2.44-14.31-3.67-1.43-.37-3.06-.71-4.3.09-.82.52-1.35,1.47-2.26,1.79"/>
        <path class="cls-5" d="m72.75,18.75c3.96.39,7.84,2.3,10.22,5.49,2.37,3.19,3.04,7.71,1.28,11.28-2.16,4.37-7.66,7.58-6.99,12.41"/>
        <path class="cls-5" d="m71.71,18.21c4.53,1.04,9.9-1.53,13.61,1.26,1.23.93,2.03,2.32,2.65,3.73,3.42,7.88,1.88,16.92.28,25.35"/>
      </g>
    </g>
  </g>
</svg>