<?xml version="1.0" encoding="UTF-8"?>
<svg id="_레이어_2" data-name="레이어 2" xmlns="http://www.w3.org/2000/svg" viewBox="0 0 713.66 599.84">
  <defs>
    <style>
      .cls-1 {
        fill: #f3f0d3;
      }

      .cls-1, .cls-2, .cls-3, .cls-4, .cls-5, .cls-6, .cls-7, .cls-8, .cls-9, .cls-10 {
        stroke-linecap: round;
        stroke-linejoin: round;
        stroke-width: 6px;
      }

      .cls-1, .cls-4, .cls-7, .cls-9, .cls-10 {
        stroke: #231815;
      }

      .cls-2 {
        fill: #7d2400;
      }

      .cls-2, .cls-3, .cls-5, .cls-6, .cls-8 {
        stroke: #221714;
      }

      .cls-3 {
        fill: #4d4d4d;
      }

      .cls-4 {
        fill: #1a1a1a;
      }

      .cls-5 {
        fill: #8bccc8;
      }

      .cls-6 {
        fill: #969696;
      }

      .cls-7 {
        fill: #ef96a5;
      }

      .cls-8 {
        fill: #e3a160;
      }

      .cls-9 {
        fill: #ffe465;
      }

      .cls-10 {
        fill: none;
      }
    </style>
  </defs>
  <g id="_레이어_3" data-name="레이어 3">
    <g>
      <path class="cls-5" d="m3,62.1c.54,80.82,4.02,161.77,5.09,242.61.4,29.75-.02,59.45-.51,89.14-.24,14.43-.8,28.88-.7,43.34.09,13.57-3.2,27.53-.97,41.12.42,2.55,1.11,5.18,2.76,7.25,4.73,5.94,15.91.9,21.55-.13,10.5-1.93,20.99-3.85,31.49-5.78,59.3-10.88,118.73-20.2,178.97-26.68,69.66-7.5,139.85-11.92,210.29-13.23,4.89-.09,10.27-.35,13.61-3.56,3.04-2.92,3.49-7.43,3.79-11.6,5.65-80.44,11.28-160.88,12.67-241.85.56-32.73.36-65.51.04-98.3-.16-16.4-.34-32.79-.47-49.19-.08-9.52,4.22-33.09-12.02-32.21-80.64,4.33-161.13,11.64-241.07,20.86-53.01,6.12-105.87,13.08-158.59,20.7-20.1,2.9-40.18,5.91-60.24,9.01"/>
      <path class="cls-8" d="m283.96,347.27c-2.76,11.82,4.98,20.98,13.68,28.39,36.27,30.9,92.93,17.83,105.68,95.81.22,1.36,1.14,2.65.6,4.01-.5,1.27-2.02,1.94-3.09,2.99-27.4,26.81-65.14,38.75-103.68,35.27-36.51-3.29-73.16-16.45-84.7-45.84-1.01-2.56-1.83-5.27-1.5-8.06.47-3.94,3.15-7.54,5.61-11.03,11.42-16.19,19.64-33.91,24.16-52.06,3.17-12.75,4.55-25.76,9.34-38.25,4.79-12.49,13.77-24.86,27.39-30.85"/>
      <path class="cls-1" d="m291.4,284.1c-8.51,34.74-20.69,67.76-22.25,104.1-1.2,27.88,2.51,62.84,14.63,86.61,13.53,26.53,30.13,43.27,54.06,56.36,26.13,14.29,48.84,9.75,56.88-21.1,7.28-27.94-14.62-53.84-21.92-79.81-7.03-24.99.48-45.36,16.11-64.9,15.63-19.54,34.85-26.83,57.84-34.44-16.83,15.17-31.14,19.56-42.84,41.32-20.66,38.42,4.91,59.78,16.46,98.87,25.85,87.52-60.56,126.4-124.91,82.44-43.35-29.62-52.06-59.72-64.64-104.92-12.58-45.2-2.22-153.34,45.59-175.57"/>
      <g>
        <path class="cls-10" d="m407.81,347.83c15.91-7.57,18.91-19.6,6.89-27.67-.99-.66-3.6-1.22-4.3-.44"/>
        <path class="cls-7" d="m389.4,358.54c-3.04-3.52-6.17-7.18-7.5-11.63-2.57-8.63,2.13-17.55,6.36-25.5,9.36-17.59,19.24-40.6,25-59.69.4-1.31.82-2.69,1.79-3.66,3.46-3.42,12.43,3.79,15.24,6.04,1.27,1.02,2.52,2.19,3.1,3.71.71,1.86.31,3.94-.14,5.89-4.45,19.54-12.41,38.28-23.4,55.05-1.12,1.71-2.32,3.56-2.25,5.61.08,2.2,1.6,4.06,3.04,5.72,4.95,5.7,15.2,8.22,20.15,13.92,1.73,1.99,3.53,4.14,3.9,6.75.39,2.77-.92,5.47-2.19,7.97-1.82,3.58-8.94,10.34-10.76,13.92-1.22,2.4-3.74,1.87-5.54.42-2.15-1.74-3.24-4.11-4.98-6.15-2.16-2.54-4.36-5.04-6.53-7.55-4.46-5.15-10.83-5.66-15.29-10.81Z"/>
      </g>
      <path class="cls-8" d="m260.13,349.9c-11.56,24.05-17.97,53.07-6.31,77.07,5.08,10.45,13.16,19.08,20.22,28.31,18.03,23.6,29.65,52.05,33.29,81.53.2,1.61.34,3.38-.55,4.73-.84,1.27-2.37,1.86-3.81,2.35-35.15,12.13-74.14,17.13-109.42,5.39-35.28-11.75-65.54-42.96-68.31-80.05-.24-3.23-.27-6.57.84-9.62,1.56-4.3,5.15-7.48,8.5-10.61,15.52-14.51,28.41-31.82,37.87-50.85,6.64-13.37,11.64-27.63,19.76-40.16,8.12-12.53,20.22-23.53,34.98-25.79"/>
      <path class="cls-8" d="m246.18,306.02c-3.06,4.56-1.9,10.88.98,15.56,2.88,4.68,7.21,8.25,10.89,12.33s6.87,9.15,6.61,14.64c-.27,5.74-4.36,10.74-9.31,13.67s-10.69,4.13-16.32,5.3c-1,.21-2.09.4-2.98-.1-.78-.44-1.21-1.31-1.57-2.13-5.22-11.81-8.19-24.61-8.68-37.51-.23-6.07.18-12.48,3.44-17.61,3.26-5.13,10.18-8.36,15.64-5.71"/>
      <path class="cls-8" d="m281.27,314.92c1.92,3.34,1.19,7.97-.61,11.39s-4.51,6.04-6.82,9.03c-2.3,2.99-4.3,6.69-4.14,10.71.17,4.2,2.73,7.86,5.83,10,3.1,2.14,6.69,3.02,10.22,3.88.62.15,1.31.29,1.87-.07.49-.32.76-.96.98-1.56,3.27-8.64,5.13-18.01,5.43-27.45.14-4.44-.11-9.14-2.15-12.89-2.04-3.75-6.37-6.12-9.79-4.18"/>
      <g>
        <g>
          <path class="cls-9" d="m258.96,249.15c-.22,5.54-.26,11.06-.07,16.55,1.03,29.66,17.85,50.73,48.39,56.76,21.04,4.15,49.97,2.39,61.51-17.69,2.18-3.79,3.51-8,4.14-12.28,1.28-8.71.35-17.95-2.72-26.39-3.28-9-9.62-16.34-13.97-24.82-3.12-6.1-4.17-13.39-4.15-20.11.05-12.64,2.82-25.58,4.09-38.17,2.73-27.1,10.26-64.14-17.29-82.85-14.73-9.29-36.39-8.05-48.09,5-5.66,6.31-7.8,14.01-10.05,21.92-2.46,8.64-4.34,17.42-6.22,26.2-6.65,30.99-14.28,63.74-15.57,95.88Z"/>
          <path class="cls-10" d="m305,201.39c-1.31,6.53-2.62,13.06-3.93,19.59"/>
        </g>
        <g>
          <path class="cls-4" d="m286.03,194.01c8.67-.98,17.57.09,25.76,3.1,3.58,1.32,7.08,3.03,9.9,5.61s4.91,6.1,5.17,9.91c.81,11.76-11.22,18.35-22.65,18.27-17.45-.12-20.06-17.13-19.47-30.4"/>
          <path class="cls-4" d="m328.09,207.57c9.59-4.59,21.51-3.91,30.5,1.76,2.1,1.32,4.09,2.94,5.33,5.1,2.77,4.81,1.7,12.54-.46,17.38-4.13,9.26-16.8,9.53-24.48,4.65-7.65-4.86-10.02-14.55-10.62-23.03"/>
        </g>
        <path class="cls-10" d="m285.76,197.74c-6.5-1.66-13-3.33-19.5-4.99-1.95-.5-4.16-.96-5.86.12-1.11.71-1.83,2-3.08,2.44"/>
        <path class="cls-10" d="m329.5,120.39c5.4.54,10.68,3.13,13.92,7.48,3.23,4.35,4.14,10.5,1.74,15.36-2.94,5.96-10.44,10.32-9.52,16.9"/>
        <path class="cls-10" d="m328.09,119.65c6.17,1.42,13.48-2.08,18.54,1.72,1.68,1.26,2.77,3.15,3.61,5.08,4.66,10.73,2.56,23.05.38,34.54"/>
      </g>
      <g>
        <path class="cls-3" d="m583.97,375.12c43.74,62.75,76.1,132.87,120.08,195.46,2.72,1.17,5.91-1.3,6.57-4.19s-6.7-11.22-8.39-13.66c-17.67-25.54-22.78-36.58-35.77-57.8-12.3-20.09-21.03-41.27-33.96-60.38-4.69-6.93-7.76-13.7-12.73-20.44-10.53-14.3-18.89-31.21-31.66-43.54"/>
        <path class="cls-3" d="m634.63,255.02l22.19.32c.57,0,1.19.04,1.59.44.36.36.42.91.46,1.41.94,11.46-.16,20.85.38,34.29-11.1-.31-24.97-.63-36.07-.94"/>
        <path class="cls-3" d="m580.53,378.18c-19.94,37.73-39.3,76.08-51.47,116.98-3.48,11.7-6.38,23.63-11.26,34.82-7.04,16.15-18.15,30.66-22.24,47.79,2.8.77,5.6,1.54,8.39,2.31,7.7-18.24,15.41-36.48,23.11-54.72,3.48-8.24,6.96-16.48,10.44-24.72,17.37-41.12,34.75-82.28,49.49-124.42"/>
        <path class="cls-3" d="m584.68,377.67c0,77.99-.17,146.51.92,217.29,1.6,2.16,5.67,2.73,7,.25,1.34-2.48.37-7.44.5-10.53.9-20.5.72-41.07.53-61.61-.44-48.47-.88-96.93-1.31-145.4"/>
        <path class="cls-6" d="m625.62,312.66c13.3,11.37,28.83,19.84,42.63,30.6.73-1.06,1.46-2.13,2.19-3.19.13-.2.27-.42.24-.65-.04-.24-.25-.41-.45-.55-1.78-1.25-3.64-2.39-5.41-3.67-2.61-1.9-4.97-4.1-7.43-6.18-10.88-9.25-23.46-16.26-35.95-23.2"/>
        <path class="cls-3" d="m512.55,258.56l-45.51-18.29c-1.4-.56-2.91.49-2.87,2l1.32,48c.04,1.39,1.41,2.37,2.73,1.94,19.11-6.27,37.17-15.69,53.24-27.79"/>
        <path class="cls-6" d="m520.24,252.37c-2.54.14-5.09.29-7.63.43-.94.05-1.92.12-2.72.62-1.57.99-1.75,3.18-1.76,5.04-.03,5.78-.06,11.59.84,17.3.06.4.15.83.43,1.12.31.31.79.38,1.23.42,4.42.45,8.88.54,13.31.29"/>
        <path class="cls-3" d="m530.24,245.46c-2.95.14-5.9.29-8.86.43-.9.04-1.89.12-2.55.75-.63.6-.77,1.53-.86,2.39-.29,3.03-.21,6.09-.09,9.13.3,7.83.79,15.65,1.49,23.45.04.46.09.93.32,1.33.59.99,1.99,1.02,3.14.93,2.82-.22,5.63-.44,8.45-.66"/>
        <rect class="cls-3" x="557.5" y="186.79" width="77.78" height="61.35"/>
        <path class="cls-3" d="m678.96,247.72c4.26-3.94,8.77-7.6,13.49-10.96.33,9.48.2,18.98-.36,28.45-5.62-2.79-10.65-6.62-15.64-10.43"/>
        <path class="cls-3" d="m640.03,241.6c13.13.14,26.27.27,39.4.41.46,0,.99.03,1.3.38.29.31.3.78.29,1.21-.08,5.68-.16,11.35-.24,17.03,0,.36-.02.76-.27,1.03-.26.28-.68.33-1.06.36-16.67,1.2-33.39,1.7-50.1,1.48,1.48-.22,2.96-.44,4.44-.66"/>
        <path class="cls-3" d="m595.71,330.03c-.34,11.53-.08,23.07.78,34.57-5.38.76-10.8,1.23-16.24,1.42-.5.02-1.04.02-1.43-.29-.57-.44-.56-1.28-.51-1.99.95-12.28,1.96-24.63.86-36.9-.1-1.05-.31-2.27-1.23-2.79"/>
        <path class="cls-3" d="m608.34,295.44c3.34,5.07,2.63,11.71,1.61,17.69-.81,4.7-1.9,9.7-5.38,12.96-3.35,3.14-8.21,3.98-12.79,4.33-4.37.34-8.84.35-13.05-.86s-8.18-3.77-10.32-7.59c-1.69-3.01-2.13-6.56-2.22-10.02-.15-6.52,1.28-13.76,6.52-17.66.91-.68,2.68-.89,2.77.24"/>
        <path class="cls-6" d="m647.2,229.37c.04,22.72.08,45.44.12,68.17,0,1.28-.04,2.69-.86,3.67-.83.99-2.21,1.27-3.49,1.44-4.24.57-8.53.63-12.81.69-32.79.43-64.62.86-97.4,1.3-.89.01-1.8.02-2.65-.25-3.73-1.2-3.6-6.33-3.3-10.24,1.66-21.53-.04-42.26,1.71-64.48.08-1.06-.05-2.3.8-2.93.5-.37,1.17-.42,1.79-.46,37.34-2.05,75.04-1.42,112.43-1.18"/>
        <path class="cls-3" d="m624.49,236.32c3.8-.16,7.6-.32,11.41-.49.78-.03,1.64-.04,2.23.45.66.54.75,1.48.79,2.32.77,16.27.41,36.41-1,52.64-.1,1.09-.26,2.3-1.11,3-.66.54-1.58.64-2.44.72-29.86,2.61-59.75,1.41-89.73,1.03-2.24-.03-4.85-.26-6.08-2.1-.64-.96-.75-2.17-.82-3.32-1.19-17.7-1.1-35.48.27-53.16,26.97-.14,53.95-.28,80.92-.42"/>
        <g>
          <path class="cls-6" d="m664.84,158.83c26.17,22.54,11.94,70.36-25.09,69.81-10.37-.15-22.05-.27-29.6-7.78-10.08-10.02-14.56-25.63-11.38-39.68,3.18-14.05,13.9-26.02,27.24-30.42,13.34-4.4,28.82-1.07,39.33,8.47"/>
          <path class="cls-3" d="m636.78,161.26c7.14.11,15.19.19,20.39,5.36,6.94,6.9,10.03,17.66,7.84,27.33-2.19,9.67-9.57,17.92-18.76,20.95-9.19,3.03-19.85.73-27.09-5.83l.35.27c-18.02-15.52-8.22-48.46,17.28-48.08Z"/>
          <path class="cls-6" d="m637.72,182.65c1.58.02,3.37.04,4.52,1.19,1.54,1.53,2.22,3.91,1.74,6.06-.49,2.14-2.12,3.97-4.16,4.64-2.04.67-4.4.16-6-1.29l.08.06c-3.99-3.44-1.82-10.74,3.83-10.66Z"/>
        </g>
        <g>
          <path class="cls-6" d="m586.02,149.79c7.59,7.17,13.61,16.24,16.03,26.39,2.77,11.65.17,23.89-7.62,33.06-6.03,7.1-14.93,14.21-23.9,17.09-14.11,4.54-31.9,1.32-43.24-8.23-17.14-14.45-20.19-42.23-8.18-60.8,5.84-9.03,16.56-17.96,27.55-19.54,12.49-1.79,26.46,3.4,36.81,9.98"/>
          <path class="cls-3" d="m530.58,166.18c5.28-8.9,16.08-15.45,26.44-15.7,15.66-.37,30.11,12.76,32.41,28.04,1.12,7.43-.36,17.06-5.38,22.97-5.71,6.72-15.42,10.46-23.89,11.81l-2.27.11c-7.29-.24-14.64-2.2-20.6-6.4-6.84-4.82-11.14-12.42-11.31-20.82-.13-6.51,1.24-14.34,4.6-20Z"/>
          <path class="cls-6" d="m550.76,177.84c1.38-2.32,4.19-4.03,6.89-4.09,4.08-.1,7.84,3.32,8.44,7.3.29,1.93-.09,4.45-1.4,5.98-1.49,1.75-4.02,2.72-6.22,3.08l-.59.03c-1.9-.06-3.81-.57-5.37-1.67-1.78-1.25-2.9-3.24-2.95-5.43-.03-1.7.32-3.74,1.2-5.21Z"/>
        </g>
        <path class="cls-3" d="m613.73,297.62c2.98,2.18,4.86,3.03,8.08,4.82,1.58.88,3.2,1.69,4.86,2.4,1.04.44,4.05,2.56,4.29,3.93.26,1.51-2.13,3.61-3.06,4.43-.94.83-1.8,3.03-3.12,3.16-.35.03-1.59-.86-1.88-1.05-6.06-3.87-11.45-8.4-17.39-12-.41-.25-.52-.68-.75-1.09-1.77-3.24,2.86-6.85,5.88-6"/>
        <path class="cls-3" d="m672.51,337.16c2.98,2.18,4.86,3.03,8.08,4.82,1.58.88,3.2,1.69,4.86,2.4,1.04.44,4.05,2.56,4.29,3.93.26,1.51-2.13,3.61-3.06,4.43-.94.83-1.8,3.03-3.12,3.16-.35.03-1.59-.86-1.88-1.05-6.06-3.87-11.45-8.4-17.39-12-.41-.25-.52-.68-.75-1.09-1.77-3.24,2.86-6.85,5.88-6"/>
        <path class="cls-3" d="m585.26,310.5c-2.52,1.01-5.33,2.14-6.3,4.67-1,2.62.4,5.75,2.76,7.26,2.36,1.5,5.43,1.57,8.11.74,2.29-.71,4.51-2.19,5.33-4.44,1.88-5.15-5.41-10.03-9.9-8.23Z"/>
        <path class="cls-6" d="m580.41,362.64c-2.26.36-4.53.72-6.79,1.07-.78.12-1.61.27-2.16.83-.65.65-.73,1.67-.77,2.59-.24,6.07-.25,12.14-.04,18.21.01.38.04.79.27,1.09.33.42.93.48,1.46.5,11.42.44,22.87.23,34.27-.64.27-.02.55-.05.77-.21.33-.25.37-.72.38-1.13.23-7.08.2-14.17-.07-21.25-.05-1.2-.26-2.64-1.35-3.12-.49-.22-1.05-.18-1.58-.14-6.68.51-13.37,1.02-20.05,1.53"/>
        <path class="cls-6" d="m553.49,251.22c-1.47.7-2.42,2.28-2.56,3.9-.14,1.62.45,3.25,1.43,4.55,1.86,2.48,5.34,3.78,8.26,2.73s4.8-4.61,3.67-7.5c-.7-1.78-2.36-3.08-4.19-3.65s-3.81-.48-5.69-.09"/>
        <path class="cls-6" d="m560.52,274.44c-2.5.97-3.88,3.96-3.37,6.59.5,2.63,2.62,4.78,5.13,5.73,3.17,1.2,7.01.55,9.48-1.77,2.47-2.32,3.35-6.23,1.96-9.32-1.03-2.28-3.18-3.98-5.6-4.6-2.42-.61-5.07-.17-7.23,1.08-1.23.71-2.43,2.15-1.79,3.43"/>
        <path class="cls-6" d="m562.09,284.03c2.42-3.03,4.69-6.17,6.8-9.43"/>
        <path class="cls-6" d="m607.23,268.31c-.27,6.3-.22,12.6.15,18.89,0,.15.02.31.13.41.11.11.27.12.42.12,1.97.04,3.94.02,5.9-.06.43-.02.93-.06,1.19-.41.21-.26.22-.62.22-.95.08-6.41.16-12.82.25-19.23,0-.24,0-.5-.14-.7-.2-.27-.58-.32-.91-.34-1.98-.11-3.97-.03-5.93.22"/>
        <path class="cls-6" d="m621.55,266.55c.3,6.52.6,13.03.9,19.55,0,.17.02.35.13.48.14.16.37.17.58.17,2.18.02,4.37-.09,6.53-.33-.05-7.29-.1-14.59-.15-21.88-2.05,0-4.1,0-6.15-.01"/>
      </g>
      <g>
        <path class="cls-2" d="m268.51,364.88c-2.97,7.75,2.01,21.96,5.41,29.53,3.86,8.59,8.07,17.33,14.95,23.76,4.51,4.22,10.05,7.33,13.99,12.09,2.63,3.18,4.43,6.98,5.58,10.94.18.62.37,1.29.86,1.71.47.41,1.12.51,1.73.61,8.48,1.26,16.96,2.53,25.44,3.79,1.06-7.95,1.53-15.98,1.4-24-.01-.88-.05-1.81-.56-2.53-.43-.61-1.12-.96-1.78-1.29-12.26-6.08-24.62-12.16-35.61-20.31-11-8.15-21.72-21.93-26.88-34.61"/>
        <path class="cls-2" d="m272.75,350.14c-4.05.96-8.1,1.91-12.16,2.87-.88.21-1.84.47-2.34,1.23-.86,1.33.3,3.01,1.4,4.16,3.61,3.76,7.22,7.53,10.84,11.29.11.12.23.24.38.3.52.2.97-.41,1.19-.92,1.6-3.68,4.74-9.67,5.11-13.67.1-1.14.15-2.34-.29-3.4s-1.49-1.95-2.63-1.86"/>
      </g>
    </g>
  </g>
</svg>