<?xml version="1.0" encoding="UTF-8"?>
<svg id="_레이어_2" data-name="레이어 2" xmlns="http://www.w3.org/2000/svg" viewBox="0 0 673.1 528.65">
  <defs>
    <style>
      .cls-1, .cls-2 {
        fill: #008f45;
      }

      .cls-3, .cls-4, .cls-5 {
        fill: #fff;
      }

      .cls-6, .cls-7 {
        fill: #be272d;
      }

      .cls-8 {
        fill: #221714;
      }

      .cls-9, .cls-10 {
        fill: #29a8df;
      }

      .cls-11 {
        fill: #f3f0d3;
      }

      .cls-11, .cls-12, .cls-7, .cls-13, .cls-10, .cls-14, .cls-15, .cls-2, .cls-16, .cls-4, .cls-17, .cls-5, .cls-18, .cls-19 {
        stroke-linecap: round;
        stroke-linejoin: round;
        stroke-width: 6px;
      }

      .cls-11, .cls-13, .cls-16, .cls-4, .cls-17, .cls-19 {
        stroke: #231815;
      }

      .cls-12 {
        fill: #4d4d4d;
      }

      .cls-12, .cls-7, .cls-10, .cls-14, .cls-15, .cls-2, .cls-5, .cls-18 {
        stroke: #221714;
      }

      .cls-13 {
        fill: #c9c9c9;
      }

      .cls-14 {
        fill: #8bccc8;
      }

      .cls-15 {
        fill: #969696;
      }

      .cls-16 {
        fill: #ef96a5;
      }

      .cls-17 {
        fill: #ffe465;
      }

      .cls-18, .cls-19 {
        fill: none;
      }
    </style>
  </defs>
  <g id="_레이어_3" data-name="레이어 3">
    <g>
      <path class="cls-4" d="m150.53,83.73c-.75,25.01.53,49.91.91,74.93,14.25-.23,28.49-.46,42.74-.68.72-.01,1.53-.06,2.03-.58.5-.52.51-1.32.5-2.04-.54-24.2-1.08-48.41-1.62-72.61-11.79-.36-27.03-.56-38.82-.34"/>
      <path class="cls-18" d="m169.78,93.6c-4.04,1.5-6.99,5.31-7.26,9.39s2.14,8.21,5.95,10.18c3.51,1.81,8.09,1.71,11.42-.38,3.33-2.09,5.21-6.12,4.44-9.82-.77-3.7-4.22-6.81-8.19-7.23"/>
      <path class="cls-14" d="m171.54,123.61c10.86-2.31,21.59,13.08,8.2,23.49-3.19,2.48-8.37.85-11.76-.63-7.2-3.14-7.16-12.22-4.26-17.52"/>
      <path class="cls-12" d="m283.51,261.76c-7.76,0-13.66-2.69-16.78-7.72-2.35-3.79-2.53-8.12-2.66-11.28l-.67-16.18c-.04-.98-.12-2.8-.5-3.32-.02-.02-.44-.57-2.39-.99-6.16-1.32-13.48.7-20.05,5.53-6.39,4.7-11.51,11.37-16.46,17.82-1.74,2.27-5,2.7-7.26.96-2.27-1.74-2.7-4.99-.96-7.26,5.39-7.02,10.96-14.28,18.53-19.86,8.95-6.59,19.28-9.26,28.35-7.32,3.87.83,6.75,2.5,8.57,4.98,2.25,3.06,2.4,6.65,2.5,9.02l.67,16.18c.09,2.24.2,4.77,1.11,6.25,1.93,3.12,8.15,2.89,10.01,2.74,6.15-.48,12.3-2.21,17.8-5,2.55-1.29,5.66-.27,6.96,2.28,1.29,2.55.27,5.66-2.28,6.96-6.69,3.39-14.18,5.5-21.67,6.08-.97.08-1.92.11-2.84.11Z"/>
      <path class="cls-14" d="m85.52,253.9c.99,7.31.23,14.62,1.22,21.94.29,2.15.59,4.32,1.39,6.33,2.07,5.19,7.1,8.49,11.86,11.41,29.24,17.95,59.36,34.43,89.46,50.9,2.23,1.22,4.65,2.48,7.18,2.23,2.3-.23,4.27-1.67,6.12-3.07,16.3-12.28,32.6-24.56,48.89-36.84,3.24-2.45,7.95-7.47,10.19-10.86,4.48-6.76,4.22-17.32,3.48-25.4l-.03-8.09-17.32-5.87-68.73-29.42"/>
      <path class="cls-14" d="m197.74,339.69c.12-6.4.24-12.79.35-19.19,0-.5.02-1.01.03-1.51"/>
      <path class="cls-12" d="m198.51,238.13c-2.12,0-4.11-1.32-4.87-3.43-.97-2.69.43-5.66,3.12-6.62,9.69-3.48,18.73-8.5,26.84-14.93,7.45-5.89,15.46-14.44,15.58-20.77.03-1.29-.23-3.26-2.78-5.45-3.22-2.76-8.98-2.46-14.13-1.95-1.61.16-5.04.62-9.39,1.21-69.59,9.38-102.03,9.35-111.96-.14-2.54-2.42-3.72-5.48-3.42-8.85.22-2.51,1.45-4.56,2.35-5.89,5.12-7.51,14.18-9.96,21.47-11.93l.3-.08c4.76-1.29,9.58-2.07,14.25-2.82,6.61-1.07,12.86-2.08,18.66-4.4,6.39-2.56,13.55-7.98,14.51-15.55.36-2.83,2.94-4.83,5.79-4.49,2.84.36,4.85,2.95,4.49,5.79-1.52,12.02-11.81,20.21-20.93,23.86-6.86,2.75-13.98,3.9-20.86,5.01-4.61.74-8.96,1.45-13.2,2.59l-.3.08c-5.93,1.6-12.65,3.42-15.61,7.76-.51.75-.6,1.06-.61,1.09.04.08,3.28,6.08,40.87,4.22,22.85-1.13,48.86-4.64,62.83-6.52,4.63-.62,7.97-1.08,9.76-1.25,5.26-.51,15.04-1.47,21.88,4.4,4.28,3.67,6.49,8.35,6.38,13.51-.24,11.72-12.32,23-19.51,28.68-9,7.12-19.02,12.69-29.77,16.55-.58.21-1.17.31-1.75.31Z"/>
      <path class="cls-14" d="m165.65,211.83c31.04,15.66,62.08,31.32,93.12,46.98,1.89.95,3.79,1.91,5.68,2.86.35.18.74.39.85.77.15.5-.25.98-.61,1.35-16.83,16.99-35.37,32.28-55.26,45.55-1.52,1.02-3.09,2.04-4.87,2.46-2.2.53-4.5.09-6.7-.45-18.2-4.49-33.71-15.99-49.28-26.42-19.42-13-39.72-24.7-60.71-34.98-.62-.31-1.31-.68-1.49-1.35-.3-1.1.93-1.96,1.96-2.44,22.57-10.43,45.14-20.86,67.71-31.3"/>
      <path class="cls-5" d="m187.83,272.75c-2.96.55-5.7,2.27-7.48,4.7-1.01,1.38-1.73,3.03-1.73,4.73,0,3.9,3.61,6.8,7.14,8.46,6.6,3.11,14.64,3.99,21.13.65,2.34-1.21,4.55-3.14,5.06-5.72.43-2.19-.46-4.48-1.85-6.23-1.99-2.5-4.95-4.08-8.02-4.96s-6.29-1.1-9.48-1.28c-2.56-.15-5.19-.27-7.62.53"/>
      <path class="cls-12" d="m123.91,242.74c-2.98,1-5.85,2.35-8.51,4.02-.3.19-.62.42-.65.77-.03.42.38.72.74.93,15.33,8.89,32.99,14.2,46.13,26.08.43.39.92.82,1.51.81.49,0,.91-.3,1.31-.59,3.22-2.34,6.45-4.69,9.67-7.03-15.33-8.23-30.83-16.16-46.48-23.78"/>
      <path class="cls-7" d="m165.74,233.89c-1.54-4.33-12.38-5.16-11.6.67.26,1.95,2.65,2.72,4.6,3,2.23.32,4.84.43,6.36-1.23.6-.65.94-1.61.64-2.44Z"/>
      <path class="cls-2" d="m184.43,242.03c-1.18-4.52-12.28-4.95-10.31,1.07.63,1.91,2.55,3.14,4.5,3.63,1.14.28,2.38.36,3.47-.07,1.75-.7,2.82-2.8,2.34-4.63Z"/>
      <path class="cls-10" d="m202.97,253.17c-.71-4.9-12.89-7.86-11.11-.4.48,1.99,2.2,3.52,4.12,4.23,1.5.56,3.23.69,4.69.02s2.53-2.26,2.3-3.85Z"/>
      <path class="cls-15" d="m555.1,328.28c3.62,29.71,10.32,59.05,19.96,87.39,1.03,3.04,2.65,6.54,5.82,7.02,2.54.38,4.97-1.55,6.01-3.9,1.04-2.35,1.01-5.01.95-7.57-.72-29.13-3.56-58.21-8.49-86.92"/>
      <path class="cls-15" d="m622.63,293.77c11.24,13.13,22.48,26.26,33.72,39.38,2.02,2.36,4.47,4.92,7.57,4.85,3.64-.08,6.22-4.03,6.18-7.67-.04-3.64-1.94-6.98-3.78-10.12-10.27-17.5-20.54-35.01-30.81-52.51"/>
      <path class="cls-15" d="m292.75,269.72c-9.21,22.15-20.87,43.19-31.25,64.82-2.6,5.42-4.79,12.76-.28,16.73,3.04,2.67,7.91,2.2,11.31,0,3.4-2.19,5.68-5.72,7.85-9.13,13.48-21.2,26.95-42.4,40.43-63.6"/>
      <path class="cls-15" d="m289.71,236.65c-2.26-.73-4.85,2.96-4.63,8.71.31,8.18-.52,16.35-.78,24.53-.08,2.49-.14,5.08.83,7.38,2.26,5.31,8.86,6.94,14.55,7.89,28.77,4.9,57.51,9.88,86.21,15.17,57.4,10.57,115.42,17.48,173.07,26.48,5.76.9,11.59,1.8,17.41,1.34,14.13-1.13,25.02-11.05,34.86-20.26,9-8.42,17.37-17.5,25.05-27.14,7.18-9.02,8.99-18.15,9.18-29.33.1-5.86,2.52-19.74-3.49-21.42"/>
      <path class="cls-15" d="m300.25,246.26c87.19,16.58,156.59,23.8,243.98,39.29,8.08,1.43,32.81,6.29,40.45,4.56,8.64-1.95,18.09-9.53,25-15.08,11.92-9.57,22.47-23.99,31.89-36.04"/>
      <path class="cls-14" d="m294.15,63.53c31.51-18.03,63.03-36.07,94.54-54.1,17.02-9.74,38.06-6.25,56.55-3.46,45.7,6.89,90.93,14.76,136.34,23.4,10.03,1.91,20.07,3.8,30.11,5.64,8.87,1.62,18.99,2.09,26.37,7.88,7.54,5.91,9.33,16.35,10.16,25.31,1.03,11.09,1.08,22.37,1.61,33.5,1.19,19.39-.06,38.63-.82,57.99-.75,18.98-2.5,38.01-6.29,56.66-1.21,5.94-2.55,10.97-6.86,15.48-9.98,10.44-35.91,34.76-51.76,48.07l-10.54-.16-46.94-21.27-229.7-36.32-11.59-86.31"/>
      <path class="cls-18" d="m598.46,113.76c13.79-16.13,39.76-54.47,39.37-53.89"/>
      <path class="cls-14" d="m287.95,76.45c-3.08,48.33-3.61,88.14-2.65,136.55.1,5,.28,10.23,2.71,14.61,4.66,8.41,15.54,10.61,25.06,11.94,88.36,12.27,172.11,27.93,260.47,40.2,1.25.17,2.54.35,3.77.05,4.05-.97,8.85-3.38,10.33-13.55,6.76-46.53,6.67-93.87,5-140.86-.11-3-.35-6.3-2.48-8.41-1.67-1.66-4.13-2.18-6.44-2.63-97.63-18.98-196.03-34.02-294.88-45.05"/>
      <path class="cls-13" d="m313.73,102.61c-3.3,32.34-5.05,64.84-5.25,97.35-.01,1.87,0,3.82.87,5.48,1.53,2.94,5.15,4,8.39,4.72,21.83,4.85,44.08,7.56,66.28,10.25,33.98,4.13,67.96,8.25,101.94,12.38,1.72.21,3.63.37,5.02-.66,1.09-.81,1.59-2.17,2.01-3.46,4.43-13.72,5.52-28.26,6.38-42.65,1.08-18.02,1.85-36.06,2.31-54.11.04-1.74.06-3.58-.83-5.08-1.41-2.36-4.49-2.99-7.21-3.38-58.41-8.46-116.93-16.14-175.54-23.03"/>
      <g>
        <path class="cls-3" d="m544.65,154.09c-5.51,0-10.85-4.03-12.42-9.38-1.25-4.27-.22-9.19,2.69-13.04.21-.36.51-.7.89-1.04.02-.02.34-.3.45-.4.08-.08.16-.16.24-.23.18-.15.57-.48,1.17-.67,1.72-.77,3.55-1.16,5.44-1.16,2.86,0,5.71.9,8.24,2.62,3.72,2.52,5.51,7.3,4.67,12.48-.84,5.14-4.13,9.23-8.38,10.42-.97.27-1.97.41-2.99.41h0Z"/>
        <path class="cls-8" d="m543.11,131.17c2.29,0,4.56.75,6.56,2.1,6.01,4.07,3.94,15.64-2.83,17.52-.72.2-1.45.3-2.19.3-4.2,0-8.33-3.11-9.54-7.22-1.12-3.83.15-8.01,2.69-10.99.23-.2.54-.48.68-.61,1.49-.75,3.07-1.1,4.63-1.1m-4.56,1.03s-.02.03-.07.07c0,0-.02.01-.03.02.07-.06.1-.08.1-.08m-.74.67h0m0,0s0,0,0,0c-.16.14-.28.24-.28.24s.08-.07.28-.25m5.31-7.7c-2.27,0-4.45.46-6.52,1.36-.72.25-1.39.65-2.03,1.18-.13.11-.26.23-.38.35-.09.08-.18.17-.28.25-.04.04-.08.07-.12.11-.58.52-1.03,1.06-1.36,1.59-3.39,4.58-4.57,10.42-3.07,15.55,1.95,6.68,8.39,11.54,15.29,11.54,1.29,0,2.57-.17,3.8-.51,5.46-1.52,9.49-6.43,10.54-12.82,1.04-6.35-1.24-12.27-5.95-15.45-3.03-2.05-6.46-3.13-9.92-3.13h0Z"/>
      </g>
      <g>
        <path class="cls-6" d="m544.74,189.84c-3.81,0-7.41-2.78-8.55-6.6-.71-2.39-.48-5.13.63-7.5.88-1.89,2.69-2.97,4.95-2.97,4.19,0,10.19,4.01,10.83,8.28.3,2.01-.32,4.12-1.69,5.8-1.47,1.79-3.57,2.88-5.78,2.99-.13,0-.26,0-.39,0h0Z"/>
        <path class="cls-8" d="m541.77,175.77c2.95,0,7.48,3.16,7.86,5.72.4,2.63-1.99,5.21-4.65,5.34-.08,0-.16,0-.24,0-2.56,0-4.94-1.99-5.67-4.46-.52-1.76-.3-3.72.47-5.37.41-.88,1.23-1.24,2.23-1.24m0-6c-3.42,0-6.29,1.76-7.66,4.7-1.42,3.03-1.71,6.54-.79,9.63,1.51,5.07,6.31,8.74,11.42,8.74.18,0,.36,0,.54-.01,3.05-.15,5.95-1.64,7.95-4.09,1.91-2.33,2.76-5.3,2.33-8.14-.88-5.83-8.32-10.83-13.8-10.83h0Z"/>
      </g>
      <g>
        <path class="cls-1" d="m542.42,215.17c-2.6,0-4.96-1.07-6.47-2.93-1.76-2.17-2.28-5.34-1.36-8.27.98-3.11,3.45-4.96,6.6-4.96.14,0,.28,0,.42.01,3.01.16,6.17,2.01,7.88,4.62,1.34,2.05,1.65,4.33.87,6.43-1.14,3.06-4.33,5.11-7.94,5.11h0Z"/>
        <path class="cls-8" d="m541.19,202.01c.09,0,.18,0,.26,0,3.39.18,7.32,3.71,6.09,6.99-.77,2.05-2.96,3.16-5.13,3.16-1.58,0-3.14-.59-4.15-1.82-1.23-1.51-1.39-3.67-.82-5.48.64-2.04,2.11-2.86,3.74-2.86m0-6c-4.47,0-8.09,2.7-9.47,7.06-1.22,3.89-.5,8.13,1.89,11.07,2.08,2.57,5.29,4.04,8.8,4.04,4.85,0,9.17-2.84,10.75-7.06,1.11-2.97.68-6.29-1.17-9.12-2.24-3.42-6.25-5.76-10.23-5.97-.19-.01-.39-.02-.58-.02h0Z"/>
      </g>
      <g>
        <path class="cls-9" d="m543.46,245c-3.8,0-7.21-1.84-8.89-4.8-2.06-3.63-1.5-6.11-.66-7.56,1.21-2.07,3.64-3.21,6.84-3.21s7.81,1.29,10.19,4.11c1.88,2.23,2.63,6.03-1.4,9.45-1.23,1.04-2.82,1.69-4.71,1.93-.45.06-.91.08-1.37.08h0Z"/>
        <path class="cls-8" d="m540.76,232.43c2.89,0,6.34,1.2,7.9,3.04,1.21,1.44,1.26,3.27-1.05,5.22-.87.74-2.01,1.1-3.14,1.24-.33.04-.67.06-1.01.06-2.5,0-5.06-1.12-6.28-3.28-2.57-4.53.08-6.29,3.58-6.29m0-6c-4.26,0-7.7,1.71-9.44,4.7-1.01,1.74-2.27,5.42.64,10.55,2.21,3.9,6.62,6.31,11.5,6.31.58,0,1.17-.04,1.74-.11,2.48-.31,4.59-1.19,6.28-2.61,3.73-3.16,5.88-8.79,1.76-13.67-3.01-3.58-8.44-5.18-12.48-5.18h0Z"/>
      </g>
      <path class="cls-11" d="m66.64,206.17c-7.13,35.27-17.18,69.6-15.69,104.91,1.15,27.08,8.1,61.35,20.73,83.9,14.1,25.17,37,48.59,61.01,64.44,26.23,17.31,58.59,24.83,89.14,15.45,27.68-8.5,48.56-30.1,74.98-41.41,25.43-10.88,54.27-12.51,78.22-4.43,23.95,8.08,42.71,25.77,50.88,47.98-15.09-13.5-33.3-24.73-54.78-28.61-37.92-6.84-65.33,16.9-95.01,38.77-66.45,48.94-147.85,32.88-200.26-8.56-35.31-27.92-55.19-68-67.55-109.91-12.47-42.26-4.64-157.57,41.53-174.93"/>
      <g>
        <path class="cls-17" d="m17.12,238.47c.83,5.95,1.86,11.84,3.12,17.65,6.82,31.42,28.81,50.64,62.52,51.18,23.23.38,53.73-7.08,62.17-30.71,1.59-4.46,2.2-9.2,2.05-13.89-.31-9.53-3.08-19.2-7.99-27.61-5.23-8.96-13.4-15.57-19.67-23.77-4.51-5.9-7.03-13.47-8.29-20.64-2.38-13.48-1.92-27.81-2.99-41.47-2.32-29.42-1.42-70.35-34.4-84.99-17.5-7.07-40.34-1.57-50.31,14.59-4.82,7.82-5.61,16.44-6.49,25.31-.96,9.69-1.27,19.41-1.59,29.13-1.11,34.32-2.94,70.7,1.87,105.22Z"/>
        <path class="cls-19" d="m87.01,183.15c.13,5.51.26,11.02.4,16.54"/>
        <path class="cls-19" d="m56.99,178.68c-.14,7.21-.28,14.43-.42,21.64"/>
      </g>
      <g>
        <path class="cls-16" d="m357.08,384.93c7.99,32.87,19.93,84.76,27.92,117.63,1.19,4.88,2.5,10.01,6,13.62,3.23,3.34,7.85,4.89,12.35,6.04,12.03,3.07,24.57,4.09,36.94,3,8.94-.79,18.41-3.02,24.41-9.69,5.16-5.73,6.83-13.71,8.23-21.3,5.19-28.06,16.92-68.28,20.19-96.63"/>
        <path class="cls-4" d="m400.61,516.89c-4.82-29.81-9.45-81.84-15.81-110.72l-12.54-2.21c5.99,30.27,14.93,81,20.92,111.27"/>
        <path class="cls-4" d="m460.31,517.92c2.56-36.12,5.11-73.75,7.67-109.88l-11.89,1.71c-2.67,33.38-2.88,76.91-5.55,110.29"/>
        <path class="cls-4" d="m430.45,523.77c-.68-25.1-2.5-50.16-5.45-75.04-1.42-11.93-4.61-26.59-3.78-38.59l-10.94-.26c6.03,36.98,9.7,74.46,10.96,112.04"/>
        <path class="cls-16" d="m357.08,384.31c1.28,5.03,5.83,11.46,10.17,14.31,15.02,9.84,36.58,11.09,53.93,11.43,21.19.42,46.16-1.33,65.02-11.91,9.63-5.4,11.6-16.48,3.37-24.46-4.04-3.91-9.43-6.11-14.81-7.75-16.18-4.94-33.27-6.39-50.13-6.15s-34.65.75-50.33,6.34c-5.75,2.05-11.4,5.26-14.6,10.45"/>
        <path class="cls-11" d="m363.31,379.26c.77,3.35,3.24,6.26,6.43,7.55,3.19,1.29,6.99.92,9.87-.96-.91,1.58-1.85,3.28-1.74,5.09s1.79,3.65,3.55,3.21c1.02-.26,1.92-1.19,2.93-.95,1.04.25,1.39,1.52,1.72,2.54,1.26,3.94,5.14,6.9,9.28,7.08,4.14.18,8.25-2.44,9.85-6.26-.51,1.55-1.03,3.16-.89,4.79.14,1.63,1.1,3.31,2.68,3.76.97.28,2.01.06,2.98-.23,4.55-1.34,8.64-4.19,11.48-8,1.39,2.16,3.99,3.48,6.55,3.34s4.99-1.75,6.13-4.05c1.54,2.86,5.48,3.66,8.57,2.65s5.51-3.37,7.82-5.65c.88,1.97,3.27,3.11,5.35,2.56,2.08-.55,3.6-2.73,3.39-4.87,2.13,3.14,6.13,5.08,9.83,4.26,3.7-.82,6.63-4.69,5.91-8.41,2.35.88,5.1,1.15,7.27-.09,2.17-1.24,3.33-4.36,1.86-6.39,1.54.59,3.32-.41,4.18-1.81s1.02-3.12,1.17-4.76c.19-2.21.38-4.41.57-6.62.15-1.67.25-3.49-.68-4.89-.94-1.39-3.37-1.81-4.19-.34-3.02-4.56-9.11-6.85-14.38-5.4-5.15-3.95-12.36-5.03-18.44-2.76-5.21-2.34-10.54-4.71-16.22-5.31-5.68-.6-11.89.85-15.69,5.12-4.66-2.82-11.7.33-12.7,5.68-4.67-4.23-11.8-4.06-18-2.88-2.23.43-4.62,1.06-6.02,2.85-1.4,1.79-.97,5.05,1.23,5.61.08-2.32-1-4.56-2.58-6.26-2.82-3.04-7.69-4.39-11.28-2.32-3.59,2.07-4.58,7.91-1.31,10.46,1.21-1.47-1.31-3.64-3.02-2.8-1.71.84-2.22,3.04-2.23,4.95-.03,3.74,1.94,8.22,5.67,8.41"/>
        <path class="cls-11" d="m445.8,394.33c-1.12,1.19-.31,3.31,1.13,4.09s3.18.61,4.8.42c-.67,1.56.66,3.48,2.33,3.78s3.38-.7,4.34-2.11c.33-.49.6-1.03,1.01-1.44.61-.6,1.46-.87,2.2-1.3,2.98-1.73,3.56-6.47,1.09-8.88-.03.37.42.64.77.53s.58-.46.66-.82c.22-.98-.45-2-1.33-2.48-.89-.48-1.93-.54-2.94-.53-2.97.03-5.91.53-8.79,1.25-1.16.29-2.35.64-3.25,1.42-.97.84-1.49,2.09-1.72,3.35"/>
        <path class="cls-11" d="m449.58,357.22c-1.42.81-1.26,3.08-.12,4.24,1.15,1.16,2.86,1.51,4.46,1.81-1.09,1.3-.39,3.52,1.12,4.3s3.44.32,4.76-.75c.46-.37.87-.81,1.39-1.08.76-.4,1.65-.41,2.48-.6,3.36-.79,5.3-5.15,3.63-8.17-.13.34.22.73.59.73s.69-.27.87-.59c.5-.87.16-2.04-.55-2.76s-1.69-1.08-2.66-1.36c-2.85-.84-5.81-1.22-8.77-1.37-1.19-.06-2.43-.08-3.53.41-1.17.52-2.04,1.56-2.62,2.7"/>
        <path class="cls-11" d="m392.46,356.92c-1.12,1.19-.31,3.31,1.13,4.09s3.18.61,4.8.42c-.67,1.56.66,3.48,2.33,3.78s3.38-.7,4.34-2.11c.33-.49.6-1.03,1.01-1.44.61-.6,1.46-.87,2.2-1.3,2.98-1.73,3.56-6.47,1.09-8.88-.03.37.42.64.77.53s.58-.46.66-.82c.22-.98-.45-2-1.33-2.48-.89-.48-1.93-.54-2.94-.53-2.97.03-5.91.53-8.79,1.25-1.16.29-2.35.64-3.25,1.42-.97.84-1.49,2.09-1.72,3.35"/>
        <path class="cls-11" d="m427.03,369.24c.69-1.48-.74-3.24-2.35-3.53s-3.21.41-4.69,1.1c.14-1.69-1.71-3.1-3.39-2.86s-2.99,1.72-3.46,3.36c-.16.57-.25,1.16-.51,1.68-.39.76-1.11,1.29-1.68,1.92-2.29,2.58-1.36,7.26,1.74,8.77-.09-.36-.6-.47-.9-.26s-.41.62-.37.99c.09,1,1.05,1.76,2.04,1.94s2-.09,2.96-.42c2.81-.95,5.45-2.35,7.96-3.94,1.01-.64,2.03-1.34,2.65-2.37.66-1.1.76-2.45.59-3.72"/>
      </g>
    </g>
  </g>
</svg>