<?xml version="1.0" encoding="UTF-8"?>
<svg id="_레이어_2" data-name="레이어 2" xmlns="http://www.w3.org/2000/svg" viewBox="0 0 317.65 730.99">
  <defs>
    <style>
      .cls-1, .cls-2, .cls-3 {
        stroke: #231815;
      }

      .cls-1, .cls-2, .cls-3, .cls-4, .cls-5, .cls-6 {
        stroke-linejoin: round;
        stroke-width: 6px;
      }

      .cls-1, .cls-3 {
        fill: #534844;
      }

      .cls-2 {
        fill: #c49c62;
      }

      .cls-2, .cls-3, .cls-4, .cls-5, .cls-6 {
        stroke-linecap: round;
      }

      .cls-4 {
        fill: #ebad33;
      }

      .cls-4, .cls-5, .cls-6 {
        stroke: #221714;
      }

      .cls-5 {
        fill: #ffda4e;
      }

      .cls-6 {
        fill: none;
      }
    </style>
  </defs>
  <g id="_레이어_3" data-name="레이어 3">
    <g>
      <g>
        <path class="cls-3" d="m82,572.85c-9.91.3-19.81,1.28-29.55,3.17-4.93.96-9.81,2.14-14.62,3.57-2.95.88-6.12,1.4-8.99,2.49-2.99,1.14-5.52,3.19-8.37,4.61-1.39.69-2.87,1.24-4.42,1.37-10.5.9-10.87-10.96-5.76-17.01,8.96-10.61,23.55-14.36,37.3-16.3,11.79-1.67,23.76-2.45,35.6-1.19,4.41.47,9.05,1.33,12.38,4.26,3.33,2.93,4.64,8.56,1.63,11.82-3.09,3.34-7.92,2.9-12.05,3.09-1.04.05-2.09.08-3.13.12Z"/>
        <g>
          <ellipse class="cls-1" cx="158.83" cy="497.03" rx="151.76" ry="58.99"/>
          <path class="cls-2" d="m288.72,483.37c-6.26-3.96-13.57-6.1-20.55-7.9-6.13-1.59-10.67-2.06-16-6.06-5.1-3.82-8.6-10.19-15.39-12.74-7.07-2.65-14.74.64-21.77,3.63-7.03,2.98-15.78,6.61-23.33,5.02-9.01-1.89-12.15-9.53-21.44-11.07-9.29-1.54-13,6.08-22.29,10.52-10.75,5.13-17.88-3.69-27.12-7.79-9.23-4.1-16.55.41-23.79,4.62-8.1,4.71-15.97,11.63-25,10.72-5.86-.59-8.33-4.87-13.75-3.74-7.33,1.53-9.84,9.4-15.78,12.79-6.6,3.76-14.2-.16-20.72,3.4-5.63,3.07-6.24,9.97-4.95,15.51,3.62,15.58,11.66,27.54,23.94,37.47l198.29,62.18c16.98-13.96,34.74-28.07,47-46.46,8.34-12.5,12.89-23.19,14.26-39.31.99-11.66.76-22.95-11.61-30.78Z"/>
          <path class="cls-1" d="m201.53,538.65h-85.41l-103.04-31s0,.13.01.38c.07,2.34.53,15.38,2.2,33.88.38,4.2.82,8.67,1.34,13.36.59,5.34,1.27,10.97,2.06,16.79.21,1.52.42,3.04.64,4.59.2,1.43.42,2.87.63,4.31.72,4.78,1.51,9.66,2.38,14.59.28,1.56.56,3.12.86,4.69.67,3.6,1.38,7.22,2.15,10.84.03.15.06.29.09.44,1.07,5.05,2.23,10.11,3.49,15.12.61,2.42,1.24,4.83,1.9,7.23.04.16.08.31.13.47.23.85.47,1.69.71,2.53.12.43.24.85.36,1.28.1.33.2.66.29,1,.64,2.19,1.29,4.37,1.98,6.53.07.22.15.45.22.67,1.11,3.49,2.28,6.93,3.51,10.3.18.49.36.97.54,1.45.26.7.52,1.4.79,2.1.04.1.08.19.12.29,2.68,6.93,5.63,13.52,8.88,19.59.86,1.61,1.76,3.18,2.66,4.72.25.42.49.84.73,1.25.08.13.17.26.25.39.5.83,1.01,1.64,1.53,2.44.97,1.5,1.96,2.94,2.98,4.34.25.34.48.69.73,1.02h0s0,0,0,0c8.47,13.23,28.69,20.18,42.49,24.55,19.5,6.18,39.31,9.23,59.1,9.21,19.79.02,39.6-3.02,59.1-9.21,13.8-4.38,34.03-11.32,42.49-24.55h0s0,0,0,0c.62-.83,1.23-1.69,1.83-2.55.02-.02.04-.05.05-.07,8.55-12.36,15.38-28.15,20.84-45.27.07-.22.15-.44.22-.67,1.12-3.54,2.18-7.14,3.18-10.78.05-.19.11-.37.16-.56,2.06-7.5,3.89-15.16,5.51-22.82.03-.15.06-.29.09-.44,1.07-5.1,2.05-10.19,2.95-15.22.02-.1.04-.2.05-.3,1.13-6.36,2.12-12.63,2.99-18.72,0-.06.02-.12.03-.18.22-1.54.43-3.07.64-4.59.79-5.82,1.47-11.45,2.06-16.79.52-4.7.96-9.17,1.34-13.36,1.68-18.51,2.13-31.54,2.2-33.88,0-.25.01-.38.01-.38l-103.04,31Z"/>
          <path class="cls-1" d="m314.65,492.25c0-.22,0-.44,0-.65-.13-7.49-2.3-14.94-6.68-21.62-2.06-3.28-4.57-6.34-7.51-9.07-29.37-27.28-80.16-27.62-120.02-28.6-9.69-.43-19.42-.62-29.14-.55-30.58-.21-61.3,1.19-90.8,8.6-20.98,5.27-42.01,14.79-51.81,31.17-.16.27-.33.54-.49.81-.04.08-.08.15-.13.23-3.4,5.99-5.04,12.56-5.07,19.15,0,.03,0,.06,0,.1,0,.21,0,.42,0,.63,0,.22,0,.43,0,.65.13,7.49,2.3,14.94,6.68,21.62,2.06,3.28,4.57,6.34,7.51,9.07,29.37,27.28,80.16,27.62,120.02,28.6,9.69.43,19.42.62,29.13.55,30.58.21,61.3-1.19,90.8-8.6,20.98-5.27,42.01-14.79,51.81-31.17.16-.27.33-.54.49-.81.04-.08.08-.15.13-.23,3.4-5.99,5.04-12.56,5.07-19.15,0-.03,0-.06,0-.1,0-.21,0-.42,0-.63Zm-21.94-8.06c-.03,4.56-1.43,9.11-4.36,13.26-.04.05-.07.11-.11.16-.14.19-.28.38-.42.56-8.42,11.33-26.49,17.93-44.52,21.58-25.35,5.13-51.74,6.1-78.02,5.95-8.35.05-16.7-.08-25.03-.38-34.24-.68-77.88-.91-103.12-19.8-2.53-1.89-4.68-4.01-6.45-6.28-3.76-4.62-5.63-9.78-5.74-14.96,0-.15,0-.3,0-.45,0-.15,0-.29,0-.44,0-.02,0-.04,0-.07.03-4.56,1.43-9.11,4.36-13.26.04-.05.07-.11.11-.16.14-.19.28-.38.42-.56,8.42-11.33,26.49-17.93,44.52-21.58,25.35-5.13,51.74-6.1,78.01-5.95,8.35-.05,16.71.08,25.03.38,34.24.68,77.88.91,103.12,19.8,2.53,1.89,4.68,4.01,6.45,6.28,3.76,4.62,5.63,9.78,5.74,14.96,0,.15,0,.3,0,.45,0,.15,0,.29,0,.44,0,.02,0,.04,0,.07Z"/>
        </g>
        <path class="cls-3" d="m245.68,609.99c1.97-.65,4.08-.52,6.13-.66,2.33-.16,4.59-.82,6.81-1.53,5.04-1.61,9.75-4.06,14.63-6.1,7.3-3.04,16.18-5.36,23.64-1.52.62.32,1.24.7,1.56,1.32,3.42,6.55-4.83,11.8-9.7,14.32-8.64,4.48-18.23,7.09-27.95,7.62-6.43.35-16.27.89-20.77-4.69-.84-1.04-1.35-2.36-.74-3.64.39-.81,1.07-1.45,1.74-2.05,1.29-1.15,2.64-2.3,4.25-2.92.13-.05.27-.1.41-.15Z"/>
        <path class="cls-3" d="m233.29,595.9c9.87-.95,19.69-2.59,29.28-5.12,4.85-1.28,9.65-2.78,14.35-4.53,2.88-1.07,6.02-1.8,8.8-3.08,2.91-1.33,5.3-3.55,8.05-5.16,1.34-.78,2.79-1.43,4.32-1.66,10.42-1.59,11.57,10.22,6.88,16.59-8.24,11.18-22.55,15.88-36.14,18.73-11.65,2.44-23.55,4.01-35.44,3.55-4.43-.17-9.11-.73-12.63-3.43-3.52-2.7-5.19-8.24-2.4-11.69,2.86-3.54,7.71-3.41,11.82-3.88,1.04-.12,2.08-.22,3.12-.32Z"/>
      </g>
      <g>
        <g>
          <path class="cls-4" d="m197.62,378.66c6.01,23.28,10.19,47.03,12.48,70.96.17,1.77.31,3.65-.53,5.22-.68,1.27-1.9,2.14-3.09,2.95-11.54,7.91-23.69,14.95-36.29,21.03"/>
          <path class="cls-6" d="m195.09,413.35c2.38,10.84,4.03,21.85,4.96,32.91"/>
          <path class="cls-6" d="m188.14,437.5c1.84,6.24,3.2,12.62,4.08,19.06"/>
        </g>
        <g>
          <path class="cls-4" d="m223.49,277.26c5.18,14.81,9.02,30.09,11.46,45.59.32,2.04.6,4.23-.27,6.1-.67,1.45-1.94,2.51-3.18,3.52-6.37,5.23-12.83,10.49-20.18,14.23-1.89.96-3.94,1.84-6.05,1.64-2.11-.2-4.22-1.86-4.2-3.98"/>
          <path class="cls-6" d="m219.07,301.8c2.2,5.62,3.72,11.51,4.54,17.49"/>
          <path class="cls-6" d="m213.78,319.71c2.04,3,3.58,6.34,4.53,9.84"/>
        </g>
        <g>
          <path class="cls-4" d="m131.63,184.62c-2.36,8.49-8.74,15.41-11.26,23.85-1.55,5.2-1.57,10.71-1.57,16.14,0,27.24.11,54.47.3,81.7,0,1.17.26,2.66,1.4,2.91.49.11,1-.08,1.47-.26,4.83-1.87,9.65-3.74,14.48-5.61"/>
          <path class="cls-6" d="m130.99,237.78c-2.2,3.31-3.9,6.94-5.05,10.74"/>
          <path class="cls-6" d="m133.95,262.59c-2.51,4.18-5.01,8.35-7.52,12.53"/>
        </g>
        <g>
          <path class="cls-4" d="m139.42,313.96c-7.84,18.74-15.8,38.08-15.94,58.39-.07,10.54,1.99,20.98,4.47,31.23,5.49,22.64,13.13,44.76,22.78,65.96"/>
          <path class="cls-6" d="m141.89,353.13c-4.3,7.43-7.9,15.27-10.73,23.37"/>
          <path class="cls-6" d="m143.19,380.04c-2.98,4.09-5.72,8.35-8.21,12.75"/>
          <path class="cls-6" d="m144.75,400.92c-2.8,2.2-5.35,4.72-7.57,7.49"/>
        </g>
        <path class="cls-4" d="m228.54,174.29c9.33,3.97,15.28,13.69,17.07,23.67,1.8,9.98.03,20.25-2.37,30.1-.17.71-.38,1.46-.95,1.92-1.52,1.22-3.52-.72-4.54-2.37-5.14-8.4-11.82-15.85-19.61-21.87"/>
        <path class="cls-5" d="m223.06,132.44l-44.56-78.7-2.83,6.98c-12.54-14.93-25.27-31.51-38.63-45.7-3.88,3.18-4.61,8.74-5.05,13.74-2.41,27.26-4.82,54.52-7.24,81.78-.9,10.19-1.8,20.42-1.44,30.65.3,8.43,1.46,16.82,3.01,25.11l-.46,10.41,11.22,132.28c2.4,28.27,4.8,56.56,5.43,84.93.53,23.65-.18,47.33-2.11,70.9-1.02,12.5-2.4,24.98-3.89,37.43.89.36,1.77.77,2.63,1.21,10.55.42,21.12.12,31.61-1.01,1.28-.33,2.56-.58,3.85-.74,1.17-8.92,2.98-17.8,4.79-26.61,7.08-34.48,14.17-68.95,21.25-103.43,4.4-21.42,8.81-42.86,14.44-64,7.81-29.31,18.03-58.39,19.42-88.7,1.12-24.47-5.75-62.73-11.42-86.56Z"/>
        <path class="cls-6" d="m138.79,175.93c4.58,2.9,9.39,5.42,14.37,7.55,3.55,1.51,7.32,2.84,11.17,2.6,8.52-.53,14.69-8.28,22.63-11.43,2.82-1.12,5.86-1.65,8.61-2.93,2.75-1.28,5.31-3.58,5.72-6.58"/>
        <path class="cls-5" d="m176.4,61.04c-1.1-20.43-2.76-37.58-2.89-58.04,22.37,10.76,31.62,40.42,40.62,66.52,1.4,4.06,2.82,8.22,2.76,12.52-.03,1.84-.32,3.7-.04,5.52.3,1.92,1.23,3.67,2.08,5.42,5.66,11.66,8.21,24.81,7.32,37.74-.27,3.86-.87,7.8-2.79,11.16-3.59,6.26-11.41,9.9-13.09,16.91"/>
        <path class="cls-6" d="m212.21,93.51c-1.28,14.15-6.61,27.9-15.2,39.21-.56.74-1.12,1.85-.45,2.49"/>
        <path class="cls-6" d="m217.35,114.28c.11,6.27-.87,12.57-2.9,18.51"/>
        <path class="cls-6" d="m139.52,32.92c-.05-.55.61-.95,1.15-.86s.98.5,1.37.89c9.86,9.79,17.92,21.2,26.4,32.21.69.9,1.55,1.88,2.68,1.87"/>
        <path class="cls-6" d="m185.9,22.44c-.41-.84-1.21-1.47-2.12-1.67-.67,2.8-.49,5.72-.29,8.59.79,11.78,1.57,23.56,2.36,35.34"/>
        <path class="cls-6" d="m191.98,70.82c-1.79,2.84-5.01,4.66-8.29,4.69"/>
        <path class="cls-6" d="m136.15,109.08c5.63-1.08,17.69-.89,16.14,7.83-.46,2.6-2.61,4.8-4.86,6.05-2.73,1.51-6.01,1.82-9.1,1.4"/>
        <path class="cls-6" d="m138.23,133.28c2.77-.18,5.61.04,8.31.72,3.52.88,8,2.94,6.96,7.36-.34,1.44-1.16,2.9-2.14,4.01-3.03,3.44-7.45,5.09-12.1,5.92"/>
        <path class="cls-6" d="m137.75,194.78c.18,1.83.81,5.5,2.61,6.5,3.23,1.79,4.84-5.07,5.18-7.09"/>
        <path class="cls-6" d="m152.94,200.36c.18,1.83.81,5.5,2.61,6.5,3.23,1.79,4.84-5.07,5.18-7.09"/>
        <path class="cls-6" d="m167.78,207.02c.18,1.83.81,5.5,2.61,6.5,3.23,1.79,4.84-5.07,5.18-7.09"/>
        <path class="cls-6" d="m139.58,211.4c.18,1.83.81,5.5,2.61,6.5,3.23,1.79,4.84-5.07,5.18-7.09"/>
        <path class="cls-6" d="m153.51,218.43c.18,1.83.81,5.5,2.61,6.5,3.23,1.79,4.84-5.07,5.18-7.09"/>
        <path class="cls-6" d="m146,268.88c.18,1.83.81,5.5,2.61,6.5,3.23,1.79,4.84-5.07,5.18-7.09"/>
        <path class="cls-6" d="m156.09,246.09c.18,1.83.81,5.5,2.61,6.5,3.23,1.79,4.84-5.07,5.18-7.09"/>
        <path class="cls-6" d="m165.51,230.79c.18,1.83.81,5.5,2.61,6.5,3.23,1.79,4.84-5.07,5.18-7.09"/>
        <path class="cls-6" d="m162.85,262.79c.18,1.83.81,5.5,2.61,6.5,3.23,1.79,4.84-5.07,5.18-7.09"/>
        <path class="cls-6" d="m140.16,230.56c.18,1.83.81,5.5,2.61,6.5,3.23,1.79,4.84-5.07,5.18-7.09"/>
        <path class="cls-6" d="m139.28,248.82c.18,1.83.81,5.5,2.61,6.5,3.23,1.79,4.84-5.07,5.18-7.09"/>
        <path class="cls-4" d="m182.71,193.99c1.98,24.63,3.75,49.29,5.58,73.94.11,1.49.27,3.08,1.24,4.21,3.39,3.94,9.17-5.31,10.97-7.33,3.97-4.46,7.57-9.25,10.74-14.3,2.39-3.81,4.58-7.92,5.06-12.39.6-5.61-1.53-11.12-3.8-16.28-3.71-8.46-7.89-16.7-12.07-24.94"/>
        <path class="cls-6" d="m205.95,238.28c-1.98-6.99-3.96-13.99-5.93-20.98"/>
        <path class="cls-6" d="m198.11,248.62c-.85-6.9-1.75-13.79-2.71-20.67"/>
        <path class="cls-6" d="m159.66,279.77c.22,1.11.43,2.21.65,3.32.15.76.31,1.55.79,2.15.94,1.17,2.85,1.18,4.07.31,1.22-.87,1.84-2.37,2.07-3.86.05-.32.09-.65.08-.98"/>
        <path class="cls-6" d="m176.2,282.07c.22,1.11.43,2.21.65,3.32.15.76.31,1.55.79,2.15.94,1.17,2.85,1.18,4.07.31s1.84-2.37,2.07-3.86c.05-.32.09-.65.08-.98"/>
        <path class="cls-6" d="m166.6,323.17l.65,3.32c.15.76.31,1.55.79,2.15.94,1.17,2.85,1.18,4.07.31,1.22-.87,1.84-2.37,2.07-3.86.05-.32.09-.65.08-.98"/>
        <path class="cls-6" d="m148.17,296.65c-.02,1.63.49,3.26,1.42,4.6.29.41.63.81,1.08,1.01.69.32,1.54.13,2.16-.31.62-.44,1.06-1.09,1.44-1.75.5-.88.91-1.82,1.22-2.78"/>
        <path class="cls-6" d="m150.73,313.14c.11,1.26.37,2.5.77,3.7.25.75.63,1.55,1.36,1.84.44.18.95.13,1.41.02,1.78-.43,3.28-1.85,3.81-3.6"/>
        <path class="cls-6" d="m162.87,300.17c.08,1.03.17,2.09.6,3.03s1.26,1.77,2.29,1.89c1.16.14,2.28-.67,2.86-1.69.58-1.02.75-2.21.9-3.38"/>
        <path class="cls-6" d="m153.41,356.99c.08,1.03.17,2.09.6,3.03.43.94,1.26,1.77,2.29,1.89,1.16.14,2.28-.67,2.86-1.69s.75-2.21.9-3.38"/>
        <path class="cls-6" d="m153.82,379.37c.08,1.03.17,2.09.6,3.03.43.94,1.26,1.77,2.29,1.89,1.16.14,2.28-.67,2.86-1.69s.75-2.21.9-3.38"/>
        <path class="cls-6" d="m163.87,346.73c.08,1.03.17,2.09.6,3.03.43.94,1.26,1.77,2.29,1.89,1.16.14,2.28-.67,2.86-1.69.58-1.02.75-2.21.9-3.38"/>
        <path class="cls-6" d="m152.21,332.76c-.06,1.02-.12,2.06.13,3.05.25.99.86,1.94,1.8,2.34.44.19.94.24,1.42.23,1.36-.05,2.68-.72,3.53-1.78.85-1.06,1.21-2.5.97-3.84"/>
      </g>
    </g>
  </g>
</svg>