<svg width="22" height="21" viewBox="0 0 22 21" fill="none" xmlns="http://www.w3.org/2000/svg">
<path fill-rule="evenodd" clip-rule="evenodd" d="M1.6104 20.2383C1.02461 19.6525 1.02461 18.7028 1.6104 18.117L9.2243 10.5031L1.41737 2.69618C0.831581 2.11039 0.831581 1.16064 1.41737 0.574855C2.00315 -0.010931 2.9529 -0.0109315 3.53869 0.574855L11.3456 8.38179L19.2881 0.43934C19.8739 -0.146447 20.8236 -0.146447 21.4094 0.43934C21.9952 1.02513 21.9952 1.97487 21.4094 2.56066L13.4669 10.5031L21.2164 18.2525C21.8021 18.8383 21.8021 19.7881 21.2164 20.3738C20.6306 20.9596 19.6808 20.9596 19.095 20.3738L11.3456 12.6244L3.73172 20.2383C3.14593 20.8241 2.19619 20.8241 1.6104 20.2383Z" fill="white"/>
</svg>
