<svg id="Layer_1" data-name="Layer 1" xmlns="http://www.w3.org/2000/svg" viewBox="0 0 2904.08 230.63"><path d="M258.4,457.74l.44,55.76-147.65,2.67V466.22c0-4,.89-8.93.89-12.94s-2.68-6.25-8.92-7.59-38.37-5.35-44.61-5.35c-4.46,0-10.71,4.91-10.71,7.58s0,2.68,4,4.46a217.91,217.91,0,0,1,23.2,12.05c3.57,2.23,4,3.12,4,7.13l2.23,153.9c.44,21.41,3.13,29.89,8.92,29.89s12.49-7.58,16.51-17.4l153.45-3.12c1.33,10.71,4,16.06,7.58,16.06,10.71,0,21-19.63,21-38.81L290.51,456c0-3.57,1.34-9.36,1.34-12.93,0-4.46-2.23-6.25-8.47-8.48-7.59-2.67-37.92-9.82-44.17-9.82-4,0-9.81,4.92-9.81,7.15s0,2.23,4.46,4.9a196.17,196.17,0,0,1,20.08,13.38c4.46,3.58,4.46,3.58,4.46,7.59m.44,71.37.44,90.11L110.75,621.9v-3.13l.44-87Z" transform="translate(-47.84 -424.72)"/><path d="M2495.58,520.19c16.5-.89,36.13-1.34,59.77-1.34,15.61,0,39.7-.45,59.34.9,13.82.88,22.29,1.33,27.2,1.33,9.37,0,13.83-5.35,13.83-13.38a12.11,12.11,0,0,0-7.58-11.6c-8.93-4-29.45-9.37-42.83-9.37-4,0-7.13.9-13.82,3.57-13.38,5.36-20.08,7.59-33.91,8.48-35.69,2.23-2027.47,4.9-2114.9,6.24a610.61,610.61,0,0,1-86.1-5.35l-9.36-1.34c-1.34,0-2.68.89-2.68,3.57a3.37,3.37,0,0,0,1.78,3.12c15,10.13,34.19,21.79,48.18,27.66a23.84,23.84,0,0,0,8.92,2.23c3.13,0,4.91-.89,11.15-5.35,4.91-3.57,11.16-5.35,25.43-6.24,29-1.79,51.75-1.34,69.15-2.24Z" transform="translate(-47.84 -424.72)"/><path d="M2465.39,514.84l-2.23,74.94c-.9,29-11.15,53.09-21,53.09-5.8,0-7.59-14.28-8-44.17l-.89-83Z" transform="translate(-47.84 -424.72)"/><path d="M2090.85,514.84l-2.23,74.94c-.89,29-11.15,53.09-21,53.09-5.79,0-7.57-14.28-8-44.17l-.9-83Z" transform="translate(-47.84 -424.72)"/><path d="M1716.32,514.84l-2.23,74.94c-.9,29-11.15,53.09-21,53.09-5.8,0-7.58-14.28-8-44.17l-.89-83Z" transform="translate(-47.84 -424.72)"/><path d="M1341.78,514.84l-2.23,74.94c-.89,29-11.15,53.09-21,53.09-5.8,0-7.59-14.28-8-44.17l-.9-83Z" transform="translate(-47.84 -424.72)"/><path d="M967.25,514.84,965,589.78c-.89,29-11.15,53.09-21,53.09-5.8,0-7.58-14.28-8-44.17l-.89-83Z" transform="translate(-47.84 -424.72)"/><path d="M592.72,514.84l-2.23,74.94c-.9,29-11.16,53.09-21,53.09-5.8,0-7.59-14.28-8-44.17l-.89-83Z" transform="translate(-47.84 -424.72)"/><path d="M2951.92,446.14c0-3.57-1.78-5.35-5.35-6.24-7.13-1.34-17-2.68-23.2-2.68-2.23,0-3.56.45-7.57,2.23-4.92,2.23-6.25,2.68-13.39,3.12-42.38,2.23-109.74,3.57-153.45,3.13l-1.78-.45c-5.8-1.34-32.12-7.14-39.26-7.14-4.91,0-14.27,6.25-14.27,9.37,0,2.23,0,2.23,4.46,4.46,8,4,17.39,9.37,22.3,12.93,4,3.13,4,3.13,4.46,8.48L2733.34,613c.45,17.39,3.13,29.89,8.93,29.89,5.35,0,11.6-6.7,15.17-16.51,47.28-1.79,107.06-3.12,142.29-3.12,9.82,0,26.77.44,32.56.44,7.15,0,10.71-4,10.71-9.37a10.31,10.31,0,0,0-5.35-8.92,40.15,40.15,0,0,0-12.94-4c8.48-48.62,15.62-102.15,20.08-144.08,2.23-2.67,7.13-8,7.13-11.15m-44.6,159.25-9.82,1.34c-21.85,1.79-78.95,3.57-136.5,4.46v-4.9l-4.46-143.65c50-2.23,112-3.12,153.45-3.56,0,50.4-1.34,103.93-2.67,146.31" transform="translate(-47.84 -424.72)"/></svg>