<svg width="134" height="229" viewBox="0 0 134 229" fill="none" xmlns="http://www.w3.org/2000/svg">
<g clip-path="url(#clip0_415_876)">
<path d="M67.3846 121.35C67.0146 121.35 66.6646 121.14 66.4846 120.79C65.5246 118.83 63.7846 114.73 62.9746 109.33C62.1046 103.53 62.1246 101 63.1046 95.78C63.9046 91.48 67.8346 83.43 67.9946 83.09C74.4146 69.55 64.8446 53.84 64.7446 53.68C64.4546 53.21 64.5946 52.6 65.0646 52.3C65.5346 52.01 66.1546 52.15 66.4446 52.62C66.5546 52.79 69.0446 56.84 70.7346 62.73C72.9846 70.58 72.6646 77.92 69.7946 83.95C69.7546 84.04 65.8246 92.1 65.0646 96.14C64.1446 101.08 64.1146 103.49 64.9446 109.02C65.7146 114.16 67.3646 118.04 68.2746 119.9C68.5146 120.4 68.3146 120.99 67.8146 121.24C67.6746 121.31 67.5246 121.34 67.3746 121.34L67.3846 121.35Z" fill="#D3C6A0"/>
<path d="M34.6344 120.61C34.2344 120.61 33.8644 120.37 33.7044 119.98C28.7244 107.58 31.7044 99.2 31.8344 98.85C33.2744 94.18 38.8244 92.01 39.0644 91.92C39.5744 91.72 40.1544 91.98 40.3544 92.5C40.5544 93.01 40.2944 93.59 39.7844 93.79C39.7344 93.81 34.9044 95.72 33.7344 99.5C33.6844 99.63 30.8944 107.61 35.5644 119.25C35.7744 119.76 35.5244 120.34 35.0144 120.55C34.8944 120.6 34.7644 120.62 34.6444 120.62L34.6344 120.61Z" fill="#D3C6A0"/>
<path d="M40.8446 185.4C32.0946 185.4 24.9746 178.28 24.9746 169.53C24.9746 160.78 32.0946 153.66 40.8446 153.66C49.5946 153.66 56.7146 160.78 56.7146 169.53C56.7146 178.28 49.5946 185.4 40.8446 185.4ZM40.8446 155.66C33.1946 155.66 26.9746 161.88 26.9746 169.53C26.9746 177.18 33.1946 183.4 40.8446 183.4C48.4946 183.4 54.7146 177.18 54.7146 169.53C54.7146 161.88 48.4946 155.66 40.8446 155.66Z" fill="#D3C6A0"/>
<path d="M94.5451 77.43C94.2451 77.43 93.9551 77.3 93.7551 77.04C93.4151 76.6 93.4951 75.98 93.9351 75.64C97.7351 72.7 97.4651 66.78 97.4551 66.72C97.4751 60.49 92.5151 53.07 92.4651 52.99C92.1551 52.53 92.2751 51.91 92.7351 51.6C93.1951 51.29 93.8151 51.41 94.1251 51.87C94.3451 52.19 99.4851 59.87 99.4551 66.67C99.4651 66.89 99.7951 73.63 95.1551 77.22C94.9751 77.36 94.7551 77.43 94.5451 77.43Z" fill="#D3C6A0"/>
<path d="M67.0146 228.77C30.4846 228.77 0.764648 177.46 0.764648 114.39C0.764648 51.32 30.4846 0 67.0146 0C103.545 0 133.265 51.31 133.265 114.39C133.265 177.47 103.545 228.78 67.0146 228.78V228.77ZM67.0146 2C31.5846 2 2.76465 52.42 2.76465 114.39C2.76465 176.36 31.5846 226.78 67.0146 226.78C102.445 226.78 131.265 176.36 131.265 114.39C131.265 52.42 102.435 2 67.0146 2Z" fill="#D3C6A0"/>
<path d="M67.4144 41.52C57.8844 41.52 42.1744 38.46 41.4744 38.32C33.3644 36.77 23.3344 31.08 22.9144 30.84C22.4344 30.57 22.2644 29.96 22.5444 29.48C22.8244 29 23.4244 28.83 23.9044 29.11C24.0044 29.17 34.0644 34.87 41.8544 36.36C42.0344 36.4 59.9044 39.89 68.9344 39.49C69.2344 39.49 97.5344 38.58 110.444 29.82C110.904 29.51 111.524 29.63 111.834 30.09C112.144 30.55 112.024 31.17 111.564 31.48C98.1644 40.57 70.1844 41.46 69.0044 41.49C68.4944 41.51 67.9644 41.52 67.4144 41.52Z" fill="#D3C6A0"/>
<path d="M88.2449 39.41C88.2449 39.41 88.1649 39.41 88.1249 39.41C81.6549 38.62 69.8649 24.95 69.3649 24.37C68.2049 22.92 67.2049 21.61 66.5349 20.33C65.8249 21.6 64.8449 22.92 63.8349 24.21C63.3949 24.75 53.1749 37.29 46.3649 39.12C45.8349 39.26 45.2849 38.95 45.1449 38.41C45.0049 37.88 45.3149 37.33 45.8549 37.19C52.0349 35.53 62.1749 23.09 62.2749 22.97C63.2149 21.77 65.4449 18.93 65.6349 17.22L65.6749 11.34C65.6749 10.79 66.1249 10.35 66.6749 10.35C67.2249 10.35 67.6749 10.81 67.6649 11.36L67.6149 17.34C67.7149 18.86 68.8049 20.48 70.9049 23.11C74.1449 26.88 83.6349 36.86 88.3649 37.44C88.9149 37.51 89.3049 38.01 89.2349 38.55C89.1749 39.06 88.7449 39.43 88.2449 39.43V39.41Z" fill="#D3C6A0"/>
<path d="M31.3445 80.48C25.9845 80.48 17.4645 79.93 5.28446 77.63C4.74446 77.53 4.38446 77.01 4.48446 76.46C4.58446 75.92 5.11446 75.56 5.65446 75.66C28.0045 79.87 37.9845 78.08 38.0745 78.06C44.5545 76.53 44.2345 70.37 43.7945 67.79C42.9245 62.69 37.3145 54.08 37.2645 54C36.9645 53.54 37.0945 52.92 37.5545 52.62C38.0145 52.31 38.6345 52.45 38.9345 52.91C39.1745 53.28 44.8245 61.95 45.7645 67.46C46.8645 73.89 44.0745 78.7 38.4845 80.02C38.2745 80.06 36.0045 80.48 31.3345 80.48H31.3445Z" fill="#D3C6A0"/>
<path d="M97.2648 121.32C96.9348 121.32 96.6149 121.16 96.4249 120.86C96.2349 120.56 91.7148 113.48 91.7148 102.26C91.7148 96.6 95.1648 92.46 100.705 91.45C102.725 91.08 105.015 90.92 107.525 90.95L131.115 91.85C131.665 91.87 132.095 92.34 132.075 92.89C132.055 93.44 131.575 93.89 131.035 93.85L107.465 92.95C105.105 92.91 102.945 93.07 101.055 93.42C96.5248 94.24 93.7048 97.63 93.7048 102.26C93.7048 112.85 98.0548 119.7 98.0948 119.77C98.3948 120.23 98.2648 120.85 97.8048 121.15C97.6348 121.26 97.4448 121.31 97.2648 121.31V121.32Z" fill="#D3C6A0"/>
<path d="M88.2346 222.33C88.0246 222.33 87.8146 222.26 87.6346 222.13C83.5446 219.02 81.0846 210.39 80.9846 210.03C78.9446 202.25 79.7946 193.84 79.8346 193.48C80.6846 181.57 86.5346 163.83 86.7846 163.08C89.8046 153.69 88.9646 148.12 88.3546 144.05C87.3346 137.26 83.5346 133.27 76.7146 131.87C62.3346 128.91 48.5646 131.05 48.4346 131.07C21.7746 134.73 4.54463 143.96 4.37463 144.06C3.88463 144.32 3.28463 144.14 3.01463 143.66C2.75463 143.17 2.93463 142.57 3.41463 142.3C3.58463 142.21 21.1446 132.8 48.1346 129.09C48.2546 129.07 62.3646 126.88 77.1146 129.91C84.7446 131.48 89.1846 136.13 90.3246 143.75C90.9646 148.02 91.8446 153.86 88.6746 163.7C88.6146 163.89 82.6546 181.96 81.8146 193.65C81.8046 193.77 80.9646 202.1 82.9046 209.5C82.9246 209.57 85.2846 217.83 88.8346 220.54C89.2746 220.87 89.3546 221.5 89.0246 221.94C88.8246 222.2 88.5246 222.33 88.2246 222.33H88.2346Z" fill="#D3C6A0"/>
<path d="M92.0546 152.85C82.5746 152.85 74.9545 151.27 74.4846 151.17C56.1245 147.6 45.4745 131.65 45.0345 130.97C44.7345 130.51 44.8646 129.89 45.3246 129.59C45.7846 129.29 46.4045 129.42 46.7045 129.88C46.8045 130.04 57.3546 145.81 74.8846 149.22C75.0746 149.26 92.3246 152.83 107.055 149.22C107.225 149.18 123.345 145.33 129.795 140.79C130.245 140.47 130.875 140.58 131.185 141.03C131.505 141.48 131.395 142.11 130.945 142.42C124.175 147.18 108.195 151 107.515 151.16C102.345 152.42 96.9546 152.84 92.0546 152.84V152.85Z" fill="#D3C6A0"/>
<path d="M38.8848 217.73C38.6348 217.73 38.3948 217.64 38.1948 217.46C37.7948 217.08 37.7748 216.45 38.1548 216.05C38.5348 215.65 47.6848 206.1 61.1948 201.33C61.8148 201.08 77.3548 194.94 92.1448 196.24C92.4948 196.27 100.705 197.06 109.085 200.7C109.595 200.92 109.825 201.51 109.605 202.02C109.385 202.53 108.795 202.76 108.285 202.54C100.205 199.03 92.0448 198.24 91.9548 198.23C77.6548 196.98 62.0448 203.14 61.8848 203.2C48.7848 207.82 39.6848 217.32 39.5948 217.42C39.3948 217.63 39.1348 217.73 38.8648 217.73H38.8848Z" fill="#D3C6A0"/>
</g>
<defs>
<clipPath id="clip0_415_876">
<rect width="132.49" height="228.77" fill="white" transform="translate(0.764648)"/>
</clipPath>
</defs>
</svg>
