<?xml version="1.0" encoding="UTF-8"?>
<svg id="_레이어_2" data-name="레이어_2" xmlns="http://www.w3.org/2000/svg" viewBox="0 0 227.9 69.01">
  <g id="_레이어_1-2" data-name="레이어_1">
    <g>
      <path d="M3.64,45.41c7.2-3.1,13.81-13.86,14.18-27.65H2.45l.15-3.61v-6.64l-.15-3.61h30.6c.37,31.84-7.06,50.82-26.96,57.68L0,46.63c1.11-.14,2.67-.72,3.64-1.23ZM36.61,7.22l-.15-7.22h14.93l-.15,7.22v18.62h5.79l-.15,3.61v7.29l.15,3.61h-5.79v19.85l.15,7.22h-14.93l.15-7.22V7.22Z"/>
      <path d="M97.36,24.54h-6.31l.15-3.25v-5.05l-.07-1.88h-6.91c1.04,5.63,4.01,8.52,7.35,10.61,1.41.87,2.6,1.37,3.71,1.73l-5.05,12.13c-4.98-1.08-9.95-4.91-12.25-9.75-2.3,5.49-6.91,9.53-13.29,11.77l-6.02-12.63c1.11-.22,2.75-.87,3.94-1.52,4.38-2.09,7.13-6.21,8.24-12.34h-9.65l.15-3.68v-4.91l-.15-3.61h31.49l-.15,3.61v4.91l.07,2.24h4.75v-5.7l-.15-7.22h14.93l-.15,7.22v25.12l.15,7.22h-14.93l.15-7.22v-7.8ZM64.83,54.14c0-9.31,9.36-14.29,24.06-14.29s23.99,5.05,23.99,14.29-9.28,14.87-23.99,14.87-24.06-5.56-24.06-14.87ZM96.09,56.67c1.26-.36,2.08-1.37,2.08-2.45,0-.94-.74-2.02-2.08-2.46-1.63-.5-4.38-.94-7.2-.94s-5.72.43-7.5.94c-1.34.43-1.93,1.52-1.93,2.46,0,1.01.59,2.02,1.93,2.45,1.71.43,4.75.79,7.5.79s5.57-.36,7.2-.79Z"/>
      <path d="M116.96,34.72l-.15-2.96h20.05v-2.96h-15.97l.15-3.61v-2.67l-.15-3.61h6.61l-1.11-7.15h-5.64l.15-3.61v-3.18l-.15-3.61h47.68l-.15,3.61v3.18l.15,3.61h-5.64l-1.11,7.15h6.46l-.15,3.61v2.67l.15,3.61h-16.41v2.96h20.2l-.15,2.96v5.2l.15,2.96h-55.1l.15-2.96v-5.2ZM167.6,62.44l.15,6.21h-15.45l.15-5.56v-6.5h-31.27l.15-3.32v-4.19l-.15-3.32h46.56l-.15,6.57v10.11ZM147.85,18.91l.89-7.15h-8.24l.82,7.15h6.54Z"/>
      <path d="M176.88,22.96l-.15-7.15h16.04v-3.25h-16.26l.15-3.61v-3.39l-.15-3.61h30.3l-.15,7v9.53l.15,7.08h-15.82v4.19c3.12,0,8.17-.43,11.51-.79,1.86-.22,3.19-.43,4.38-.79l1.34,10.9c-6.31,1.3-15.89,1.8-22.35,2.09-2.6.14-6.02.07-9.13.07l.15-7.15v-11.12ZM227.75,62.01l.15,6.42h-14.63l.15-6.14v-6.86h-32.45l.15-3.61v-4.48l-.15-3.61h46.94l-.15,6.64v11.62ZM213.12,33.21h-4.68l.15-3.18v-5.56l-.15-3.18h4.68v-2.53h-4.53l.15-3.1v-5.63l-.15-3.1h4.53l-.15-6.93h14.85l-.15,7.22v27.29l.15,7.22h-14.85l.15-7.22v-1.3Z"/>
    </g>
  </g>
</svg>