<?xml version="1.0" encoding="UTF-8"?>
<svg id="_레이어_2" data-name="레이어_2" xmlns="http://www.w3.org/2000/svg" viewBox="0 0 1808.95 202.92">
  <g id="_레이어_1-2" data-name="레이어_1">
    <g>
      <path d="M13.46,140.72c14.78-6.44,24.93-18.88,31.77-35.39l-32.22,4.93L3.97,72.29l49.87-4.72c.66-5.58,1.1-11.37,1.1-17.38H10.81l.44-10.73v-18.66l-.44-10.73h89.59c0,88.81-14.12,151.01-73.7,174.82L0,144.79c3.53-.43,8.16-1.72,13.46-4.08ZM113.86,21.45l-.44-21.45h46.78l-.44,21.45v157.45l.44,21.45h-46.78l.44-21.45V21.45Z"/>
      <path d="M246.92,139.22v33.03l.44,24.02h-45.01l.44-24.02v-30.03l-27.36,1.72-5.08-38.4,110.11-4.29,4.19,34.54-37.73,3.43ZM175.86,51.7c0-28.96,22.73-45.9,50.53-45.9s50.31,16.95,50.31,45.9-22.29,45.26-50.31,45.26-50.53-15.87-50.53-45.26ZM239.19,51.27c0-7.72-5.74-10.3-11.69-10.3s-11.92,2.57-11.92,10.3,6.18,10.08,11.92,10.08,11.69-2.36,11.69-10.08ZM257.29,185.12l.44-9.87v-13.51l-.44-10.08h31.55V21.45l-.44-21.45h46.78l-.44,21.45v157.45l.44,21.45h-46.78l.22-15.23h-31.33Z"/>
      <path d="M345.11,158.74l-.44-10.08h163.29l-.44,10.08v20.59l.44,10.08h-163.29l.44-10.08v-20.59ZM355.26,31.96l-.44-21.45h137.69l-.22,10.73v16.73l.22,10.73h-93.34v34.11h94.44l-.22,10.73v17.16l.22,10.73h-138.79l.44-21.45V31.96Z"/>
      <path d="M517,97.82l-.22-6.86h163.29l-.22,6.86v10.08l.22,7.94h-163.29l.22-7.94v-10.08ZM529.36,48.48l-.44-13.94h92.01v-5.15h-92.46l.22-6.65v-11.8l-.22-6.65h135.92l-.22,13.73v23.81l.22,13.3h-89.81v5.36h91.79l-.22,6.86v10.94l.22,6.86h-137.47l.44-13.51v-23.17ZM668.59,191.98l.44,10.73h-139.9l.44-21.45v-8.37l-.44-21.67h90.25v-4.93h-90.25l.44-10.73v-2.79l-.44-10.73h137.25l-.44,21.45v11.15l.44,15.87h-87.82v5.79h90.47l-.44,10.73v4.93Z"/>
      <path d="M742.95,85.59c18.76-16.73,20.3-42.04,20.3-68.64,0-3.22-.22-7.08-.44-10.73h47c-.22,3.86-.44,7.94-.44,10.73,0,25.74,1.99,48.69,20.08,65.85,3.09,3,7.5,6.01,11.47,7.72l-18.31,38.18c-15.45-8.15-29.57-21.67-35.75-41.19-6.18,21.45-19.42,35.82-39.06,44.4l-16.99-38.83c4.19-1.5,7.94-3.65,12.14-7.51ZM753.1,151.44l-.44-17.8h48.32l-.44,19.09v9.87h93.34l-.22,10.73v16.52l.22,10.73h-141.22l.44-17.8v-31.32ZM846,75.29h-21.4l.44-10.73v-19.52l-.44-10.94h21.4v-12.66l-.44-21.45h45.23l-.44,21.45v102.96l.44,21.45h-45.23l.44-21.45v-49.12Z"/>
      <path d="M908.89,26.81l-.44-21.45h73.92l-.22,10.73v10.94l.22,10.73h-30.67v9.22h28.02l-.44,10.73v8.37l.44,10.73h-28.02v8.58c7.5-.43,16.55-1.5,23.39-2.57,2.87-.64,5.52-1.07,7.94-1.72l3.09,32.61c-12.58,3.43-34.86,6.44-55.38,7.29-9.93.43-18.31.86-22.29.86l.44-21.02V26.81ZM1065.77,183.4l.44,19.52h-47.22l.44-18.88v-20.81h-95.1l.44-10.73v-14.37l-.44-10.73h141.88l-.44,20.16v35.82ZM1066.22,121.63h-36.85l.22-21.45v-15.66h-6.84v15.87l.22,21.45h-33.54l.44-21.45V21.45l-.44-21.45h33.54l-.22,21.45v26.17h6.84v-26.17l-.22-21.45h36.85l-.44,21.45v78.72l.44,21.45Z"/>
      <path d="M1076.59,34.32l-.44-10.73h22.51v-3.86l-.66-15.23h41.04l-.66,15.23v3.86h23.17l-.44,10.73v15.87l.44,10.73h-85.39l.44-10.73v-15.87ZM1119.39,181.9c-26.92,0-41.92-20.81-41.92-57.27s15-57.92,41.92-57.92,41.92,21.02,41.92,57.92-14.78,57.27-41.92,57.27ZM1119.39,145.65c3.97,0,6.18-6.01,6.18-19.73s-2.21-20.16-6.18-20.16-6.18,6.01-6.18,20.16,2.21,19.73,6.18,19.73ZM1238.33,202.5h-34.2l.22-21.45v-63.71h-6.84v60.49l.22,21.45h-30.89l.44-21.45V21.45l-.44-21.45h30.89l-.22,21.45v55.13h6.84V21.45l-.22-21.45h34.2l-.44,21.45v159.59l.44,21.45Z"/>
      <path d="M1308.5,148.23h-59.14l.44-9.44v-18.23l-.44-9.44h163.29l-.44,9.44v18.23l.44,9.44h-59.14v29.82l.44,23.38h-45.9l.44-23.38v-29.82ZM1305.63,40.54h-45.23l.44-10.73v-15.44l-.44-10.73h141.22l-.44,10.73v15.44l.44,10.73h-45.24c9.93,16.95,30.23,25.31,55.17,26.81l-17.21,37.32c-24.49-3.22-50.31-17.16-63.33-34.54-13.02,17.38-38.84,31.32-63.33,34.54l-17.21-37.32c24.93-1.5,45.23-9.87,55.16-26.81Z"/>
      <path d="M1429.42,128.28c14.56-23.81,13.9-62.85,13.9-110.04,0-3.22-.22-7.08-.44-10.73h41.04c-.22,3.86-.44,7.94-.44,10.73,0,46.33.44,84.3,11.69,105.54,2.43,4.93,6.62,9.44,10.15,12.66l-15.89,38.18c-13.9-10.73-21.62-25.1-25.6-39.47-4.63,16.52-12.8,32.18-27.8,43.33l-17.87-38.4c4.19-3,8.16-6.65,11.25-11.8ZM1505.98,101.68h-14.34l.44-10.73v-19.31l-.44-10.94h14.34V22.52l-.44-21.45h34.42l-.22,21.45v151.87l.22,21.45h-34.42l.44-21.45v-72.72ZM1545.04,21.45l-.22-21.45h37.73l-.44,21.45v159.59l.44,21.45h-37.73l.22-21.45V21.45Z"/>
      <path d="M1593.59,160.45l-.44-9.87h27.14v-6.65l-.44-19.52h42.59l-.44,19.52v6.65h26.26v-6.65l-.44-19.52h42.59l-.44,19.52v6.65h27.36l-.44,9.87v20.38l.44,10.08h-164.17l.44-10.08v-20.38ZM1601.75,64.14c0-35.18,31.11-55.77,73.48-55.77s74.14,20.59,74.14,55.77-31.11,55.77-74.14,55.77-73.48-18.88-73.48-55.77ZM1702.37,64.57c0-11.58-11.47-18.66-26.92-18.66-14.34,0-26.92,6.86-26.92,18.66s12.58,18.45,26.92,18.45c15.45,0,26.92-6.86,26.92-18.45Z"/>
      <path d="M1808.95,141.79v42.26h-39.06v-42.26h39.06Z"/>
    </g>
  </g>
</svg>