<?xml version="1.0" encoding="UTF-8"?>
<svg id="_레이어_2" data-name="레이어_2" xmlns="http://www.w3.org/2000/svg" viewBox="0 0 106.76 64.77">
  <defs>
    <style>
      .cls-1 {
        fill: #2b2b2b;
      }
    </style>
  </defs>
  <g id="_레이어_1-2" data-name="레이어_1">
    <g>
      <path class="cls-1" d="M36.22,23.52h-6.01l.14-3.13v-5.03l-.07-2.38h-6.71c.98,5.03,3.57,8.36,6.36,10.53,1.47.95,2.45,1.5,3.5,1.9l-4.89,10.67c-4.54-1.63-8.6-6.18-10.91-11.01-2.38,5.1-6.5,9.31-11.96,11.83L0,25.55c1.05-.27,2.66-1.02,3.71-1.63,3.43-1.9,5.94-5.84,7.06-10.94H2.31l.14-3.47v-4.49l-.14-3.4h29.37l-.14,3.4v4.49l.14,2.65h4.54v-5.37l-.14-6.8h13.91l-.14,6.8v21.95l.14,6.8h-13.91l.14-6.8v-5.23ZM49.99,64.77h-14.47v-1.7h-15.73v1.7H5.31l.14-6.8v-13.39l-.14-6.8h44.68l-.14,6.8v13.39l.14,6.8ZM19.79,47.57v5.17h15.73v-5.17h-15.73Z"/>
      <path class="cls-1" d="M73.34.82h14.12c.14,9.45,9.23,16.72,19.3,18.15l-6.43,11.15c-9.09-2.24-16.71-7.54-19.93-12.03-3.15,4.49-10.7,9.72-19.93,12.03l-6.43-11.15c10.77-1.43,19.16-8.84,19.3-18.15ZM72.85,45.06h-18.67l.14-3.06v-5.98l-.14-3.06h52.02l-.14,3.06v5.98l.14,3.06h-19.09v10.74l.14,7.75h-14.54l.14-7.75v-10.74Z"/>
    </g>
  </g>
</svg>