<?xml version="1.0" encoding="UTF-8"?>
<svg id="_레이어_2" data-name="레이어_2" xmlns="http://www.w3.org/2000/svg" viewBox="0 0 41.96 41.96">
  <defs>
    <style>
      .cls-1 {
        fill: #2b2b2b;
      }

      .cls-2 {
        fill: #dedede;
        stroke: #000;
        stroke-miterlimit: 10;
        stroke-width: 1.06px;
      }
    </style>
  </defs>
  <g id="_레이어_1-2" data-name="레이어_1">
    <g>
      <rect class="cls-2" x=".53" y=".53" width="40.89" height="40.89"/>
      <path class="cls-1" d="M10.83,32.2l5.04-10.62-4.41-9.46c-.56-1.19-1.08-2.28-1.71-3.4h8.22c.28,1.12.8,2.25,1.22,3.4l1.57,4.19,1.61-4.19c.46-1.16.88-2.28,1.19-3.4h7.94c-.59,1.12-1.12,2.25-1.64,3.4l-4.41,9.73,5.18,10.34c.56,1.12,1.19,2.28,1.85,3.4h-8.4c-.32-1.12-.8-2.25-1.29-3.4l-2.24-5.24-2.1,5.24c-.46,1.16-.91,2.28-1.22,3.4h-8.12c.67-1.12,1.15-2.21,1.71-3.4Z"/>
    </g>
  </g>
</svg>