<?xml version="1.0" encoding="UTF-8"?>
<svg id="_레이어_2" data-name="레이어_2" xmlns="http://www.w3.org/2000/svg" viewBox="0 0 309.11 106.06">
  <defs>
    <style>
      .cls-1 {
        stroke: #000;
        stroke-miterlimit: 10;
        stroke-width: .27px;
      }

      .cls-2 {
        fill: #fff;
      }
    </style>
  </defs>
  <g id="_레이어_1-2" data-name="레이어_1">
    <g>
      <rect class="cls-1" x=".13" y=".13" width="308.85" height="105.79"/>
      <g>
        <path class="cls-2" d="M78.3,56.91h-4.29c-2.17,7.68-5.95,13.2-12.13,16.71l-5.45-10.12c.78-.22,1.78-.76,2.95-1.51,4.67-3.08,7.12-9.9,7.4-21.64h-8.35l.11-2.71v-4.98l-.11-2.7h18.31c0,5.9-.22,11.2-.72,15.96h2.28v-12.66l-.11-5.41h8.57l-.06,5.41v39.43l.06,5.41h-8.57l.11-5.41v-15.79ZM88.27,33l-.06-5.41h9.35l-.11,5.41v40.24l.11,5.41h-9.35l.06-5.41v-40.24Z"/>
        <path class="cls-2" d="M100.34,41.6c0-6.44,3.67-13.42,13.19-13.42s13.19,6.98,13.19,13.42-3.51,13.36-13.19,13.36-13.19-6.87-13.19-13.36ZM139.57,78.92h-11.46v-1.35h-11.85v1.35h-11.46l.11-5.41v-11.09l-.11-5.41h34.78l-.11,5.41v11.09l.11,5.41ZM116.37,41.6c0-1.95-.67-4.11-2.56-4.11-1.78,0-2.45,2.16-2.45,4.11,0,1.79.67,3.89,2.45,3.89,1.89,0,2.56-2.11,2.56-3.89ZM116.26,64.91v4.33h11.85v-4.33h-11.85ZM128.83,33l-.11-5.41h11.07l-.11,5.41v16.88l.11,5.41h-11.07l.11-5.41v-16.88Z"/>
        <path class="cls-2" d="M158.22,59.88c4.29-4.92,4.84-16.71,4.84-25.86,0-.81-.11-2.38-.22-4.06h11.63c-.17,1.79-.17,3.46-.17,3.73,0,9.25.78,18.72,3.62,23.85,1.17,2.27,2.56,3.62,4.23,4.6l-4.9,9.95c-4.06-2.6-7.12-6.22-8.35-11.09-1.61,4.98-5.01,9.57-8.68,11.85l-5.62-10.12c1.56-.87,2.45-1.51,3.62-2.87ZM182.7,33l-.11-5.41h11.8l-.11,5.41v39.7l.11,5.41h-11.8l.11-5.41v-39.7Z"/>
        <path class="cls-2" d="M200.62,47.55c3.28-1.46,5.4-4.54,6.18-9.47h-7.23l.11-2.76v-3.68l-.11-2.71h23.76l-.11,2.71v3.68l.11,2.76h-6.57c.67,4.87,2.78,7.14,5.45,8.82.95.65,1.72.97,2.56,1.3l-3.78,8.87c-3.56-.76-7.18-3.73-8.9-7.63-1.78,4.33-5.23,7.3-10.02,8.66l-4.4-9.57c.83-.16,2.06-.49,2.95-.97ZM236.35,73.89l.11,5.03h-11.63l.11-4.92v-5.68h-22.87l.11-2.71v-3.57l-.11-2.7h34.39l-.11,5.19v9.36ZM225.44,33l-.11-5.41h11.07l-.11,5.41v5.73h3.9l-.11,2.71v4l.11,2.71h-3.9v4.27l.11,5.41h-11.07l.11-5.41v-19.42Z"/>
        <path class="cls-2" d="M243.92,29.05h11.13v16.23l-2.06,15.15h-7.12l-1.95-15.15v-16.23ZM254.43,63.4v10.55h-10.02v-10.55h10.02Z"/>
      </g>
    </g>
  </g>
</svg>