<?xml version="1.0" encoding="UTF-8"?>
<svg id="_레이어_2" data-name="레이어_2" xmlns="http://www.w3.org/2000/svg" viewBox="0 0 230.06 69.09">
  <g id="_레이어_1-2" data-name="레이어_1">
    <g>
      <path d="M20.27,48.51H0l.15-3.18v-6.28l-.15-3.18h55.25l-.15,3.18v6.28l.15,3.18h-19.83v11.26l.15,7.8h-15.45l.15-7.8v-11.26ZM4.16,1.59h15.82v5.63h15.82V1.59h15.89l-.15,6.57v17.04l.15,7.22H4.16l.15-7.22V8.16l-.15-6.57ZM35.87,16.89h-15.89v5.41h15.89v-5.41Z"/>
      <path d="M59.55,9.46l-.15-7.22h29.85l-.15,3.61v5.99l.15,3.61h-14.56v8.66c5.42-.14,11.88-1.08,15.52-2.17l2.15,12.42c-8.61,1.95-14.33,2.46-23.99,2.96-3.27.22-7.35.29-8.99.29l.15-7.36V9.46ZM61.93,53.93c0-9.38,9.28-14.65,23.84-14.65s23.76,5.34,23.76,14.65-9.21,15.16-23.76,15.16-23.84-5.78-23.84-15.16ZM92.83,56.38c1.26-.36,2.08-1.37,2.08-2.38s-.82-2.09-2.08-2.45c-1.63-.58-4.38-1.01-7.05-1.01s-5.57.43-7.35,1.01c-1.34.43-1.93,1.44-1.93,2.45,0,.94.59,2.02,1.93,2.38,1.71.51,4.68.87,7.35.87s5.42-.36,7.05-.87ZM94.53,7.22l-.15-7.22h14.78l-.15,7.22v6.93h5.2l-.15,3.61v5.34l.15,3.61h-5.2v4.62l.15,7.22h-14.78l.15-7.22V7.22Z"/>
      <path d="M145.85,49.67h-5.2l.15-3.47v-6.14l-.15-3.61h5.2v-7.87h-4.6c-2.3,15.95-7.65,26.64-18.42,32.85l-7.5-14.08c.97-.22,2.6-.72,4.23-1.66,6.16-3.9,9.43-12.99,9.8-28.66h-10.92l.15-3.61v-6.64l-.15-3.61h24.21c0,4.4-.07,8.59-.3,12.49h3.49v-7.72l-.15-7.22h11.21l-.07,7.22v52.55l.07,7.22h-11.21l.15-7.22v-10.83ZM158.92,7.22l-.07-7.22h12.33l-.15,7.22v53.71l.15,7.22h-12.33l.07-7.22V7.22Z"/>
      <path d="M173.39,19.71c0-8.95,4.46-18.34,16.86-18.34s16.86,9.38,16.86,18.34-4.23,18.19-16.86,18.19-16.86-9.17-16.86-18.19ZM224.86,61.36l.15,6.86h-14.85l.15-6.71v-7.94h-32.31l.15-3.61v-4.84l-.15-3.61h47.01l-.15,7v12.85ZM193.67,19.71c0-2.74-.59-5.85-3.04-5.85-2.3,0-2.97,3.1-2.97,5.85,0,2.46.67,5.49,2.97,5.49,2.45,0,3.04-3.03,3.04-5.49ZM210.45,7.22l-.15-7.22h14.48l-.15,7.22v.07h5.27l-.15,3.61v4.91l.15,3.61h-5.27v4.48h5.42l-.15,3.61v4.91l.15,3.61h-5.35l.07,3.32h-14.48l.15-7.22V7.22Z"/>
    </g>
  </g>
</svg>