<?xml version="1.0" encoding="UTF-8"?>
<svg id="_레이어_2" data-name="레이어_2" xmlns="http://www.w3.org/2000/svg" viewBox="0 0 309.11 106.06">
  <defs>
    <style>
      .cls-1 {
        stroke: #000;
        stroke-miterlimit: 10;
        stroke-width: .27px;
      }

      .cls-2 {
        fill: #fff;
      }
    </style>
  </defs>
  <g id="_레이어_1-2" data-name="레이어_1">
    <g>
      <rect class="cls-1" x=".13" y=".13" width="308.85" height="105.79"/>
      <g>
        <path class="cls-2" d="M68.46,43.6c0-7.25,3.51-14.71,12.97-14.71s12.97,7.46,12.97,14.71-3.39,14.55-12.97,14.55-12.97-7.25-12.97-14.55ZM72.86,64.91l-.11-4.76h11.91l-.11,5.19v3.25h23.87l-.06,2.7v4.11l.06,2.7h-35.67l.11-4.81v-8.38ZM84.15,43.6c0-2.33-.45-5.14-2.45-5.14s-2.39,2.81-2.39,5.14c0,2.11.45,4.87,2.39,4.87s2.45-2.76,2.45-4.87ZM97.01,33l-.11-5.41h11.07l-.11,5.41v26.34l.11,5.41h-11.07l.11-5.41v-26.34Z"/>
        <path class="cls-2" d="M118.6,55.55h8.85c-1.84-2-3.39-4.98-4.28-8.93-1.5,5.63-4.62,9.47-7.68,11.2l-4.17-8.76c4.79-2.65,6.68-10.39,6.68-19.31h9.96c0,8.66,1.95,16.07,5.84,18.93v-15.42l-.11-5.41h8.12l-.06,5.41v13.85h1.84v-14.12l-.06-5.41h8.96l-.11,5.41v40.24l.11,5.41h-8.96l.06-5.41v-15.85h-1.84v14.28l.06,5.41h-8.12l.11-5.41v-22.07l-3.9,7.9c-.72-.43-1.5-.97-2.17-1.68v5.95l4.67-.38.72,9.52-20.03,1.95-1.5-9.9,7.01-.49v-6.92Z"/>
        <path class="cls-2" d="M155.33,36.3l-.06-2.7h7.46v-1.3l-.11-3.41h10.96l-.11,3.41v1.3h6.79l-.06,2.7v4.06l.06,2.7h-24.99l.06-2.7v-4.06ZM168.07,73.13c-8.29,0-12.52-6.27-12.52-14.44s4.23-14.55,12.52-14.55,12.58,6.33,12.58,14.55-4.17,14.44-12.58,14.44ZM168.07,62.8c1.78,0,3.12-1.3,3.12-4.11s-1.33-4.11-3.12-4.11-3.06,1.24-3.06,4.11,1.34,4.11,3.06,4.11ZM182.15,33l-.11-5.41h11.24l-.11,5.41v13.58h4.01l-.11,2.7v5.46l.11,2.7h-4.01v15.25l.11,5.41h-11.24l.11-5.41v-39.7Z"/>
        <path class="cls-2" d="M202.18,61.18c4.34-2.43,8.9-9.57,9.35-20.34h-11.13l.11-2.7v-4.71l-.11-2.71h23.04c0,26.07-8.29,38.68-19.59,42.25l-5.17-10.49c1.11-.16,2.34-.65,3.51-1.3ZM226.89,33l-.11-5.41h11.41l-.11,5.41v39.7l.11,5.41h-11.41l.11-5.41v-39.7Z"/>
      </g>
    </g>
  </g>
</svg>