<?xml version="1.0" encoding="UTF-8"?>
<svg id="_레이어_2" data-name="레이어_2" xmlns="http://www.w3.org/2000/svg" viewBox="0 0 256.14 279.9">
  <defs>
    <style>
      .cls-1 {
        fill: blue;
      }
    </style>
  </defs>
  <g id="_레이어_1-2" data-name="레이어_1">
    <path class="cls-1" d="M0,160.33C0,91.81,46.99,46.13,73.25,31.35,81.08,13.43,99.05,0,126.23,0c82.46,0,129.91,72.1,129.91,156.75,0,69.42-54.82,123.16-135.44,123.16S0,226.61,0,160.33ZM120.7,241.39c52.98,0,93.98-33.59,93.98-84.64,0-55.08-29.94-118.23-84.3-118.23-15.66,0-20.73,8.96-20.73,21.05,0,12.99-8.29,19.71-17.04,19.71-4.15,0-8.75-1.34-12.44-4.48-19.81,17.02-38.7,44.34-38.7,85.54,0,43.89,26.26,81.06,79.24,81.06Z"/>
  </g>
</svg>