<?xml version="1.0" encoding="UTF-8"?>
<svg id="_레이어_2" data-name="레이어_2" xmlns="http://www.w3.org/2000/svg" viewBox="0 0 120.5 68.44">
  <g id="_레이어_1-2" data-name="레이어_1">
    <g>
      <path d="M117.97,36.94c-3.69,8.27-28.46,5.09-42.04-3.32-3.95-2.45-8.89-8.81-11.95-3.36-4.26,7.59,6.23,9.49,18.69,9.98,2.55.1,9.85,5.11,3.26,21.42-1.94,4.79.15,6.59,3.69,6.78,1.94.1,5.22-3.25,5.89-6.84,2.64-14.16-6.91-20.26-6.91-20.26,0,0,27.03,7.65,31.06-4.35,4.03-12-7.8-16.12-8.91-11.72-1.11,4.39,9.72,6.06,7.22,11.67Z"/>
      <path d="M30.96,12.31c-3.11,3.02-5.46,6.38-6.23,9.6-1.81,7.54.67,8.52,5.75,8.2.62-.04.87.78.34,1.09-4.84,2.87-15.74,9.87-17.46,15.46-.64,2.08.84,4.23,3.01,4.28,1.5.03,3.66-.55,6.63-2.67,5.95-4.25,25.38-19.42,27.87-15.41,2.63,4.24-.83,19.7-8.09,24.77-7.26,5.07.52,9.74,3.57,9.46,9.15-.84,17.97-30.4,8.54-36.82-12.13-8.26-35.97,23.27-35.54,16.65.59-9.13,25.18-23.4,32.34-24.18,7.16-.79,8.83.5,11.12,1.86,2.29,1.36,5.67-2.6,2.96-4.4-2.67-1.78-7.8-4.65-27.42,6.44-.97.55-2.01.99-3.1,1.25-2.37.56-5.72.57-5.17-4.16.35-2.96,3.03-6.94,6.5-10.55,7.84.9,13.54.55,17.75-2.07,4.2-2.62,4.62-6.64,1.31-8.12-1.46-.65-3.46-1-6.16-.69-3.92.46-8.77,2.61-13.15,5.62C28.09,6.08-3.83,10.05.38,16.57c4.21,6.52,28.77-4.6,30.58-4.26ZM51.97,4.16c2.89-.18,3.6,2.82,3.53,3.82-.37,5.49-14.82,1.91-14.82,1.91,0,0,7.36-5.48,11.29-5.72Z"/>
      <path d="M79.36,7.01c8.08-.16,11.44,2.27,10.05,3.21-2.71,1.84-21.47-4.58-21.42,2.21.05,6.79,18.69,8.08,18.69,8.08,0,0-9.48,6.22-3.07,12.62,6.41,6.4,30.03,7.46,29.52-.52-.51-7.99-38.02,7.77-25.98-7.19,4.57-5.67,5.21-7.05,14.54-4.18,10.82,2.83,10.35-7.55,4.03-6.32-6.33,1.23-40.17,5.86-34.91-1.86,4.5-6.61,27.1,6.33,27.54-.17.34-5.07-13.17-8.97-18.09-12.23-4.91-3.25-8.99,6.51-.91,6.35Z"/>
    </g>
  </g>
</svg>