<?xml version="1.0" encoding="UTF-8"?>
<svg id="_레이어_2" data-name="레이어_2" xmlns="http://www.w3.org/2000/svg" viewBox="0 0 194.94 35.8">
  <defs>
    <style>
      .cls-1 {
        fill: #fff;
      }
    </style>
  </defs>
  <g id="_레이어_1-2" data-name="레이어_1">
    <g>
      <g>
        <g>
          <path class="cls-1" d="M24.8,33.29c2.46,2.12,5.62-10.5,5.33-14.03,1.5-1.64,3.01-3.92,3.42-5.52.29-1.1.26-1.95.07-2.6-.42-1.46-2.11-1.52-3.44.07-1.33,1.59-1.8,3.94-1.88,7.25-1.7,1.23-3.5,2.12-4.75,2.09-2-.04-1.8-1.43-1.43-2.38.17-.44.41-.84.7-1.21,5.73-7.5,4.84-9.79,4.26-11-.59-1.23-2.43-.06-2,.97.43,1.03.87,1.8.13,4.72-.74,2.93-8.08,12.31-11.9,12.02-2.77-.2-1.91,2.48-.24,2.5,2.45.02,5.95-4.51,7.42-6.35.16-.2.49-.05.43.21-.43,2.09-.16,3.17,3.07,2.86,1.38-.13,2.91-.92,4.34-2.03,0,0-6,10.32-3.53,12.44ZM29.9,16.95s-.65-6.2,1.65-6.04c.42.03,1.62.49,1.38,1.68-.33,1.62-3.03,4.36-3.03,4.36Z"/>
          <path class="cls-1" d="M18.56,17.27c.49-1.92,7.77-5.94,5.06-8.15-2.71-2.21-9.35,4.76-9.35,4.76,0,0,.65-5.81-4-5.37-4.65.44-12.83,9.46-9.5,11.88,3.34,2.42,9.42-17.63,11.39-7.94.75,3.68.34,5.38-4.9,9.91-4.68,3.36-.41,6.59,1.18,3.68S21.11,5.4,22.44,10.03c1.14,3.96-8.83,7.81-6.4,10.12,1.9,1.8,2.36-2.25,2.52-2.88Z"/>
        </g>
        <path class="cls-1" d="M68.23,32.55c.01-2.86.59-4.06,5.19-6.62,4.01-1.78,1.33-4.84-.31-2.92-1.64,1.92-12.63,13.4-12.91,9.74-.24-3.12,7.79-4.44,6.34-6.54-.55-.8-3.95,1.38-6.87,2.12,1.32-2.78,6.64-6.11,8.31-6.11,1.81,0-.21,2.39,2.51,2.39s1.88-5.15-.73-5.42c-4.49-.47-9.78,5.65-11.03,9.32-1.02.14-1.92,0-2.54-.6,1.97-7.89,8.97-9.96,14.94-11.62,1.09-.3,1.42-2.23.04-2.25-1.36-.02-7.23,2.26-12.04,7.32-.71.75-1.77.33-2.01-1.68-.52-4.25,3.65-11.38,5.89-12.94,4.24-2.96-1.77,10.04,2.97,7.92,2.98-1.33,2.51-8.21-1.93-9.19-4.85-1.07-9.32,8.18-9.05,13.38.09,1.77,1.17,3.21,2.13,3.62.24.1.54.11.37.31-3.03,3.58-3.64,7.26-2.65,9.53.48,1.09,1.28,1.31,2.06.83.54-.33,1.18-1.04,1.74-2.48.18-.45.39-.95.62-1.49,2.43-.35,5.11-1.54,4.99-1.16-.38,1.22-6.76,3.14-5.09,5.21,1.68,2.07,7.7-2.09,7.7-2.09,0,0-1.39,4.22,2.14,4.62,3.53.4,11.03-5.05,8.92-7.37-2.11-2.32-9.76,11.67-9.72,4.14ZM57.33,31.31c-.3.05-.61-.34-.98-1.35-.12-.32-.19-.72-.2-1.19.55.45,1.38.57,2.31.52-.41,1.16-.76,1.96-1.13,2.02Z"/>
        <path class="cls-1" d="M82.42,0c-5.68-.24-8.95,13.47-8.95,13.47,0,0-1.05-2.44-2.45-3.16-1.39-.72-1.92-.33-2.08.56-.16.9,1.51,2.03,3.04,2.42,1.53.39,1.2,1.83,1.03,3.01-.39,2.7-.3,5.14,1.81,5.15,2.82,0,1.82-3.73,1.26-5.69-.71-2.5-.49-5.31.63-7.91,1.46-3.4,3.66-7.03,5.35-7.11,2.79-.13,1.1,4.78,3.1,5.02,2,.24,2.93-5.52-2.75-5.76Z"/>
        <path class="cls-1" d="M81.97,29.85c-.67-.59-1.24-1.44-1.72-2.53-.32-.73-.59-1.55-.81-2.46-.22-.91-.39-1.91-.51-2.99-.12-1.08-.18-2.22-.18-3.4,0-.33,0-.57.01-.75,0-.29,0-.57.02-.85.01-.28.03-.55.05-.82.08-1.07.22-2.08.4-3.03.19-.95.42-1.8.7-2.57.28-.77.6-1.45.96-2.04.45-.71.96-1.25,1.51-1.64.55-.38,1.14-.57,1.77-.57h.01c.42,0,.82.08,1.2.24.38.16.74.4,1.08.7l-1.94,7.58s-.09-.06-.15-.06h-.04c-.19,0-.35.15-.48.45-.13.3-.23.75-.3,1.36-.07.61-.1,1.37-.1,2.27,0,1.21.06,2.16.19,2.87.07.4.17.7.28.9.11.2.25.3.4.3s.29-.11.41-.33c.12-.22.21-.55.29-.99.06-.33.11-.72.14-1.18s.04-.99.04-1.58c0-1.17-.06-2.09-.17-2.77-.11-.68-.28-1.1-.5-1.25l-.03-.03.03.03.48-.86c.63-1.13,1.09-1.97,1.4-2.51.31-.55.77-1.36,1.38-2.46.59,1.11,1.04,2.48,1.36,4.12.32,1.64.48,3.45.48,5.44,0,1.88-.14,3.6-.43,5.18-.29,1.58-.7,2.92-1.23,4.01-.15.31-.3.59-.47.85-.17.26-.34.5-.52.73-.4.48-.83.85-1.3,1.11-.47.26-.96.39-1.48.39-.81,0-1.55-.3-2.21-.89ZM89.85,27.74V6.62h4.85v24.7h-4.85v-3.58Z"/>
        <path class="cls-1" d="M38.6,20.7c-.66-.33-1.23-.82-1.71-1.45-.32-.44-.59-.94-.81-1.51-.22-.56-.39-1.19-.51-1.86-.12-.68-.18-1.41-.18-2.19,0-.23,0-.4.01-.52,0-.19.02-.38.04-.57.02-.19.04-.37.05-.55.08-.67.21-1.28.38-1.84.17-.55.39-1.07.66-1.53.26-.47.58-.87.94-1.22.44-.42.93-.74,1.49-.96.56-.22,1.15-.33,1.79-.33h.01c.4,0,.79.05,1.17.16.38.11.72.24,1.03.42l-1.82,5.25h-.22c-.22,0-.4.08-.55.24-.15.16-.27.41-.35.73-.08.33-.12.73-.12,1.2,0,.33.02.62.05.87.04.26.09.48.16.67.09.21.2.37.33.47.13.11.28.16.46.16.17,0,.33-.06.46-.17.13-.11.24-.29.34-.52.07-.19.13-.41.16-.65.03-.24.05-.52.05-.85,0-.63-.07-1.13-.2-1.49-.13-.36-.32-.59-.57-.69l.05-.29.14.03,1.08-1.41c.32-.44.64-.87.96-1.29.32-.42.64-.82.95-1.2.58.67,1.03,1.5,1.35,2.5.31.99.47,2.11.47,3.36s-.14,2.29-.42,3.24c-.28.96-.69,1.78-1.22,2.47-.31.38-.64.7-1,.95-.39.29-.82.5-1.28.65-.46.14-.95.22-1.47.22-.8,0-1.53-.17-2.19-.5ZM36.9,29.99v-8.08h4.95v9.32h-4.95v-1.25ZM41.85,26.88h4.73v-1.86h-4.77l.55-3.1h9.17v9.32h-9.68v-4.36ZM46.47,16.89V6.57h5.06v14.49h-5.06v-4.16Z"/>
      </g>
      <path class="cls-1" d="M134.7,19.66c.21-.97.36-1.68.46-2.15.1-.46.25-1.16.44-2.09.19-.93.33-1.61.41-2.06.09-.44.22-1.12.4-2.03v-.03h-1.6v-4.82h10.66v4.82h-4.28c-.08.1-.15.17-.19.22-.04.05-.09.1-.13.16-.05.06-.11.14-.2.24-.12.16-.21.28-.27.36-.06.08-.15.2-.27.36h.28l.14,2.16h-.42l-.1.71c-.03.3-.06.59-.1.89-.04.39-.1.99-.2,1.78-.03.24-.06.48-.08.74-.02.2-.04.39-.06.59-.02.2-.05.39-.08.59h-4.91l.1-.44ZM136.04,27.59v-2.99h10.08v-.89h-10.08v-2.87h15.02v5.18h-10.1v.89h10.52l-.44,4.88h-15.01v-4.2ZM140.88,18.77c-.04-.45-.08-.91-.13-1.36-.04-.57-.08-1.13-.13-1.69,0-.16-.02-.31-.03-.46,0-.15-.02-.3-.04-.46h-.42v-2.16h4.38l.06.3c.09.53.19,1.06.28,1.58.09.52.19,1.04.28,1.55.07.43.14.75.18.95.09.51.19,1.03.28,1.54.09.51.19,1.03.29,1.54h-4.91c-.04-.59-.07-1.04-.1-1.33ZM145.87,16.13V6.34h5.2v13.76h-5.2v-3.97Z"/>
      <path class="cls-1" d="M180.7,28.51c.07-.73.15-1.59.22-2.57.13-1.56.23-2.71.29-3.46.06-.75.16-1.87.29-3.37.08-.97.15-1.69.19-2.16.04-.47.11-1.18.19-2.13v-.03h-3.06V6.7h7.95c-.22,3.81-.39,6.66-.51,8.57-.11,1.9-.23,3.81-.34,5.71-.12,1.9-.29,4.76-.51,8.57l-.04.68h-4.82c.06-.57.11-1.14.15-1.72ZM187.47,26.68v-4.14h-1.17v-7.99h1.15s.01,0,.01-.03V6.11h3.23v25.45h-3.23v-4.88ZM191.33,26.28V6.11h3.61v25.45h-3.61v-5.28Z"/>
      <g>
        <path class="cls-1" d="M123.71,33.28c2.57,2.22,5.88-10.98,5.57-14.66,1.57-1.72,3.14-4.1,3.58-5.77.3-1.15.27-2.04.07-2.71-.44-1.53-2.21-1.59-3.6.08-1.39,1.66-1.88,4.12-1.97,7.57-1.77,1.29-3.66,2.21-4.97,2.18-2.09-.05-1.88-1.5-1.49-2.49.18-.46.43-.88.73-1.27,5.99-7.83,5.06-10.23,4.45-11.5-.62-1.28-2.54-.06-2.09,1.02.45,1.08.91,1.88.14,4.94-.77,3.06-8.44,12.86-12.44,12.56-2.9-.21-2,2.6-.25,2.61,2.56.02,6.22-4.71,7.76-6.64.17-.21.51-.05.45.21-.44,2.18-.17,3.32,3.21,2.99,1.44-.14,3.04-.96,4.54-2.12,0,0-6.27,10.78-3.69,13ZM129.04,16.21s-.68-6.48,1.72-6.31c.44.03,1.69.52,1.44,1.76-.34,1.69-3.16,4.55-3.16,4.55Z"/>
        <path class="cls-1" d="M117.19,16.54c.51-2.01,8.12-6.21,5.28-8.52-2.83-2.31-9.77,4.97-9.77,4.97,0,0,.68-6.07-4.18-5.61-4.85.46-13.41,9.88-9.92,12.41,3.49,2.53,9.84-18.42,11.9-8.3.78,3.84.35,5.62-5.12,10.36-4.89,3.51-.43,6.88,1.24,3.84,1.66-3.04,13.22-21.55,14.62-16.72,1.19,4.13-9.23,8.16-6.69,10.57,1.98,1.88,2.46-2.35,2.63-3.01Z"/>
      </g>
      <path class="cls-1" d="M164.64,14.79c2.39.3,3.03,1.93,3.1,3.42.06,1.4-.39,2.76-1.24,3.88-1.49,1.97-4.82,5.81-9.08,7.35-.18.07-.39.06-.56-.03-.14-.08-.46-.37-.24-.45,9.33-3.67,10.19-13.05,6.99-12.76-3.2.29-8.59,10.42-10.8,8.09-2.82-2.98,7.21-10.07,11.82-9.48Z"/>
      <path class="cls-1" d="M169.85,6.59c-1.66.79-2.33,5.11-1.93,8.89.31,2.9,2.07,5.6,4.17,7.63,1.65,1.59,4.71,4.65,1.86,5.83-2.13.89-4.65-3.64-5.74-6.32-.48-1.16-1.1-2.83-1.1-2.83,0,0-3.16-11.85,2.69-14.04,5.85-2.19,8.08,3.57,5.93,4.19s-3.14-4.66-5.88-3.36Z"/>
    </g>
  </g>
</svg>