<?xml version="1.0" encoding="UTF-8"?>
<svg id="_레이어_2" data-name="레이어_2" xmlns="http://www.w3.org/2000/svg" viewBox="0 0 48.91 27.78">
  <defs>
    <style>
      .cls-1 {
        fill: #fff;
      }
    </style>
  </defs>
  <g id="_레이어_1-2" data-name="레이어_1">
    <g>
      <path class="cls-1" d="M47.89,15c-1.5,3.36-11.55,2.07-17.07-1.35-1.6-.99-3.61-3.58-4.85-1.36-1.73,3.08,2.53,3.85,7.59,4.05,1.03.04,4,2.08,1.32,8.7-.79,1.95.06,2.67,1.5,2.75.79.04,2.12-1.32,2.39-2.77,1.07-5.75-2.8-8.23-2.8-8.23,0,0,10.97,3.11,12.61-1.76,1.64-4.87-3.17-6.54-3.62-4.76s3.95,2.46,2.93,4.74Z"/>
      <path class="cls-1" d="M12.57,5c-1.26,1.23-2.22,2.59-2.53,3.9-.73,3.06.27,3.46,2.33,3.33.25-.02.35.32.14.44-1.96,1.17-6.39,4.01-7.09,6.27-.26.84.34,1.72,1.22,1.74.61.01,1.49-.22,2.69-1.08,2.41-1.72,10.3-7.88,11.31-6.26,1.07,1.72-.34,8-3.29,10.05-2.95,2.06.21,3.95,1.45,3.84,3.71-.34,7.29-12.34,3.47-14.95-4.93-3.35-14.6,9.45-14.43,6.76.24-3.71,10.22-9.5,13.13-9.82,2.91-.32,3.58.2,4.52.76.93.55,2.3-1.05,1.2-1.79-1.08-.72-3.17-1.89-11.13,2.61-.4.22-.82.4-1.26.51-.96.23-2.32.23-2.1-1.69.14-1.2,1.23-2.82,2.64-4.28,3.18.36,5.5.23,7.2-.84,1.71-1.06,1.88-2.7.53-3.3-.59-.26-1.4-.41-2.5-.28-1.59.19-3.56,1.06-5.34,2.28C11.4,2.47-1.55,4.08.15,6.73s11.68-1.87,12.41-1.73ZM21.1,1.69c1.17-.07,1.46,1.14,1.43,1.55-.15,2.23-6.02.77-6.02.77,0,0,2.99-2.23,4.58-2.32Z"/>
      <path class="cls-1" d="M32.22,2.85c3.28-.07,4.64.92,4.08,1.3-1.1.75-8.72-1.86-8.69.9.02,2.76,7.59,3.28,7.59,3.28,0,0-3.85,2.52-1.25,5.12,2.6,2.6,12.19,3.03,11.98-.21-.21-3.24-15.43,3.15-10.55-2.92,1.85-2.3,2.11-2.86,5.9-1.7,4.39,1.15,4.2-3.06,1.64-2.57-2.57.5-16.3,2.38-14.17-.76,1.83-2.68,11,2.57,11.18-.07.14-2.06-5.35-3.64-7.34-4.96s-3.65,2.64-.37,2.58Z"/>
    </g>
  </g>
</svg>