<svg width="126" height="144" viewBox="0 0 126 144" fill="none" xmlns="http://www.w3.org/2000/svg">
<path d="M49.4218 64.5543C49.8038 64.1848 50.2562 64 50.7789 64C51.3016 64 51.7535 64.1848 52.1345 64.5543L63.3295 75.381L74.5627 64.5173C74.9193 64.1724 75.3651 64 75.9 64C76.4349 64 76.8934 64.1848 77.2755 64.5543C77.6576 64.9238 77.8486 65.3613 77.8486 65.8668C77.8486 66.3723 77.6576 66.8093 77.2755 67.1778L64.3994 79.5935C64.2465 79.7413 64.081 79.8463 63.9027 79.9083C63.7243 79.9704 63.5333 80.001 63.3295 80C63.1258 80 62.9347 79.9689 62.7564 79.9069C62.5781 79.8448 62.4125 79.7403 62.2597 79.5935L49.3835 67.1409C49.0269 66.796 48.8486 66.3708 48.8486 65.8653C48.8486 65.3598 49.0397 64.9228 49.4218 64.5543Z" fill="black"/>
</svg>
