<svg width="24" height="24" viewBox="0 0 24 24" fill="none" xmlns="http://www.w3.org/2000/svg">
<path d="M2.99996 19H21C21.1822 18.9994 21.3608 18.9491 21.5166 18.8546C21.6724 18.7601 21.7995 18.6248 21.8842 18.4634C21.9688 18.302 22.0078 18.1206 21.9971 17.9387C21.9863 17.7568 21.9261 17.5812 21.823 17.431L12.823 4.43098C12.45 3.89198 11.552 3.89198 11.178 4.43098L2.17796 17.431C2.07379 17.5809 2.0127 17.7566 2.00133 17.9388C1.98996 18.121 2.02875 18.3029 2.11348 18.4646C2.19821 18.6263 2.32564 18.7617 2.48193 18.8561C2.63822 18.9505 2.81738 19.0003 2.99996 19ZM12 6.75698L19.092 17H4.90796L12 6.75698Z" fill="black"/>
</svg>
