<svg width="60" height="60" viewBox="0 0 60 60" fill="none" xmlns="http://www.w3.org/2000/svg">
<path d="M31.476 26.73C31.4092 26.3612 31.2068 26.0307 30.9085 25.8037C30.6102 25.5766 30.2378 25.4695 29.8645 25.5034C29.4912 25.5372 29.1441 25.7097 28.8915 25.9867C28.639 26.2637 28.4993 26.6252 28.5 27V40.506L28.524 40.776C28.5908 41.1448 28.7932 41.4753 29.0915 41.7023C29.3898 41.9294 29.7622 42.0365 30.1355 42.0026C30.5088 41.9688 30.8559 41.7963 31.1085 41.5194C31.361 41.2424 31.5007 40.8808 31.5 40.506V27L31.476 26.73ZM32.397 20.25C32.397 19.6533 32.1599 19.081 31.738 18.659C31.316 18.2371 30.7437 18 30.147 18C29.5503 18 28.978 18.2371 28.556 18.659C28.1341 19.081 27.897 19.6533 27.897 20.25C27.897 20.8467 28.1341 21.419 28.556 21.841C28.978 22.2629 29.5503 22.5 30.147 22.5C30.7437 22.5 31.316 22.2629 31.738 21.841C32.1599 21.419 32.397 20.8467 32.397 20.25ZM54 30C54 23.6348 51.4714 17.5303 46.9706 13.0294C42.4697 8.52856 36.3652 6 30 6C23.6348 6 17.5303 8.52856 13.0294 13.0294C8.52856 17.5303 6 23.6348 6 30C6 36.3652 8.52856 42.4697 13.0294 46.9706C17.5303 51.4714 23.6348 54 30 54C36.3652 54 42.4697 51.4714 46.9706 46.9706C51.4714 42.4697 54 36.3652 54 30ZM9 30C9 27.2422 9.54318 24.5115 10.5985 21.9636C11.6539 19.4158 13.2007 17.1008 15.1508 15.1508C17.1008 13.2007 19.4158 11.6539 21.9636 10.5985C24.5115 9.54318 27.2422 9 30 9C32.7578 9 35.4885 9.54318 38.0364 10.5985C40.5842 11.6539 42.8992 13.2007 44.8492 15.1508C46.7993 17.1008 48.3461 19.4158 49.4015 21.9636C50.4568 24.5115 51 27.2422 51 30C51 35.5695 48.7875 40.911 44.8492 44.8492C40.911 48.7875 35.5695 51 30 51C24.4305 51 19.089 48.7875 15.1508 44.8492C11.2125 40.911 9 35.5695 9 30Z" fill="black"/>
</svg>
