<?xml version="1.0" encoding="UTF-8"?>
<svg id="_레이어_2" data-name="레이어_2" xmlns="http://www.w3.org/2000/svg" viewBox="0 0 284.64 69.16">
  <g id="_레이어_1-2" data-name="레이어_1">
    <g>
      <path d="M.15,53.78l-.15-3.32h18.79v-1.16l-.15-6.57h16.64l-.15,6.57v1.16h19.83l-.15,3.32v6.86l.15,3.32H0l.15-3.32v-6.86ZM3.27,3.39h15.82v7.58h15.82V3.39h15.89l-.15,8.23v22.16l.15,7.22H3.27l.15-7.22V11.62l-.15-8.23ZM34.98,22.02h-15.89v7.8h15.89v-7.8Z"/>
      <path d="M58,31.69c0-18.91,5.5-28.73,17.67-28.73s16.26,9.82,16.26,28.73-4.16,28.73-16.26,28.73-17.67-9.82-17.67-28.73ZM77.97,43.1c.37-2.6.74-6.71.74-11.62s-.37-9.02-.74-11.62c-.37-2.74-.97-4.04-2.45-4.04-1.56,0-2.15,1.3-2.6,4.04-.37,2.46-.82,6.43-.82,11.62s.45,9.24.82,11.62c.45,2.74,1.04,4.4,2.6,4.4s2.08-1.66,2.45-4.4ZM95.5,7.22l-.15-7.22h15.22l-.15,7.22v52.99l.15,7.22h-15.22l.15-7.22V7.22Z"/>
      <path d="M115.4,52.99l-.15-3.32h55.25l-.15,3.32v6.64l.15,3.39h-55.25l.15-3.39v-6.64ZM119.7,28.37c8.91-4.12,12.55-8.81,14.33-16.82.45-2.02.74-7,.52-8.66h16.63c-.22,1.66.07,6.64.52,8.66,1.78,8.01,6.01,12.71,14.26,16.82.89.43,2.38.94,3.64,1.3l-7.65,13.5c-8.69-3.75-15.97-9.96-19.09-16.17-3.12,6.14-10.32,12.27-19.09,16.17l-7.65-13.5c.97-.36,2.52-.79,3.56-1.3Z"/>
      <path d="M176.59,20l13-.72,1.19,27.36,3.12-.07.59-27.72,12.92.72-1.26,26.71,3.34-.07,1.04,12.05-35.28,1.59-1.56-12.99,4.98-.07-2.08-26.78ZM174.88,7.44l-.15-3.61h34.31l-.15,3.61v4.98l.15,3.61h-34.31l.15-3.61v-4.98ZM211.79,7.22l-.15-7.22h14.78l-.15,7.22v52.99l.15,7.22h-14.78l.15-7.22V7.22Z"/>
      <path d="M234.43,25.27c6.24-4.98,7.5-12.2,7.5-20.5,0-1.08-.07-2.17-.15-3.18h16.12c0,1.08-.15,2.24-.15,3.32,0,7.87,1.04,14.73,6.98,19.35,1.11.87,2.45,1.73,3.64,2.24l-6.02,12.49c-5.42-2.31-10.47-6.64-12.62-13.14-2.23,7.15-6.61,11.7-13.37,14.51l-5.94-12.85c1.34-.43,2.6-1.08,4.01-2.24ZM236.96,54.29c0-9.1,9.36-14.29,23.84-14.29s23.84,5.27,23.84,14.29-9.36,14.87-23.84,14.87-23.84-5.7-23.84-14.87ZM267.93,56.81c1.26-.36,2.08-1.37,2.08-2.45,0-.94-.74-1.95-2.08-2.38-1.56-.58-4.38-1.01-7.13-1.01s-5.72.43-7.43,1.01c-1.34.43-1.93,1.44-1.93,2.38,0,1.01.59,2.02,1.93,2.45,1.63.43,4.68.87,7.43.87s5.57-.43,7.13-.87ZM269.48,7.22l-.15-7.22h14.78l-.15,7.22v24.98l.15,7.22h-14.78l.15-7.22V7.22Z"/>
    </g>
  </g>
</svg>