<?xml version="1.0" encoding="UTF-8"?>
<svg id="_레이어_2" data-name="레이어_2" xmlns="http://www.w3.org/2000/svg" viewBox="0 0 227.23 69.52">
  <g id="_레이어_1-2" data-name="레이어_1">
    <g>
      <path d="M30.97,34.72l.07,2.53H0l.15-7.22V9.31l-.15-7.22h31.04l-.07,4.12h5.57l-.15-6.21h15.22l-.15,7.22v24.98l.15,7.22h-15.22l.07-4.69h-5.5ZM4.31,54.58c0-9.1,9.43-14.44,23.69-14.44s23.54,5.41,23.54,14.44-9.28,14.94-23.54,14.94-23.69-5.78-23.69-14.94ZM13.22,13.57v12.2h5.87v-12.2h-5.87ZM34.98,57.1c1.26-.36,2-1.37,2-2.38s-.74-2.02-2-2.53c-1.49-.5-4.31-.94-6.98-.94s-5.64.43-7.28.94c-1.34.43-1.86,1.52-1.86,2.53,0,.94.52,2.02,1.86,2.38,1.56.43,4.68.87,7.28.87s5.5-.43,6.98-.87ZM36.54,17.98h-5.64v4.98h5.64v-4.98Z"/>
      <path d="M91.64,44.54l.89,12.99c-7.35.87-24.43,2.38-34.16,2.96l-2.23-13.72c9.95-.43,27.18-1.3,35.5-2.24ZM56.88,21.22c0-11.26,7.35-18.12,17.38-18.12s17.3,6.86,17.3,18.12-6.91,17.76-17.3,17.76-17.38-6.42-17.38-17.76ZM78.64,21.01c0-2.82-1.86-4.19-4.01-4.19s-4.08,1.37-4.08,4.19,1.93,4.04,4.08,4.04,4.01-1.3,4.01-4.04ZM94.31,7.22l-.15-7.22h15.37l-.15,7.22v52.99l.15,7.22h-15.37l.15-7.22V7.22Z"/>
      <path d="M114.51,53.64l-.15-3.32h19.53v-2.82l-.15-6.57h16.19l-.15,6.57v2.82h19.53l-.15,3.32v6.86l.15,3.39h-54.96l.15-3.39v-6.86ZM118.52,10.18l-.15-7.22h46.64l-.07,3.61v5.34l.07,3.61h-31.71v9.75h32.08l-.07,3.61v5.56l.07,3.61h-47.01l.15-7.22V10.18Z"/>
      <path d="M172.43,33.06l-.15-2.89h8.61v-4.55h6.24c-6.68-1.8-11.21-5.41-11.21-11.48,0-8.73,10.92-13.57,23.84-13.57s23.84,4.84,23.84,13.57c0,6.06-4.31,9.67-10.99,11.48h5.94v4.55h8.69l-.15,2.89v4.91l.15,2.89h-54.96l.15-2.89v-4.91ZM176.14,55.59c0-8.88,9.28-13.28,23.76-13.28s23.62,4.48,23.62,13.14-9.13,13.93-23.62,13.93-23.76-4.91-23.76-13.79ZM206.96,57.82c1.34-.29,2.08-1.3,2.08-2.24s-.74-1.88-2.08-2.24c-1.56-.43-4.38-.87-7.06-.87s-5.64.43-7.35.87c-1.34.36-1.93,1.3-1.93,2.24s.59,1.88,1.93,2.17c1.71.43,4.68.87,7.35.87s5.5-.36,7.06-.79ZM206.44,16.53c1.19-.29,2.01-.87,2.01-2.31,0-.94-.74-1.59-2.01-1.95-1.49-.43-3.94-.87-6.61-.87s-5.2.43-6.61.87c-1.26.36-2,1.01-2,1.95,0,1.52.82,2.02,2,2.31,1.41.43,3.94.79,6.61.79s5.12-.36,6.61-.79ZM194.63,26.85v3.32h10.17v-3.32c-1.63.14-3.34.22-5.05.22s-3.49-.07-5.12-.22Z"/>
    </g>
  </g>
</svg>