<?xml version="1.0" encoding="UTF-8"?>
<svg id="_레이어_2" data-name="레이어_2" xmlns="http://www.w3.org/2000/svg" viewBox="0 0 109.09 69.37">
  <g id="_레이어_1-2" data-name="레이어_1">
    <g>
      <path d="M.15,6.86l-.15-4.76h14.26l-.07,4.62v2.31h4.23v-2.31l-.07-4.62h12.92l-.07,4.76v23.25l.07,7.22H0l.15-7.22V6.86ZM2.52,54.5c0-9.1,9.36-14.29,23.69-14.29s23.62,5.27,23.62,14.29-9.28,14.87-23.62,14.87S2.52,63.67,2.52,54.5ZM18.42,19.42h-4.23v6.79h4.23v-6.79ZM33.34,57.03c1.26-.36,2.08-1.37,2.08-2.38s-.82-2.02-2.15-2.45c-1.49-.58-4.38-1.01-7.06-1.01s-5.72.43-7.35,1.01c-1.41.43-2.01,1.44-2.01,2.45,0,.94.59,1.95,2.01,2.38,1.56.43,4.68.87,7.35.87s5.57-.43,7.13-.87ZM35.13,7.22l-.15-7.22h14.78l-.15,7.22v7.29h4.83l-.15,3.61v5.27l.15,3.61h-4.83v5.27l.15,7.22h-14.78l.15-7.22V7.22Z"/>
      <path d="M56.44,18.7c0-8.59,4.9-17.9,17.6-17.9s17.6,9.31,17.6,17.9-4.68,17.83-17.6,17.83-17.6-9.17-17.6-17.83ZM108.79,68.51h-15.3v-1.8h-15.82v1.8h-15.3l.15-7.22v-14.8l-.15-7.22h46.42l-.15,7.22v14.8l.15,7.22ZM77.82,18.7c0-2.6-.89-5.49-3.42-5.49-2.38,0-3.27,2.89-3.27,5.49,0,2.38.89,5.2,3.27,5.2,2.53,0,3.42-2.82,3.42-5.2ZM77.67,49.81v5.77h15.82v-5.77h-15.82ZM94.46,7.22l-.15-7.22h14.78l-.15,7.22v22.52l.15,7.22h-14.78l.15-7.22V7.22Z"/>
    </g>
  </g>
</svg>