<?xml version="1.0" encoding="UTF-8"?>
<svg id="_레이어_2" data-name="레이어_2" xmlns="http://www.w3.org/2000/svg" viewBox="0 0 1804.63 183.55">
  <g id="_레이어_1-2" data-name="레이어_1">
    <g>
      <path d="M77.21,103.52h-15.13c-7.66,27.12-21.02,46.6-42.83,59.02L0,126.82c2.75-.76,6.29-2.67,10.41-5.35,16.5-10.89,25.15-34.95,26.13-76.4H7.07l.39-9.55v-17.57l-.39-9.55h64.64c0,20.82-.79,39.54-2.55,56.34h8.06V20.05l-.39-19.1h30.26l-.2,19.1v139.23l.2,19.1h-30.26l.39-19.1v-55.77ZM112.38,19.1l-.2-19.1h33.01l-.39,19.1v142.1l.39,19.1h-33.01l.2-19.1V19.1Z"/>
      <path d="M155.02,49.47c0-22.73,12.97-47.37,46.56-47.37s46.56,24.64,46.56,47.37-12.38,47.18-46.56,47.18-46.56-24.26-46.56-47.18ZM293.53,181.25h-40.47v-4.77h-41.85v4.77h-40.47l.39-19.1v-39.15l-.39-19.1h122.79l-.39,19.1v39.15l.39,19.1ZM211.6,49.47c0-6.88-2.36-14.52-9.04-14.52-6.29,0-8.64,7.64-8.64,14.52,0,6.3,2.36,13.75,8.64,13.75,6.68,0,9.04-7.45,9.04-13.75ZM211.21,131.79v15.28h41.85v-15.28h-41.85ZM255.61,19.1l-.39-19.1h39.1l-.39,19.1v59.59l.39,19.1h-39.1l.39-19.1V19.1Z"/>
      <path d="M351.89,18.14l-.39-12.61h37.72l-.2,12.22v6.11h11.2v-6.11l-.2-12.22h34.19l-.2,12.61v61.5l.2,19.1h-82.71l.39-19.1V18.14ZM358.17,144.2c0-24.07,24.76-37.82,62.67-37.82s62.48,13.94,62.48,37.82-24.56,39.34-62.48,39.34-62.67-15.09-62.67-39.34ZM400.22,51.38h-11.2v17.95h11.2v-17.95ZM439.71,150.89c3.34-.95,5.5-3.63,5.5-6.3s-2.16-5.35-5.7-6.49c-3.93-1.53-11.59-2.67-18.67-2.67s-15.13,1.15-19.45,2.67c-3.73,1.15-5.3,3.82-5.3,6.49,0,2.48,1.57,5.16,5.3,6.3,4.13,1.15,12.38,2.29,19.45,2.29s14.74-1.15,18.86-2.29ZM444.43,19.1l-.39-19.1h39.1l-.39,19.1v19.29h12.77l-.39,9.55v13.94l.39,9.55h-12.77v13.94l.39,19.1h-39.1l.39-19.1V19.1Z"/>
      <path d="M508.87,65.89c16.5-12.99,19.84-31.51,19.84-53.48,0-2.86-.2-5.73-.39-8.21h42.63c0,2.67-.39,5.73-.39,8.6,0,20.82,2.95,38.96,19.45,51.95,2.75,2.1,6.29,4.39,9.43,5.73l-16.31,32.85c-14.54-6.11-28.1-18.34-33.99-35.53-5.7,18.91-17.29,30.94-35.17,37.82l-15.91-34c3.73-1.15,7.07-2.87,10.81-5.73ZM639.92,162.92l.39,18.34h-38.31l.39-18.14v-21.2h-83.89l.39-9.55v-12.8l-.39-9.55h121.81l-.39,18.53v34.38ZM601.61,19.1l-.39-19.1h39.1l-.39,19.1v65.7l.39,19.1h-39.1l.39-19.1V19.1Z"/>
      <path d="M654.46,76.78l-.39-7.07h145.39l-.39,7.07v11.46l.39,7.45h-145.39l.39-7.45v-11.46ZM661.34,34.95c0-21.96,28.1-33.04,65.43-33.04s65.43,11.08,65.43,33.04-28.29,31.13-65.43,31.13-65.43-8.59-65.43-31.13ZM789.63,170.94l.39,9.55h-124.96l.39-19.1v-12.22l-.39-19.29h79.77v-5.35h-80.36l.39-9.55v-4.01l-.39-9.55h122.8l-.39,19.1v12.8l.39,16.04h-77.8v6.3h80.55l-.39,9.55v5.73ZM745.23,40.11c3.54-.76,5.7-2.1,5.7-4.97,0-2.48-2.16-4.2-5.7-4.97-3.73-.96-11.2-1.91-18.27-1.91s-14.74.96-18.47,1.91c-3.54.76-5.5,2.48-5.5,4.97,0,2.86,1.96,4.2,5.5,4.97,3.73.96,11.4,1.53,18.47,1.53s14.54-.57,18.27-1.53Z"/>
      <path d="M855.45,76.21c16.7-14.9,18.08-37.43,18.08-61.12,0-2.86-.2-6.3-.39-9.55h41.85c-.2,3.44-.39,7.07-.39,9.55,0,22.92,1.77,43.36,17.88,58.64,2.75,2.67,6.68,5.35,10.22,6.88l-16.31,34c-13.75-7.26-26.33-19.29-31.83-36.67-5.5,19.1-17.29,31.9-34.78,39.54l-15.13-34.57c3.73-1.34,7.07-3.25,10.81-6.69ZM864.49,134.84l-.39-15.85h43.03l-.39,17v8.79h83.11l-.2,9.55v14.71l.2,9.55h-125.74l.39-15.85v-27.89ZM947.21,67.04h-19.06l.39-9.55v-17.38l-.39-9.74h19.06v-11.27l-.39-19.1h40.28l-.39,19.1v91.68l.39,19.1h-40.28l.39-19.1v-43.74Z"/>
      <path d="M1003.2,23.87l-.39-19.1h65.82l-.2,9.55v9.74l.2,9.55h-27.31v8.21h24.95l-.39,9.55v7.45l.39,9.55h-24.95v7.64c6.68-.38,14.74-1.34,20.83-2.29,2.55-.57,4.91-.95,7.07-1.53l2.75,29.03c-11.2,3.06-31.04,5.73-49.31,6.49-8.84.38-16.31.76-19.84.76l.39-18.72V23.87ZM1142.9,163.3l.39,17.38h-42.05l.39-16.81v-18.53h-84.68l.39-9.55v-12.8l-.39-9.55h126.33l-.39,17.95v31.9ZM1143.29,108.29h-32.81l.2-19.1v-13.94h-6.09v14.13l.2,19.1h-29.86l.39-19.1V19.1l-.39-19.1h29.86l-.2,19.1v23.3h6.09v-23.3l-.2-19.1h32.81l-.39,19.1v70.09l.39,19.1Z"/>
      <path d="M1152.53,30.56l-.39-9.55h20.04v-3.44l-.59-13.56h36.54l-.59,13.56v3.44h20.63l-.39,9.55v14.13l.39,9.55h-76.03l.39-9.55v-14.13ZM1190.64,161.96c-23.97,0-37.33-18.53-37.33-51s13.36-51.57,37.33-51.57,37.33,18.72,37.33,51.57-13.16,51-37.33,51ZM1190.64,129.69c3.54,0,5.5-5.35,5.5-17.57s-1.96-17.95-5.5-17.95-5.5,5.35-5.5,17.95,1.96,17.57,5.5,17.57ZM1296.54,180.3h-30.45l.2-19.1v-56.73h-6.09v53.86l.2,19.1h-27.51l.39-19.1V19.1l-.39-19.1h27.51l-.2,19.1v49.09h6.09V19.1l-.2-19.1h30.45l-.39,19.1v142.1l.39,19.1Z"/>
      <path d="M1359.02,131.98h-52.65l.39-8.4v-16.23l-.39-8.4h145.39l-.39,8.4v16.23l.39,8.4h-52.65v26.55l.39,20.82h-40.87l.39-20.82v-26.55ZM1356.47,36.1h-40.28l.39-9.55v-13.75l-.39-9.55h125.74l-.39,9.55v13.75l.39,9.55h-40.28c8.84,15.09,26.92,22.54,49.12,23.87l-15.33,33.23c-21.81-2.86-44.8-15.28-56.39-30.75-11.59,15.47-34.58,27.89-56.39,30.75l-15.32-33.23c22.2-1.34,40.28-8.79,49.12-23.87Z"/>
      <path d="M1466.69,114.21c12.97-21.2,12.38-55.96,12.38-97.98,0-2.86-.2-6.3-.39-9.55h36.54c-.2,3.44-.39,7.07-.39,9.55,0,41.25.39,75.06,10.41,93.97,2.16,4.39,5.89,8.4,9.04,11.27l-14.15,34c-12.38-9.55-19.25-22.35-22.79-35.14-4.13,14.71-11.4,28.65-24.76,38.58l-15.91-34.19c3.73-2.67,7.27-5.92,10.02-10.5ZM1534.87,90.53h-12.77l.39-9.55v-17.19l-.39-9.74h12.77V20.05l-.39-19.1h30.65l-.2,19.1v135.22l.2,19.1h-30.65l.39-19.1v-64.75ZM1569.64,19.1l-.2-19.1h33.6l-.39,19.1v142.1l.39,19.1h-33.6l.2-19.1V19.1Z"/>
      <path d="M1612.87,142.86l-.39-8.79h24.17v-5.92l-.39-17.38h37.92l-.39,17.38v5.92h23.38v-5.92l-.39-17.38h37.92l-.39,17.38v5.92h24.36l-.39,8.79v18.14l.39,8.98h-146.18l.39-8.98v-18.14ZM1620.14,57.11c0-31.32,27.7-49.66,65.42-49.66s66.01,18.34,66.01,49.66-27.7,49.66-66.01,49.66-65.42-16.81-65.42-49.66ZM1709.73,57.49c0-10.31-10.22-16.62-23.97-16.62-12.77,0-23.97,6.11-23.97,16.62s11.2,16.43,23.97,16.43c13.75,0,23.97-6.11,23.97-16.43Z"/>
      <path d="M1804.63,126.25v37.63h-34.78v-37.63h34.78Z"/>
    </g>
  </g>
</svg>