<?xml version="1.0" encoding="UTF-8"?>
<svg id="_레이어_2" data-name="레이어_2" xmlns="http://www.w3.org/2000/svg" viewBox="0 0 302.89 177.16">
  <g id="_레이어_1-2" data-name="레이어_1">
    <g>
      <g>
        <path d="M267.11,88.98c-1.88-1.67-3.49-4.04-4.84-7.1-.89-2.04-1.65-4.34-2.28-6.9-.63-2.55-1.1-5.35-1.44-8.39-.33-3.04-.5-6.23-.5-9.56,0-.91.01-1.61.04-2.1,0-.81.02-1.6.06-2.38.04-.78.08-1.55.13-2.3.23-3.01.61-5.85,1.13-8.51.52-2.66,1.17-5.07,1.95-7.22.78-2.15,1.68-4.06,2.7-5.73,1.28-1.99,2.69-3.52,4.25-4.6,1.56-1.08,3.22-1.61,4.98-1.61h.04c1.17,0,2.3.23,3.37.69,1.07.46,2.08,1.12,3.03,1.98l-5.44,21.31c-.1-.11-.24-.16-.42-.16h-.11c-.54,0-.99.42-1.36,1.25-.37.83-.65,2.11-.84,3.83-.19,1.72-.29,3.85-.29,6.38,0,3.39.18,6.08.54,8.07.2,1.13.47,1.98.78,2.54.32.57.7.85,1.13.85s.82-.31,1.15-.93c.33-.62.6-1.55.8-2.78.18-.91.31-2.02.38-3.31.08-1.29.11-2.77.11-4.44,0-3.28-.16-5.88-.48-7.79-.32-1.91-.79-3.08-1.4-3.51l-.08-.08.08.08,1.34-2.42c1.76-3.17,3.08-5.53,3.94-7.06.87-1.53,2.16-3.83,3.87-6.9,1.66,3.12,2.94,6.98,3.83,11.58.89,4.6,1.34,9.7,1.34,15.29,0,5.27-.4,10.13-1.21,14.57-.8,4.44-1.96,8.19-3.47,11.26-.41.86-.85,1.65-1.32,2.38-.47.73-.96,1.41-1.47,2.06-1.12,1.35-2.34,2.38-3.66,3.11-1.32.73-2.7,1.09-4.15,1.09-2.27,0-4.35-.83-6.22-2.5ZM289.26,83.04V23.69h13.63v69.41h-13.63v-10.05Z"/>
        <path d="M138.74,144.07c.56-2.64.98-4.59,1.24-5.85.27-1.26.67-3.16,1.21-5.69.51-2.53.89-4.4,1.13-5.61.24-1.21.61-3.05,1.09-5.53v-.08h-4.36v-13.15h29.06v13.15h-11.68c-.23.27-.4.47-.52.61-.11.13-.24.28-.36.44-.13.16-.31.38-.54.65-.33.43-.57.75-.73.97-.15.22-.4.54-.73.97h.77l.38,5.89h-1.15l-.27,1.94c-.08.81-.17,1.61-.27,2.42-.1,1.08-.28,2.69-.54,4.84-.08.65-.15,1.32-.23,2.02-.05.54-.11,1.08-.17,1.61-.06.54-.13,1.08-.21,1.61h-13.4l.27-1.21ZM142.38,165.7v-8.15h27.49v-2.42h-27.49v-7.83h40.97v14.12h-27.53v2.42h28.68l-1.19,13.32h-40.94v-11.46ZM155.59,141.65c-.1-1.24-.22-2.47-.34-3.71-.1-1.56-.22-3.09-.34-4.6-.03-.43-.05-.85-.08-1.25-.03-.4-.06-.82-.11-1.25h-1.15v-5.89h11.95l.15.81c.25,1.45.51,2.89.77,4.32.25,1.43.51,2.84.77,4.24.2,1.18.37,2.05.5,2.58.25,1.4.51,2.8.77,4.2.25,1.4.52,2.8.8,4.2h-13.4c-.1-1.61-.19-2.82-.27-3.63ZM169.18,134.47v-26.71h14.17v37.53h-14.17v-10.81Z"/>
        <path d="M261.68,165.97c.2-1.99.41-4.33.61-7.02.36-4.25.62-7.4.78-9.44.17-2.04.43-5.11.79-9.2.23-2.64.4-4.6.52-5.89.11-1.29.29-3.23.52-5.81v-.08h-8.35v-22.03h21.67c-.61,10.38-1.07,18.17-1.38,23.36-.31,5.19-.62,10.38-.94,15.58-.32,5.19-.79,12.98-1.4,23.36l-.12,1.86h-13.13c.15-1.56.29-3.12.42-4.68ZM280.13,160.96v-11.3h-3.18v-21.79h3.14s.04-.03.04-.08v-22.92h8.81v69.41h-8.81v-13.32ZM290.66,159.88v-55h9.84v69.41h-9.84v-14.41Z"/>
        <path d="M145.26,63.25c-1.84-.94-3.44-2.3-4.8-4.07-.9-1.24-1.65-2.65-2.27-4.23-.61-1.58-1.09-3.33-1.42-5.24-.33-1.91-.5-3.96-.5-6.17,0-.64.01-1.13.04-1.45.03-.54.06-1.07.12-1.61.05-.54.1-1.05.15-1.53.23-1.88.59-3.6,1.08-5.16.49-1.56,1.1-2.99,1.84-4.31.74-1.32,1.63-2.46,2.65-3.43,1.23-1.18,2.62-2.08,4.19-2.7,1.56-.62,3.24-.93,5.03-.93h.04c1.13,0,2.22.15,3.28.44,1.06.3,2.03.69,2.9,1.17l-5.11,14.75h-.61c-.61,0-1.13.23-1.56.69-.42.46-.75,1.14-.98,2.06-.23.91-.35,2.04-.35,3.38,0,.91.05,1.73.15,2.46.1.73.26,1.36.46,1.89.26.59.56,1.04.92,1.33.36.3.79.44,1.31.44.49,0,.92-.16,1.29-.48.37-.32.69-.81.94-1.45.2-.54.35-1.14.44-1.81.09-.67.13-1.46.13-2.38,0-1.77-.19-3.17-.56-4.19-.37-1.02-.9-1.66-1.59-1.93l.15-.81.38.08,3.03-3.95c.9-1.24,1.8-2.44,2.71-3.63.91-1.18,1.8-2.31,2.67-3.38,1.64,1.88,2.9,4.22,3.78,7.01.88,2.79,1.33,5.94,1.33,9.43s-.39,6.42-1.17,9.11c-.78,2.69-1.93,5-3.44,6.93-.87,1.08-1.81,1.96-2.8,2.66-1.1.81-2.3,1.41-3.59,1.81-1.29.4-2.67.6-4.13.6-2.25,0-4.3-.47-6.14-1.41ZM140.49,89.36v-22.69h13.9v26.19h-13.9v-3.51ZM154.4,80.61h13.29v-5.24h-13.4l1.54-8.7h25.77v26.19h-27.19v-12.25ZM167.38,52.57v-29.01h14.21v40.7h-14.21v-11.69Z"/>
      </g>
      <g>
        <path d="M14.65,170.4c.12,17.38,62.02-14.34,75.19-27.92,11.9.26,26.34-1.7,34.25-5.65,5.45-2.73,8.75-5.84,10.69-8.85,4.4-6.83-1.32-13.85-12.41-13.59-11.08.26-22.17,6.61-35.76,17.92-10.93-2.48-20.83-6.65-25.12-11.77-6.85-8.18-.57-12.28,4.56-14.14,2.36-.85,4.84-1.3,7.34-1.47,50.32-3.32,56.41-14.99,59.22-21.6,2.86-6.71-8.33-9.98-10.94-4.61-2.62,5.37-4.16,9.81-18.54,17.14-14.37,7.32-77.91,10.8-90.22-5.57-8.93-11.87-16.72,1.04-10.9,7.82,8.52,9.93,39.07,8.06,51.65,7.51,1.38-.06,1.9,1.78.7,2.46-9.9,5.64-13.33,10.52-.69,22.41,5.4,5.08,13.93,8.49,23.45,10.33-2.96,2.87-62.59,12.19-62.47,29.57ZM98.29,133.44s22.65-24.43,30.08-14.62c1.35,1.79,3.72,8.26-1.92,11.47-7.65,4.37-28.16,3.15-28.16,3.15Z"/>
        <path d="M96.36,75.8c5.28-6.05,39.11-6.84,33.33-19.79-5.77-12.95-42.52.15-42.52.15,0,0,12.95-19.82-4.66-26.71-17.61-6.9-63.7,10.8-56.04,25.65,7.65,14.85,66.26-46.61,55.71-7.94-4,14.67-8.6,20.08-35.81,26.92-23.07,3.62-13.51,23.09-2.43,15.46,11.08-7.63,83.44-51.55,79.83-32.37-3.09,16.4-46.22,12.13-41.63,24.92,3.58,9.98,12.49-4.31,14.22-6.3Z"/>
      </g>
      <g>
        <path d="M226.28,91.45c.04-8.02,1.64-11.4,14.58-18.6,11.26-4.99,3.73-13.61-.87-8.21-4.61,5.4-35.49,37.64-36.27,27.38-.66-8.78,21.9-12.48,17.82-18.37-1.55-2.24-11.11,3.89-19.29,5.97,3.7-7.8,18.65-17.15,23.34-17.15,5.1,0-.59,6.73,7.05,6.73s5.28-14.46-2.06-15.23c-12.62-1.32-27.48,15.86-30.99,26.19-2.86.38-5.39.02-7.13-1.69,5.55-22.16,25.21-27.98,41.97-32.63,3.07-.85,3.99-6.27.1-6.32-3.83-.05-20.3,6.35-33.84,20.57-2,2.1-4.96.93-5.65-4.71-1.46-11.95,10.27-31.96,16.55-36.34,11.92-8.31-4.98,28.21,8.35,22.26,8.37-3.74,7.05-23.08-5.43-25.83-13.61-3-26.18,23-25.42,37.58.26,4.97,3.28,9.03,5.97,10.18.68.29,1.53.31,1.05.87-8.52,10.07-10.22,20.39-7.43,26.78,1.33,3.06,3.59,3.69,5.79,2.33,1.52-.94,3.3-2.92,4.9-6.97.49-1.25,1.08-2.67,1.75-4.18,6.82-.99,14.35-4.33,14.02-3.25-1.07,3.44-19,8.82-14.29,14.63,4.71,5.81,21.64-5.87,21.64-5.87,0,0-3.9,11.86,6.02,12.98,9.91,1.11,30.99-14.19,25.06-20.71-5.92-6.52-27.41,32.78-27.3,11.64ZM195.68,87.96c-.83.13-1.7-.97-2.75-3.78-.33-.9-.52-2.03-.56-3.35,1.54,1.26,3.88,1.6,6.48,1.45-1.15,3.26-2.13,5.52-3.18,5.68Z"/>
        <path d="M266.15,0c-15.96-.66-25.16,37.84-25.16,37.84,0,0-2.96-6.87-6.87-8.88-3.91-2.02-5.39-.94-5.84,1.58-.46,2.51,4.24,5.71,8.55,6.81,4.31,1.1,3.37,5.16,2.89,8.46-1.09,7.57-.86,14.44,5.09,14.46,7.93.02,5.13-10.47,3.55-16-2.01-7.03-1.37-14.91,1.77-22.22,4.09-9.54,10.29-19.75,15.05-19.97,7.84-.36,3.08,13.42,8.7,14.1,5.62.68,8.24-15.52-7.72-16.18Z"/>
      </g>
      <path d="M221.49,131.32c6.71.85,8.52,5.41,8.7,9.61.17,3.92-1.11,7.77-3.47,10.9-4.19,5.53-13.53,16.32-25.51,20.65-.51.19-1.09.16-1.57-.1-.4-.22-1.3-1.03-.67-1.28,26.2-10.31,28.64-36.66,19.65-35.86s-24.13,29.28-30.34,22.73c-7.94-8.38,20.25-28.29,33.21-26.64Z"/>
      <path d="M236.11,108.28c-4.66,2.22-6.55,14.35-5.41,24.97.87,8.14,5.83,15.74,11.71,21.43,4.63,4.48,13.22,13.05,5.23,16.39-5.99,2.51-13.06-10.23-16.13-17.74-1.34-3.27-3.1-7.95-3.1-7.95,0,0-8.88-33.29,7.55-39.45,16.43-6.16,22.7,10.03,16.67,11.78-6.03,1.75-8.83-13.1-16.52-9.43Z"/>
    </g>
  </g>
</svg>