<?xml version="1.0" encoding="UTF-8"?>
<svg id="_레이어_2" data-name="레이어 2" xmlns="http://www.w3.org/2000/svg" xmlns:xlink="http://www.w3.org/1999/xlink" viewBox="0 0 113 113">
  <defs>
    <style>
      .cls-1, .cls-2 {
        fill: none;
      }

      .cls-1, .cls-3 {
        stroke: #231815;
        stroke-miterlimit: 10;
        stroke-width: 3px;
      }

      .cls-4 {
        clip-path: url(#clippath);
      }

      .cls-5, .cls-3 {
        fill: #fff;
      }

      .cls-6 {
        fill: #ffdd4e;
      }

      .cls-6, .cls-7, .cls-2 {
        stroke: #221714;
        stroke-linecap: round;
        stroke-linejoin: round;
        stroke-width: 2px;
      }

      .cls-7 {
        fill: #eeb033;
      }
    </style>
    <clipPath id="clippath">
      <circle class="cls-3" cx="56.5" cy="56.5" r="55"/>
    </clipPath>
  </defs>
  <g id="_레이어_3" data-name="레이어 3">
    <g>
      <circle class="cls-5" cx="56.5" cy="56.5" r="55"/>
      <g class="cls-4">
        <g>
          <g>
            <g>
              <path class="cls-7" d="m72.37,82.91c.91,3.15,3.31,5.7,4.28,8.83.6,1.93.63,3.98.65,6,.11,10.13.18,20.26.21,30.39,0,.43-.09.99-.51,1.09-.18.04-.37-.03-.55-.09-1.8-.68-3.6-1.35-5.41-2.03"/>
              <path class="cls-2" d="m72.82,102.68c.83,1.22,1.48,2.57,1.92,3.98"/>
              <path class="cls-2" d="m71.82,111.92c.95,1.54,1.9,3.09,2.85,4.63"/>
            </g>
            <path class="cls-7" d="m36.29,79.46c-3.45,1.51-5.63,5.15-6.25,8.87-.63,3.72.07,7.53,1,11.18.07.26.15.54.36.71.57.45,1.31-.28,1.68-.9,1.88-3.14,4.33-5.94,7.21-8.21"/>
            <path class="cls-6" d="m58.1,204.82c-.35-4.59-1.34-9.15-2.31-13.66-2.77-12.79-5.55-25.59-8.32-38.38-1.72-7.95-3.45-15.91-5.63-23.75-3.02-10.87-6.94-21.65-7.58-32.91-.51-9.1,1.89-23.35,3.9-32.24l16.26-29.45,1.08,2.58c4.61-5.6,9.27-11.82,14.19-17.15,1.46,1.17,1.75,3.23,1.93,5.09,1.01,10.13,2.01,20.26,3.02,30.39.38,3.79.75,7.59.66,11.39-.08,3.14-.47,6.26-1.02,9.35l.21,3.87c-1.21,16.42-2.43,32.83-3.64,49.25-.78,10.52-1.56,21.06-1.68,31.61-.1,8.8.26,17.6,1.07,26.36.48,5.12,1.11,10.23,1.79,15.33"/>
            <path class="cls-2" d="m69.68,79.71c-1.69,1.1-3.47,2.05-5.32,2.86-1.31.58-2.71,1.09-4.14,1.01-3.17-.16-5.5-3.02-8.46-4.16-1.05-.4-2.19-.59-3.21-1.05s-1.99-1.31-2.15-2.43"/>
            <path class="cls-6" d="m55.22,37.13c.33-7.6.88-13.99.84-21.6-8.28,4.09-11.6,15.16-14.84,24.9-.5,1.52-1.02,3.07-.98,4.67.02.69.13,1.37.04,2.05-.1.72-.44,1.37-.75,2.03-2.06,4.36-2.95,9.26-2.57,14.07.11,1.43.35,2.9,1.08,4.14,1.36,2.31,4.28,3.64,4.94,6.24"/>
            <path class="cls-2" d="m42.04,49.35c.53,5.26,2.57,10.35,5.81,14.52.21.27.43.68.18.93"/>
            <path class="cls-2" d="m40.21,57.1c-.02,2.33.37,4.67,1.15,6.87"/>
            <path class="cls-2" d="m51.02,40.83c.68,1.05,1.88,1.71,3.1,1.71"/>
            <path class="cls-2" d="m70.14,86.72c-.06.68-.28,2.05-.95,2.43-1.19.68-1.82-1.86-1.95-2.61"/>
            <path class="cls-2" d="m64.51,88.85c-.06.68-.28,2.05-.95,2.43-1.19.68-1.82-1.86-1.95-2.61"/>
            <path class="cls-2" d="m59.02,91.39c-.06.68-.28,2.05-.95,2.43-1.19.68-1.82-1.86-1.95-2.61"/>
            <path class="cls-2" d="m69.52,92.91c-.06.68-.28,2.05-.95,2.43-1.19.68-1.82-1.86-1.95-2.61"/>
            <path class="cls-2" d="m64.37,95.58c-.06.68-.28,2.05-.95,2.43-1.19.68-1.82-1.86-1.95-2.61"/>
            <path class="cls-2" d="m63.52,105.87c-.06.68-.28,2.05-.95,2.43-1.19.68-1.82-1.86-1.95-2.61"/>
            <path class="cls-2" d="m59.96,100.22c-.06.68-.28,2.05-.95,2.43-1.19.68-1.82-1.86-1.95-2.61"/>
            <path class="cls-2" d="m61.08,112.11c-.06.68-.28,2.05-.95,2.43-1.19.68-1.82-1.86-1.95-2.61"/>
            <path class="cls-2" d="m69.39,100.04c-.06.68-.28,2.05-.95,2.43-1.19.68-1.82-1.86-1.95-2.61"/>
            <path class="cls-2" d="m69.79,106.82c-.06.68-.28,2.05-.95,2.43-1.19.68-1.82-1.86-1.95-2.61"/>
            <path class="cls-7" d="m53.41,86.6c-.64,9.17-1.2,18.35-1.78,27.52-.04.55-.09,1.15-.44,1.57-1.25,1.48-3.43-1.94-4.11-2.68-1.5-1.64-2.85-3.41-4.05-5.28-.9-1.41-1.74-2.93-1.93-4.59-.25-2.08.52-4.14,1.35-6.07,1.35-3.16,2.87-6.24,4.39-9.32"/>
            <path class="cls-2" d="m44.95,103.17c.71-2.61,1.42-5.22,2.12-7.83"/>
            <path class="cls-2" d="m47.9,106.98c.29-2.57.6-5.13.93-7.7"/>
          </g>
          <path class="cls-2" d="m69.29,52.21c.66,1.96.33,4.23-.87,5.91"/>
          <path class="cls-2" d="m67.24,63.22c.45,1.76-.1,3.74-1.39,5.02"/>
        </g>
      </g>
      <circle class="cls-1" cx="56.5" cy="56.5" r="55"/>
    </g>
  </g>
</svg>