<?xml version="1.0" encoding="UTF-8"?>
<svg id="_레이어_2" data-name="레이어 2" xmlns="http://www.w3.org/2000/svg" viewBox="0 0 430.51 348.45">
  <defs>
    <style>
      .cls-1 {
        fill: #ebad33;
      }

      .cls-1, .cls-2, .cls-3 {
        stroke: #221714;
        stroke-linecap: round;
        stroke-linejoin: round;
        stroke-width: 6px;
      }

      .cls-2 {
        fill: #ffda4e;
      }

      .cls-3 {
        fill: none;
      }
    </style>
  </defs>
  <g id="_레이어_3" data-name="레이어 3">
    <g>
      <g>
        <g>
          <path class="cls-1" d="m278.3,168.36c18.7-7.67,36.79-16.81,54.05-27.31,1.27-.77,2.61-1.63,3.24-2.98.51-1.1.48-2.36.43-3.57-.48-11.75-1.86-23.47-4.1-35.01"/>
          <path class="cls-3" d="m300.37,149.2c8.5-3.86,16.74-8.28,24.65-13.22"/>
          <path class="cls-3" d="m313.14,132.36c5.12-1.9,10.1-4.2,14.88-6.85"/>
        </g>
        <g>
          <path class="cls-1" d="m223.05,236.79c12.58-3.97,24.8-9.07,36.46-15.22,1.54-.81,3.15-1.72,3.97-3.25.63-1.18.71-2.57.77-3.91.31-6.92.6-13.91-.58-20.74-.3-1.75-.74-3.58-1.94-4.9-1.2-1.32-3.38-1.9-4.79-.82"/>
          <path class="cls-3" d="m237.35,221.47c4.89-1.35,9.62-3.29,14.06-5.75"/>
          <path class="cls-3" d="m246.75,208.9c3.05-.13,6.07-.78,8.91-1.91"/>
        </g>
        <g>
          <path class="cls-1" d="m114.46,221.57c4.53-5.86,5.98-13.63,10.39-19.58,2.72-3.66,6.42-6.45,10.08-9.18,18.34-13.7,36.72-27.34,55.16-40.91.79-.58,1.92-1.16,2.67-.52.32.28.45.71.57,1.12,1.17,4.19,2.34,8.38,3.51,12.57"/>
          <path class="cls-3" d="m149.93,194.4c1.12-3.14,2.71-6.12,4.69-8.8"/>
          <path class="cls-3" d="m168.12,183.9c1.55-3.79,3.1-7.58,4.65-11.36"/>
        </g>
        <g>
          <path class="cls-1" d="m205.45,161.73c8.67-14.71,17.68-29.8,31.29-40.11,7.06-5.35,15.13-9.22,23.27-12.7,18.01-7.69,36.74-13.68,55.87-17.86"/>
          <path class="cls-3" d="m233.07,143.68c2.84-6.64,6.3-13,10.34-18.98"/>
          <path class="cls-3" d="m251.83,131.02c1.25-4.06,2.74-8.05,4.45-11.95"/>
          <path class="cls-3" d="m266.68,121.56c.07-2.99.49-5.97,1.23-8.87"/>
        </g>
        <path class="cls-1" d="m156.27,292.01c7.37,4.29,16.9,3.4,24.52-.42,7.62-3.81,13.65-10.17,19.07-16.74.39-.47.79-.99.82-1.6.06-1.63-2.25-2.01-3.88-1.86-8.24.77-16.62.02-24.59-2.2"/>
        <path class="cls-1" d="m355.88,85.09c3.55-3.04,7.27-5.85,11.24-8.33,9.69-6.05,20.56-9.94,30.61-15.37,11.16-6.03,21.27-13.98,29.77-23.39-12.74-.65-24.61-9.29-29.36-21.1-1.78-4.43-2.77-9.27-3.94-13.89-12.11,9.74-23.32,20.54-34.02,31.8-8.94,9.41-17.73,18.98-27.11,27.96"/>
        <path class="cls-2" d="m355.88,85.09c-7.9,6.76-14.91,14.64-21.84,22.44-19.64,22.12-39.29,44.24-58.93,66.35-12.21,13.74-24.42,27.5-35.82,41.92-15.8,20.01-30.24,41.52-49.94,57.71-15.91,13.07-45.12,27.69-64.01,35.87l-75.4,9.6,3.27-5.42c-16.36-.93-33.92-1.15-50.21-3.01.19-4.22,3.57-7.5,6.71-10.32,17.14-15.34,34.28-30.68,51.42-46.03,6.41-5.74,12.84-11.49,19.91-16.39,5.83-4.04,12.06-7.48,18.42-10.61l6.78-5.55c31.57-19.67,63.13-39.34,94.7-59.01,20.24-12.61,40.49-25.24,59.91-39.08,16.18-11.55,31.77-23.94,46.67-37.1,8.71-7.7,17.19-15.66,25.59-23.7"/>
        <path class="cls-3" d="m112.21,230.77c4.25,1.62,8.38,3.59,12.31,5.88,2.8,1.63,5.6,3.5,7.37,6.21,3.93,6,1.82,14.06,3.69,20.99.67,2.46,1.84,4.77,2.36,7.27s.26,5.38-1.56,7.16"/>
        <path class="cls-2" d="m53.8,313.9c-14.31,9.54-26.69,17.05-40.52,27.26,18.5,9.65,43.12.95,65.22-6.12,3.44-1.1,6.95-2.24,9.82-4.44,1.23-.94,2.33-2.08,3.7-2.8,1.44-.76,3.09-1.02,4.7-1.33,10.7-2.06,20.83-6.96,29.09-14.07,2.46-2.12,4.82-4.51,6.11-7.49,2.41-5.56.93-12.66,4.8-17.33"/>
        <path class="cls-3" d="m93.86,317.89c8.88-7.98,15.46-18.49,18.75-29.96.22-.75.68-1.69,1.45-1.56"/>
        <path class="cls-3" d="m111.78,312.82c4.28-3.08,8.02-6.91,11-11.26"/>
        <path class="cls-2" d="m337.47,67.74c4.26-2.09,8.07-4.89,12.09-7.37s8.43-4.82,12.87-6.8c2.12-.95,4.32-2.02,6.61-2.48,2.41-.47,6.12.26,5.97,3.4-.09,1.85-1.52,3.5-2.82,4.7-3.92,3.61-8.35,6.64-12.3,10.24s-7.47,7.38-10.35,11.76c-.44.66-.86,1.34-1.26,2.03"/>
        <path class="cls-3" d="m19.95,301.71c-.35.22-.31.77-.02,1.05s.72.34,1.12.4c10.08,1.32,20.34.87,30.55.85.83,0,1.79.06,2.27.71"/>
        <path class="cls-3" d="m34.43,338.49c-.68.06-1.46-.24-2.05-.8,1.2-1.64,2.93-2.73,4.63-3.79,6.98-4.36,13.97-8.71,20.95-13.07"/>
        <path class="cls-3" d="m66.66,320.6c1.01-2.63.62-5.72-1.02-7.94"/>
        <path class="cls-3" d="m124.38,220.58c1.32-.8,4.11-2.22,5.69-1.51,2.83,1.27-.97,5.81-2.16,7.05"/>
        <path class="cls-3" d="m147.73,234.63c1.32-.8,4.11-2.22,5.69-1.51,2.83,1.27-.97,5.81-2.16,7.05"/>
        <path class="cls-3" d="m140.37,219.33c1.32-.8,4.11-2.22,5.69-1.51,2.83,1.27-.97,5.81-2.16,7.05"/>
        <path class="cls-3" d="m166.08,215.47c1.32-.8,4.11-2.22,5.69-1.51,2.83,1.27-.97,5.81-2.16,7.05"/>
        <path class="cls-3" d="m182.79,203.25c1.32-.8,4.11-2.22,5.69-1.51,2.83,1.27-.97,5.81-2.16,7.05"/>
        <path class="cls-3" d="m151.35,204.51c1.32-.8,4.11-2.22,5.69-1.51,2.83,1.27-.97,5.81-2.16,7.05"/>
        <path class="cls-3" d="m164.57,195.26c1.32-.8,4.11-2.22,5.69-1.51,2.83,1.27-.97,5.81-2.16,7.05"/>
        <path class="cls-1" d="m146.47,251.24c17.58-11.06,35.07-22.28,52.58-33.45,1.06-.67,2.21-1.37,3.46-1.29,4.36.3,1.04,8.85.58,11.08-1,4.92-2.41,9.75-4.22,14.43-1.37,3.53-3.02,7.07-5.79,9.64-3.47,3.23-8.25,4.57-12.87,5.64-7.56,1.76-15.21,3.09-22.86,4.42"/>
        <path class="cls-3" d="m187.98,244.6c-5.7,2.19-11.41,4.38-17.11,6.56"/>
        <path class="cls-3" d="m191,234.12c-5.07,2.9-10.16,5.76-15.28,8.58"/>
        <path class="cls-3" d="m202.78,198.35c.85-.41,1.71-.82,2.56-1.23.59-.28,1.2-.57,1.85-.55,1.26.04,2.23,1.32,2.25,2.58.03,1.26-.67,2.43-1.55,3.34-.19.2-.39.39-.62.54"/>
        <path class="cls-3" d="m189.94,182.37c1.09-.83,2.44-1.32,3.81-1.36.42-.01.86.02,1.23.22.56.31.86.97.88,1.61s-.2,1.26-.46,1.85c-.34.78-.77,1.53-1.26,2.22"/>
        <path class="cls-3" d="m209.39,176.23c.9-.56,1.87-1.01,2.88-1.34.63-.21,1.36-.36,1.92-.01.34.21.57.57.72.94.61,1.41.41,3.14-.51,4.37"/>
        <path class="cls-3" d="m221.68,159.51c.74-.46,1.49-.93,2.34-1.12s1.83-.04,2.43.59c.68.72.69,1.87.3,2.78-.39.9-1.11,1.62-1.82,2.31"/>
        <path class="cls-3" d="m241.82,151.73c.74-.46,1.49-.93,2.34-1.12.85-.19,1.83-.04,2.43.59.68.72.69,1.87.3,2.78s-1.11,1.62-1.82,2.31"/>
      </g>
      <path class="cls-2" d="m65.19,267.69c1.44,4.67,6.41,13.66,12.35,9.01,1.77-1.39,2.57-3.88,2.61-6.08.04-2.66-1.03-5.25-2.59-7.41"/>
      <path class="cls-2" d="m84.23,259.57c.98,2.16,2.28,4.2,3.87,5.96,2.07,2.29,5.41,4.84,8.32,2.3.95-.83,1.72-2.03,2.16-3.21,1.38-3.66.85-7.64-.39-11.47"/>
    </g>
  </g>
</svg>