<?xml version="1.0" encoding="UTF-8"?>
<svg id="_레이어_2" data-name="레이어 2" xmlns="http://www.w3.org/2000/svg" viewBox="0 0 587.45 587.45">
  <defs>
    <style>
      .cls-1 {
        stroke: #221714;
        stroke-miterlimit: 10;
      }

      .cls-1, .cls-2, .cls-3 {
        stroke-width: 6px;
      }

      .cls-1, .cls-3 {
        fill: #fff;
      }

      .cls-2 {
        fill: #009fe8;
      }

      .cls-2, .cls-3 {
        stroke: #000;
        stroke-linecap: round;
        stroke-linejoin: round;
      }
    </style>
  </defs>
  <g id="_레이어_3" data-name="레이어 3">
    <g>
      <circle class="cls-1" cx="293.72" cy="293.72" r="290.72"/>
      <g>
        <path class="cls-2" d="m413.89,446.5h-240.34c-10.07,0-18.6-8.05-19.99-18.86l-16.51-128.36c-1.69-13.16,7.74-24.91,19.99-24.91h273.36c12.26,0,21.69,11.75,19.99,24.91l-16.51,128.36c-1.39,10.81-9.92,18.86-19.99,18.86Z"/>
        <rect class="cls-2" x="117.93" y="241.76" width="351.59" height="61.74" rx="24.36" ry="24.36"/>
        <g>
          <path class="cls-3" d="m199.21,332.83c-.52-6.05-5.84-10.53-11.9-10.02-6.05.52-10.54,5.85-10.02,11.9l6.67,77.57c.49,5.73,5.3,10.06,10.95,10.06.32,0,.63-.01.96-.04,6.05-.52,10.54-5.85,10.02-11.9l-6.67-77.57Z"/>
          <path class="cls-3" d="m240.51,322.78c-6.07.26-10.78,5.39-10.52,11.46l3.34,77.57c.25,5.91,5.12,10.53,10.98,10.53.16,0,.32,0,.48,0,6.07-.26,10.78-5.39,10.52-11.46l-3.34-77.57c-.26-6.07-5.37-10.78-11.46-10.52Z"/>
          <path class="cls-3" d="m293.72,322.77c-6.08,0-11,4.92-11,11v77.57c0,6.08,4.92,11,11,11s11-4.92,11-11v-77.57c0-6.08-4.92-11-11-11Z"/>
          <path class="cls-3" d="m346.93,322.78c-6.09-.26-11.2,4.45-11.46,10.52l-3.34,77.57c-.26,6.07,4.45,11.2,10.52,11.46.16,0,.32,0,.48,0,5.86,0,10.73-4.62,10.98-10.53l3.34-77.57c.26-6.07-4.45-11.2-10.52-11.46Z"/>
          <path class="cls-3" d="m400.14,322.81c-6.06-.52-11.38,3.96-11.9,10.02l-6.67,77.57c-.52,6.05,3.96,11.38,10.02,11.9.32.03.64.04.96.04,5.65,0,10.45-4.33,10.95-10.06l6.67-77.57c.52-6.05-3.96-11.38-10.02-11.9Z"/>
        </g>
        <g>
          <path class="cls-2" d="m407.08,152.81h34.54v130.19c0,9.53-7.74,17.27-17.27,17.27h0c-9.53,0-17.27-7.74-17.27-17.27v-130.19h0Z" transform="translate(302.58 -238.82) rotate(47.24)"/>
          <path class="cls-2" d="m163.1,152.81h0c9.53,0,17.27,7.74,17.27,17.27v130.19h-34.54v-130.19c0-9.53,7.74-17.27,17.27-17.27Z" transform="translate(440.16 260.6) rotate(132.76)"/>
        </g>
      </g>
    </g>
  </g>
</svg>