<?xml version="1.0" encoding="UTF-8"?>
<svg id="_레이어_2" data-name="레이어 2" xmlns="http://www.w3.org/2000/svg" viewBox="0 0 372.41 698.08">
  <defs>
    <style>
      .cls-1 {
        fill: #f3f0d3;
      }

      .cls-1, .cls-2, .cls-3, .cls-4, .cls-5, .cls-6, .cls-7, .cls-8, .cls-9, .cls-10 {
        stroke-linecap: round;
        stroke-linejoin: round;
        stroke-width: 6px;
      }

      .cls-1, .cls-3, .cls-5, .cls-6, .cls-7, .cls-8, .cls-9, .cls-10 {
        stroke: #231815;
      }

      .cls-2 {
        fill: #8bccc8;
      }

      .cls-2, .cls-4 {
        stroke: #221714;
      }

      .cls-3 {
        fill: #333;
      }

      .cls-4 {
        fill: #969696;
      }

      .cls-5 {
        fill: #0071b9;
      }

      .cls-6 {
        fill: #ef96a5;
      }

      .cls-7 {
        fill: #efefef;
      }

      .cls-8 {
        fill: #fff;
      }

      .cls-9 {
        fill: #ffe465;
      }

      .cls-10 {
        fill: none;
      }
    </style>
  </defs>
  <g id="_레이어_3" data-name="레이어 3">
    <g>
      <path class="cls-4" d="m165.2,635.09c-13.75-.46-27.53.52-41.11,2.9-10.91,1.92-27.45,7.89-30.91,15.86-12.94,29.76,27.66,36.22,42.83,38.92,20.77,3.7,41.83,2.29,62.67.26,21.26-2.07,42.64-5.54,62.62-14.04,4.18-1.78,8.41-3.86,11.49-7.42,4.53-5.21,4.73-11.97,1.11-17.75-5.18-8.25-15.64-12.02-23.92-15.1-17.57-6.53-36.15-6.38-54.49-5.33"/>
      <path class="cls-4" d="m188.94,657.68c-.02-29.71.56-59.43,1.74-89.08l-18.32-.62c-.78,30.09-1.32,60.2-1.6,90.32"/>
      <path class="cls-3" d="m203.35,190.06c.53,3.64,4.51,6.06,8.18,5.82s6.92-2.54,9.38-5.27c-.79,4.66,3.55,8.65,7.92,10.44,9.93,4.06,22.22,1.42,29.61-6.35-.75,2.66,2.41,4.69,5.08,5.37,4.5,1.15,9.4,1.33,13.67-.49,4.27-1.82,7.74-5.91,7.94-10.55.76,5.14,1.87,10.38,4.72,14.72,2.85,4.34,7.79,7.65,12.97,7.23,4.41-.36,8.3-3.35,10.67-7.09s3.43-8.16,4.11-12.54c2.34,2.8,7.45,2.43,9.36-.68-.84,3.23,1.33,6.7,4.33,8.16,3,1.46,6.56,1.25,9.77.35,13.66-3.82,18.64-18.81,14.26-31.55-2.97-8.63-9.56-16.05-14.38-23.7-4.58-7.27-9.4-14.4-14.1-21.6-6.07-9.29-12.13-18.58-18.2-27.87l-108.64-17.2-90.18,3.36-58.75,73.16c-5.15,1.67-9.64,5.27-12.4,9.93-1.71,2.89-2.74,6.53-1.35,9.57,1.4,3.05,6.03,4.51,8.23,1.98-2.51,2.02-3.58,5.49-3.22,8.69s1.98,6.16,4.02,8.65c1.85,2.25,4.19,4.26,7.03,4.95,2.84.69,6.2-.26,7.68-2.78-1.34,2.52,1.6,5.24,4.32,6.11,9.72,3.11,21.39-3.1,24.23-12.9,2.13,4.25,5.15,8.49,9.67,9.99,4.52,1.49,10.55-1.28,10.74-6.03,1.42,2.78,5.52,3.16,8.22,1.59s4.33-4.44,5.84-7.18c-.63,2.19-1.26,4.46-.99,6.72.9,7.53,10.61,5.39,15.11,2.65,2.32-1.41,4.19-3.86,4.21-6.58"/>
      <g>
        <path class="cls-6" d="m58.29,530.63c-6.69-27.95-7.71-56.77-7.91-85.39-.14-19.53.37-39.07,1.53-58.57.96-16.16-.92-38.88,8.8-52.78,8.65-12.37,30.21-12.07,43.47-12.24,68.52-.99,137.17-.4,205.51,5.14,17.63,1.43,25.76,11.12,28.86,28.21,4.88,26.9.2,72.49-3.95,99.38-4.45,28.81-6,45.94-13.11,76.24"/>
        <path class="cls-6" d="m131.06,370.24c-.33,8.5-.67,17-1,25.51-.1,2.49-.36,5.31-2.33,6.84-1.26.97-2.93,1.17-4.51,1.34-9.68,1-19.36,2-29.03,3"/>
        <path class="cls-6" d="m129.42,433.88c-.75-9.81-.82-19.67-.21-29.49.08-1.32.26-2.8,1.31-3.59.78-.59,1.83-.63,2.8-.64,9.9-.15,19.8-.3,29.7-.45"/>
        <path class="cls-6" d="m271.31,373.22c-.05,10.96-.1,21.93-.15,32.89,0,.43-.01.89-.26,1.24-.37.51-1.08.58-1.71.6-9.52.38-19.04.76-28.55,1.14"/>
        <path class="cls-6" d="m269.73,439.46c.9-10.95,1.81-21.91,2.71-32.86.04-.5.09-1.02.39-1.42.4-.54,1.14-.69,1.81-.8,5.01-.77,10.12-.9,15.16-.37,3.69.39,7.38,1.12,11.08.95"/>
        <path class="cls-6" d="m124.71,394.84c-2.61,1.6-5.24,4.06-5.07,7.13.11,1.94,1.39,3.67,3.03,4.71,1.64,1.04,3.59,1.46,5.52,1.65,1.35.13,2.76.14,4-.39,1.38-.59,2.4-1.79,3.3-2.98,1.47-1.94,2.84-4.27,2.37-6.65-.44-2.21-2.43-3.85-4.58-4.5s-4.46-.5-6.7-.28"/>
        <path class="cls-6" d="m267.22,400.92c-2.61,1.6-5.24,4.06-5.07,7.13.11,1.94,1.39,3.67,3.03,4.71s3.59,1.46,5.52,1.65c1.35.13,2.76.14,4-.39,1.38-.59,2.4-1.79,3.3-2.98,1.47-1.94,2.84-4.27,2.37-6.65-.44-2.21-2.43-3.85-4.58-4.5-2.15-.66-4.46-.5-6.7-.28"/>
        <path class="cls-6" d="m27.25,516.14c-5.21,13.96-5.99,37.11,2.85,49.79,6.67,9.56,18.21,13.15,29.2,14.88,14.37,2.27,29,2.37,43.54,1.98,26.61-.72,53.11-2.73,79.75-2.1,26.91.64,53.74,2.55,80.59,4.45,4.34.31,8.68.61,13.01.91,20.05,1.37,42.67,1.67,57.17-12.24,9.36-8.97,13.32-22.37,13.84-35.32.35-8.84-.78-17.91-4.71-25.84-3.93-7.93-10.92-14.6-19.49-16.8-11.73-3.02-23.73,2.47-35.14,6.52-17.37,6.17-36.07,9.2-54.36,6.92-23.62-2.94-46.43-14.6-70.05-11.75-13.39,1.62-25.98,7.85-39.44,8.67-15.53.94-30.44-5.39-45.6-8.93s-33.02-3.56-44.03,7.44c-3.28,3.27-5.57,7.18-7.14,11.4Z"/>
      </g>
      <path class="cls-1" d="m140.52,232.75c16.72,23.64,34.99,45.39,46.2,72.55,8.6,20.83,12.46,45.26,12.13,67.32-.61,41.13-11.62,75.8-34.93,108.83-4.38,6.21-7.97,10.82-14.95,14.06-12.61,5.85-20.53,4.87-36.42,2.93-27.4-3.34-62.67-4.21-83.71,16.52-21.04,20.73-25.49,40.44-25.83,67.3,8.88-27.7,27.13-55.73,56.87-59.66,19.65-2.6,49.77,8.27,64.39,8.07,30.82-.41,39.62-6.78,60.69-23.25,31.63-24.72,51.93-78.82,54.07-115.83,2.14-37.02-5.35-66.43-13.8-98.17-7.18-26.96-11.63-52.73-22.91-75.22-11.28-22.49-34.1,7.21-55.3-1.57"/>
      <g>
        <path class="cls-9" d="m221.04,254.38c-.73,5.24-1.64,10.43-2.75,15.56-6.01,27.69-25.38,44.62-55.09,45.1-20.47.33-47.35-6.24-54.78-27.06-1.4-3.93-1.94-8.11-1.8-12.24.28-8.39,2.71-16.92,7.04-24.33,4.61-7.89,11.81-13.72,17.33-20.95,3.97-5.2,6.19-11.87,7.31-18.19,2.1-11.88,1.69-24.51,2.64-36.55,2.04-25.92,1.25-61.99,30.31-74.89,15.42-6.23,35.55-1.39,44.33,12.86,4.24,6.89,4.95,14.49,5.72,22.3.84,8.54,1.12,17.11,1.4,25.67.98,30.24,2.59,62.3-1.65,92.72Z"/>
        <path class="cls-10" d="m159.45,205.63c-.12,4.86-.23,9.71-.35,14.57"/>
        <path class="cls-10" d="m185.9,201.7c.12,6.36.24,12.71.37,19.07"/>
      </g>
      <g>
        <path class="cls-7" d="m185.72,360.79c-3.58,1.58-6.65,4.24-9.61,6.85-20.9,18.44-28.69,29.61-48.4,49.31-12.24,12.23-25.98,33.87-38.54,46.36-12.89,12.83-34.46,19.8-17.47,34.08,12.15,10.2,26.29,18.96,42.05,20.79,15.47,1.79,30.97-3.24,46.53-2.75,17.54.55,34.75,8.1,52.13,5.69,13.39-1.85,25.7-9.52,39.21-9.76,17.41-.31,33.07,11.73,50.47,12.3,7.27.24,15.52-2.35,18.48-8.99,2.82-6.33-.2-13.63-3.42-19.77-11.35-21.62-27.41-51.69-40.7-72.31-14.27-22.14-25.58-34.9-31.95-60.32-.23-.92-.5-1.92-1.27-2.47-.67-.48-1.55-.5-2.37-.51-14.31-.07-28.62-.15-42.92-.22-3.47-.02-7.01-.03-10.33,1.02-.64.2-1.27.44-1.87.71Z"/>
        <path class="cls-7" d="m119.22,502.76c14.52-14.09,26.04-31.26,33.58-50.04"/>
        <path class="cls-7" d="m220.2,497.61c-4.83-23.16-7.36-46.81-7.55-70.47"/>
        <path class="cls-7" d="m259.97,466.72c-.03,5.58-.05,11.23,1.31,16.65s4.25,10.66,8.93,13.7c10.78,7.01,27.08.49,36.88,8.8"/>
        <path class="cls-7" d="m192.83,430.86c2.37-8.76,3.33-17.82,4.28-26.85.37-3.49.74-6.98,1.11-10.47"/>
      </g>
      <path class="cls-5" d="m244.41,350.45c.53.1.99.31,1.31.69,2.02,2.34.64,12.76-1.89,14.52-.91.63-2.05.81-3.15.97-17.7,2.5-35.02.14-52.72-2.35-1.45-.2-3.05-.52-3.89-1.72-.76-1.09-.63-2.55-.35-3.84.53-2.5,1.48-4.9,2.8-7.09.75-1.24,1.67-2.47,2.99-3.06,1.95-.88,4.2-.2,6.25.41,14.52,4.36,30.15,4.97,44.97,1.76.92-.2,2.46-.52,3.66-.28Z"/>
      <path class="cls-3" d="m123.54,176.34c.1.12.2.24.3.35,2.76,3.06,6.62,3.93,10.58,3.78,2.48-.1,7.26-.46,7.88-3.58-.67,3.31,3,6.15,6.7,7.42,8.39,2.88,18.78,1.01,25.03-4.52-.63,1.89,2.04,3.33,4.3,3.82,3.8.82,7.94.94,11.55-.35,3.61-1.29,6.55-4.2,6.71-7.5.64,3.66,1.58,7.38,3.99,10.47,2.41,3.09,6.59,5.44,10.96,5.14,3.73-.25,7.02-2.39,9.02-5.05s2.9-5.8,3.47-8.91c1.98,1.99,6.29,1.73,7.92-.48-.71,2.3,1.12,4.76,3.66,5.8s5.55.89,8.26.25c6.65-1.57,10.21-5.36,13.01-10.83,5.66-11.03,10.97-22.21,16.43-33.32l-103.1-26.91-38.11,15.25s-14.23,24.44-14.26,24.49c-1.04,1.78,2.37,6.77,3.07,8.35,1.22,2.75-.1,5.89-.03,8.76s.86,5.42,2.63,7.56Z"/>
      <path class="cls-2" d="m31.71,167.68c64.57,1.06,129.13,2.12,193.7,3.16,41.87.67,83.73,1.35,125.6,2.02,3.31.05,6.71.09,9.83-1.01,8.76-3.11,9.19-13.95,8.2-21.64-6.79-53.03-40.88-100.66-87.54-126.17C243.5,3.27,197.9-2.22,155.89,8c-52.46,12.76-95.06,48.58-117.21,97.56-8.44,18.67-14.05,38.58-17.08,58.83"/>
      <path class="cls-8" d="m362.9,121.24c-108.77-5.75-217.72-7.94-326.64-6.59l-7.13,17.99c40.03-1.28,80.08-2.55,120.13-1.91,72.04,1.15,143.99,8.49,216,6.17"/>
    </g>
  </g>
</svg>