<?xml version="1.0" encoding="UTF-8"?>
<svg id="_레이어_2" data-name="레이어 2" xmlns="http://www.w3.org/2000/svg" viewBox="0 0 674.99 598.91">
  <defs>
    <style>
      .cls-1, .cls-2 {
        fill: #ef96a5;
      }

      .cls-3 {
        fill: #231815;
      }

      .cls-4 {
        fill: #f3f0d3;
      }

      .cls-4, .cls-5, .cls-6, .cls-7, .cls-2, .cls-8, .cls-9, .cls-10 {
        stroke-linecap: round;
        stroke-linejoin: round;
        stroke-width: 6px;
      }

      .cls-4, .cls-2, .cls-8, .cls-10 {
        stroke: #231815;
      }

      .cls-5 {
        fill: #4d4d4d;
      }

      .cls-5, .cls-6, .cls-7, .cls-9 {
        stroke: #221714;
      }

      .cls-6 {
        fill: #8bccc8;
      }

      .cls-7 {
        fill: #969696;
      }

      .cls-8 {
        fill: #ffe465;
      }

      .cls-9, .cls-10 {
        fill: none;
      }
    </style>
  </defs>
  <g id="_레이어_3" data-name="레이어 3">
    <g>
      <g>
        <path class="cls-4" d="m540.7,153.58c26.18,23.25,57.08,47.17,55.94,86.17-.55,18.71-12.96,28.71-30.08,32.46-20.86,4.58-43.29,1.75-62.9,11.63-16.05,8.09-28.08,25.08-30.45,43-3.36,25.52,12.55,49.14,32.89,62.71,14.06,9.39,30.59,14.64,47.32,16.68,20.16,2.47,40.99.36,59.91-7.1,18.92-7.46,35.85-20.37,47.31-37.29-16.84,8.67,5.79-49.06-38.25-3.13-13.34,13.92-53.49,22.59-71.26,16.06-10.99-4.04-21.68-10.48-27.7-20.6-6.02-10.12-6.06-24.48,2.27-32.77,3.72-3.71,8.69-5.9,13.74-7.25,11.87-3.17,28.2-4.35,40.24-5.96,51.25-6.85,65.84-56.72,51.05-99.36-2.48-7.16-5.83-14.04-10.03-20.43-.54-.81-1.08-1.62-1.64-2.42-9.59-13.63-22.06-25.19-36-34.17-5.22-3.36-10.65-6.41-16.23-9.13"/>
        <g>
          <path class="cls-8" d="m574.16,151.62c-.7,4.99-1.56,9.92-2.61,14.8-5.72,26.34-24.15,42.45-52.41,42.91-19.47.31-45.05-5.94-52.12-25.74-1.34-3.74-1.85-7.71-1.72-11.64.26-7.99,2.58-16.1,6.69-23.14,4.38-7.51,11.24-13.05,16.49-19.93,3.78-4.95,5.89-11.29,6.95-17.3,2-11.3,1.61-23.32,2.51-34.77,1.94-24.66,1.19-58.98,28.84-71.25,14.67-5.92,33.82-1.32,42.17,12.23,4.04,6.55,4.71,13.78,5.44,21.22.8,8.12,1.07,16.27,1.33,24.42.93,28.77,2.47,59.28-1.57,88.21Z"/>
          <path class="cls-10" d="m515.57,105.24c-.11,4.62-.22,9.24-.33,13.86"/>
          <path class="cls-10" d="m540.73,101.5c.12,6.05.23,12.09.35,18.14"/>
        </g>
      </g>
      <path class="cls-7" d="m30.67,266.25c-7.97,49.23-15.26,98.57-21.86,148.01,1.41,4.1,7.69,4.36,10.88,1.41,3.19-2.94,4.07-7.56,4.77-11.84,7-42.51,14.01-85.03,21.01-127.54-5.21-2.81-10.15-6.2-14.8-10.04Z"/>
      <path class="cls-7" d="m486.2,351.66c5.12,38.05,10.24,76.09,15.35,114.14.58,4.32,1.34,8.98,4.87,12.12,3.52,3.14,10.8,3.29,12.65-.72-4.43-44.84-9.53-89.64-15.26-134.39-5.45,3.61-11.4,6.6-17.61,8.85Z"/>
      <path class="cls-7" d="m312.69,416.84c-4.67,0-9.22-.45-13.65-1.26-1.05,33.89-.79,55.77-.97,94.3-.05,10.16-.72,33.24-.45,43.39.12,4.42.31,21.2.44,25.62.07,2.29.14,4.59.22,6.88.07,2.17-.42,4.87.93,6.62,1.26,1.65,3.4,2.61,5.16,3.1,3.29.91,8.3.62,9.82-3.79,2.02-5.89,2.34-12.56,2.54-18.86.95-31.29,1.82-62.58,2.72-93.86.6-20.89,1.2-41.78,1.81-62.68-2.86.34-5.73.53-8.58.53Z"/>
      <path class="cls-5" d="m23.76,257.03c-.57,11.51-2.35,14.99,6.24,22.68,8.59,7.69,34.91,18.71,44.72,24.75,60.36,37.15,114.2,63.98,175.8,97.36,21.93,11.88,36.5,26.42,60.53,24.59,12.97-.99,30.28-4.99,41.79-11.05,45.87-24.13,50.23-24,95.57-42.15,7.91-3.17,62.11-25.93,68.63-31.41,6.52-5.48,5.19-8.91,4.7-18.22"/>
      <path class="cls-5" d="m178.92,192.45c-37.71,15.34-88.93,22.61-126.66,37.96-14.59,5.94-34.79,12.61-23.69,27.81,5.36,7.34,24.39,16.97,32.38,21.29,38.3,20.72,90.11,49.53,128.4,70.25,21.98,11.89,44.07,23.58,66.17,35.26,21.91,11.59,41.02,27.38,66.65,20.54,48.4-12.92,92.66-35.28,138.92-53.62,24.98-9.9,89.08-29.08,46.2-51.18-83.67-43.13-171.7-77.2-257.57-115.77"/>
      <g>
        <path class="cls-2" d="m344.75,283.75c27.89,11.8,55.78,23.61,83.68,35.41,4.7,1.99,9.65,4.02,14.72,3.47,4.51-.48,9.09-1.93,13.31-3.6,8.7-3.44,15.7-5.91,21.41-9.3,13.25-7.87,1.2-13.37-7.24-17.5-20.6-10.08-46.74-22.09-68.09-30.46-4.62-1.81-9.32-3.6-14.25-4.2-14.78-1.81-28.52,7.09-40.76,15.59"/>
        <path class="cls-6" d="m253.46,123.4c-16.53-9.98-28.17-14.72-44.7-24.7-2.37-1.43-4.8-2.89-7.51-3.44-4.06-.83-8.23.47-12.16,1.78-26.17,8.68-50.94,13.35-76.24,24.3-1.91.83-3.89,1.72-5.2,3.33-1.45,1.78-2.3,4.16-2.14,6.45,1.62,23.55-1.39,45.53.23,68.19.75,10.5,1.64,20.99,1.8,31.52.17,11.14-.4,22.48,2.34,33.38.93,3.71,9.98,8.71,12.98,11.09,10.08,8,20.23,16.05,31.55,22.17,1.69.92,3.48,1.81,5.41,1.88,2.05.08,4.02-.79,5.86-1.7,4.89-2.42,9.52-5.32,14.21-8.1,15.8-9.35,32.37-17.39,49.49-24"/>
        <path class="cls-6" d="m115.48,131.6c14.34,7.18,28.69,14.36,43.03,21.54,1.36.68,2.76,1.37,4.27,1.5,1.46.12,2.92-.29,4.33-.7,26.42-7.65,45.73-20.06,72.15-27.71"/>
        <path class="cls-6" d="m161.89,163.47c-2.48,17.27-2.62,35.05-2.75,52.69-.18,23.89-.36,47.77-.54,71.66"/>
        <path class="cls-2" d="m217.84,287.12c-6.17,1.12-12.68,3.35-17.81,7.02-.67.48-1.35,1.02-1.68,1.78-.91,2.09,1.2,4.18,3.08,5.45,19.68,13.28,42.01,21.98,63.17,32.74,10.86,5.52,21.87,11.73,34.02,12.62,9.51.69,18.91-1.95,28.07-4.58,15.92-4.55,31.83-9.1,47.75-13.65,3.7-1.06,8-2.72,8.87-6.46.73-3.17-1.44-6.24-3.71-8.57-11.89-12.18-29.07-17.15-44.37-24.62-13.47-6.58-26.27-15.49-41.09-17.71-12.73-1.91-25.48,1.35-37.51,5.26-12.41,4.03-25.06,6.67-37.67,9.96"/>
        <path class="cls-1" d="m423.98,134.95c-.52-.31-1.09-.57-1.65-.8l-131.45-54.22c-2.4-.99-5.03-1.28-7.59-.82l-2.31.41h0c-3.46.63-6.55,2.58-8.61,5.44l-5.67,7.85c-.52.72-.97,1.49-1.34,2.29l-9.6,20.87c-.29.63-.53,1.28-.72,1.94l-6.1,21.26c-.24.83-.55,1.63-.94,2.4l-1.84,3.63c-.38.74-.82,1.45-1.32,2.11l-3.03,3.98c-.46.61-.97,1.17-1.53,1.69l-5.82,5.45c-.35.33-.71.64-1.1.92l-5.99,4.53c-.2.15-.41.3-.62.44l-9.14,6.15c-.23.15-.46.3-.69.43l-10.47,6.17c-.25.15-.51.29-.77.42l-5.21,2.64c-4.1,2.08-14.76,4.93-15.28,9.5l-2.09,15.06c-.49,4.27,9.63,6.83,12.76,9.78l58.6,55.35c1,.95,1.85,2.04,2.53,3.24l18.49,32.89c2.6,4.63,7.64,7.33,12.93,6.93l71.32-5.36c1.06-.08,2.12-.04,3.17.13l55.46,8.82c4.99.27,7.22-2.36,7.11-7.42,5-50.42,5.98-106.34,5.04-164.9.09-3.68-2.25-6.71-6.54-9.22Z"/>
        <path class="cls-2" d="m188,271.54c25.71,14.27,54.12,23.96,80.23,37.51,3.19,1.65,7.16,3.28,10.16,1.32,2.32-1.51,3-4.54,3.47-7.27,3.67-21.53,3.11-39.13,3.29-60.96.02-2.51,0-5.09-.93-7.42-1.62-4.03-5.62-6.51-9.42-8.6-27.01-14.87-56.6-24.31-85.98-33.66-.98-.31-2.04-.62-3.01-.28-1.72.61-2.13,2.82-2.25,4.64-1.42,21.63-1.32,43.35.28,64.96"/>
        <path class="cls-2" d="m252.3,151.86c35.58,12.83,70.94,26.22,106.07,40.17"/>
        <path class="cls-9" d="m420.81,316.91c-4.89,2.58-31.3-5.32-46.95-7.97-4.08-.69-8.23-1.39-12.53-1.52-3.77-.11-7.48.24-11.15.57-21.59,1.95-43.36,3.56-65.27,4.81"/>
        <path class="cls-2" d="m283.59,77.33c51.37,15.24,93.54,36.25,142.33,58.42"/>
        <path class="cls-2" d="m366.45,301.45l.7-94.57"/>
        <path class="cls-9" d="m188.5,185.9c14.14-6.09,27.61-13.77,40.06-22.83,7-5.1,13.84-10.83,18.03-18.41,3.93-7.11,5.23-15.31,7.37-23.15,3.35-12.23,12.77-31.06,22.1-40.78"/>
        <path class="cls-9" d="m426.36,311.03c4.73-52.41,4.77-109.47,4.91-162.07-1.16-18.54-21.47,8.01-28.39,15.2-9.76,10.13-19.27,21-30.73,29.05-8.96,6.3-19.04,10.87-29.06,15.4-16.09,7.28-35.61,17.37-51.7,24.65"/>
        <g>
          <g>
            <path class="cls-1" d="m261.94,294.29c-1.35-.02-2.45-.28-3.37-.79-1.4-.77-2.32-2.15-2.41-3.61-.09-1.4.59-2.83,1.81-3.84.9-.74,1.93-1.15,2.76-1.47.23-.09.48-.14.73-.14.22,0,.44.04.65.11l1.9.66c1.25.08,2.43.75,3.21,1.84.82,1.14,1.06,2.57.64,3.82-.71,2.1-2.92,3.41-5.79,3.41h-.15Z"/>
            <path class="cls-3" d="m261.46,286.45l2.21.76s.07,0,.11,0c1.45,0,2.67,1.65,2.2,3.03-.5,1.49-2.31,2.05-3.89,2.05-.04,0-.08,0-.12,0-.84-.01-1.7-.13-2.44-.54-.74-.41-1.33-1.14-1.38-1.98-.05-.84.43-1.63,1.08-2.17.65-.53,1.44-.85,2.22-1.15m0-4c-.5,0-.99.09-1.46.28-.91.36-2.16.85-3.3,1.79-1.71,1.41-2.66,3.47-2.53,5.51.13,2.13,1.45,4.13,3.44,5.23,1.21.67,2.62,1,4.3,1.03h.19c3.75,0,6.69-1.83,7.68-4.77.62-1.86.28-3.96-.92-5.63-1.07-1.49-2.68-2.44-4.41-2.64l-1.67-.58c-.42-.15-.87-.22-1.31-.22h0Z"/>
          </g>
          <g>
            <path class="cls-1" d="m247.97,288.88c-.86,0-1.69-.19-2.32-.35-.86-.22-2.15-.55-3.22-1.42-1.44-1.17-2.04-3.01-1.49-4.59.42-1.21,1.34-1.89,2.01-2.38.26-.19.58-.43.67-.56.31-.48.81-.8,1.37-.88l1.7-.26c.24-.03.44-.04.63-.04,1.5,0,2.98.73,3.95,1.95.93,1.17,1.37,2.76,1.2,4.35-.14,1.34-.68,2.44-1.56,3.18-.78.66-1.77,1-2.94,1h0Z"/>
            <path class="cls-3" d="m247.32,280.39c.91,0,1.81.47,2.38,1.19.64.81.89,1.88.78,2.91-.07.7-.32,1.41-.86,1.87-.46.39-1.04.53-1.65.53s-1.24-.13-1.82-.28c-.87-.22-1.76-.48-2.46-1.04s-1.15-1.53-.86-2.38c.39-1.12,1.81-1.52,2.45-2.51l1.7-.26c.11-.01.22-.02.33-.02m0-4c-.28,0-.57.02-.84.05-.03,0-.06,0-.09.01l-1.7.26c-1.05.16-1.99.73-2.62,1.58-.08.06-.21.16-.31.23-.78.58-2.08,1.54-2.7,3.33-.83,2.37.02,5.11,2.11,6.8,1.41,1.14,3.02,1.56,3.98,1.81.74.19,1.73.41,2.82.41,2.06,0,3.44-.8,4.23-1.48,1.26-1.07,2.06-2.67,2.25-4.5.22-2.11-.37-4.23-1.62-5.8-1.34-1.69-3.4-2.71-5.51-2.71h0Z"/>
          </g>
          <g>
            <path class="cls-1" d="m230.69,281.41c-.77,0-1.53-.12-2.28-.37-1.15-.38-2.04-.98-2.63-1.77-.79-1.06-1-2.48-.58-3.81.43-1.33,1.43-2.37,2.68-2.77l3.58-1.23c.21-.07.43-.11.65-.11.35,0,.7.09,1,.27.98.57,2.08,1.28,2.73,2.52,1.09,2.07.35,4.8-1.68,6.22-.98.69-2.18,1.05-3.48,1.05h0Z"/>
            <path class="cls-3" d="m232.11,273.34c.76.44,1.56.94,1.97,1.72.65,1.23.08,2.86-1.06,3.66-.68.48-1.5.69-2.33.69-.56,0-1.13-.1-1.66-.27-.64-.21-1.26-.54-1.66-1.07-.85-1.14-.24-3.04,1.11-3.47l3.62-1.24m0-4c-.44,0-.88.07-1.3.22l-3.59,1.23c-1.84.61-3.3,2.12-3.92,4.05-.62,1.95-.3,4.05.88,5.62.85,1.14,2.07,1.97,3.61,2.48.95.31,1.93.47,2.9.47,1.71,0,3.31-.49,4.63-1.41,2.83-1.99,3.84-5.85,2.3-8.79-.97-1.85-2.62-2.81-3.5-3.32-.62-.36-1.31-.54-2.01-.54h0Z"/>
          </g>
          <g>
            <path class="cls-1" d="m215.42,275.08c-.46,0-.93-.05-1.4-.14-2.3-.47-4.18-2.01-4.89-4.03-.88-2.47.24-5.33,2.49-6.39.27-.13.56-.19.85-.19.27,0,.54.06.8.17l3.63,1.58c1.87.04,3.56,1.53,3.88,3.43.3,1.79-.6,3.68-2.22,4.71-.9.57-1.98.87-3.14.87h0Z"/>
            <path class="cls-3" d="m212.47,266.33l4.07,1.77c.09-.02.19-.02.28-.02.94,0,1.83.81,1.99,1.76.17,1.04-.42,2.13-1.32,2.69-.61.39-1.34.56-2.07.56-.33,0-.67-.04-1-.1-1.49-.3-2.9-1.3-3.41-2.74-.51-1.44.08-3.26,1.46-3.91m0-4c-.58,0-1.16.13-1.7.38-3.21,1.51-4.76,5.4-3.53,8.87.95,2.68,3.4,4.72,6.38,5.32.59.12,1.2.18,1.79.18,1.54,0,2.99-.41,4.21-1.18,2.3-1.45,3.55-4.16,3.13-6.73-.45-2.72-2.71-4.82-5.38-5.08l-3.31-1.44c-.51-.22-1.05-.33-1.6-.33h0Z"/>
          </g>
          <g>
            <path class="cls-1" d="m200.42,267.36c-.76,0-1.51-.16-2.18-.47-1.44-.66-2.39-1.85-3.13-2.93-.26-.38-.8-1.17-.82-2.2-.02-1.19.67-2.34,1.8-2.99.69-.4,1.41-.55,1.97-.64l1.87-.62c.16-.05.32-.09.49-.1.11,0,.21-.01.32-.01,2,0,3.88,1.32,4.56,3.21.69,1.92.08,4.19-1.49,5.53-.93.79-2.13,1.22-3.39,1.22h0Z"/>
            <path class="cls-3" d="m200.74,259.39c1.16,0,2.28.8,2.68,1.89.42,1.15.02,2.54-.91,3.33-.58.49-1.34.75-2.1.75-.46,0-.93-.09-1.35-.29-.99-.45-1.7-1.34-2.31-2.24-.23-.33-.46-.7-.47-1.1,0-.51.35-.97.8-1.23.44-.26.96-.35,1.46-.43l2.02-.67c.06,0,.12,0,.18,0m0-4c-.15,0-.31,0-.46.02-.33.02-.66.09-.98.2l-1.73.58c-.67.12-1.56.33-2.48.86-1.76,1.01-2.83,2.84-2.8,4.76.03,1.64.83,2.8,1.17,3.3.84,1.23,2.06,2.75,3.95,3.62.93.42,1.97.65,3.01.65,1.74,0,3.4-.6,4.69-1.7,2.2-1.87,3.05-5.05,2.08-7.74-.96-2.67-3.61-4.53-6.44-4.53h0Z"/>
          </g>
          <g>
            <path class="cls-1" d="m202.03,251.39c-.72,0-1.45-.11-2.17-.33-1.77-.54-3.05-1.68-3.51-3.12-.41-1.27-.16-2.76.67-3.99.66-.98,1.58-1.65,2.3-2.12.33-.22.72-.33,1.1-.33.27,0,.54.05.8.17l2.06.9c.13-.02.26-.02.39-.02,1.03,0,2.07.49,2.76,1.3.72.85,1.05,1.97.92,3.15-.14,1.29-.83,2.52-1.84,3.29-.96.73-2.16,1.11-3.49,1.11h0Z"/>
            <path class="cls-3" d="m200.42,243.49l2.69,1.17c.17-.09.36-.14.56-.14.46,0,.93.24,1.24.6.87,1.03.47,2.74-.6,3.55-.65.49-1.46.7-2.28.7-.53,0-1.07-.09-1.58-.24-.95-.29-1.9-.88-2.2-1.83-.24-.75-.02-1.59.42-2.25.44-.65,1.09-1.14,1.74-1.58m0-4c-.77,0-1.54.22-2.21.66-.87.58-1.99,1.4-2.85,2.67-1.19,1.76-1.53,3.84-.92,5.73.67,2.07,2.43,3.68,4.83,4.42.91.28,1.83.42,2.76.42,1.77,0,3.39-.53,4.7-1.52,1.46-1.11,2.41-2.81,2.61-4.66.19-1.73-.3-3.39-1.39-4.67-1.07-1.26-2.67-2.01-4.29-2.01-.01,0-.02,0-.03,0l-1.62-.71c-.51-.22-1.06-.33-1.6-.33h0Z"/>
          </g>
          <g>
            <path class="cls-1" d="m214.23,257.92c-.63,0-1.3-.08-1.99-.23-1.51-.34-2.54-1.07-3.06-2.15-.54-1.13-.42-2.49.34-3.84.94-1.66,2.45-2.95,4.24-3.63.23-.09.47-.13.71-.13.37,0,.73.1,1.05.3,1.26.06,2.48.63,3.31,1.57,1.05,1.2,1.42,2.89.96,4.42-.47,1.55-1.75,2.82-3.43,3.37-.66.22-1.37.33-2.12.33Z"/>
            <path class="cls-3" d="m214.46,249.94l.43.33c.14-.02.28-.03.42-.03.75,0,1.51.33,2.01.9.59.67.81,1.66.55,2.51-.3.98-1.17,1.73-2.14,2.05-.48.16-.99.23-1.5.23s-1.04-.07-1.55-.19c-.67-.15-1.4-.44-1.7-1.06-.3-.63-.06-1.39.28-1.99.71-1.25,1.86-2.24,3.2-2.74m0-4c-.47,0-.95.08-1.41.26-2.23.84-4.1,2.44-5.27,4.51-1.1,1.94-1.24,3.96-.4,5.7.55,1.14,1.76,2.62,4.42,3.22.83.19,1.65.28,2.44.28.96,0,1.89-.14,2.75-.43,2.3-.76,4.06-2.52,4.72-4.7.66-2.18.13-4.6-1.38-6.31-1.1-1.24-2.62-2.03-4.26-2.21-.51-.22-1.05-.33-1.6-.33h0Z"/>
          </g>
          <g>
            <path class="cls-1" d="m217.17,240.56c-1.52-.08-3.73-.34-5.41-1.82-1.05-.92-1.71-2.3-1.77-3.69-.06-1.21.34-2.34,1.13-3.17.33-.35.77-.56,1.24-.62l2.32-.25c.07,0,.14-.01.21-.01.18,0,.35.02.52.07,2.86.78,5.02,3.49,5.14,6.45.02.37,0,.94-.3,1.53-.29.56-1.04,1.51-2.8,1.51,0,0-.18,0-.27,0Z"/>
            <path class="cls-3" d="m214.88,233.01c2.02.55,3.58,2.5,3.66,4.6,0,.18,0,.37-.08.54-.18.35-.61.43-1.02.43-.06,0-.12,0-.18,0-1.49-.07-3.07-.34-4.19-1.33-1.12-.99-1.54-2.89-.51-3.98l2.32-.25m0-4c-.14,0-.29,0-.43.02l-2.32.25c-.95.1-1.83.54-2.48,1.23-1.16,1.23-1.75,2.87-1.67,4.63.09,1.92,1.01,3.83,2.45,5.1,2.15,1.89,4.82,2.23,6.63,2.31.12,0,.25,0,.37,0,2.93,0,4.18-1.82,4.58-2.6.57-1.11.53-2.17.52-2.52-.15-3.81-2.93-7.3-6.61-8.3-.34-.09-.69-.14-1.05-.14h0Z"/>
          </g>
          <g>
            <path class="cls-1" d="m231.14,247.5c-1.76,0-3.39-.8-4.37-2.15-.81-1.12-1.14-2.59-.89-4.03.21-1.2.79-2.28,1.64-3.06.29-.67.93-1.13,1.67-1.19.13-.01.25-.02.38-.02,1.6,0,2.89.8,4.05,1.67.73.55,2.24,1.68,2.52,3.55.23,1.54-.45,3.13-1.79,4.17-.89.68-2.02,1.06-3.2,1.06h0Z"/>
            <path class="cls-3" d="m229.57,239.05c1.04,0,2,.64,2.85,1.27.78.59,1.6,1.29,1.75,2.25.13.87-.35,1.75-1.04,2.28-.56.44-1.27.64-1.98.64-1.06,0-2.12-.46-2.75-1.32-1.04-1.44-.65-3.7.81-4.71l.15-.41c.07,0,.14,0,.21,0m0-4c-.18,0-.36,0-.54.02-1.32.11-2.48.86-3.13,1.98-1.02,1.05-1.72,2.42-1.98,3.92-.34,1.97.11,4,1.24,5.55,1.35,1.86,3.59,2.97,5.99,2.97,1.62,0,3.19-.52,4.42-1.48,1.92-1.48,2.89-3.8,2.55-6.05-.41-2.67-2.43-4.2-3.29-4.85-1.37-1.03-3.06-2.08-5.25-2.08h0Z"/>
          </g>
          <g>
            <path class="cls-1" d="m229.83,258.82c-.13,0-.26-.01-.38-.04l-.18-.04c-.91-.18-1.62-.97-1.65-1.9-.04-.92.52-1.76,1.41-2.01l1.63-.46c.18-.05.36-.07.54-.07.86,0,1.66.56,1.92,1.43.31,1.04-.27,2.15-1.31,2.48-.38.12-.78.26-1.13.42-.26.12-.55.18-.84.18Z"/>
            <path class="cls-3" d="m231.19,256.31h0m0,0c-.46.15-.93.31-1.37.51-.09-.02-.18-.04-.27-.05l1.63-.46m0-4c-.18,0-.36.01-.53.04-.22.03-.43.08-.63.14l-1.54.43c-1.78.5-2.99,2.16-2.92,4.01.07,1.85,1.41,3.41,3.23,3.77l.18.04h.07c.26.07.53.09.79.09.58,0,1.15-.13,1.68-.37.22-.1.52-.21.82-.3.36-.11.69-.26,1-.45.23-.14.43-.31.62-.49.77-.73,1.24-1.76,1.24-2.9,0-2.05-1.54-3.74-3.53-3.97-.16-.02-.31-.03-.47-.03h0Zm0,8h0,0Z"/>
          </g>
          <g>
            <path class="cls-1" d="m232.04,264.01c-.83,0-1.73-.22-2.75-.66-.69-.3-2.79-1.22-3.26-3.35-.33-1.48.31-3.12,1.62-4.19.37-.3.79-.56,1.33-.8.26-.12.55-.18.84-.18.13,0,.26.01.39.04,1.42.28,3.03.69,4.29,1.92.95.93,1.49,2.33,1.41,3.66-.08,1.16-.6,2.16-1.48,2.81-.67.5-1.5.76-2.4.76h0Z"/>
            <path class="cls-3" d="m229.83,256.82c1.2.24,2.43.55,3.29,1.39.93.91,1.17,2.65.12,3.43-.35.26-.77.37-1.2.37-.65,0-1.34-.23-1.94-.49-.91-.4-1.89-.98-2.11-1.95-.18-.82.28-1.67.93-2.2.28-.22.58-.39.91-.54m0-4c-.58,0-1.15.13-1.68.37-.68.32-1.24.65-1.74,1.06-1.93,1.56-2.82,3.92-2.32,6.17.45,2.07,1.94,3.67,4.41,4.75,1.27.56,2.44.83,3.55.83,1.33,0,2.57-.4,3.59-1.16,1.34-1,2.17-2.56,2.28-4.28.13-1.93-.62-3.88-2.01-5.22-1.79-1.74-4.07-2.2-5.29-2.44-.26-.05-.53-.08-.79-.08h0Z"/>
          </g>
          <g>
            <path class="cls-1" d="m247.96,272.03c-1.59,0-3.1-.61-4.14-1.68-1.09-1.12-1.63-2.72-1.48-4.37.15-1.59.92-3,2.14-3.86.28-.2.6-.32.94-.36l.81-.09c.07,0,.14-.01.22-.01.16,0,.31.02.46.05,2.38.57,4.44,2.1,5.67,4.22.22.37.88,1.51.52,2.86-.17.65-.55,1.23-1.16,1.77-1.07.95-2.49,1.47-3.99,1.47h0Z"/>
            <path class="cls-3" d="m246.45,263.66c1.83.44,3.46,1.65,4.41,3.28.24.41.44.89.32,1.35-.08.31-.31.57-.55.78-.72.64-1.7.97-2.66.97s-2-.36-2.71-1.08c-1.38-1.42-1.23-4.06.38-5.21l.81-.09m0-4c-.14,0-.29,0-.43.02l-.81.09c-.68.07-1.33.32-1.89.72-1.69,1.2-2.77,3.14-2.97,5.31-.2,2.24.54,4.4,2.03,5.95,1.41,1.46,3.45,2.29,5.58,2.29,1.99,0,3.88-.7,5.32-1.98.89-.79,1.48-1.72,1.76-2.74.38-1.44.14-2.91-.73-4.39-1.5-2.58-4.03-4.46-6.94-5.15-.3-.07-.62-.11-.93-.11h0Z"/>
          </g>
          <g>
            <path class="cls-1" d="m262.48,277.88c-1.38,0-2.68-.49-3.64-1.37-1.04-.96-1.62-2.36-1.6-3.85.03-1.42.62-2.72,1.62-3.59.16-.14.34-.25.54-.33l3.15-1.31c.25-.1.51-.15.77-.15.45,0,.9.15,1.26.45.8.65,1.7,1.38,2.38,2.44.91,1.41,1.13,3.09.59,4.47-.29.74-.81,1.43-1.5,1.99-.99.8-2.26,1.24-3.58,1.24h0Z"/>
            <path class="cls-3" d="m263.33,269.29c.72.59,1.46,1.19,1.97,1.98.51.78.75,1.79.41,2.66-.18.46-.51.85-.89,1.16-.65.52-1.49.8-2.33.8s-1.67-.27-2.28-.84c-1.23-1.13-1.3-3.36-.03-4.45l3.15-1.31m0-4c-.52,0-1.04.1-1.53.31l-3.15,1.31c-.39.16-.75.38-1.07.66-1.44,1.23-2.29,3.08-2.32,5.07-.04,2.06.78,4.01,2.25,5.36,1.33,1.22,3.1,1.9,4.99,1.9,1.77,0,3.49-.6,4.83-1.68.97-.78,1.7-1.75,2.11-2.82.77-1.98.48-4.33-.78-6.28-.85-1.32-1.98-2.24-2.8-2.91-.73-.59-1.62-.9-2.53-.9h0Z"/>
          </g>
          <g>
            <path class="cls-1" d="m262.12,260.52c-.2,0-.41,0-.61-.02-1.27-.07-2.73-.28-3.95-1.25-1.56-1.24-2.18-3.41-1.51-5.28.65-1.82,2.44-3.1,4.37-3.13l1.92-.2c.07,0,.13,0,.2,0,.13,0,.26.01.39.04,1.43.29,2.47,1.39,3.1,3.27.82,2.49.42,4.58-1.09,5.74-.74.56-1.66.84-2.82.84h0Z"/>
            <path class="cls-3" d="m262.55,252.63c.86.17,1.31,1.1,1.59,1.94.4,1.2.6,2.75-.41,3.52-.45.34-1.03.43-1.61.43-.17,0-.33,0-.49-.02-.99-.06-2.04-.2-2.82-.82-.88-.7-1.25-1.98-.87-3.04.37-1.05,1.45-1.81,2.56-1.81.01,0,.02,0,.03,0l2.02-.21m0-4c-.14,0-.27,0-.41.02l-1.85.19c-2.71.09-5.21,1.9-6.13,4.46-.95,2.67-.06,5.75,2.15,7.51,1.67,1.33,3.59,1.6,5.08,1.68.24.01.48.02.73.02,1.62,0,2.94-.41,4.04-1.25,1.06-.81,3.35-3.2,1.77-7.96-1.08-3.26-3.1-4.3-4.6-4.6-.26-.05-.52-.08-.79-.08h0Z"/>
          </g>
          <g>
            <path class="cls-1" d="m247.24,253.12c-2.22,0-4.18-1.18-4.99-3.01-.53-1.2-.47-2.63.17-3.84.58-1.11,1.58-1.87,2.74-2.08.12-.02.24-.03.36-.03.24,0,.47.04.7.13l.24.09c.08,0,.15,0,.23,0,1.53,0,3.04,1.01,4.04,2.71.27.46,1.08,1.84.6,3.42-.47,1.54-2.01,2.57-3.91,2.63h-.17Z"/>
            <path class="cls-3" d="m245.52,246.16l.73.27c.15-.04.29-.06.44-.06.94,0,1.8.86,2.31,1.72.32.55.6,1.21.41,1.82-.25.81-1.2,1.19-2.05,1.21-.04,0-.08,0-.11,0-1.29,0-2.64-.65-3.16-1.83-.54-1.21.14-2.9,1.44-3.14m0-4c-.24,0-.48.02-.72.07-1.76.32-3.28,1.46-4.15,3.11-.92,1.75-1,3.83-.22,5.59,1.13,2.55,3.81,4.2,6.82,4.2.08,0,.15,0,.23,0,2.77-.08,5.03-1.67,5.76-4.04.49-1.6.23-3.29-.79-5.02-1.34-2.28-3.44-3.65-5.65-3.7-.41-.14-.85-.21-1.28-.21h0Z"/>
          </g>
          <g>
            <path class="cls-1" d="m245.66,235.47c-.68,0-1.31-.1-1.89-.31-1.57-.55-2.72-1.88-2.93-3.4-.17-1.25.29-2.57,1.26-3.6.71-.75,1.55-1.23,2.22-1.62.21-.12.44-.2.68-.24l.73-.12c.1-.02.21-.02.31-.02.3,0,.59.07.86.2.92.44,2.18,1.04,3.08,2.17,1.26,1.57,1.36,3.75.23,5.17-.84,1.07-2.06,1.42-2.91,1.59-.6.12-1.14.18-1.66.18h0Z"/>
            <path class="cls-3" d="m246.05,228.16c.87.42,1.78.86,2.39,1.62.61.76.82,1.92.22,2.68-.41.52-1.08.74-1.73.87-.41.08-.84.14-1.26.14s-.84-.06-1.23-.19c-.8-.28-1.49-.95-1.61-1.79-.1-.72.24-1.43.74-1.96s1.13-.89,1.76-1.25l.73-.12m0-4c-.21,0-.42.02-.63.05l-.73.12c-.48.08-.94.24-1.36.48-.75.43-1.78,1.02-2.69,1.98-1.39,1.47-2.04,3.38-1.79,5.24.3,2.26,1.97,4.23,4.25,5.03.79.28,1.65.42,2.55.42.65,0,1.32-.07,2.05-.22.66-.13,2.69-.54,4.09-2.31,1.7-2.15,1.59-5.38-.24-7.66-1.19-1.48-2.75-2.23-3.78-2.72-.54-.26-1.13-.39-1.73-.39h0Z"/>
          </g>
          <g>
            <path class="cls-1" d="m264.83,241.78c-2.13-.07-4.19-.73-5.96-1.93-.53-.36-1.19-.87-1.63-1.69-1.13-2.11.1-4.3.63-5.23.37-.65,1.04-1.01,1.74-1.01.31,0,.62.07.91.22l1.09.56s.07,0,.1,0c1.68,0,3.05.88,4.21,1.71.71.51,1.68,1.21,2.23,2.39.82,1.76.17,3.84-1.43,4.63-.64.32-1.26.35-1.67.35h-.22Z"/>
            <path class="cls-3" d="m259.61,233.92l1.61.83c.17-.03.33-.05.49-.05,1.09,0,2.13.68,3.05,1.34.62.44,1.26.92,1.58,1.61.32.69.17,1.66-.51,2-.24.12-.51.15-.79.15-.05,0-.11,0-.16,0-1.74-.05-3.46-.61-4.89-1.59-.39-.26-.77-.57-.99-.98-.55-1.03.03-2.28.61-3.3m0-4c-1.4,0-2.75.73-3.48,2.03-.57,1.01-2.31,4.08-.65,7.16.65,1.21,1.61,1.95,2.27,2.4,2.08,1.41,4.51,2.2,7.02,2.27.1,0,.19,0,.29,0,.96,0,1.8-.18,2.56-.56,2.57-1.27,3.63-4.53,2.36-7.27-.77-1.66-2.09-2.61-2.88-3.17-.96-.69-2.71-1.94-4.97-2.07l-.68-.35c-.58-.3-1.21-.44-1.82-.44h0Z"/>
          </g>
          <g>
            <path class="cls-1" d="m230.66,229.56c-.83,0-1.67-.17-2.67-.54-.82-.3-1.99-.83-2.76-1.95-.84-1.21-1.01-2.85-.45-4.38.31-.86.79-1.58,1.3-2.2,0-.49.18-.96.51-1.33.37-.42.9-.66,1.46-.66h0c2.64,0,4.42,2.04,5.37,3.13.7.8,2.15,2.48,1.71,4.61-.33,1.59-1.72,2.88-3.46,3.22-.33.06-.66.09-1.01.09h0Z"/>
            <path class="cls-3" d="m228.12,220.5c1.55,0,2.78,1.27,3.8,2.44.72.82,1.48,1.82,1.26,2.89-.18.87-1.01,1.49-1.88,1.66-.21.04-.42.06-.63.06-.67,0-1.34-.18-1.97-.41-.69-.26-1.39-.6-1.82-1.21-.51-.73-.52-1.72-.21-2.56.3-.84.88-1.54,1.48-2.2l-.06-.67s.02,0,.04,0m0-4s-.07,0-.09,0c-1.12.01-2.18.5-2.92,1.33-.48.54-.8,1.19-.94,1.88-.48.65-.94,1.41-1.26,2.3-.78,2.15-.52,4.47.69,6.21,1.1,1.58,2.64,2.28,3.71,2.68,1.21.45,2.3.66,3.36.66.47,0,.93-.04,1.38-.13,2.53-.48,4.55-2.4,5.05-4.77.65-3.11-1.39-5.45-2.16-6.33-1.08-1.24-3.32-3.82-6.81-3.82h0Z"/>
          </g>
          <g>
            <path class="cls-1" d="m216.19,222.89c-1.57,0-3.11-.42-4.45-1.22-1.54-.91-2.59-2.23-2.94-3.71-.5-2.09.57-4.31,2.43-5.05.24-.09.49-.14.74-.14.28,0,.55.06.81.17l3.11,1.38c1.08.06,2.37.27,3.5,1.07,1.69,1.18,2.35,3.36,1.54,5.07-.62,1.32-2.01,2.19-3.81,2.39-.31.03-.62.05-.94.05h0Z"/>
            <path class="cls-3" d="m211.98,214.77l3.45,1.53c.98.03,2.01.16,2.82.72s1.3,1.68.88,2.57c-.38.8-1.34,1.16-2.22,1.25-.24.03-.48.04-.72.04-1.2,0-2.4-.32-3.43-.94-.94-.55-1.76-1.4-2.02-2.45-.25-1.06.22-2.32,1.23-2.73m0-4c-.5,0-1.01.09-1.48.29-2.81,1.12-4.38,4.29-3.64,7.37.48,2,1.85,3.77,3.86,4.96,1.65.98,3.54,1.5,5.47,1.5.39,0,.78-.02,1.16-.06,2.5-.28,4.47-1.56,5.4-3.52,1.22-2.58.27-5.83-2.21-7.56-1.39-.97-2.92-1.29-4.15-1.4l-2.79-1.24c-.52-.23-1.07-.34-1.62-.34h0Z"/>
          </g>
          <g>
            <path class="cls-1" d="m201.34,215.02c-1.17,0-2.23-.34-3.14-.66-.79-.28-1.7-.64-2.43-1.45-.96-1.07-1.29-2.67-.85-4.17.3-1.02.91-1.96,1.86-2.87.38-.37.88-.55,1.38-.55.34,0,.68.09.99.26l1.3.75c.92.08,1.99.22,3.01.75,1.65.84,2.65,2.52,2.49,4.18-.18,1.85-1.78,3.41-3.81,3.71-.27.04-.54.06-.82.06h0Z"/>
            <path class="cls-3" d="m198.17,207.31l1.69.97c.93.07,1.88.15,2.71.57.83.42,1.5,1.28,1.41,2.21-.1,1.02-1.1,1.77-2.11,1.92-.18.03-.35.04-.53.04-.84,0-1.67-.26-2.47-.55-.58-.2-1.19-.44-1.6-.9-.54-.6-.64-1.5-.42-2.27.23-.77.74-1.43,1.32-1.99m0-4c-1.01,0-2,.38-2.77,1.11-1.2,1.14-2,2.41-2.4,3.76-.63,2.16-.14,4.48,1.28,6.06,1.12,1.25,2.51,1.74,3.25,2,1.14.4,2.39.77,3.8.77.37,0,.74-.03,1.1-.08,2.94-.43,5.26-2.74,5.52-5.5.23-2.46-1.2-4.94-3.57-6.15-1.17-.6-2.32-.81-3.3-.92l-.93-.53c-.62-.36-1.31-.53-1.99-.53h0Z"/>
          </g>
          <g>
            <path class="cls-1" d="m200.61,234.72c-2.6,0-5.07-1.77-5.88-4.2-.9-2.72.37-5.93,2.88-7.3.3-.17.63-.25.96-.25.56,0,1.11.23,1.5.67.23.26.38.56.45.87.75.18,1.45.51,2.06.95,1.75,1.26,2.72,3.47,2.46,5.61-.09.73-.31,1.37-.67,1.89-.63.92-1.69,1.52-2.97,1.7-.26.04-.52.05-.79.05Z"/>
            <path class="cls-3" d="m198.57,224.97h0m0,0l-1.23,1.74c.53-.25,1.12-.37,1.7-.37.84,0,1.69.25,2.37.75,1.16.84,1.81,2.33,1.64,3.75-.04.35-.14.71-.34,1-.35.51-.98.76-1.59.85-.17.02-.34.04-.51.04-1.73,0-3.43-1.18-3.98-2.83-.6-1.82.26-4,1.94-4.92m0-4c-.15,0-.3,0-.45.02-.56.06-1.1.24-1.56.52-3.33,1.88-4.93,6-3.72,9.63,1.08,3.28,4.28,5.57,7.77,5.57.36,0,.71-.02,1.06-.07,1.85-.26,3.39-1.16,4.34-2.55.54-.79.88-1.72,1.01-2.78.35-2.86-.94-5.79-3.27-7.48-.54-.39-1.14-.71-1.76-.95-.69-1.13-1.92-1.89-3.33-1.92-.03,0-.06,0-.09,0h0Zm0,8h0,0Z"/>
          </g>
        </g>
      </g>
      <path class="cls-4" d="m576.81,376.43c33.87-5.57,53.43-15.58,57.57-40.46,7.57-45.53-14.62-65.13-38.64-82.06-19.38-13.66-44.87-14.74-68.49-12.55-17.05,1.58-34.1,4.62-49.94,11.12-15.84,6.49-30.47,16.62-40.5,30.49,8.36-20.83,26.8-36.13,46.66-46.6,27.51-14.51,59.4-21.37,90.19-17.01,30.79,4.37,60.21,20.44,78.66,45.47,15.75,21.37,22.91,49.3,18.29,75.54-4.61,26.2-28.64,46.05-51.85,56.43"/>
      <g>
        <path class="cls-9" d="m239.27,306.28c-35.87,1.94-70.96,12.13-99.86,29.01-19.69,11.5-36.85,26.47-45.24,44.63-8.39,18.15-6.95,39.73,7.41,55.38,14.98,16.32,41.01,24,58.44,38.74,7.44,6.3,13.4,14.5,12.4,23.07-1.11,9.5-10.45,17.16-20.62,22.32-34.85,17.69-85.47,12.47-113.4-11.68"/>
        <g>
          <path class="cls-2" d="m18.71,504.75c5.09,6.56,8.09,6.37,13.18,12.93.76.97,1.66,2.03,2.89,2.13.84.07,1.64-.34,2.38-.74,7.32-4.06,13.76-9.69,18.76-16.41.24-.32.49-.69.46-1.09-.04-.41-.35-.73-.65-1.01-8.16-7.71-16.32-15.43-24.48-23.14-5.91,5.85-14.66,12.83-20.97,18.24,1.41,2.24,3.19,4.25,5.25,5.92"/>
          <path class="cls-9" d="m25.9,481.68l-12.96-10.34"/>
          <path class="cls-9" d="m15.04,491.53c-4.15-3.11-8.17-6.4-12.04-9.85"/>
        </g>
      </g>
      <g>
        <path class="cls-10" d="m295.66,244.48l3.54-1.97"/>
        <path class="cls-10" d="m309.12,238.55c.73-.8,1.71-1.35,2.77-1.56"/>
        <path class="cls-10" d="m320.75,234.46c1.23-.28,2.36-.99,3.14-1.99"/>
        <path class="cls-10" d="m332.17,228.72c1.55-.37,3.03-1.04,4.33-1.97"/>
        <path class="cls-10" d="m342.42,224.4l3.15-1.57"/>
        <path class="cls-10" d="m297.43,253.86l2.78-1.54"/>
        <path class="cls-10" d="m310.91,249.55c1.43-.13,2.81-.67,3.96-1.53"/>
        <path class="cls-10" d="m322.32,246.26c1.7-.67,3.4-1.35,5.1-2.02"/>
        <path class="cls-10" d="m334.34,242.49c1.18-.18,2.31-.74,3.16-1.58"/>
        <path class="cls-10" d="m343.57,238.56c.79-.26,1.57-.53,2.36-.79"/>
        <path class="cls-10" d="m353.57,234.85l2.37-.78"/>
        <path class="cls-10" d="m352.93,220.24c.86-.27,1.72-.55,2.59-.82"/>
        <path class="cls-10" d="m296.34,264.64l2.18-.96"/>
        <path class="cls-10" d="m309.09,261.7c1.21-.47,2.43-.94,3.64-1.42"/>
        <path class="cls-10" d="m320.56,259.22c1.54-.47,3.07-.94,4.61-1.41"/>
        <path class="cls-10" d="m335.06,255.57c.97-.25,1.93-.5,2.9-.75"/>
        <path class="cls-10" d="m345.93,252.98c1.13-.23,2.26-.46,3.39-.69"/>
        <path class="cls-10" d="m357.08,250.85l1.93-.25"/>
        <path class="cls-10" d="m296.68,275.1l3.52-.41"/>
        <path class="cls-10" d="m307.71,273.51c1.17-.17,2.34-.34,3.5-.51"/>
        <path class="cls-10" d="m322.86,271.26l2.33-.2"/>
        <path class="cls-10" d="m332.83,270.74c.98-.25,2-.36,3.01-.33"/>
        <path class="cls-10" d="m344.85,269.38c.72-.06,1.45-.13,2.17-.19"/>
        <path class="cls-10" d="m354.61,269.28c1.23-.08,2.45-.16,3.68-.23"/>
        <path class="cls-10" d="m295.35,285.16c1.22-.06,2.45-.13,3.67-.19"/>
        <path class="cls-10" d="m306.7,284.86c1.34-.06,2.67-.12,4.01-.18"/>
        <path class="cls-10" d="m318.39,284.35c1.22,0,2.45,0,3.67,0"/>
        <path class="cls-10" d="m330.57,283.96c1.33-.17,2.67-.21,4.01-.12"/>
        <path class="cls-10" d="m341.59,283.83l2.84.19"/>
        <path class="cls-10" d="m353.95,284.15c1.17.06,2.34.13,3.5.19"/>
        <path class="cls-10" d="m294.35,297.21c.95-.06,1.89-.12,2.84-.18"/>
        <path class="cls-10" d="m305.2,297.18c.95,0,1.89,0,2.84,0"/>
        <path class="cls-10" d="m315.55,296.84h3.17"/>
        <path class="cls-10" d="m328.24,296.68h2.34"/>
        <path class="cls-10" d="m338.92,297.23c1.22.11,2.45.22,3.67.32"/>
        <path class="cls-10" d="m352.28,297.5c1.39.17,2.78.35,4.17.52"/>
      </g>
      <g>
        <path class="cls-10" d="m205.65,188.67c1.45-.62,2.91-1.24,4.36-1.86"/>
        <path class="cls-10" d="m217.36,183.32c1.08-.55,2.16-1.1,3.25-1.65"/>
        <path class="cls-10" d="m228.19,177.57c1.15-.34,2.2-1.01,2.98-1.92"/>
        <path class="cls-10" d="m237.43,171.91c1.4-.59,2.68-1.45,3.76-2.51"/>
        <path class="cls-10" d="m246.64,164.8c.72-.63,1.45-1.27,2.17-1.9"/>
        <path class="cls-10" d="m218.41,192.76c1.2-.04,2.39-.53,3.27-1.35"/>
        <path class="cls-10" d="m229.85,187.38c1-.71,2.01-1.42,3.01-2.13"/>
        <path class="cls-10" d="m239.56,181.87c1.08-.64,2.16-1.28,3.24-1.93"/>
        <path class="cls-10" d="m250.2,175.15c.76-.81,1.65-1.5,2.63-2.03"/>
        <path class="cls-10" d="m259.68,167.53c.82-.72,1.64-1.44,2.46-2.15"/>
        <path class="cls-10" d="m232.8,197.37c1.16-.38,2.27-.92,3.28-1.6"/>
        <path class="cls-10" d="m244.46,191.62c1.7-.43,3.3-1.24,4.66-2.35"/>
        <path class="cls-10" d="m255.31,185.41c1.28-.79,2.56-1.58,3.84-2.37"/>
        <path class="cls-10" d="m265.61,178.06c.82-.63,1.64-1.25,2.46-1.88"/>
        <path class="cls-10" d="m273.23,170.76c.46-.1.87-.39,1.11-.79"/>
        <path class="cls-10" d="m246.07,203.29c1.19-.61,2.38-1.22,3.56-1.83"/>
        <path class="cls-10" d="m257.57,197.07c1.62-.44,3.11-1.35,4.23-2.61"/>
        <path class="cls-10" d="m268.05,189.79l3.01-2.14"/>
        <path class="cls-10" d="m278.55,182.32c1.15-.94,2.29-1.88,3.44-2.82"/>
        <path class="cls-10" d="m287.53,175.47c.25-.46.82-.73,1.33-.62"/>
        <path class="cls-10" d="m299.03,178.92l-2.16,1.38"/>
        <path class="cls-10" d="m292.18,185.85c-1.42.68-2.69,1.66-3.7,2.87"/>
        <path class="cls-10" d="m282.69,194.61c-.81.73-1.62,1.46-2.42,2.19"/>
        <path class="cls-10" d="m275.7,201.19c-1.26.99-2.47,2.05-3.61,3.17"/>
        <path class="cls-10" d="m266.65,209.24c-1,.98-2.32,1.64-3.71,1.85"/>
        <path class="cls-10" d="m274.88,215.07c.9-.27,1.74-.76,2.41-1.43"/>
        <path class="cls-10" d="m283.81,209.01c1.09-.62,2.18-1.25,3.27-1.87"/>
        <path class="cls-10" d="m291.97,202.83c1.29-.39,2.51-1.03,3.56-1.88"/>
        <path class="cls-10" d="m302.55,196.01c.92-.2,1.79-.68,2.45-1.35"/>
        <path class="cls-10" d="m310.71,188.71l2.4-1.68"/>
        <path class="cls-10" d="m285.44,220.15l2.17-1.09"/>
        <path class="cls-10" d="m297.12,212.83c1.27-.31,2.47-.86,3.54-1.61"/>
        <path class="cls-10" d="m306.34,207.4c1.09-.45,2.18-.89,3.27-1.34"/>
        <path class="cls-10" d="m317.02,201.6c1-.43,2.01-.86,3.01-1.29"/>
        <path class="cls-10" d="m326.86,195.04c1.17-.29,2.34-.58,3.51-.87"/>
      </g>
    </g>
  </g>
</svg>