<?xml version="1.0" encoding="UTF-8"?>
<svg id="_레이어_2" data-name="레이어 2" xmlns="http://www.w3.org/2000/svg" xmlns:xlink="http://www.w3.org/1999/xlink" viewBox="0 0 521.98 574.34">
  <defs>
    <style>
      .cls-1 {
        clip-path: url(#clippath);
      }

      .cls-2, .cls-3 {
        fill: #ef96a5;
      }

      .cls-4, .cls-5 {
        fill: #8bccc8;
      }

      .cls-6, .cls-7, .cls-8 {
        fill: #c9c9c9;
      }

      .cls-9 {
        fill: #f3f0d3;
      }

      .cls-9, .cls-7, .cls-8, .cls-5, .cls-10, .cls-3, .cls-11, .cls-12, .cls-13 {
        stroke-linecap: round;
        stroke-linejoin: round;
        stroke-width: 6px;
      }

      .cls-9, .cls-8, .cls-10, .cls-3, .cls-11, .cls-13 {
        stroke: #231815;
      }

      .cls-7, .cls-5, .cls-12 {
        stroke: #221714;
      }

      .cls-10 {
        fill: #333;
      }

      .cls-11 {
        fill: #ffe465;
      }

      .cls-12, .cls-13 {
        fill: none;
      }
    </style>
    <clipPath id="clippath">
      <path class="cls-5" d="m33.91,350.68c-6.51,1.47-8.99,2.66-13.37,3.9-5.36,1.52-8.2,5.96-8.03,11.44,1.94,60.71,3.87,121.43,5.81,182.14.05,1.71.14,3.52,1.18,4.93,1.46,1.98,4.28,2.52,6.82,2.89,23.02,3.44,46.04,6.87,69.06,10.31,6.94,1.04,13.9,1.91,20.86,2.83,3.47.46,6.98.83,10.43,1.42,3.19.55,6.47,1.1,9.72.64.44-.06.87-.14,1.3-.26,5.97-1.58,13.22-8.53,15.29-13.98.94-2.48.93-5.17.91-7.8-.44-60.39-.87-120.78-1.31-181.18-.07-9.26-13.39-9.81-19.9-10.97-10.38-1.85-20.86-3.16-31.37-3.91-5.43-.39-10.86-.68-16.3-.93-14.63-.67-29.27-.91-43.89-1.61"/>
    </clipPath>
  </defs>
  <g id="_레이어_3" data-name="레이어 3">
    <g>
      <path class="cls-13" d="m338.02,153.75c3.3,24.01,17.2,43.76,26.02,65.78,9.38,23.39,13.76,51.11,11.02,76.21-3.24,29.73-22.22,55.31-46.87,71.31-25.03,16.25-62.58,27.75-90.74,13.33-39.73-20.35-50.31-95.72-105.42-85.52-27.71,5.13-42.7,32.62-43.86,58.79"/>
      <path class="cls-9" d="m271.45,270.47c30.17,26.79,65.78,54.35,64.46,99.3-.63,21.56-14.94,33.08-34.66,37.41-24.04,5.28-49.89,2.02-72.48,13.4-18.5,9.32-32.36,28.9-35.09,49.55-3.88,29.41,14.46,56.62,37.9,72.26,16.21,10.82,35.25,16.86,54.53,19.23,23.24,2.85,47.23.41,69.04-8.19,21.8-8.6,41.32-23.47,54.52-42.98-19.41,9.99-40.18,17.59-61.74,20.73-21.56,3.14-43.97,1.7-64.45-5.82-12.67-4.66-24.99-12.07-31.92-23.74-6.94-11.67-6.98-28.21,2.61-37.76,4.29-4.27,10.01-6.8,15.83-8.36,13.67-3.66,32.5-5.01,46.37-6.86,59.06-7.89,75.88-65.36,58.83-114.5-2.86-8.25-6.72-16.18-11.55-23.54-.62-.94-1.25-1.87-1.9-2.79-11.05-15.71-25.42-29.03-41.48-39.38-6.02-3.88-12.27-7.39-18.7-10.52"/>
      <g>
        <path class="cls-4" d="m33.91,350.68c-6.51,1.47-8.99,2.66-13.37,3.9-5.36,1.52-8.2,5.96-8.03,11.44,1.94,60.71,3.87,121.43,5.81,182.14.05,1.71.14,3.52,1.18,4.93,1.46,1.98,4.28,2.52,6.82,2.89,23.02,3.44,46.04,6.87,69.06,10.31,6.94,1.04,13.9,1.91,20.86,2.83,3.47.46,6.98.83,10.43,1.42,3.19.55,6.47,1.1,9.72.64.44-.06.87-.14,1.3-.26,5.97-1.58,13.22-8.53,15.29-13.98.94-2.48.93-5.17.91-7.8-.44-60.39-.87-120.78-1.31-181.18-.07-9.26-13.39-9.81-19.9-10.97-10.38-1.85-20.86-3.16-31.37-3.91-5.43-.39-10.86-.68-16.3-.93-14.63-.67-29.27-.91-43.89-1.61"/>
        <g class="cls-1">
          <polygon class="cls-6" points="142.33 353.43 111.36 367.96 115.8 583.5 170.13 579.55 172.68 537.3 172.68 359.93 142.33 353.43"/>
        </g>
        <path class="cls-12" d="m33.91,350.68c-6.51,1.47-8.99,2.66-13.37,3.9-5.36,1.52-8.2,5.96-8.03,11.44,1.94,60.71,3.87,121.43,5.81,182.14.05,1.71.14,3.52,1.18,4.93,1.46,1.98,4.28,2.52,6.82,2.89,23.02,3.44,46.04,6.87,69.06,10.31,6.94,1.04,13.9,1.91,20.86,2.83,3.47.46,6.98.83,10.43,1.42,3.19.55,6.47,1.1,9.72.64.44-.06.87-.14,1.3-.26,5.97-1.58,13.22-8.53,15.29-13.98.94-2.48.93-5.17.91-7.8-.44-60.39-.87-120.78-1.31-181.18-.07-9.26-13.39-9.81-19.9-10.97-10.38-1.85-20.86-3.16-31.37-3.91-5.43-.39-10.86-.68-16.3-.93-14.63-.67-29.27-.91-43.89-1.61"/>
      </g>
      <path class="cls-7" d="m134.07,566.68c-.49-21.92-.17-49.32-.64-71.24-.48-22.54-.95-45.08-1.43-67.63,0-16.08-.7-32.16-1.05-48.24-.05-2.33-.55-4.41.85-6.38,1.33-1.87,13.87-7.79,17.22-9.58"/>
      <path class="cls-12" d="m130.83,357.41c-5.67,2.94-11.35,5.89-17.02,8.83-.9.47-1.82.95-2.44,1.72-.77.96-.93,2.22-1.05,3.41-1.55,15.61.12,31.32.99,46.98,2.77,49.65,2.68,97.26,3.41,146.76"/>
      <path class="cls-5" d="m18.7,389.42c27.99,2.71,55.99,5.43,83.98,8.14"/>
      <path class="cls-10" d="m32.84,419.95c.62,30.91,1.77,61.8,3.45,92.67.07,1.24.17,2.57.98,3.55.77.93,2.03,1.37,3.23,1.74,9.76,3.01,20,4.63,30.27,4.79.4,0,.84,0,1.16-.22.41-.28.51-.81.57-1.28,3.54-27-1-54.46,2.04-81.51.53-4.73,1.29-9.5.7-14.22-.07-.58-.18-1.19-.61-1.62-.49-.49-1.27-.6-1.99-.67-12.1-1.3-24.2-2.6-36.29-3.9"/>
      <path class="cls-7" d="m141.39,389.58c-.19,12.75-.38,25.51-.56,38.26-.01.88.03,1.87.74,2.45.52.42,1.25.49,1.93.54,5.31.41,10.61.83,15.92,1.24.28.02.58.04.81-.1.35-.2.42-.64.45-1.02,1.2-13.39,1.49-26.84.86-40.27-.02-.38-.05-.78-.31-1.08-.29-.33-.79-.42-1.25-.47-5.03-.64-10.13-.72-15.18-.26"/>
      <path class="cls-7" d="m142.64,451.87c-.41,7.95-.42,15.92,0,23.87.03.63.1,1.34.61,1.76.45.38,1.11.41,1.71.43,5.78.16,11.57.28,17.35.35,1.17-7.39,1.68-14.87,1.52-22.34-.02-.96-.11-2.05-.9-2.67-.5-.4-1.18-.52-1.83-.62-5.39-.82-10.86-1.15-16.31-.98"/>
      <path class="cls-7" d="m144.53,499.03c-.47,8.45-.89,16.91-1.24,25.37-.03.73-.05,1.51.35,2.15.67,1.07,2.21,1.29,3.53,1.36,4.93.29,9.88.27,14.81-.05.44-.03.93-.08,1.24-.38.29-.29.33-.72.35-1.11.55-9.06,1.09-18.11,1.64-27.17.02-.36.04-.74-.16-1.06-.35-.56-1.17-.61-1.87-.6-5.43.09-10.87.18-16.3.26"/>
      <path class="cls-5" d="m20.48,361.16c27.47.18,54.92,1.84,82.18,4.99"/>
      <path class="cls-5" d="m117.39,370.55c3.39.27,7.22,1.28,9.63,1.58"/>
      <g>
        <path class="cls-11" d="m313.31,255.75c-.83,5.94-1.85,11.82-3.11,17.62-6.81,31.37-28.76,50.55-62.41,51.1-23.19.37-53.65-7.07-62.06-30.66-1.59-4.46-2.2-9.19-2.04-13.87.31-9.51,3.08-19.17,7.97-27.56,5.22-8.94,13.38-15.54,19.64-23.73,4.5-5.89,7.01-13.45,8.28-20.61,2.38-13.46,1.92-27.77,2.99-41.41,2.31-29.37,1.42-70.23,34.34-84.85,17.47-7.05,40.28-1.57,50.22,14.57,4.81,7.8,5.6,16.41,6.48,25.26.95,9.67,1.27,19.38,1.58,29.08,1.11,34.26,2.94,70.59-1.87,105.04Z"/>
        <path class="cls-13" d="m243.54,200.53c-.13,5.5-.26,11.01-.39,16.51"/>
        <path class="cls-13" d="m273.51,196.07c.14,7.2.28,14.4.42,21.6"/>
      </g>
      <g>
        <path class="cls-10" d="m190.76,129.72c-6.63,3.72-7.96,14.22-2.47,19.48,2.95,2.82,7.13,3.99,11.2,4.39,6.33.62,13.01-.51,18.5-3.83,5.81-3.52,9.42-9.67,11.28-16.07,3.54-12.22,3.62-31.64-11.03-36.53-3.85-1.29-8.25-1.14-11.66,1.23"/>
        <path class="cls-10" d="m345.94,129.67c2.71-4.42,5.52-9.23,5.09-14.4-.53-6.19-5.97-11.25-12.04-12.56-6.07-1.3-12.49.62-17.73,3.96-14.17,9.02-20.13,27.38-18.71,44.12.47,5.53,1.74,11.25,5.32,15.49,4.76,5.64,13.28,7.55,20.16,4.89,6.88-2.66,11.82-9.51,12.63-16.84-1-.66-2.01-1.31-3.01-1.97"/>
        <path class="cls-13" d="m215.44,99.66c0-17.38,1.27-37.1,6.01-53.17,4.74-16.07,16.13-31.57,32.49-35.18"/>
        <path class="cls-13" d="m335.02,109.48c9.74-11.34,10.83-25.88,9.88-39.54-.46-6.62-1.34-13.28-3.84-19.61-3.06-7.77-8.55-14.95-15.86-20.72"/>
        <path class="cls-8" d="m253.95,3c.64,3.07,1.31,12.78.66,15.85,20.39.78,46.1,6.46,65.36,19.36,2.68-3.91,5.36-7.82,8.03-11.73.38-.56.78-1.17.72-1.84-.07-.86-.85-1.47-1.56-1.96-19.88-13.61-44.23-20.6-68.3-19.6"/>
        <path class="cls-8" d="m192.51,104.63c-6.01,5.55-10.68,15.03-9.49,23.36.6,4.16,3.28,8.26,7.33,9.41,5.11,1.45,10.99-1.65,15-4.59,4.51-3.3,8.05-7.95,9.88-13.24,1.48-4.27,1.9-10.12.21-14.31-2.67-6.61-9.87-11.19-19.59-3.87"/>
        <path class="cls-8" d="m331.02,120.1c-5.11,6.14-9.21,14.2-9.3,22.36-.05,4.22,1.58,8.64,4.85,11.4,1.77,1.49,4.1,2.19,6.41,2.37,7.06.54,14.04-3.7,17.56-9.84,3.52-6.14,3.8-13.84,1.57-20.56-1.35-4.05-3.86-8.07-7.86-9.56s-9.44.84-9.83,5.1"/>
      </g>
      <path class="cls-10" d="m82.62,325.39c-3.11,9.22-3.92,19.2-2.33,28.79.11.67.26,1.39.76,1.86.5.47,1.24.57,1.93.64,4.17.44,8.33.88,12.5,1.32.23.02.47.04.67-.07.29-.17.35-.57.38-.91.93-11.09,3.71-22.02,8.19-32.21-5.49-2.72-11.38-4.63-17.41-5.67-.7-.12-1.48-.22-2.09.16-.74.46-.94,1.43-1.06,2.3"/>
      <g>
        <path class="cls-13" d="m441.96,266.61c9.6-45.25,8.11-30.19,13.03-76.77"/>
        <path class="cls-3" d="m433.05,281.85c-2.14,1.26-4.65,1.07-6.79.7s-4.42-.82-6.48-1.78c-3.86-1.79-7.64-4.85-9.33-9.23-1.97-5.09-.09-11,4.69-14.19,3.21-2.14,6.99-2.62,10.44-2.13,4.6.66,9.4,2.6,13.25,5.12,3.32,2.17,5.69,4.97,5.62,9.68-.06,4.06-1.73,8.35-4.61,11.27"/>
      </g>
      <g>
        <polygon class="cls-2" points="518.98 390.71 506.79 411.25 432.02 394.02 443.13 374.51 449.04 375.08 518.98 390.71"/>
        <path class="cls-3" d="m405.02,447.8c-5.44,1.87-11.49.36-16.67-2.13-5.06-2.43-10.12-6.59-10.38-12.2-.17-3.71,1.94-7.28,4.91-9.52,2.97-2.23,6.69-3.27,10.39-3.65,5.23-.54,11.12.45,14.44,4.54,3.06,3.77,3.12,9.11,2.59,13.94"/>
        <path class="cls-13" d="m411.11,434.74c9.77-19.03,19.55-38.06,29.32-57.08.65-1.26,1.39-2.61,2.7-3.15,1.13-.46,2.41-.2,3.6.06,24.08,5.38,48.17,10.76,72.25,16.14-12.84,21.63-25.68,43.26-38.52,64.89"/>
        <path class="cls-13" d="m436.04,395.22c22.24,5.8,44.73,10.67,67.38,14.58"/>
        <path class="cls-3" d="m474.91,471.1c-8.63.68-17.89-3.32-21.89-11.29-4.74-9.47,4.08-15.71,13-15.48,5.89.15,12.6,2.07,14.94,7.46,2.05,4.71-.07,10.12-2.29,14.75"/>
      </g>
      <g>
        <path class="cls-13" d="m114.66,139.07c-2.69,24.95-6.09,49.85-10.19,74.66"/>
        <path class="cls-3" d="m111.75,143.43c2.64,7.08,9.28,11.2,16.85,12.88,8.35,1.85,16.89-1.12,16.85-10.81-.04-9.29-9-14.76-17.18-14.51-5.13.16-12.12,2.49-14.77,7.22"/>
        <path class="cls-13" d="m103.73,213.48c-10.44-2.78-17.32-11.04-15.69-18.81,1.06-5.05,5.18-9.5,7.35-14.36s1.7-11.09-4.32-13.92"/>
      </g>
      <g>
        <path class="cls-13" d="m37.17,292.08c-6.54-16.53-24.47-48.96-34.17-63.85"/>
        <path class="cls-3" d="m43.1,304.14c-4.91-1.52-8.07-6.87-7.81-12.01.26-5.13,3.51-9.83,7.8-12.65,4.29-2.83,9.52-3.97,14.66-4.12,7.76-.24,14.6,5.45,11.05,13.55-2.28,5.21-7.06,9.41-11.84,12.3-3.62,2.19-8.08,3.29-12.17,2.17"/>
      </g>
    </g>
  </g>
</svg>