<?xml version="1.0" encoding="UTF-8"?>
<svg id="_레이어_2" data-name="레이어 2" xmlns="http://www.w3.org/2000/svg" viewBox="0 0 315.76 696.95">
  <defs>
    <style>
      .cls-1 {
        fill: none;
      }

      .cls-1, .cls-2, .cls-3, .cls-4, .cls-5, .cls-6, .cls-7 {
        stroke: #231815;
        stroke-width: 6px;
      }

      .cls-1, .cls-2, .cls-3, .cls-4, .cls-5, .cls-7 {
        stroke-miterlimit: 10;
      }

      .cls-1, .cls-3, .cls-4, .cls-6 {
        stroke-linecap: round;
      }

      .cls-2, .cls-4 {
        fill: #ffe465;
      }

      .cls-3 {
        fill: #c49c62;
      }

      .cls-5, .cls-6 {
        fill: #534844;
      }

      .cls-6 {
        stroke-linejoin: round;
      }

      .cls-7 {
        fill: #f3f0d3;
      }
    </style>
  </defs>
  <g id="_레이어_3" data-name="레이어 3">
    <g>
      <path class="cls-6" d="m81.52,539.75c-9.85.29-19.69,1.28-29.37,3.15-4.9.95-9.75,2.13-14.53,3.55-2.93.87-6.09,1.39-8.93,2.47-2.97,1.13-5.49,3.18-8.32,4.59-1.38.69-2.86,1.23-4.4,1.37-10.44.89-10.81-10.89-5.73-16.91,8.9-10.55,23.41-14.27,37.08-16.2,11.72-1.66,23.62-2.43,35.39-1.19,4.38.46,8.99,1.32,12.3,4.23s4.61,8.51,1.62,11.75c-3.07,3.32-7.87,2.88-11.98,3.07-1.04.05-2.07.08-3.11.12Z"/>
      <g>
        <ellipse class="cls-5" cx="157.88" cy="464.39" rx="150.84" ry="58.63"/>
        <path class="cls-3" d="m286.99,450.81c-6.22-3.94-13.48-6.06-20.42-7.86-6.1-1.58-10.61-2.05-15.91-6.02-5.07-3.8-8.55-10.12-15.3-12.66-7.03-2.64-14.65.64-21.64,3.61-6.99,2.97-15.69,6.57-23.19,4.99-8.95-1.88-12.07-9.47-21.3-11-9.23-1.53-12.92,6.04-22.16,10.45-10.68,5.1-17.77-3.67-26.95-7.74-9.18-4.07-16.45.41-23.64,4.59-8.05,4.69-15.87,11.56-24.85,10.66-5.82-.58-8.28-4.85-13.67-3.72-7.28,1.52-9.78,9.35-15.68,12.71-6.56,3.74-14.11-.16-20.6,3.38-5.59,3.05-6.2,9.91-4.92,15.41,3.6,15.49,11.58,27.37,23.8,37.24l197.08,61.8c16.88-13.88,34.52-27.9,46.71-46.18,8.29-12.43,12.81-23.05,14.18-39.07.99-11.59.76-22.81-11.54-30.6Z"/>
        <path class="cls-5" d="m200.32,505.75h-84.89l-102.41-30.81s0,.13.01.38c.07,2.33.52,15.28,2.19,33.68.38,4.17.82,8.61,1.33,13.28.58,5.31,1.26,10.9,2.05,16.69.2,1.51.41,3.03.63,4.56.2,1.42.41,2.85.63,4.29.71,4.75,1.5,9.6,2.37,14.5.27,1.55.56,3.1.85,4.66.67,3.58,1.38,7.17,2.13,10.77.03.15.06.29.09.44,1.06,5.02,2.21,10.05,3.46,15.03.6,2.41,1.23,4.8,1.88,7.19.04.15.08.31.12.46.23.84.47,1.68.71,2.52.12.42.24.85.36,1.27.1.33.2.66.29.99.63,2.18,1.29,4.35,1.96,6.49.07.22.14.44.22.67,1.11,3.47,2.27,6.89,3.49,10.23.18.48.36.96.54,1.44.26.7.52,1.4.78,2.09.04.1.08.19.11.29,2.66,6.89,5.6,13.44,8.82,19.47.86,1.6,1.74,3.16,2.65,4.69.24.41.48.84.73,1.24.08.13.16.26.24.39.5.82,1.01,1.63,1.52,2.43.96,1.49,1.95,2.92,2.96,4.31.24.34.48.69.73,1.02h0s0,0,0,0c8.42,13.15,28.52,20.05,42.23,24.4,19.38,6.15,39.07,9.17,58.74,9.15,19.67.02,39.36-3.01,58.74-9.15,13.72-4.35,33.82-11.25,42.23-24.4h0s0,0,0,0c.61-.83,1.22-1.68,1.82-2.54.02-.02.04-.05.05-.07,8.5-12.28,15.29-27.98,20.71-44.99.07-.22.14-.44.22-.67,1.11-3.52,2.17-7.1,3.16-10.71.05-.18.1-.37.16-.55,2.05-7.46,3.87-15.07,5.47-22.68.03-.15.06-.29.09-.44,1.07-5.07,2.04-10.13,2.93-15.13.02-.1.04-.2.05-.3,1.12-6.32,2.11-12.56,2.97-18.61,0-.06.02-.12.03-.17.22-1.53.43-3.05.63-4.56.78-5.79,1.46-11.38,2.05-16.69.51-4.67.95-9.11,1.33-13.28,1.67-18.39,2.12-31.35,2.19-33.68,0-.25.01-.38.01-.38l-102.41,30.81Z"/>
        <path class="cls-5" d="m312.75,459.64c0-.22,0-.43,0-.65-.13-7.44-2.29-14.85-6.64-21.49-2.05-3.26-4.54-6.3-7.46-9.01-29.19-27.12-79.67-27.45-119.29-28.42-9.64-.43-19.3-.62-28.96-.55-30.39-.21-60.93,1.18-90.25,8.54-20.85,5.24-41.76,14.7-51.5,30.98-.16.27-.33.54-.49.81-.04.08-.08.15-.13.23-3.38,5.96-5.01,12.49-5.04,19.04,0,.03,0,.06,0,.1,0,.21,0,.42,0,.63,0,.22,0,.43,0,.65.13,7.44,2.29,14.85,6.63,21.48,2.05,3.26,4.54,6.3,7.46,9.01,29.19,27.12,79.68,27.45,119.29,28.42,9.63.43,19.3.62,28.96.55,30.39.21,60.93-1.18,90.25-8.54,20.85-5.24,41.76-14.7,51.5-30.98.16-.27.33-.54.49-.81.04-.08.08-.15.13-.23,3.38-5.96,5.01-12.49,5.04-19.04,0-.03,0-.06,0-.1,0-.21,0-.42,0-.62Zm-21.8-8.01c-.03,4.53-1.42,9.06-4.33,13.18-.04.05-.07.11-.11.16-.13.19-.28.37-.42.56-8.37,11.26-26.33,17.82-44.25,21.44-25.19,5.1-51.43,6.06-77.54,5.92-8.3.05-16.6-.08-24.88-.38-34.04-.67-77.41-.91-102.49-19.68-2.51-1.88-4.65-3.99-6.41-6.24-3.74-4.59-5.59-9.72-5.7-14.87,0-.15,0-.3,0-.45,0-.14,0-.29,0-.43,0-.02,0-.04,0-.07.03-4.53,1.42-9.06,4.33-13.18.04-.05.07-.11.11-.16.13-.19.28-.37.42-.56,8.37-11.26,26.33-17.82,44.25-21.44,25.19-5.1,51.43-6.06,77.54-5.91,8.3-.05,16.6.08,24.88.38,34.04.67,77.41.91,102.49,19.68,2.51,1.88,4.65,3.99,6.41,6.24,3.74,4.59,5.59,9.72,5.7,14.87,0,.15,0,.3,0,.45,0,.14,0,.29,0,.43,0,.02,0,.04,0,.07Z"/>
        <g>
          <g>
            <path class="cls-7" d="m158.76,400.44c.15,4.3,1.42,8.57,1.49,12.87.36,20.67.04,41.34-.92,62.01,2.29,2.6,14.57.35,17.38-4.12-.06-.61-.1-1.13-.1-1.52.02-5.55.85-17.59.97-23.15.19-9.52.37-19.03.51-28.55.67-47.05,1.75-94.12-6.82-141.18-1.55-8.54-3.45-17.03-5.74-25.47l-19.93,2.69c5.77,31.43,12.92,63.4,12.92,94.94,1.94,17.18-.37,34.3.24,51.49Z"/>
            <path class="cls-7" d="m98.2,462.41c.09-18.59.7-31.71,2.12-50.09.2-2.61.42-5.22.65-7.83.76-8.69,1.67-17.36,2.65-26.03.42-3.74.85-7.48,1.29-11.21,1.6-13.67,3.29-27.34,4.74-41.03,4.97-46.86,7.23-93.93,8.48-141.05.25-9.26.45-18.53.63-27.8.15-7.48.27-14.96.39-22.44.18-11.13.33-22.26.48-33.39l-17.8-8.17c-13,52.89-3.12,108.59-8.11,162.83-3.01,32.74-11.43,64.77-15.23,97.43-3.06,26.31-3.11,52.86-3.15,79.35-.01,9.17.42,18.43,1.06,27.71,3.44,6.17,17.94,6.07,21.8,1.73Z"/>
            <path class="cls-7" d="m218.44,468.28c.87-50.52,1.74-100.51,2.61-149.28,1.26-70.42-5.05-140.62,8.94-210.01l-21.88-2.44c-2.47,34.91-7.82,49.02-9.37,84.35-.6,13.74-.36,34.34-.84,48.13-.5,14.08.39,34.85,0,48.97-1.2,43.1-.67,93.93-1.22,137.32-.23,18.15-.29,31.88-.3,44.9,1.94,4.07,16.69,2.7,22.06-1.93Z"/>
            <path class="cls-7" d="m230.43,311.39c.78,15.97,1.48,32.01,2.1,48.1,1.19,31,2.06,62.19,2.61,93.47.08,4.69.24,9.37.26,14.07.27,2.69,14.72,1.76,19.89-2.63.17-28.83.26-57.7-.13-86.54-.13-9.96.14-34.03-.12-43.98-1.37-52.33-5.19-90.39-12.77-142.02l-18.86,7.31c2.18,28.55,4.07,57.44,5.67,86.58.47,8.53.92,17.08,1.34,25.66Z"/>
            <path class="cls-7" d="m153.98,475.44c-.21-1.69-.42-3.37-.64-5.05-2.56-19.37-5.85-38.77-12.38-57.18-5.36-15.1-12.83-29.35-20.28-43.54-10.26-19.56-20.52-39.11-30.78-58.67l-16.83,16.17c26.97,46.11,48.79,96.21,60.38,148.16,1.83,5.56,19.93,5.21,20.54.12Z"/>
            <path class="cls-7" d="m44.43,464.77c2.99,4.44,16.21,3.21,19.74.01-1.15-28.03-2.1-50.81-3.25-78.35-1.37-32.69-2.43-66.69,3.45-98.6,3.53-19.15,9.56-37.54,19.52-54.46l-20.24-16.53c-4.89,12.55-9.81,25.17-14.21,37.93-6.9,20-12.54,40.34-14.9,61.32-3.99,35.47,1.56,71.21,5.69,106.66,1.61,13.86,3.01,27.88,4.21,42.02Z"/>
          </g>
          <path class="cls-2" d="m91.58,283.5c-4.27,3.76-9.45,6.16-15.38,6.31-9.48.23-18.32-6.73-25.47-13.92-21.33-21.43-37.55-51.13-34.14-79.54,1.21-10.1,5.04-19.84,12.1-26.49s17.63-9.79,27.57-6.76c25.08,7.64,35.63,40.47,42.98,62.34,2.6,7.75,5.23,15.61,5.78,23.58.81,11.81-4.2,26.33-13.45,34.48Z"/>
          <path class="cls-2" d="m188.91,141.78c-11.02-2.76-19.52-10.6-20.94-26-.84-9.05,2.24-16.74,8.22-23.44,7.87-8.82,15.41-17.52,22.81-26.79,6.79-8.51,15.65-16.51,25.2-21.78,14.11-7.79,32.81-5.96,41.3,9.16,14.79,26.33-4.79,59.24-25.76,75.88-12.66,10.05-34.51,17.06-50.82,12.97Z"/>
          <path class="cls-2" d="m49.98,372.4c-10.68-2.68-18.91-10.27-20.29-25.2-.81-8.77,2.17-16.22,7.97-22.71,7.62-8.54,14.94-16.97,22.11-25.96,6.58-8.25,15.17-16,24.42-21.11,13.67-7.54,31.8-5.77,40.02,8.87,14.33,25.52-4.64,57.4-24.96,73.53-12.26,9.73-33.44,16.54-49.25,12.57Z"/>
          <path class="cls-4" d="m67.6,97c2.58,9.37,7.35,18.32,15.39,23.94,9.44,6.59,21.79,7.36,33.24,6.13,9.71-1.04,20.14-3.71,26.64-11.53,6.26-7.53,8.32-18.56,4.19-27.58-2.26-4.95-6.08-8.98-9.46-13.24-6.12-7.71-7.33-17.59-8.3-27.15-.84-8.21-1.47-16.56-4.34-24.29-3.63-9.77-11.13-17.21-21.46-19.46-11.55-2.52-27.39.64-33.9,11.4-2.33,3.85-3.58,8.25-4.4,12.67-1.75,9.4-2.26,19.43-1.49,28.93.87,10.79.54,21.67,2.22,32.39.41,2.59.95,5.2,1.67,7.79Z"/>
          <g>
            <path class="cls-1" d="m108.42,51.28c.34,3.34.68,6.68,1.02,10.02"/>
            <path class="cls-1" d="m90,49.99c.26,4.38.51,8.77.77,13.15"/>
          </g>
          <path class="cls-1" d="m71.07,217.21c.56-.53,1.5-1.07,2.74-1.53s2.79-.8,4.2-.91c1.2-.09,2.24-.01,3.07.16s1.47.41,2.1.65"/>
          <path class="cls-1" d="m43.72,219.69c.56-.53,1.5-1.07,2.74-1.53s2.79-.8,4.2-.91c1.2-.09,2.24-.01,3.07.16s1.47.41,2.1.65"/>
          <g>
            <path class="cls-1" d="m216.54,73.59l-.59,10.05"/>
            <path class="cls-1" d="m234.57,71.44c-.07,4.39-.14,8.78-.22,13.17"/>
          </g>
          <g>
            <path class="cls-1" d="m72.63,310.04l-.59,10.05"/>
            <path class="cls-1" d="m90.66,307.89c-.07,4.39-.14,8.78-.22,13.17"/>
          </g>
          <path class="cls-2" d="m241.32,148.54c-7.71,1.21-15.21,5.26-20.88,10.49-14.69,13.55-19.69,34.05-33.03,48.68-20.83,22.85-7.66,54.87,24.85,54.57,43.21-.4,65.5-43.14,61.22-81.83-1.95-17.61-12.08-35.07-32.17-31.91Z"/>
          <g>
            <path class="cls-1" d="m223.9,175.04l-3.61,9.4"/>
            <path class="cls-1" d="m241.73,178.45c-1.4,4.16-2.8,8.32-4.19,12.48"/>
          </g>
          <path class="cls-4" d="m190.52,272.09c-.14,3.65-.39,7.28-.8,10.88-2.19,19.45-14.32,32.44-34.7,34.85-14.04,1.66-32.97-.97-39.53-14.76-1.24-2.6-1.9-5.43-2.1-8.28-.4-5.79.68-11.81,3.13-17.21,2.61-5.75,7.16-10.25,10.44-15.61,2.36-3.85,3.42-8.59,3.75-13.01.61-8.31-.55-16.96-.75-25.3-.41-17.95-3.48-42.68,15.58-53.58,10.16-5.36,24.33-3.44,31.36,5.73,3.4,4.44,4.41,9.61,5.49,14.92,1.18,5.81,1.97,11.67,2.76,17.54,2.79,20.71,6.14,42.63,5.36,63.82Z"/>
          <path class="cls-1" d="m144.79,242.91c.26,3.35.52,6.69.78,10.04"/>
          <path class="cls-1" d="m162.69,238.35l1.59,13.08"/>
        </g>
        <g>
          <g>
            <path class="cls-7" d="m194.96,480.15c6.39-36.41,18.54-72.3,34.06-106.33l-16.07-11.31c-6.87,17.15-13.75,34.3-20.62,51.46-4.99,12.45-9.99,24.94-13.1,37.9-2.15,8.97-3.37,18.09-4.07,27.24,4.24.9,8.4,2.1,12.49,3.57,2.41-.94,4.85-1.79,7.31-2.54Z"/>
            <path class="cls-2" d="m184.64,409.97c8.44,6.09,19.85,8.79,30.04,6.59,12.63-2.72,27.01-8.19,38.24-14.52,9.05-5.11,17.1-13.02,18.46-23.31,1.66-12.57-6.54-24.53-17.71-30.33-25.62-13.29-60.49,3.58-76.06,25.19-9.14,12.68-5.23,27.53,7.02,36.37Z"/>
          </g>
          <g>
            <path class="cls-1" d="m228.66,374.54c.95-.29,2.35-.42,4.07-.3,1.72.12,3.75.5,5.49,1.07,1.48.49,2.68,1.08,3.57,1.66s1.53,1.16,2.15,1.72"/>
            <path class="cls-1" d="m201.6,365.62c.77-.26,1.9-.38,3.28-.3s3.01.38,4.41.85c1.19.4,2.14.89,2.85,1.38s1.21.97,1.71,1.44"/>
          </g>
        </g>
      </g>
      <path class="cls-6" d="m244.2,576.66c1.96-.64,4.05-.52,6.09-.66,2.32-.16,4.56-.81,6.77-1.52,5.01-1.6,9.69-4.04,14.54-6.06,7.25-3.02,16.08-5.33,23.5-1.51.61.32,1.24.7,1.55,1.31,3.4,6.51-4.8,11.73-9.64,14.24-8.58,4.45-18.12,7.05-27.78,7.57-6.39.35-16.17.89-20.65-4.66-.83-1.03-1.34-2.35-.73-3.62.39-.81,1.06-1.44,1.73-2.04,1.28-1.15,2.62-2.28,4.22-2.91.13-.05.27-.1.4-.14Z"/>
      <path class="cls-6" d="m231.89,562.66c9.81-.95,19.57-2.58,29.1-5.09,4.82-1.27,9.59-2.77,14.27-4.5,2.87-1.06,5.98-1.79,8.75-3.06,2.89-1.33,5.27-3.53,8-5.13,1.33-.78,2.77-1.42,4.3-1.65,10.36-1.58,11.5,10.15,6.83,16.49-8.19,11.11-22.42,15.78-35.93,18.62-11.58,2.43-23.41,3.99-35.23,3.52-4.41-.17-9.06-.72-12.55-3.41s-5.16-8.19-2.39-11.62c2.84-3.52,7.67-3.39,11.75-3.85,1.03-.12,2.06-.22,3.1-.32Z"/>
    </g>
  </g>
</svg>