<?xml version="1.0" encoding="UTF-8"?>
<svg id="_레이어_2" data-name="레이어 2" xmlns="http://www.w3.org/2000/svg" viewBox="0 0 644.93 642.1">
  <defs>
    <style>
      .cls-1, .cls-2 {
        fill: #f3f0d3;
      }

      .cls-3, .cls-4 {
        fill: #ffe465;
      }

      .cls-5, .cls-6 {
        fill: #8bccc8;
      }

      .cls-7 {
        fill: #c49c62;
      }

      .cls-8 {
        fill: #231815;
      }

      .cls-9 {
        fill: #221714;
      }

      .cls-10 {
        fill: #534844;
      }

      .cls-2, .cls-11, .cls-6, .cls-12, .cls-13, .cls-4, .cls-14 {
        stroke-linecap: round;
        stroke-linejoin: round;
      }

      .cls-2, .cls-11, .cls-12, .cls-13, .cls-4, .cls-14 {
        stroke: #231815;
      }

      .cls-2, .cls-6, .cls-12, .cls-13, .cls-4, .cls-14 {
        stroke-width: 6px;
      }

      .cls-11 {
        stroke-width: 4px;
      }

      .cls-11, .cls-14 {
        fill: none;
      }

      .cls-6 {
        stroke: #221714;
      }

      .cls-12 {
        fill: #ef96a5;
      }

      .cls-13 {
        fill: #efefef;
      }
    </style>
  </defs>
  <g id="_레이어_3" data-name="레이어 3">
    <g>
      <g>
        <path class="cls-2" d="m236.46,152.13c23.25,34.71,39.61,62.45,56.58,102.95,13.02,31.07,24.58,89.12,20.9,122.56-3.6,32.71-11.94,48.44-25.38,73.75-8.13,15.32-16.3,31.55-29.73,42.96-18.48,15.71-44.42,14.78-67.24,14.16-35.71-.97-72.84-3.31-104.99,15.13-14.58,8.37-27.37,20.28-35.31,35.1-12.82,23.94-11.95,52.68-9.06,79.68,1.82-19.72,7.75-39.27,18.76-55.73,14.1-21.07,36.82-42.4,85.81-44.71,28.15-1.32,56.03,5.17,83.99.94,58.15-8.81,77.86-44.54,100.23-97.46,4.74-11.21,8.54-22.81,11.43-34.62,1.31-5.35,2.41-10.76,3.25-16.21,7.23-46.98-2.01-85.48-12.37-127.83-8.8-35.97-18.59-73.88-37.03-103.78-18.44-29.9-37,8.69-64.28,1.22"/>
        <g>
          <path class="cls-4" d="m300.89,167.66c-.77,5.52-1.72,11-2.9,16.4-6.33,29.19-26.76,47.04-58.07,47.54-21.58.35-49.91-6.58-57.75-28.52-1.48-4.15-2.05-8.55-1.9-12.9.29-8.85,2.86-17.83,7.42-25.64,4.85-8.32,12.45-14.46,18.27-22.08,4.19-5.48,6.53-12.51,7.7-19.17,2.22-12.52,1.78-25.83,2.78-38.53,2.15-27.32,1.32-65.35,31.95-78.95,16.25-6.56,37.48-1.46,46.73,13.55,4.47,7.26,5.21,15.27,6.03,23.51.89,9,1.18,18.03,1.47,27.06,1.04,31.88,2.73,65.68-1.74,97.74Z"/>
          <path class="cls-14" d="m235.97,116.28c-.12,5.12-.24,10.24-.37,15.36"/>
          <path class="cls-14" d="m263.85,112.13c.13,6.7.26,13.4.39,20.1"/>
        </g>
        <path class="cls-13" d="m329.37,374.35c-.75.39-1.49.77-2.24,1.16,8.92-19.44,21.76-37.39,31.75-56.45,8.4-16.02,14.74-32.76,21.06-49.45,2.63-6.94,5.25-13.88,7.88-20.82-7.43-1.57-14.38-.93-22.04-.83-7.83.1-17.51,1.11-25.22,2.31-16.89,2.63-33.1,7.95-47.82,15.46-26.26,13.39-54,35.19-71.06,57.67l-3.57,6.29-5.58-8.98c-23.43-37.99-99.12-64.62-142.48-74.65-8.72-2.02-17.7-2.84-26.42-2.84,5.76,38.72,21.9,75.48,21.32,112.39-.1,6.26.33,10.89,1.28,17.07"/>
        <path class="cls-13" d="m346.83,385.63c-.83.39-1.66.77-2.49,1.16,9.92-19.44,24.22-37.4,35.33-56.46,9.34-16.03,16.4-32.77,23.44-49.46,2.92-6.94,5.85-13.88,8.77-20.82-8.26-1.57-15.99-.92-24.5-.81-8.71.11-19.47,1.12-28.05,2.32-18.78,2.64-36.81,7.97-53.18,15.48-29.21,13.4-64.65,35.95-83.63,58.44l-3.79,5.1-5.01-5.95c-26.03-37.98-106.97-67.15-155.18-77.15-9.7-2.01-19.68-2.83-29.38-2.83,6.38,38.71,24.31,75.47,23.66,112.38-.11,6.26.36,10.88,1.41,17.07"/>
        <path class="cls-13" d="m345.22,381.49c21.09-36.72,43.41-72.73,66.91-107.95-5.34-3.4-16.12-3.87-22.4-3.82-8.17.08-17.75.75-25.87,1.65-55.59,6.16-100.55,37.76-140.79,74.96l-3.71,2.76-4.45-3.64c-23.13-30.09-68.69-54.14-103.69-66.7-13.92-4.99-28.25-8.94-42.84-11.42-14.34-2.44-32.81-2.59-46.19-.98,4.28,29.85,16.43,59.08,26.27,87.59,7.36,21.34,19.09,39.31,27.81,60.14.43-.68.85-1.35,1.28-2.03"/>
        <path class="cls-12" d="m222.42,357.35c44.25-47.48,151.18-91.14,213.32-69.47-23.8,56.65-62.87,133.87-80.05,196.34-65.41-11.74-119.97,13.3-131.14,59.42-.14,6.93-24.74,6.44-24.6-.5-8.8-29.1-20.25-38.64-47.76-51.58-27.51-12.94-60.51-13.64-88.54-1.86-7.83-71.76-28.47-142.11-60.64-206.73,26.76-9.53,56.33-9.32,84.02-2.97,27.69,6.35,54.94,16.59,78.4,32.61,20.45,13.96,32.48,24.12,51.02,44.98"/>
        <path class="cls-12" d="m208.98,365.21c.46,53.96-1.03,107.94-4.47,161.79"/>
        <path class="cls-12" d="m233.67,365.97c-2.33,53.48-5.6,106.91-9.81,160.27"/>
        <g>
          <g>
            <path class="cls-5" d="m255.56,395.61c-3.36-.06-6.06-2.73-6.15-6.08-.27-10.16.24-22.6,1.34-32.45l.36-3.23c.17-1.53,1.47-2.67,2.98-2.67.11,0,.22,0,.34.02l6.47.72c.28.03.54.1.79.2l32.27-16.21c.86-.44,1.83-.67,2.81-.67,1.13,0,2.24.31,3.21.89,1.84,1.1,2.98,3.04,3.04,5.18.26,8.95-1.02,30.02-1.08,30.91-.12,1.95-1.16,3.75-2.79,4.83-.29.19-7.37,4.89-16.14,9.47-11.56,6.03-20.68,9.09-27.1,9.09h-.35Zm6.96-29.91c-.39,5.34-.62,10.98-.67,16.34,8.75-2.59,20.71-9.29,27.79-13.73.2-3.57.56-10.4.76-16.61l-27.88,14Z"/>
            <path class="cls-9" d="m296.77,338.25c.58,0,1.16.15,1.67.46.95.57,1.55,1.59,1.58,2.7.26,8.75-1.02,29.75-1.07,30.64-.06,1.02-.6,1.95-1.45,2.51-1.12.74-27.35,18.06-41.59,18.06-.1,0-.21,0-.31,0-1.74-.03-3.15-1.43-3.19-3.17-.27-10.03.23-22.3,1.32-32.03l.36-3.23,6.47.72-.13,1.21,34.88-17.52c.46-.23.96-.35,1.46-.35m-37.91,47.59c10.1-1.71,26.33-11.09,33.69-15.82.24-4.15.85-15.32.98-23.25l-33.86,17.01c-.58,7.11-.87,14.98-.8,22.06m37.91-53.59c-1.44,0-2.87.34-4.16.99l-31.29,15.72s-.06,0-.09-.01l-6.47-.72c-.23-.03-.45-.04-.67-.04-3.02,0-5.61,2.27-5.96,5.33l-.36,3.23c-1.12,9.98-1.64,22.57-1.36,32.86.13,4.96,4.12,8.91,9.08,9h.42c15.82,0,41.98-17.11,44.91-19.06,2.39-1.58,3.94-4.26,4.11-7.14.06-.89,1.35-22.09,1.08-31.18-.09-3.18-1.78-6.05-4.51-7.67-1.43-.86-3.07-1.31-4.74-1.31h0Zm-31.38,35.37l21.82-10.96c-.15,3.67-.33,7.22-.48,9.93-6.83,4.21-15.1,8.62-21.81,11.22.09-3.4.24-6.84.47-10.19h0Z"/>
          </g>
          <g>
            <path class="cls-5" d="m309.43,381.93l-6.49-.4c-1.65-.1-2.91-1.53-2.81-3.18l1.45-23.41-.47-1.9c-.19-.77-.07-1.59.34-2.27.12-.2.26-.38.42-.55l1.44-23.28c.05-.79.41-1.54,1.01-2.06.55-.49,1.26-.75,1.99-.75.06,0,.12,0,.18,0l6.5.4c1.65.1,2.91,1.53,2.81,3.18l-1.16,18.87,11.43-2.84c.24-.06.49-.09.73-.09,1.35,0,2.57.91,2.91,2.28l1.57,6.31c.19.77.07,1.59-.34,2.27s-1.07,1.17-1.85,1.36l-15.25,3.79-1.2,19.45c-.05.79-.41,1.54-1.01,2.06-.55.49-1.26.75-1.99.75-.06,0-.12,0-.19,0Z"/>
            <path class="cls-9" d="m306.29,327.13l6.49.4-1.42,22.95,15.4-3.83,1.57,6.31-17.39,4.33-1.34,21.64-6.49-.4,1.47-23.88-.58-2.34.74-.18,1.54-25m0-6c-1.46,0-2.87.53-3.97,1.5-1.19,1.05-1.92,2.54-2.02,4.13l-1.38,22.37s-.04.06-.05.09c-.82,1.36-1.07,3-.68,4.54l.36,1.45-1.42,22.95c-.2,3.31,2.31,6.15,5.62,6.36l6.49.4c.12,0,.25.01.37.01,1.46,0,2.87-.53,3.97-1.5,1.19-1.05,1.92-2.54,2.02-4.13l1.06-17.25,13.12-3.26c1.54-.38,2.87-1.37,3.69-2.73.82-1.36,1.06-3,.68-4.54l-1.57-6.31c-.68-2.73-3.13-4.55-5.82-4.55-.48,0-.97.06-1.45.18l-7.46,1.85.91-14.79c.2-3.31-2.31-6.15-5.62-6.36l-6.49-.4c-.12,0-.25-.01-.37-.01h0Z"/>
          </g>
          <g>
            <path class="cls-5" d="m268.38,417.09c-1.34,0-2.58-.3-3.69-.89-1.5-.79-4.01-2.79-3.99-7.2.02-4.74.17-9.55.46-14.3l.19-3.25c.05-.79.41-1.54,1-2.06.55-.49,1.26-.76,1.99-.76.06,0,.12,0,.18,0l6.49.39c1.65.1,2.91,1.52,2.82,3.17l-.19,3.25c-.16,2.67-.28,5.36-.35,8.05,12.7-2.96,24.88-7.96,35.42-14.58l2.75-1.73c.5-.31,1.05-.46,1.59-.46,1,0,1.97.5,2.54,1.41l3.46,5.51c.42.67.56,1.49.38,2.26-.18.78-.66,1.45-1.33,1.87l-2.76,1.73c-13.31,8.36-28.86,14.36-44.96,17.37-.34.07-1.09.21-2.02.21Z"/>
            <path class="cls-9" d="m313.06,389.73l3.46,5.51-2.75,1.73c-12.99,8.16-28.18,14.02-43.91,16.96-.32.06-.84.16-1.47.16-.69,0-1.49-.12-2.29-.54-1.1-.58-2.41-1.84-2.4-4.54.02-4.68.17-9.44.45-14.13l.19-3.25,6.49.39-.19,3.25c-.24,3.97-.38,7.99-.42,11.96,14.38-2.88,28.21-8.32,40.08-15.77l2.76-1.73m0-6c-1.12,0-2.23.31-3.19.92l-2.76,1.73c-9.2,5.78-19.69,10.29-30.68,13.24.06-1.33.13-2.67.21-3.99l.19-3.25c.2-3.31-2.32-6.15-5.63-6.35l-6.49-.39c-.12,0-.24-.01-.36-.01-1.46,0-2.88.54-3.98,1.51-1.19,1.06-1.91,2.54-2.01,4.13l-.19,3.25c-.29,4.8-.44,9.67-.46,14.47-.02,4.37,2.02,7.97,5.58,9.86,1.55.82,3.27,1.24,5.1,1.24,1.21,0,2.18-.19,2.6-.27,16.44-3.07,32.35-9.22,45.97-17.77l2.75-1.73c2.81-1.76,3.65-5.46,1.89-8.27l-3.46-5.51c-.85-1.35-2.19-2.3-3.74-2.66-.44-.1-.89-.15-1.34-.15h0Z"/>
          </g>
          <g>
            <path class="cls-5" d="m370.75,383.86c-.35,0-.7-.06-1.04-.19l-6.1-2.26c-.75-.28-1.35-.84-1.68-1.56-.33-.72-.36-1.55-.09-2.29l1.13-3.05c.17-.46.34-.92.51-1.39-2.53,1.18-5.13,2.27-7.77,3.25-.54.46-1.24.71-1.94.71h-.03c-4.01,1.4-8.08,2.55-12.1,3.42l-3.18.69c-.21.05-.43.07-.64.07-1.38,0-2.62-.96-2.93-2.37l-1.38-6.36c-.35-1.62.68-3.22,2.3-3.57l3.18-.69c2.75-.6,5.51-1.33,8.21-2.18.03-.21.05-.43.07-.6l.23-2.07c-.09-.01-.18-.03-.28-.04-4.52-.76-8.05-3.24-9.96-6.99-3.86-7.59.01-18.29,2.57-23.82-.55.24-1.07.47-1.57.7l-2.96,1.36c-.4.18-.82.27-1.25.27-.35,0-.71-.06-1.04-.19-.75-.28-1.35-.84-1.68-1.56l-2.71-5.92c-.33-.72-.36-1.55-.08-2.29.28-.75.84-1.35,1.56-1.68l2.96-1.35c2.5-1.15,5.08-2.21,7.71-3.17l-1.71-1.38c-.62-.5-1.02-1.22-1.1-2.01-.09-.79.15-1.58.65-2.2l4.08-5.07c.59-.74,1.46-1.12,2.34-1.12.66,0,1.32.22,1.88.66l2.53,2.04c1.92,1.54,3.76,3.21,5.48,4.96,4.97-1.09,9.97-1.83,14.89-2.21l3.24-.25c.08,0,.16,0,.23,0,1.55,0,2.87,1.2,2.99,2.77l.36,4.68.37-2.63c.11-.79.53-1.5,1.16-1.98.52-.4,1.16-.61,1.81-.61.14,0,.28,0,.41.03l6.44.9c1.64.23,2.79,1.74,2.56,3.39l-.45,3.22c-.74,5.29-1.65,10.67-2.73,16.06l4.98-.83c.17-.03.33-.04.5-.04,1.44,0,2.71,1.04,2.96,2.51l1.07,6.42c.13.79-.06,1.59-.52,2.24-.46.65-1.16,1.08-1.95,1.21l-9.99,1.66c-2.39,9.53-5.26,18.85-8.54,27.71l-1.13,3.05c-.45,1.21-1.59,1.96-2.81,1.96Zm-2.1-26.67s.03-.1.04-.14c-.04.04-.09.08-.14.12.03,0,.06.02.09.02Zm-16.88-20.58c-3.12,6.24-4.25,12.33-3.35,14.1.03.06.23.21.88.32.21.04.47.05.75.05.96,0,2.1-.22,3.09-.43,2.13-.46,4.81-1.17,6.74-2.55,1.93-1.38,2.41-3.47,2.46-4.98.11-2.72-1.09-5.54-3.04-7.18-1.5-1.26-3.58-1.98-5.71-1.98-.17,0-.33,0-.5.01l-1.32,2.65Zm14.26-11.27c.46.32.9.66,1.32,1.02,3,2.52,5.23,5.99,6.45,9.8.85-4.19,1.6-8.4,2.24-12.59-.5.58-1.22.97-2.04,1.03l-3.25.25c-1.57.12-3.15.28-4.73.48Z"/>
            <path class="cls-9" d="m345.02,309.93l2.53,2.04c2.26,1.82,4.4,3.81,6.38,5.93,5.28-1.25,10.65-2.11,16.11-2.52l3.24-.25.5,6.49-3.24.25c-5.46.42-10.83,1.3-16.09,2.6,3.97.18,7.89,1.59,10.99,4.2,4.18,3.52,6.64,9.2,6.42,14.83-.2,5.13-2.48,9.51-6.42,12.34-2.53,1.81-5.36,2.86-7.9,3.55l-.7,6.3c2.8-1.21,5.54-2.54,8.21-4.01l2.85-1.57,1.96,3.55c1.98-6.31,3.73-12.73,5.24-19.25l-.25-1.49.62-.1c1.65-7.3,3.01-14.7,4.06-22.2l.45-3.22,6.44.9-.45,3.22c-.95,6.79-2.16,13.51-3.59,20.15l9.3-1.54,1.07,6.42-11.94,1.98c-2.43,10.01-5.4,19.81-8.92,29.31l-1.13,3.05-6.1-2.26,1.13-3.05c1.04-2.8,2.01-5.64,2.95-8.49l-.55.31c-4.59,2.53-9.36,4.69-14.27,6.46l-.14.24-.21-.12c-4.1,1.47-8.29,2.68-12.56,3.61l-3.18.69-1.38-6.36,3.18-.69c3.34-.72,6.63-1.63,9.86-2.71l.3-.51c.28-.47.37-1.33.47-2.17l.58-5.25c-.26.01-.52.03-.78.03-.77,0-1.54-.06-2.33-.19-4.55-.77-6.74-3.35-7.78-5.39-3.74-7.36,1.59-19.2,3.32-22.66l.35-.7-1.81-3.16c-1.6.64-3.2,1.3-4.78,2.02l-2.96,1.36-2.71-5.92,2.96-1.35c4.04-1.85,8.18-3.43,12.38-4.74-1.04-.98-2.11-1.93-3.22-2.83l-2.53-2.04,4.08-5.07m5.03,44.15c1.21,0,2.49-.23,3.73-.5,2.41-.52,5.48-1.34,7.86-3.05,3.07-2.2,3.65-5.52,3.71-7.3.14-3.67-1.43-7.34-4.11-9.6-2.11-1.77-4.88-2.69-7.65-2.69-1.47,0-2.93.26-4.29.78l1.25.62-1.45,2.91c-2.83,5.68-5.09,13.36-3.34,16.8.36.72,1.04,1.58,3.05,1.92.4.07.82.1,1.24.1m-5.03-50.15c-.21,0-.43.01-.64.03-1.58.17-3.03.96-4.03,2.2l-4.08,5.07c-1.49,1.84-1.7,4.3-.76,6.31-1.25.52-2.48,1.05-3.69,1.61l-2.96,1.35c-1.45.66-2.57,1.87-3.13,3.36s-.49,3.14.17,4.59l2.71,5.92c.66,1.45,1.87,2.57,3.37,3.13.67.25,1.38.38,2.09.38.17,0,.33,0,.5-.02-.3.93-.58,1.9-.83,2.9-1.7,6.79-1.41,12.5.86,16.97,1.52,3,3.88,5.34,6.85,6.87-1.03.26-2.06.5-3.09.73l-3.18.69c-3.24.7-5.3,3.89-4.6,7.13l1.38,6.36c.34,1.56,1.28,2.91,2.61,3.78.98.63,2.11.96,3.25.96.42,0,.85-.04,1.27-.14l3.18-.69c4-.86,8.04-2,12.04-3.37,1.02-.09,2-.44,2.85-1.02.5-.19.99-.38,1.49-.57-.06,2.49,1.45,4.86,3.92,5.78l6.1,2.26c.67.25,1.38.37,2.08.37.86,0,1.71-.18,2.51-.55,1.45-.66,2.57-1.88,3.12-3.37l1.13-3.05c3.1-8.37,5.84-17.14,8.15-26.12l8.06-1.34c1.57-.26,2.97-1.13,3.9-2.43.93-1.29,1.3-2.9,1.04-4.47l-1.07-6.42c-.49-2.94-3.03-5.02-5.91-5.02-.33,0-.66.03-.99.08l-.73.12c.74-4.03,1.39-8.03,1.94-11.98l.45-3.22c.22-1.58-.19-3.18-1.15-4.45-.96-1.27-2.38-2.11-3.96-2.33l-6.44-.9c-.28-.04-.55-.06-.83-.06-.61,0-1.22.09-1.8.28-1.1-1.53-2.89-2.52-4.88-2.52-.15,0-.31,0-.46.02l-3.24.25c-4.53.35-9.12,1-13.7,1.93-1.46-1.41-2.99-2.76-4.57-4.03l-2.53-2.04c-1.07-.86-2.4-1.33-3.76-1.33h0Zm6.14,44.04c.23-2.19,1.27-5.99,3.29-10.03l.43-.87c.95.19,1.81.59,2.48,1.15,1.25,1.05,2.04,2.97,1.97,4.77-.05,1.22-.46,2.11-1.22,2.66-1.67,1.2-4.55,1.82-5.63,2.06-.41.09-.89.19-1.34.26h0Z"/>
          </g>
        </g>
        <g>
          <g>
            <path class="cls-10" d="m322.45,456.23c-1.12,0-2.05-.58-2.51-1.56-.5-1.08-.29-2.45.52-3.41,1.37-1.63,3.47-2.09,4.93-2.3.94-.13,1.79-.2,2.59-.2.48,0,.96.02,1.41.07.69.07,1.58.24,2.33.91.6.52.96,1.28,1,2.07.04.74-.21,1.43-.69,1.96-.83.9-1.91.93-2.43.94l-.48.02c-.91.03-1.78.12-2.59.28-.43.08-.85.19-1.26.31-.14.04-.29.08-.44.12-.1.02-.2.04-.3.08-.04.02-.1.06-.16.1-.16.1-.33.2-.49.28-.39.19-.77.3-1.16.34-.1,0-.19.01-.28.01Z"/>
            <path class="cls-8" d="m327.99,450.76c.4,0,.8.02,1.2.06.44.05.89.13,1.22.42s.46.85.16,1.17c-.31.33-.78.29-1.19.3-.1,0-.21,0-.31.01-.98.03-1.96.13-2.92.31-.49.09-.97.21-1.44.35-.29.09-.6.14-.89.25-.3.11-.55.32-.83.46-.14.07-.28.12-.44.14-.04,0-.07,0-.11,0-.93,0-.95-1.11-.46-1.68.88-1.05,2.33-1.42,3.68-1.61.77-.11,1.54-.18,2.32-.18m0-4h0c-.9,0-1.84.07-2.88.22-1.78.25-4.36.84-6.18,2.99-1.3,1.55-1.63,3.77-.8,5.55.78,1.68,2.43,2.72,4.32,2.72.14,0,.29,0,.45-.02.64-.05,1.27-.24,1.88-.54.22-.11.41-.22.56-.31.17-.04.34-.09.51-.14.34-.1.7-.19,1.07-.26.7-.14,1.47-.22,2.27-.24.12,0,.25,0,.38-.01h.09c.67-.02,2.44-.06,3.85-1.59.85-.92,1.29-2.14,1.22-3.41-.07-1.33-.68-2.59-1.68-3.47-1.19-1.05-2.54-1.3-3.44-1.4-.52-.06-1.07-.08-1.62-.08h0Z"/>
          </g>
          <g>
            <path class="cls-10" d="m336.66,453.06c-8.44,0-16.98-2.69-16.98-7.82s8.54-7.82,16.98-7.82,16.98,2.69,16.98,7.82-8.54,7.82-16.98,7.82Z"/>
            <path class="cls-8" d="m336.66,439.41c8.27,0,14.98,2.61,14.98,5.82s-6.71,5.82-14.98,5.82-14.98-2.61-14.98-5.82,6.71-5.82,14.98-5.82m0-4c-4.49,0-8.76.7-12.04,1.98-6.04,2.35-6.94,5.92-6.94,7.85s.9,5.5,6.94,7.85c3.28,1.28,7.56,1.98,12.04,1.98s8.76-.7,12.04-1.98c6.04-2.35,6.94-5.92,6.94-7.85s-.9-5.5-6.94-7.85c-3.28-1.28-7.56-1.98-12.04-1.98h0Z"/>
          </g>
          <g>
            <path class="cls-7" d="m344.58,457.39c-.2,0-.4-.03-.6-.09l-19.58-6.14c-.24-.08-.46-.19-.66-.35-1.6-1.3-2.6-2.87-3.05-4.8-.37-1.58.21-3.05,1.48-3.74.66-.36,1.29-.41,1.77-.41h.29s.03-.03.04-.05c.36-.42.96-1.12,2.05-1.35.2-.04.39-.06.59-.06.66,0,1.15.23,1.42.37.12-.07.42-.27.63-.4.2-.13.39-.25.59-.37.67-.39,1.52-.89,2.63-.89.52,0,1.04.11,1.53.33.37.17.69.36.95.52.08.05.17.1.25.15.08-.06.17-.13.27-.2.49-.37,1.22-.93,2.36-.93.18,0,.36.01.56.05.96.16,1.57.63,1.98.93.09.07.22.17.26.19.19-.02.76-.26,1.07-.39.65-.28,1.44-.61,2.38-.61.44,0,.86.08,1.25.22.86.32,1.4.89,1.75,1.27.09.09.17.19.26.26.08.06.13.08.53.18l.35.09c.8.21,1.73.47,2.6,1.03,2.36,1.49,2.16,3.88,2.07,4.9-.15,1.8-.66,3.2-1.74,4.82-1.31,1.97-3.07,3.41-4.78,4.81l-.26.21c-.36.3-.81.46-1.27.46Z"/>
            <path class="cls-8" d="m337.55,440.99c.07,0,.15,0,.23.02.92.15,1.23.91,2.12,1.09.12.03.25.04.38.04.65,0,1.34-.29,1.92-.53.52-.22,1.06-.45,1.6-.45.19,0,.37.03.55.1.67.25,1.02.88,1.52,1.26.53.39.97.44,1.58.6.69.18,1.41.39,2.03.78,1.22.77,1.24,1.89,1.15,3.04-.14,1.59-.59,2.65-1.41,3.88-1.21,1.82-2.96,3.21-4.64,4.59l-19.58-6.14c-1.21-.98-2.01-2.16-2.36-3.7-.13-.55-.07-1.23.49-1.53.26-.14.53-.16.81-.16.13,0,.26,0,.39,0,.29,0,.58-.02.85-.18.59-.33.83-1.11,1.56-1.26.06-.01.12-.02.18-.02.42,0,.67.34,1.18.39.05,0,.11,0,.16,0,.83,0,1.56-.63,2.31-1.07.52-.3,1.04-.62,1.63-.62.23,0,.47.05.72.16.72.32,1.3.92,2.04.92.2,0,.41-.05.64-.15.84-.4,1.21-1.06,1.97-1.06m0-4h0c-1.17,0-2.08.38-2.74.77-.09-.05-.19-.09-.29-.13-.75-.33-1.54-.5-2.34-.5-1.65,0-2.86.71-3.59,1.13l-.05.03c-.15.09-.3.18-.45.28-.34-.09-.74-.15-1.19-.15-.33,0-.67.03-.99.1-1.19.25-2.02.86-2.57,1.37-.54.05-1.33.19-2.13.63-2.04,1.12-3.04,3.51-2.47,5.95.55,2.35,1.81,4.33,3.74,5.9.39.32.84.56,1.32.71l19.58,6.14c.39.12.8.18,1.2.18.92,0,1.82-.31,2.54-.91l.26-.22c1.73-1.42,3.69-3.03,5.17-5.24,1.27-1.9,1.88-3.62,2.07-5.76.1-1.14.39-4.61-2.99-6.76-1.06-.67-2.15-1.01-3.17-1.27-.1-.03-.2-.05-.3-.07-.44-.46-1.21-1.21-2.4-1.65-.62-.23-1.28-.35-1.96-.35-1.34,0-2.43.46-3.15.77,0,0,0,0,0,0-.52-.33-1.26-.7-2.21-.86-.29-.05-.59-.07-.89-.07h0Z"/>
          </g>
          <g>
            <path class="cls-10" d="m336.66,470.04c-2.18,0-4.34-.34-6.44-1-2.06-.65-4.13-1.5-5.25-3.21l-.06-.08c-.1-.13-.22-.3-.33-.48l-.27-.43c-.13-.22-.23-.4-.33-.58-.34-.64-.67-1.37-.98-2.15,0-.02-.16-.42-.16-.42-.13-.35-.25-.72-.37-1.09-.09-.3-.16-.53-.23-.76,0,0-.16-.58-.17-.6-.06-.21-.12-.46-.19-.71-.13-.52-.25-1.05-.36-1.57-.09-.42-.16-.79-.23-1.16l-.09-.49c-.09-.49-.17-.99-.24-1.48l-.12-.87c-.09-.63-.16-1.2-.21-1.74-.05-.48-.1-.93-.14-1.36-.17-1.9-.22-3.22-.22-3.46-.02-.64.27-1.27.78-1.67.36-.28.8-.43,1.24-.43.18,0,.37.03.55.08l9.89,2.98h7.84l9.89-2.98c.19-.06.38-.08.58-.08.45,0,.89.15,1.25.44.51.41.78,1.03.74,1.68-.02.58-.08,1.8-.22,3.44-.04.43-.08.88-.14,1.36-.06.54-.13,1.11-.21,1.71l-.06.46c-.09.64-.19,1.29-.31,1.94-.1.55-.2,1.07-.31,1.6-.18.87-.38,1.66-.58,2.41-.12.44-.23.82-.35,1.19-.67,2.09-1.44,3.77-2.33,5.06,0,0-.19.26-.19.26-1.12,1.71-3.18,2.55-5.25,3.21-2.1.67-4.26,1-6.42,1h-.02Z"/>
            <path class="cls-8" d="m351.05,446.28s0,.01,0,.04c0,.23-.05,1.52-.22,3.34-.04.41-.08.86-.13,1.32-.06.53-.13,1.08-.2,1.66-.02.15-.04.3-.06.45v.02c-.09.6-.19,1.22-.3,1.85,0,0,0,.02,0,.03-.09.5-.19,1-.29,1.5,0,.01,0,.03,0,.04-.16.76-.34,1.51-.54,2.25,0,.02-.01.04-.02.06-.1.36-.2.71-.31,1.06,0,.02-.01.04-.02.07-.54,1.69-1.21,3.25-2.06,4.47,0,0,0,0,0,0-.06.09-.12.17-.18.25h0c-.84,1.31-2.83,1.99-4.19,2.42-1.92.61-3.87.91-5.82.91h-.03c-1.95,0-3.9-.3-5.82-.91-1.36-.43-3.36-1.12-4.2-2.42h0s-.05-.07-.07-.1c-.1-.14-.2-.28-.29-.43-.05-.08-.1-.16-.15-.24,0-.01-.02-.03-.02-.04-.02-.04-.05-.08-.07-.12-.09-.15-.18-.31-.26-.47-.32-.6-.61-1.25-.88-1.93,0,0,0-.02-.01-.03-.03-.07-.05-.14-.08-.21-.02-.05-.04-.1-.05-.14-.12-.33-.24-.67-.35-1.02,0-.02-.01-.04-.02-.07-.07-.21-.13-.43-.19-.64,0-.03-.02-.07-.03-.1-.01-.04-.02-.08-.04-.13-.02-.08-.05-.17-.07-.25,0-.02,0-.03-.01-.05-.06-.24-.13-.47-.19-.71-.12-.49-.24-.99-.34-1.49,0-.01,0-.03,0-.04-.08-.36-.15-.71-.21-1.07-.03-.15-.06-.31-.08-.46-.09-.49-.16-.97-.24-1.44-.02-.14-.04-.28-.06-.43-.02-.15-.04-.3-.06-.45-.08-.57-.15-1.13-.2-1.66-.05-.46-.09-.91-.13-1.32-.17-1.83-.21-3.11-.22-3.34,0-.02,0-.04,0-.04l10.17,3.06h8.43l10.17-3.06m-28.77-4c-.88,0-1.74.29-2.45.84-1.02.79-1.6,2.02-1.55,3.32.01.38.06,1.72.23,3.59.04.44.09.91.14,1.4.06.56.13,1.15.22,1.76l.07.49.07.45c.08.51.16,1.02.25,1.54l.09.5c.07.39.15.77.23,1.16,0,.01,0,.04.01.05.11.54.24,1.09.38,1.63.07.26.13.52.21.78.01.04.02.09.03.11l.04.16.02.07.05.16.03.12c.07.22.14.47.21.71,0,.02.01.03.02.05.14.43.27.82.41,1.21l.04.12s.02.05.02.05l.02.06.07.19s.02.04.03.07c.32.83.68,1.63,1.07,2.35.11.21.23.41.34.61l.1.16s.03.05.05.08c.06.1.13.2.19.3.13.2.27.4.41.59v.02c1.69,2.52,4.8,3.5,6.3,3.98,2.29.73,4.66,1.1,7.03,1.1s4.77-.37,7.06-1.1c1.5-.48,4.59-1.46,6.27-3.95.05-.07.11-.15.16-.23.01-.01.02-.03.03-.04,1-1.45,1.87-3.31,2.58-5.53l.03-.11c.12-.36.23-.77.35-1.17,0-.02.01-.04.02-.06.21-.78.42-1.62.6-2.49,0-.01.01-.07.02-.08.11-.52.21-1.06.31-1.6,0-.01,0-.02,0-.03h0c.11-.64.22-1.29.31-1.95,0-.02,0-.04,0-.06l.07-.48c.08-.6.15-1.19.21-1.75.05-.49.1-.96.14-1.4.18-1.96.22-3.33.23-3.58,0-.04,0-.12,0-.16,0-1.26-.6-2.46-1.61-3.21-.7-.52-1.54-.79-2.39-.79-.39,0-.77.06-1.15.17l-9.61,2.89h-7.25l-9.61-2.89c-.38-.11-.77-.17-1.15-.17h0Z"/>
          </g>
          <g>
            <path class="cls-10" d="m337,452.76c-.85,0-1.71-.02-2.56-.06h-.34c-4.2-.11-9.42-.23-12.78-3.36-.42-.39-.78-.82-1.07-1.3-.6-.92-.95-2.03-.96-3.16,0-.14,0-.2,0-.26,0-.92.26-1.9.74-2.76.01-.03.11-.19.11-.19,1.11-1.86,3.25-3.2,6.34-3.98,3.21-.81,6.44-.91,8.9-.91h.96c.85,0,1.71.02,2.56.06h.33c4.2.11,9.42.23,12.79,3.36.41.38.77.82,1.07,1.3.6.92.95,2.03.97,3.16,0,0,0,.22,0,.24-.02.99-.28,1.96-.76,2.81l-.1.17c-1.1,1.85-3.24,3.19-6.33,3.96-3.21.81-6.44.91-8.9.91h-.95Zm.77-6.69c1.92,0,4.42-.06,6.83-.55,1.89-.38,2.88-.95,3.19-1.36.08-.11.09-.16.09-.2,0-.12-.04-.2-.12-.3-.09-.12-.18-.21-.28-.28-1.9-1.42-5.67-1.49-8.7-1.55h-.32c-.71-.03-1.39-.04-2.07-.04h-.84c-1.92,0-4.42.06-6.83.55-1.89.38-2.88.95-3.19,1.36,0,0-.03.04-.04.06-.05.07-.05.12-.05.15h0c0,.12.05.21.12.3.09.12.18.2.28.28,1.9,1.42,5.67,1.49,8.7,1.55h.33c.72.03,1.4.04,2.09.04,0,0,.34,0,.34,0s.48,0,.48,0Z"/>
            <path class="cls-8" d="m335.36,438.79c.18,0,.37,0,.55,0,.14,0,.27,0,.41,0,.82,0,1.65.02,2.47.06,3.93.1,8.95.13,11.85,2.82.29.27.54.57.74.9.43.66.65,1.39.66,2.13,0,.02,0,.04,0,.06s0,.04,0,.06c0,0,0,0,0,0,0,.65-.16,1.3-.5,1.89,0,0,0,.02-.01.02-.02.03-.03.05-.05.08-.97,1.62-3.04,2.56-5.11,3.08-2.73.69-5.58.85-8.41.85-.18,0-.37,0-.55,0-.14,0-.27,0-.41,0-.82,0-1.65-.02-2.47-.06-3.93-.1-8.95-.13-11.85-2.82-.29-.27-.54-.57-.74-.9-.43-.66-.65-1.39-.66-2.13,0-.02,0-.04,0-.06s0-.04,0-.06c0,0,0,0,0,0,0-.65.16-1.3.5-1.89,0,0,0-.02.01-.02.02-.03.03-.05.05-.08.97-1.62,3.04-2.56,5.11-3.08,2.73-.69,5.58-.85,8.41-.85m1.59,9.28c.12,0,.23,0,.35,0,.16,0,.32,0,.48,0,2.44,0,4.88-.11,7.23-.59,1.78-.36,3.56-1.01,4.39-2.13.01-.02.03-.04.04-.06,0,0,0-.01.01-.02.29-.41.43-.86.43-1.31,0,0,0,0,0,0,0-.01,0-.03,0-.04,0-.01,0-.03,0-.04-.01-.51-.2-1.02-.57-1.48-.17-.22-.39-.43-.64-.62-2.49-1.86-6.8-1.89-10.18-1.95-.71-.03-1.41-.04-2.12-.04-.12,0-.23,0-.35,0-.16,0-.32,0-.48,0-2.44,0-4.88.11-7.23.59-1.78.36-3.56,1.01-4.39,2.13-.01.02-.03.04-.04.06,0,0,0,.01-.01.02-.29.41-.43.86-.43,1.31,0,0,0,0,0,0,0,.01,0,.03,0,.04,0,.01,0,.03,0,.04.01.51.19,1.02.57,1.48.17.22.39.43.64.62,2.49,1.86,6.8,1.89,10.18,1.95.71.03,1.42.04,2.12.04m-1.59-13.28h0c-2.57,0-5.96.11-9.39.97-3.62.91-6.17,2.56-7.57,4.9l-.08.13s-.05.08-.06.11h0c-.64,1.16-.97,2.43-.99,3.73,0,.03,0,.06,0,.09s0,.09,0,.12v.09c.03,1.48.47,2.94,1.29,4.2.39.61.85,1.17,1.38,1.67,3.92,3.64,9.81,3.78,14.1,3.88h.33c.87.05,1.75.07,2.61.07h.41s.55,0,.55,0c2.57,0,5.96-.11,9.39-.97,3.62-.91,6.17-2.56,7.57-4.9l.08-.13s.04-.08.06-.11c.64-1.15.97-2.43.99-3.73,0-.03,0-.06,0-.09s0-.09,0-.12v-.09c-.03-1.48-.47-2.94-1.29-4.2-.39-.61-.85-1.17-1.38-1.66-3.92-3.64-9.81-3.78-14.1-3.88h-.33c-.87-.05-1.75-.07-2.61-.07h-.41s-.55,0-.55,0h0Zm-3.64,9.14c1.11-.1,2.36-.14,3.82-.14h.45s.37,0,.37,0c.65,0,1.31.01,1.98.04.02,0,.04,0,.07,0h.32c.85.02,1.85.04,2.85.1-1.11.1-2.36.14-3.82.14h-.45s-.37,0-.37,0c-.65,0-1.32-.01-1.98-.04-.02,0-.04,0-.06,0h-.33c-.85-.02-1.85-.04-2.85-.1h0Z"/>
          </g>
          <g>
            <path class="cls-1" d="m337.66,447.36c-.4,0-.76-.03-1.09-.1-1.13-.23-1.69-.84-1.95-1.31-.56-1-.21-1.98-.08-2.35,0,0,0,0,0-.01.13-1.8.04-3.64-.08-5.52l-.04-.6c-.09-1.45-.19-2.96-.19-4.46,0-2.16-.98-4.48-2.01-6.94-.2-.47-.39-.94-.58-1.4-.24-.6-.18-1.27.16-1.82.34-.55.93-.89,1.57-.93l4.24-.26s.08,0,.12,0c.7,0,1.35.36,1.71.97.53.87.98,1.79,1.36,2.73.18.44.34.89.49,1.34,1.74,5.32,1.34,10.89.98,15.8-.02.23-.04.45-.06.67-.02.22-.05.45-.06.67.02.49.07,1.75-1.11,2.63-1.16.86-3.01.9-3.37.9Z"/>
            <path class="cls-8" d="m337.72,423.66c.49.81.89,1.62,1.22,2.44.17.4.31.81.44,1.21,1.6,4.92,1.25,10.06.89,15.04-.03.46-.1.92-.12,1.39-.02.36.12.81-.3,1.12-.42.31-1.38.51-2.18.51-.25,0-.49-.02-.69-.06-1.13-.23-.48-.93-.45-1.4.16-1.98.06-3.96-.06-5.95-.1-1.65-.22-3.29-.22-4.93,0-3.02-1.52-6.09-2.75-9.1l4.24-.26m0-4c-.08,0-.16,0-.24,0l-4.24.26c-1.29.08-2.46.77-3.14,1.86-.69,1.09-.8,2.45-.32,3.64.19.47.39.95.59,1.42.96,2.27,1.86,4.41,1.86,6.17,0,1.57.1,3.1.19,4.59l.04.6c.11,1.72.2,3.4.1,5-.42,1.36-.32,2.62.31,3.74.47.83,1.42,1.9,3.3,2.28.46.09.96.14,1.49.14.84,0,2.98-.13,4.56-1.29.93-.68,2.01-1.97,1.93-4.22.01-.16.03-.31.05-.47.03-.25.05-.5.07-.74.37-5.1.78-10.88-1.08-16.56-.18-.55-.36-1.03-.54-1.49-.41-1.01-.91-2.02-1.49-2.98-.73-1.21-2.03-1.94-3.43-1.94h0Z"/>
          </g>
          <g>
            <path class="cls-3" d="m334.73,434.42c-3.84,0-6.74-1.48-7.97-4.07-.34-.71-.54-1.49-.59-2.32-.1-1.46.17-2.94.78-4.28.4-.87.93-1.58,1.4-2.2.27-.36.52-.69.72-1.02.23-.38.38-.95.43-1.61.07-.9,0-1.87-.06-2.89-.04-.6-.08-1.2-.09-1.79,0-.34-.02-.69-.03-1.05-.12-3.41-.31-8.57,4.04-11.06,1.05-.56,2.19-.83,3.36-.83,2.11,0,4.08.92,5.26,2.46.93,1.21,1.19,2.51,1.42,3.65.25,1.22.41,2.4.56,3.54l.15,1.09c.51,3.77,1.04,7.67.9,11.56-.03.77-.08,1.52-.17,2.24-.53,4.75-3.69,7.92-8.44,8.48-.55.07-1.12.1-1.68.1Z"/>
            <path class="cls-8" d="m336.73,403.31c1.41,0,2.82.56,3.67,1.67.65.85.85,1.85,1.06,2.87.23,1.12.38,2.25.53,3.38.54,3.99,1.18,8.21,1.03,12.29-.03.7-.08,1.4-.15,2.1-.42,3.75-2.76,6.25-6.68,6.71-.46.05-.95.08-1.45.08-2.43,0-5.12-.72-6.17-2.93-.24-.5-.37-1.05-.4-1.6-.08-1.11.13-2.28.6-3.31.5-1.11,1.38-1.97,2.01-3.01.46-.74.66-1.65.72-2.51.12-1.6-.11-3.27-.14-4.87-.08-3.46-.67-8.22,3-10.32.72-.38,1.55-.57,2.37-.57m0-4h0c-1.49,0-2.96.36-4.24,1.03-.04.02-.08.04-.12.07-5.4,3.09-5.18,9.21-5.05,12.86.01.35.03.69.03,1.02.01.65.05,1.27.09,1.88.06.95.12,1.85.06,2.61-.03.42-.12.66-.15.71-.15.24-.37.54-.61.86-.51.67-1.14,1.51-1.63,2.58-.75,1.64-1.08,3.45-.95,5.24.07,1.08.34,2.11.78,3.04,1.57,3.31,5.14,5.21,9.78,5.21.64,0,1.28-.04,1.92-.11,5.65-.67,9.55-4.59,10.19-10.24.09-.77.15-1.58.18-2.4.15-4.07-.39-8.06-.92-11.91l-.14-1.06c-.16-1.19-.32-2.4-.57-3.64-.26-1.26-.6-2.94-1.8-4.51-1.56-2.03-4.11-3.24-6.85-3.24h0Z"/>
          </g>
          <path class="cls-11" d="m334.21,417.91l.15,1.93"/>
          <path class="cls-11" d="m337.66,417.03c.1.84.2,1.68.31,2.52"/>
          <g>
            <path class="cls-10" d="m346.16,459.74c-1.36,0-2.39-.41-3.04-1.23-.58-.72-.71-1.67-.32-2.48.2-.4.45-.65.64-.83.25-.23.58-.49,1.04-.67.04-.01.11-.04.15-.05.4-.13.77-.15.99-.15.15-.01.22-.04.29-.06.26-.08.51-.2.76-.31.18-.08.35-.16.53-.23.81-.34,1.54-.5,2.24-.5.64,0,1.24.14,1.78.42.45.23.79.56,1,.97.34.65.4,1.37.19,2.04-.26.84-.94,1.54-2,2.09-1.1.57-2.33.91-3.57.97-.21.01-.44.02-.67.02Z"/>
            <path class="cls-8" d="m349.42,455.22c.3,0,.59.06.87.2.06.03.12.07.15.13.34.65-.48,1.16-.96,1.41-.85.44-1.8.7-2.76.75-.17,0-.36.02-.57.02-.55,0-1.16-.08-1.48-.48-.08-.1-.13-.23-.07-.36.04-.08.11-.14.17-.2.13-.11.26-.23.42-.29.01,0,.03,0,.04-.01.19-.06.4-.05.6-.07.23-.02.45-.08.67-.15.5-.16.96-.4,1.44-.6.45-.19.96-.35,1.47-.35m0-4h0c-.96,0-1.95.21-3.01.66-.19.08-.39.17-.58.25-.18.08-.36.16-.48.21-.33.02-.82.07-1.37.25-.06.02-.15.05-.21.07-.79.31-1.31.72-1.67,1.05-.18.16-.72.65-1.11,1.45-.72,1.5-.51,3.27.56,4.6.73.9,2.11,1.97,4.6,1.97.28,0,.54-.01.78-.03,1.52-.08,3.04-.5,4.39-1.2,1.55-.8,2.55-1.9,2.98-3.27.37-1.18.26-2.44-.32-3.55-.29-.55-.84-1.31-1.87-1.84-.82-.42-1.73-.64-2.7-.64h0Z"/>
          </g>
          <g>
            <path class="cls-10" d="m344.44,458.91c-.17,0-.33,0-.49,0-.69-.03-1.59-.14-2.39-.75-.63-.48-1.04-1.21-1.14-2-.09-.73.11-1.44.56-2,.77-.96,1.85-1.05,2.36-1.1l.47-.05c.92-.09,1.78-.24,2.58-.45.42-.11.84-.24,1.23-.39.14-.05.29-.1.43-.14.1-.03.2-.06.3-.1.04-.02.09-.07.15-.11.15-.11.31-.22.47-.31.38-.22.75-.36,1.14-.42.17-.03.33-.04.48-.04,1.06,0,1.97.55,2.44,1.48.52,1.03.39,2.38-.33,3.36-1.27,1.72-3.33,2.32-4.77,2.62-1.29.27-2.43.4-3.49.4Z"/>
            <path class="cls-8" d="m350.59,453.05c.86,0,.93,1.06.5,1.65-.81,1.1-2.23,1.57-3.57,1.85-1.01.21-2.05.36-3.08.36-.14,0-.28,0-.42,0-.44-.02-.9-.07-1.25-.34-.35-.27-.51-.81-.24-1.15.28-.35.76-.34,1.17-.38.1-.01.21-.02.31-.03.97-.09,1.94-.26,2.89-.51.48-.13.95-.27,1.42-.45.28-.11.59-.18.87-.3.29-.13.52-.35.79-.51.13-.08.28-.14.43-.16.06,0,.12-.01.18-.01m0-4c-.26,0-.52.02-.79.06-.63.1-1.25.32-1.84.66-.21.13-.4.25-.53.35-.17.05-.34.11-.5.17-.34.12-.69.24-1.05.33-.69.18-1.45.31-2.25.39-.12.01-.25.02-.37.04h-.09c-.67.07-2.43.23-3.74,1.84-.79.98-1.15,2.22-.99,3.49.16,1.32.85,2.54,1.9,3.35,1.26.97,2.62,1.13,3.53,1.16.19,0,.38.01.57.01,1.2,0,2.48-.15,3.9-.44,1.76-.37,4.3-1.12,5.97-3.39,1.18-1.6,1.38-3.73.51-5.45-.8-1.59-2.42-2.58-4.23-2.58h0Z"/>
          </g>
        </g>
        <g>
          <g>
            <path class="cls-10" d="m96.39,438.67c-1.88,0-3.46-.97-4.21-2.6-.86-1.84-.48-4.29.93-5.95,2.64-3.13,6.62-4.05,9.79-4.5,1.97-.28,3.74-.41,5.4-.41.99,0,1.97.05,2.89.15,1.29.14,2.94.45,4.29,1.64,1.02.9,1.65,2.19,1.71,3.54.06,1.23-.35,2.39-1.15,3.26-1.42,1.54-3.29,1.58-4.3,1.61,0,0-.8.03-1.04.04-2.03.06-3.98.27-5.79.62-.96.19-1.91.42-2.82.69-.29.09-.59.16-.89.23-.31.08-.61.15-.81.22-.11.04-.34.19-.55.31-.31.19-.63.38-.96.55-.69.34-1.35.54-2.02.6-.17.01-.33.02-.49.02Z"/>
            <path class="cls-8" d="m108.3,428.2c.86,0,1.72.04,2.58.13.94.1,1.92.28,2.63.9.71.62.98,1.82.35,2.51-.66.71-1.68.62-2.56.66-.22.01-.44.02-.67.02-2.1.06-4.21.27-6.28.67-1.05.2-2.08.45-3.1.76-.63.19-1.3.3-1.91.53-.63.24-1.17.68-1.78.98-.29.15-.61.26-.94.29-.08,0-.16.01-.23.01-2,0-2.04-2.38-.99-3.62,1.9-2.25,5-3.05,7.92-3.46,1.65-.23,3.32-.38,4.98-.38m0-6c-1.81,0-3.71.15-5.82.44-3.41.48-8.33,1.58-11.67,5.53-2.16,2.56-2.71,6.24-1.36,9.15,1.24,2.68,3.9,4.34,6.93,4.34.24,0,.49-.01.75-.03,1.06-.09,2.07-.39,3.1-.9.49-.24.9-.5,1.19-.68.05-.03.1-.06.14-.09.1-.02.23-.06.35-.08.35-.08.69-.17,1.03-.27.82-.24,1.67-.45,2.54-.62,1.65-.32,3.44-.51,5.31-.57.25,0,.51-.02.76-.03.08,0,.17,0,.25,0,1.24-.03,4.15-.1,6.44-2.57,1.36-1.47,2.05-3.4,1.94-5.45-.11-2.16-1.11-4.21-2.73-5.64-2.01-1.77-4.36-2.2-5.96-2.37-1.03-.11-2.11-.16-3.21-.16h0Z"/>
          </g>
          <g>
            <path class="cls-10" d="m126.94,431.85c-17.08,0-35.22-5.44-35.22-15.53s18.15-15.53,35.22-15.53,35.22,5.44,35.22,15.53-18.15,15.53-35.22,15.53Z"/>
            <path class="cls-8" d="m126.94,403.8c17.8,0,32.22,5.61,32.22,12.53s-14.43,12.53-32.22,12.53-32.22-5.61-32.22-12.53,14.43-12.53,32.22-12.53m0-6c-9.33,0-18.2,1.45-24.96,4.08-11.54,4.49-13.26,10.98-13.26,14.45s1.72,9.96,13.26,14.45c6.76,2.63,15.63,4.08,24.96,4.08s18.2-1.45,24.96-4.08c11.54-4.49,13.26-10.98,13.26-14.45s-1.72-9.96-13.26-14.45c-6.76-2.63-15.63-4.08-24.96-4.08h0Z"/>
          </g>
          <g>
            <path class="cls-7" d="m143.98,441.18c-.3,0-.6-.04-.9-.14l-42.1-13.2c-.36-.11-.7-.29-.99-.53-3.22-2.6-5.22-5.75-6.12-9.61-.65-2.81.34-5.41,2.53-6.61,1.17-.64,2.32-.72,3.19-.72h.83c.2.01.31,0,.37,0,.12-.11.35-.37.5-.55.71-.83,1.78-2.07,3.69-2.47.33-.07.66-.1.99-.1,1.17,0,2.04.44,2.56.7.12.06.27.14.33.15.49,0,1.46-.63,2.23-1.13.41-.26.81-.52,1.22-.76l.11-.07c1.27-.74,2.86-1.67,4.9-1.67.94,0,1.87.2,2.77.6.72.32,1.34.71,1.89,1.04.42.26,1.04.65,1.28.68,0,0,.03-.01.08-.04.42-.2.8-.49,1.24-.83.96-.74,2.28-1.74,4.28-1.74.33,0,.66.03.99.08,1.75.29,2.87,1.14,3.68,1.76.52.4.75.56,1,.61.05.01.13.02.21.02.81,0,2.1-.55,2.96-.91,1.29-.55,2.86-1.22,4.61-1.22.78,0,1.53.13,2.24.4,1.56.59,2.56,1.64,3.28,2.4.28.29.54.56.73.71.41.31.71.39,1.62.6.24.06.48.11.74.18,1.62.42,3.5.96,5.22,2.05,4.4,2.79,4.03,7.2,3.85,9.32-.36,4.26-1.67,6.98-3.52,9.76-2.72,4.07-6.42,7.12-10.01,10.06l-.56.46c-.54.45-1.22.68-1.91.68Z"/>
            <path class="cls-8" d="m128.86,407.2c.16,0,.33.01.5.04,1.97.33,2.64,1.95,4.55,2.35.27.06.55.08.83.08,1.39,0,2.89-.62,4.13-1.15,1.11-.47,2.29-.98,3.44-.98.4,0,.8.06,1.18.21,1.44.54,2.19,1.89,3.27,2.7,1.13.85,2.1.95,3.4,1.29,1.48.38,3.04.84,4.36,1.68,2.63,1.66,2.68,4.06,2.46,6.54-.29,3.42-1.26,5.69-3.03,8.35-2.6,3.9-6.37,6.9-9.98,9.87l-42.1-13.2c-2.61-2.11-4.31-4.65-5.08-7.96-.27-1.18-.14-2.64,1.05-3.29.56-.3,1.15-.35,1.75-.35.28,0,.56.01.83.01.62,0,1.24-.05,1.82-.38,1.26-.72,1.79-2.39,3.35-2.71.13-.03.26-.04.38-.04.91,0,1.44.72,2.54.83.12.01.23.02.34.02,1.78,0,3.35-1.35,4.97-2.29,1.11-.65,2.23-1.32,3.5-1.32.49,0,1,.1,1.55.34,1.54.68,2.8,1.99,4.38,1.99.43,0,.89-.1,1.38-.33,1.8-.86,2.61-2.28,4.23-2.28m0-6h0c-2.72,0-4.62,1.25-5.76,2.1-.51-.31-1.11-.65-1.8-.96-1.28-.57-2.62-.86-3.98-.86-2.85,0-4.99,1.25-6.41,2.07l-.11.07c-.49.28-.94.57-1.34.83-.17.11-.38.24-.57.37-.73-.29-1.72-.57-2.92-.57-.53,0-1.07.06-1.6.17-2.45.51-4.01,1.97-4.92,2.96-1.13.01-2.77.15-4.48,1.08-3.41,1.86-4.99,5.75-4.02,9.92,1.06,4.54,3.4,8.22,7.16,11.26.59.47,1.26.83,1.98,1.06l42.1,13.2c.59.18,1.19.27,1.79.27,1.37,0,2.72-.47,3.81-1.37l.56-.46c3.58-2.94,7.64-6.27,10.6-10.71,2.5-3.74,3.66-6.98,4.02-11.17.19-2.28.71-8.35-5.23-12.11-1.99-1.26-4.09-1.91-6.07-2.42-.28-.07-.54-.13-.79-.2-.18-.04-.4-.1-.55-.14-.09-.09-.21-.22-.31-.32-.82-.87-2.2-2.32-4.41-3.15-1.04-.39-2.15-.59-3.29-.59-2.36,0-4.32.83-5.75,1.44-.35.15-.92.39-1.37.54-.96-.73-2.5-1.82-4.84-2.21-.49-.08-.99-.12-1.48-.12h0Z"/>
          </g>
          <g>
            <path class="cls-10" d="m126.93,468.37c-4.55,0-9.07-.71-13.45-2.1-4.21-1.34-8.41-3.04-10.6-6.39l-.07-.09c-.28-.39-.52-.74-.76-1.1-.12-.18-.24-.38-.36-.58-.01-.02-.2-.33-.2-.33-.25-.42-.46-.79-.66-1.17-.72-1.34-1.41-2.86-2.04-4.49l-.33-.89c-.27-.73-.53-1.5-.78-2.29l-.06-.17c-.14-.45-.29-.94-.43-1.42,0,0-.33-1.15-.33-1.17-.14-.53-.28-1.06-.42-1.59-.28-1.1-.53-2.21-.76-3.32,0-.02-.03-.14-.03-.16-.15-.73-.31-1.52-.46-2.3-.06-.34-.13-.68-.19-1.02-.19-1.07-.36-2.13-.52-3.17l-.14-.93s-.14-1-.14-1c-.17-1.26-.32-2.48-.45-3.64-.11-1.02-.21-1.99-.29-2.89-.38-4.15-.47-7.06-.48-7.38-.03-.96.41-1.92,1.17-2.51.54-.42,1.21-.65,1.88-.65.27,0,.54.04.81.12l21.46,6.45h17.25l21.46-6.45c.28-.08.58-.13.86-.13.66,0,1.3.21,1.83.62.77.59,1.2,1.52,1.17,2.48-.02.6-.12,3.46-.48,7.44-.08.91-.18,1.88-.29,2.9-.13,1.15-.27,2.37-.45,3.64,0,0-.14,1.02-.14,1.04-.2,1.38-.42,2.75-.65,4.07-.21,1.17-.42,2.28-.66,3.39,0,.01-.03.12-.03.13-.37,1.73-.77,3.41-1.21,4.99,0,0-.03.11-.03.11-.23.82-.46,1.62-.71,2.41l-.05.16c-1.35,4.23-2.97,7.73-4.81,10.39-.01.02-.02.03-.04.05-.12.17-.24.34-.37.51-2.19,3.33-6.38,5.03-10.58,6.36-4.38,1.39-8.9,2.1-13.42,2.1h-.04Z"/>
            <path class="cls-8" d="m157.88,418.58s0,.03,0,.08c-.02.5-.11,3.27-.47,7.19-.08.89-.17,1.84-.28,2.84-.12,1.13-.27,2.33-.44,3.57-.04.32-.09.65-.14.97,0,.01,0,.02,0,.04-.19,1.29-.4,2.63-.64,3.98,0,.02,0,.04-.01.06-.19,1.07-.4,2.15-.63,3.23,0,.03-.01.06-.02.09-.34,1.62-.73,3.25-1.17,4.84-.01.04-.02.08-.03.12-.21.77-.44,1.54-.68,2.29-.02.05-.03.09-.05.14-1.16,3.63-2.61,6.99-4.42,9.61,0,0,0,.01-.01.02-.13.18-.26.37-.39.54h0c-1.8,2.81-6.09,4.28-9.02,5.21-4.13,1.31-8.32,1.96-12.51,1.96h-.07c-4.19,0-8.38-.65-12.51-1.96-2.93-.93-7.23-2.4-9.02-5.21h0c-.05-.07-.1-.15-.16-.22-.22-.3-.43-.6-.63-.92-.11-.17-.22-.34-.32-.52-.02-.03-.04-.06-.05-.08-.05-.09-.1-.18-.16-.27-.19-.33-.38-.66-.56-1-.69-1.29-1.32-2.69-1.88-4.16,0-.02-.02-.04-.02-.06-.06-.15-.11-.3-.17-.45-.04-.1-.08-.2-.12-.31-.26-.71-.51-1.44-.75-2.19-.02-.05-.03-.09-.05-.14-.14-.46-.28-.92-.42-1.39-.02-.07-.04-.14-.06-.21-.03-.09-.05-.18-.08-.27-.05-.18-.1-.36-.15-.54,0-.03-.02-.07-.03-.1-.14-.51-.27-1.02-.4-1.53-.27-1.06-.51-2.14-.74-3.21,0-.03-.01-.06-.02-.09-.16-.77-.31-1.54-.46-2.3-.06-.33-.12-.67-.18-1-.19-1.05-.35-2.08-.51-3.1-.05-.31-.09-.61-.13-.92-.05-.33-.09-.65-.14-.97-.17-1.24-.31-2.43-.44-3.57-.11-1-.2-1.95-.28-2.84-.36-3.93-.45-6.7-.47-7.19,0-.05,0-.08,0-.08l21.88,6.58h18.14l21.88-6.58m-.02-6c-.57,0-1.15.08-1.71.25l-21.03,6.33h-16.37l-21.03-6.33c-.56-.17-1.13-.25-1.71-.25-1.29,0-2.57.42-3.63,1.22-1.53,1.15-2.41,2.97-2.39,4.88v.2c.02.5.12,3.41.49,7.52.08.92.18,1.91.3,2.95.14,1.25.29,2.5.46,3.72.04.33.09.67.14,1.02.05.32.09.64.14.96.17,1.1.34,2.19.53,3.25.06.35.13.7.19,1.05.15.81.31,1.62.48,2.44,0,.02,0,.04.01.05.26,1.23.53,2.38.8,3.48.14.55.28,1.11.44,1.66l.02.07s0,.03.01.05l.16.58.03.1.05.19.05.17.02.06c.15.51.3,1.02.46,1.52l.04.13c.28.87.56,1.69.84,2.46l.1.26.04.09.04.1.15.39.03.08h0c.68,1.75,1.41,3.38,2.19,4.83.22.42.45.82.69,1.22l.04.07c.05.09.1.17.15.26l.07.11c.13.21.26.43.4.63.25.38.51.77.81,1.18l.03.04s.03.04.04.06c2.71,4.09,7.44,6.04,12.16,7.54,4.68,1.48,9.5,2.24,14.33,2.24l.06-6v6c4.85,0,9.67-.75,14.34-2.24,4.71-1.49,9.43-3.44,12.14-7.51.12-.16.24-.33.36-.5.02-.02.03-.05.05-.07,2.01-2.91,3.76-6.68,5.21-11.2l.05-.15c.25-.8.5-1.64.74-2.5l.02-.08c.46-1.67.88-3.42,1.27-5.24,0-.02.02-.08.02-.1.23-1.1.45-2.25.66-3.42,0-.01.01-.06.01-.07.24-1.34.46-2.74.67-4.16,0-.01,0-.03,0-.05h0c.05-.34.1-.68.14-1.02.16-1.2.32-2.45.46-3.71.11-1.04.21-2.03.3-2.95.37-4.1.47-7.01.49-7.56v-.15c.03-1.91-.86-3.74-2.38-4.89-1.06-.8-2.34-1.22-3.63-1.22h0Z"/>
          </g>
          <g>
            <path class="cls-10" d="m128.52,431.2h-.85c-1.79,0-3.62-.04-5.45-.12l-.75-.02c-8.81-.21-19.77-.47-26.65-6.85-.8-.75-1.51-1.6-2.09-2.53-1.18-1.8-1.84-3.94-1.88-6.14,0-.01,0-.39,0-.39,0-1.92.52-3.83,1.47-5.5.01-.02.18-.31.18-.31,2.21-3.69,6.53-6.37,12.83-7.96,6.78-1.7,13.62-1.92,18.82-1.92h1.21s.85,0,.85,0c1.79,0,3.63.04,5.46.12l.74.02c8.81.21,19.77.47,26.65,6.85.81.75,1.51,1.6,2.09,2.53,1.18,1.8,1.84,3.94,1.88,6.13,0,.02,0,.4,0,.41-.02,1.92-.53,3.82-1.47,5.48-.01.02-.14.23-.14.23-2.25,3.77-6.58,6.45-12.88,8.04-6.77,1.7-13.62,1.92-18.82,1.92h-1.21Zm.81-11.78c4.18,0,9.67-.14,14.95-1.21,3.81-.77,6.59-2.02,7.64-3.43,0,0,.06-.08.07-.09.25-.36.38-.72.38-1.11v-.09c-.01-.49-.19-.95-.55-1.38-.26-.33-.53-.59-.84-.83-4.41-3.3-12.76-3.46-19.46-3.59h-.7c-1.55-.07-3.04-.1-4.49-.1h-1.79c-4.18,0-9.65.14-14.94,1.21-3.81.77-6.59,2.02-7.64,3.43,0,0-.06.08-.06.08-.26.37-.38.73-.38,1.12v.09c.01.49.19.95.55,1.38.26.33.53.59.84.82,4.42,3.3,12.76,3.46,19.46,3.59h.7c1.55.07,3.06.1,4.52.1,0,0,.73,0,.74,0s1.02,0,1.02,0Z"/>
            <path class="cls-8" d="m124.15,402.47c.4,0,.79,0,1.19,0,.29,0,.58,0,.87,0,1.77,0,3.55.04,5.32.12,8.46.21,19.25.28,25.48,6.07.62.58,1.16,1.23,1.59,1.93.93,1.42,1.39,3,1.42,4.59,0,.05,0,.09,0,.14,0,.04,0,.09,0,.13,0,0,0,.01,0,.02,0,1.4-.35,2.79-1.08,4.07,0,.02-.02.03-.03.05-.03.06-.07.11-.1.17-2.08,3.48-6.55,5.5-11,6.62-5.88,1.48-11.99,1.83-18.09,1.83-.4,0-.79,0-1.19,0-.29,0-.58,0-.87,0-1.77,0-3.55-.04-5.32-.12-8.46-.21-19.25-.28-25.48-6.07-.62-.58-1.16-1.23-1.59-1.93-.93-1.42-1.39-3-1.42-4.59,0-.05,0-.09,0-.14,0-.04,0-.09,0-.13,0,0,0-.01,0-.02,0-1.4.35-2.79,1.08-4.07,0-.02.02-.03.03-.05.03-.06.07-.11.1-.17,2.08-3.48,6.55-5.5,11-6.62,5.88-1.48,11.99-1.83,18.09-1.83m3.42,19.95c.25,0,.5,0,.74,0,.34,0,.68,0,1.02,0,5.24,0,10.49-.24,15.55-1.27,3.83-.77,7.67-2.17,9.45-4.58.03-.04.06-.08.09-.12,0-.01.02-.02.02-.03.62-.88.92-1.85.92-2.82,0,0,0,0,0-.01,0-.03,0-.06,0-.09,0-.03,0-.06,0-.1-.02-1.1-.42-2.2-1.22-3.18-.38-.48-.83-.93-1.37-1.33-5.36-4.01-14.62-4.06-21.9-4.2-1.52-.05-3.04-.08-4.57-.08-.25,0-.5,0-.75,0-.34,0-.68,0-1.02,0-5.24,0-10.49.24-15.54,1.27-3.83.77-7.67,2.17-9.45,4.58-.03.04-.06.08-.09.12,0,.01-.02.02-.02.03-.62.88-.92,1.85-.93,2.82,0,0,0,0,0,.01,0,.03,0,.06,0,.09,0,.03,0,.06,0,.1.02,1.1.42,2.2,1.22,3.18.38.48.83.93,1.37,1.33,5.36,4.01,14.62,4.06,21.9,4.2,1.52.05,3.05.08,4.57.08m-3.42-25.95h0c-5.38,0-12.46.23-19.55,2.01-7.08,1.78-12.02,4.92-14.67,9.32-.06.1-.11.19-.16.27,0,.02-.02.03-.03.05-.02.03-.04.07-.06.11-1.17,2.09-1.8,4.45-1.83,6.85,0,.03,0,.05,0,.08h0c0,.08,0,.16,0,.25v.08s0,.09,0,.14c.05,2.74.87,5.4,2.37,7.7.72,1.13,1.58,2.17,2.56,3.08,7.71,7.16,19.3,7.43,28.62,7.66l.75.02c1.85.08,3.71.12,5.52.12.29,0,.58,0,.87,0,.4,0,.79,0,1.19,0,5.38,0,12.46-.23,19.55-2.01,7.08-1.78,12.02-4.92,14.67-9.33.07-.11.12-.2.18-.3.02-.03.04-.07.06-.1,1.18-2.09,1.81-4.46,1.84-6.87,0-.03,0-.05,0-.08h0c0-.08,0-.17,0-.25,0-.03,0-.05,0-.08,0-.04,0-.09,0-.15-.05-2.73-.87-5.39-2.37-7.69-.72-1.13-1.58-2.17-2.56-3.08-7.71-7.16-19.3-7.43-28.62-7.66l-.75-.02c-1.85-.08-3.71-.12-5.52-.12-.29,0-.58,0-.87,0-.4,0-.79,0-1.19,0h0Zm-19.17,17.07c.8-.5,2.41-1.22,5.21-1.78,5.02-1.02,10.31-1.15,14.35-1.15.33,0,.66,0,.99,0,.01,0,.02,0,.03,0,.01,0,.03,0,.04,0h.71c1.43,0,2.89.02,4.35.08.03,0,.07,0,.1,0h.7c5.79.12,13.66.27,17.43,2.8-.81.51-2.42,1.22-5.2,1.78-5.03,1.02-10.31,1.15-14.36,1.15-.33,0-.66,0-.99,0-.01,0-.02,0-.03,0-.01,0-.03,0-.04,0h-.71c-1.43,0-2.9-.02-4.36-.08-.03,0-.06,0-.1,0h-.7c-5.79-.12-13.67-.28-17.43-2.8h0Z"/>
          </g>
          <g>
            <path class="cls-1" d="m129.09,419.6c-.76,0-1.47-.06-2.09-.19-1.58-.32-2.69-1.05-3.33-2.17-.92-1.63-.35-3.21-.08-3.98.02-.06.05-.13.07-.19.32-4,.11-8.06-.15-12.22l-.08-1.24c-.2-3.12-.41-6.35-.41-9.56,0-4.91-2.16-10.02-4.44-15.44-.42-1-.84-2-1.25-3-.36-.9-.28-1.91.24-2.73.51-.82,1.39-1.34,2.36-1.4l9.11-.55c.06,0,.12,0,.18,0,1.05,0,2.02.55,2.57,1.45,1.1,1.82,2.05,3.73,2.84,5.68.34.84.68,1.76,1.02,2.8,3.65,11.2,2.84,22.53,2.05,33.49-.03.47-.08.94-.13,1.42-.05.5-.11,1-.13,1.51,0,.08,0,.17,0,.26.03.8.11,2.94-1.88,4.41-1.68,1.24-4.54,1.68-6.48,1.68h0Z"/>
            <path class="cls-8" d="m129.22,369.92c1.05,1.74,1.91,3.49,2.62,5.25.35.86.67,1.73.95,2.6,3.45,10.58,2.68,21.65,1.91,32.34-.07.99-.22,1.99-.27,2.98-.04.78.26,1.74-.65,2.41-.91.67-2.96,1.1-4.7,1.1-.54,0-1.06-.04-1.49-.13-2.43-.49-1.04-2.01-.96-3.01.35-4.25.13-8.53-.14-12.81-.22-3.54-.48-7.08-.48-10.61,0-6.5-3.27-13.1-5.91-19.57l9.11-.55m0-6c-.12,0-.24,0-.37.01l-9.11.55c-1.93.12-3.68,1.16-4.71,2.79-1.03,1.64-1.21,3.67-.48,5.46.41,1.01.84,2.02,1.27,3.04,2.16,5.13,4.2,9.97,4.2,14.27,0,3.29.21,6.56.41,9.72l.08,1.27c.25,3.91.44,7.72.19,11.41-.37,1.05-1.13,3.62.36,6.27.74,1.32,2.27,3.02,5.34,3.64.82.17,1.72.25,2.69.25,1.22,0,5.41-.16,8.26-2.27,2.17-1.6,3.21-3.94,3.09-6.94v-.08c.02-.37.06-.79.11-1.24.05-.51.11-1.02.14-1.52.77-10.72,1.64-22.88-2.19-34.63-.36-1.1-.72-2.09-1.1-3.02-.83-2.06-1.86-4.11-3.04-6.07-1.09-1.81-3.04-2.9-5.14-2.9h0Z"/>
          </g>
          <g>
            <path class="cls-3" d="m122.8,391.77c-7.73,0-13.55-2.92-15.98-8.01-.65-1.37-1.04-2.89-1.15-4.52-.2-2.92.34-5.89,1.56-8.58.79-1.74,1.85-3.14,2.88-4.5.6-.79,1.16-1.54,1.63-2.3.61-.99,1-2.39,1.12-4.04.15-2.03.02-4.14-.13-6.38-.08-1.24-.16-2.53-.19-3.81-.02-.73-.04-1.49-.07-2.27-.27-7.44-.64-17.64,8.04-22.6.03-.02.06-.03.09-.05,1.95-1.03,4.2-1.57,6.5-1.57,4.14,0,7.98,1.79,10.28,4.78,1.81,2.36,2.34,5,2.81,7.32.53,2.6.87,5.12,1.19,7.55l.31,2.28c1.1,8.07,2.24,16.41,1.93,24.67-.06,1.62-.18,3.21-.35,4.73-1.08,9.57-7.43,15.95-17,17.08-1.14.14-2.31.2-3.46.2Z"/>
            <path class="cls-8" d="m127.09,326.15c3.04,0,6.06,1.2,7.89,3.6,1.41,1.84,1.83,3.98,2.27,6.18.49,2.41.81,4.84,1.14,7.27,1.16,8.58,2.55,17.66,2.22,26.44-.06,1.51-.16,3.02-.33,4.51-.91,8.06-5.93,13.44-14.37,14.44-.99.12-2.04.18-3.11.18-5.23,0-11.01-1.56-13.27-6.3-.51-1.08-.79-2.25-.87-3.43-.16-2.4.28-4.89,1.3-7.13,1.08-2.38,2.96-4.25,4.33-6.47.98-1.6,1.42-3.56,1.55-5.39.25-3.44-.23-7.03-.31-10.48-.17-7.44-1.44-17.68,6.46-22.2,1.55-.82,3.33-1.23,5.1-1.23m0-6h0c-2.79,0-5.52.66-7.9,1.92-.06.03-.12.06-.18.1-10.26,5.86-9.83,17.57-9.55,25.31.03.77.06,1.51.07,2.23.03,1.34.11,2.65.19,3.93.14,2.14.26,4.16.13,5.98-.08,1.14-.33,2.12-.68,2.69-.39.64-.91,1.33-1.47,2.06-1.07,1.42-2.28,3.02-3.21,5.06-1.43,3.14-2.06,6.61-1.82,10.02.14,2,.62,3.89,1.44,5.6,2.94,6.18,9.75,9.72,18.69,9.72,1.27,0,2.56-.08,3.82-.22,11.05-1.31,18.39-8.68,19.63-19.72.18-1.59.3-3.25.36-4.96.32-8.52-.84-16.98-1.96-25.17l-.31-2.3c-.34-2.51-.68-5.07-1.21-7.66l-.02-.09c-.51-2.51-1.14-5.64-3.37-8.55-2.86-3.73-7.59-5.95-12.66-5.95h0Z"/>
          </g>
          <path class="cls-14" d="m121.67,357.55l.32,4.16"/>
          <path class="cls-14" d="m129.09,355.66l.66,5.42"/>
          <g>
            <path class="cls-10" d="m147.37,446.22c-.94,0-3.79,0-5.53-2.16-.94-1.16-1.14-2.68-.52-3.96.34-.71.83-1.15,1.07-1.37.49-.44,1.05-.88,1.82-1.18.06-.02.21-.08.27-.09.68-.23,1.33-.25,1.76-.26h.24c.19-.02.56-.14.74-.2.55-.18,1.14-.44,1.76-.72.37-.17.73-.33,1.1-.48,1.58-.66,2.99-.98,4.31-.98,1.17,0,2.26.26,3.24.76.73.37,1.27.9,1.62,1.55.55,1.06.66,2.25.31,3.36-.47,1.48-1.66,2.71-3.65,3.74-2.2,1.14-4.67,1.82-7.15,1.95-.42.02-.89.05-1.38.05Z"/>
            <path class="cls-8" d="m154.39,437.81c.64,0,1.27.12,1.87.43.13.07.26.15.33.28.73,1.39-1.02,2.51-2.06,3.04-1.83.95-3.87,1.51-5.93,1.62-.37.02-.78.04-1.22.04-1.19,0-2.49-.17-3.19-1.04-.18-.22-.29-.5-.16-.77.08-.17.23-.31.37-.44.27-.25.56-.49.9-.62.03-.01.06-.02.09-.03.42-.14.87-.11,1.3-.14.5-.03.97-.17,1.45-.32,1.07-.34,2.07-.86,3.11-1.29.97-.4,2.07-.75,3.15-.75m0-6h0c-1.72,0-3.51.4-5.46,1.21-.4.17-.79.34-1.18.52-.54.24-1.06.48-1.44.6-.06.02-.12.04-.19.06-.53.02-1.5.06-2.6.42-.14.04-.26.09-.38.14-1.24.48-2.12,1.19-2.74,1.75-.5.44-1.23,1.17-1.77,2.3-1.12,2.34-.77,5.07.9,7.14,1.75,2.17,4.4,3.27,7.86,3.27.59,0,1.12-.03,1.53-.05,2.91-.16,5.8-.95,8.38-2.28,2.69-1.4,4.42-3.25,5.13-5.5.59-1.88.41-3.88-.51-5.65-.63-1.21-1.61-2.17-2.9-2.84-1.41-.72-2.96-1.09-4.61-1.09h0Z"/>
          </g>
          <g>
            <path class="cls-10" d="m143.67,444.44c-.34,0-.68,0-1.02-.02-1.29-.05-2.97-.25-4.39-1.35-1.08-.83-1.79-2.07-1.94-3.42-.15-1.22.19-2.4.93-3.32,1.32-1.63,3.18-1.8,4.18-1.89,0,0,.79-.08,1.03-.1,2.03-.2,3.96-.53,5.74-1,.94-.25,1.88-.54,2.77-.87.28-.1.57-.2.87-.29.31-.1.6-.19.79-.28.11-.05.34-.22.53-.35.3-.21.6-.42.92-.61.67-.39,1.32-.63,1.98-.73.3-.04.58-.07.84-.07,1.78,0,3.31.92,4.09,2.47.9,1.79.66,4.15-.61,5.87-2.43,3.3-6.34,4.48-9.47,5.13-2.68.56-5.05.83-7.24.83Z"/>
            <path class="cls-8" d="m156.9,433.14c1.85,0,2.01,2.28,1.07,3.55-1.75,2.37-4.79,3.37-7.68,3.98-2.18.46-4.4.77-6.63.77-.3,0-.6,0-.9-.02-.94-.04-1.94-.15-2.68-.73-.75-.57-1.1-1.75-.51-2.48.61-.75,1.64-.72,2.51-.82.22-.02.44-.05.66-.07,2.1-.2,4.18-.55,6.22-1.09,1.03-.27,2.05-.59,3.05-.96.61-.23,1.28-.38,1.87-.65.62-.28,1.13-.75,1.71-1.1.28-.17.59-.3.92-.35.14-.02.27-.03.39-.03m0-6h0c-.43,0-.86.03-1.29.1-1.05.16-2.04.52-3.04,1.1-.47.28-.86.55-1.15.76-.05.03-.09.07-.14.1-.09.03-.23.07-.34.11-.34.11-.68.22-1.01.34-.8.3-1.64.56-2.49.79-1.63.43-3.4.74-5.26.92-.25.02-.51.05-.76.08-.08,0-.17.02-.25.02-1.24.11-4.13.37-6.25,2.99-1.26,1.56-1.82,3.53-1.58,5.56.25,2.14,1.38,4.13,3.1,5.45,2.12,1.63,4.5,1.91,6.1,1.97.38.01.75.02,1.13.02,2.41,0,4.98-.29,7.86-.9,3.37-.71,8.21-2.13,11.27-6.29,1.92-2.61,2.27-6.23.87-9-1.28-2.54-3.88-4.11-6.77-4.11h0Z"/>
          </g>
        </g>
      </g>
      <g>
        <path class="cls-6" d="m355,553.03c-31.42,14.01-62.82,28.07-94.2,42.17,4.99,4.6,12.07,5.98,18.75,7.16,45.91,8.13,78.84,19.42,124.75,27.54,5.21.92,24.93,9.8,30.19,9.16,4.88-.59,9.48-2.5,13.99-4.46,26.45-11.51,50.43-36.5,74.41-52.54-53.04-9.17-106.08-18.34-159.12-27.51"/>
        <path class="cls-13" d="m355,545.73c-31.42,14.01-62.82,28.07-94.2,42.17,4.99,4.6,12.07,5.98,18.75,7.16,45.91,8.13,93.25,27.37,139.16,35.5,5.21.92,10.52,1.85,15.77,1.21,4.88-.59,9.48-2.5,13.99-4.46,26.45-11.51,50.43-36.5,74.41-52.54-53.04-9.17-106.08-18.34-159.12-27.51"/>
        <path class="cls-13" d="m355,538.43c-31.42,14.01-62.82,28.07-94.2,42.17,4.99,4.6,12.07,5.98,18.75,7.16,45.91,8.13,93.25,27.37,139.16,35.5,5.21.92,10.52,1.85,15.77,1.21,4.88-.59,9.48-2.5,13.99-4.46,26.45-11.51,50.43-36.5,74.41-52.54-53.04-9.17-106.08-18.34-159.12-27.51"/>
        <path class="cls-13" d="m355,531.12c-31.42,14.01-62.82,28.07-94.2,42.17,4.99,4.6,12.07,5.98,18.75,7.16,45.91,8.13,93.25,27.37,139.16,35.5,5.21.92,10.52,1.85,15.77,1.21,4.88-.59,9.48-2.5,13.99-4.46,26.45-11.51,50.43-36.5,74.41-52.54-53.04-9.17-106.08-18.34-159.12-27.51"/>
        <path class="cls-13" d="m355,523.82c-31.42,14.01-62.82,28.07-94.2,42.17,4.99,4.6,12.07,5.98,18.75,7.16,45.91,8.13,93.25,27.37,139.16,35.5,5.21.92,10.52,1.85,15.77,1.21,4.88-.59,9.48-2.5,13.99-4.46,26.45-11.51,50.43-36.5,74.41-52.54-53.04-9.17-106.08-18.34-159.12-27.51"/>
        <path class="cls-13" d="m355,516.52c-31.42,14.01-62.82,28.07-94.2,42.17,4.99,4.6,12.07,5.98,18.75,7.16,45.91,8.13,93.25,27.37,139.16,35.5,5.21.92,10.52,1.85,15.77,1.21,4.88-.59,9.48-2.5,13.99-4.46,26.45-11.51,50.43-36.5,74.41-52.54-53.04-9.17-106.08-18.34-159.12-27.51"/>
        <path class="cls-6" d="m256.21,553.81c-6.67,10.72-8.46,24.35-4.78,36.42.64,2.1,1.49,4.24,3.15,5.69,1.62,1.41,3.79,1.98,5.88,2.49,45.68,11.34,91.36,22.68,137.04,34.01,9.98,2.48,20,4.96,30.19,6.32,2.52.33,4.8-1.55,4.96-4.09l2.46-38.97"/>
        <path class="cls-6" d="m355,510.7c-31.42,14.01-65.18,27.59-96.56,41.69,4.99,4.6,14.43,6.45,21.11,7.64,45.91,8.13,91.05,23.53,136.96,31.66,5.21.92,18.27,4.03,18.27,4.03,0,0,7.14-4.99,11.49-7.28,42.39-22.25,50.08-34.78,74.06-50.82-53.04-9.17-109.05-17.75-162.09-26.93"/>
      </g>
      <g>
        <path class="cls-4" d="m474.79,538.12c-33.15,9.2-66.29,18.45-99.41,27.74,4.25,5.29,11.05,7.7,17.48,9.86,44.2,14.85,75.09,30.89,119.29,45.74,5.02,1.69,23.2,13.39,28.49,13.54,4.91.14,9.75-1.07,14.5-2.34,27.86-7.46,55.29-28.62,81.38-40.93-51.09-16.93-102.19-33.87-153.28-50.8"/>
        <path class="cls-13" d="m475.87,530.9c-33.15,9.2-66.29,18.45-99.41,27.74,4.25,5.29,11.05,7.7,17.48,9.86,44.2,14.85,88.17,40.89,132.36,55.74,5.02,1.69,10.13,3.39,15.42,3.54,4.91.14,9.75-1.07,14.5-2.34,27.86-7.46,55.29-28.62,81.38-40.93-51.09-16.93-102.19-33.87-153.28-50.8"/>
        <path class="cls-13" d="m476.95,523.68c-33.15,9.2-66.29,18.45-99.41,27.74,4.25,5.29,11.05,7.7,17.48,9.86,44.2,14.85,88.17,40.89,132.36,55.74,5.02,1.69,10.13,3.39,15.42,3.54,4.91.14,9.75-1.07,14.5-2.34,27.86-7.46,55.29-28.62,81.38-40.93-51.09-16.93-102.19-33.87-153.28-50.8"/>
        <path class="cls-13" d="m478.04,516.46c-33.15,9.2-66.29,18.45-99.41,27.74,4.25,5.29,11.05,7.7,17.48,9.86,44.2,14.85,88.17,40.89,132.36,55.74,5.02,1.69,10.13,3.39,15.42,3.54,4.91.14,9.75-1.07,14.5-2.34,27.86-7.46,55.29-28.62,81.38-40.93-51.09-16.93-102.19-33.87-153.28-50.8"/>
        <path class="cls-13" d="m479.12,509.23c-33.15,9.2-66.29,18.45-99.41,27.74,4.25,5.29,11.05,7.7,17.48,9.86,44.2,14.85,88.17,40.89,132.36,55.74,5.02,1.69,10.13,3.39,15.42,3.54,4.91.14,9.75-1.07,14.5-2.34,27.86-7.46,55.29-28.62,81.38-40.93-51.09-16.93-102.19-33.87-153.28-50.8"/>
        <path class="cls-13" d="m480.2,502.01c-33.15,9.2-66.29,18.45-99.41,27.74,4.25,5.29,11.05,7.7,17.48,9.86,44.2,14.85,88.17,40.89,132.36,55.74,5.02,1.69,10.13,3.39,15.42,3.54,4.91.14,9.75-1.07,14.5-2.34,27.86-7.46,55.29-28.62,81.38-40.93-51.09-16.93-102.19-33.87-153.28-50.8"/>
        <path class="cls-4" d="m376.97,524.25c-8.18,9.61-11.97,22.82-10.13,35.31.32,2.17.85,4.42,2.27,6.09,1.39,1.64,3.46,2.52,5.45,3.34,43.49,17.99,86.99,35.97,130.48,53.96,9.5,3.93,19.05,7.87,28.92,10.72,2.44.71,4.97-.82,5.51-3.31l8.21-38.18"/>
        <path class="cls-4" d="m481.06,496.26c-33.15,9.2-68.55,17.62-101.67,26.91,4.25,5.29,13.31,8.52,19.74,10.68,44.2,14.85,86.55,36.77,130.75,51.62,5.02,1.69,17.47,6.69,17.47,6.69,0,0,7.8-3.88,12.44-5.49,45.22-15.72,54.69-26.97,80.78-39.27-51.09-16.93-105.21-33.73-156.31-50.66"/>
      </g>
    </g>
  </g>
</svg>