<?xml version="1.0" encoding="UTF-8"?>
<svg id="_레이어_2" data-name="레이어 2" xmlns="http://www.w3.org/2000/svg" viewBox="0 0 335.86 691.26">
  <defs>
    <style>
      .cls-1 {
        fill: #f3f0d3;
      }

      .cls-1, .cls-2, .cls-3, .cls-4, .cls-5, .cls-6 {
        stroke: #231815;
        stroke-linejoin: round;
        stroke-width: 6px;
      }

      .cls-2, .cls-4 {
        fill: #534844;
      }

      .cls-3 {
        fill: #c49c62;
      }

      .cls-3, .cls-4, .cls-5, .cls-6 {
        stroke-linecap: round;
      }

      .cls-5 {
        fill: #ffe465;
      }

      .cls-6 {
        fill: none;
      }
    </style>
  </defs>
  <g id="_레이어_3" data-name="레이어 3">
    <g>
      <path class="cls-4" d="m86.61,524.06c-10.49.31-20.97,1.36-31.28,3.36-5.22,1.01-10.38,2.27-15.48,3.78-3.12.93-6.48,1.48-9.51,2.64-3.16,1.21-5.85,3.38-8.86,4.88-1.47.73-3.04,1.31-4.68,1.46-11.12.95-11.51-11.6-6.1-18,9.48-11.23,24.93-15.19,39.48-17.25,12.48-1.76,25.15-2.59,37.68-1.26,4.67.49,9.57,1.41,13.1,4.51,3.52,3.1,4.91,9.06,1.72,12.51-3.27,3.54-8.39,3.07-12.75,3.27-1.1.05-2.21.09-3.32.12Z"/>
      <ellipse class="cls-2" cx="167.93" cy="443.8" rx="160.62" ry="62.43"/>
      <path class="cls-3" d="m305.41,429.35c-6.62-4.2-14.36-6.45-21.75-8.37-6.49-1.68-11.29-2.18-16.94-6.42-5.4-4.05-9.1-10.78-16.29-13.48-7.49-2.81-15.6.68-23.05,3.84-7.44,3.16-16.71,7-24.69,5.32-9.53-2-12.86-10.09-22.69-11.71-9.83-1.63-13.76,6.43-23.59,11.13-11.38,5.43-18.93-3.91-28.7-8.25-9.77-4.34-17.51.43-25.18,4.89-8.58,4.99-16.9,12.31-26.46,11.35-6.2-.62-8.82-5.16-14.56-3.96-7.75,1.62-10.41,9.95-16.7,13.53-6.99,3.98-15.03-.17-21.93,3.6-5.95,3.25-6.6,10.55-5.24,16.41,3.84,16.49,12.34,29.14,25.34,39.66l209.87,65.81c17.97-14.78,36.76-29.71,49.74-49.18,8.82-13.23,13.64-24.55,15.1-41.6,1.05-12.34.8-24.29-12.28-32.58Z"/>
      <path class="cls-2" d="m213.12,487.85h-90.4l-109.05-32.81s0,.14.01.4c.08,2.48.56,16.28,2.33,35.86.4,4.44.87,9.17,1.42,14.14.62,5.65,1.34,11.61,2.18,17.77.22,1.61.44,3.22.67,4.85.22,1.51.44,3.03.67,4.57.76,5.06,1.6,10.22,2.52,15.44.29,1.65.6,3.3.91,4.96.71,3.81,1.47,7.64,2.27,11.47.03.16.07.31.1.47,1.13,5.35,2.36,10.7,3.69,16,.64,2.56,1.31,5.11,2.01,7.65.04.16.09.33.13.49.25.9.5,1.79.75,2.68.13.45.25.9.38,1.35.1.35.21.7.31,1.05.68,2.32,1.37,4.63,2.09,6.91.08.24.15.47.23.71,1.18,3.7,2.41,7.34,3.72,10.9.19.52.39,1.02.58,1.54.28.74.55,1.49.83,2.22.04.1.08.21.12.31,2.84,7.34,5.96,14.31,9.39,20.73.91,1.71,1.86,3.36,2.82,4.99.26.44.51.89.78,1.32.09.14.17.28.26.42.53.87,1.07,1.74,1.62,2.59,1.02,1.58,2.08,3.11,3.15,4.59.26.36.51.73.78,1.08h0s0,0,0,0c8.96,14.01,30.37,21.35,44.97,25.99,20.64,6.55,41.6,9.77,62.55,9.75,20.95.02,41.91-3.2,62.55-9.75,14.61-4.63,36.01-11.98,44.97-25.99h0s0,0,0,0c.65-.88,1.3-1.78,1.94-2.7.02-.03.04-.05.06-.08,9.05-13.08,16.28-29.79,22.05-47.91.08-.24.15-.47.23-.71,1.19-3.75,2.31-7.56,3.37-11.41.05-.2.11-.39.17-.59,2.18-7.94,4.12-16.05,5.83-24.15.03-.16.07-.31.1-.47,1.14-5.39,2.17-10.78,3.12-16.11.02-.11.04-.21.06-.32,1.19-6.73,2.24-13.37,3.17-19.82,0-.06.02-.12.03-.19.23-1.63.46-3.25.67-4.85.84-6.16,1.56-12.12,2.18-17.77.55-4.97,1.01-9.7,1.42-14.14,1.78-19.59,2.26-33.38,2.33-35.86,0-.27.01-.4.01-.4l-109.05,32.81Z"/>
      <path class="cls-2" d="m332.85,438.75c0-.23,0-.46,0-.69-.13-7.93-2.44-15.81-7.07-22.88-2.18-3.47-4.84-6.71-7.95-9.6-31.09-28.87-84.84-29.23-127.03-30.27-10.26-.46-20.55-.66-30.84-.58-32.36-.23-64.88,1.26-96.1,9.1-22.21,5.58-44.47,15.66-54.84,32.99-.17.29-.35.57-.52.86-.05.08-.09.16-.14.25-3.6,6.34-5.33,13.3-5.37,20.27,0,.03,0,.07,0,.1,0,.22,0,.44,0,.67,0,.23,0,.46,0,.69.13,7.92,2.44,15.81,7.07,22.88,2.18,3.47,4.84,6.71,7.95,9.6,31.09,28.88,84.85,29.24,127.03,30.27,10.26.46,20.55.66,30.83.58,32.36.23,64.88-1.26,96.1-9.1,22.21-5.58,44.47-15.66,54.84-32.99.17-.29.35-.57.52-.86.05-.08.09-.16.14-.25,3.6-6.34,5.33-13.3,5.37-20.27,0-.03,0-.07,0-.1,0-.22,0-.44,0-.66Zm-23.22-8.53c-.03,4.83-1.52,9.64-4.61,14.03-.04.06-.08.11-.12.17-.14.2-.3.4-.45.6-8.91,12-28.03,18.97-47.12,22.84-26.83,5.43-54.77,6.46-82.57,6.3-8.84.05-17.68-.09-26.49-.4-36.24-.72-82.43-.96-109.14-20.95-2.67-2-4.96-4.24-6.83-6.65-3.98-4.89-5.96-10.35-6.07-15.84,0-.16,0-.32,0-.48,0-.15,0-.31,0-.46,0-.02,0-.05,0-.07.03-4.83,1.52-9.64,4.61-14.03.04-.06.08-.11.12-.17.14-.2.3-.4.45-.6,8.91-12,28.03-18.97,47.12-22.84,26.83-5.43,54.77-6.46,82.57-6.3,8.84-.05,17.68.09,26.5.4,36.24.71,82.43.96,109.14,20.95,2.67,2,4.96,4.24,6.83,6.65,3.98,4.89,5.96,10.35,6.07,15.84,0,.16,0,.32,0,.48,0,.15,0,.31,0,.46,0,.02,0,.05,0,.07Z"/>
      <path class="cls-1" d="m169.45,365.98c.17,21.6-.76,43.13-2.11,63.85-.32,5-5.77,12.54,3.77,15,7.21,1.85,19.63-.42,24.33-4.82,3.57-3.34,2.41-8.1,2.57-12,.2-4.95.78-9.9,1.06-14.85,3.7-65.44,6.16-131.33-18.14-193.5-.85-2.16-1.79-4.42-3.61-5.87-3.9-3.11-34.78,4.43-35.65,1.75,6.49,20.2,13.88,40.18,18.6,60.9,6.52,28.61,8.94,59.14,9.18,89.54Z"/>
      <path class="cls-5" d="m213.59,186.33c-.24,6.38-.69,12.72-1.4,19-3.82,33.96-25,56.65-60.59,60.86-24.52,2.9-57.58-1.7-69.04-25.77-2.17-4.55-3.32-9.49-3.66-14.47-.69-10.11,1.19-20.63,5.47-30.05,4.56-10.04,12.5-17.9,18.24-27.26,4.13-6.72,5.98-15,6.55-22.72,1.07-14.51-.97-29.62-1.3-44.18-.72-31.35-6.08-74.54,27.22-93.57,17.74-9.36,42.49-6.01,54.77,10.01,5.94,7.75,7.71,16.78,9.59,26.06,2.05,10.14,3.44,20.39,4.82,30.63,4.88,36.17,10.73,74.45,9.35,111.46Z"/>
      <path class="cls-6" d="m133.73,135.37c.45,5.84.91,11.69,1.36,17.53"/>
      <path class="cls-6" d="m164.99,127.41c.92,7.61,1.85,15.22,2.77,22.83"/>
      <path class="cls-4" d="m259.85,563.37c2.09-.69,4.32-.55,6.49-.7,2.47-.17,4.85-.86,7.2-1.62,5.33-1.71,10.32-4.3,15.48-6.45,7.72-3.22,17.12-5.68,25.02-1.61.65.34,1.32.75,1.66,1.4,3.62,6.93-5.11,12.49-10.27,15.16-9.14,4.74-19.3,7.51-29.58,8.07-6.8.37-17.22.95-21.99-4.97-.88-1.1-1.43-2.5-.78-3.86.41-.86,1.13-1.53,1.84-2.17,1.36-1.22,2.79-2.43,4.49-3.1.14-.06.29-.11.43-.15Z"/>
      <path class="cls-4" d="m246.74,548.45c10.45-1.01,20.84-2.74,30.99-5.42,5.14-1.35,10.21-2.95,15.19-4.79,3.05-1.13,6.37-1.9,9.32-3.26,3.08-1.41,5.61-3.76,8.52-5.46,1.42-.83,2.95-1.51,4.57-1.76,11.03-1.69,12.25,10.81,7.28,17.56-8.72,11.83-23.87,16.81-38.26,19.82-12.33,2.59-24.93,4.25-37.52,3.75-4.69-.18-9.65-.77-13.37-3.63-3.72-2.86-5.5-8.72-2.54-12.37,3.03-3.75,8.16-3.61,12.51-4.1,1.1-.12,2.2-.24,3.3-.34Z"/>
    </g>
  </g>
</svg>