<?xml version="1.0" encoding="UTF-8"?>
<svg id="_레이어_2" data-name="레이어 2" xmlns="http://www.w3.org/2000/svg" viewBox="0 0 234.88 278.33">
  <defs>
    <style>
      .cls-1 {
        fill: #ec6978;
      }

      .cls-2 {
        fill: #fff;
      }

      .cls-3 {
        fill: #86d41f;
      }

      .cls-4 {
        fill: #cb587d;
      }

      .cls-5 {
        fill: #21f993;
      }

      .cls-6 {
        fill: #080706;
      }
    </style>
  </defs>
  <g id="_레이어_1-2" data-name="레이어 1">
    <g>
      <path class="cls-6" d="m124.86,63.47c2.81-6.53,5.25-12.38,7.83-18.17,3.95-8.87,9.01-17.02,15.3-24.46,6.07-7.19,13.45-12.53,21.93-16.35,8.67-3.91,17.59-5.27,27.29-4.06,7.07.88,13.12,3.83,18.53,7.37,4.62,3.03,7.7,8.52,10.65,13.59,4.34,7.45,5.87,15.65,7.31,23.97,1.02,5.91,1.55,11.8.87,17.73-1.47,12.74-4.12,25.18-8.79,37.23-6.8,17.53-16.69,33.22-27.55,48.38-.63.88-1.16,1.84-1.7,2.71,1.75,1.55,4.06,1.93,6.2,2.4,2.37.52,5.05.96,6.63-2.02.49-.91,1.5-1.88,2.46-2.14,2.38-.65,4.98-2.1,7.27-.01,2.21,2.01.89,4.56.79,7.15.73.61,1.86.11,2.9.2,3.06.27,4.3,2.12,3.44,5.07-.42,1.46-1,2.69.99,4.05,2.64,1.8,1.23,4.78-3.02,6.89,2.24,3.42,1.16,6.25-2.86,7.16-.98.22-1.84.25-2.55,1.16-2.19,2.77-6.1,2.97-8.31.39-1.07-1.25-2.33-1.58-3.81-1.49-8.92.53-17.44-.79-25.2-5.52-1.21-.74-2.16-.63-2.89.43-3.37,4.87-7.5,9.15-11.01,13.94-2.62,3.58-5.76,7.1-8.89,10.44-1.76,1.88-3.34,3.91-5.08,5.8-1.31,1.42-.9,3.19-.59,4.59,1.36,6.28,1.03,12.66,1.34,18.99.13,2.59.46,5.12.83,7.65.4,2.75,2.79,1.6,3.75,1.16,7.05-3.25,14.3-3.69,21.78-2.17,11.8,2.4,15.18,10.39,12.87,20.17-2.65,11.19-10.85,16.47-21.56,18.77-6.49,1.39-13.23,1.49-19.26-.36-5-1.53-10.26-3.79-14.12-8.36-3.85-4.56-6.72-9.17-6.69-15.28.04-8.1-.07-16.2.06-24.3.04-2.7.07-4.94-3.84-4.27.73,6.35-.76,12.83-.71,19.41.03,3.64-1.15,7.15-1.8,10.71-1.74,9.56-8.59,15.38-15.57,20.83-8.7,6.79-26.04,7.27-35.23,1.32-3.79-2.45-6.71-6.01-8.4-10.28-3.59-9.07-2.02-15.76,5.22-22.69,3.13-2.99,7.26-3.62,11.21-3.3,5.18.42,10.41,1.31,15.07,3.91,1.82,1.01,2.25.84,2.78-1.32,1.41-5.8,2.32-11.63,2.95-17.57.35-3.23.31-6.53,1.25-9.76,1.23-4.21-.51-7.77-3.81-10.41-5.55-4.45-11.26-8.7-16.85-13.1-3.01-2.37-6.1-4.69-8.8-7.38-1.49-1.49-2.39-1.63-4-.43-6.74,5.05-14.79,7.3-22.45,10.41-1.82.74-3.67,1.65-4.73,3.83-1.24,2.55-3.5,4.45-6.44,5.01-.99.19-2.56.65-3.12-.48-1.92-3.96-8.33-2.21-8.93-5.77-.53-3.18-2.29-5.51-2.94-8.38-.22-.97.23-2.23.72-3.18.63-1.23.49-2.02-.25-3.21-2.19-3.52-.76-6.07,3.52-6.61.61-.08,1.23-.07,2.12-.12-.27-.72-.51-1.23-.66-1.76-.62-2.14-.56-4.15,1.12-5.88,1.86-1.92,4.13-1.3,5.73-.22,5.81,3.95,9.86-.63,14.37-2.71,1.6-.74.24-2.06-.46-2.54-7.25-4.94-12.68-11.82-18.71-17.98-8.74-8.92-15.77-19.24-20.87-30.8-4.47-10.13-7.19-20.74-9.01-31.58-.69-4.13-.26-8.44-.4-12.67-.39-11.94,1.36-23.47,6.59-34.3,3.85-7.97,9.63-14.26,16.73-19.56,9.39-7,20.01-10.84,31.45-11.22,9.3-.3,18.57,1.28,27.4,5.08,13.47,5.81,22.56,15.88,29.56,28.35,4.88,8.7,8.7,17.88,13.09,27.88Zm106.48-6.56c.32-5.43-.09-11.34-1.21-17.19-1.11-5.8-3.47-11.11-6.08-16.42-4.22-8.56-10.53-14.84-19.31-17.99-17.05-6.13-32.63-1.39-46.2,9.13-11.94,9.25-19.16,22.37-25.18,36.12-2.38,5.44-3.17,11.47-6.42,16.56-.54.84-.93,1.74-2.11,1.75-1.2.01-1.28-1.12-1.58-1.8-2.39-5.32-4.74-10.66-7.01-16.03-4.44-10.49-9.56-20.61-17.43-28.98-11.46-12.18-25.76-17.5-42.4-16.87-16.33.62-30.06,6.29-40.6,19.36-7.39,9.16-10.85,19.63-12.42,30.97-1.65,11.9-.07,23.67,2.41,35.24,2.6,12.12,7.51,23.4,14.31,33.85,8.01,12.29,18.43,22.37,29.14,32.18,4.35,3.98,4.63,3.86,8.38-.92.92-1.18,1.95-1.46,2.75-.92,1.31.89.23,1.94-.47,2.75-4.15,4.74-9.03,8.56-14.87,10.94-3.47,1.41-7.06,2.81-10.64-.19-.69-.58-2.19-1.9-3.19-.42-.91,1.35-.41,2.89.8,4.04.54.51,1.19.92,1.69,1.47.62.68,1.84,1.27,1.03,2.43-.66.95-1.79,1.38-2.92.86-1.56-.72-3.15-.56-4.76-.47-.59.03-1.32.14-1.38.93-.05.64.2,1.19.86,1.5,1.57.75,3.16,1.41,4.95,1.41.89,0,1.92.05,1.93,1.2,0,.98-.86,1.46-1.77,1.65-1.45.31-2.94.45-4.34.9-1.37.44-2.02,1.67-1.42,2.98.61,1.34,2.02.98,2.84.32.95-.76,1.84-1.23,3.02-1.06.78.11,1.87-.45,2.2.72.32,1.13-.33,1.83-1.36,2.29-1,.44-2.02.91-2.91,1.55-.99.71-2.25,1.63-1.27,3.02.76,1.08,1.95.78,2.98.03.48-.35,1.14-.5,1.51-.93.97-1.12,2.25-2.08,3.54-1.31,1.76,1.04-.1,2.37-.24,3.58-.11.92-1.12,1.93.02,2.7.87.6,1.92.31,2.83-.21,1.2-.68,2.16-1.46,2.68-2.91.62-1.72,1.9-3.22,3.6-3.92,9.94-4.12,20.58-6.92,28.22-15.27.73-.79,1.6-.64,2.4-.4.69.2.95,1.06.61,1.52-1.63,2.14.35,2.82,1.47,3.76,2.94,2.47,5.93,4.88,8.93,7.28,6.76,5.43,13.55,10.83,20.31,16.26.65.52,1.5.96,1.37,2.05-1.08,9.02-2.4,18.02-3.12,27.07-.36,4.58-4.02,9.09-.55,13.85.39.53-.07,1.15-.55,1.62-.62.6-1.14.31-1.59-.13-2.23-2.15-5.13-3.24-7.77-4.62-6.45-3.38-13.51-4.43-20.19-1.28-7.59,3.58-9.33,14.97-4.3,23.24,4.23,6.96,11.43,8.24,18.42,9.29,7.72,1.16,14.73-1.77,21.08-5.97,5.94-3.94,10.18-9.28,12.27-16.28,2.68-8.94,2.95-18.09,2.95-27.31,0-2.21-.87-4.78.49-6.54,1.45-1.87,3.62.96,5.55.15.11-.04.25.01.37,0,2.54-.41,3.5.5,3.37,3.21-.31,6.47-.17,12.96-.53,19.42-.26,4.79.32,9.52,1.39,14.04,1.31,5.51,5.34,9.4,10.35,12.1,7.05,3.81,14.36,4.67,22.45,3.86,10.02-1,17.12-5.23,21.49-14.13,3.1-6.33.15-15.89-5.99-17.9-11.05-3.61-21.64-3.02-30.73,5.4-.85.78-1.7,2.28-3.04.94-1.22-1.23.32-2.17.82-3.13.38-.73,1.14-1.24,2.05-1.5.55-.16,1.06-.59.31-1.3-2.75-2.61-1.81-6.28-2.01-9.31-.47-7.14-.52-14.29-1.62-21.4-.28-1.83-.25-3.62,1.29-5.42,7.15-8.36,14.23-16.8,20.98-25.48,9.26-11.89,18.85-23.54,27.14-36.17,8.29-12.64,16.67-25.2,22.37-39.33,5.89-14.63,10.29-29.54,9.63-46.07Zm-15.09,123.69c-.4-1.5-1.56-2.2-2.7-2.94-.83-.54-1.2-1.49-.71-2.26.56-.88,1.41-.43,2.28-.02,1.54.74,3.05,1.64,4.84,1.74,1.06.06,2.3-.29,2.43-1.22.14-1.02-.97-1.62-2.08-1.65-.99-.03-1.99,0-2.98-.04-1.13-.05-2.09-.72-2.1-1.73-.01-1.27,1.23-1.28,2.22-1.27,2.13.02,4.22-.28,6.15-1.18.63-.29,2.05-.22,1.5-1.55-.37-.9-1.41-1.25-2.22-.78-1.66.95-3.4.39-5.09.54-1.15.11-2.51.05-2.7-1.29-.19-1.38,1.03-1.58,2.25-1.8,2.04-.37,4.02-1.1,5.66-2.46.59-.49,1.01-1.15.8-1.96-.27-1.04-1.18-.64-1.84-.7-2.15-.21-4.18.43-6.22.97-.82.22-1.71.75-2.17-.46-.4-1.03.26-1.59,1.06-2.08.63-.38,1.44-.7,1.78-1.28.86-1.43,1.62-3.17.85-4.7-.73-1.43-2.51-.7-3.77-.55-.68.08-1.43.93-1.86,1.61-2.27,3.6-5.34,4.21-9.16,2.82-1.96-.71-4.08-1-6-1.81-1.42-.6-1.85-.41-2.81.91-3.57,4.89-7.33,9.65-11.29,14.23-1.6,1.84-.39,2.24.8,2.82,7.29,3.56,14.94,5.32,23.09,4.67,2.19-.17,4.3-.53,5.63,2.22.5,1.03,2.48,1.96,4.34,1.17Z"/>
      <path class="cls-1" d="m231.34,56.91c.67,16.52-3.73,31.44-9.63,46.07-5.69,14.13-14.08,26.69-22.37,39.33-8.28,12.63-17.88,24.28-27.14,36.17-6.76,8.68-13.83,17.12-20.98,25.48-1.54,1.8-1.58,3.59-1.29,5.42,1.1,7.1,1.15,14.26,1.62,21.4.2,3.03-.74,6.71,2.01,9.31.75.71.24,1.14-.31,1.3-.9.26-1.67.77-2.05,1.5-.5.96-2.04,1.9-.82,3.13,1.34,1.35,2.19-.15,3.04-.94,9.08-8.41,19.67-9.01,30.73-5.4,6.14,2.01,9.1,11.57,5.99,17.9-4.37,8.91-11.47,13.13-21.49,14.13-8.09.81-15.4-.05-22.45-3.86-5.01-2.7-9.04-6.59-10.35-12.1-1.07-4.52-1.66-9.26-1.39-14.04.36-6.46.21-12.96.53-19.42.13-2.71-.83-3.62-3.37-3.21-.12.02-.27-.04-.37,0-1.93.81-4.1-2.02-5.55-.15-1.36,1.76-.49,4.34-.49,6.54,0,9.21-.27,18.37-2.95,27.31-2.09,7-6.33,12.34-12.27,16.28-6.34,4.21-13.36,7.13-21.08,5.97-6.99-1.05-14.19-2.34-18.42-9.29-5.03-8.27-3.3-19.66,4.3-23.24,6.68-3.15,13.74-2.09,20.19,1.28,2.64,1.38,5.54,2.47,7.77,4.62.45.44.97.74,1.59.13.48-.47.94-1.09.55-1.62-3.47-4.76.19-9.27.55-13.85.72-9.05,2.04-18.05,3.12-27.07.13-1.08-.72-1.53-1.37-2.05-6.76-5.43-13.54-10.83-20.31-16.26-3-2.4-5.99-4.82-8.93-7.28-1.12-.94-3.1-1.61-1.47-3.76.35-.46.09-1.32-.61-1.52-.81-.23-1.68-.39-2.4.4-7.65,8.35-18.28,11.15-28.22,15.27-1.7.7-2.98,2.2-3.6,3.92-.52,1.45-1.48,2.22-2.68,2.91-.91.52-1.96.8-2.83.21-1.14-.78-.13-1.78-.02-2.7.15-1.21,2.01-2.54.24-3.58-1.29-.76-2.56.19-3.54,1.31-.37.42-1.03.58-1.51.93-1.02.74-2.22,1.05-2.98-.03-.99-1.4.28-2.31,1.27-3.02.88-.64,1.9-1.1,2.91-1.55,1.04-.46,1.68-1.17,1.36-2.29-.33-1.17-1.43-.61-2.2-.72-1.18-.17-2.07.3-3.02,1.06-.83.66-2.23,1.02-2.84-.32-.6-1.31.05-2.53,1.42-2.98,1.4-.45,2.9-.59,4.34-.9.9-.2,1.77-.67,1.77-1.65,0-1.15-1.04-1.2-1.93-1.2-1.79,0-3.37-.66-4.95-1.41-.65-.31-.91-.86-.86-1.5.06-.8.79-.9,1.38-.93,1.6-.09,3.2-.25,4.76.47,1.13.52,2.26.09,2.92-.86.81-1.16-.42-1.75-1.03-2.43-.5-.55-1.15-.96-1.69-1.47-1.21-1.16-1.71-2.69-.8-4.04.99-1.48,2.49-.16,3.19.42,3.57,3,7.16,1.61,10.64.19,5.85-2.38,10.72-6.2,14.87-10.94.71-.81,1.78-1.86.47-2.75-.79-.54-1.82-.26-2.75.92-3.75,4.79-4.03,4.9-8.38.92-10.71-9.8-21.13-19.88-29.14-32.18-6.81-10.45-11.71-21.73-14.31-33.85-2.48-11.58-4.06-23.34-2.41-35.24,1.57-11.34,5.03-21.8,12.42-30.97C26.33,11.49,40.05,5.82,56.39,5.2c16.64-.63,30.94,4.69,42.4,16.87,7.87,8.37,13,18.48,17.43,28.98,2.27,5.37,4.62,10.71,7.01,16.03.31.68.38,1.81,1.58,1.8,1.18-.01,1.57-.91,2.11-1.75,3.26-5.08,4.04-11.11,6.42-16.56,6.02-13.75,13.24-26.87,25.18-36.12,13.58-10.52,29.15-15.26,46.2-9.13,8.78,3.16,15.09,9.43,19.31,17.99,2.62,5.31,4.97,10.62,6.08,16.42,1.12,5.84,1.52,11.76,1.21,17.19Zm-100.03,90.62c-2.98-6.24-7.48-10.54-14.01-11.95-3.51-.75-5.33-1.98-4.82-5.71.13-.96-.48-1.26-1.36-1.29-1.05-.04-1.7.24-1.62,1.43.05.87-.21,1.89.17,2.57,1.06,1.88-.07,1.72-1.39,2.21-3.99,1.47-6.2.13-7.41-3.78-.38-1.22-1.23-3.07-2.81-2.2-1.41.77-.52,2.58.27,3.57,2.34,2.94,1.56,4.68-1.81,5.75-.78.25-1.49.69-2.25,1.05-.53-1.29-.83-2.53-1.5-3.52-.95-1.39-1.14-4.68-3.29-3.54-2.46,1.3.07,3.26.95,4.84,1.1,1.97,1.86,3.7-1.71,3.65-1.81-.02-3.62.7-5.43.72-1.4.02-1.87,1.03-1.89,1.78-.02.84,1.11,1.18,1.99,1.19,1.47.02,2.89-.26,4.34-.53,1.9-.35,3.97-1.26,4.86,2.7,1.22,5.44,3.39,11.1,8.87,14.25,8.84,5.08,18.04,6.07,27.69,2.55.91-.33,1.58-1.05,2.99-.59,6,1.96,12.3,2.01,18.3.53,9.56-2.36,15.66-10.75,16.57-21.86.18-2.23.83-3.13,3.09-3.08.99.02,2.87.95,2.85-1.16-.02-1.77-1.7-.96-2.64-1.02-4.83-.33-5.16-.76-3.12-5.04.47-1,.48-1.66-.44-2.16-.83-.45-1.67-.45-2.22.55-.6,1.07-1.25,2.11-1.86,3.17-1.17,2.03-3.34,1.65-4.61.99-1.92-.99.16-2.17.63-3.25.2-.44.48-.86.79-1.24.55-.7,1.14-1.32.26-2.23-1.11-1.17-2.07-.03-2.53.46-1.06,1.15-1.82,2.6-2.61,3.97-1.48,2.55-4.39,3.16-6.3,2.31-2.06-.92.18-3.09.64-4.7.1-.35.32-.66.51-.98.47-.79.87-1.79-.16-2.2-.73-.29-1.95-.68-2.46.75-.82,2.28-2.84,4.16-2.85,6.65,0,1.75-.77,2.34-2.07,3-4.81,2.45-8.99,5.52-10.61,11.38Zm-92.91-59.04c-.68.84-1.26,1.64-1.93,2.36-2.41,2.56-2.59,5.29-.23,7.85,2.68,2.89,7.29,2.28,10.08,5.17.15.16,1.04-.45,1.61-.63,3.17-.98,3.94-3.72,4.92-6.42.64-1.76,1.67-3.28,3.54-.86,1.2,1.54,3.02,2.06,4.8,2.46,4.3.98,6.39-.66,6.43-5.02.01-1.52.3-2.59,1.54-3.81,2.63-2.59,1.81-6.28-1.51-8.03-1.98-1.04-4.13-1.69-6.83-1.71,1.34-1.43,2.34-2.36,3.18-3.42,1.76-2.24,2.11-4.97.94-7.34-1.12-2.26-3.63-2.1-5.92-1.66-.64.12-1.53,1.06-1.9-.57-.75-3.22-3.44-2.5-5.73-2.61-2.36-.11-2.65,1.81-3.46,3.28-1.04,1.89-1.43,3.95-1.28,6.47-2.54-2.51-4.74-3.74-7.42-4.31-4.52-.96-7.31,1.82-5.83,6.04.62,1.76-.64,2.24-1.41,3.04-2.53,2.61-2.26,4.98.59,7.29,1.7,1.38,3.81,1.51,5.83,2.44Zm91.89,90.97c3.26.08,9.5-3.41,10.95-5.98.28-.49.49-1.25.3-1.71-.35-.84-1.35-.71-1.93-.43-.85.42-1.58,1.13-2.3,1.78-4.87,4.38-8.51,4.45-13.38.2-.86-.76-1.68-1.78-2.73-.48-.91,1.11-.13,2.05.67,2.91,2.39,2.54,5.73,2.84,8.43,3.71Z"/>
      <path class="cls-1" d="m216.25,180.6c-1.86.79-3.84-.14-4.34-1.17-1.34-2.75-3.45-2.39-5.63-2.22-8.15.64-15.81-1.11-23.09-4.67-1.19-.58-2.4-.98-.8-2.82,3.96-4.57,7.73-9.34,11.29-14.23.97-1.32,1.39-1.5,2.81-.91,1.92.8,4.04,1.09,6,1.81,3.81,1.39,6.89.78,9.16-2.82.43-.68,1.18-1.53,1.86-1.61,1.26-.15,3.04-.88,3.77.55.78,1.52.01,3.27-.85,4.7-.35.58-1.16.89-1.78,1.28-.8.49-1.46,1.05-1.06,2.08.46,1.21,1.35.68,2.17.46,2.04-.54,4.07-1.18,6.22-.97.66.06,1.57-.34,1.84.7.21.82-.21,1.48-.8,1.96-1.64,1.36-3.62,2.09-5.66,2.46-1.21.22-2.44.41-2.25,1.8.18,1.33,1.55,1.4,2.7,1.29,1.69-.16,3.43.41,5.09-.54.81-.46,1.85-.11,2.22.78.55,1.34-.87,1.26-1.5,1.55-1.93.89-4.02,1.19-6.15,1.18-1,0-2.24,0-2.22,1.27.01,1.02.97,1.69,2.1,1.73.99.04,1.99,0,2.98.04,1.11.04,2.22.63,2.08,1.65-.13.93-1.37,1.27-2.43,1.22-1.78-.1-3.3-1-4.84-1.74-.86-.41-1.71-.86-2.28.02-.49.77-.12,1.72.71,2.26,1.14.74,2.3,1.44,2.7,2.94Z"/>
      <path class="cls-6" d="m131.31,147.53c1.62-5.86,5.8-8.93,10.61-11.38,1.3-.66,2.07-1.25,2.07-3,0-2.49,2.03-4.36,2.85-6.65.51-1.44,1.73-1.04,2.46-.75,1.03.41.63,1.41.16,2.2-.19.32-.41.63-.51.98-.46,1.61-2.69,3.79-.64,4.7,1.91.85,4.82.24,6.3-2.31.8-1.37,1.55-2.82,2.61-3.97.46-.5,1.41-1.63,2.53-.46.87.92.29,1.53-.26,2.23-.3.38-.59.8-.79,1.24-.47,1.07-2.54,2.25-.63,3.25,1.27.66,3.44,1.04,4.61-.99.61-1.06,1.26-2.1,1.86-3.17.56-.99,1.4-1,2.22-.55.91.5.91,1.16.44,2.16-2.04,4.28-1.71,4.71,3.12,5.04.94.06,2.62-.75,2.64,1.02.03,2.1-1.86,1.18-2.85,1.16-2.26-.05-2.91.85-3.09,3.08-.91,11.11-7.01,19.51-16.57,21.86-6,1.48-12.3,1.42-18.3-.53-1.41-.46-2.08.26-2.99.59-9.65,3.52-18.85,2.53-27.69-2.55-5.48-3.15-7.65-8.82-8.87-14.25-.89-3.96-2.95-3.05-4.86-2.7-1.45.27-2.87.55-4.34.53-.88-.01-2.01-.35-1.99-1.19.02-.75.49-1.76,1.89-1.78,1.81-.03,3.62-.74,5.43-.72,3.57.04,2.81-1.68,1.71-3.65-.88-1.58-3.41-3.53-.95-4.84,2.15-1.14,2.35,2.15,3.29,3.54.67.99.97,2.23,1.5,3.52.76-.36,1.47-.8,2.25-1.05,3.36-1.07,4.15-2.8,1.81-5.75-.79-.99-1.68-2.8-.27-3.57,1.57-.86,2.43.98,2.81,2.2,1.2,3.91,3.41,5.25,7.41,3.78,1.32-.49,2.45-.33,1.39-2.21-.38-.67-.12-1.7-.17-2.57-.07-1.19.58-1.47,1.62-1.43.89.03,1.5.33,1.36,1.29-.51,3.73,1.31,4.95,4.82,5.71,6.53,1.4,11.02,5.7,14.01,11.95Zm-3.22,2.89c.1-.02.19-.03.29-.05-.12.04-.23.07-.35.11-.23-5.15-5.29-10.83-10.92-11.95-1.2-.24-3.09-1.19-3.72.94-.56,1.9.14,3.18,2.23,3.87,4.61,1.51,8.8,3.87,12.48,7.07Zm14.82,11.05c3.22.44,6.33-.49,9.26-1.73,2.4-1.01,6.25-2.17,5.67-4.92-.68-3.23-4.43-3.39-7.55-2.68-.95.22-1.79.22-2.28-.67-.56-1.04.27-1.58,1.01-2.05,2.14-1.36,2.83-3.32,2.49-5.77-.21-1.49-.89-1.96-2.27-1.32-6.75,3.11-12.13,7.73-15.45,14.48-1,2.03-.5,3.41,2.13,3.92,2.3.44,4.56.94,6.99.74Zm-27.33-14.75c-5.75-2.9-11.89-3.49-18.05-3.83-1.72-.1-2.27,1.11-2.08,2.78.78,7.11,7.98,14.69,14.97,15.85,2.01.33,2.68-.41,2.85-2.28.28-3.09-.47-5.61-3.26-7.33-.88-.54-2.3-.98-1.74-2.43.46-1.19,1.68-.78,2.63-.71,1.83.13,3.41-.26,4.68-2.04Zm2.8,15.52c2.97.11,5.58-.66,8.18-1.3,3.41-.83,4.18-3.12,1.94-5.8-2-2.4-4.72-3.97-7.13-5.9-3.34-2.68-4.59.83-6.53,1.82-1.67.85.51,1.8.64,2.81.24,1.79,1.59,3.61.71,5.32-1.63,3.18.09,3.26,2.19,3.05Zm45.87-20.68c.94-4.98-2.59-2.54-4.3-2.46-5.38.26-5.72.71-5.52,5.61.01.25.08.53-.02.74-1.23,2.69-.81,4.48,2.55,4.56,1.6.04,2.18,3.36,4.04,1.53,1.14-1.12,1.62-3.02,2.13-4.65.54-1.72.76-3.55,1.11-5.33Zm-28.97,6.71c3.1-2.52,5.47-4.39,7.77-6.33.83-.7,1.14-1.9.42-2.64-.7-.72-1.58.19-2.24.65-2.65,1.85-4.67,4.2-5.95,8.33Zm-27.35-10.46c-.91.43-3.5-.38-3.51,1.49-.01,2.25,2.76,1.12,4.19,1.83,1.27.64,1.66-.26,1.66-1.51,0-1.34-.26-2.23-2.34-1.81Zm44.67-.94c-2.09-.47-3.6-.04-5.08.38-.81.23-1.16,1.01-.93,1.77.35,1.16,1.14.52,1.73.22,1.29-.65,2.87-.71,4.28-2.37Zm-17.08,11.45c-.08-.08-.15-.16-.23-.25-.08.08-.15.16-.23.25.11.08.23.16.34.25.04-.08.08-.16.11-.25Z"/>
      <path class="cls-6" d="m38.4,88.49c-2.02-.94-4.12-1.06-5.83-2.44-2.85-2.31-3.12-4.67-.59-7.29.77-.8,2.03-1.28,1.41-3.04-1.48-4.21,1.31-6.99,5.83-6.04,2.68.57,4.88,1.79,7.42,4.31-.15-2.52.24-4.58,1.28-6.47.81-1.46,1.1-3.38,3.46-3.28,2.3.1,4.99-.61,5.73,2.61.38,1.63,1.26.69,1.9.57,2.29-.45,4.81-.6,5.92,1.66,1.17,2.37.82,5.1-.94,7.34-.83,1.06-1.83,1.99-3.18,3.42,2.7.02,4.85.68,6.83,1.71,3.32,1.74,4.14,5.43,1.51,8.03-1.23,1.22-1.52,2.29-1.54,3.81-.04,4.37-2.13,6-6.43,5.02-1.79-.4-3.61-.92-4.8-2.46-1.88-2.42-2.91-.9-3.54.86-.98,2.7-1.74,5.44-4.92,6.42-.57.18-1.46.79-1.61.63-2.79-2.89-7.4-2.28-10.08-5.17-2.36-2.55-2.19-5.28.23-7.85.67-.71,1.24-1.51,1.93-2.36Zm11.26,2.98c0,.24-.08-.39.02-1,.21-1.24-.96-2.94.73-3.64,1.67-.68,2.27,1.07,3.15,2.03,2.02,2.2,3.94,4.5,6.58,6.01,1.44.83,3.18,1.5,4.51.33,1.4-1.23.38-2.72-.47-4-.83-1.25-.89-2.56.82-2.84,1.52-.25,2.82-.46,2.67-2.29-.16-1.96-1.77-2.68-3.38-2.94-3.22-.51-6.42-.35-9.57.7-5.24,1.74-5.92,1.44-7.79-3.51-1.35-3.58-3.55-6.27-7.16-7.59-1.1-.4-2.57-.7-3.38.63-.66,1.09-.19,2.17.69,3.01,2.23,2.15,2.81,3.71-1.25,3.87-.97.04-2.16.29-2.4,1.42-.29,1.38.98,1.92,1.93,2.41,3.3,1.72,6.74,2.41,10.45,1.31,1.04-.31,2.66-1.21,3.14.6.47,1.78-1.39,1.76-2.42,2.15-2.7,1.01-5.32,2.14-7.42,4.17-1.23,1.2-2.02,2.71-.87,4.33,1.17,1.64,2.57.96,3.88.01,1.71-1.23,3.05-1.49,2.95,1.32-.04,1.16-.16,2.41,1.34,2.62,1.43.21,2.32-.79,2.85-1.98.9-2.02.46-4.16.38-7.12Zm1.28-9.08c4.02-2.05,7.92-3.74,10.53-7.22.97-1.3,2.55-3.01.88-4.61-1.39-1.33-3.11-.16-4.4.75-2.53,1.79-3.8,1.55-3.83-1.83,0-.96.72-2.52-.91-2.77-1.15-.18-1.93.87-2.58,1.85-.7,1.08-.92,2.2-.97,3.48-.12,3.36.2,6.66,1.27,10.34Z"/>
      <path class="cls-6" d="m130.29,179.46c-2.71-.87-6.04-1.17-8.43-3.71-.8-.85-1.58-1.79-.67-2.91,1.06-1.3,1.87-.28,2.73.48,4.87,4.26,8.51,4.18,13.38-.2.72-.65,1.45-1.36,2.3-1.78.59-.29,1.59-.41,1.93.43.19.46-.02,1.22-.3,1.71-1.45,2.57-7.69,6.06-10.95,5.98Z"/>
      <path class="cls-5" d="m142.91,161.47c-2.43.2-4.68-.29-6.99-.74-2.63-.51-3.12-1.89-2.13-3.92,3.31-6.75,8.69-11.36,15.45-14.48,1.38-.64,2.06-.17,2.27,1.32.34,2.45-.34,4.41-2.49,5.77-.74.47-1.57,1.01-1.01,2.05.48.9,1.33.89,2.28.67,3.12-.71,6.87-.55,7.55,2.68.58,2.75-3.27,3.91-5.67,4.92-2.93,1.24-6.04,2.17-9.26,1.73Z"/>
      <path class="cls-5" d="m115.58,146.72c-1.27,1.78-2.86,2.17-4.68,2.04-.95-.07-2.17-.48-2.63.71-.56,1.45.86,1.89,1.74,2.43,2.79,1.72,3.54,4.24,3.26,7.33-.17,1.87-.84,2.62-2.85,2.28-6.99-1.16-14.2-8.74-14.97-15.85-.18-1.67.37-2.87,2.08-2.78,6.16.34,12.3.93,18.05,3.83Z"/>
      <path class="cls-2" d="m118.38,162.24c-2.1.21-3.81.14-2.19-3.05.88-1.71-.47-3.54-.71-5.32-.13-1-2.31-1.95-.64-2.81,1.95-.99,3.19-4.5,6.53-1.82,2.41,1.93,5.13,3.51,7.13,5.9,2.24,2.68,1.47,4.97-1.94,5.8-2.61.63-5.21,1.41-8.18,1.3Z"/>
      <path class="cls-2" d="m164.25,141.55c-.36,1.78-.58,3.6-1.11,5.33-.51,1.63-.99,3.53-2.13,4.65-1.87,1.83-2.45-1.5-4.04-1.53-3.36-.08-3.78-1.86-2.55-4.56.09-.21.03-.49.02-.74-.2-4.9.15-5.36,5.52-5.61,1.71-.08,5.24-2.52,4.3,2.46Z"/>
      <path class="cls-1" d="m128.08,150.43c-3.67-3.22-7.85-5.57-12.47-7.08-2.09-.68-2.78-1.97-2.23-3.87.63-2.13,2.52-1.18,3.72-.94,5.63,1.12,10.7,6.79,10.92,11.95l.05-.05Z"/>
      <path class="cls-1" d="m135.28,148.26c1.29-4.13,3.3-6.48,5.95-8.33.66-.46,1.54-1.37,2.24-.65.72.75.41,1.94-.42,2.64-2.3,1.95-4.67,3.82-7.77,6.33Z"/>
      <path class="cls-1" d="m107.92,137.8c2.08-.41,2.35.47,2.34,1.81,0,1.24-.39,2.14-1.66,1.51-1.42-.71-4.2.42-4.19-1.83,0-1.87,2.6-1.06,3.51-1.49Z"/>
      <path class="cls-4" d="m152.6,136.86c-1.41,1.65-2.99,1.71-4.28,2.37-.59.3-1.39.95-1.73-.22-.23-.76.11-1.53.93-1.77,1.48-.42,2.99-.86,5.08-.38Z"/>
      <path class="cls-1" d="m128.03,150.48c.12-.04.23-.07.35-.11-.1.02-.19.03-.29.05,0,0-.06.06-.06.06Z"/>
      <path class="cls-1" d="m135.52,148.31c-.04.08-.08.16-.11.25-.11-.08-.23-.16-.34-.25.08-.08.15-.16.23-.25.08.08.15.16.23.25Z"/>
      <path class="cls-3" d="m49.66,91.47c.08,2.96.52,5.1-.38,7.12-.53,1.19-1.41,2.19-2.85,1.98-1.49-.22-1.38-1.46-1.34-2.62.1-2.81-1.24-2.55-2.95-1.32-1.32.95-2.72,1.63-3.88-.01-1.15-1.62-.36-3.13.87-4.33,2.09-2.04,4.72-3.16,7.42-4.17,1.03-.39,2.9-.36,2.42-2.15-.48-1.81-2.1-.91-3.14-.6-3.71,1.11-7.14.41-10.45-1.31-.94-.49-2.22-1.03-1.93-2.41.24-1.13,1.43-1.38,2.4-1.42,4.06-.16,3.48-1.72,1.25-3.87-.88-.85-1.35-1.93-.69-3.01.81-1.32,2.28-1.03,3.38-.63,3.61,1.32,5.82,4.01,7.16,7.59,1.86,4.96,2.54,5.25,7.79,3.51,3.16-1.05,6.35-1.21,9.57-.7,1.61.25,3.23.98,3.38,2.94.15,1.83-1.15,2.04-2.67,2.29-1.72.28-1.65,1.59-.82,2.84.85,1.28,1.86,2.77.47,4-1.34,1.17-3.07.5-4.51-.33-2.64-1.51-4.56-3.82-6.58-6.01-.88-.95-1.48-2.71-3.15-2.03-1.7.7-.53,2.4-.73,3.64-.1.61-.02,1.24-.02,1Z"/>
      <path class="cls-3" d="m50.94,82.39c-1.07-3.69-1.39-6.98-1.27-10.34.05-1.28.27-2.4.97-3.48.64-.98,1.43-2.03,2.58-1.85,1.63.25.9,1.81.91,2.77.03,3.38,1.3,3.62,3.83,1.83,1.28-.91,3.01-2.08,4.4-.75,1.67,1.6.09,3.31-.88,4.61-2.61,3.48-6.51,5.17-10.53,7.22Z"/>
    </g>
  </g>
</svg>