<?xml version="1.0" encoding="UTF-8"?>
<svg id="_레이어_2" data-name="레이어 2" xmlns="http://www.w3.org/2000/svg" viewBox="0 0 174.23 160.72">
  <defs>
    <style>
      .cls-1 {
        fill: #fff;
      }

      .cls-2 {
        fill: #1f6ec4;
      }

      .cls-3 {
        fill: #080706;
      }
    </style>
  </defs>
  <g id="_레이어_1-2" data-name="레이어 1">
    <g>
      <path class="cls-3" d="m141.08,44.95c15.83,2.46,33.48,16.52,33.14,25.84-.61,16.88-13.72,27.54-35.79,29.13,9.96,25.41,5.1,44.39-14.35,53.57-23.06,10.89-44.09,7-57.25-17.72-2.95,1.2-3.2,4.27-4.51,6.52-3.22,5.49-6.46,10.93-12.14,14.34-5.8,3.48-11.81,5.96-18.37,2.25-6.19-3.5-8.51-9.35-9.2-16.17-1.42-14.13,4.71-25.97,11.1-37.78.88-1.63,1.6-3.34,2.45-5.11-8.75-1.42-17.28,1.6-25.3-3.79-9.33-6.26-13.62-17.14-8.98-27.28.82-1.79,1.98-4.6,3.3-4.8,10.54-1.59,8.28-6.88,5.53-14.13-2.62-6.91,2.89-21.77,8.31-23.94,7.9-3.15,15.73-2.18,22.41,3.86,2.53,2.29,5.27,4.35,8.31,6.83,2.8-9.61,6.8-18.17,13.17-25.8C72.62-.82,92.22.09,94.77,17.07,107.22,7.34,120.45-.44,136.98.02c19.78.55,25.02,14.11,16.6,30.3-2.83,5.45-7.53,9.45-12.5,14.63Zm-33.38,107.09c9.54-.32,20.51-5.64,27.1-17.53,6.52-11.77,3.2-23.01-4.04-33.45-.5-.71-1.05-1.39-1.54-2.1-3.45-5.05-1.31-6.69,3.95-6.63,5.49.06,11.01.78,16.44-.83,8.21-2.43,15.32-6.11,16.36-15.76,1.04-9.7-4.42-15.88-12.21-20.29-5.35-3.03-11.32-4.42-17.48-4.74-2.12-.11-4.33-.24-5.08-2.48-.76-2.27,1.14-3.68,2.57-5.12,3.07-3.08,6.5-5.89,9.08-9.34,4.72-6.32,12.56-12.95,7.17-21.38-5.56-8.68-15.5-6.1-23.99-4.24-11.76,2.58-21.18,9.15-28.71,18.49-1.47,1.82-2.88,4.03-5.63,3-2.18-.81-2.34-3.11-2.61-5.14-.26-2.01-.29-4.08-.8-6.02-2.71-10.24-9.25-12.45-17.16-5.46-8.63,7.62-13.5,17.26-13.89,28.97-.08,2.5.59,5.72-2.71,6.61-2.76.75-5.14-1.15-6.78-3.11-3.36-4.01-6.53-8.18-10.78-11.31-3.91-2.88-8.45-4.94-12.94-2.31-4.36,2.55-6.66,6.81-6.64,12.3.02,6.99,3.28,12.75,6.08,18.76,1.95,4.19,1.28,7.28-4.12,6.11-5.15-1.11-9.77-.71-11.74,4.41-2.22,5.75.28,10.79,4.96,14.62,7.23,5.94,15.71,4.96,24.14,4.34,4.36-.32,10.05-4.88,12.71-.04,2.3,4.2-3.9,7.55-6.3,11.26-7.19,11.09-13.35,22.56-13.3,36.19.02,5.57,1.11,11.47,7.29,13.6,5.74,1.98,9.98-1.64,13.63-5.62,4.98-5.45,7.89-12.06,10.7-18.8,1.33-3.19.63-8.77,5.65-8.67,4.45.09,3.6,5.25,4.75,8.25,6,15.63,16.73,23.59,35.9,23.45Z"/>
      <path class="cls-2" d="m107.71,152.04c-19.18.14-29.9-7.83-35.9-23.45-1.15-3-.31-8.16-4.75-8.25-5.02-.1-4.32,5.48-5.65,8.67-2.81,6.74-5.72,13.35-10.7,18.8-3.64,3.99-7.88,7.6-13.63,5.62-6.18-2.13-7.27-8.03-7.29-13.6-.04-13.63,6.11-25.1,13.3-36.19,2.4-3.71,8.61-7.06,6.3-11.26-2.66-4.84-8.34-.28-12.71.04-8.43.62-16.91,1.6-24.14-4.34-4.68-3.84-7.18-8.88-4.96-14.62,1.97-5.12,6.6-5.51,11.74-4.41,5.4,1.16,6.07-1.93,4.12-6.11-2.79-6.01-6.05-11.77-6.08-18.76-.02-5.49,2.29-9.75,6.64-12.3,4.49-2.62,9.03-.57,12.94,2.31,4.25,3.13,7.42,7.3,10.78,11.31,1.64,1.96,4.02,3.86,6.78,3.11,3.29-.9,2.62-4.12,2.71-6.61.39-11.71,5.26-21.35,13.89-28.97,7.91-6.99,14.46-4.78,17.16,5.46.51,1.94.54,4.01.8,6.02.27,2.03.43,4.32,2.61,5.14,2.75,1.03,4.16-1.18,5.63-3,7.53-9.33,16.96-15.91,28.71-18.49,8.49-1.86,18.43-4.44,23.99,4.24,5.39,8.42-2.45,15.05-7.17,21.38-2.58,3.45-6.01,6.26-9.08,9.34-1.44,1.44-3.33,2.85-2.57,5.12.75,2.25,2.96,2.38,5.08,2.48,6.16.31,12.13,1.71,17.48,4.74,7.78,4.41,13.25,10.59,12.21,20.29-1.04,9.66-8.14,13.33-16.36,15.76-5.43,1.61-10.95.89-16.44.83-5.26-.06-7.4,1.58-3.95,6.63.49.72,1.05,1.39,1.54,2.1,7.24,10.44,10.56,21.68,4.04,33.45-6.59,11.89-17.55,17.22-27.1,17.53Zm-20.89-56.02c3.52.7,7.41-.92,10.89-2.59,6.47-3.11,9.99-8.9,10.26-16.03.23-5.89-2.44-11.08-7.86-13.53-6.25-2.83-12.9-5.11-19.96-4.94-9.08.21-15.17,6.21-15.73,15.22-.75,12.15,8.85,21.82,22.4,21.88Z"/>
      <path class="cls-3" d="m86.82,96.02c-13.55-.07-23.15-9.74-22.4-21.88.56-9.01,6.65-15.01,15.73-15.22,7.07-.17,13.71,2.12,19.96,4.94,5.42,2.45,8.09,7.64,7.86,13.53-.28,7.13-3.8,12.92-10.26,16.03-3.48,1.67-7.36,3.3-10.89,2.59Zm-4.83-29.66c-7.23-.07-12.5,4.21-12.18,9.9.4,7.12,8.23,12.66,17.98,12.71,8.01.05,13.34-4.54,13.34-11.49,0-6.8-7.24-11-19.14-11.11Z"/>
      <path class="cls-1" d="m81.98,66.36c11.9.11,19.14,4.32,19.14,11.11,0,6.95-5.32,11.54-13.34,11.49-9.76-.06-17.59-5.59-17.98-12.71-.32-5.68,4.95-9.97,12.18-9.9Z"/>
    </g>
  </g>
</svg>