<?xml version="1.0" encoding="UTF-8"?>
<svg id="_레이어_2" data-name="레이어 2" xmlns="http://www.w3.org/2000/svg" viewBox="0 0 170.11 159.72">
  <defs>
    <style>
      .cls-1 {
        fill: #fff;
      }

      .cls-2 {
        fill: #cb587d;
      }

      .cls-3 {
        fill: #080706;
      }
    </style>
  </defs>
  <g id="_레이어_1-2" data-name="레이어 1">
    <g>
      <path class="cls-3" d="m132.99,61c4.06,3.46,9.67,4.82,13.08,9.44,6.24,8.45,3.68,20.84-6.42,27.25-9.06,5.75-18.98,8.95-30.46,7,3.46,19.22-.89,35.53-15.05,48.52-11.55,10.6-24.6,8-31.2-5.95-1.81-3.82-3.73-6.85-9.13-4.8-18.13,6.9-28.99,4.02-39.19-12.85-9.11-15.06-11.28-26.42,2.43-40.1,1.41-1.41,2.54-3.11,3.84-4.72-4.55-2.39-8.54-5.49-12.78-7.51C1,73.9-.59,68.93.17,62.08c.76-6.84,6.25-9.73,11.22-12.58,10.05-5.76,20.92-3.04,31.56-2.09,1.98.18,4.04,1.19,5.81-.66-7.74-22.15,12.79-38.06,32.59-35.96,1.09.12,2.77.32,3.11,1.02,4.78,9.66,9.67,4.96,15.28.67C117.07-.77,137.49-1.04,157.69.84c11.39,1.06,15.36,11.26,10.18,22.43-7.52,16.2-20.62,27.37-34.88,37.73Zm-64.73,67.86c-.13.01-.26.03-.39.04.48,4.31.61,8.7,1.52,12.92,2.81,13,10.26,15.35,20.35,6.66,12.52-10.79,17.4-29.64,11.77-45.23-.72-1.99-3.11-4.03-.6-6.24,2.02-1.78,4.43-.91,6.64-.28,6.01,1.71,12.03,1.81,18.05.29,10.27-2.6,17.76-9.06,17.47-15.79-.43-9.9-8.82-11.77-15.93-14.89-2.66-1.16-7.2-.31-7.25-4.74-.04-3.74,4.02-3.55,6.41-4.9,15.53-8.73,28.39-20.17,35.9-36.66,3.48-7.64,1.19-11.76-7.07-12.6-6.71-.68-13.63-.77-20.31.04-16.12,1.94-31.51,5.72-41.11,20.86-3.41,5.37-5.93,3.48-7.17-1.58-1.15-4.71-3.82-7.76-8.57-8.74-13.71-2.85-26.8,11.73-22.51,24.92.99,3.05,4.46,6.2,1.04,9.46-3.49,3.33-7.45,3.66-12.43,2.19-10.48-3.1-21.25-3.61-31.22,2.16-7.15,4.13-7.46,9.15-1.13,14.43,5.01,4.18,11.12,6.08,17.27,7.89,2.37.7,5.7.72,6.02,4.05.33,3.41-3.09,3.7-5.22,4.96-11.68,6.9-15.89,14.8-14.03,26.4,1.86,11.54,13.17,23.37,23.9,24.98,8.19,1.23,15.56-4.11,20.43-14.51,1.35-2.9,1.35-8.32,5.9-7.13,4.18,1.09,1.79,6.03,2.24,9.28.08.57.01,1.16.01,1.74Z"/>
      <path class="cls-2" d="m68.26,128.86c0-.58.07-1.17-.01-1.74-.45-3.25,1.94-8.19-2.24-9.28-4.55-1.19-4.55,4.23-5.9,7.13-4.86,10.4-12.23,15.74-20.43,14.51-10.73-1.62-22.04-13.44-23.9-24.98-1.87-11.6,2.34-19.5,14.03-26.4,2.13-1.26,5.55-1.55,5.22-4.96-.32-3.33-3.65-3.35-6.02-4.05-6.15-1.81-12.26-3.72-17.27-7.89-6.33-5.28-6.02-10.29,1.13-14.43,9.97-5.76,20.74-5.26,31.22-2.16,4.98,1.47,8.94,1.14,12.43-2.19,3.41-3.26-.05-6.41-1.04-9.46-4.28-13.19,8.8-27.77,22.51-24.92,4.74.98,7.41,4.03,8.57,8.74,1.24,5.06,3.76,6.96,7.17,1.58,9.6-15.14,24.99-18.93,41.11-20.86,6.69-.8,13.6-.72,20.31-.04,8.25.84,10.54,4.96,7.07,12.6-7.51,16.48-20.37,27.92-35.9,36.66-2.39,1.35-6.45,1.16-6.41,4.9.05,4.43,4.59,3.58,7.25,4.74,7.12,3.12,15.51,4.99,15.93,14.89.29,6.74-7.2,13.19-17.47,15.79-6.02,1.52-12.05,1.42-18.05-.29-2.2-.63-4.61-1.5-6.64.28-2.51,2.21-.12,4.24.6,6.24,5.63,15.59.75,34.44-11.77,45.23-10.09,8.7-17.54,6.34-20.35-6.66-.91-4.22-1.04-8.61-1.52-12.92.13-.01.26-.03.39-.04Zm3.75-37.83c10.31-.3,20.67-10.97,20.27-20.88-.29-7.35-6.69-12.99-14.67-12.92-9.13.08-19.18,10.99-18.84,20.46.25,6.96,6.76,13.53,13.23,13.34Z"/>
      <path class="cls-3" d="m72.01,91.03c-6.47.19-12.98-6.38-13.23-13.34-.34-9.47,9.71-20.39,18.84-20.46,7.97-.07,14.37,5.57,14.67,12.92.4,9.91-9.96,20.59-20.27,20.88Zm6.16-26.15c-6.27-.04-13.4,6.31-13.37,12.1.02,4.47,2.33,6.84,6.94,6.87,6.6.04,13.85-6.65,13.87-12.92.02-5.04-3.04-6.39-7.44-6.05Z"/>
      <path class="cls-1" d="m78.15,64.9c4.41-.36,7.46.99,7.45,6.03-.02,6.27-7.27,12.96-13.87,12.92-4.6-.03-6.91-2.4-6.94-6.87-.03-5.79,7.1-12.15,13.36-12.09Z"/>
    </g>
  </g>
</svg>