<?xml version="1.0" encoding="UTF-8"?>
<svg id="_레이어_2" data-name="레이어 2" xmlns="http://www.w3.org/2000/svg" viewBox="0 0 310.95 212.65">
  <defs>
    <style>
      .cls-1 {
        fill: #010000;
      }

      .cls-2 {
        fill: #020202;
      }

      .cls-3 {
        fill: #ed6a79;
      }

      .cls-4 {
        fill: #fff;
      }

      .cls-5 {
        fill: #22fc96;
      }
    </style>
  </defs>
  <g id="_레이어_1-2" data-name="레이어 1">
    <g>
      <path class="cls-1" d="m6.3,161.7c.22-.21.03-.39-.06-.57-2.07-4.39-3.48-9-4.58-13.73C.5,142.36.02,137.24,0,132.1c-.02-3.92.49-7.81,1.32-11.67,1.15-5.31,3.04-10.31,5.71-15.03,2.14-3.77,4.69-7.25,7.75-10.32,1.82-1.82,3.69-3.66,5.81-5.09,2.97-2,6-3.94,9.39-5.31,3.87-1.56,7.77-2.83,11.89-3.43,5.29-.77,10.55-.59,15.83.23,4.23.65,8.31,1.86,12.31,3.29,4.47,1.6,8.71,3.74,12.77,6.22,1.14.69,2.2,1.53,3.5,1.98-1.97-3.01-3.47-6.23-5.04-9.41-1.2-2.43-2.03-5.02-2.86-7.62-1.11-3.48-1.81-7.01-2.29-10.61-.73-5.46-.6-10.91.24-16.35.52-3.32,1.28-6.58,2.43-9.73,1.44-3.94,3.26-7.69,5.6-11.18,1.72-2.57,3.56-5.04,5.77-7.22,2.54-2.51,5.2-4.86,8.25-6.78,1.41-.89,2.79-1.82,4.23-2.67.13-.08.23-.17.18-.33l1.54-.8c.89-.04,1.68-.45,2.43-.81,4.48-2.16,9.21-3.34,14.15-3.67,4.09-.27,8.1.19,12.07,1.31,4.51,1.28,8.63,3.31,12.53,5.88,5.11,3.38,9.54,7.51,13.54,12.13.35.41.77.65,1.37.63,3.71-.07,7.41.16,11.04.9,2.8.57,5.53,1.44,8.2,2.51,4.02,1.61,7.71,3.77,11.14,6.35,4.51,3.39,8.49,7.35,11.9,11.87,1.77,2.35,3.46,4.74,5.04,7.22,1.53,2.4,2.78,4.94,4.19,7.39.05.16.09.31.14.47.21-.14.15-.33.11-.53-.36-4.24-.12-8.47.5-12.67.45-3.04,1.13-6.03,2.01-9,1.71-5.82,4.18-11.25,7.51-16.32,2.95-4.51,6.52-8.46,10.59-11.95,1.74-1.49,3.65-2.79,5.6-4.03,1.8-1.14,3.63-2.19,5.55-3.07,3.92-1.79,7.98-3.18,12.23-3.96,8.03-1.48,15.98-1.25,23.83,1.01,4.95,1.42,9.35,3.91,13.29,7.25,2.29,1.94,4.18,4.22,6.03,6.53,1.04,1.3,1.86,2.77,2.77,4.16.74,1.41,1.47,2.82,2.21,4.23,1.71,4.11,3.3,8.28,4.27,12.63.67,3.01,1.24,6.04,1.59,9.12.28,2.49.59,4.97.69,7.46.28,6.92.06,13.83-.71,20.72-.52,4.68-1.14,9.34-1.99,13.97-.66,3.65-1.43,7.27-2.25,10.89-1.65,7.25-3.78,14.36-6.17,21.39-1.58,4.67-3.42,9.25-5.37,13.79-2.45,5.68-5.11,11.25-7.99,16.73-3.7,7.05-7.62,13.97-11.78,20.76-3.02,4.95-6.31,9.71-9.78,14.34-3.15,4.19-6.66,8.08-10.35,11.82-2.22,2.25-4.46,4.5-6.95,6.44-2.11,1.64-4.11,3.44-6.45,4.76-2.44.97-4.86.5-7.24-.16-4.97-1.38-9.52-3.75-14.09-6.06-3.32-1.68-6.76-3.07-10.14-4.61-3.84-1.74-7.65-3.56-11.45-5.38-2.21-1.06-4.37-2.21-6.56-3.31-.49-.24-.65-.17-.76.46-.62,3.56-1.55,7.06-2.79,10.45-.82,2.23-1.49,4.58-3.27,6.31-1.58,1.54-3.38,2.68-5.48,3.48-3.46,1.3-7.07,1.58-10.67,1.75-3.69.17-7.39-.08-11.08.04-9.54.31-19.08.73-28.62.74-5.85,0-11.7-.12-17.56-.33-8.09-.29-16.16-.86-24.2-1.83-4.46-.54-8.89-1.3-13.31-2.1-7.1-1.29-13.99-3.31-20.79-5.63-4.17-1.43-8.2-3.25-12.13-5.27-4.39-2.26-8.54-4.88-12.46-7.86-4.4-3.34-8.34-7.14-11.81-11.44-2.13-2.64-4.18-5.33-5.8-8.33-.08-.15-.14-.34-.38-.27l-.4-.77c.08-.82-.48-1.39-.83-2.02-.6-1.07-.9-2.32-1.88-3.17l-1-1.92ZM140.3,33.81c-.68.37-1.22.97-1.97,1.25-1.22.46-2.27,1.26-3.29,2.01-3.64,2.7-7.02,5.69-9.97,9.16-4.65,5.47-7.94,11.69-10.4,18.38-.8,2.18-1.43,4.44-1.99,6.72-.72,2.93-1.24,5.87-1.63,8.84-.77,5.72-.7,11.47-.04,17.17.46,3.91,1.29,7.78,2.48,11.57.98,3.1,2,6.19,3.37,9.1,1.06,2.25,2.08,4.53,3.36,6.7,1.78,3.01,3.5,6.05,5.48,8.95,2.21,3.24,4.58,6.34,7.13,9.3,4.13,4.79,8.61,9.24,13.39,13.4,3.62,3.15,7.35,6.14,11.17,9.02,3.84,2.89,7.83,5.55,11.86,8.16,4.89,3.16,9.91,6.1,15,8.91,4.14,2.28,8.34,4.46,12.56,6.58,5.59,2.8,11.24,5.49,16.98,7.97,5.06,2.2,9.88,4.89,14.94,7.08,2.86,1.23,5.79,2.31,8.92,2.69,1.04.13,2.09.02,2.95-.63,1.93-1.47,3.9-2.91,5.73-4.51,2.36-2.05,4.65-4.18,6.83-6.43,3.4-3.52,6.6-7.21,9.56-11.11,2.73-3.6,5.29-7.33,7.74-11.13,3.44-5.33,6.61-10.83,9.68-16.39,2.27-4.11,4.5-8.25,6.59-12.45,1.86-3.74,3.58-7.56,5.23-11.4,1.19-2.78,2.3-5.61,3.35-8.45,1.63-4.4,3.14-8.83,4.5-13.32,1.4-4.63,2.65-9.3,3.76-14.01.84-3.57,1.55-7.16,2.17-10.76.78-4.55,1.38-9.12,1.81-13.72.46-4.95.76-9.91.69-14.87-.06-4.4-.44-8.78-1.06-13.14-.84-6-2.25-11.87-4.68-17.4-1.63-3.72-3.53-7.35-6.13-10.56-2.54-3.14-5.4-5.88-8.81-8.04-3.93-2.49-8.23-4.03-12.8-4.82-5.49-.95-10.99-1.03-16.51-.24-3.28.47-6.47,1.29-9.54,2.46-2.55.97-5.09,2.02-7.44,3.53-2.46,1.58-4.91,3.16-7.11,5.08-3.57,3.13-6.68,6.65-9.35,10.61-5.35,7.94-8.4,16.68-9.6,26.13-.54,4.24-.53,8.48-.23,12.74.06.85-.07,1.57-.89,1.99-.26.14-.38.26-.24.58.26.59.45,1.2.71,1.79.39.91.16,1.77-.61,2.1-.68.29-1.81-.26-2.02-1.07-.65-2.51-2.03-4.7-3.02-7.07-.63-1.51-1.54-2.91-2.4-4.32-1.29-2.13-2.62-4.22-4.04-6.28-2.22-3.23-4.77-6.15-7.52-8.91-2.58-2.59-5.44-4.83-8.51-6.86-3.85-2.54-7.91-4.5-12.36-5.74-4.61-1.28-9.28-1.77-14.06-1.58-6.98.28-13.51,2.14-19.75,5.22Zm16.04-7.76c-2.28-2.56-4.68-4.88-7.24-7.03-4.11-3.46-8.6-6.32-13.63-8.26-4.37-1.69-8.89-2.51-13.6-2.34-4.49.16-8.73,1.22-12.83,3.02-2.83,1.24-5.56,2.64-8.18,4.27-2.75,1.71-5.25,3.69-7.58,5.92-2.37,2.27-4.47,4.75-6.31,7.46-3.41,5.04-5.76,10.51-7.17,16.43-.84,3.5-1.34,7.03-1.42,10.6-.23,9.29,1.46,18.2,5.52,26.61,1.74,3.6,3.51,7.17,5.93,10.37.36.47.88,1.2.48,1.65-.97,1.08,0,1.31.58,1.75.34.26.74.45,1.02.75.37.38.65.81.48,1.44-.16.59-.57.85-1.05.97-.55.14-1.03-.2-1.46-.52-2.76-2.02-5.51-4.06-8.47-5.8-6.41-3.76-13.1-6.78-20.4-8.41-5.36-1.2-10.73-1.72-16.21-1.29-5.65.45-10.98,2.07-16.03,4.54-3.54,1.74-6.74,4.06-9.72,6.69-4.06,3.58-7.43,7.74-10,12.46-2.37,4.36-4.1,8.99-5.09,13.9-.81,4.01-1.23,8.03-1.21,12.1.01,4.16.48,8.28,1.31,12.37.98,4.8,2.34,9.5,4.41,13.91,2.76,5.89,5.87,11.6,10.07,16.68,3.41,4.12,7.17,7.83,11.4,11.07,4.72,3.62,9.82,6.62,15.22,9.15,4.82,2.26,9.8,4.04,14.88,5.62,4.38,1.36,8.82,2.44,13.3,3.37,5.1,1.06,10.23,1.83,15.4,2.45,6.93.83,13.9,1.28,20.87,1.6,6.95.32,13.9.4,20.85.38,6.85-.02,13.71-.25,20.56-.51,3.98-.15,7.97-.32,11.95-.32,5.43-.01,10.86.25,16.08-1.79,2-.78,3.57-1.94,4.62-3.79,1.78-3.12,2.55-6.62,3.59-10.01.51-1.65.67-3.4,1-5.11.09-.46-.03-.75-.45-.96-3.84-1.95-7.56-4.11-11.28-6.26-5.25-3.04-10.37-6.29-15.38-9.72-2.97-2.03-5.84-4.22-8.7-6.41-2.79-2.14-5.51-4.37-8.14-6.71-4.23-3.77-8.29-7.7-12.04-11.95-3.46-3.92-6.65-8.04-9.6-12.37-2.11-3.09-3.94-6.35-5.65-9.65-2.09-4.02-4.02-8.13-5.41-12.48-1.01-3.16-1.91-6.33-2.54-9.59-1.03-5.28-1.32-10.62-1.19-15.99.16-6.57,1.3-12.98,3.17-19.25,1.07-3.58,2.5-7.04,4.18-10.4,2.53-5.08,5.64-9.76,9.46-13.96,1.66-1.82,3.46-3.51,5.34-5.12,3.07-2.63,6.41-4.83,10.01-6.62,2.43-1.21,5.01-2.1,7.59-2.98,2.83-.97,5.74-1.34,8.76-1.93Z"/>
      <path class="cls-2" d="m7.31,163.62c.98.84,1.27,2.1,1.88,3.17.35.63.91,1.2.83,2.02-.9-1.73-1.81-3.46-2.71-5.19Z"/>
      <path class="cls-3" d="m304.28,24.11c-.74-1.41-1.47-2.82-2.21-4.23.02-.06.06-.12.1-.17l2.31,4.42c-.07,0-.13,0-.2-.02Z"/>
      <path class="cls-3" d="m212.16,61.94c.05.19.1.39-.11.53-.05-.16-.09-.31-.14-.47.08-.02.16-.04.25-.06Z"/>
      <path class="cls-3" d="m140.3,33.81c6.23-3.08,12.77-4.94,19.75-5.22,4.78-.19,9.45.29,14.06,1.58,4.45,1.24,8.51,3.2,12.36,5.74,3.07,2.03,5.93,4.27,8.51,6.86,2.75,2.76,5.3,5.68,7.52,8.91,1.41,2.06,2.74,4.15,4.04,6.28.86,1.41,1.77,2.81,2.4,4.32.99,2.36,2.36,4.56,3.02,7.07.21.81,1.34,1.36,2.02,1.07.77-.33,1-1.19.61-2.1-.26-.59-.44-1.21-.71-1.79-.14-.32-.02-.45.24-.58.82-.43.95-1.14.89-1.99-.3-4.25-.31-8.5.23-12.74,1.2-9.45,4.25-18.19,9.6-26.13,2.67-3.96,5.78-7.48,9.35-10.61,2.19-1.92,4.64-3.51,7.11-5.08,2.35-1.51,4.89-2.56,7.44-3.53,3.07-1.17,6.26-1.99,9.54-2.46,5.53-.79,11.02-.72,16.51.24,4.58.79,8.87,2.34,12.8,4.82,3.41,2.16,6.26,4.9,8.81,8.04,2.6,3.22,4.5,6.85,6.13,10.56,2.42,5.53,3.83,11.4,4.68,17.4.61,4.36.99,8.75,1.06,13.14.07,4.97-.23,9.92-.69,14.87-.43,4.6-1.03,9.18-1.81,13.72-.62,3.6-1.33,7.19-2.17,10.76-1.11,4.71-2.35,9.38-3.76,14.01-1.36,4.49-2.87,8.92-4.5,13.32-1.05,2.85-2.16,5.67-3.35,8.45-1.64,3.84-3.36,7.66-5.23,11.4-2.09,4.2-4.32,8.34-6.59,12.45-3.07,5.55-6.24,11.05-9.68,16.39-2.45,3.8-5.01,7.52-7.74,11.13-2.95,3.9-6.15,7.59-9.56,11.11-2.18,2.25-4.47,4.38-6.83,6.43-1.83,1.59-3.8,3.04-5.73,4.51-.86.66-1.91.76-2.95.63-3.12-.38-6.06-1.46-8.92-2.69-5.06-2.19-9.88-4.88-14.94-7.08-5.73-2.49-11.39-5.17-16.98-7.97-4.23-2.12-8.42-4.29-12.56-6.58-5.09-2.81-10.12-5.74-15-8.91-4.03-2.61-8.02-5.27-11.86-8.16-3.83-2.88-7.56-5.87-11.17-9.02-4.78-4.16-9.26-8.61-13.39-13.4-2.55-2.96-4.92-6.06-7.13-9.3-1.98-2.9-3.7-5.93-5.48-8.95-1.28-2.16-2.3-4.45-3.36-6.7-1.37-2.92-2.39-6.01-3.37-9.1-1.2-3.79-2.03-7.66-2.48-11.57-.67-5.7-.73-11.45.04-17.17.4-2.97.92-5.92,1.63-8.84.56-2.28,1.18-4.54,1.99-6.72,2.46-6.68,5.75-12.91,10.4-18.38,2.95-3.47,6.33-6.47,9.97-9.16,1.02-.75,2.07-1.55,3.29-2.01.75-.29,1.3-.88,1.97-1.25Zm77.69,59.21c-.35-.43-.61-.77-.88-1.1-2.44-2.93-5.47-3.53-8.97-1.83-3.1,1.5-4.63,4.12-4.92,7.51-.3,3.6-.07,7.16.72,10.69.76,3.37,1.65,6.68,4.08,9.28,1.91,2.04,4.34,2.92,7.02,2.08,2.44-.77,4.3-2.46,5.44-4.85.65-1.35.95-2.78,1.29-4.47.26.44.39.65.51.86,2.38,4.32,7.37,5.89,11.78,2.74,2.16-1.55,3.17-3.7,3.42-6.27.25-2.49-.27-4.9-.85-7.28-.97-3.97-1.65-8.06-4.39-11.37-1.45-1.75-3.15-2.99-5.44-3.3-4.33-.58-8.12,2.92-8.82,7.31Zm.18,37.62c-.98.27-1.51.82-2.03,1.36-2.47,2.56-1.7,7.09,2.2,8.31,2.67.83,5.29.62,7.95.35,1.2-.12,1.63-1.46.82-2.38-.39-.45-.89-.47-1.48-.39-2.13.3-4.26.42-6.36-.29-.9-.3-1.56-.85-1.67-1.78-.12-.99.39-1.75,1.15-2.41,1.47-1.26,3.22-1.71,5.05-2,.94-.15,1.62-.86,1.53-1.62-.1-.88-.66-1.24-1.78-1.19-1.14.06-2.29.08-3.39-.26-1.05-.33-1.91-.94-2.15-2.05-.23-1.07.27-1.93,1.08-2.64,1.25-1.09,2.71-1.85,4.17-2.61.93-.48,1.14-1.1.72-1.93-.43-.85-1.04-1.05-1.97-.54-1.36.74-2.76,1.43-4.01,2.34-1.28.93-2.43,2.09-2.74,3.74-.48,2.55.55,4.47,2.91,5.98Z"/>
      <path class="cls-3" d="m156.34,26.05c-3.01.59-5.93.97-8.76,1.93-2.58.88-5.16,1.77-7.59,2.98-3.6,1.79-6.93,4-10.01,6.62-1.88,1.61-3.68,3.29-5.34,5.12-3.82,4.2-6.93,8.88-9.46,13.96-1.67,3.36-3.11,6.82-4.18,10.4-1.87,6.27-3.01,12.69-3.17,19.25-.13,5.37.16,10.7,1.19,15.99.63,3.25,1.53,6.43,2.54,9.59,1.39,4.35,3.33,8.46,5.41,12.48,1.71,3.3,3.54,6.55,5.65,9.65,2.95,4.33,6.14,8.45,9.6,12.37,3.75,4.25,7.82,8.18,12.04,11.95,2.63,2.34,5.35,4.58,8.14,6.71,2.86,2.19,5.73,4.38,8.7,6.41,5.01,3.42,10.12,6.68,15.38,9.72,3.73,2.15,7.45,4.31,11.28,6.26.42.21.54.51.45.96-.34,1.7-.5,3.46-1,5.11-1.04,3.39-1.81,6.89-3.59,10.01-1.05,1.85-2.62,3-4.62,3.79-5.22,2.04-10.65,1.78-16.08,1.79-3.98,0-7.97.17-11.95.32-6.85.26-13.7.49-20.56.51-6.95.02-13.9-.06-20.85-.38-6.98-.32-13.94-.77-20.87-1.6-5.16-.62-10.3-1.39-15.4-2.45-4.49-.93-8.92-2.01-13.3-3.37-5.07-1.58-10.05-3.36-14.88-5.62-5.4-2.53-10.49-5.53-15.22-9.15-4.23-3.24-7.99-6.95-11.4-11.07-4.2-5.07-7.31-10.78-10.07-16.68-2.07-4.41-3.43-9.11-4.41-13.91-.83-4.09-1.3-8.2-1.31-12.37-.01-4.07.41-8.09,1.21-12.1.99-4.91,2.72-9.54,5.09-13.9,2.58-4.73,5.94-8.88,10-12.46,2.98-2.63,6.18-4.95,9.72-6.69,5.05-2.47,10.38-4.1,16.03-4.54,5.47-.43,10.85.09,16.21,1.29,7.3,1.63,13.99,4.65,20.4,8.41,2.96,1.74,5.71,3.78,8.47,5.8.43.32.91.65,1.46.52.48-.12.89-.38,1.05-.97.17-.63-.11-1.06-.48-1.44-.29-.3-.69-.49-1.02-.75-.57-.44-1.55-.66-.58-1.75.4-.45-.13-1.18-.48-1.65-2.42-3.21-4.19-6.78-5.93-10.37-4.06-8.41-5.75-17.32-5.52-26.61.09-3.57.59-7.1,1.42-10.6,1.42-5.91,3.76-11.39,7.17-16.43,1.84-2.72,3.94-5.19,6.31-7.46,2.33-2.23,4.83-4.22,7.58-5.92,2.63-1.63,5.35-3.03,8.18-4.27,4.11-1.8,8.34-2.86,12.83-3.02,4.71-.17,9.23.66,13.6,2.34,5.03,1.94,9.52,4.79,13.63,8.26,2.55,2.15,4.95,4.47,7.24,7.03Zm-71.61,108.64c.56.43,1.04.79,1.5,1.15,2.53,1.98,6.29,2.73,9.48.22,1.63-1.29,2.74-2.87,3.2-4.88.62-2.69-.15-5.17-1.36-7.54-1.57-3.1-3.36-6.07-5.43-8.88-1.76-2.37-3.85-4.2-6.69-5.09-4.11-1.28-8.94,1.79-9.42,6.24-.11,1.02-.04,2.06-.16,3.2-.44-.3-.75-.52-1.07-.73-1.65-1.07-3.42-1.62-5.4-1.2-1.01.21-1.83.84-2.72,1.29-1.91.96-2.92,2.67-3.44,4.63-.93,3.49.26,6.75,1.52,9.9.95,2.37,2.15,4.65,3.51,6.83,1.49,2.39,3.27,4.54,5.8,5.85,1.7.88,3.59,1.3,5.44.54,2.94-1.21,4.59-3.55,5.24-6.62.34-1.59.16-3.19,0-4.9Zm24.48,30.81c.78-.56,1.52-.84,2.16-1.32,2.45-1.83,4.04-4.28,5.13-7.06,1.01-2.58,1.49-5.33.76-8.01-.91-3.34-2.72-6.2-5.62-8.25-.33-.23-.65-.45-.11-.86.54-.4.37-.92.09-1.44-.28-.5-.6-.87-1.23-.8-1.57.16-3.15.29-4.72.47-1.07.13-1.8.81-1.72,1.51.09.82.79,1.25,1.97,1.22.18,0,.39.05.52-.03.45-.26.75.01,1.06.25,1.67,1.23,3.36,2.42,4.75,4.01,1.82,2.09,2.7,4.43,2.47,7.2-.2,2.46-1.01,4.73-2.38,6.75-1.29,1.9-2.9,3.58-5.11,4.35-3.62,1.27-7.12.7-10.39-1.24-1.7-1.01-3.52-1.87-3.75-4.27-.09-.9-1.06-.98-1.83-.73-.75.25-1.01.9-.78,1.64.45,1.41.59,2.87.81,4.32.09.59.21,1.19.59,1.69.63.84,1.62.85,2.08-.08.39-.78.66-.62,1.28-.26,4.55,2.7,9.25,3.31,13.98.93Z"/>
      <path class="cls-2" d="m217.99,93.02c.7-4.39,4.49-7.89,8.82-7.31,2.29.31,3.99,1.55,5.44,3.3,2.74,3.31,3.42,7.4,4.39,11.37.58,2.38,1.1,4.79.85,7.28-.25,2.57-1.26,4.72-3.42,6.27-4.41,3.16-9.4,1.58-11.78-2.74-.12-.21-.25-.41-.51-.86-.34,1.68-.64,3.12-1.29,4.47-1.15,2.39-3,4.08-5.44,4.85-2.67.84-5.11-.04-7.02-2.08-2.43-2.6-3.33-5.91-4.08-9.28-.8-3.53-1.03-7.09-.72-10.69.29-3.4,1.82-6.01,4.92-7.51,3.5-1.7,6.53-1.09,8.97,1.83.27.33.54.67.88,1.1Zm5.69,14.37c1.2,2.36,2.86,2.86,4.77,1.41.56-.42.94-.99,1.22-1.63.56-1.24.71-2.56.68-3.91-.07-3.85-1.11-7.4-3.31-10.58-.56-.81-1.29-1.45-2.2-1.86-1.79-.8-3.34-.09-3.85,1.78-.3,1.08-.41,2.19-.4,3.32.02,1.87,1.42,3.09,3.3,2.86.72-.09,1.31.1,1.6.8.29.69,0,1.26-.54,1.72-2.1,1.77-2.49,3.66-1.26,6.09Zm-11.23-8.49c-.31-.99-1.05-1.72-1.63-2.52-.66-.9-1.58-1.56-2.75-1.78-.74-.14-1.19.04-1.47.82-.72,1.98-.79,4.01-.69,6.08.06,1.28.4,1.62,1.66,1.36.96-.19,1.51.11,1.85.99.34.87-.24,1.23-.8,1.65-1.58,1.19-2.02,2.76-1.33,4.66.15.41.34.81.38,1.24.12,1.22.91,1.82,1.96,2.1,1.03.27,1.97.15,2.85-.68,1.13-1.06,1.65-2.34,1.83-3.8.45-3.57-.42-6.9-1.85-10.13Zm-1.45,17.5c1.05.63,2.04.98,3.06.61,2.46-.89,4-2.65,4.63-5.2.51-2.06.49-4.14.14-6.21-.49-2.95-1.15-5.88-2.14-8.7-.6-1.71-1.4-3.46-3.08-4.52-1.07-.68-2.7-.69-3.53,0,1.57.75,2.74,1.94,3.63,3.38,2.21,3.58,3.39,7.48,3.42,11.7.03,4.58-2.04,7.88-6.14,8.93Zm15.42-28.02c.81.73,1.48,1.23,2.04,1.85,1.5,1.69,2.61,3.59,3.3,5.78,1.04,3.3,1.68,6.61,1.07,10.04-.55,3.12-2.24,5.36-5.57,6.3,1.5.6,2.89.59,4.22-.02,2.45-1.13,3.7-3.75,3.29-6.76-.18-1.34-.35-2.7-.68-4.02-.89-3.61-1.36-7.37-3.69-10.47-.96-1.27-2.03-2.41-3.97-2.71Z"/>
      <path class="cls-2" d="m218.17,130.65c-2.36-1.52-3.4-3.44-2.91-5.98.31-1.65,1.47-2.81,2.74-3.74,1.24-.91,2.65-1.6,4.01-2.34.93-.5,1.54-.3,1.97.54.42.83.22,1.44-.72,1.93-1.46.76-2.91,1.51-4.17,2.61-.81.71-1.32,1.56-1.08,2.64.24,1.12,1.1,1.73,2.15,2.05,1.11.34,2.25.32,3.39.26,1.11-.06,1.67.31,1.78,1.19.09.77-.59,1.48-1.53,1.62-1.83.29-3.59.74-5.05,2-.76.66-1.27,1.42-1.15,2.41.11.93.78,1.47,1.67,1.78,2.1.7,4.22.59,6.36.29.58-.08,1.09-.06,1.48.39.81.92.38,2.26-.82,2.38-2.66.27-5.28.49-7.95-.35-3.9-1.22-4.67-5.75-2.2-8.31.52-.54,1.05-1.08,2.03-1.36Z"/>
      <path class="cls-2" d="m84.73,134.69c.15,1.71.33,3.31,0,4.9-.65,3.07-2.3,5.41-5.24,6.62-1.84.76-3.74.34-5.44-.54-2.54-1.31-4.32-3.45-5.8-5.85-1.35-2.18-2.56-4.46-3.51-6.83-1.26-3.15-2.45-6.41-1.52-9.9.52-1.96,1.53-3.67,3.44-4.63.89-.45,1.71-1.07,2.72-1.29,1.98-.42,3.75.13,5.4,1.2.32.21.64.44,1.07.73.12-1.14.05-2.18.16-3.2.48-4.45,5.31-7.52,9.42-6.24,2.85.89,4.94,2.72,6.69,5.09,2.08,2.81,3.86,5.78,5.43,8.88,1.2,2.37,1.98,4.85,1.36,7.54-.46,2-1.57,3.59-3.2,4.88-3.19,2.52-6.95,1.76-9.48-.22-.47-.37-.94-.72-1.5-1.15Zm-10.22-12.61c.08-.03.24-.06.24-.09,0-.15-.11-.1-.2-.08-1.22-1.96-3.71-2.67-5.72-1.66-2.26,1.13-3.07,3.07-3.08,5.44,0,2.57.88,4.96,1.89,7.24,1.15,2.6,2.42,5.2,4.32,7.38,1.11,1.27,2.29,2.51,4.02,3.14-.07-.18-.07-.31-.14-.37-1.97-1.87-2.77-4.13-2.33-6.81.07-.41-.11-.46-.43-.55-2.77-.84-4.5-2.71-5.17-5.5-.59-2.46-.36-4.8,1.69-6.57,1.38-1.19,3.06-1.71,4.91-1.57Zm15.3,12.53c.13,0,.28.27.37,0,.04-.11-.13-.21-.28-.16-.07-.13-.12-.27-.21-.38-1.56-1.89-2.48-3.98-2.04-6.49.08-.43-.17-.48-.46-.54-3.27-.74-5.73-4.78-5.4-8.14.19-1.91.88-3.6,2.84-4.45.7-.3,1.37-.7,2.08-1.08-2.49-2.28-6.66-1.04-7.62,1.8-.78,2.29-.5,4.48.33,6.62,1.21,3.13,3.04,5.9,5.15,8.49,1.45,1.79,2.91,3.59,5.23,4.33Zm-10.21-5.52c-.7-1.74-2.41-3.34-4.79-4.09-2.47-.78-4.69.93-4.4,3.62.17,1.55.86,2.82,2.06,3.79.82.66,1.75,1.04,2.78.41.66-.4,1.31-.47,1.86.14.57.64.48,1.3-.05,1.95-2.26,2.75,0,6.34,2.32,7.34.58.25,1.06.21,1.48-.4,1.11-1.59,1.5-3.34,1.32-5.23-.23-2.49-1.21-4.73-2.59-7.53Zm12.78-9.08c-.18-.35-.35-.71-.55-1.05-.8-1.33-1.78-2.4-3.41-2.72-1.93-.37-3.59.73-3.87,2.67-.2,1.37.14,2.64.92,3.76,1.08,1.55,2.65,2.11,3.96,1.46.66-.33,1.26-.38,1.77.19.53.59.49,1.24.01,1.87-2.09,2.79-.5,5.84,2.11,7.3.47.26.94.33,1.38-.13,1.43-1.48,2.07-3.24,1.59-5.25-.31-1.31-.78-2.59-1.41-3.81-.76-1.48-1.7-2.84-2.51-4.28Z"/>
      <path class="cls-2" d="m109.21,165.49c-4.73,2.38-9.43,1.77-13.98-.93-.62-.37-.89-.53-1.28.26-.46.93-1.45.92-2.08.08-.38-.5-.5-1.1-.59-1.69-.22-1.45-.36-2.91-.81-4.32-.23-.73.03-1.38.78-1.64.76-.26,1.74-.18,1.83.73.23,2.4,2.05,3.26,3.75,4.27,3.28,1.94,6.77,2.5,10.39,1.24,2.21-.77,3.82-2.45,5.11-4.35,1.37-2.02,2.18-4.29,2.38-6.75.23-2.76-.65-5.11-2.47-7.2-1.39-1.59-3.08-2.78-4.75-4.01-.31-.23-.61-.51-1.06-.25-.13.08-.35.02-.52.03-1.18.03-1.88-.41-1.97-1.22-.08-.7.66-1.38,1.72-1.51,1.57-.19,3.15-.32,4.72-.47.63-.06.95.3,1.23.8.29.52.45,1.03-.09,1.44-.54.41-.21.63.11.86,2.91,2.05,4.72,4.92,5.62,8.25.73,2.68.25,5.43-.76,8.01-1.09,2.78-2.68,5.23-5.13,7.06-.65.48-1.38.75-2.16,1.32Z"/>
      <path class="cls-5" d="m223.68,107.4c-1.23-2.43-.84-4.32,1.26-6.09.55-.46.83-1.02.54-1.72-.29-.7-.88-.89-1.6-.8-1.88.23-3.28-.99-3.3-2.86-.01-1.12.1-2.23.4-3.32.52-1.87,2.06-2.58,3.85-1.78.91.41,1.65,1.05,2.2,1.86,2.2,3.18,3.23,6.73,3.31,10.58.03,1.34-.13,2.66-.68,3.91-.28.63-.66,1.2-1.22,1.63-1.91,1.45-3.57.95-4.77-1.41Z"/>
      <path class="cls-5" d="m212.46,98.91c1.43,3.22,2.29,6.56,1.85,10.13-.18,1.46-.7,2.74-1.83,3.8-.88.82-1.82.95-2.85.68-1.05-.28-1.84-.88-1.96-2.1-.04-.42-.23-.83-.38-1.24-.69-1.89-.25-3.47,1.33-4.66.56-.42,1.15-.78.8-1.65-.34-.88-.89-1.18-1.85-.99-1.26.26-1.6-.08-1.66-1.36-.1-2.06-.03-4.1.69-6.08.28-.78.73-.96,1.47-.82,1.17.21,2.09.87,2.75,1.78.58.8,1.32,1.52,1.63,2.52Z"/>
      <path class="cls-4" d="m211.01,116.41c4.1-1.05,6.18-4.36,6.14-8.93-.03-4.23-1.21-8.12-3.42-11.7-.89-1.44-2.06-2.63-3.63-3.38.83-.7,2.45-.68,3.53,0,1.68,1.06,2.48,2.81,3.08,4.52.99,2.81,1.65,5.75,2.14,8.7.35,2.07.37,4.15-.14,6.21-.64,2.55-2.17,4.32-4.63,5.2-1.02.37-2.01.02-3.06-.61Z"/>
      <path class="cls-4" d="m226.43,88.39c1.94.29,3.01,1.43,3.97,2.71,2.33,3.1,2.8,6.87,3.69,10.47.32,1.31.49,2.67.68,4.02.41,3.01-.83,5.63-3.29,6.76-1.32.61-2.71.62-4.22.02,3.33-.94,5.03-3.18,5.57-6.3.6-3.43-.03-6.75-1.07-10.04-.69-2.2-1.8-4.09-3.3-5.78-.55-.62-1.23-1.13-2.04-1.85Z"/>
      <path class="cls-5" d="m79.6,129.08c1.38,2.8,2.36,5.04,2.59,7.53.17,1.89-.21,3.64-1.32,5.23-.43.61-.91.65-1.48.4-2.33-1-4.57-4.59-2.32-7.34.53-.65.62-1.31.05-1.95-.55-.61-1.2-.54-1.86-.14-1.04.63-1.96.25-2.78-.41-1.2-.97-1.89-2.24-2.06-3.79-.29-2.7,1.93-4.4,4.4-3.62,2.38.75,4.1,2.35,4.79,4.09Z"/>
      <path class="cls-5" d="m92.38,120.01c.81,1.44,1.75,2.8,2.51,4.28.63,1.22,1.09,2.5,1.41,3.81.48,2.01-.15,3.77-1.59,5.25-.44.45-.91.39-1.38.13-2.62-1.45-4.21-4.51-2.11-7.3.48-.64.52-1.28-.01-1.87-.5-.57-1.11-.52-1.77-.19-1.31.65-2.89.09-3.96-1.46-.78-1.12-1.12-2.39-.92-3.76.28-1.93,1.94-3.04,3.87-2.67,1.63.31,2.61,1.39,3.41,2.72.2.34.37.7.55,1.05Z"/>
      <path class="cls-4" d="m89.81,134.6c-2.33-.74-3.79-2.55-5.23-4.33-2.1-2.59-3.94-5.37-5.15-8.49-.83-2.15-1.1-4.34-.33-6.62.96-2.84,5.13-4.08,7.62-1.8-.72.37-1.38.77-2.08,1.08-1.96.85-2.65,2.54-2.84,4.45-.34,3.36,2.13,7.4,5.4,8.14.29.07.53.11.46.54-.44,2.51.48,4.61,2.04,6.49.09.11.14.25.21.38-.03.05-.06.11-.09.16Z"/>
      <path class="cls-4" d="m74.51,122.08c-1.85-.13-3.53.39-4.91,1.57-2.05,1.76-2.28,4.11-1.69,6.57.67,2.79,2.4,4.66,5.17,5.5.31.1.5.14.43.55-.44,2.68.36,4.95,2.33,6.81.07.06.07.19.14.37-1.74-.63-2.91-1.87-4.02-3.14-1.9-2.18-3.17-4.78-4.32-7.38-1.01-2.28-1.9-4.67-1.89-7.24,0-2.38.82-4.31,3.08-5.44,2-1,4.5-.3,5.72,1.66-.02.06-.03.11-.04.17Z"/>
      <path class="cls-4" d="m89.89,134.44c.16-.05.32.05.28.16-.09.27-.24,0-.37,0,.03-.06.05-.11.09-.16Z"/>
      <path class="cls-4" d="m74.55,121.91c.09-.02.2-.07.2.08,0,.03-.16.06-.24.09,0-.06.02-.11.04-.17Z"/>
    </g>
  </g>
</svg>