<?xml version="1.0" encoding="UTF-8"?>
<svg id="_레이어_2" data-name="레이어 2" xmlns="http://www.w3.org/2000/svg" viewBox="0 0 128 162">
  <defs>
    <style>
      .cls-1 {
        fill: #fff;
      }

      .cls-2 {
        fill: #86d41f;
      }

      .cls-3 {
        fill: #21f993;
      }

      .cls-4 {
        fill: #080706;
      }
    </style>
  </defs>
  <g id="_레이어_1-2" data-name="레이어 1">
    <g>
      <path class="cls-4" d="m68.68,132.47c-1.97,2.52-1.63,4.71-2.15,6.63-3.08,11.4-10.18,18.38-21.58,21.85-9.98,3.04-17.48-1.06-25.1-6.32-5.62-3.88-9.11-9.1-10.5-15.66-1.22-5.73,1.16-11.82,7.07-15.14,7.54-4.23,15.13-2.77,22.63-.24,2.4.81,2.59.37,2.81-1.85.64-6.51,2.2-12.89,2.68-19.44.1-1.43.17-2.44-1.11-2.97-6.28-2.6-11.75-6.51-16.97-10.74-3.26-2.64-6.3-5.63-9.01-8.84-7.05-8.36-12.62-17.67-15.54-28.27C-.03,44.45-.5,37.26.54,29.83,1.86,20.43,5.76,12.66,12.97,6.75,19.46,1.43,26.78-.98,35.52.37c7.94,1.22,14.66,4.29,20.92,9.1,5.16,3.97,8.27,9.39,11.47,14.79.61,1.03,1.15,2.13,1.53,3.26,1.06,3.13,2.53,2.79,4.28.6,2.5-3.14,5.68-5.4,8.98-7.68,5.42-3.74,11.56-5.36,17.69-5.4,9.76-.06,20.07,5.93,24.48,16.5,4.31,10.35,1.85,20.13-1.72,29.75-6.11,16.46-17.26,29-31.66,38.78-1.05.71-2.2,1.18-1.83,2.76,1.57,6.73,1.44,13.77,3.63,20.39.11.35.05.75.15,1.11,1.2,4.27,1.64,4.57,5.08,1.93,2.72-2.08,6.21-3.93,8.9-4,6.14-.17,13.01-.73,17.51,5.46,4.1,5.64,3.74,11.65,1,17.38-3.55,7.4-9.8,11.37-17.86,13.58-10.09,2.75-18.84.56-27.18-4.81-2.84-1.83-5.16-4.33-7.12-7.2-2.8-4.11-4.93-8.4-5.09-14.19Zm55.52-88.84c1.4-15.97-12.57-26.44-24.94-25.63-12.25.8-21.71,6.96-27.25,18.32-.37.75-.28,1.81-1.53,1.71-1.29-.1-1.58-1.18-1.73-2.12-2-12.26-8.83-21.21-19.08-27.75C39.59,1.75,26.78.04,16.01,8.02,4.34,16.66,1.71,29.19,3.18,42.31c1.68,14.97,8.88,27.79,19.51,38.58,11.56,11.73,26.34,18.03,41.02,24.55,4.57,2.03,8.94,1.82,13.3-.31,12.32-6.03,23.43-13.7,31.96-24.61,8.5-10.86,14.49-22.83,15.24-36.89Zm-76.17,58.03c-.83,6.93-1.61,13.68-2.45,20.42-.32,2.59-1.59,5.32,1.55,7.19.51.31.62,1.06.14,1.65-.57.71-1.28.73-1.96.22-.69-.52-1.28-1.19-1.97-1.71-7.39-5.61-15.5-7.13-24.22-3.75-4.93,1.91-8.39,8.13-7.12,12.63,3.34,11.83,14.95,20.12,25.29,20.68,10.56.57,20.86-5.09,25.25-16.68,3.82-10.08,4.12-20.65,3.91-31.26-.02-.89-.1-1.58-1.16-2.03-5.71-2.36-11.37-4.84-17.25-7.36Zm22.3,16.71c-.22,2.72.43,6.29.63,9.89,1.07,19.87,17.03,32.16,36.41,27.77,7.93-1.8,14.16-6.11,16.86-14.22,2.57-7.73-1.29-15.46-8.27-16.21-5.87-.63-11.73-.26-16.53,3.95-2.15,1.88-4.21,3.86-6.38,5.72-.74.64-1.43,2.09-2.73.87-1.27-1.19-.11-2.1.67-2.76,1.81-1.53,2.38-2.93.57-4.95-.67-.75-.71-2.08-1-3.16-1.57-6.01-3.02-12.04-3.31-18.29-.12-2.58-.73-4-3.68-2.06-2.26,1.49-4.84,2.55-7.38,3.53-5.82,2.26-5.84,2.2-5.85,8.64,0,.12,0,.25,0,1.28Z"/>
      <path class="cls-2" d="m124.2,43.64c-.75,14.06-6.75,26.03-15.24,36.89-8.53,10.9-19.64,18.58-31.96,24.61-4.36,2.13-8.72,2.34-13.3.31-14.68-6.52-29.46-12.82-41.02-24.55C12.06,70.11,4.87,57.28,3.18,42.31c-1.48-13.13,1.16-25.65,12.82-34.29C26.78.04,39.59,1.75,49.67,8.18c10.25,6.54,17.08,15.48,19.08,27.75.15.94.44,2.02,1.73,2.12,1.24.1,1.16-.96,1.53-1.71,5.55-11.36,15.01-17.52,27.25-18.32,12.37-.81,26.33,9.66,24.94,25.63Zm-54.37,5.49c-4.01-6.21-10.67-7.25-14.62-2.23-3.24,4.12-6.8,17.82-2.34,25.13,2,3.27,5.45,4.66,9.06,3.36,3.05-1.1,4.9-3.55,6.84-6.46.64,1.24,1.01,2.13,1.52,2.93,3.58,5.63,9.58,5.27,13.72.87,1.55-1.65,2.21-3.9,2.46-6.13.49-4.46.63-8.96.12-13.41-.72-6.25-4.86-9.94-9.94-9.27-3.25.42-5.15,2.67-6.82,5.21Zm-.89,35.45c-5.55-1-11.13-1.29-16.44-3.14-1.86-.65-2.77-1.64-2.5-3.78.49-3.9-1.09-7.32-3.04-10.55-.55-.92-.95-2.77-2.63-1.75-1.61.98-.34,2.15.25,3.16,3.01,5.19,3.85,10.66,2.45,16.53-.38,1.59-2.67,3.97-.12,4.78,2.27.72,1.96-2.53,2.84-3.99.44-.72-.27-2.44,1.86-1.71,9.86,3.36,19.95,3.21,30.07,1.51,1.48-.25,2-.03,2.08,1.49.07,1.32.13,3.24,1.94,2.98,1.53-.21,1.04-2.04.93-3.21-.55-5.81.77-11.1,4.25-15.82.63-.85,1.73-1.91.38-2.86-1.24-.87-1.99.3-2.68,1.21-2.36,3.14-3.85,6.66-4.57,10.5-.26,1.39-.47,2.64-2.28,2.87-4.28.54-8.55,1.18-12.79,1.78Z"/>
      <path class="cls-2" d="m48.04,101.67c5.88,2.52,11.55,4.99,17.25,7.36,1.07.44,1.15,1.14,1.16,2.03.2,10.61-.1,21.18-3.91,31.26-4.39,11.59-14.69,17.25-25.25,16.68-10.33-.56-21.94-8.85-25.29-20.68-1.27-4.49,2.19-10.72,7.12-12.63,8.72-3.38,16.83-1.86,24.22,3.75.69.53,1.28,1.19,1.97,1.71.68.51,1.38.48,1.96-.22.48-.59.37-1.35-.14-1.65-3.13-1.87-1.87-4.6-1.55-7.19.84-6.74,1.62-13.49,2.45-20.42Z"/>
      <path class="cls-2" d="m70.34,118.37c0-1.03,0-1.16,0-1.28,0-6.44.03-6.38,5.85-8.64,2.54-.99,5.12-2.05,7.38-3.53,2.95-1.94,3.56-.52,3.68,2.06.29,6.25,1.74,12.28,3.31,18.29.28,1.08.32,2.41,1,3.16,1.81,2.01,1.24,3.42-.57,4.95-.78.66-1.94,1.57-.67,2.76,1.3,1.22,1.99-.23,2.73-.87,2.17-1.86,4.23-3.84,6.38-5.72,4.81-4.21,10.67-4.59,16.53-3.95,6.98.75,10.85,8.49,8.27,16.21-2.7,8.12-8.93,12.43-16.86,14.22-19.37,4.39-35.33-7.89-36.41-27.77-.19-3.6-.85-7.17-.63-9.89Z"/>
      <path class="cls-4" d="m69.83,49.13c1.68-2.54,3.57-4.78,6.82-5.21,5.08-.66,9.22,3.03,9.94,9.27.51,4.45.37,8.95-.12,13.41-.25,2.23-.9,4.48-2.46,6.13-4.15,4.39-10.14,4.76-13.72-.87-.51-.8-.88-1.69-1.52-2.93-1.93,2.91-3.79,5.36-6.84,6.46-3.61,1.3-7.06-.09-9.06-3.36-4.46-7.31-.91-21,2.34-25.13,3.95-5.03,10.61-3.98,14.62,2.23Zm-3.18.52c-2.81-4.31-7.31-4.41-9.69-.39-3.19,5.4-3.64,11.46-2.98,17.46.27,2.47,1.1,5.62,4.41,6.24,2.74.51,4.7-1,6.26-3.2-4.36-.8-5.9-3.3-5.85-7.77.08-8.08,1.71-10.94,7.85-12.35Zm15.45-.11c-2.71-3.78-6.91-3.83-9.12.26-3.35,6.21-2.57,12.78-.78,19.29.71,2.6,2.58,4.04,5.21,3.96,2.65-.08,4.69-1.35,5.51-4.17-5.42-.21-7.64-1.61-8.22-5.11-1.29-7.78.92-12.01,7.4-14.24Zm-14.98,9.19s.09,0,.13,0c0-1.11-.06-2.23.02-3.34.08-1.11-.18-2.01-1.32-2.32-1.04-.27-2.07.02-2.59.98-1.62,2.96-2.74,6.13-1.96,9.51.27,1.17,1.05,2.74,2.62,2.75,1.66,0,2.77-1.26,3.04-2.79.27-1.55.06-3.19.06-4.79Zm15.79,1.38c0-1.57.01-2.82,0-4.06-.02-1.39-.62-2.51-2.01-2.78-1.52-.3-2.14.87-2.69,2.06-.67,1.41-.87,2.94-.62,4.38.4,2.3-.99,6.16,2.92,6.06,3.83-.09,1.87-3.82,2.4-5.65Z"/>
      <path class="cls-4" d="m68.94,84.58c4.24-.6,8.51-1.25,12.79-1.78,1.81-.23,2.02-1.48,2.28-2.87.72-3.84,2.22-7.36,4.57-10.5.68-.91,1.43-2.08,2.68-1.21,1.35.95.25,2.01-.38,2.86-3.48,4.73-4.8,10.01-4.25,15.82.11,1.18.6,3-.93,3.21-1.81.25-1.87-1.66-1.94-2.98-.08-1.51-.6-1.74-2.08-1.49-10.12,1.7-20.21,1.84-30.07-1.51-2.13-.72-1.42.99-1.86,1.71-.88,1.47-.57,4.72-2.84,3.99-2.55-.81-.26-3.19.12-4.78,1.4-5.87.56-11.34-2.45-16.53-.59-1.01-1.86-2.19-.25-3.16,1.68-1.02,2.08.84,2.63,1.75,1.95,3.23,3.52,6.65,3.04,10.55-.27,2.14.64,3.13,2.5,3.78,5.31,1.85,10.89,2.14,16.44,3.14Z"/>
      <path class="cls-1" d="m66.65,49.65c-6.15,1.42-7.77,4.28-7.85,12.35-.04,4.47,1.49,6.97,5.85,7.77-1.56,2.19-3.52,3.71-6.26,3.2-3.31-.62-4.13-3.78-4.41-6.24-.67-6.01-.22-12.06,2.98-17.46,2.38-4.02,6.88-3.92,9.69.39Z"/>
      <path class="cls-1" d="m82.1,49.54c-6.49,2.23-8.69,6.46-7.4,14.24.58,3.49,2.8,4.9,8.22,5.11-.82,2.82-2.85,4.1-5.51,4.17-2.63.08-4.49-1.37-5.21-3.96-1.79-6.51-2.56-13.08.78-19.29,2.2-4.09,6.41-4.04,9.12-.26Z"/>
      <path class="cls-3" d="m67.12,58.73c0,1.6.21,3.24-.06,4.79-.27,1.53-1.38,2.8-3.04,2.79-1.57,0-2.35-1.59-2.62-2.75-.78-3.39.34-6.55,1.96-9.51.53-.96,1.56-1.25,2.59-.98,1.14.3,1.4,1.2,1.32,2.32-.08,1.11-.02,2.23-.02,3.34-.04,0-.09,0-.13,0Z"/>
      <path class="cls-3" d="m82.91,60.11c-.53,1.83,1.43,5.56-2.4,5.65-3.91.1-2.52-3.76-2.92-6.06-.25-1.44-.05-2.97.62-4.38.56-1.18,1.18-2.36,2.69-2.06,1.39.28,1.99,1.39,2.01,2.78.02,1.25,0,2.49,0,4.06Z"/>
    </g>
  </g>
</svg>