<?xml version="1.0" encoding="UTF-8"?>
<svg id="_레이어_2" data-name="레이어 2" xmlns="http://www.w3.org/2000/svg" viewBox="0 0 649.93 604.13">
  <defs>
    <style>
      .cls-1 {
        fill: #ec6978;
      }

      .cls-2 {
        fill: #eb6a3c;
      }

      .cls-3 {
        fill: #fff;
      }

      .cls-4 {
        fill: #21f993;
      }

      .cls-5 {
        fill: #080706;
      }
    </style>
  </defs>
  <g id="_레이어_1-2" data-name="레이어 1">
    <g>
      <path class="cls-2" d="m503.74,470.68c.83-.06,1.67-.13,2.5-.19-.34,2.61-1.03,5.23-.93,7.82.14,3.67-2.97,9.8,1.83,10.37,4.83.58,3.49-6,4.1-9.57,2.34-13.73,5.89-26.87,16.09-37.16,9.22-9.3,20.77-12.28,32.79-8.74,11.09,3.26,16.05,12.96,18.37,23.97,1.1,5.26,1.42,10.47.78,15.77-4.64,38.47-59.77,73.25-101.04,43.92-12.51-8.89-22.19-20.34-31.43-32.25-10.87-14.01-20.61-28.8-29.37-44.23-1.02-1.8-2.18-4.16-4.77-3.19-2.9,1.08-1.95,3.82-.75,5.26,5.63,6.74,1.39,10.84-3.53,14.94-4.06,3.38-8.06,6.85-12.12,10.23-2.08,1.73-4.18,2.62-7.22,2.1-9.42-1.63-18.48-4.44-27.42-7.67-1.59-.57-3.83-.75-4.1-3.15-.27-2.4-.34-5.41-3.72-4.71-3.39.7-2.58,4.02-2.82,6.59-3.48,37.42-14.17,72.55-33.87,104.67-7.01,11.43-16.04,21.24-28.62,26.68-40.7,17.58-78.64-10.43-85.03-49.58-4.17-25.56,12.65-39.94,37.92-34.22,16.05,3.63,28.19,12.75,36.68,26.85,1.35,2.23,2.07,6.77,5.88,4.67,4.55-2.51-.33-5.3-.93-7.97-.61-2.71-4.21-4.14-3.38-7.55l-.08.18c4.16,3.07,5.48-.24,6.94-3.13,12-23.82,23.5-47.87,31.33-73.47,1.61-5.25,5.25-11.7-5.48-11.06-1.12.07-2.34-1.12-3.48-1.79-25.28-14.88-50.78-29.42-75.03-45.98-34.45-23.52-66.73-49.49-92.72-82.5-1.36-1.73-3.76-2.99-3.23-5.88,1-5.46.8-5.98-4.75-5.61-24.67,1.67-48.35-3.81-71.98-9.65-12.03-2.97-12.05-3.02-9.42,9.03.76,3.49.39,6.91-3.3,7.76-4.41,1.02-4.99-3.14-5.26-6.09-.44-4.73-.12-9.52-.21-14.28-.03-1.49.59-3.42-1.28-4.19-2.29-.93-3.33.87-4.24,2.51-2.61,4.67-5.93,8.77-10.08,12.13-1.3,1.06-2.94,2.97-4.7,1.28-1.49-1.43-.73-3.6.18-5.21,2.79-4.91,6.77-8.77,11.24-12.15,1.85-1.4,4.46-2.69,2.66-5.62-1.54-2.49-3.8-.88-5.72-.33-5.27,1.51-10.44,3.52-15.8,4.51-2.35.43-6.46,1.97-7.41-2.06-.75-3.2,2.29-5.21,4.75-6.7,4.92-2.97,10.55-3.16,16.1-3.49,2.05-.12,4.51.28,4.65-2.88.12-2.84-2.57-2.57-3.98-2.85-5.66-1.13-10.47-3.63-14.32-7.87-2.11-2.33-5.03-5.02-3.39-8.25,1.93-3.78,6.21-2.53,9.35-1.79,6.13,1.44,10.92,5.14,14.31,10.57,1.07,1.72,2.74,2.71,4.72,1.71,2.38-1.2,1.2-3.14.54-4.8-1.17-2.94-2.84-5.75-3.59-8.79-1.28-5.19-2.03-10.54,2.3-14.92,1.32-1.34,3.1-2.61,4.89-1.08,4.35,3.72,6.16,8.82,5.18,14.24-1.32,7.37,2.42,7.87,8.04,7.33,17.16-1.67,34.36-1.45,51.54-.35,9.71.62,19.4,1.39,29.11,2.01,2.47.16,5.16-.12,5.05-3.45-.09-2.82-2.6-3.15-4.73-2.92-9,1-17.75-2.14-26.67-1.53-5.28.36-7.38-1.66-8.31-6.8-7.42-40.97-1.35-79.61,20.41-115.22,30.51-49.93,86.21-67.7,135.39-47.5,28.08,11.53,47.02,33.55,61.8,59.4,4.99,8.73,9.25,17.81,12.76,27.25.65,1.75,1.37,3.57,3.71,3.51,1.56-.04,2.94-1.41,2.37-2.48-3.02-5.63,1.66-10.4,1.36-15.84-1.6-28.87,5.38-55.83,21.28-79.86C389.26,18.83,427.2.47,475.78,7.02c29.69,4,49.39,22.64,63.15,48.06,9.8,18.11,14.78,37.45,15.89,58.3.46,8.61-2.35,11.95-8.25,16.13-10.35,7.33-20.16,15.41-30.15,23.23-1.59,1.25-4.01,2.64-2.42,5.07,1.88,2.89,4.17,1.09,6.09-.32,1.92-1.41,3.69-3.01,5.55-4.49,18.43-14.68,36.93-29.27,59.12-38.06,4.24-1.68,5.2-3.73,2.9-7.72-2.14-3.7-3.21-7.82-3.11-12.16.08-3.47-.08-7.51,3.95-8.69,4.4-1.29,7.5,1.66,9.82,5.1,3.06,4.53,1.87,9.74,1.95,14.7.04,2.97,1.05,5.71,3.67,6.35,3,.73,3.33-2.62,4.3-4.67,2.71-5.71,5.02-11.66,9.03-16.66,2.16-2.7,4.83-4.26,8.23-1.98,3.2,2.15,1.27,4.72.28,7.01-2.1,4.9-5.01,9.28-8.99,12.92-1.78,1.62-3.72,3.61-1.51,6.05,1.99,2.2,3.89.05,5.62-.88,4.66-2.51,9.25-5.19,14.61-5.86,2.65-.33,5.89-.45,7.22,2.05,1.51,2.84-1.28,4.82-3.21,6.51-3.87,3.4-8.25,5.73-13.63,5.52-2.33-.09-4.57.64-4.58,3.18,0,2.67,2.57,3.18,4.67,3.13,4.33-.09,8.44.95,12.38,2.41,3,1.12,6.19,3.28,5.49,6.87-.79,4-4.76,3.46-7.89,3.41-5.19-.08-9.63-2.55-14.2-4.6-1.79-.8-3.83-.8-4.89,1.17-1.27,2.36.93,3.24,2.39,4.23,1.95,1.33,4.26,2.23,5.98,3.8,3.48,3.17,7.45,6.33,5.97,11.97-.39,1.5-1.25,3.15-3.32,2.62-4.82-1.22-7.6-4.7-9.1-9.14-2.24-6.66-5.08-7.24-10.33-2.36-21.91,20.34-44.09,40.39-66.12,60.6-1.67,1.53-4.62,2.91-3.79,5.57,1.75,5.65-1.08,10.27-2.72,15.09-21.22,62.24-54.63,118.37-87.86,174.57-.87,1.48-1.37,3.51-3.85,3.41-6.46-.27-5.03,3.37-2.64,6.34,16.79,20.89,35.44,39.99,55.99,57.2,2.26,1.89,5.17,3.68,6.29-1.32Zm-70.12-175.12c.33.51.67,1.03,1,1.54,3,14.11,3.33,28.42,1.19,42.55-6.09,40.18-60.54,59.81-87.76,52.89-34.47-8.75-52.39-37.84-55.94-64.57,10.54-5.32,13.4-18.05,6.31-27.06-5.23-6.64-12.18-8.12-19.76-6.58-6.64,1.36-11.46,6.01-12.94,12.49-1.84,8.04-.76,15.8,7.31,20.7-.25,4.23,1.31,6.84,5.14,3.28,5.83-5.42,7.3-1.91,8.61,3.3.77,3.07,1.62,6.13,2.49,9.18,8.43,29.6,37.19,63.03,84.31,55.36,49.98-8.14,79.27-43.09,67.43-99.2-.37-1.77-1.88-3.71-.18-4.94,1.66-1.21,3.38.35,4.88,1.55,3.92,3.16,6.73,3.57,6.39-2.87,9.07-10.46,6.1-23.51-1.77-29.31-6.18-4.55-14.75-5.24-21.28-1.07-6.8,4.34-10.01,10.45-8.41,18.61,1.45,7.39,4.38,13.5,13.1,14.23l-.12-.08Zm-76.93-14.33c-4.65-6.31-10.24-10.54-18.3-8.62-8.63,2.05-13.7,8.05-15.02,16.58-2.4,15.47-1.37,30.7,6.95,44.43,6.82,11.26,20.12,11.47,28.3,1.13,2.79-3.53,3.38-8.05,5.98-11.99,1.14,1.51,2.05,2.78,3.02,4.01,4.71,5.99,10.83,8.47,18.22,6.52,7.53-1.98,13.26-7.02,13.88-14.68,1.31-16.31-1.02-32.32-10.99-45.91-7.99-10.9-22.05-9.6-28.84,2.02-1.18,2.02-2.08,4.22-3.2,6.51Z"/>
      <path class="cls-5" d="m503.74,470.68c-1.13,5-4.03,3.22-6.29,1.32-20.55-17.21-39.19-36.32-55.99-57.2-2.39-2.97-3.82-6.62,2.64-6.34,2.47.1,2.97-1.93,3.85-3.41,33.24-56.2,66.64-112.33,87.86-174.57,1.64-4.82,4.47-9.44,2.72-15.09-.82-2.66,2.13-4.04,3.79-5.57,22.03-20.21,44.21-40.26,66.12-60.6,5.25-4.88,8.09-4.29,10.33,2.36,1.49,4.44,4.28,7.92,9.1,9.14,2.07.53,2.93-1.12,3.32-2.62,1.47-5.64-2.5-8.8-5.97-11.97-1.72-1.57-4.03-2.47-5.98-3.8-1.45-.99-3.65-1.87-2.39-4.23,1.06-1.97,3.1-1.97,4.89-1.17,4.58,2.06,9.02,4.53,14.2,4.6,3.13.05,7.1.59,7.89-3.41.7-3.58-2.49-5.75-5.49-6.87-3.94-1.47-8.05-2.51-12.38-2.41-2.1.04-4.68-.46-4.67-3.13,0-2.54,2.25-3.27,4.58-3.18,5.38.21,9.76-2.12,13.63-5.52,1.93-1.69,4.72-3.67,3.21-6.51-1.33-2.5-4.57-2.38-7.22-2.05-5.36.67-9.95,3.35-14.61,5.86-1.72.93-3.63,3.08-5.62.88-2.21-2.45-.27-4.43,1.51-6.05,3.99-3.64,6.89-8.02,8.99-12.92.98-2.3,2.92-4.87-.28-7.01-3.4-2.28-6.07-.72-8.23,1.98-4,5-6.31,10.94-9.03,16.66-.97,2.05-1.31,5.4-4.3,4.67-2.62-.64-3.63-3.38-3.67-6.35-.07-4.96,1.12-10.17-1.95-14.7-2.32-3.44-5.42-6.38-9.82-5.1-4.02,1.18-3.86,5.22-3.95,8.69-.1,4.34.97,8.46,3.11,12.16,2.31,3.99,1.34,6.04-2.9,7.72-22.19,8.79-40.69,23.39-59.12,38.06-1.86,1.48-3.63,3.08-5.55,4.49-1.92,1.41-4.22,3.21-6.09.32-1.58-2.44.83-3.83,2.42-5.07,9.99-7.82,19.81-15.91,30.15-23.23,5.89-4.17,8.71-7.51,8.25-16.13-1.12-20.85-6.09-40.18-15.89-58.3-13.76-25.42-33.46-44.06-63.15-48.06-48.58-6.55-86.52,11.82-113.37,52.39-15.9,24.02-22.88,50.99-21.28,79.86.3,5.44-4.38,10.2-1.36,15.84.57,1.07-.8,2.44-2.37,2.48-2.34.06-3.06-1.76-3.71-3.51-3.51-9.43-7.77-18.52-12.76-27.25-14.79-25.85-33.72-47.87-61.8-59.4-49.18-20.19-104.88-2.43-135.39,47.5-21.76,35.61-27.83,74.26-20.41,115.22.93,5.14,3.03,7.16,8.31,6.8,8.92-.6,17.67,2.53,26.67,1.53,2.13-.24,4.64.09,4.73,2.92.11,3.33-2.58,3.61-5.05,3.45-9.71-.61-19.4-1.39-29.11-2.01-17.19-1.09-34.38-1.32-51.54.35-5.62.55-9.36.05-8.04-7.33.97-5.43-.83-10.52-5.18-14.24-1.79-1.53-3.57-.25-4.89,1.08-4.34,4.38-3.58,9.73-2.3,14.92.75,3.04,2.42,5.84,3.59,8.79.66,1.66,1.84,3.59-.54,4.8-1.98,1-3.65.01-4.72-1.71-3.38-5.43-8.17-9.13-14.31-10.57-3.14-.74-7.42-1.99-9.35,1.79-1.64,3.22,1.28,5.92,3.39,8.25,3.85,4.24,8.66,6.74,14.32,7.87,1.41.28,4.1.01,3.98,2.85-.14,3.16-2.6,2.76-4.65,2.88-5.55.33-11.18.52-16.1,3.49-2.46,1.49-5.5,3.5-4.75,6.7.95,4.03,5.05,2.49,7.41,2.06,5.36-.99,10.53-3,15.8-4.51,1.92-.55,4.18-2.16,5.72.33,1.81,2.92-.81,4.22-2.66,5.62-4.47,3.38-8.45,7.24-11.24,12.15-.91,1.61-1.67,3.78-.18,5.21,1.77,1.69,3.4-.23,4.7-1.28,4.15-3.37,7.47-7.46,10.08-12.13.91-1.63,1.96-3.44,4.24-2.51,1.88.77,1.26,2.7,1.28,4.19.09,4.76-.23,9.56.21,14.28.27,2.95.85,7.1,5.26,6.09,3.69-.85,4.06-4.27,3.3-7.76-2.63-12.06-2.61-12.01,9.42-9.03,23.64,5.84,47.31,11.32,71.98,9.65,5.55-.38,5.75.15,4.75,5.61-.53,2.89,1.87,4.15,3.23,5.88,25.99,33.02,58.27,58.98,92.72,82.5,24.26,16.56,49.75,31.1,75.03,45.98,1.14.67,2.36,1.85,3.48,1.79,10.73-.64,7.08,5.8,5.48,11.06-7.83,25.6-19.32,49.64-31.33,73.47-1.46,2.89-2.77,6.2-6.94,3.13.1-2.78.47-5.15,2-7.92,11.1-20.15,19.45-41.58,27.76-62.98,2.03-5.23.23-10.11-5.11-13.24-16.1-9.44-32.63-18.32-48.27-28.33-16.26-10.4-32.44-21.22-47.93-32.92-9.2-6.94-17.83-14.58-27.55-20.95-6.35-4.16-10.49-11.56-16.18-16.91-7.55-7.08-14.37-14.83-22.94-21.07-4.08-2.97-6.32-10.49-10.2-15.53-1.24-1.6-1.94-2.67-4.08-2.63-21.84.33-43.05-3.59-64.03-9.35-2.25-.62-6.22-1.69-5.78,3.54.6,7.1-1.98,11.51-9.82,12.28-8.91.88-8.85-6.09-10.81-11.41-.33-.89-.35-1.88-.62-3.5-6.4,3.72-12.22,11.56-19.46,4.48-5.33-5.21.46-10.99,2.16-16.54-7.17-.45-15.33,1.22-18.45-7.69-1.6-4.57,6.19-12.73,13.76-15.17-2.53-3.3-5.22-6.47-7.53-9.9-4.51-6.71-.63-15.41,7.32-16.41,2.32-.29,4.74-.06,7.09.19,5.61.59,8.89-1.12,9.9-7.34.77-4.76,2.98-10.13,8.41-10.81,7.22-.9,11.27,4.29,14.3,10.2,2,3.91.12,10.26,4.61,11.9,4.15,1.52,9.38.06,14.14,0,8.19-.1,16.39-.12,24.58-.17.52-.2,1.05-.39,1.57-.59-.45-.72-.89-1.44-1.34-2.16-3.59-16.45-2.66-33.23-2.64-49.82,0-10.44,3.09-20.89,5.81-31.18,2.74-10.4,6.78-20.41,10.32-30.43,3.22-9.12,10.55-17.2,17.35-24.54,11.86-12.81,24.02-25.36,40.34-33.07,10.96-5.17,22.48-10.15,34.03-10.8,32.33-1.82,63.01,3.79,88.53,26.58,17.79,15.9,31.35,34.69,42.76,58.04-.34-19.02,4.89-35.03,6.32-51.56.33-3.81,3.82-5.1,5.21-8.34,7.55-17.62,17.45-34.02,31.56-47.16C397.92,11.47,423.12.79,452.67.04c19.17-.49,36.65,3.78,54.34,11.05,8.51,3.5,11.81,10.56,18.05,15.31,6.57,4.99,10.62,12.47,15.21,19.33,13.71,20.52,18.38,43.72,20.42,67.74.12,1.43-.76,3.37,1.18,4.11,2.09.8,3.13-.35,4-2.35,1.91-4.38,6.58-1.84,9.88-3.27,4.41-1.91,5.26-3.86,3.76-7.74-2.34-6.07-2-11.96.26-18.05,2.67-7.22,7.86-7.74,13.81-5.54,6.38,2.36,10.39,7.4,12.78,14.6,1.93-2.48,3.48-4.13,4.63-6.02,4.55-7.48,9.45-9.22,16.98-5.75,6.24,2.88,5.1,8.97,3.73,13.14-2.01,6.1-.79,7.49,5.1,6.93,4.77-.45,10.09-.61,12.34,4.54,2.01,4.6-.9,8.59-4.1,11.94-3.04,3.18-2.17,5.8.46,8.89,7.91,9.27,5.07,17.18-6.96,18.98-3.56.53-2.16,1.61-1.93,3.73.39,3.55,1.25,7.32-.63,10.79-3.81,7.04-12.78,7.13-18.11.07-1.85-2.46-3.33-5.2-5.16-8.11-10.96,6.58-18.29,17.23-28.23,25-12.01,9.39-22.73,20.43-34.15,30.6-2.96,2.63-3.89,6.13-4.88,9.5-14.23,48.69-37.77,93.13-62.47,137.03-10.15,18.05-20.65,35.91-31.32,53.66-2.16,3.6-2.08,5.71.69,8.78,14.95,16.53,30.16,32.79,47.22,47.2,1.58,1.34,3.56,2.34,4.18,4.57Z"/>
      <path class="cls-5" d="m279.63,524.34c-.83,3.41,2.77,4.84,3.38,7.55.6,2.67,5.48,5.46.93,7.97-3.81,2.11-4.54-2.43-5.88-4.67-8.5-14.09-20.63-23.21-36.68-26.85-25.27-5.72-42.09,8.65-37.92,34.22,6.39,39.14,44.33,67.16,85.03,49.58,12.58-5.43,21.61-15.24,28.62-26.68,19.7-32.12,30.39-67.26,33.87-104.67.24-2.57-.58-5.89,2.82-6.59,3.39-.7,3.45,2.31,3.72,4.71.27,2.4,2.52,2.58,4.1,3.15,8.94,3.23,18,6.04,27.42,7.67,3.03.52,5.14-.37,7.22-2.1,4.07-3.38,8.06-6.85,12.12-10.23,4.92-4.1,9.16-8.2,3.53-14.94-1.2-1.44-2.15-4.18.75-5.26,2.59-.97,3.75,1.39,4.77,3.19,8.76,15.43,18.5,30.23,29.37,44.23,9.25,11.91,18.92,23.36,31.43,32.25,41.27,29.33,96.4-5.45,101.04-43.92.64-5.3.33-10.51-.78-15.77-2.31-11.01-7.28-20.72-18.37-23.97-12.03-3.53-23.57-.56-32.79,8.74-10.2,10.29-13.75,23.43-16.09,37.16-.61,3.57.73,10.14-4.1,9.57-4.8-.58-1.69-6.71-1.83-10.37-.1-2.59.59-5.21.93-7.82,2.24-11.83,6.74-22.52,15.33-31.26,2.32-2.36,5.46-4.24,5.76-8.12.05-.58.71-1.58,1.12-1.59,10.3-.4,20-6.06,30.81-2.73,17.88,5.5,23.02,17.54,24.94,31.19,3.62,25.81-7.32,45.75-28.16,60.76-18.25,13.15-38.29,19.01-60.37,13.49-18.51-4.63-32.4-16.85-44.35-31.19-11.32-13.58-21.86-27.77-30.9-43.02-1.09-1.85-2.6-2.31-4.06-.18-3.57,5.21-9.18,8.29-13.37,13.06-5.73,6.52-14.95,5.6-22.87,4.11-8.02-1.51-16.24-3.12-23.84-8.73-3.24,23.39-7.88,45.56-16.46,66.65-7.8,19.16-16.26,38.05-31.7,52.61-14.62,13.8-32.28,20.67-52.09,18.04-18.57-2.47-33.84-11.61-45.02-27.68-6.92-9.94-11.57-20.4-14.53-31.92-4.2-16.33,8.06-43.82,31.66-42.34,19.58,1.23,35.43,7.18,48.55,21.32.71.77,1.16,2.61,2.92,1.39Z"/>
      <path class="cls-5" d="m356.7,281.24c1.12-2.29,2.02-4.49,3.2-6.51,6.8-11.62,20.86-12.92,28.84-2.02,9.97,13.59,12.3,29.6,10.99,45.91-.62,7.65-6.35,12.69-13.88,14.68-7.39,1.95-13.52-.53-18.22-6.52-.97-1.23-1.88-2.5-3.02-4.01-2.6,3.94-3.19,8.47-5.98,11.99-8.18,10.34-21.48,10.14-28.3-1.13-8.32-13.73-9.35-28.96-6.95-44.43,1.32-8.53,6.39-14.53,15.02-16.58,8.06-1.92,13.65,2.32,18.3,8.62Zm-.74,23.6c.03-7.93-1.7-16.58-8.14-23.5-2.58-2.77-5.89-4.25-9.9-1.88-4.48,2.64-5,6.69-3.88,10.93.9,3.41,1.72,7.75,6.93,7.19,1.78-.19,3.14-.06,3.79,1.75.63,1.76-.45,2.9-1.56,4.1-1.41,1.52-2.77,3.12-3.91,4.84-2.78,4.22.43,7.43,2.2,10.71,1.29,2.39,3.61,4.09,6.57,3.24,3.77-1.08,6.55-3.61,7.35-7.51.57-2.8.36-5.75.56-9.87Zm36.72-3.73c-1.04-8.57-2.59-17.64-8.71-25.11-2.43-2.96-5.53-5.45-9.54-3.92-2.63,1.01-4.56,3.31-4.37,6.75.24,4.52,2.18,9.64,5.91,10.1,10.42,1.28,5.83,4.36,2.22,8.82-3.35,4.14-2.2,9.03.46,13.29,1.63,2.61,4.14,4.21,7.4,2.95,4.81-1.87,6.5-5.81,6.63-10.66.01-.53,0-1.05,0-2.23Zm1.37,16.01c-6.4,2.56-12.76,4.87-17.91.06-5.7-5.32-7.68-12.44-4.93-20.08.66-1.83.73-2.85-.59-4.02-3.47-3.07-5.51-7.01-6.32-11.39-2.13.25-1.9,1.39-2.04,2.39-1.63,12.16,3.08,23.24,6.78,34.22,1.61,4.8,5.8,10.32,13.06,9.4,6.03-.77,10.13-3.73,11.96-10.57Zm-66.62-22.17c-.65,12.28,2.01,22.4,5.38,32,1.8,5.12,6.06,10.6,13.95,8.55,4.69-1.22,6.97-3.04,8.37-9.09-14.47,3.79-24.42-3.88-21.43-17.67,1.41-6.5-1.31-9.15-6.28-13.79Z"/>
      <path class="cls-5" d="m292.11,327.98c3.55,26.73,21.47,55.82,55.94,64.57,27.22,6.91,81.67-12.71,87.76-52.89,2.14-14.13,1.81-28.44-1.19-42.55-.33-.51-.67-1.03-1-1.54,0,0,.12.08.12.08.68-6.69-1.59-11.84-7.67-15.17-2.14-1.17-4.32-2.82-2-5.56,2.02-2.38,3.92-.37,5.48.82,7.57,5.75,15.04,11.62,22.55,17.45.34,6.44-2.47,6.03-6.39,2.87-1.49-1.21-3.22-2.76-4.88-1.55-1.7,1.24-.19,3.17.18,4.94,11.83,56.11-17.45,91.06-67.43,99.2-47.12,7.67-75.88-25.77-84.31-55.36-.87-3.05-1.71-6.11-2.49-9.18-1.31-5.21-2.78-8.72-8.61-3.3-3.83,3.56-5.39.95-5.14-3.28,6.36-7.36,11.05-15.84,16.16-24.04,1.03-1.66,1.44-5.22,4.68-3.63,3.42,1.68,1.95,4.39.35,6.57-5.01,6.79-4.79,14.03-2.1,21.53Z"/>
      <path class="cls-1" d="m452.1,293.19c-7.51-5.83-14.98-11.7-22.55-17.45-1.56-1.18-3.46-3.2-5.48-.82-2.32,2.74-.15,4.38,2,5.56,6.08,3.33,8.35,8.47,7.67,15.17-8.72-.73-11.65-6.84-13.1-14.23-1.6-8.16,1.61-14.26,8.41-18.61,6.53-4.17,15.1-3.48,21.28,1.07,7.87,5.8,10.85,18.85,1.77,29.31Z"/>
      <path class="cls-1" d="m292.11,327.98c-2.69-7.51-2.91-14.74,2.1-21.53,1.61-2.18,3.07-4.89-.35-6.57-3.24-1.59-3.65,1.97-4.68,3.63-5.11,8.2-9.8,16.67-16.16,24.04-8.07-4.9-9.15-12.66-7.31-20.7,1.48-6.48,6.3-11.14,12.94-12.49,7.59-1.55,14.54-.07,19.76,6.58,7.09,9.01,4.23,21.74-6.31,27.06Z"/>
      <path class="cls-1" d="m433.62,295.57c.33.51.67,1.03,1,1.54-.33-.51-.67-1.03-1-1.54Z"/>
      <path class="cls-4" d="m355.96,304.84c-.2,4.12.01,7.08-.56,9.87-.8,3.9-3.58,6.43-7.35,7.51-2.95.85-5.27-.85-6.57-3.24-1.77-3.27-4.99-6.49-2.2-10.71,1.14-1.72,2.5-3.32,3.91-4.84,1.11-1.2,2.19-2.34,1.56-4.1-.65-1.81-2-1.94-3.79-1.75-5.21.56-6.03-3.78-6.93-7.19-1.12-4.24-.59-8.29,3.88-10.93,4.01-2.36,7.32-.88,9.9,1.88,6.45,6.92,8.17,15.56,8.14,23.5Z"/>
      <path class="cls-4" d="m392.67,301.11c0,1.18.01,1.7,0,2.23-.13,4.85-1.83,8.79-6.63,10.66-3.26,1.26-5.77-.34-7.4-2.95-2.66-4.26-3.81-9.16-.46-13.29,3.61-4.46,8.2-7.54-2.22-8.82-3.73-.46-5.67-5.59-5.91-10.1-.18-3.44,1.74-5.74,4.37-6.75,4.01-1.53,7.11.95,9.54,3.92,6.12,7.47,7.67,16.53,8.71,25.11Z"/>
      <path class="cls-3" d="m394.05,317.11c-1.83,6.84-5.93,9.81-11.96,10.57-7.26.92-11.45-4.6-13.06-9.4-3.69-10.98-8.41-22.07-6.78-34.22.13-1-.09-2.14,2.04-2.39.82,4.38,2.85,8.32,6.32,11.39,1.32,1.17,1.25,2.19.59,4.02-2.75,7.64-.76,14.76,4.93,20.08,5.15,4.81,11.51,2.51,17.91-.06Z"/>
      <path class="cls-3" d="m327.42,294.94c4.97,4.64,7.69,7.29,6.28,13.79-3,13.79,6.95,21.46,21.43,17.67-1.4,6.05-3.68,7.87-8.37,9.09-7.9,2.05-12.16-3.43-13.95-8.55-3.37-9.6-6.02-19.72-5.38-32Z"/>
    </g>
  </g>
</svg>