<?xml version="1.0" encoding="UTF-8"?>
<svg id="_레이어_2" data-name="레이어 2" xmlns="http://www.w3.org/2000/svg" viewBox="0 0 172.67 163.19">
  <defs>
    <style>
      .cls-1 {
        fill: #fff;
      }

      .cls-2 {
        fill: #86d41f;
      }

      .cls-3 {
        fill: #080706;
      }
    </style>
  </defs>
  <g id="_레이어_1-2" data-name="레이어 1">
    <g>
      <path class="cls-3" d="m94.98,20.33c8.65-11.7,21.6-12.56,30.76-19.95,2.68-2.16,26.72,5.36,29.19,8.29,5.01,5.91,4.72,13.93-1,23.1-1.67,2.68-3.81,5.08-5.53,7.74-1.67,2.56-5.26,3.7-5.61,7.94,5.73.48,10.95,1.92,15.96,4.91,11.01,6.57,15.42,16.17,13.46,28.33-1.75,10.84-10.46,15.65-19.76,19.11-4.04,1.5-8.39,2.19-12.6,3.25,1.28,4.01,2.03,8.2,3.14,12.2,5.72,20.7-9.31,36.52-25.07,42.74-21.23,8.38-40.84-.43-50.93-21.65-4.25,6.52-7.57,13.71-13.43,19.08-5.31,4.87-10.96,9.9-18.82,6.84-8.26-3.21-11.42-10.6-12.3-18.81-.87-8.07,1.69-15.64,4.79-22.99,2.58-6.13,1.65-13.86,9.48-17.81-12.1.3-22.06-1.64-30.57-9.34-6.89-6.24-9.76-23.18,1-28.15,4.78-2.21,6.68-8.04,4.45-11.62-4.99-7.99,1.35-13.72,3.08-19.79,2.26-7.94,15.8-9.64,24.46-4.47,9.42,5.62,10.73,5.2,15.79-4.37,1.82-3.44,4.16-6.6,6.12-9.97,4.63-7.96,11.75-11.4,20.63-10.58,8.02.74,11.28,6.8,13.31,15.96Zm45.82,74.66c5.44.62,11.28-1.49,16.57-5.14,12.23-8.44,12.64-20.69.99-30.08-5.35-4.31-11.66-6.22-18.42-7.07-2.67-.34-6.39.7-7.6-2.69-1.35-3.79,2.24-5.59,4.43-7.73,5.65-5.5,11.12-11.19,13.99-18.68,2.03-5.3,2.17-11.08-4.17-13.15-4.36-1.42-9.23-2.22-14.16-1.71-14.42,1.49-25.56,8.56-34.72,19.37-1.41,1.66-2.49,4.65-5.27,3.56-2.46-.96-3.88-3.36-3.79-6.28.03-.87,0-1.74,0-2.62-.08-4.92-1.46-9.48-6.19-11.54-5.09-2.21-8.98,1.23-12.32,4.46-7.59,7.34-11.51,16.53-12.82,26.96-.32,2.57,1.69,6.48-2.48,7.32-3.38.68-6.06-1.6-8.02-4.31-3.25-4.52-6.86-8.7-11.77-11.45-7.95-4.46-14.41-1.43-16.09,7.52-1.4,7.47.36,14.47,3.9,21,3.28,6.06,2.32,8.29-5.1,7.68-9.25-.75-12.46,4.26-9.39,13.15,1.71,4.96,5.19,7.99,9.95,9.65,8.45,2.95,16.86,2.44,25.05-.95,2.4-.99,4.63-1.36,6.2.83,1.82,2.55-.44,3.93-1.97,5.76-3.09,3.7-6.02,7.61-8.41,11.79-5.69,9.97-10.41,20.45-9.64,32.26.33,4.98,1.93,10.94,7.08,12.49,5.42,1.63,10.09-1.21,13.84-6.32,4.96-6.76,8.79-13.91,11.6-21.7.91-2.53.56-6.93,4.53-5.68,2.77.87,6.71,3.43,5.77,7.41-.49,2.06.25,3.29.78,4.61,7.21,18.12,27.55,26.05,45.36,16.89,16.86-8.67,25.56-24.33,13.96-44.3-6.56-11.29-6.35-11.41,8.34-11.35Z"/>
      <path class="cls-2" d="m140.79,94.99c-14.7-.07-14.9.05-8.34,11.35,11.6,19.97,2.9,35.63-13.96,44.3-17.81,9.16-38.15,1.22-45.36-16.89-.53-1.33-1.27-2.55-.78-4.61.95-3.98-2.99-6.54-5.77-7.41-3.97-1.25-3.62,3.15-4.53,5.68-2.82,7.79-6.64,14.94-11.6,21.7-3.75,5.11-8.42,7.95-13.84,6.32-5.15-1.55-6.75-7.51-7.08-12.49-.77-11.81,3.94-22.29,9.64-32.26,2.39-4.18,5.32-8.09,8.41-11.79,1.53-1.84,3.79-3.21,1.97-5.76-1.57-2.2-3.8-1.82-6.2-.83-8.2,3.39-16.6,3.9-25.05.95-4.77-1.66-8.24-4.7-9.95-9.65-3.06-8.88.15-13.9,9.39-13.15,7.42.6,8.38-1.63,5.1-7.68-3.54-6.53-5.3-13.53-3.9-21,1.68-8.95,8.14-11.98,16.09-7.52,4.91,2.75,8.52,6.93,11.77,11.45,1.95,2.71,4.64,4.99,8.02,4.31,4.18-.84,2.16-4.75,2.48-7.32,1.31-10.43,5.23-19.62,12.82-26.96,3.34-3.23,7.22-6.67,12.32-4.46,4.73,2.06,6.11,6.62,6.19,11.54.01.87.04,1.74,0,2.62-.09,2.92,1.32,5.32,3.79,6.28,2.78,1.09,3.86-1.89,5.27-3.56,9.16-10.81,20.31-17.88,34.72-19.37,4.93-.51,9.81.29,14.16,1.71,6.34,2.07,6.2,7.85,4.17,13.15-2.87,7.49-8.33,13.18-13.99,18.68-2.2,2.14-5.79,3.94-4.43,7.73,1.21,3.4,4.93,2.36,7.6,2.69,6.76.85,13.08,2.76,18.42,7.07,11.65,9.38,11.24,21.64-.99,30.08-5.29,3.65-11.13,5.77-16.57,5.14Zm-56.89,5.12c2.63-.43,6.89,1.03,11.1-1.24,8.63-4.65,14.58-15.49,12.75-24.31-2.05-9.85-15-17.4-30.75-17.92-9.09-.3-17.52,5.63-19.78,13.94-.15.55-.12,1.16-.24,1.72-2.82,12.63,5.13,30.17,26.92,27.81Z"/>
      <path class="cls-3" d="m83.9,100.1c-21.79,2.36-29.74-15.18-26.92-27.81.13-.56.09-1.16.24-1.72,2.26-8.31,10.69-14.24,19.78-13.94,15.74.52,28.7,8.07,30.75,17.92,1.83,8.82-4.13,19.66-12.75,24.31-4.22,2.27-8.47.81-11.1,1.24Zm-3.34-6.87c3.54,0,6.24.41,8.76-.08,5.72-1.12,10.4-4.31,11.29-10.24.74-4.92,2.05-11.51-4.28-13.72-7.04-2.46-13.98-6-21.83-5.57-3.75.2-6.6,1.82-8.78,4.84-3.2,4.44-4.87,9.3-2.12,14.35,3.77,6.93,8.9,12.16,16.96,10.42Z"/>
      <path class="cls-1" d="m80.56,93.23c-8.07,1.75-13.19-3.49-16.96-10.42-2.75-5.05-1.08-9.91,2.12-14.35,2.18-3.02,5.03-4.64,8.78-4.84,7.86-.42,14.79,3.11,21.83,5.57,6.33,2.21,5.01,8.79,4.28,13.72-.89,5.94-5.57,9.13-11.29,10.24-2.52.49-5.22.08-8.76.08Z"/>
    </g>
  </g>
</svg>