<?xml version="1.0" encoding="UTF-8"?>
<svg id="_레이어_2" data-name="레이어 2" xmlns="http://www.w3.org/2000/svg" viewBox="0 0 224.34 351.76">
  <defs>
    <style>
      .cls-1 {
        fill: #0070bb;
      }

      .cls-2 {
        fill: #ec6978;
      }

      .cls-3 {
        fill: #eb6a3c;
      }

      .cls-4 {
        fill: #fff;
      }

      .cls-5 {
        fill: #86d41f;
      }

      .cls-6 {
        fill: #21f993;
      }

      .cls-7 {
        fill: #080706;
      }

      .cls-8 {
        fill: #29aae0;
      }
    </style>
  </defs>
  <g id="_레이어_1-2" data-name="레이어 1">
    <g>
      <path class="cls-7" d="m93.9,311.12c-1.34-5.01-.64-10.3-.65-15.24-.01-5.13-.08-10.54.53-15.79.23-2.02-.61-2.64-2.78-2.68-19.37-.32-36.95-5.72-52.47-17.81-7.39-5.76-13.77-12.3-19.3-19.71-6.86-9.18-11.58-19.48-15.2-30.33C.33,198.5.65,186.98.03,175.58c-.19-3.42.66-6.93,1.29-10.35,3.4-18.51,6.63-27.37,15.17-42.75,4.9-8.83,10.89-17.06,17.95-24.03,13-12.83,28.37-22.48,46.04-27.71,5.55-1.64,11.17-3.58,17.11-3.73,1.27-.03,2.54-.12,3.03-1.59,3.38-10.02,8.74-19.16,12.83-28.85,1.08-2.57,2.29-5.06,3.5-7.56.69-1.42.94-2.35-1.18-2.35-2.17,0-2.74-1.63-2.15-3.19,1.16-3.08,2.06-6.39,4.94-8.49-5.19-5.96-4.57-4.19-2.12-10.95.84-2.33,1.93-1.94,3.2-.64,1.37,1.41,2.56,2.98,3.9,4.55C124.09,4.92,129.99-.04,132.83,0c.88.01,1.47.22.9,1.3-.82,1.56.71,3.45-1.62,5.15,2.68.1,4.7-2,5.93-.36,1.17,1.55-.35,3.53-.93,5.34,1.16.26,2.2.26,3.09-.58,2.73-2.57,3.23.34,2.83,1.62-.91,2.94,1.26,7.05-3.2,8.78-1,.39.15,1.4.46,1.72,2.38,2.44,1.54,3.95-1.26,5.03-1.03.4-1.61,1.48-2.82,1.66-3.82.57-4.08,3.22-3.28,6.19,1.2,4.47,2.57,8.88,3.27,13.5.84,5.53,2.3,10.96,3.33,16.47.29,1.57.71,2.19,2.46,2.51,9.68,1.77,18.9,5.01,27.75,9.29,1.45.7,2.78,1.54,4.48,1.16.61-.14,1.26-.27,1.64.42,2.55,4.55,7.56,6.02,11.33,9.04,12.23,9.79,22.27,21.23,28.85,35.66,2.24,4.93,4,9.91,5.39,15.1,2.91,10.88,3.3,21.84,2.54,33.06-.74,10.88-1.99,21.58-5.24,32.01-4.46,14.33-11.18,27.43-21.49,38.42-7.1,7.58-15.4,13.64-24.53,18.72-8.53,4.74-17.38,8.42-26.76,10.97-2.27.62-3.18,2.09-2.96,4.56.65,7.45,2.7,14.63,4.21,21.91.87,4.21,2.26,8.32,3.41,12.47-3.56,1.39-3.28-1.91-3.74-3.47-3.08-10.37-5.4-20.94-6.85-31.67-.27-1.99-1.08-2.18-2.66-1.83-4.1.92-8.12,2.23-12.37,2.33-1.8.04-1.75,1.21-1.96,2.51-.81,4.95-.15,9.89.2,14.79.75,10.4.55,20.96,5.34,30.72,2.45,4.98,5.73,9.28,10.27,12.18,7.23,4.63,15.46,5.98,23.85,4.43,9.09-1.68,16.78-5.85,21.08-14.64,3.95-8.05,2.15-16.39-4.86-19.61-7.72-3.54-15.07-1.63-21.78,3.22-3.05,2.21-4.96,5.45-7.5,8.11-.74.78-1.6,1.5-2.53.75-1.01-.81-.29-1.78.35-2.58,1.17-1.45,2.35-2.88,3.52-4.32,4.93-5.05,10.77-8.57,17.66-10.19,4.42-1.04,8.33,1.04,12,2.87,8.81,4.38,9.18,16.16,4.7,24.57-5.44,10.23-20.11,16.58-32.87,14.88-15.3-2.04-24.28-10.9-29.38-24.95-1.63.94-1.87,2.43-2.15,4.01-1.81,10.06-6.08,18.57-15.31,23.91-10.66,6.17-21.32,6.15-31.9-.06-6.24-3.66-11.27-8.57-14.46-15.18-3.46-7.18-.95-17.93,7.34-21.27,8.01-3.22,15.79-3.34,23.76-.29,1.1.42,2.2,1.15,3.51.72,1.02,1.93,3.13,2.68,4.53,4.19.36.39,1.17.62.6,1.42-.5.7-1.1,1-1.89.48-.93-.61-1.85-1.25-2.77-1.88-8.04-5.42-16.65-6-25.58-2.73-5.6,2.05-10.07,10.35-8.06,15.28,4.77,11.74,13.48,18.64,26.1,20.57,11.16,1.71,26.3-5.81,30.16-20,1.7-6.26,2-12.53,2.4-18.94.64-10.31-1.11-20.2-3.05-30.17-.37-1.92-1.16-1.96-2.71-1.94-4.95.07-9.86,1.31-14.84.37-1.37-.26-2.15.4-1.9,1.91.61,3.58-.3,7.15-.02,10.71.45,5.76-.18,11.5-.38,17.24-.05,1.36.11,3.71-2.57,3.53ZM118.31,21.23c2.56-.22,4.51-1.97,6.83-2.78,1.69-.59,2.86-.48,2.92,1.79.05,2.11.3,4.21.59,6.3.09.68-.47,2.08,1.02,1.81.97-.17,1.17-1.21.96-2.14-.33-1.45-.78-2.87-1.08-4.32-.26-1.23.23-2.31,1.32-2.82,1.26-.59,2.1.26,2.69,1.3.86,1.51,1.68,3.04,2.54,4.54.31.53.74,1.14,1.45.71.65-.4.51-1.05.13-1.61-.9-1.34-1.85-2.65-2.73-4-.5-.76-.7-1.6-.11-2.44.59-.82,1.32-.43,2-.19,2.65.95,3.5-.08,3.03-2.91-1.82.7-3.49,1.45-5.23,2-2,.63-2.91.09-2.09-2.18.23-.65,1.58-2.15-.13-2.07-3.31.16-2.14-1.93-2.14-3.44,0-1.33.71-2.65.01-3.99-2.91.49-3.67,2.09-2.69,4.79.38,1.04.53,2.17.71,3.27.17,1.06.77,2.41-.6,2.96-1.31.53-1.9-.85-2.6-1.64-2.13-2.41-4.21-4.87-6.69-7.76-.89,4.78,2.53,5.8,4.47,7.83.86.9,2.89,1.18,2.24,2.93-.52,1.4-2.16.99-3.34.94-2.27-.09-3.56.72-3.43,3.16-.12.1-.24.21-.35.31.08-.01.21,0,.24-.04.05-.09.05-.21.07-.32Zm4.68,226.15c2.44,2.86,4.92,3.13,7.46,3.18.78.02,1.64.02,1.83.88.23,1.03-.59,1.6-1.43,1.88-1.52.5-3.16.73-4.61,1.37-1.09.48-1.57,1.61-1.13,2.85.5,1.39,1.74.87,2.55.65,1.15-.31,2.13-1.18,3.27-1.57.74-.25,1.77-.57,2.3.49.51,1.02-.18,1.66-.94,2.14-1.15.72-2.4,1.3-3.53,2.06-1.07.72-1.31,1.9-.77,2.98.61,1.2,1.75.62,2.61.29,1.38-.53,2.61-1.37,3.43-2.66.84-1.33,2.17-.89,2.96-.4,1.13.7-.13,1.41-.49,2.1-.46.9-.85,1.98.09,2.68.79.59,1.87.58,2.84.13,1.09-.5,1.79-1.46,2.2-2.45.96-2.29,2.65-3.83,4.86-4.59,8.58-2.93,16.73-6.74,24.32-11.73,5.43-3.57,11.32-6.67,14.96-12.32,1.17-1.81,2.68-2.29,3.87-1.32,1.58,1.29-.38,2.4-1.17,3.28-9.61,10.54-21.73,17.36-34.79,22.43-4.85,1.88-8.55,4.53-11.47,8.59-.36.5-1.4.86-.64,1.76.59.7,1.15.23,1.89.09,5.75-1.1,11.13-3.56,16.39-5.72,16.02-6.59,29.85-16.41,40.66-30.35,5.47-7.06,9.61-14.79,12.88-22.89,6.85-17,8.27-34.99,8.06-53.13-.12-9.84-3.19-19.14-5.97-28.44-2.17-7.28-6.61-13.52-10.9-19.62-8.37-11.91-19.69-20.95-32.3-27.78-19.22-10.42-40.21-14.57-62.05-13.73-9.59.37-18.83,2.76-28.12,5.33-8.54,2.37-16.4,5.81-23.96,10.1-11.64,6.61-21.2,15.73-29.44,26.15C12.37,130.75,3.21,154.07,3.11,180.71c-.07,17.46,4.25,33.7,12.84,48.8,6.35,11.16,14.8,20.45,24.98,28.37,7.66,5.96,15.99,10.62,25.22,12.95,13.96,3.53,28.26,5.02,42.74,4,9.06-.64,18.13-1.01,27.14-3.13-2.25-2.05-3.94-4.2-7.38-4.2-2.46,0-4.29-1.99-3.56-4.98.18-.75.56-1.33-.33-1.88-3.22-2.01-3.64-4.49-1.15-7.4.7-.81.36-1.33-.43-1.72-.73-.36-1.07-1.51-2.16-1.15-1.05.34-.62,1.06-.47,1.8.35,1.78-.34,3.3-1.89,4.08-3.85,1.95-7.27,5.11-12.13,4.38-1.91-.29-3.6.75-5.33,1.44-13.51,5.41-27.3,8.14-41.73,4.09-1.08-.3-2.99-.35-2.59-2.02.47-1.99,2.18-.96,3.43-.66,17.18,4.13,32.99.4,47.88-8.41,1.64-.97,2.81-2.08,4.94-.63,1.24.85,3.28.58,4.28-1.3-.81-.98-1.9-.8-2.82-1.06-.91-.26-2.33-.02-2.3-1.36.03-1.55,1.45-1.35,2.57-1.39,1.92-.07,3.67-.65,5.14-1.92.49-.43.83-1.03.52-1.65-.32-.65-1.08-.68-1.63-.46-1.14.47-2.21,1.1-3.32,1.65-1.02.5-2.19,1.15-2.96-.16-.71-1.2.51-1.76,1.27-2.32,1.92-1.41,3.74-2.91,5.02-4.95.24-.38.41-1.05.23-1.39-.38-.74-1.13-.37-1.6-.07-1.68,1.07-3.29,2.23-4.93,3.34-1.02.69-2.21,1.83-3.26.55-.95-1.16.46-1.96,1.19-2.73,1.19-1.27,2.53-2.44,3.14-4.13.34-.93.62-2.06-.22-2.82-1.05-.95-1.84.21-2.49.75-1.34,1.1-2.48,2.44-3.76,3.61-.63.57-.91,2.01-2.28,1.11-1.16-.76-.82-1.68-.26-2.58,1.41-2.28.53-4.3-.71-6.25-.47-.74-1.18-.78-1.94-.3-1.98,1.26-2.78,3.14-2.72,5.39.07,2.46-1.23,3.83-3.29,4.93-4.41,2.34-9.09,3.99-13.86,5.29-7.14,1.95-14.4,2.72-21.72.85-.91-.23-2.27-.49-2.07-1.73.23-1.51,1.65-1.4,2.71-1.01,6.83,2.53,11.74.43,14.92-6.03.22-.44.6-.79.9-1.19,4.77-6.39,9.58-12.74,14.28-19.18,4.69-6.44,9.26-12.96,13.88-19.45.73-1.03,1.76-1.43,2.92-1.11,1.13.3.7,1.41.83,2.19,1.57,9.36,2.18,18.81,2.81,28.26.11,1.67.08,3.19,2.33,3.51,1.66.24,2.54,1.52,2.65,3.16.11,1.63.72,2.36,2.5,2.49,2.95.22,3.95,2.29,2.74,4.71-1.4,2.79-.05,3.58,2.04,4.49-.47-6.43-.65-12.65-1.46-18.79-.71-5.36-1.39-10.75-2.27-16.09-.73-4.48-.1-9.42-.74-14.14-.13-.94-.61-2.08.36-2.79,1.12-.81,2.01,0,2.99.63,12.66,8.09,26.15,14.77,38.98,22.57,5.76,3.5,5.73,3.55,9.81-1.37.07-.09.1-.22.14-.34.42-1.1,1.49-1.11,2.18-.8.98.44.73,1.41.22,2.22-.66,1.04-1.25,2.14-2,3.1-6.84,8.75-16.17,14-26.09,18.33-4.31,1.88-8.57,4.81-13.66,1.83-.77-.45-2.28-1.71-3.2.03-.73,1.4-.13,2.68.96,3.68.64.59,1.42,1.02,2.07,1.59.63.55,1.54,1.05,1.19,2.11-.37,1.12-1.44.77-2.24.84-2.41.23-4.83.37-8.08.61Zm2.95-10.08c3.23-3.46,5.92-2.51,8.54-1.24,1.68.81,3.31.93,5.03.27,8.51-3.28,16.62-7.26,23.83-12.96,1.95-1.54,2.38-2.34-.1-3.85-13.33-8.1-27.6-14.53-40.3-23.11.97,13.28,1.94,26.49,3,40.89Zm-16.94-5.78c-.99-10.55-.85-20.36-3.45-30.44-10.3,13.95-20.3,27.49-30.8,41.71,7.14-1.18,12.98-3.15,18.63-5.76,1.88-.87,3.08-1.81,3.14-4.36.09-3.79,3.05-6.9,5.95-7.22,3.75-.41,4.19,2.79,5.46,5.08.06.1.18.17,1.07.99Zm6.82-192.02q-2.84,4.8,1.13,7.92c5.4,4.19,10.44,8.8,15.38,13.51,1.25,1.19,2.22,2.73,4.91,4.07-2.37-3.18-.88-6.41-2.77-8.51-5.62-6.28-11.82-11.96-18.66-16.99Zm16.43,25.48c-5.54-5.74-11.13-10.96-17.35-15.48-.78-.57-1.94-2.85-3.06-.42-.69,1.5-3,3.09-.2,5.02,3.06,2.11,6.2,4.26,8.76,6.91,3.25,3.36,7.01,4.32,11.84,3.97Zm-12.81-33.1c-.23,2.17-3.98,3.66-1.01,5.94,5.08,3.9,9.78,8.23,14.63,12.97.59-10.37-8.05-13.47-13.62-18.92Zm-.32,32.47c-2.86-3.39-6.14-5.93-9.56-8.33-.98-.69-1.52-.46-1.96.54-1.17,2.69-2.36,5.36-3.76,8.54,5.43-.51,10.27-.93,15.28-.76Zm6.56-42.77c-2.84.75-3.06,3.13-4.04,4.9-.65,1.15-1.4,2.25.18,3.53,2.86,2.32,5.52,4.89,8.27,7.35.01-2.45.51-5.89-1.56-6.01-4.22-.25-2.94-3.02-2.83-4.88.09-1.59.34-3.13,0-4.88Z"/>
      <path class="cls-8" d="m150.99,312.05c-1.17,1.44-2.35,2.88-3.52,4.32-.64.79-1.36,1.76-.35,2.58.93.75,1.79.03,2.53-.75,2.54-2.66,4.46-5.91,7.5-8.11,6.71-4.86,14.06-6.76,21.78-3.22,7.02,3.22,8.81,11.55,4.86,19.61-4.3,8.79-12,12.96-21.08,14.64-8.39,1.55-16.62.19-23.85-4.43-4.54-2.9-7.82-7.2-10.27-12.18-4.79-9.76-4.6-20.32-5.34-30.72-.35-4.9-1.01-9.84-.2-14.79.21-1.3.16-2.47,1.96-2.51,4.24-.09,8.27-1.41,12.37-2.33,1.58-.35,2.39-.16,2.66,1.83,1.45,10.73,3.77,21.29,6.85,31.67.47,1.57.18,4.86,3.74,3.47.12.31.24.63.35.94Z"/>
      <path class="cls-8" d="m123,247.38c3.25-.24,5.67-.38,8.08-.61.8-.07,1.87.27,2.24-.84.35-1.06-.55-1.56-1.19-2.11-.66-.57-1.43-1-2.07-1.59-1.09-1-1.7-2.28-.96-3.68.92-1.75,2.43-.48,3.2-.03,5.1,2.98,9.35.05,13.66-1.83,9.92-4.33,19.26-9.58,26.09-18.33.75-.97,1.34-2.06,2-3.1.51-.81.76-1.78-.22-2.22-.69-.31-1.76-.3-2.18.8-.04.11-.06.25-.14.34-4.08,4.92-4.05,4.87-9.81,1.37-12.84-7.8-26.32-14.47-38.98-22.57-.98-.62-1.87-1.45-2.99-.63-.97.71-.48,1.85-.36,2.79.63,4.72,0,9.65.74,14.14.87,5.34,1.56,10.73,2.27,16.09.81,6.14.99,12.37,1.46,18.79-2.09-.91-3.44-1.7-2.04-4.49,1.21-2.42.21-4.5-2.74-4.71-1.78-.13-2.39-.86-2.5-2.49-.11-1.65-.99-2.92-2.65-3.16-2.25-.32-2.22-1.85-2.33-3.51-.64-9.45-1.25-18.9-2.81-28.26-.13-.78.29-1.89-.83-2.19-1.16-.31-2.19.08-2.92,1.11-4.62,6.49-9.19,13.02-13.88,19.45-4.7,6.44-9.51,12.79-14.28,19.18-.3.4-.69.75-.9,1.19-3.18,6.46-8.09,8.56-14.92,6.03-1.06-.39-2.47-.5-2.71,1.01-.19,1.24,1.16,1.5,2.07,1.73,7.32,1.87,14.58,1.1,21.72-.85,4.77-1.31,9.45-2.95,13.86-5.29,2.06-1.09,3.36-2.47,3.29-4.93-.06-2.26.74-4.13,2.72-5.39.75-.48,1.46-.43,1.94.3,1.25,1.95,2.12,3.97.71,6.25-.56.9-.91,1.82.26,2.58,1.38.9,1.66-.54,2.28-1.11,1.29-1.17,2.42-2.51,3.76-3.61.65-.54,1.44-1.7,2.49-.75.84.76.56,1.89.22,2.82-.61,1.69-1.95,2.86-3.14,4.13-.73.78-2.14,1.57-1.19,2.73,1.06,1.29,2.25.14,3.26-.55,1.65-1.12,3.26-2.28,4.93-3.34.47-.3,1.22-.66,1.6.07.18.34,0,1.01-.23,1.39-1.28,2.04-3.1,3.54-5.02,4.95-.76.56-1.97,1.12-1.27,2.32.77,1.31,1.94.66,2.96.16,1.11-.55,2.18-1.18,3.32-1.65.55-.23,1.3-.19,1.63.46.31.62-.02,1.22-.52,1.65-1.47,1.28-3.22,1.85-5.14,1.92-1.11.04-2.53-.16-2.57,1.39-.03,1.33,1.39,1.1,2.3,1.36.92.26,2.01.08,2.82,1.06-1,1.88-3.04,2.14-4.28,1.3-2.13-1.45-3.3-.34-4.94.63-14.89,8.81-30.7,12.54-47.88,8.41-1.24-.3-2.95-1.33-3.43.66-.4,1.67,1.52,1.72,2.59,2.02,14.43,4.05,28.22,1.33,41.73-4.09,1.73-.69,3.42-1.73,5.33-1.44,4.87.74,8.28-2.43,12.13-4.38,1.55-.78,2.24-2.31,1.89-4.08-.15-.74-.58-1.45.47-1.8,1.08-.36,1.42.79,2.16,1.15.78.39,1.12.91.43,1.72-2.49,2.91-2.06,5.39,1.15,7.4.89.56.52,1.13.33,1.88-.73,2.99,1.1,4.98,3.56,4.98,3.44,0,5.13,2.15,7.38,4.2-9,2.12-18.08,2.49-27.14,3.13-14.48,1.02-28.78-.47-42.74-4-9.24-2.33-17.56-6.99-25.22-12.95-10.18-7.92-18.63-17.21-24.98-28.37-8.59-15.1-12.91-31.34-12.84-48.8.1-26.65,9.26-49.96,25.6-70.62,8.24-10.42,17.81-19.53,29.44-26.15,7.56-4.3,15.42-7.74,23.96-10.1,9.29-2.58,18.53-4.97,28.12-5.33,21.84-.84,42.83,3.31,62.05,13.73,12.61,6.83,23.93,15.86,32.3,27.78,4.29,6.1,8.72,12.34,10.9,19.62,2.78,9.3,5.85,18.6,5.97,28.44.22,18.14-1.21,36.13-8.06,53.13-3.26,8.1-7.41,15.83-12.88,22.89-10.8,13.94-24.64,23.76-40.66,30.35-5.26,2.16-10.64,4.62-16.39,5.72-.74.14-1.3.61-1.89-.09-.76-.9.28-1.26.64-1.76,2.93-4.06,6.63-6.7,11.47-8.59,13.06-5.07,25.18-11.89,34.79-22.43.8-.87,2.76-1.99,1.17-3.28-1.2-.97-2.71-.5-3.87,1.32-3.64,5.65-9.53,8.75-14.96,12.32-7.58,4.99-15.73,8.79-24.32,11.73-2.21.76-3.9,2.3-4.86,4.59-.42.99-1.12,1.95-2.2,2.45-.97.45-2.06.45-2.84-.13-.94-.7-.56-1.77-.09-2.68.35-.69,1.61-1.4.49-2.1-.79-.49-2.12-.93-2.96.4-.82,1.29-2.04,2.13-3.43,2.66-.86.33-2,.92-2.61-.29-.55-1.08-.3-2.26.77-2.98,1.12-.76,2.37-1.33,3.53-2.06.76-.48,1.44-1.12.94-2.14-.52-1.06-1.56-.74-2.3-.49-1.14.39-2.12,1.26-3.27,1.57-.81.22-2.05.74-2.55-.65-.44-1.24.03-2.37,1.13-2.85,1.46-.64,3.09-.87,4.61-1.37.85-.28,1.66-.85,1.43-1.88-.19-.87-1.05-.87-1.83-.88-2.54-.06-5.02-.32-7.46-3.18Zm-102.95-53.28c.25,5.29,1.5,9.42,2.95,13.41,4.97,13.76,13.5,25.08,24.31,34.83,2.6,2.34,4.08,2.48,6.5-.39,14.39-17.09,29.33-33.75,42.52-51.81,2.97-4.07,7.82-7.39,7.84-13.14.02-5.3-.38-10.61-.49-15.92-.12-5.67-.08-11.39-1.03-17.08-1.53-9.21.39-18.61-1.25-27.87-.43-2.4,1.17-5.21.62-7.54-1.66-7.08-1.4-14.1-.62-21.2.25-2.24-.59-3.48-3.22-3.22-4.94.5-10.04,1.35-14.44,3.06-11.98,4.64-23.93,9.51-33.94,18.2-3.72,3.23-7.25,6.62-10.3,10.31-6.94,8.42-11.79,18.12-15.16,28.54-2.85,8.79-4.58,17.84-5.07,26.99-.43,7.9-1.19,15.92.79,22.82Zm185.2-30.7c-.4-4.6-.98-7.64-1.44-10.68-1.6-10.45-4.47-20.37-10.4-29.23-3.46-5.17-6.51-10.56-11-15.05-11.89-11.87-25.22-20.77-42.3-23.29-4.26-.63-8.62-1.1-12.91-2.24-3.4-.9-7.8.5-11.82.22-1-.07-1.5,1.22-1.33,2.32.96,6.28-.28,12.68.75,18.89.65,3.93,1.03,7.84,1.28,11.77,1.28,20.14,2.53,40.29,3.74,60.43.13,2.24.74,3.68,2.99,4.87,9.24,4.85,18.3,10.03,27.45,15.05,12.45,6.84,24.93,13.63,37.37,20.48,1.95,1.08,3.05.39,4.15-1.29,3.46-5.32,5.84-11.1,7.91-17.08,4.14-11.92,5.98-24.13,5.56-35.2Z"/>
      <path class="cls-8" d="m93.9,311.12c2.68.18,2.53-2.17,2.57-3.53.19-5.74.82-11.47.38-17.24-.28-3.56.63-7.14.02-10.71-.26-1.51.53-2.17,1.9-1.91,4.98.95,9.9-.29,14.84-.37,1.55-.02,2.33.02,2.71,1.94,1.94,9.97,3.69,19.86,3.05,30.17-.4,6.41-.69,12.68-2.4,18.94-3.86,14.19-19,21.71-30.16,20-12.62-1.93-21.33-8.83-26.1-20.57-2.01-4.93,2.46-13.24,8.06-15.28,8.93-3.27,17.53-2.69,25.58,2.73.92.62,1.84,1.26,2.77,1.88.79.52,1.39.22,1.89-.48.57-.8-.24-1.03-.6-1.42-1.4-1.51-3.51-2.26-4.53-4.19,0,0,0,.05,0,.05Z"/>
      <path class="cls-1" d="m125.95,237.3c-1.05-14.4-2.02-27.61-3-40.89,12.7,8.58,26.97,15,40.3,23.11,2.49,1.51,2.05,2.31.1,3.85-7.21,5.69-15.32,9.68-23.83,12.96-1.73.67-3.35.55-5.03-.27-2.62-1.27-5.31-2.23-8.54,1.24Z"/>
      <path class="cls-1" d="m109,231.52c-.9-.82-1.02-.89-1.07-.99-1.26-2.3-1.71-5.49-5.46-5.08-2.9.31-5.86,3.43-5.95,7.22-.06,2.55-1.26,3.49-3.14,4.36-5.65,2.61-11.5,4.58-18.63,5.76,10.5-14.22,20.5-27.76,30.8-41.71,2.6,10.08,2.47,19.9,3.45,30.44Z"/>
      <path class="cls-3" d="m115.83,39.5c6.84,5.02,13.04,10.7,18.66,16.99,1.88,2.1.4,5.33,2.77,8.51-2.69-1.34-3.66-2.87-4.91-4.07-4.94-4.71-9.98-9.32-15.38-13.51q-3.99-3.1-1.13-7.92Z"/>
      <path class="cls-5" d="m118.36,21.27c-.13-2.44,1.16-3.25,3.43-3.16,1.18.05,2.82.45,3.34-.94.65-1.75-1.38-2.03-2.24-2.93-1.94-2.03-5.36-3.05-4.47-7.83,2.49,2.89,4.57,5.35,6.69,7.76.7.79,1.29,2.17,2.6,1.64,1.37-.55.77-1.9.6-2.96-.18-1.1-.33-2.23-.71-3.27-.98-2.69-.22-4.3,2.69-4.79.7,1.34-.01,2.67-.01,3.99,0,1.5-1.17,3.59,2.14,3.44,1.71-.08.36,1.42.13,2.07-.82,2.28.1,2.81,2.09,2.18,1.74-.55,3.41-1.29,5.23-2,.47,2.82-.38,3.86-3.03,2.91-.68-.24-1.42-.63-2,.19-.59.83-.39,1.67.11,2.44.88,1.35,1.83,2.66,2.73,4,.38.56.52,1.22-.13,1.61-.71.43-1.14-.17-1.45-.71-.87-1.5-1.68-3.04-2.54-4.54-.59-1.04-1.44-1.89-2.69-1.3-1.09.51-1.58,1.59-1.32,2.82.3,1.45.75,2.87,1.08,4.32.21.93,0,1.97-.96,2.14-1.49.26-.93-1.14-1.02-1.81-.29-2.09-.53-4.2-.59-6.3-.06-2.27-1.23-2.38-2.92-1.79-2.33.81-4.27,2.55-6.83,2.78l.04.04Z"/>
      <path class="cls-5" d="m132.26,64.98c-4.84.35-8.6-.61-11.84-3.97-2.57-2.65-5.7-4.8-8.76-6.91-2.8-1.93-.49-3.52.2-5.02,1.12-2.42,2.28-.14,3.06.42,6.22,4.52,11.81,9.74,17.35,15.48Z"/>
      <path class="cls-5" d="m119.46,31.87c5.57,5.45,14.21,8.54,13.62,18.92-4.86-4.75-9.56-9.07-14.63-12.97-2.96-2.28.79-3.77,1.01-5.94Z"/>
      <path class="cls-3" d="m119.13,64.35c-5.01-.17-9.85.24-15.28.76,1.4-3.18,2.59-5.86,3.76-8.54.44-1.01.98-1.23,1.96-.54,3.42,2.4,6.71,4.94,9.56,8.33Z"/>
      <path class="cls-3" d="m125.69,21.58c.35,1.75.1,3.3,0,4.88-.11,1.87-1.39,4.63,2.83,4.88,2.07.13,1.57,3.56,1.56,6.01-2.75-2.46-5.41-5.03-8.27-7.35-1.58-1.28-.82-2.38-.18-3.53.99-1.76,1.21-4.14,4.04-4.9Z"/>
      <path class="cls-5" d="m118.31,21.23c-.02.11-.02.23-.07.32-.03.04-.15.03-.24.04.12-.1.24-.21.35-.31,0,0-.04-.04-.04-.04Z"/>
      <path d="m20.05,194.1c-1.99-6.9-1.22-14.93-.79-22.82.49-9.15,2.22-18.2,5.07-26.99,3.38-10.42,8.22-20.11,15.16-28.54,3.05-3.7,6.57-7.08,10.3-10.31,10.01-8.69,21.96-13.56,33.94-18.2,4.41-1.71,9.5-2.55,14.44-3.06,2.63-.27,3.47.98,3.22,3.22-.78,7.1-1.04,14.12.62,21.2.55,2.34-1.04,5.14-.62,7.54,1.65,9.27-.28,18.67,1.25,27.87.95,5.68.91,11.4,1.03,17.08.11,5.31.51,10.62.49,15.92-.02,5.74-4.86,9.06-7.84,13.14-13.19,18.06-28.13,34.71-42.52,51.81-2.42,2.87-3.91,2.73-6.5.39-10.81-9.75-19.34-21.08-24.31-34.83-1.44-3.99-2.7-8.13-2.95-13.41Zm2.38-6.79c.65,21.35,10.52,37.79,25.42,51.8,2.03,1.91,3.14,1.87,4.97-.32,14.75-17.64,30.27-34.64,43.69-53.38,3.63-5.07,5.78-9.96,5.09-16.61-1.16-11.1-2.07-22.25-2.09-33.48-.02-15-1.09-30-1.55-45-.09-2.9-1.34-3.4-3.68-2.75-4.63,1.27-9.29,2.35-13.85,3.93-24.46,8.46-41.98,24.24-51.33,48.58-5.88,15.31-8.36,31.17-6.67,47.24Z"/>
      <path class="cls-7" d="m205.25,163.4c.41,11.06-1.42,23.28-5.56,35.2-2.08,5.98-4.46,11.76-7.91,17.08-1.09,1.68-2.19,2.37-4.15,1.29-12.44-6.85-24.92-13.64-37.37-20.48-9.15-5.02-18.21-10.21-27.45-15.05-2.26-1.18-2.86-2.63-2.99-4.87-1.21-20.15-2.46-40.29-3.74-60.43-.25-3.94-.63-7.85-1.28-11.77-1.03-6.21.21-12.61-.75-18.89-.17-1.1.33-2.39,1.33-2.32,4.02.28,8.42-1.12,11.82-.22,4.3,1.14,8.65,1.61,12.91,2.24,17.08,2.52,30.41,11.42,42.3,23.29,4.49,4.48,7.55,9.88,11,15.05,5.93,8.87,8.8,18.78,10.4,29.23.46,3.05,1.04,6.08,1.44,10.68Zm-2.83-.22c-1.77-22.74-9.92-40.39-24.4-55.23-16.29-16.69-36.93-21.53-59.2-22.12-1.76-.05-1.67.94-1.59,2.14.18,2.73.31,5.47.48,8.2,1.58,26.6,3.18,53.2,4.67,79.8.08,1.41.59,1.88,1.66,2.47,21,11.49,42,22.99,62.93,34.61,1.74.96,2.14.97,3.24-.85,9.51-15.76,12.86-32.91,12.22-49.02Z"/>
      <path class="cls-1" d="m22.43,187.31c-1.69-16.07.8-31.93,6.67-47.24,9.34-24.35,26.86-40.12,51.33-48.58,4.56-1.58,9.23-2.65,13.85-3.93,2.34-.64,3.59-.15,3.68,2.75.46,15,1.53,30,1.55,45,.02,11.23.93,22.38,2.09,33.48.7,6.65-1.45,11.54-5.09,16.61-13.42,18.74-28.94,35.74-43.69,53.38-1.83,2.19-2.93,2.23-4.97.32-14.9-14-24.77-30.44-25.42-51.8Zm42.02-50.8c-.98-3.17-4.16-4.57-3.65-8.02.18-1.24.88-3.58-1.19-3.64-1.81-.05-1.44,2.22-1.66,3.62-.02.12,0,.25,0,.37-.07.96-.46,1.81-1.5,1.73-.96-.07-1.38-.9-1.44-1.86-.09-1.37-.21-2.73-.34-4.09-.06-.65-.28-1.27-1.06-1.24-.67.03-1.15.44-1.15,1.18,0,1.49,0,2.98.06,4.47.03.83.54,1.92-.61,2.23-1.19.33-1.25-.91-1.56-1.64-.24-.57-.4-1.18-.52-1.78-.19-.97-.21-2.28-1.53-2.09-1.45.22-1.31,1.61-1.18,2.72.1.86.15,1.85.61,2.52,1.44,2.06.58,3.7-.17,5.81-2.79,7.79-3.35,15.81-.42,23.7,2.09,5.62,7.16,6.93,12.37,4,2.92-1.64,4.15-4.32,5.62-7.12.39.46.68.7.85,1.01,2.81,5.25,5.66,6.97,10.22,6.16,4.44-.79,7.57-4.16,8.09-9.47.55-5.59,0-11.2-.99-16.71-.35-1.92-1.15-3.88-2.58-5.31-1.36-1.36-1.56-2.96-1.82-4.71-.23-1.5.96-4.15-1.42-4.25-2.11-.09-1.33,2.44-1.56,3.91-.09.59.05,1.29-.82,1.39-.97.11-1.31-.47-1.38-1.32-.1-1.24-.21-2.48-.29-3.72-.06-.94-.29-1.88-1.34-1.91-1.29-.03-1.51,1.05-1.55,2.1-.02.5.06,1-.01,1.49-.19,1.39,1.03,3.8-.43,3.96-1.96.21-1.45-2.31-1.72-3.76-.19-.97-.14-2.2-1.54-2.05-1.1.12-1.67.98-1.52,2.17.14,1.11-.08,2.44.46,3.28,1.6,2.48.71,4.41-1.3,6.86Zm15.21,42.75c.77,10.63-9.31,17.86-19.24,13.81-5.89-2.4-10.12-11.05-8.08-16.37.42-1.09,2.57-2.23.68-3.39-1.75-1.07-2.43,1.1-3.44,2.05-.63.59-1.33,1.22-1.69,1.98-.61,1.27-2.82,2.72.55,3.8,1.2.39,1.45,2.7.01,3.76-3.92,2.89-5.11,7.19-6.16,11.51-.92,3.8.32,7.13,3.38,9.6,2.93,2.36,6.2,2.23,9.49.82,3.23-1.38,5.04-4.01,5.79-7.31.47-2.05.99-2.85,3.52-2.73,9.72.48,16.35-4.6,18.09-13.11.37-1.81-.72-4.41,2.22-5.24.13-.04.19-1.3-.12-1.68-1.25-1.54-2.63-2.97-4-4.4-.46-.48-1.1-.61-1.68-.18-.57.43-.71,1.14-.38,1.67,1.07,1.69.83,3.59,1.06,5.42Z"/>
      <path class="cls-1" d="m202.42,163.18c.64,16.12-2.71,33.26-12.22,49.02-1.1,1.82-1.5,1.81-3.24.85-20.93-11.61-41.93-23.12-62.93-34.61-1.07-.58-1.58-1.06-1.66-2.47-1.49-26.61-3.09-53.2-4.67-79.8-.16-2.73-.3-5.47-.48-8.2-.08-1.19-.17-2.18,1.59-2.14,22.27.59,42.91,5.42,59.2,22.12,14.48,14.84,22.63,32.49,24.4,55.23Z"/>
      <path class="cls-7" d="m64.45,136.5c2.01-2.45,2.9-4.38,1.3-6.86-.54-.84-.32-2.17-.46-3.28-.15-1.19.42-2.05,1.52-2.17,1.39-.15,1.35,1.08,1.54,2.05.28,1.45-.23,3.97,1.72,3.76,1.46-.16.24-2.57.43-3.96.07-.49,0-.99.01-1.49.04-1.06.26-2.14,1.55-2.1,1.05.03,1.29.97,1.34,1.91.07,1.24.19,2.48.29,3.72.07.85.41,1.42,1.38,1.32.88-.1.73-.79.82-1.39.23-1.47-.55-4,1.56-3.91,2.38.1,1.2,2.75,1.42,4.25.26,1.75.46,3.35,1.82,4.71,1.43,1.43,2.23,3.39,2.58,5.31.99,5.52,1.54,11.13.99,16.71-.52,5.31-3.65,8.68-8.09,9.47-4.55.81-7.41-.92-10.22-6.16-.16-.31-.45-.55-.85-1.01-1.48,2.8-2.71,5.48-5.62,7.12-5.21,2.93-10.28,1.62-12.37-4-2.93-7.89-2.37-15.91.42-23.7.75-2.1,1.6-3.75.17-5.81-.46-.66-.51-1.66-.61-2.52-.13-1.11-.27-2.5,1.18-2.72,1.33-.2,1.35,1.12,1.53,2.09.12.61.27,1.22.52,1.78.31.73.37,1.97,1.56,1.64,1.15-.31.64-1.4.61-2.23-.05-1.49-.06-2.98-.06-4.47,0-.75.48-1.15,1.15-1.18.78-.04,1,.59,1.06,1.24.13,1.36.24,2.73.34,4.09.07.96.48,1.79,1.44,1.86,1.04.08,1.44-.77,1.5-1.73,0-.12-.01-.25,0-.37.22-1.41-.15-3.67,1.66-3.62,2.07.05,1.38,2.4,1.19,3.64-.51,3.46,2.67,4.85,3.65,8.02Zm-1.6,7.59c-.19-3.45-.92-6.06-2.41-8.42-1.09-1.73-2.69-2.46-4.78-2.13-2.44.38-3.13,2.4-3.64,4.23-.51,1.87.15,4.21,1.92,4.82,4.11,1.43,3.55,2.65.54,4.79-2.23,1.59-2.05,4.2-1.17,6.41.56,1.41,1.88,2.55,3.82,2.43,2.67-.16,3.98-1.86,4.78-4.06,1.03-2.82.56-5.83.94-8.08Zm18.05.29c-.45-3.14.15-6.54-2.18-9.23-1.28-1.49-2.67-3.59-4.84-2.32-2.27,1.33-3.15,3.86-2.28,6.47.45,1.36,1.58,2.44,3.16,2.83,2.33.58,2.17,1.7.55,3.02-.77.62-1.46,1.25-2.03,2.11-1.4,2.1-1.43,4.04.07,6.08,1.18,1.61,2.63,2.23,4.51,1.45,2.3-.95,3.5-2.7,3.41-5.2-.06-1.74-.24-3.47-.38-5.2Zm-11.98-9.21c-.78,1.16-1.15,1.64-1.44,2.15-.22.4-.38.85-.51,1.29-1.93,6.47-.41,12.75,1.51,18.86.82,2.61,2.98,4.56,6.21,4.35,3.14-.21,5.22-1.74,6.24-4.91-5.85,1.8-9.01.9-10.42-3.17-.9-2.6-1.16-5.37.3-7.96.47-.83,1.39-1.53.32-2.53-2.1-1.98-2.14-4.61-2.22-8.08Zm-19.78,5.78c-1.34,6.09-2.13,11.94.03,17.77.92,2.47,2.48,4.58,5.49,4.5,3.11-.08,5.21-1.72,6.57-4.88-.91-.01-1.52-.22-1.85,0-2.54,1.68-4.9.97-6.67-.98-2.06-2.27-4.11-5.11-2.17-8.24,2-3.24.84-5.53-1.4-8.19Z"/>
      <path class="cls-7" d="m79.67,179.25c-.23-1.83,0-3.73-1.06-5.42-.33-.52-.2-1.24.38-1.67.58-.43,1.22-.31,1.68.18,1.37,1.43,2.75,2.87,4,4.4.3.37.24,1.64.12,1.68-2.94.83-1.85,3.43-2.22,5.24-1.74,8.5-8.37,13.59-18.09,13.11-2.53-.13-3.05.68-3.52,2.73-.75,3.29-2.56,5.93-5.79,7.31-3.29,1.41-6.57,1.54-9.49-.82-3.05-2.46-4.3-5.8-3.38-9.6,1.05-4.31,2.24-8.62,6.16-11.51,1.44-1.06,1.19-3.37-.01-3.76-3.37-1.08-1.15-2.53-.55-3.8.36-.76,1.06-1.39,1.69-1.98,1.01-.94,1.69-3.12,3.44-2.05,1.89,1.16-.26,2.3-.68,3.39-2.04,5.32,2.2,13.97,8.08,16.37,9.93,4.05,20.01-3.18,19.25-13.81Zm-34.54,19.58c.45,2.96,1.4,5.42,4.72,5.97,3.43.57,6.51-1.27,7.99-4.73,1.42-3.34.85-5.5-2.34-6.54-3.05-.99-2.58,2.02-3.13,3.58-.4,1.14-.93,1.8-2.09,1.52-1.21-.29-.95-1.44-.72-2.15.53-1.62,1.05-3.36,2.05-4.69,1.44-1.93.16-3.36-.91-4.12-1.22-.86-2.12.85-2.76,1.75-2,2.82-2.71,6.08-2.81,9.42Z"/>
      <path class="cls-6" d="m62.85,144.09c-.39,2.25.09,5.26-.94,8.08-.81,2.2-2.11,3.9-4.78,4.06-1.94.12-3.26-1.02-3.82-2.43-.88-2.21-1.05-4.82,1.17-6.41,3.01-2.15,3.57-3.36-.54-4.79-1.76-.61-2.43-2.95-1.92-4.82.5-1.82,1.19-3.85,3.64-4.23,2.09-.33,3.69.4,4.78,2.13,1.49,2.36,2.22,4.97,2.41,8.42Z"/>
      <path class="cls-6" d="m80.91,144.39c.13,1.73.31,3.46.37,5.2.08,2.5-1.12,4.25-3.41,5.2-1.89.79-3.33.16-4.51-1.45-1.5-2.04-1.47-3.98-.07-6.08.57-.86,1.26-1.48,2.03-2.11,1.62-1.32,1.77-2.44-.55-3.02-1.58-.39-2.71-1.48-3.16-2.83-.87-2.61,0-5.14,2.28-6.47,2.18-1.28,3.56.83,4.84,2.32,2.33,2.7,1.73,6.09,2.19,9.24Z"/>
      <path class="cls-4" d="m68.92,135.18c.07,3.47.11,6.1,2.22,8.08,1.06,1,.14,1.71-.32,2.53-1.46,2.59-1.2,5.36-.3,7.96,1.41,4.07,4.57,4.97,10.42,3.17-1.02,3.16-3.1,4.7-6.24,4.91-3.23.22-5.4-1.74-6.21-4.35-1.92-6.11-3.44-12.38-1.51-18.86.13-.44.29-.89.51-1.29.29-.52.65-.99,1.44-2.15Z"/>
      <path class="cls-4" d="m49.13,140.96c2.25,2.67,3.4,4.95,1.4,8.19-1.93,3.13.11,5.97,2.17,8.24,1.77,1.95,4.12,2.66,6.67.98.33-.22.94-.02,1.85,0-1.36,3.15-3.46,4.79-6.57,4.88-3.01.08-4.57-2.03-5.49-4.5-2.16-5.83-1.37-11.69-.03-17.77Z"/>
      <path class="cls-2" d="m45.13,198.83c.1-3.34.81-6.6,2.81-9.42.63-.89,1.54-2.61,2.76-1.75,1.07.76,2.35,2.19.91,4.12-1,1.34-1.52,3.07-2.05,4.69-.23.71-.49,1.87.72,2.15,1.16.28,1.69-.38,2.09-1.52.55-1.56.08-4.57,3.13-3.58,3.19,1.04,3.76,3.2,2.34,6.54-1.47,3.46-4.56,5.3-7.99,4.73-3.33-.55-4.27-3.01-4.72-5.97Z"/>
    </g>
  </g>
</svg>