<?xml version="1.0" encoding="UTF-8"?>
<svg id="_레이어_2" data-name="레이어 2" xmlns="http://www.w3.org/2000/svg" viewBox="0 0 74.02 69.96">
  <defs>
    <style>
      .cls-1 {
        fill: #fff;
      }

      .cls-2 {
        fill: #86d41f;
      }

      .cls-3 {
        fill: #080706;
      }
    </style>
  </defs>
  <g id="_레이어_1-2" data-name="레이어 1">
    <g>
      <path class="cls-3" d="m40.72,8.72c3.71-5.02,9.26-5.39,13.19-8.55,1.15-.93,11.45,2.3,12.51,3.55,2.15,2.53,2.02,5.97-.43,9.9-.72,1.15-1.63,2.18-2.37,3.32-.71,1.1-2.25,1.59-2.4,3.4,2.45.21,4.7.82,6.84,2.11,4.72,2.82,6.61,6.93,5.77,12.14-.75,4.65-4.48,6.71-8.47,8.19-1.73.64-3.6.94-5.4,1.39.55,1.72.87,3.52,1.35,5.23,2.45,8.87-3.99,15.66-10.75,18.32-9.1,3.59-17.51-.18-21.83-9.28-1.82,2.8-3.25,5.88-5.76,8.18-2.28,2.09-4.7,4.24-8.07,2.93-3.54-1.38-4.9-4.54-5.27-8.06-.37-3.46.72-6.7,2.05-9.85,1.11-2.63.71-5.94,4.07-7.64-5.19.13-9.46-.7-13.11-4-2.95-2.68-4.18-9.94.43-12.07,2.05-.95,2.86-3.45,1.91-4.98-2.14-3.43.58-5.88,1.32-8.48.97-3.4,6.77-4.13,10.49-1.92,4.04,2.41,4.6,2.23,6.77-1.87.78-1.47,1.78-2.83,2.62-4.27,1.99-3.41,5.04-4.89,8.84-4.54,3.44.32,4.84,2.91,5.71,6.84Zm19.64,32.01c2.33.27,4.83-.64,7.1-2.2,5.24-3.62,5.42-8.87.42-12.89-2.29-1.85-5-2.67-7.9-3.03-1.15-.14-2.74.3-3.26-1.15-.58-1.62.96-2.4,1.9-3.31,2.42-2.36,4.77-4.8,6-8.01.87-2.27.93-4.75-1.79-5.64-1.87-.61-3.96-.95-6.07-.73-6.18.64-10.96,3.67-14.89,8.3-.6.71-1.07,1.99-2.26,1.53-1.06-.41-1.66-1.44-1.62-2.69.01-.37,0-.75,0-1.12-.03-2.11-.62-4.06-2.65-4.95-2.18-.95-3.85.53-5.28,1.91-3.25,3.15-4.93,7.09-5.5,11.56-.14,1.1.73,2.78-1.06,3.14-1.45.29-2.6-.68-3.44-1.85-1.4-1.94-2.94-3.73-5.05-4.91-3.41-1.91-6.18-.61-6.9,3.23-.6,3.2.15,6.2,1.67,9,1.41,2.6,1,3.55-2.19,3.29-3.96-.32-5.34,1.83-4.03,5.64.73,2.12,2.22,3.42,4.27,4.14,3.62,1.27,7.23,1.05,10.74-.41,1.03-.43,1.99-.59,2.66.36.78,1.09-.19,1.68-.85,2.47-1.32,1.59-2.58,3.26-3.61,5.05-2.44,4.27-4.46,8.77-4.13,13.83.14,2.13.83,4.69,3.04,5.35,2.32.7,4.33-.52,5.93-2.71,2.13-2.9,3.77-5.97,4.97-9.3.39-1.08.24-2.97,1.94-2.43,1.19.37,2.88,1.47,2.47,3.18-.21.88.11,1.41.34,1.98,3.09,7.77,11.81,11.17,19.45,7.24,7.23-3.72,10.96-10.43,5.98-18.99-2.81-4.84-2.72-4.89,3.58-4.86Z"/>
      <path class="cls-2" d="m60.36,40.72c-6.3-.03-6.39.02-3.58,4.86,4.97,8.56,1.24,15.27-5.98,18.99-7.63,3.93-16.35.52-19.45-7.24-.23-.57-.55-1.09-.34-1.98.41-1.71-1.28-2.8-2.47-3.18-1.7-.54-1.55,1.35-1.94,2.43-1.21,3.34-2.85,6.41-4.97,9.3-1.61,2.19-3.61,3.41-5.93,2.71-2.21-.66-2.9-3.22-3.04-5.35-.33-5.06,1.69-9.55,4.13-13.83,1.02-1.79,2.28-3.47,3.61-5.05.66-.79,1.63-1.38.85-2.47-.67-.94-1.63-.78-2.66-.36-3.51,1.45-7.12,1.67-10.74.41-2.04-.71-3.53-2.01-4.27-4.14-1.31-3.81.06-5.96,4.03-5.64,3.18.26,3.59-.7,2.19-3.29-1.52-2.8-2.27-5.8-1.67-9,.72-3.84,3.49-5.14,6.9-3.23,2.11,1.18,3.65,2.97,5.05,4.91.84,1.16,1.99,2.14,3.44,1.85,1.79-.36.93-2.04,1.06-3.14.56-4.47,2.24-8.41,5.5-11.56,1.43-1.38,3.1-2.86,5.28-1.91,2.03.88,2.62,2.84,2.65,4.95,0,.37.02.75,0,1.12-.04,1.25.57,2.28,1.62,2.69,1.19.47,1.65-.81,2.26-1.53,3.93-4.63,8.71-7.67,14.89-8.3,2.11-.22,4.2.12,6.07.73,2.72.89,2.66,3.37,1.79,5.64-1.23,3.21-3.57,5.65-6,8.01-.94.92-2.48,1.69-1.9,3.31.52,1.46,2.11,1.01,3.26,1.15,2.9.36,5.61,1.18,7.9,3.03,4.99,4.02,4.82,9.28-.42,12.89-2.27,1.56-4.77,2.47-7.1,2.2Zm-24.39,2.19c1.13-.19,2.95.44,4.76-.53,3.7-1.99,6.25-6.64,5.47-10.42-.88-4.22-6.43-7.46-13.18-7.68-3.9-.13-7.51,2.41-8.48,5.98-.06.24-.05.5-.1.74-1.21,5.41,2.2,12.93,11.54,11.92Z"/>
      <path class="cls-3" d="m35.97,42.91c-9.34,1.01-12.75-6.51-11.54-11.92.05-.24.04-.5.1-.74.97-3.56,4.58-6.11,8.48-5.98,6.75.22,12.3,3.46,13.18,7.68.79,3.78-1.77,8.43-5.47,10.42-1.81.97-3.63.35-4.76.53Zm-1.43-2.95c1.52,0,2.67.18,3.75-.04,2.45-.48,4.46-1.85,4.84-4.39.32-2.11.88-4.93-1.83-5.88-3.02-1.05-5.99-2.57-9.36-2.39-1.61.09-2.83.78-3.76,2.08-1.37,1.9-2.09,3.99-.91,6.15,1.62,2.97,3.81,5.21,7.27,4.47Z"/>
      <path class="cls-1" d="m34.53,39.97c-3.46.75-5.66-1.5-7.27-4.47-1.18-2.17-.46-4.25.91-6.15.93-1.3,2.15-1.99,3.76-2.08,3.37-.18,6.34,1.34,9.36,2.39,2.71.95,2.15,3.77,1.83,5.88-.38,2.54-2.39,3.91-4.84,4.39-1.08.21-2.24.04-3.75.04Z"/>
    </g>
  </g>
</svg>