<?xml version="1.0" encoding="UTF-8"?>
<svg id="_레이어_2" data-name="레이어 2" xmlns="http://www.w3.org/2000/svg" viewBox="0 0 305.02 298.62">
  <defs>
    <style>
      .cls-1 {
        fill: #eb6a3c;
      }

      .cls-2 {
        fill: #fff;
      }

      .cls-3 {
        fill: #c49a6c;
      }

      .cls-4 {
        fill: #21f993;
      }

      .cls-5 {
        fill: #080706;
      }

      .cls-6 {
        fill: #616161;
      }
    </style>
  </defs>
  <g id="_레이어_1-2" data-name="레이어 1">
    <g>
      <path class="cls-5" d="m145.93,259.3c.03-1.61.66-2.99,1.26-4.49,4.18-10.38,7.19-21.13,9.36-32.12.3-1.54-.05-2.6-1.09-3.63-3.45-3.42-6.95-6.79-10.27-10.34-1.35-1.44-2.07-.9-3.28.1-10.44,8.62-22.54,14.05-35.34,18.05-1.29.4-2.48,1.01-3.75,1.4-1.66.51-2.99.52-3.18-1.71-.2-2.39-1.34-1.81-2.67-.86-.93.66-1.76,1.36-2.16,2.48-1.95,5.54-5.03,9.9-11.34,10.95-.29.05-.51.51-.54.53,1.33,3.14,3.94,5.29,2.85,9.57-.67,2.66,1.17,6.11,2.33,9.02,1.24,3.11,3.7,6.72,2.85,9.31-.86,2.61-5.57,2.46-8.59,3.53-8.97,3.2-18.08,6.08-26.84,9.79-6.9,2.93-14.29,3.92-21.26,6.42-2.61.93-4.64.29-5.42-2.94-.87-3.6-2.08-7.14-3.34-10.64-.73-2.04-1.32-3.98-3.86-5.15-2.54-1.18-2.6-4.44-1.96-6.96.63-2.49.28-4.66-.49-6.96-3.33-10.02-6.6-20.05-9.87-30.09-.5-1.52-1.07-2.76-2.72-3.57-3.26-1.59-3.21-5.91-2.79-7.76,1.17-5.21-1.75-8.91-3.25-13.01-1.39-3.79-.22-8.65,3.72-9.73,13.38-3.65,26.8-7.16,40.21-10.68,4.3-1.13,8.44-2.82,12.99-3.07,3.17-.17,5.03,1.21,5.78,3.98.76,2.82,2.04,5.45,3,8.17.95,2.69.84,6.18,4.52,7.78,1.57.68,1.99,3.45,2,5.57,0,.98-.32,2.73-.06,2.82,1.58.54,3.62-.07,4.34-1.09,2.21-3.11,4.67-1.95,7.03-.84,2.09.99,3.87,2.62,5.93,3.71,2.93,1.56,3.91.93,4.01-2.41.04-1.36,1.01-1.36,1.89-1.61,4.56-1.3,9.25-2.6,13.21-5.1,4.81-3.04,10.24-5.01,14.6-8.84,1.68-1.48.15-1.92-.39-2.46-3.41-3.4-6.95-6.61-9.87-10.52-1.67-2.24-2.34-4.47-1.61-6.77.61-1.91,0-2.92-1.05-4.14-10.33-11.91-19.09-24.86-26-39.08-4.44-9.15-7.43-18.75-8.99-28.74-1.59-10.22-.26-20.33,2.53-30.23,2.31-8.18,7.05-15.01,11.96-21.82,3.83-5.3,8.97-8.85,14.45-11.97,2.34-1.33,1.69-2.18.29-3.41-2.03-1.79-3.85-3.72-5.21-6.13-1.17-2.07-2.83-4.76-1.13-6.29,2.04-1.84,5.12-.18,7.38,1.02,1.22.65,2.5,1.46,3.75,1.9,1.91.67,3.49,1.11,4.32-2.34.91-3.81,3.69-7.26,6.03-10.6.67-.96,1.43-2.02,1.89-3.01,2.36-4.96,6.74-4.72,10.73-3.81,9.5,2.18,19.01,4.35,28.35,7.24,6.46,2,7.75,3.57,7.71,10.25-.02,4.48.11,8.97.07,13.45-.02,1.86.59,2.33,2.53,2.62,2.92.43,5.91.26,8.74.94,1.1.26,3.17.04,3.25,2.28.07,1.95-1.11,2.69-2.61,3.54-2.73,1.53-5.71,2.33-9.03,3.22,8.01,10.44,11.1,22.69,14.91,34.67.61-6.88,4.24-12.98,4.28-19.82,6.91-11.24,13.12-22.8,25.62-29.55,9.83-5.31,20-8.6,30.93-8.69,26.19-.23,44.33,11.05,53.22,37.96,3.25,9.85,4.57,20.01,4.18,30.46-.17,4.63-1.47,8.86-2.44,13.26-3.85,17.54-14.11,31.53-24.59,45.47-4.33,5.76-9.27,10.99-13.84,16.53-.54.65-1.71,1.34-1.31,2.1,1.96,3.73-1.47,4.93-3.12,6.87-2.41,2.84-4.71,5.9-7.61,8.16-4.84,3.77-5.56,8.86-5.79,14.31-.27,6.34-2.38,12.19-5.05,17.8-1.77,3.72-4.83,5.8-9.31,5.52-4.09-.25-8.2-.07-12.3-.07-.25-.11-.53-.39-.64.14.2.03.4.05.6.08,5.13,6.32,10.8,12.2,15.25,19.09,4.91,7.6,9.02,15.44,10.86,24.5,1.66,8.2-.62,15.27-4.74,21.91-6.03,9.73-15.62,13.56-26.51,13.84-6.22.16-12.61-.9-17.76-5.02-8.89-7.11-10.6-14.77-3.54-24.3,4.08-5.52,10.34-7.93,16.25-10.62,1.06-.48,3.31-.52,5.02-.43,1.97.01,3.91.23,5.8.84.56.18,1.42.03,1.25.9-.1.49-.68,1.07-1.17,1.24-.67.23-1.47.17-2.21.13-8.61-.48-16,2.15-21.73,8.75-4.99,5.75-6.69,12.45-.56,18.84,3.59,3.75,7.99,4.85,12.64,6.06,10.91,2.83,26.14-2.83,31.83-14.18,4.66-9.29,3.87-18.33-.36-27.51-5.44-11.8-13.42-21.77-22.12-31.21-.78-.84-2.42-1.76-4.26-.45-4.09,2.89-7.49,6.48-11.12,9.85-.82.76-.78,1.38-.26,2.22,4.23,6.79,8.25,13.73,12.79,20.32,1.37,1.99.74,2.61-.52,3.69-2.84-.52-3.34-3.35-4.29-5.19-2.7-5.22-6.02-10.04-8.94-15.1-1.64-2.84-2.96-2.37-4.94-.48-3.31,3.15-6.96,5.7-11.85,5.74-2.46.02-4.29-1.64-6.7-1.99-1.29,6.85-2.24,13.91-3.98,20.76-2.68,10.52-7.07,20.09-17.17,25.81-3.6,2.04-7.49,3.48-11.46,3.89-11.52,1.2-22.14-1.01-30.37-10.01-5.75-6.29-8.4-13.56-5.99-22.05,2.35-8.28,11.88-11.43,18.43-10.25,7.15,1.28,12.78,5.24,17.56,10.54.83,2.19,2.54,3.75,3.95,5.52.51.63.82,1.42.29,2.02-.67.76-1.62.58-2.3-.1-.6-.6-1.06-1.36-1.55-2.06-4.44-6.29-9.79-11.21-17.7-12.83-7.82-1.6-15.07,2.36-16.16,9.44-1.25,8.13,1.43,15.38,7.84,20.16,15.3,11.42,42.52,10.59,50.88-15.96,1.99-6.32,2.95-12.9,3.72-19.41.33-2.8,2.04-6.34-.68-9.12-4.26-4.34-8.57-8.63-13.04-13.14-.45.81-.88,1.28-.98,1.82-1.26,6.75-3.34,13.29-5.41,19.81-1.35,4.25-2.44,8.62-4.6,12.58-.67,1.22-1.23,2.63-2.95,1.19Zm-7.37-246.99c-.74-1.17-1.67-.83-3.53-.06h3.58c8.81,3.94,18.43,5.49,27.13,9.78,1.1-3.19-.09-4.46-2.82-4.98-3.05-.58-6.01-1.6-9.06-2.13-5.09-.89-9.99-2.96-15.3-2.61ZM35.43,191.09l-.1-.1c-.09.79.56,1.82-.56,2.27-.97.39-1.59-.2-2.1-1-1.07-1.65-2.3-3.21-3.25-4.93-.71-1.29-1.74-.88-2.47-.53-1.01.49-.16,1.24.2,1.79,1.02,1.55,2.25,2.99,3.11,4.62,1.76,3.37,3.57,3.45,6.61,1.19,5.27-3.91,5.21-3.52,1.09-8.7-2.05-2.58-4.08-1.04-5.43-.32-1.67.89.42,2.17,1.03,3.11.57.88.68,2.16,1.87,2.6Zm42.45-103.53c.72,6.99,1.7,14.1,3.65,21.05,5.29,18.84,15.92,34.71,27.74,49.93,2.88,3.72,5.39,7.78,11.17,5.53.43-.17.99.05,1.48.02,6.9-.45,13.8-.94,20.71-1.35,6.68-.4,13.31-1.14,18.38,5.07,2.48,3.04,6.05,5.16,8.96,7.88,1.47,1.37,2.4,1.15,3.69-.15,3.95-3.98,8.02-7.84,11.95-11.83,1.76-1.79,3.66-2.57,6.25-2.62,20.54-.4,41.07-.95,61.61-1.47,2.41-.06,4.86-.03,6.68,1.73,1.4,1.36,2.13.92,3.19-.32,8.82-10.32,17.42-20.79,24.8-32.24,11.81-18.31,16.45-38.09,12.62-59.61-2.34-13.17-7.55-25.06-17.73-34.16-12.51-11.18-27.57-13.46-43.38-10.64-21.95,3.92-37.81,15.72-45.24,37.49-2.25,6.61-3.53,13.44-5.17,20.2-.43,1.75-.58,4.78-2.51,4.87-2.56.11-1.59-3.12-2.48-4.73-.11-.21-.08-.49-.13-.73-2.84-12.02-6.17-23.85-13.29-34.21-1.17-1.7-2.42-2.66-4.7-3-17.46-2.6-34.83-5.81-52.05-9.69-3.25-.73-5.7-.26-8.38,1.44-18.87,11.95-26.05,30.16-27.81,51.55Zm107.1,125.56c-4.47-2.52-6.37-4.43-5.11-6.12,2.43-3.25,1.55-6.1.65-9.25-.09-.31.09-.75.27-1.06.66-1.16.29-2.09-.43-3.08-2.25-3.13-4.51-6.25-6.63-9.47-1.4-2.12-2.06-1.28-2.95.38-1.59,2.95-3.48,5.75-4.93,8.76-1.6,3.32-2.99,2.79-5.07.42-7.21-8.24-14.59-16.33-21.8-24.58-1.76-2.02-3.52-2.9-6.34-2.86-4.72.06-9.32,1.16-14.07.94-2.85-.13-4.59,2.98-3.42,5.6.49,1.1,1.34,2.08,2.17,2.99,13.53,14.8,27.64,29.03,41.91,43.11,5.94,5.85,11.82,11.78,18.06,17.3,5.03,4.45,9.45,4.72,14.22,1.08,7.03-5.37,13.17-11.77,19.58-17.85,1.18-1.12,1.11-1.83-.61-2.17-1.9-.38-4.06-.4-4.14-3.27-.02-.79-1.11-.95-1.81-1.02-1.15-.11-.88.96-1.04,1.58-.52,2.05-.83,4.15-1.46,6.16-1.52,4.9-4.92,5.75-8.56,2.18-.71-.69-1.03-1.61-2.36-.79-3.04,1.85-6.02,1.76-8.24-1.29-2.25-3.08-.07-5.32,2.09-7.68Zm7.28-27.28c4.01-.35,6.93.27,8.91,3.22,1.34,1.99,2.06,4.23,2.93,6.43.55,1.39,1.03,4.28,2.7.45.55-1.26,2.02-1.16,3.33-.93,2.45.43,4.93.69,7.37,1.15,1.93.36,2.41-.22,2.63-2.24.67-6.06.69-12.12.65-18.2,0-1.38.36-2.75,1.79-2.8,1.86-.06,1.4,1.61,1.43,2.81.17,6.95-1.44,13.83-.86,20.8.2,2.38-.91,3.11-3.12,2.78-2.46-.37-4.97-.47-7.38-1.03-2.54-.59-3.01.47-2.99,2.67.04,3.61,0,7.23-.26,10.83-.14,2,.83,2.6,2.46,2.96,6.58,1.47,13.22,1.98,19.95,1.6,4.43-.25,7.05-2.46,8.41-6.62,2.25-6.88,3.69-13.87,3.81-21.14.06-3.45.5-6.9.79-10.35.1-1.14.24-2.5,1.72-2.41,1.27.08,1.12,1.36,1.24,2.35.12,1-.58,2.2.73,3.16,3.15-3.41,6.19-6.86,9.42-10.13,1.93-1.95,2.32-4.19,1.41-6.48-.87-2.19-3.08-2.16-5.15-2.11-13.33.32-26.65.63-39.98.86-1.65.03-2.79.59-3.85,1.8-5.81,6.65-11.67,13.26-18.11,20.55ZM16.97,221.6c4.99.06,9.33,3.98,11.64,10.55,1.78,5.04.67,10.1-4.08,12.18-4.84,2.12-4.89,4.58-2.86,8.47.56,1.07.76,2.35.99,3.56.34,1.77.97,1.97,2.8,1.39,16.83-5.36,33.7-10.59,50.59-15.75,2.4-.73,3.09-1.42,2.11-4.08-3.41-9.32-6.46-18.78-8.8-28.43-.56-2.31-1.28-2.88-3.76-2.24-10.93,2.82-21.94,5.3-32.9,8-6.62,1.63-13.38,2.71-19.88,4.86-.86.28-1.8.38-1.34,1.64.36.99,1.27.82,1.85.53,1.17-.6,2.37-.67,3.62-.68Zm124.91-15.76c-.81-1.03-1.07-1.44-1.4-1.78-4.17-4.27-8.36-8.51-12.51-12.8-.73-.75-1.27-.92-2.15-.18-7.94,6.62-17.24,10.67-26.89,13.99-1.17.4-1.56.88-1.23,2.13,1.43,5.38,2.79,10.78,4.13,16.19.27,1.08.43,1.77,1.9,1.37,13.35-3.59,25.51-9.52,36.4-18.06.49-.38,1.12-.56,1.74-.86Zm-101.07-22.01c-.03.43-.1.59-.04.67.47.73.94,1.45,1.45,2.16q3.74,5.21-1.73,8.66c-.73.46-1.44.98-2.16,1.47q-6.03,4.08-10.2-1.81-4.96-7-12.99-4.37c-.12.04-.22.13-.34.15-1.39.25-1.93.85-1.97,2.48-.1,4.17-1.64,7.78-5.49,9.92-2.89,1.61-.48,3.42-.27,5.09.28,2.16,1.81,1.47,3.14,1.12,5.27-1.4,10.53-2.9,15.84-4.15,12.07-2.84,24.17-5.6,36.28-8.29,2.61-.58,3.7-1.59,2.34-4.25-.45-.87-.67-1.87-.87-2.84-.33-1.55-1.26-2.14-2.7-1.68-5.22,1.69-8.55-.71-10.95-5.02-.69-1.24-1.52-1.41-2.74-1.07-2.22.62-4.45,1.19-6.58,1.75Zm26.74,89.47c1.83-.58,3.31-1.16,4.84-1.5,2.88-.64,4.3-1.9,4.14-5.27-.2-4.49,2.08-8.13,5.99-10.39,2.17-1.26.58-2.5.33-3.68-.29-1.34-.96-1.76-2.65-1.26-17.91,5.35-35.66,11.18-53.37,17.19.33.98.71,1.87.94,2.8.6,2.43,1.36,3.93,4.62,3.76,4.03-.2,7.38,2.1,9.72,5.48.53.77.42,1.82,1.96,1.23,3.24-1.25,6.59-2.24,10.2-3.44-2.25-2.63-4.18-4.88-5.56-7.54-.99-1.91-1.49-3.93.35-5.39,4.84-3.86,10.46-5.01,16.56-4.24,1.58.2,2.01.85,1.96,2.36-.1,3.21-.03,6.42-.03,9.89Zm140.04-109.16c-5.85,0-10.81.02-15.77-.02-1.32-.01-2.34.35-3.31,1.31-4.25,4.2-8.56,8.33-12.87,12.47-.96.93-1.68,1.73-.65,3.15,2.63,3.59,5.15,7.25,7.88,11.12,8.22-9.32,16.18-18.34,24.72-28.03Zm-1.12,46.07c.09-1.98.13-3.96.29-5.94.19-2.37.38-4.49-3.13-4.42-1.67.04-1.8-1.83-2.2-3.09-.75-2.38-1.39-4.83-3.15-6.68-1.65-1.73-3.93-2.33-5.59-.52-1.71,1.87-.26,3.69,1.41,5.03.57.46,1.32.7,1.94,1.11.74.49,1.48,1.07.95,2.11-.52,1.01-1.45.88-2.26.52-2.57-1.15-5.26-1.51-8.02-1.25-1.16.11-3.08-.89-3.17,1.39-.07,1.85,1.49,2.51,2.99,2.79,2.19.41,4.43.58,6.64.86,1.04.13,2.14.41,1.99,1.7-.14,1.24-1.28,1.28-2.31,1.32-2.61.08-5.22.12-7.82.33-.94.08-2.11.34-2.32,1.53-.23,1.31.75,1.92,1.73,2.58,2.71,1.82,5.21.39,7.77-.34,1.02-.29,2.06-.55,2.46.76.32,1.06-.62,1.6-1.39,1.92-2.17.92-4.49,1.57-6.2,3.29-1.15,1.16-3.22,2.24-1.38,4.23,1.65,1.78,3.42.89,4.93-.43,1.55-1.36,2.15-3.31,2.94-5.13.4-.93,1.09-1.43,2.05-1.03.85.36.71,1.31.52,1.95-.46,1.55-1.05,3.06-.96,4.72.07,1.23.61,2.23,1.81,2.57,1.55.44,1.89-.95,2.21-1.92.58-1.76,1.03-3.58,1.37-5.41,1.12-6.06.19-5.09,5.93-4.55Zm-136.8-8.92c-.16-1.89-.41-3.31-3.08-2.52-4.74,1.41-9.57,2.53-14.39,3.64-14.11,3.26-28.33,6.06-42.25,10.12-1.98.58-2.89,1.13-2.23,3.53.68,2.48,1.97,1.56,3.36,1.22,5.53-1.34,11.06-2.71,16.6-3.99,13.27-3.06,26.56-6.03,39.69-9.65,1.31-.36,2.41-.71,2.29-2.36Zm69.82-35.8c7.92,8.87,15.07,16.81,22.12,24.84,1.44,1.64,2.11.99,2.91-.44,1.51-2.71,2.96-5.47,4.62-8.09,1.03-1.62.68-2.58-.71-3.73-4.4-3.65-8.7-7.43-13.05-11.14-.84-.71-1.64-1.46-2.91-1.45-3.95.05-7.9.02-12.98.02Zm-116.79,97.75c-.18,2.81,1.17,3,3.87,2.11,18.11-5.96,36.26-11.78,54.43-17.57,1.31-.42,1.92-.67,1.49-2.21-.5-1.79-1.24-1.96-2.95-1.41-18.53,5.83-37.1,11.56-55.66,17.32-.74.23-1.98-.02-1.18,1.77Zm68.07-33.1c1.43-2.56,1.61-5.22,3.85-6.16,4.09-1.71,3.63-4.57,2.5-7.84-.53-1.52-.86-3.12-1.19-4.7-.24-1.15-.66-1.94-1.99-1.37-2.59,1.12-4.53-.32-6.58-1.52-1-.59-1.83-1.73-3.32-1.57,2.23,7.69,4.37,15.04,6.72,23.14ZM166.03,14.77c-1.32-3.39-4.03-3.75-6.2-4.47-9.43-3.14-19.13-5.25-28.79-7.53-2.64-.62-4.26.76-5.69,2.61-.43.55-1.17,1.14-.72,1.95.44.78,1.33.46,2.02.44,5.64-.17,11.13.93,16.61,2.04,7.39,1.5,14.74,3.2,22.79,4.97Zm-45.48,2.92c-2.13-.21-2.9,0-2.85.8.12,1.77,1.63,1.1,2.59,1.28,14.5,2.74,29.23,4.34,43.42,8.68.8.25,2.02,1.09,2.37-.55.31-1.49-.03-2.5-1.9-2.92-14.41-3.23-28.78-6.66-43.62-7.29Zm-43.87,192.67c2.27-.42,2.98,1.07,3.45,2.69,1.42,4.87,2.71,9.79,4.18,14.65.87,2.87,1.47,5.43-2.54,6.28-.57.12-1.26.49-1.12,1.25.08.41.54,1.06.83,1.06,2.16,0,4.09-.83,5.83-2.02,1.33-.91.76-2.12.4-3.35-1.92-6.66-3.85-13.33-5.64-20.03-.82-3.06-2.22-4.85-5.48-3.09-1.24.67-4.05-.22-3.54,2.2.5,2.33,2.47-.2,3.61.37Zm-15.37,53.26c-1.05,0-1.82-.11-2.54.02-3.09.56-6.59,1.26-8,4.03-.9,1.78,1.94,3.69,3.03,5.58,1.36,2.37,2.48,4.51,5.85,3.52,3.54-1.04,5.86-2.74,4.92-6.92-.19-.83-.31-1.86.02-2.58,2.02-4.45-1.05-3.78-3.28-3.66Zm-45.6-36.74c3.74-.07,6.77,2.12,7.7,5.61.99,3.72-.52,7.09-4.02,9.11-.73.42-2.43.22-1.78,1.73.67,1.56,1.79.42,2.75.06,7.63-2.9,7.39-7.65,3.45-14.44-2.01-3.46-5.03-5.04-9.06-4.2-1.28.27-3.17.81-2.9,2.11.37,1.75,1.78-.16,2.76.02.36.06.74.01,1.11.01Zm63.06,39.62c.09,1.01-.4,2.27,1.45,2.32,2.15.05,7.76-2.48,7.58-3.68-.37-2.51-1.06-5.16-3.16-6.6-1.37-.94-5.61,4.86-5.88,7.97ZM140.5,17.36c.1-.35.19-.69.29-1.04-5.08-1.66-10.25-3.09-15.22-5.05-3.55-1.4-4.88-.09-5.57,3.39,6.96.79,13.83,1.02,20.5,2.69Zm39.31,20.71c-2.6-.03-5.16-.5-7.5-1.28-4.44-1.5-7.18.51-9.9,3.85,6.41,1.99,11.91-.16,17.4-2.56ZM20.4,234.19c.47-1.7-.45-3.26-2.12-4-1.42-.63-3.45-.85-4.57.29-1.32,1.34.47,2.85.74,4.32.15.84.59,1.63.75,2.46.66,3.42,2.4,2.27,4.12.98,1.27-.95,1.13-2.37,1.06-4.05ZM163.63,35.4c-3.89-.53-7.13-1.01-10.39-1.39-.94-.11-2.29-.14-1.85,1.39.56,1.94.64,4,3.74,4.44,4,.56,5.54-2.26,8.5-4.44Zm-51.45-4.19c-1.94-7.92-4.39-10.36-10.37-10.35,2.75,4.17,5.2,8.35,10.37,10.35Zm1.05-6.46c2.55,7.64,3.38,8.41,8.81,8.11-.95-4.7-2.88-8.41-8.81-8.11Zm-54.68,160.95c.95-.42,3.15.39,2.9-1.53-.26-1.97-.55-4.94-3.46-4.77-1.8.1-4.51-.1-5.3,2.11-.63,1.75,2.96,4.2,5.86,4.19Zm-28.15,92.33c2.33,7,.18,7.52,9.5,4.37-2.21-3.43-5.02-5.27-9.5-4.37ZM123.45,27.57c1.01,3.14,1.5,6.45,5.39,7.57,1.59.46,2.16.34,2.28-1.47.32-4.61-1.12-5.84-7.67-6.11ZM9.94,194.41c-.41-.52.71-2.49-1.36-1.89-2.01.59-5.25-.18-5.34,3.19-.05,1.77.06,4.17,2.13,5.01,1.45.59,4.34-3.45,4.57-6.31ZM133.48,30.56c.25,1.24.49,2.42.73,3.61.64,3.18,3.49,2.13,5.41,2.66,1.62.45,1.12-1.18,1.17-2.02.12-1.96.43-3.98-2.59-4.22-1.59-.12-3.13-.58-4.71-.03Zm15.5,5.69c.3-2.65-.87-3.75-3.5-3.96-2.27-.18-1.51,1.28-1.61,2.32-.29,2.77,1.4,3.56,3.75,3.79,2.01.19,1.26-1.25,1.37-2.15Zm-67.41,192.38c-.85-.37-.02-2.09-1.29-2.1-.97-.01-2.26.52-2.23,1.94.02.96.18,2.1,1.51,2.09,1.01-.01,1.9-.44,2.01-1.93Zm-3.86-4.81c.98-.16,2.05-.27,1.85-1.69-.13-.96-.21-2.07-1.61-1.98-1.15.08-2.3.33-2.09,1.88.13,1.01.52,1.93,1.85,1.79Zm107.76-30.26c4.53.61,4.58.55,3.1-3.46-.95,1.06-1.84,2.06-3.1,3.46Z"/>
      <path class="cls-1" d="m214.35,257.71c1.26-1.08,1.89-1.7.52-3.69-4.54-6.58-8.56-13.52-12.79-20.32-.52-.84-.56-1.46.26-2.22,3.63-3.37,7.03-6.96,11.12-9.85,1.85-1.3,3.49-.39,4.26.45,8.7,9.44,16.69,19.41,22.12,31.21,4.23,9.18,5.02,18.22.36,27.51-5.69,11.34-20.92,17.01-31.83,14.18-4.65-1.21-9.05-2.31-12.64-6.06-6.12-6.39-4.43-13.08.56-18.84,5.73-6.61,13.12-9.23,21.73-8.75.74.04,1.54.1,2.21-.13.49-.17,1.07-.75,1.17-1.24.18-.87-.68-.72-1.25-.9-1.89-.6-3.83-.83-5.8-.84.02-.17.01-.35-.01-.52Z"/>
      <path class="cls-1" d="m145.93,259.3c1.73,1.44,2.29.03,2.95-1.19,2.16-3.96,3.25-8.33,4.6-12.58,2.07-6.52,4.16-13.06,5.41-19.81.1-.54.54-1.01.98-1.82,4.48,4.5,8.79,8.79,13.04,13.14,2.72,2.77,1.01,6.31.68,9.12-.77,6.51-1.73,13.08-3.72,19.41-8.36,26.55-35.58,27.38-50.88,15.96-6.41-4.78-9.09-12.03-7.84-20.16,1.09-7.09,8.35-11.04,16.16-9.44,7.91,1.62,13.26,6.53,17.7,12.83.5.7.95,1.46,1.55,2.06.68.68,1.63.85,2.3.1.53-.6.21-1.39-.29-2.02-1.42-1.77-3.12-3.33-3.95-5.52.43-.02.86-.05,1.29-.07Z"/>
      <path class="cls-6" d="m219.55,219.26c-.2-.03-.4-.05-.6-.08.11-.53.39-.25.64-.14l-.04.22Z"/>
      <path class="cls-1" d="m77.88,87.56c1.76-21.4,8.94-39.6,27.81-51.55,2.68-1.7,5.13-2.17,8.38-1.44,17.22,3.89,34.59,7.09,52.05,9.69,2.28.34,3.53,1.3,4.7,3,7.12,10.36,10.46,22.19,13.29,34.21.06.24.02.53.13.73.89,1.62-.08,4.85,2.48,4.73,1.93-.09,2.08-3.12,2.51-4.87,1.64-6.75,2.92-13.59,5.17-20.2,7.43-21.77,23.29-33.57,45.24-37.49,15.81-2.82,30.87-.54,43.38,10.64,10.18,9.09,15.38,20.99,17.73,34.16,3.83,21.52-.8,41.3-12.62,59.61-7.38,11.45-15.98,21.92-24.8,32.24-1.06,1.24-1.79,1.68-3.19.32-1.82-1.76-4.26-1.79-6.68-1.73-20.53.52-41.07,1.07-61.61,1.47-2.59.05-4.49.83-6.25,2.62-3.93,3.99-8.01,7.85-11.95,11.83-1.28,1.29-2.22,1.52-3.69.15-2.91-2.72-6.48-4.84-8.96-7.88-5.07-6.21-11.7-5.47-18.38-5.07-6.91.41-13.81.91-20.71,1.35-.49.03-1.06-.19-1.48-.02-5.77,2.25-8.28-1.82-11.17-5.53-11.82-15.22-22.44-31.09-27.74-49.93-1.95-6.95-2.93-14.06-3.65-21.05Zm89.43,33.28c.2.28.42.57.6.87,3.12,5.06,7.18,7.35,11.17,6.31,3.95-1.03,6.21-5.13,6.69-11.02.34-4.23-1.08-8.34-.44-12.56.16-1.02-.91-1.86-1.65-1.54-3.32,1.42-6.86-.04-10.23,1.05-2.52.81-5.25.9-6.83-1.96-1.48-2.67,1.14-9.74,4.17-11.47,2.91-1.66,6.67-.46,9.05,2.87,1.48,2.07,2.08,4.5,2.8,6.87.28.92.81,1.76,1.79,1.46,1.08-.33,1.39-1.23.9-2.41-.86-2.06-1.36-4.3-2.43-6.23-3.99-7.19-10.57-8.15-16.39-2.36-1.27,1.27-1.6.75-2.51-.2-4.04-4.23-8.69-5.12-12.5-2.52-4.28,2.92-6.82,11.04-4.52,15.24.9,1.64,1.05,3.17,1.09,4.94.11,4.69-.5,9.45,1.37,14.01,1.6,3.91,4.47,5.89,8.58,6,3.95.11,6.54-1.99,8.09-5.51.29-.67.35-1.48,1.2-1.85Zm23.26,30.82c.66.61,1.25,1.28,1.95,1.76,1.74,1.21,3.54,2.59,5.78,1.18,2.21-1.38,2.53-3.58,2.13-5.92-.19-1.09-.52-2.18-.93-3.22-4.61-11.45-17.32-17.35-29-13.39-1.57.53-3.04.8-4.71.65-3.42-.31-6.81-.52-10.31-.17-7.69.77-14.57,6.69-15.4,14.18-.35,3.14-.45,6.43,2.71,8.36,3.18,1.94,5.33-1,7.97-1.71,2.92-.79,6.37.23,9.62-1.16.59-.25,2.83,2.1,4.87,1.39,1.79-.63,2.51-2.48,3.79-3.83,1.47,1.98,2.71,3.9,5.1,4.45,2.74.63,4.17-1.08,5.31-3.22,5.4,5.98,8.68,6.16,11.14.64Z"/>
      <path class="cls-3" d="m184.98,213.12c-2.16,2.37-4.34,4.6-2.09,7.68,2.22,3.05,5.2,3.14,8.24,1.29,1.33-.81,1.65.1,2.36.79,3.64,3.57,7.03,2.72,8.56-2.18.63-2.01.94-4.12,1.46-6.16.16-.62-.11-1.69,1.04-1.58.71.07,1.79.23,1.81,1.02.08,2.86,2.24,2.89,4.14,3.27,1.72.34,1.79,1.05.61,2.17-6.41,6.08-12.55,12.48-19.58,17.85-4.77,3.64-9.19,3.38-14.22-1.08-6.24-5.52-12.12-11.45-18.06-17.3-14.27-14.08-28.38-28.31-41.91-43.11-.83-.91-1.68-1.89-2.17-2.99-1.17-2.62.57-5.73,3.42-5.6,4.74.22,9.35-.88,14.07-.94,2.82-.04,4.58.84,6.34,2.86,7.2,8.25,14.58,16.34,21.8,24.58,2.08,2.37,3.47,2.9,5.07-.42,1.45-3.01,3.35-5.81,4.93-8.76.89-1.65,1.55-2.5,2.95-.38,2.12,3.22,4.38,6.34,6.63,9.47.71.99,1.09,1.92.43,3.08-.18.31-.36.76-.27,1.06.9,3.16,1.79,6-.65,9.25-1.26,1.68.64,3.6,5.11,6.12Z"/>
      <path class="cls-3" d="m192.26,185.83c6.44-7.3,12.3-13.9,18.11-20.55,1.06-1.21,2.2-1.77,3.85-1.8,13.33-.24,26.66-.55,39.98-.86,2.06-.05,4.28-.08,5.15,2.11.91,2.29.52,4.53-1.41,6.48-3.23,3.27-6.27,6.72-9.42,10.13-1.31-.97-.61-2.16-.73-3.16-.12-1,.03-2.28-1.24-2.35-1.48-.09-1.63,1.27-1.72,2.41-.29,3.45-.73,6.89-.79,10.35-.12,7.27-1.56,14.25-3.81,21.14-1.36,4.16-3.97,6.37-8.41,6.62-6.74.38-13.37-.13-19.95-1.6-1.63-.36-2.6-.96-2.46-2.96.25-3.6.29-7.22.26-10.83-.02-2.2.45-3.26,2.99-2.67,2.41.56,4.93.66,7.38,1.03,2.21.33,3.32-.4,3.12-2.78-.57-6.97,1.03-13.85.86-20.8-.03-1.2.43-2.87-1.43-2.81-1.43.04-1.8,1.41-1.79,2.8.04,6.07.02,12.14-.65,18.2-.22,2.02-.71,2.6-2.63,2.24-2.44-.46-4.92-.72-7.37-1.15-1.31-.23-2.78-.33-3.33.93-1.67,3.84-2.16.94-2.7-.45-.87-2.2-1.59-4.44-2.93-6.43-1.98-2.94-4.9-3.56-8.91-3.22Z"/>
      <path class="cls-3" d="m16.97,221.6c-1.25.01-2.45.08-3.62.68-.58.3-1.49.46-1.85-.53-.46-1.26.47-1.36,1.34-1.64,6.5-2.15,13.26-3.22,19.88-4.86,10.96-2.71,21.97-5.19,32.9-8,2.48-.64,3.2-.07,3.76,2.24,2.34,9.65,5.39,19.11,8.8,28.43.97,2.66.29,3.34-2.11,4.08-16.89,5.15-33.76,10.39-50.59,15.75-1.83.58-2.46.38-2.8-1.39-.23-1.21-.43-2.49-.99-3.56-2.03-3.89-1.98-6.35,2.86-8.47,4.75-2.08,5.86-7.14,4.08-12.18-2.32-6.57-6.65-10.49-11.64-10.54Z"/>
      <path class="cls-3" d="m141.88,205.83c-.62.3-1.25.48-1.74.86-10.89,8.54-23.05,14.47-36.4,18.06-1.47.4-1.64-.29-1.9-1.37-1.34-5.41-2.71-10.81-4.13-16.19-.33-1.25.06-1.73,1.23-2.13,9.66-3.33,18.95-7.37,26.89-13.99.88-.74,1.42-.57,2.15.18,4.15,4.29,8.34,8.53,12.51,12.8.33.34.59.74,1.4,1.78Z"/>
      <path class="cls-3" d="m40.81,183.83c2.12-.56,4.36-1.13,6.58-1.75,1.22-.34,2.05-.17,2.74,1.07,2.4,4.31,5.74,6.71,10.95,5.02,1.44-.47,2.37.13,2.7,1.68.2.97.43,1.97.87,2.84,1.36,2.65.27,3.67-2.34,4.25-12.11,2.69-24.2,5.45-36.28,8.29-5.31,1.25-10.56,2.75-15.84,4.15-1.33.35-2.86,1.04-3.14-1.12-.21-1.68-2.62-3.49.27-5.09,3.85-2.14,5.4-5.75,5.49-9.92.04-1.63.57-2.23,1.97-2.48.12-.02.22-.11.34-.15q8.03-2.63,12.99,4.37,4.17,5.89,10.2,1.81c.72-.49,1.42-1.01,2.16-1.47q5.47-3.45,1.73-8.66c-.5-.7-.98-1.43-1.45-2.16-.05-.08.01-.24.04-.67Z"/>
      <path class="cls-3" d="m67.55,273.3c0-3.47-.07-6.68.03-9.89.05-1.51-.38-2.16-1.96-2.36-6.1-.76-11.72.38-16.56,4.24-1.84,1.47-1.34,3.49-.35,5.39,1.38,2.65,3.32,4.9,5.56,7.54-3.61,1.2-6.95,2.19-10.2,3.44-1.53.59-1.42-.45-1.96-1.23-2.34-3.38-5.69-5.68-9.72-5.48-3.26.16-4.02-1.33-4.62-3.76-.23-.93-.61-1.82-.94-2.8,17.71-6.01,35.46-11.83,53.37-17.19,1.69-.51,2.37-.08,2.65,1.26.25,1.18,1.85,2.42-.33,3.68-3.92,2.26-6.2,5.9-5.99,10.39.15,3.37-1.27,4.63-4.14,5.27-1.53.34-3.01.92-4.84,1.5Z"/>
      <path class="cls-3" d="m207.59,164.14c-8.54,9.68-16.5,18.7-24.72,28.03-2.73-3.86-5.25-7.53-7.88-11.12-1.04-1.41-.32-2.22.65-3.15,4.31-4.14,8.62-8.27,12.87-12.47.97-.96,1.99-1.32,3.31-1.31,4.96.04,9.92.02,15.77.02Z"/>
      <path class="cls-1" d="m206.47,210.21c-5.74-.54-4.8-1.51-5.93,4.55-.34,1.83-.78,3.65-1.37,5.41-.32.97-.66,2.36-2.21,1.92-1.2-.34-1.74-1.34-1.81-2.57-.09-1.65.5-3.17.96-4.72.19-.64.34-1.59-.52-1.95-.96-.41-1.65.1-2.05,1.03-.78,1.82-1.39,3.77-2.94,5.13-1.51,1.32-3.28,2.22-4.93.43-1.84-1.99.23-3.07,1.38-4.23,1.72-1.72,4.03-2.37,6.2-3.29.76-.32,1.71-.86,1.39-1.92-.39-1.31-1.44-1.05-2.46-.76-2.55.73-5.06,2.16-7.77.34-.98-.66-1.96-1.27-1.73-2.58.21-1.19,1.38-1.46,2.32-1.53,2.6-.21,5.21-.25,7.82-.33,1.03-.03,2.16-.07,2.31-1.32.15-1.29-.95-1.57-1.99-1.7-2.22-.28-4.45-.45-6.64-.86-1.49-.28-3.06-.93-2.99-2.79.09-2.28,2.01-1.28,3.17-1.39,2.76-.26,5.45.1,8.02,1.25.82.37,1.75.5,2.26-.52.53-1.04-.21-1.62-.95-2.11-.62-.41-1.36-.65-1.94-1.11-1.67-1.33-3.12-3.16-1.41-5.03,1.66-1.81,3.94-1.22,5.59.52,1.76,1.85,2.4,4.31,3.15,6.68.4,1.26.53,3.13,2.2,3.09,3.51-.07,3.31,2.05,3.13,4.42-.15,1.97-.19,3.96-.29,5.94Z"/>
      <path class="cls-6" d="m69.66,201.29c.12,1.65-.97,2-2.28,2.36-13.13,3.62-26.42,6.59-39.69,9.65-5.55,1.28-11.07,2.65-16.6,3.99-1.39.34-2.68,1.26-3.36-1.22-.66-2.4.25-2.96,2.23-3.53,13.92-4.06,28.14-6.86,42.25-10.12,4.82-1.11,9.65-2.23,14.39-3.64,2.68-.8,2.92.62,3.08,2.51Z"/>
      <path class="cls-3" d="m139.49,165.49c5.08,0,9.03.03,12.98-.02,1.27-.01,2.07.74,2.91,1.45,4.35,3.71,8.65,7.49,13.05,11.14,1.39,1.15,1.74,2.11.71,3.73-1.66,2.62-3.11,5.38-4.62,8.09-.8,1.43-1.47,2.09-2.91.44-7.05-8.02-14.2-15.96-22.12-24.84Z"/>
      <path class="cls-6" d="m22.7,263.24c-.8-1.79.44-1.54,1.18-1.77,18.56-5.75,37.12-11.48,55.66-17.32,1.72-.54,2.46-.37,2.95,1.41.43,1.54-.18,1.79-1.49,2.21-18.16,5.79-36.32,11.61-54.43,17.57-2.71.89-4.06.71-3.87-2.11Z"/>
      <path class="cls-1" d="m90.76,230.14c-2.35-8.1-4.49-15.45-6.72-23.14,1.49-.17,2.32.98,3.32,1.57,2.05,1.2,3.99,2.64,6.58,1.52,1.32-.57,1.74.21,1.99,1.37.33,1.58.67,3.17,1.19,4.7,1.13,3.27,1.59,6.14-2.5,7.84-2.24.94-2.42,3.6-3.85,6.16Z"/>
      <path class="cls-3" d="m166.03,14.77c-8.05-1.77-15.4-3.47-22.79-4.97-5.47-1.11-10.96-2.21-16.61-2.04-.68.02-1.58.34-2.02-.44-.45-.8.29-1.4.72-1.95,1.43-1.84,3.05-3.23,5.69-2.61,9.66,2.27,19.37,4.39,28.79,7.53,2.18.72,4.88,1.08,6.2,4.47Z"/>
      <path class="cls-3" d="m120.55,17.69c14.85.63,29.22,4.06,43.62,7.29,1.86.42,2.21,1.43,1.9,2.92-.34,1.64-1.56.8-2.37.55-14.18-4.34-28.91-5.94-43.42-8.68-.96-.18-2.47.49-2.59-1.28-.05-.8.72-1.01,2.85-.8Z"/>
      <path class="cls-6" d="m76.68,210.36c-1.14-.57-3.12,1.96-3.61-.37-.51-2.42,2.3-1.53,3.54-2.2,3.26-1.76,4.66.03,5.48,3.09,1.79,6.7,3.71,13.37,5.64,20.03.36,1.23.93,2.44-.4,3.35-1.75,1.19-3.68,2.02-5.83,2.02-.29,0-.75-.65-.83-1.06-.14-.76.55-1.13,1.12-1.25,4-.85,3.41-3.41,2.54-6.28-1.47-4.86-2.76-9.77-4.18-14.65-.47-1.62-1.18-3.1-3.45-2.69Z"/>
      <path class="cls-2" d="m61.3,263.63c2.23-.12,5.3-.79,3.28,3.66-.33.72-.21,1.75-.02,2.58.94,4.18-1.37,5.88-4.92,6.92-3.37.99-4.49-1.15-5.85-3.52-1.08-1.89-3.93-3.8-3.03-5.58,1.41-2.78,4.91-3.48,8-4.03.72-.13,1.49-.02,2.54-.02Zm1.27,6.4c-.82-1.36,1-3.95-1.55-4.12-2.37-.16-1.63,2.24-1.69,3.7-.07,1.73-.32,4.26,1.87,4.27,2.38,0,.55-2.58,1.36-3.84Zm-4.74-.67c-.04-1.38.23-2.75-1.66-2.84-1.58-.08-1.36,1.01-1.36,1.98,0,1.34-.16,3.05,1.58,3.19,1.27.1,1.54-1.31,1.44-2.32Z"/>
      <path class="cls-2" d="m15.71,226.89c-.37,0-.75.05-1.11-.01-.97-.17-2.39,1.73-2.76-.02-.27-1.3,1.62-1.84,2.9-2.11,4.03-.84,7.05.75,9.06,4.2,3.94,6.79,4.19,11.54-3.45,14.44-.96.36-2.08,1.5-2.75-.06-.65-1.51,1.05-1.31,1.78-1.73,3.5-2.02,5.02-5.39,4.02-9.11-.93-3.49-3.95-5.68-7.7-5.61Z"/>
      <path class="cls-2" d="m35.43,191.09c-1.2-.43-1.3-1.72-1.87-2.6-.61-.93-2.7-2.22-1.03-3.11,1.35-.72,3.37-2.27,5.43.32,4.12,5.18,4.18,4.79-1.09,8.7-3.04,2.25-4.85,2.18-6.61-1.19-.85-1.64-2.09-3.07-3.11-4.62-.36-.55-1.21-1.3-.2-1.79.73-.35,1.76-.76,2.47.53.95,1.72,2.18,3.27,3.25,4.93.52.8,1.14,1.4,2.1,1,1.12-.46.47-1.48.56-2.27,1.24-.54,4.46,1.65,3.2-2.28-.31-.95-1.18-1.87-2.29-1.31-1.62.81-.63,2.43-.8,3.69Z"/>
      <path class="cls-3" d="m138.56,12.31c5.3-.34,10.2,1.72,15.29,2.61,3.05.53,6.02,1.55,9.06,2.13,2.73.52,3.92,1.79,2.82,4.98-8.69-4.29-18.32-5.85-27.13-9.78l-.05.06Z"/>
      <path class="cls-3" d="m78.77,266.5c.26-3.11,4.5-8.91,5.87-7.97,2.1,1.44,2.78,4.09,3.16,6.6.18,1.21-5.43,3.74-7.58,3.68-1.85-.05-1.37-1.3-1.45-2.32Z"/>
      <path class="cls-3" d="m140.5,17.36c-6.67-1.67-13.54-1.91-20.5-2.69.69-3.48,2.02-4.79,5.57-3.39,4.97,1.95,10.14,3.39,15.22,5.05-.1.35-.19.69-.29,1.04Z"/>
      <path class="cls-3" d="m179.82,38.07c-5.49,2.4-11,4.56-17.4,2.56,2.72-3.34,5.46-5.35,9.9-3.85,2.34.79,4.9,1.25,7.5,1.28Z"/>
      <path class="cls-2" d="m20.4,234.19c.06,1.68.21,3.1-1.06,4.05-1.73,1.3-3.46,2.44-4.12-.98-.16-.84-.6-1.62-.75-2.46-.27-1.47-2.06-2.98-.74-4.32,1.12-1.14,3.15-.92,4.57-.29,1.66.74,2.58,2.3,2.12,4Z"/>
      <path class="cls-3" d="m163.63,35.4c-2.96,2.18-4.5,5-8.5,4.44-3.1-.44-3.18-2.5-3.74-4.44-.44-1.53.91-1.5,1.85-1.39,3.26.38,6.5.86,10.39,1.39Z"/>
      <path class="cls-3" d="m112.18,31.22c-5.17-2-7.62-6.18-10.37-10.35,5.98,0,8.43,2.43,10.37,10.35Z"/>
      <path class="cls-3" d="m113.23,24.76c5.93-.29,7.85,3.41,8.81,8.11-5.42.29-6.26-.47-8.81-8.11Z"/>
      <path class="cls-3" d="m58.55,185.71c-2.9,0-6.49-2.44-5.86-4.19.79-2.21,3.5-2.01,5.3-2.11,2.92-.16,3.2,2.81,3.46,4.77.25,1.92-1.95,1.11-2.9,1.53Z"/>
      <path class="cls-3" d="m30.4,278.04c4.48-.9,7.29.95,9.5,4.37-9.32,3.14-7.17,2.63-9.5-4.37Z"/>
      <path class="cls-3" d="m123.45,27.57c6.55.27,7.99,1.5,7.67,6.11-.12,1.8-.7,1.93-2.28,1.47-3.89-1.13-4.37-4.43-5.39-7.57Z"/>
      <path class="cls-3" d="m9.94,194.41c-.23,2.86-3.12,6.9-4.57,6.31-2.07-.85-2.18-3.24-2.13-5.01.09-3.37,3.32-2.6,5.34-3.19,2.07-.6.95,1.37,1.36,1.89Z"/>
      <path class="cls-3" d="m133.48,30.56c1.59-.55,3.13-.09,4.71.03,3.02.24,2.71,2.26,2.59,4.22-.05.84.44,2.47-1.17,2.02-1.91-.53-4.76.52-5.41-2.66-.24-1.19-.48-2.37-.73-3.61Z"/>
      <path class="cls-3" d="m148.98,36.25c-.11.9.64,2.35-1.37,2.15-2.34-.23-4.03-1.02-3.75-3.79.11-1.04-.66-2.5,1.61-2.32,2.63.2,3.8,1.31,3.5,3.96Z"/>
      <path class="cls-1" d="m81.57,228.63c-.1,1.48-.99,1.91-2.01,1.93-1.33.02-1.49-1.13-1.51-2.09-.03-1.42,1.25-1.95,2.23-1.94,1.27.01.44,1.73,1.29,2.1Z"/>
      <path class="cls-1" d="m77.7,223.81c-1.33.15-1.71-.77-1.85-1.78-.21-1.55.94-1.81,2.09-1.88,1.4-.09,1.48,1.02,1.61,1.98.2,1.42-.87,1.52-1.85,1.68Z"/>
      <path class="cls-3" d="m185.47,193.56c1.25-1.4,2.15-2.4,3.1-3.46,1.48,4.01,1.43,4.07-3.1,3.46Z"/>
      <path class="cls-3" d="m138.61,12.25h-3.58c1.86-.77,2.79-1.11,3.53.06,0,0,.05-.06.05-.06Z"/>
      <path class="cls-5" d="m167.31,120.84c-.84.37-.9,1.18-1.2,1.85-1.55,3.52-4.14,5.62-8.09,5.51-4.12-.11-6.98-2.09-8.58-6-1.86-4.56-1.26-9.32-1.37-14.01-.04-1.77-.19-3.3-1.09-4.94-2.3-4.2.23-12.32,4.52-15.24,3.82-2.6,8.46-1.71,12.5,2.52.91.95,1.24,1.47,2.51.2,5.82-5.79,12.4-4.83,16.39,2.36,1.07,1.93,1.57,4.17,2.43,6.23.49,1.18.18,2.08-.9,2.41-.99.3-1.51-.53-1.79-1.46-.72-2.38-1.32-4.8-2.8-6.87-2.37-3.33-6.14-4.54-9.05-2.87-3.02,1.73-5.65,8.79-4.17,11.47,1.58,2.86,4.32,2.77,6.83,1.96,3.37-1.09,6.91.38,10.23-1.05.74-.32,1.81.52,1.65,1.54-.64,4.22.78,8.33.44,12.56-.48,5.89-2.74,10-6.69,11.02-4,1.04-8.05-1.25-11.17-6.31-.19-.3-.41-.58-.6-.87Zm-11-17.38c7.83-.12,8.2-.45,7.66-6.77-.26-3.12-3.55-6.76-6.68-7.22-3.78-.56-5.96,1.61-7.01,4.82-2.39,7.34-1.87,10.21,6.02,9.18Zm3.23,2.92c-2.63,0-4.97,0-7.31,0-.68,0-1.14.25-1.45.91-1.39,2.91.06,8.86,2.72,10.58,1.79,1.15,3.85,1.61,5.39-.25,1.31-1.57,1.54-4.03-.24-5-3.94-2.16-3.55-3.51.23-5.05.25-.1.35-.6.66-1.18Zm17.24.22c-2.18,0-4.36,0-6.54,0-.61,0-1.25-.1-1.66.53-1.76,2.7.81,9.96,3.94,11,1.93.64,3.81.57,4.8-1.52.88-1.87.52-3.6-1.24-4.95-3.29-2.55-3.27-2.57.69-5.06Zm-6.13,14.16c1.06,1.81,2.05,2.86,3.36,3.62,3.19,1.86,6.81.98,7.71-2.2,1.54-5.4,1.54-10.86-.31-16.58q-2.68,4.2-2.13,5.32c2.99,6.03.8,9.66-5.95,9.83-.73.02-1.46,0-2.67,0Zm-18.71.08c1.94,3.58,3.6,4.63,6.52,4.48,2.52-.13,4.28-1.39,4.98-3.75,1.41-4.77,1.45-9.69,1.29-14.62-.02-.67-.1-1.23-.98-1.18-.64.04-1.14.11-1.27.94-.32,1.94-2.07,3.27-.51,5.94,2.59,4.43-1.02,9.17-6.15,8.86-1.19-.07-2.37-.4-3.88-.67Z"/>
      <path class="cls-5" d="m190.57,151.66c-2.46,5.52-5.74,5.34-11.14-.64-1.14,2.14-2.57,3.85-5.31,3.22-2.39-.55-3.63-2.47-5.1-4.45-1.28,1.35-2,3.2-3.79,3.83-2.04.71-4.27-1.64-4.87-1.39-3.25,1.39-6.7.37-9.62,1.16-2.64.71-4.8,3.65-7.97,1.71-3.16-1.93-3.06-5.22-2.71-8.36.83-7.48,7.71-13.4,15.4-14.18,3.51-.35,6.89-.14,10.31.17,1.67.15,3.14-.11,4.71-.65,11.68-3.96,24.39,1.93,29,13.39.42,1.03.74,2.12.93,3.22.4,2.35.07,4.54-2.13,5.92-2.24,1.41-4.04.03-5.78-1.18-.7-.49-1.28-1.15-1.95-1.76Zm-30.86-16.71c-10.35.45-15.01,3.87-17.22,12.27-.56,2.14.11,4.35,1.89,5.49,1.96,1.26,3.05-.92,4.24-2.06,1.08-1.03,1.44-2.53,2.14-3.8.71-1.3.18-4.39,2.72-3.52,2.45.84.12,2.92-.07,4.36-.16,1.29-.28,2.42.88,2.85,1.1.42,2.5.41,2.96-1.3.44-1.64,1.04-3.24,1.44-4.88.22-.91-.16-2.2,1.43-2.01,1.2.14,1.56,1.16,1.63,2.16.1,1.36.1,2.74.04,4.11-.05,1.2.79,2,1.56,2.31,1,.4,1.63-.72,2.03-1.51.99-1.98,1.68-4.03,1.68-6.33,0-.96-1.1-2.8,1.08-2.87,1.96-.06,1.86,1.59,1.93,2.97.13,2.64.93,5,2.79,6.96.71.74,1.44,1.56,2.54,1.12,1.06-.43.5-1.5.54-2.28.11-1.99.1-3.98.16-5.97.03-1-.79-2.45.81-2.76,1.57-.3,1.87.98,2.26,2.3.92,3.14,1.89,6.3,4,8.91.69.86,1.49,1.87,2.8,1.3,1.43-.62,1.44-1.95,1.07-3.2-.59-1.99-1.41-3.92-1.94-5.93-.23-.85-.76-2.12.42-2.63,1.36-.59,1.9.61,2.47,1.6,1.65,2.91,3.45,5.71,5.82,8.12.8.81,1.57,1.93,2.73,1.38,1.27-.6,1.27-2.02,1.07-3.3-1.13-7.21-9.57-14.13-16.88-14.7-7.41-.58-14.55,3.68-21,.84Z"/>
      <path d="m62.58,270.03c-.82,1.26,1.01,3.85-1.36,3.84-2.2,0-1.94-2.54-1.87-4.27.06-1.46-.68-3.86,1.69-3.7,2.55.18.73,2.77,1.55,4.12Z"/>
      <path class="cls-5" d="m57.84,269.36c.1,1.02-.17,2.42-1.44,2.32-1.74-.13-1.58-1.84-1.58-3.19,0-.96-.23-2.05,1.36-1.98,1.89.09,1.62,1.46,1.66,2.84Z"/>
      <path class="cls-5" d="m35.43,191.09c.18-1.26-.81-2.88.8-3.69,1.12-.56,1.99.36,2.29,1.31,1.26,3.93-1.96,1.74-3.2,2.28,0,0,.1.1.1.1Z"/>
      <path class="cls-1" d="m156.31,103.45c-7.89,1.03-8.41-1.84-6.02-9.18,1.05-3.21,3.23-5.38,7.01-4.82,3.12.47,6.41,4.11,6.68,7.22.54,6.32.17,6.65-7.66,6.77Z"/>
      <path class="cls-4" d="m159.54,106.38c-.31.58-.41,1.07-.66,1.18-3.78,1.54-4.17,2.89-.23,5.05,1.78.98,1.55,3.43.24,5-1.54,1.86-3.6,1.4-5.39.25-2.66-1.72-4.11-7.67-2.72-10.58.31-.65.76-.91,1.45-.91,2.34,0,4.68,0,7.31,0Z"/>
      <path class="cls-4" d="m176.78,106.6c-3.96,2.49-3.98,2.51-.69,5.06,1.75,1.36,2.12,3.09,1.24,4.95-.99,2.09-2.88,2.16-4.8,1.52-3.13-1.04-5.7-8.3-3.94-11,.41-.63,1.05-.53,1.66-.53,2.18,0,4.36,0,6.54,0Z"/>
      <path class="cls-2" d="m170.65,120.76c1.21,0,1.94.02,2.67,0,6.75-.17,8.94-3.8,5.95-9.83q-.56-1.12,2.13-5.32c1.85,5.72,1.85,11.17.31,16.58-.9,3.18-4.52,4.05-7.71,2.2-1.3-.76-2.3-1.81-3.36-3.62Z"/>
      <path class="cls-2" d="m151.94,120.85c1.51.27,2.69.6,3.88.67,5.13.31,8.74-4.43,6.15-8.86-1.56-2.67.19-4,.51-5.94.14-.84.63-.91,1.27-.94.88-.05.96.51.98,1.18.16,4.93.12,9.85-1.29,14.62-.7,2.37-2.46,3.62-4.98,3.75-2.93.15-4.58-.9-6.52-4.48Z"/>
      <path class="cls-2" d="m159.71,134.95c6.45,2.84,13.59-1.42,21-.84,7.31.57,15.75,7.5,16.88,14.7.2,1.28.2,2.7-1.07,3.3-1.17.55-1.93-.57-2.73-1.38-2.37-2.41-4.16-5.21-5.82-8.12-.56-.99-1.11-2.19-2.47-1.6-1.17.51-.64,1.78-.42,2.63.54,2.01,1.36,3.93,1.94,5.93.37,1.25.35,2.57-1.07,3.2-1.3.57-2.1-.44-2.8-1.3-2.1-2.61-3.08-5.77-4-8.91-.39-1.32-.69-2.6-2.26-2.3-1.6.31-.78,1.76-.81,2.76-.07,1.99-.05,3.99-.16,5.97-.04.78.51,1.86-.54,2.28-1.1.44-1.84-.38-2.54-1.12-1.86-1.95-2.65-4.32-2.79-6.96-.07-1.37.03-3.03-1.93-2.97-2.18.07-1.08,1.91-1.08,2.87,0,2.3-.69,4.35-1.68,6.33-.39.79-1.03,1.91-2.03,1.51-.78-.31-1.62-1.11-1.56-2.31.06-1.37.06-2.75-.04-4.11-.08-1.01-.43-2.03-1.63-2.16-1.59-.18-1.2,1.1-1.43,2.01-.41,1.65-1,3.24-1.44,4.88-.46,1.71-1.85,1.72-2.96,1.3-1.15-.44-1.04-1.56-.88-2.85.18-1.44,2.52-3.52.07-4.36-2.54-.87-2.01,2.22-2.72,3.52-.69,1.27-1.06,2.77-2.14,3.8-1.19,1.13-2.28,3.32-4.24,2.06-1.78-1.14-2.45-3.35-1.89-5.49,2.21-8.4,6.87-11.82,17.22-12.27Z"/>
    </g>
  </g>
</svg>