<?xml version="1.0" encoding="UTF-8"?>
<svg id="_레이어_2" data-name="레이어 2" xmlns="http://www.w3.org/2000/svg" viewBox="0 0 83.3 71.35">
  <defs>
    <style>
      .cls-1 {
        fill: #f3af3c;
      }

      .cls-2 {
        fill: #fff;
      }

      .cls-3 {
        fill: #080706;
      }
    </style>
  </defs>
  <g id="_레이어_1-2" data-name="레이어 1">
    <g>
      <path class="cls-3" d="m27.4,17.3c-2.26-7.22-.05-12.8,5.46-16.02,3.68-2.16,8.26,1.65,10.9,7.88,1.76-1.61,3.57-3.07,5.15-4.75,3.81-4.02,11.28-5.51,16.53-3.55,7.07,2.64,8.19,10.21,5.34,16.21-.63,1.32-1.8,2.36-2.53,3.64-.58,1.01-2.62,1.26-1.67,3.09.84,1.62,2.44,1.71,3.92,1.83,3.72.3,7.12,1.28,10.07,3.73,3.56,2.95,3.62,6.94.35,10.17-3.18,3.14-7.39,3.51-11.28,4.76-1.02.33-1.9.04-1.31,1.7,2.92,8.25-.21,16.07-7.68,20.49-5.8,3.44-11.17,3.06-16.49-.84-.7-.51-1.26-2.25-2.22.03-3.69,8.78-12.55,6.09-17.06.71-3.05-3.65-4.35-8.02-3.74-13.22-3.12,1.32-5.14,3.81-8.41,3.97-5.61.27-9.36-4.13-11.81-10.78-2.55-6.93.1-16.24,8.41-19.6,1.65-.67,1.6-1.55.55-2.4-2.6-2.12-3.26-5.15-1.82-7.56,1.34-2.24,4.43-2.99,7.3-3.1,3.77-.15,6.91.38,12.04,3.63Zm36.62,10.45c-1.37.08-2.73.2-4.1.22-1.04.02-2.44.78-2.98-.63-.64-1.65,1.01-2.01,2-2.63,3.72-2.35,7.19-4.96,9.37-8.9,1.82-3.31,2.14-6.67-.35-9.78-2.49-3.11-5.92-3.53-9.64-3.05-5.6.72-8.82,4.57-11.99,8.68-1.28,1.65-1.28,5.3-3.89,4.68-2.32-.55-.92-3.71-1.22-5.7-.59-3.97-2.75-6.69-5.42-6.6-2.99.1-5.65,3.33-5.9,7.13-.14,2.03.23,3.97,1.06,5.81.51,1.13,1.2,2.17,1.79,3.27.33.6.31,1.18-.27,1.65-.54.45-1.12.53-1.69.09-2.63-2.06-6.28-2.13-8.77-4.57-.89-.88-2.32-.77-3.58-.71-2.79.11-6.42-.88-7.49,2.54-.93,2.96,2.31,4.24,4.33,5.77.79.59,1.82,1.08,1.43,2.31-.32.99-1.33.98-2.16,1.16C4.04,30.75.4,38.33,5.07,48.19c3.32,7.02,9.33,7.92,14.38,2.01,1.68-1.97,2.98-4.27,4.38-6.47.55-.86.95-1.96,2.19-1.46,1.57.64.79,1.8.37,2.82-.37.92-.78,1.83-1.08,2.78-1.77,5.56-2.11,11.02,1.66,15.98,2.7,3.54,7.37,5.2,10.09,3.77,2.73-1.43,3.25-4.68,1.91-9.79-.42-1.6-2.76-3.91-.53-4.85,2.75-1.16,2.42,2.4,3.28,3.86,2.51,4.26,5.11,8.7,10.48,9.06,5.68.38,9.77-3.08,12.77-7.69.8-1.23,1.34-2.66,1.78-4.07,1.35-4.37.2-6.97-3.85-8.76-.99-.44-2.46-.43-2.21-1.98.29-1.77,1.9-1.26,3.05-1.3,4.38-.15,8.56-1.2,12.56-2.9,2.11-.89,4.3-2.19,4.33-4.66.03-2.69-2.35-3.94-4.55-4.9-3.84-1.68-7.92-2.04-12.07-1.88Z"/>
      <path class="cls-1" d="m64.02,27.75c4.15-.16,8.23.2,12.07,1.88,2.2.96,4.58,2.21,4.55,4.9-.03,2.47-2.23,3.76-4.33,4.66-4.01,1.7-8.18,2.76-12.56,2.9-1.15.04-2.75-.47-3.05,1.3-.26,1.54,1.21,1.54,2.21,1.98,4.05,1.8,5.2,4.39,3.85,8.76-.44,1.41-.98,2.84-1.78,4.07-3,4.61-7.09,8.07-12.77,7.69-5.37-.36-7.96-4.8-10.48-9.06-.86-1.46-.53-5.01-3.28-3.86-2.24.94.11,3.24.53,4.85,1.34,5.11.82,8.36-1.91,9.79-2.73,1.43-7.39-.23-10.09-3.77-3.77-4.95-3.44-10.41-1.66-15.98.3-.94.71-1.86,1.08-2.78.41-1.02,1.2-2.18-.37-2.82-1.24-.5-1.64.6-2.19,1.46-1.4,2.2-2.7,4.5-4.38,6.47-5.06,5.91-11.06,5.01-14.38-2.01-4.67-9.86-1.03-17.44,9.47-19.72.84-.18,1.85-.16,2.16-1.16.39-1.23-.64-1.72-1.43-2.31-2.03-1.53-5.27-2.82-4.33-5.77,1.08-3.42,4.71-2.42,7.49-2.54,1.26-.05,2.69-.16,3.58.71,2.48,2.44,6.13,2.51,8.77,4.57.57.45,1.14.36,1.69-.09.57-.48.59-1.05.27-1.65-.59-1.09-1.28-2.14-1.79-3.27-.83-1.84-1.19-3.78-1.06-5.81.26-3.8,2.91-7.03,5.9-7.13,2.67-.09,4.83,2.64,5.42,6.6.29,1.99-1.1,5.15,1.22,5.7,2.61.62,2.62-3.02,3.89-4.68,3.17-4.11,6.39-7.96,11.99-8.68,3.71-.48,7.15-.06,9.64,3.05,2.49,3.11,2.17,6.47.35,9.78-2.18,3.95-5.65,6.56-9.37,8.9-.99.62-2.63.98-2,2.63.54,1.41,1.94.65,2.98.63,1.37-.03,2.74-.15,4.1-.22Zm-26.2-2.85c-5.53-.03-6.93.96-7.57,5.4-1,6.86,5.72,13.13,12.56,11.72,3.53-.73,6.28-3.74,6.83-7.41.59-3.93-1.41-6.4-4.63-8.07-2.22-1.15-4.64-1.72-7.18-1.64Z"/>
      <path class="cls-3" d="m37.81,24.9c2.54-.08,4.96.49,7.18,1.64,3.22,1.67,5.22,4.14,4.63,8.07-.55,3.67-3.3,6.68-6.83,7.41-6.84,1.41-13.56-4.86-12.56-11.72.65-4.43,2.04-5.43,7.57-5.39Zm8.65,8.72c-.02-3.7-3.07-5.8-8.54-5.86-3.87-.04-6.35,3.34-4.6,6.69,1.48,2.84,3.91,4.76,7.38,4.81,3.68.05,5.77-1.99,5.76-5.65Z"/>
      <path class="cls-2" d="m46.47,33.63c.02,3.66-2.08,5.7-5.76,5.65-3.48-.05-5.91-1.98-7.38-4.81-1.75-3.35.74-6.74,4.6-6.69,5.47.06,8.52,2.15,8.54,5.86Z"/>
    </g>
  </g>
</svg>