<?xml version="1.0" encoding="UTF-8"?>
<svg id="_레이어_2" data-name="레이어 2" xmlns="http://www.w3.org/2000/svg" viewBox="0 0 173.76 160.68">
  <defs>
    <style>
      .cls-1 {
        fill: #f3af3c;
      }

      .cls-2 {
        fill: #fff;
      }

      .cls-3 {
        fill: #080706;
      }
    </style>
  </defs>
  <g id="_레이어_1-2" data-name="레이어 1">
    <g>
      <path class="cls-3" d="m137.98,99.2c7.39,10.33,6.73,20.31,6.09,30.03-.75,11.41-9.62,17.44-18.08,22.66-21.6,13.31-42.71,8.37-55.76-12.1-2.84-4.45-4-4.38-6.4.19-2.35,4.46-5.21,8.77-8.5,12.58-5.32,6.16-12.57,9.74-20.45,7.39-8.23-2.45-10.63-9.69-11.23-18.1-1.13-15.82,4.92-29.04,13.84-41.93-9.56-1.29-18.84,1.12-27.33-5.32C3.2,89.34-.33,82.15.02,75.24c.38-7.39,6.05-13.98,15.24-14.53-6.14-16.16-5.35-28.55,4.89-34.26,12.41-6.92,22.11,1.38,31.31,11.45,1.03-11.56,6.3-19.63,12.24-27.38,4.22-5.5,9.77-9.22,16.67-8.45,6.71.75,12.29,3.95,13.35,11.92.43,3.24,1.77,3.91,4.93,1.31C109.71,6.24,121.76-.59,136.87.04c8.08.34,16.15,1.41,19.97,9.11,3.89,7.84,1.13,15.8-3.82,22.74-2.83,3.97-8.57,8.03-8.2,11.55.45,4.35,7.95,3.23,12.08,5.4,9.64,5.08,18.08,16.68,16.72,25.26-1.76,11.13-7.53,19.41-19.13,22.56-4.93,1.34-9.59,3.78-16.52,2.53Zm-107.15,38.56c0,1.59.13,2.48-.02,3.33-.99,5.65,1.59,9.85,6.28,12.08,4.98,2.37,8.43-1.1,11.93-4.52,6.75-6.62,10.46-14.73,13.48-23.45.58-1.68.81-4.93,4.17-4.65,2.75.23,3.96,1.83,4.36,4.49.25,1.64,1.13,3.18,1.65,4.8,8.13,25.37,37.84,27.66,54.39,13.73,13.05-11,15.9-27.82,4.35-43.04-1.54-2.03-4.15-4-2.48-6.8,1.37-2.3,4.24-1.07,6.41-1.08,6.37-.02,12.67-.19,18.73-2.47,14.52-5.46,17.35-20.69,5.87-31.14-5.87-5.34-12.82-7.7-20.56-8.28-2.83-.21-6.31.13-7.25-3.34-.83-3.06,2.37-4.37,4.16-6.1,4.83-4.66,9.5-9.47,12.83-15.32,6.42-11.25,2.1-18.28-10.6-18.97-14.8-.8-26.31,5.34-36.8,14.87-2.87,2.61-3.94,8.57-8.64,7.49-5.02-1.15-2.72-6.96-3.83-10.59-3.48-11.41-9.37-13.44-18.11-5.48-8.49,7.73-12.47,17.79-14.11,28.92-.32,2.17.99,5.22-1.83,6.15-2.69.88-5.01-1.16-6.65-3.12-3.55-4.22-6.7-8.82-11.38-11.92-9.35-6.19-17.21-2.48-18.34,8.73-.7,6.89,1.41,13.22,4.76,19.12,3.2,5.64,2.2,7.75-4.68,7.31-9.44-.6-13.49,4.49-10.51,12.55,1.81,4.9,5.56,8.08,10.42,9.86,7.07,2.59,14.19,1.99,21.43.54,3.08-.61,7.06-3.71,9.46.4,1.94,3.33-1.72,5.67-3.43,8.21-7.9,11.69-16.44,23.13-15.42,37.68Z"/>
      <path class="cls-1" d="m30.83,137.75c-1.02-14.56,7.52-25.99,15.42-37.68,1.71-2.54,5.37-4.88,3.43-8.21-2.4-4.11-6.38-1.02-9.46-.4-7.25,1.44-14.36,2.04-21.43-.54-4.86-1.78-8.61-4.96-10.42-9.86-2.98-8.06,1.08-13.15,10.51-12.55,6.87.44,7.88-1.67,4.68-7.31-3.35-5.9-5.45-12.23-4.76-19.12,1.13-11.2,9-14.92,18.34-8.73,4.68,3.1,7.83,7.7,11.38,11.92,1.65,1.96,3.97,4,6.65,3.12,2.82-.93,1.51-3.97,1.83-6.15,1.65-11.13,5.63-21.2,14.11-28.92,8.74-7.95,14.63-5.93,18.11,5.48,1.11,3.63-1.19,9.43,3.83,10.59,4.7,1.08,5.77-4.88,8.64-7.49,10.49-9.54,22-15.67,36.8-14.87,12.7.69,17.02,7.72,10.6,18.97-3.34,5.84-8,10.66-12.83,15.32-1.79,1.73-4.99,3.04-4.16,6.1.94,3.48,4.42,3.13,7.25,3.34,7.74.58,14.69,2.94,20.56,8.28,11.49,10.45,8.65,25.69-5.87,31.14-6.06,2.28-12.37,2.45-18.73,2.47-2.16,0-5.04-1.22-6.41,1.08-1.66,2.79.94,4.77,2.48,6.8,11.55,15.22,8.7,32.04-4.35,43.04-16.54,13.94-46.26,11.64-54.39-13.73-.52-1.61-1.4-3.15-1.65-4.8-.41-2.66-1.62-4.26-4.36-4.49-3.35-.28-3.59,2.97-4.17,4.65-3.01,8.72-6.73,16.83-13.48,23.45-3.49,3.43-6.95,6.9-11.93,4.52-4.68-2.23-7.26-6.44-6.28-12.08.15-.85.02-1.74.02-3.33Zm76.68-61.17c1.26-9.33-4.18-14.43-11.71-16.98-6.7-2.27-13.67-4.12-21.05-3.74-8.93.46-15.56,5.23-17.35,13.97-1.81,8.89.28,16.97,7.69,22.6,9.55,7.25,20.51,8.06,31.27,3.61,8.19-3.39,12.36-10.28,11.15-19.47Z"/>
      <path class="cls-3" d="m107.51,76.58c1.21,9.19-2.96,16.08-11.15,19.47-10.75,4.45-21.72,3.63-31.27-3.61-7.41-5.63-9.5-13.71-7.69-22.6,1.78-8.74,8.42-13.51,17.35-13.97,7.37-.38,14.35,1.47,21.05,3.74,7.53,2.55,12.97,7.65,11.71,16.98Zm-25.21,14.26c2.36,0,3.8.02,5.25,0,8.5-.13,13.32-4.12,14.02-12.76.57-7-3.05-11.49-10.21-12.79-4.17-.76-8.72-.86-12.37-2.69-6.24-3.12-9.92-.04-13.11,4.21-3.33,4.44-5.07,8.94-1.41,14.8,4.58,7.34,10.42,10.37,17.84,9.24Z"/>
      <path class="cls-2" d="m82.3,90.84c-7.41,1.13-13.26-1.9-17.84-9.24-3.66-5.86-1.92-10.36,1.41-14.8,3.19-4.26,6.87-7.34,13.11-4.21,3.66,1.83,8.2,1.93,12.37,2.69,7.16,1.3,10.78,5.79,10.21,12.79-.7,8.64-5.52,12.64-14.02,12.76-1.44.02-2.89,0-5.25,0Z"/>
    </g>
  </g>
</svg>