<?xml version="1.0" encoding="UTF-8"?>
<svg id="_레이어_2" data-name="레이어 2" xmlns="http://www.w3.org/2000/svg" viewBox="0 0 169.4 160.22">
  <defs>
    <style>
      .cls-1 {
        fill: #fff;
      }

      .cls-2 {
        fill: #1f6ec4;
      }

      .cls-3 {
        fill: #080706;
      }
    </style>
  </defs>
  <g id="_레이어_1-2" data-name="레이어 1">
    <g>
      <path class="cls-3" d="m60.03,138.09c-19.4,14.89-31.87,8.73-41.06-2.61-16.21-20.02-18.26-29.96,1.46-51.35-5.7-4.08-13.59-4.11-17.46-11.77-5.15-10.18-3.95-16.5,6.32-22,10.93-5.86,22.47-3.23,33.81-2.6,1.84.1,3.68,1.63,5.28-.21,1.53-1.75-.5-3.02-.94-4.55-3.86-13.46,5.94-28.44,19.75-30.57,7.6-1.17,16.39-2.82,22.32,5.23,2.16,2.92,3.32.3,4.58-.95C112.14-1.21,135.21-.68,157.85.49c10.58.55,14.38,12.02,9.37,23.08-6.38,14.11-17.49,24.09-29.33,33.38-1.54,1.21-3.42,1.95-4.42,4.19.58.5,1.08,1.18,1.76,1.47,7.95,3.42,14.32,8.98,14.19,17.82-.15,9.56-6.61,16.09-15.1,20.19-6.21,3-12.73,5.1-19.73,3.86-4.43-.79-5.16.84-5.13,4.99.04,6.01,2.67,12.44,1.22,17.63-2,7.13-6.91,13.65-11.44,19.8-3.19,4.32-7.24,8.17-12.22,10.86-11.49,6.19-22.96.32-24.63-12.64-.31-2.4-1.54-4.69-2.34-7.01Zm7.9-9.68c-.08,0-.15,0-.23,0,.13,2.61.13,5.23.43,7.82.3,2.59.76,5.18,1.42,7.71,2.49,9.57,8.52,11.87,16.9,6.52,13.9-8.86,21.07-29.69,15.71-45.31-.87-2.54-3.95-4.93-1.49-7.92,2.76-3.36,5.83-.22,8.79-.04,4.33.26,8.73.63,13.02.17,10.34-1.11,19.42-8.12,20.32-15.14.89-7-4.15-11.86-16.5-16.28-2.48-.89-6.51-.39-6.49-4.43.01-3.73,3.89-3.77,6.3-5.09,15.15-8.28,27.39-19.63,35.18-35.11,4.75-9.45,1.3-14.34-9.17-14.48-3.19-.04-6.4-.15-9.58.02-19.24,1.05-37.69,3.82-49.57,21.8-2.6,3.93-5.24,3.34-6.4-1.33-1.21-4.88-3.59-8.41-8.89-9.52-13.5-2.81-26.5,11.29-22.65,24.45.96,3.26,4.75,6.44.88,10.29-3.92,3.9-8.01,2.87-12.8,1.66-10.54-2.67-21.24-3.76-31.05,2.85-6.54,4.41-6.9,8.76-.84,13.81,4.75,3.96,10.52,5.95,16.4,7.7,2.58.76,6.29.48,6.77,4.3.43,3.48-2.95,3.92-5.08,5.1-24.04,13.35-14.03,39.17,2.16,48.34,10.09,5.72,19.18,3.4,25.45-6.46,1.55-2.43,2.62-5.16,3.91-7.75.99-2.01,1.45-5.09,4.4-4.52,3.45.67,2.61,3.94,2.68,6.46.04,1.45,0,2.9,0,4.36Z"/>
      <path class="cls-2" d="m67.93,128.41c0-1.45.03-2.9,0-4.36-.06-2.52.78-5.8-2.68-6.46-2.95-.57-3.4,2.51-4.4,4.52-1.29,2.59-2.36,5.32-3.91,7.75-6.27,9.86-15.36,12.18-25.45,6.46-16.19-9.18-26.2-35-2.16-48.34,2.13-1.18,5.51-1.62,5.08-5.1-.48-3.82-4.19-3.54-6.77-4.3-5.88-1.75-11.65-3.74-16.4-7.7-6.06-5.05-5.71-9.4.84-13.81,9.82-6.61,20.51-5.52,31.05-2.85,4.8,1.21,8.88,2.24,12.8-1.66,3.87-3.85.07-7.02-.88-10.29-3.85-13.16,9.15-27.26,22.65-24.45,5.3,1.1,7.67,4.64,8.89,9.52,1.16,4.67,3.8,5.26,6.4,1.33,11.88-17.98,30.33-20.75,49.57-21.8,3.18-.17,6.39-.06,9.58-.02,10.47.14,13.92,5.03,9.17,14.48-7.78,15.48-20.03,26.83-35.18,35.11-2.41,1.32-6.29,1.36-6.3,5.09-.02,4.04,4.01,3.54,6.49,4.43,12.35,4.42,17.39,9.28,16.5,16.28-.9,7.02-9.98,14.02-20.32,15.14-4.29.46-8.69.09-13.02-.17-2.96-.18-6.03-3.32-8.79.04-2.46,2.99.62,5.38,1.49,7.92,5.35,15.62-1.81,36.44-15.71,45.31-8.39,5.35-14.42,3.06-16.9-6.52-.66-2.52-1.11-5.12-1.42-7.71-.3-2.59-.3-5.21-.43-7.82.08,0,.15,0,.23,0Zm9.95-71.19c-9.1-.22-18.79,9.42-19.07,18.98-.25,8.84,4.27,13.86,12.74,14.11,10.11.3,20.44-9.63,20.53-19.73.07-7.52-5.93-13.16-14.2-13.36Z"/>
      <path class="cls-3" d="m77.88,57.21c8.27.2,14.27,5.84,14.2,13.36-.09,10.1-10.42,20.03-20.53,19.73-8.47-.25-12.99-5.26-12.74-14.11.28-9.55,9.97-19.2,19.07-18.98Zm-7.09,26.29c7.59,0,14.04-5.81,14.37-12.48.25-5.02-2.78-6.72-6.93-7.04-5.71-.44-14.24,7.57-13.93,13.02.23,4.06,1.57,7.35,6.49,6.5Z"/>
      <path class="cls-1" d="m70.79,83.5c-4.92.85-6.26-2.45-6.49-6.5-.31-5.46,8.22-13.46,13.93-13.02,4.15.32,7.18,2.03,6.93,7.04-.33,6.68-6.78,12.48-14.37,12.48Z"/>
    </g>
  </g>
</svg>