<?xml version="1.0" encoding="UTF-8"?>
<svg id="_레이어_2" data-name="레이어 2" xmlns="http://www.w3.org/2000/svg" viewBox="0 0 311.19 289.26">
  <defs>
    <style>
      .cls-1 {
        fill: #ec6978;
      }

      .cls-2 {
        fill: #eb6a3c;
      }

      .cls-3 {
        fill: #fff;
      }

      .cls-4 {
        fill: #21f993;
      }

      .cls-5 {
        fill: #080706;
      }
    </style>
  </defs>
  <g id="_레이어_1-2" data-name="레이어 1">
    <g>
      <path class="cls-2" d="m241.19,225.37c.4-.03.8-.06,1.2-.09-.16,1.25-.49,2.5-.44,3.74.07,1.76-1.42,4.69.88,4.97,2.31.28,1.67-2.87,1.96-4.58,1.12-6.58,2.82-12.87,7.7-17.79,4.42-4.46,9.94-5.88,15.7-4.19,5.31,1.56,7.69,6.21,8.79,11.48.53,2.52.68,5.01.37,7.55-2.22,18.42-28.62,35.07-48.38,21.03-5.99-4.26-10.62-9.74-15.05-15.44-5.21-6.71-9.87-13.79-14.06-21.18-.49-.86-1.04-1.99-2.28-1.53-1.39.52-.94,1.83-.36,2.52,2.7,3.23.67,5.19-1.69,7.15-1.95,1.62-3.86,3.28-5.81,4.9-.99.83-2,1.26-3.46,1.01-4.51-.78-8.85-2.13-13.13-3.67-.76-.27-1.83-.36-1.97-1.51-.13-1.15-.16-2.59-1.78-2.25-1.62.34-1.23,1.92-1.35,3.16-1.67,17.91-6.78,34.74-16.22,50.12-3.36,5.47-7.68,10.17-13.7,12.77-19.49,8.42-37.65-5-40.71-23.74-2-12.24,6.06-19.12,18.16-16.38,7.69,1.74,13.5,6.11,17.56,12.85.64,1.07.99,3.24,2.82,2.23,2.18-1.2-.16-2.54-.45-3.82-.29-1.3-2.02-1.98-1.62-3.62l-.04.09c1.99,1.47,2.62-.11,3.32-1.5,5.75-11.41,11.25-22.92,15-35.18.77-2.52,2.52-5.6-2.62-5.29-.54.03-1.12-.54-1.67-.86-12.11-7.13-24.31-14.09-35.93-22.02-16.5-11.26-31.95-23.69-44.4-39.5-.65-.83-1.8-1.43-1.55-2.81.48-2.61.38-2.86-2.27-2.69-11.81.8-23.15-1.82-34.47-4.62-5.76-1.42-5.77-1.45-4.51,4.33.36,1.67.19,3.31-1.58,3.72-2.11.49-2.39-1.5-2.52-2.92-.21-2.26-.06-4.56-.1-6.84-.01-.71.28-1.64-.62-2.01-1.09-.45-1.59.42-2.03,1.2-1.25,2.24-2.84,4.2-4.83,5.81-.62.51-1.41,1.42-2.25.61-.72-.68-.35-1.72.09-2.49,1.33-2.35,3.24-4.2,5.38-5.82.89-.67,2.14-1.29,1.27-2.69-.74-1.19-1.82-.42-2.74-.16-2.52.72-5,1.69-7.56,2.16-1.13.21-3.09.94-3.55-.99-.36-1.53,1.1-2.5,2.27-3.21,2.35-1.42,5.05-1.51,7.71-1.67.98-.06,2.16.13,2.23-1.38.06-1.36-1.23-1.23-1.91-1.36-2.71-.54-5.01-1.74-6.86-3.77-1.01-1.11-2.41-2.4-1.62-3.95.92-1.81,2.97-1.21,4.48-.86,2.94.69,5.23,2.46,6.85,5.06.51.82,1.31,1.3,2.26.82,1.14-.58.57-1.5.26-2.3-.56-1.41-1.36-2.75-1.72-4.21-.61-2.48-.97-5.05,1.1-7.14.63-.64,1.49-1.25,2.34-.52,2.08,1.78,2.95,4.22,2.48,6.82-.63,3.53,1.16,3.77,3.85,3.51,8.22-.8,16.45-.69,24.68-.17,4.65.3,9.29.67,13.94.96,1.18.07,2.47-.06,2.42-1.65-.05-1.35-1.25-1.51-2.27-1.4-4.31.48-8.5-1.02-12.77-.73-2.53.17-3.53-.8-3.98-3.26-3.55-19.61-.65-38.12,9.77-55.17,14.61-23.91,41.28-32.41,64.83-22.75,13.44,5.52,22.51,16.07,29.59,28.44,2.39,4.18,4.43,8.53,6.11,13.05.31.84.66,1.71,1.78,1.68.75-.02,1.41-.68,1.13-1.19-1.44-2.7.8-4.98.65-7.58-.77-13.82,2.58-26.73,10.19-38.24C186.38,9.02,204.55.23,227.81,3.36c14.22,1.92,23.65,10.84,30.24,23.01,4.69,8.67,7.08,17.93,7.61,27.91.22,4.12-1.13,5.72-3.95,7.72-4.95,3.51-9.65,7.38-14.44,11.12-.76.6-1.92,1.26-1.16,2.43.9,1.38,2,.52,2.92-.15.92-.67,1.76-1.44,2.66-2.15,8.82-7.03,17.68-14.01,28.31-18.22,2.03-.8,2.49-1.79,1.39-3.7-1.02-1.77-1.54-3.74-1.49-5.82.04-1.66-.04-3.6,1.89-4.16,2.11-.62,3.59.79,4.7,2.44,1.47,2.17.9,4.66.93,7.04.02,1.42.5,2.73,1.76,3.04,1.44.35,1.6-1.25,2.06-2.23,1.3-2.74,2.4-5.58,4.32-7.98,1.04-1.29,2.31-2.04,3.94-.95,1.53,1.03.61,2.26.14,3.36-1.01,2.35-2.4,4.44-4.31,6.19-.85.78-1.78,1.73-.72,2.9.95,1.05,1.86.02,2.69-.42,2.23-1.2,4.43-2.49,6.99-2.81,1.27-.16,2.82-.22,3.46.98.72,1.36-.62,2.31-1.54,3.12-1.85,1.63-3.95,2.74-6.53,2.64-1.12-.04-2.19.31-2.19,1.52,0,1.28,1.23,1.52,2.24,1.5,2.07-.04,4.04.45,5.93,1.16,1.44.53,2.96,1.57,2.63,3.29-.38,1.91-2.28,1.66-3.78,1.63-2.48-.04-4.61-1.22-6.8-2.2-.86-.39-1.83-.38-2.34.56-.61,1.13.45,1.55,1.14,2.02.94.64,2.04,1.07,2.86,1.82,1.66,1.52,3.57,3.03,2.86,5.73-.19.72-.6,1.51-1.59,1.26-2.31-.59-3.64-2.25-4.36-4.38-1.07-3.19-2.43-3.47-4.94-1.13-10.49,9.74-21.11,19.34-31.66,29.02-.8.73-2.21,1.39-1.82,2.67.84,2.7-.52,4.92-1.3,7.22-10.16,29.8-26.16,56.68-42.07,83.59-.42.71-.66,1.68-1.84,1.63-3.09-.13-2.41,1.62-1.27,3.04,8.04,10,16.97,19.15,26.81,27.39,1.08.91,2.47,1.76,3.01-.63Zm-33.57-83.85c.16.25.32.49.48.74,1.44,6.76,1.59,13.61.57,20.37-2.92,19.24-28.99,28.64-42.02,25.33-16.5-4.19-25.08-18.12-26.78-30.92,5.05-2.55,6.42-8.64,3.02-12.96-2.5-3.18-5.83-3.89-9.46-3.15-3.18.65-5.49,2.88-6.2,5.98-.88,3.85-.36,7.56,3.5,9.91-.12,2.02.63,3.27,2.46,1.57,2.79-2.6,3.5-.91,4.12,1.58.37,1.47.78,2.94,1.19,4.4,4.04,14.17,17.81,30.18,40.37,26.51,23.93-3.9,37.95-20.63,32.29-47.5-.18-.85-.9-1.77-.09-2.37.79-.58,1.62.17,2.34.74,1.88,1.51,3.22,1.71,3.06-1.38,4.34-5.01,2.92-11.26-.85-14.03-2.96-2.18-7.06-2.51-10.19-.51-3.26,2.08-4.79,5-4.03,8.91.69,3.54,2.1,6.46,6.27,6.81l-.06-.04Zm-36.83-6.86c-2.22-3.02-4.9-5.05-8.76-4.13-4.13.98-6.56,3.86-7.19,7.94-1.15,7.41-.66,14.7,3.33,21.27,3.27,5.39,9.63,5.49,13.55.54,1.34-1.69,1.62-3.86,2.86-5.74.54.72.98,1.33,1.45,1.92,2.25,2.87,5.19,4.05,8.73,3.12,3.6-.95,6.35-3.36,6.65-7.03.63-7.81-.49-15.47-5.26-21.98-3.83-5.22-10.56-4.6-13.81.97-.57.97-1,2.02-1.53,3.12Z"/>
      <path class="cls-5" d="m241.19,225.37c-.54,2.39-1.93,1.54-3.01.63-9.84-8.24-18.77-17.39-26.81-27.39-1.14-1.42-1.83-3.17,1.27-3.04,1.18.05,1.42-.92,1.84-1.63,15.91-26.91,31.91-53.78,42.07-83.59.79-2.31,2.14-4.52,1.3-7.22-.39-1.27,1.02-1.94,1.82-2.67,10.55-9.68,21.17-19.28,31.66-29.02,2.51-2.33,3.87-2.06,4.94,1.13.72,2.13,2.05,3.79,4.36,4.38.99.25,1.4-.54,1.59-1.26.71-2.7-1.2-4.21-2.86-5.73-.82-.75-1.93-1.18-2.86-1.82-.7-.47-1.75-.9-1.14-2.02.51-.94,1.48-.94,2.34-.56,2.19.98,4.32,2.17,6.8,2.2,1.5.02,3.4.28,3.78-1.63.34-1.72-1.19-2.75-2.63-3.29-1.89-.7-3.86-1.2-5.93-1.16-1.01.02-2.24-.22-2.24-1.5,0-1.22,1.08-1.57,2.19-1.52,2.57.1,4.67-1.01,6.53-2.64.92-.81,2.26-1.76,1.54-3.12-.64-1.2-2.19-1.14-3.46-.98-2.57.32-4.77,1.6-6.99,2.81-.83.45-1.74,1.48-2.69.42-1.06-1.17-.13-2.12.72-2.9,1.91-1.74,3.3-3.84,4.31-6.19.47-1.1,1.4-2.33-.14-3.36-1.63-1.09-2.9-.34-3.94.95-1.92,2.39-3.02,5.24-4.32,7.98-.47.98-.63,2.58-2.06,2.23-1.25-.31-1.74-1.62-1.76-3.04-.03-2.37.53-4.87-.93-7.04-1.11-1.65-2.6-3.06-4.7-2.44-1.93.56-1.85,2.5-1.89,4.16-.05,2.08.46,4.05,1.49,5.82,1.1,1.91.64,2.89-1.39,3.7-10.62,4.21-19.48,11.2-28.31,18.22-.89.71-1.74,1.48-2.66,2.15-.92.68-2.02,1.54-2.92.15-.76-1.17.4-1.83,1.16-2.43,4.78-3.75,9.48-7.62,14.44-11.12,2.82-2,4.17-3.6,3.95-7.72-.53-9.98-2.92-19.24-7.61-27.91-6.59-12.17-16.02-21.1-30.24-23.01-23.26-3.13-41.43,5.66-54.28,25.08-7.61,11.5-10.96,24.42-10.19,38.24.14,2.6-2.1,4.89-.65,7.58.27.51-.39,1.17-1.13,1.19-1.12.03-1.47-.84-1.78-1.68-1.68-4.52-3.72-8.87-6.11-13.05-7.08-12.38-16.15-22.92-29.59-28.44-23.55-9.67-50.22-1.16-64.83,22.75-10.42,17.05-13.32,35.56-9.77,55.17.45,2.46,1.45,3.43,3.98,3.26,4.27-.29,8.46,1.21,12.77.73,1.02-.11,2.22.04,2.27,1.4.05,1.59-1.24,1.73-2.42,1.65-4.65-.29-9.29-.66-13.94-.96-8.23-.52-16.46-.63-24.68.17-2.69.26-4.48.02-3.85-3.51.47-2.6-.4-5.04-2.48-6.82-.86-.73-1.71-.12-2.34.52-2.08,2.1-1.71,4.66-1.1,7.14.36,1.45,1.16,2.8,1.72,4.21.32.79.88,1.72-.26,2.3-.95.48-1.75,0-2.26-.82-1.62-2.6-3.91-4.37-6.85-5.06-1.5-.35-3.55-.95-4.48.86-.79,1.54.61,2.83,1.62,3.95,1.84,2.03,4.15,3.23,6.86,3.77.68.14,1.96,0,1.91,1.36-.07,1.51-1.24,1.32-2.23,1.38-2.66.16-5.36.25-7.71,1.67-1.18.71-2.63,1.68-2.27,3.21.45,1.93,2.42,1.19,3.55.99,2.57-.47,5.04-1.44,7.56-2.16.92-.26,2-1.03,2.74.16.86,1.4-.39,2.02-1.27,2.69-2.14,1.62-4.05,3.47-5.38,5.82-.44.77-.8,1.81-.09,2.49.85.81,1.63-.11,2.25-.61,1.98-1.61,3.58-3.57,4.83-5.81.44-.78.94-1.65,2.03-1.2.9.37.6,1.29.62,2.01.04,2.28-.11,4.58.1,6.84.13,1.41.41,3.4,2.52,2.92,1.77-.41,1.94-2.05,1.58-3.72-1.26-5.77-1.25-5.75,4.51-4.33,11.32,2.8,22.65,5.42,34.47,4.62,2.66-.18,2.75.07,2.27,2.69-.25,1.38.9,1.99,1.55,2.81,12.45,15.81,27.9,28.24,44.4,39.5,11.61,7.93,23.82,14.89,35.93,22.02.54.32,1.13.89,1.67.86,5.14-.31,3.39,2.78,2.62,5.29-3.75,12.26-9.25,23.77-15,35.18-.7,1.38-1.33,2.97-3.32,1.5.05-1.33.23-2.47.96-3.79,5.32-9.65,9.32-19.91,13.29-30.16.97-2.5.11-4.84-2.45-6.34-7.71-4.52-15.62-8.77-23.11-13.56-7.78-4.98-15.53-10.16-22.95-15.76-4.4-3.32-8.54-6.98-13.19-10.03-3.04-1.99-5.02-5.54-7.75-8.1-3.61-3.39-6.88-7.1-10.99-10.09-1.95-1.42-3.02-5.02-4.89-7.43-.59-.77-.93-1.28-1.95-1.26-10.46.16-20.61-1.72-30.66-4.48-1.08-.3-2.98-.81-2.77,1.7.29,3.4-.95,5.51-4.7,5.88-4.27.42-4.24-2.92-5.18-5.46-.16-.42-.17-.9-.3-1.67-3.06,1.78-5.85,5.54-9.32,2.15-2.55-2.49.22-5.26,1.04-7.92-3.43-.22-7.34.59-8.84-3.68-.77-2.19,2.96-6.09,6.59-7.26-1.21-1.58-2.5-3.1-3.6-4.74-2.16-3.21-.3-7.38,3.5-7.86,1.11-.14,2.27-.03,3.4.09,2.69.28,4.26-.53,4.74-3.51.37-2.28,1.43-4.85,4.03-5.18,3.46-.43,5.4,2.05,6.85,4.88.96,1.87.06,4.91,2.21,5.7,1.99.73,4.49.03,6.77,0,3.92-.05,7.85-.06,11.77-.08.25-.09.5-.19.75-.28-.21-.34-.43-.69-.64-1.03-1.72-7.88-1.27-15.91-1.27-23.86,0-5,1.48-10,2.78-14.93,1.31-4.98,3.25-9.77,4.94-14.57,1.54-4.37,5.05-8.23,8.31-11.75,5.68-6.13,11.5-12.14,19.31-15.83,5.25-2.48,10.76-4.86,16.29-5.17,15.48-.87,30.17,1.81,42.39,12.73,8.52,7.61,15.01,16.61,20.47,27.79-.16-9.11,2.34-16.77,3.03-24.69.16-1.83,1.83-2.44,2.49-3.99,3.62-8.43,8.36-16.29,15.11-22.58C190.53,5.49,202.59.38,216.74.02c9.18-.24,17.55,1.81,26.02,5.29,4.07,1.67,5.65,5.06,8.64,7.33,3.14,2.39,5.09,5.97,7.28,9.26,6.57,9.83,8.8,20.93,9.78,32.44.06.69-.36,1.61.56,1.97,1,.38,1.5-.17,1.92-1.13.92-2.1,3.15-.88,4.73-1.57,2.11-.92,2.52-1.85,1.8-3.71-1.12-2.91-.96-5.72.12-8.64,1.28-3.46,3.76-3.71,6.61-2.65,3.05,1.13,4.97,3.54,6.12,6.99.92-1.19,1.67-1.98,2.22-2.88,2.18-3.58,4.53-4.42,8.13-2.75,2.99,1.38,2.44,4.29,1.78,6.29-.96,2.92-.38,3.59,2.44,3.32,2.28-.21,4.83-.29,5.91,2.17.96,2.2-.43,4.11-1.96,5.72-1.46,1.52-1.04,2.78.22,4.26,3.79,4.44,2.43,8.22-3.33,9.09-1.7.25-1.03.77-.92,1.79.19,1.7.6,3.5-.3,5.17-1.82,3.37-6.12,3.41-8.67.03-.89-1.18-1.59-2.49-2.47-3.88-5.25,3.15-8.76,8.25-13.52,11.97-5.75,4.5-10.88,9.78-16.35,14.65-1.42,1.26-1.86,2.94-2.34,4.55-6.81,23.32-18.09,44.59-29.91,65.61-4.86,8.64-9.89,17.19-14.99,25.69-1.03,1.72-1,2.73.33,4.2,7.16,7.92,14.44,15.7,22.61,22.6.76.64,1.7,1.12,2,2.19Z"/>
      <path class="cls-5" d="m133.89,251.06c-.4,1.63,1.32,2.32,1.62,3.62.29,1.28,2.62,2.61.45,3.82-1.83,1.01-2.17-1.17-2.82-2.23-4.07-6.75-9.88-11.11-17.56-12.85-12.1-2.74-20.15,4.14-18.16,16.38,3.06,18.74,21.22,32.16,40.71,23.74,6.02-2.6,10.35-7.3,13.7-12.77,9.43-15.38,14.55-32.2,16.22-50.12.11-1.23-.28-2.82,1.35-3.16,1.62-.34,1.65,1.11,1.78,2.25.13,1.15,1.21,1.24,1.97,1.51,4.28,1.55,8.62,2.89,13.13,3.67,1.45.25,2.46-.18,3.46-1.01,1.95-1.62,3.86-3.28,5.81-4.9,2.36-1.96,4.39-3.93,1.69-7.15-.58-.69-1.03-2,.36-2.52,1.24-.46,1.79.66,2.28,1.53,4.19,7.39,8.86,14.47,14.06,21.18,4.43,5.7,9.06,11.19,15.05,15.44,19.76,14.04,46.16-2.61,48.38-21.03.31-2.54.16-5.03-.37-7.55-1.11-5.27-3.48-9.92-8.79-11.48-5.76-1.69-11.29-.27-15.7,4.19-4.88,4.93-6.58,11.22-7.7,17.79-.29,1.71.35,4.86-1.96,4.58-2.3-.28-.81-3.21-.88-4.97-.05-1.24.28-2.5.44-3.74,1.07-5.66,3.23-10.78,7.34-14.97,1.11-1.13,2.61-2.03,2.76-3.89.02-.28.34-.75.54-.76,4.93-.19,9.57-2.9,14.75-1.31,8.56,2.63,11.02,8.4,11.94,14.94,1.73,12.36-3.51,21.9-13.48,29.09-8.74,6.29-18.33,9.1-28.9,6.46-8.87-2.22-15.51-8.07-21.24-14.93-5.42-6.5-10.47-13.29-14.79-20.6-.52-.88-1.25-1.11-1.94-.09-1.71,2.49-4.39,3.97-6.4,6.25-2.74,3.12-7.16,2.68-10.95,1.97-3.84-.72-7.77-1.49-11.42-4.18-1.55,11.2-3.77,21.82-7.88,31.91-3.73,9.18-7.79,18.22-15.18,25.19-7,6.61-15.46,9.9-24.94,8.64-8.89-1.18-16.2-5.56-21.56-13.25-3.31-4.76-5.54-9.77-6.96-15.28-2.01-7.82,3.86-20.98,15.16-20.27,9.38.59,16.96,3.44,23.25,10.21.34.37.56,1.25,1.4.66Z"/>
      <path class="cls-5" d="m170.79,134.66c.54-1.1.97-2.15,1.53-3.12,3.26-5.57,9.99-6.19,13.81-.97,4.77,6.51,5.89,14.17,5.26,21.98-.29,3.66-3.04,6.08-6.65,7.03-3.54.93-6.47-.26-8.73-3.12-.46-.59-.9-1.2-1.45-1.92-1.24,1.89-1.53,4.05-2.86,5.74-3.92,4.95-10.29,4.85-13.55-.54-3.98-6.58-4.48-13.87-3.33-21.27.63-4.08,3.06-6.96,7.19-7.94,3.86-.92,6.54,1.11,8.76,4.13Zm-.35,11.3c.01-3.8-.81-7.94-3.9-11.25-1.23-1.32-2.82-2.03-4.74-.9-2.14,1.26-2.4,3.2-1.86,5.23.43,1.63.82,3.71,3.32,3.44.85-.09,1.5-.03,1.81.84.3.84-.22,1.39-.75,1.96-.67.73-1.33,1.49-1.87,2.32-1.33,2.02.21,3.56,1.06,5.13.62,1.14,1.73,1.96,3.14,1.55,1.8-.52,3.14-1.73,3.52-3.6.27-1.34.17-2.75.27-4.73Zm17.58-1.79c-.5-4.1-1.24-8.44-4.17-12.02-1.16-1.42-2.65-2.61-4.57-1.88-1.26.48-2.18,1.59-2.09,3.23.12,2.16,1.04,4.62,2.83,4.84,4.99.61,2.79,2.09,1.06,4.23-1.6,1.98-1.05,4.32.22,6.36.78,1.25,1.98,2.02,3.54,1.41,2.3-.89,3.11-2.78,3.18-5.1,0-.25,0-.5,0-1.07Zm.66,7.66c-3.07,1.23-6.11,2.33-8.58.03-2.73-2.55-3.68-5.96-2.36-9.62.32-.88.35-1.36-.28-1.92-1.66-1.47-2.64-3.36-3.03-5.45-1.02.12-.91.66-.98,1.14-.78,5.82,1.48,11.13,3.24,16.39.77,2.3,2.78,4.94,6.25,4.5,2.89-.37,4.85-1.78,5.73-5.06Zm-31.9-10.62c-.31,5.88.96,10.72,2.57,15.32.86,2.45,2.9,5.07,6.68,4.09,2.25-.58,3.34-1.46,4.01-4.35-6.93,1.81-11.69-1.86-10.26-8.46.68-3.11-.63-4.38-3-6.6Z"/>
      <path class="cls-5" d="m139.86,157.04c1.7,12.8,10.28,26.73,26.78,30.92,13.03,3.31,39.11-6.09,42.02-25.33,1.03-6.77.87-13.62-.57-20.37-.16-.25-.32-.49-.48-.74,0,0,.06.04.06.04.33-3.2-.76-5.67-3.67-7.26-1.03-.56-2.07-1.35-.96-2.66.97-1.14,1.88-.18,2.62.39,3.62,2.75,7.2,5.56,10.8,8.36.16,3.08-1.18,2.89-3.06,1.38-.72-.58-1.54-1.32-2.34-.74-.81.59-.09,1.52.09,2.37,5.67,26.87-8.36,43.6-32.29,47.5-22.56,3.67-36.33-12.34-40.37-26.51-.42-1.46-.82-2.92-1.19-4.4-.63-2.49-1.33-4.18-4.12-1.58-1.83,1.7-2.58.45-2.46-1.57,3.05-3.53,5.29-7.58,7.74-11.51.49-.79.69-2.5,2.24-1.74,1.64.8.94,2.1.17,3.15-2.4,3.25-2.29,6.72-1.01,10.31Z"/>
      <path class="cls-1" d="m216.47,140.38c-3.59-2.79-7.17-5.6-10.8-8.36-.75-.57-1.66-1.53-2.62-.39-1.11,1.31-.07,2.1.96,2.66,2.91,1.59,4,4.06,3.67,7.26-4.18-.35-5.58-3.27-6.27-6.81-.77-3.91.77-6.83,4.03-8.91,3.13-2,7.23-1.67,10.19.51,3.77,2.78,5.19,9.03.85,14.03Z"/>
      <path class="cls-1" d="m139.86,157.04c-1.29-3.59-1.39-7.06,1.01-10.31.77-1.04,1.47-2.34-.17-3.15-1.55-.76-1.75.94-2.24,1.74-2.45,3.93-4.69,7.98-7.74,11.51-3.86-2.35-4.38-6.06-3.5-9.91.71-3.1,3.02-5.33,6.2-5.98,3.63-.74,6.96-.03,9.46,3.15,3.39,4.31,2.03,10.41-3.02,12.96Z"/>
      <path class="cls-1" d="m207.62,141.52c.16.25.32.49.48.74-.16-.25-.32-.49-.48-.74Z"/>
      <path class="cls-4" d="m170.44,145.96c-.09,1.97,0,3.39-.27,4.73-.38,1.87-1.71,3.08-3.52,3.6-1.41.41-2.52-.41-3.14-1.55-.85-1.57-2.39-3.11-1.06-5.13.55-.83,1.2-1.59,1.87-2.32.53-.57,1.05-1.12.75-1.96-.31-.87-.96-.93-1.81-.84-2.49.27-2.89-1.81-3.32-3.44-.54-2.03-.28-3.97,1.86-5.23,1.92-1.13,3.51-.42,4.74.9,3.09,3.31,3.91,7.45,3.9,11.25Z"/>
      <path class="cls-4" d="m188.02,144.17c0,.56,0,.82,0,1.07-.06,2.32-.87,4.21-3.18,5.1-1.56.6-2.76-.16-3.54-1.41-1.27-2.04-1.82-4.38-.22-6.36,1.73-2.14,3.93-3.61-1.06-4.23-1.78-.22-2.71-2.67-2.83-4.84-.09-1.65.83-2.75,2.09-3.23,1.92-.73,3.41.46,4.57,1.88,2.93,3.58,3.67,7.92,4.17,12.02Z"/>
      <path class="cls-3" d="m188.67,151.84c-.88,3.28-2.84,4.7-5.73,5.06-3.48.44-5.48-2.2-6.25-4.5-1.77-5.26-4.02-10.57-3.24-16.39.06-.48-.04-1.02.98-1.14.39,2.1,1.37,3.99,3.03,5.45.63.56.6,1.05.28,1.92-1.32,3.66-.37,7.07,2.36,9.62,2.47,2.3,5.51,1.2,8.58-.03Z"/>
      <path class="cls-3" d="m156.77,141.22c2.38,2.22,3.68,3.49,3,6.6-1.43,6.6,3.33,10.27,10.26,8.46-.67,2.9-1.76,3.77-4.01,4.35-3.78.98-5.82-1.64-6.68-4.09-1.61-4.6-2.88-9.44-2.57-15.32Z"/>
    </g>
  </g>
</svg>