<?xml version="1.0" encoding="UTF-8"?>
<svg id="_레이어_2" data-name="레이어 2" xmlns="http://www.w3.org/2000/svg" viewBox="0 0 72.6 67.49">
  <defs>
    <style>
      .cls-1 {
        fill: #f3af3c;
      }

      .cls-2 {
        fill: #fff;
      }

      .cls-3 {
        fill: #080706;
      }
    </style>
  </defs>
  <g id="_레이어_1-2" data-name="레이어 1">
    <g>
      <path class="cls-1" d="m21.78,28.38c-.79-1.27-1.57-2.54-2.36-3.81.72-1.07.43-2.09-.08-3.15-2.08-4.32-.94-7.87,3.05-9.64,3.93-1.74,7.51-.02,9.21,4.3.41,1.04.09,2.87,1.86,2.78,1.62-.08,1.47-1.74,1.82-2.88,2.03-6.59,6.33-10.89,13.02-12.64,6.26-1.64,13.21.12,15.62,4.25,3.21,5.49.64,10.28-2.48,14.84-2.26,3.31-5.15,6.07-8.1,8.76-.7.64-1.89,1.16-1.53,2.34.44,1.43,1.81,1.06,2.87,1,3.75-.21,7.48-.15,11.09,1,2.04.65,4.13,1.58,4.46,4.01.31,2.21-1.2,3.71-2.79,4.97-3.42,2.71-7.45,3.77-11.71,4.12-5.1.42-9.75-1.38-14.4-3.09-.91-.33-1.83-1.15-2.73-.23-1.09,1.13-.05,2.05.54,2.94,1.32,1.97,2.51,4.01,3.16,6.31,1.73,6.07-1.49,10.22-7.77,9.85-5.12-.3-8.38-3.19-10.62-7.66-1.52-3.03-1.37-6.2-1.44-9.4-.03-1.16.63-2.72-.75-3.41-1.53-.77-2.04.98-2.9,1.7-2.38,2.01-4.71,4.04-7.67,5.19-2.21.86-4.4,1.22-6.31-.49-1.97-1.77-2.14-4.16-1.58-6.56.64-2.73,2.06-5.07,4.18-6.93,4.11-3.61,9.03-5.09,14.38-5.41,1.33-.08,3.2.27,3.18-1.61-.02-2.03-2.1-1.08-3.26-1.47Zm11.15,4.47c.24,2.73-.01,5.96,3.33,7.48,2.48,1.13,6.18-.75,8.47-4.03.14-.2.28-.41.41-.62,1.71-2.74,2.14-5.54.25-8.35-1.36-2.02-7.11-4.21-9.47-3.27-2.75,1.1-2.08,4.12-2.76,6.36-.21.7-.15,1.48-.23,2.45Z"/>
      <path class="cls-3" d="m21.78,28.38c1.16.39,3.24-.56,3.26,1.47.02,1.88-1.86,1.53-3.18,1.61-5.35.32-10.27,1.8-14.38,5.41-2.12,1.86-3.53,4.2-4.18,6.93-.57,2.4-.4,4.79,1.58,6.56,1.91,1.71,4.1,1.35,6.31.49,2.97-1.15,5.29-3.19,7.67-5.19.86-.72,1.37-2.46,2.9-1.7,1.38.69.73,2.25.75,3.41.08,3.2-.08,6.37,1.44,9.4,2.24,4.46,5.5,7.36,10.62,7.66,6.28.36,9.5-3.78,7.77-9.85-.66-2.3-1.85-4.34-3.16-6.31-.6-.89-1.63-1.82-.54-2.94.9-.93,1.82-.11,2.73.23,4.65,1.71,9.29,3.51,14.4,3.09,4.26-.35,8.29-1.41,11.71-4.12,1.59-1.26,3.1-2.76,2.79-4.97-.34-2.44-2.43-3.36-4.46-4.01-3.6-1.15-7.34-1.21-11.09-1-1.06.06-2.44.43-2.87-1-.36-1.17.83-1.7,1.53-2.34,2.95-2.69,5.83-5.45,8.1-8.76,3.11-4.56,5.69-9.35,2.48-14.84-2.42-4.14-9.36-5.89-15.62-4.25-6.69,1.75-10.99,6.05-13.02,12.64-.35,1.14-.2,2.8-1.82,2.88-1.77.09-1.45-1.74-1.86-2.78-1.7-4.32-5.28-6.03-9.21-4.3-4,1.77-5.13,5.32-3.05,9.64.51,1.06.8,2.08.08,3.15-4.06.31-4.17-3.58-4.15-5.4.03-3.42.31-7.41,4.26-9.4,4.19-2.11,8.31-2.05,11.79,1.1,2.01,1.81,2.37.68,3.3-.77C40.13,1.57,48.88-1.63,57.76.78c9.06,2.46,12.1,8.4,9.14,17.26-1.42,4.25-4.22,7.52-7.07,10.8-.76.88-2.1,1.38-2.09,3.02,2.6.93,5.35-.18,7.99.73,5.02,1.74,6.81,3.35,6.86,7.03.06,3.95-3.1,8.16-6.89,9.52-6.5,2.33-12.96,3.7-19.77,1.1-1.81-.69-1.92.67-1.53,2.16.65,2.44,1.75,4.74.86,7.49-2.01,6.23-8.05,8.98-14.25,6.9-8.45-2.82-10.78-9.41-11.82-17.4-2.42.92-4.3,2.85-6.73,3.86-4.25,1.77-7.6,1.86-9.82-.4-2.48-2.52-3.4-7.94-1.96-11.26,3.15-7.25,8.74-11.21,16.45-12.4,1.55-.24,3.09-.55,4.64-.83Z"/>
      <path class="cls-3" d="m32.93,32.85c.08-.97.02-1.75.23-2.45.68-2.24,0-5.26,2.76-6.36,2.36-.94,8.11,1.25,9.47,3.27,1.89,2.81,1.45,5.62-.25,8.35-.13.21-.27.42-.41.62-2.29,3.28-6,5.16-8.47,4.03-3.34-1.52-3.09-4.75-3.33-7.48Zm10.5-1.84c.08-2.63-1.63-3.95-5.64-4.06-3.43-.09-1.33,2.47-1.72,3.73-.42,1.36,0,2.95-.13,4.42-.29,3.18,1.87,2.93,3.5,2.14,2.23-1.08,4.06-2.86,3.98-6.22Z"/>
      <path class="cls-2" d="m43.43,31.01c.08,3.36-1.74,5.14-3.98,6.22-1.63.79-3.79,1.05-3.5-2.14.13-1.47-.29-3.06.13-4.42.39-1.25-1.72-3.82,1.72-3.73,4,.11,5.71,1.43,5.64,4.06Z"/>
    </g>
  </g>
</svg>