<?xml version="1.0" encoding="UTF-8"?>
<svg id="_레이어_2" data-name="레이어 2" xmlns="http://www.w3.org/2000/svg" viewBox="0 0 313.56 349.76">
  <defs>
    <style>
      .cls-1 {
        fill: #ec6978;
      }

      .cls-2 {
        fill: #eb6a3c;
      }

      .cls-3 {
        fill: #fff;
      }

      .cls-4 {
        fill: #c49a6c;
      }

      .cls-5 {
        fill: #21f993;
      }

      .cls-6 {
        fill: #080706;
      }

      .cls-7 {
        fill: #616161;
      }
    </style>
  </defs>
  <g id="_레이어_1-2" data-name="레이어 1">
    <g>
      <path class="cls-6" d="m14.57,65.62c2.41-1.96,5.69-1.43,8.44-3.05-3.15-6.13-4.83-12.78-6.26-19.51-1.13-5.29,2.35-12.21,7.53-14.16,4.9-1.84,8.97.48,12.7,3.41,5.49,4.32,8.3,10.53,10.92,16.67,1.46,3.42,3.01,3.03,5.47,1.7,1.44-.78,2.6-1.91,4.62-1.76,2.61.2,4.3.76,4,3.72-.33,3.24,1.63,3.38,4.08,3.39,16.07.06,30.34,5.11,42.97,15.17,10.55,8.4,17.27,19.54,23.51,31.12,1.18,2.19,2.46,4.34,4.35,7.67-.29-5.93-1.4-11.19-.35-15.04,2.51-9.17-4.74-11.05-9.18-13.87-6.08-3.85-9.94-9.71-15.47-13.88-3.32-2.5-5.8-5.99-10.34-6.98-3.52-.77-4.75-4.45-3.52-8.13.09-.27.43-.62.35-.76-3.33-6.02,2.7-7.67,5.1-11.01.49-.68,1.07-.88,1.83-.86.29.01.59-.06.87,0,3.42.83,3.71-4.78,7.44-3.54,2.29.76,3.79,3.96,7.37,1.26,2.07-1.56,5.43,1.51,5.19,3.93-.83,8.55,6.74,11.09,10.78,16.08.88,1.09,2.48,2.18,4.12,3.15,3.54-6.06,5.62-12.93,10.69-17.96.75-.75.39-1.47-.22-1.61-1.26-.3-1.66-1.35-2.32-2.15-1.18-1.43-3.17-2.13-2.21-5.02.94-2.83,3.15-2.9,5.03-3.63,1.26-.49,2.86-.09,4.36-.09.12-1.64-1.44-2.03-2.08-3.07-6.18-10.01-.46-19.17,9.31-22.15,8.76-2.68,17.59-1.28,26.32.45,1.69.33,2.98.63,4.2-.82,3.97-4.68,13.2-5.95,17.35-1.72,1.97,2.01,3.72,2.08,5.89,2.03,6.85-.18,13.58.06,20.15,2.57,7.2,2.74,14.66,9.69,11.51,18.95-1.82,5.34-6.2,8.69-11.44,10.67-.83.31-1.59.5-2.11,1.14,7.96,7.1,15.38,14.63,20.66,24.1,4.88,8.73,8.72,17.8,10.63,27.64.51,2.61,1.38,3.18,4.26,2.19,5.87-2.03,10.83-5.47,15.88-8.84,1.46-.98,1.82-2.23,1.5-4.25-.68-4.28,2.25-8.26,5.09-7.02,3.24,1.42,5.86,3.04,9.47,1.23.58-.29,2.12,1.68,3.37,2.3,3.55,1.77,5.44,4.01,6.44,8.37.52,2.28.54,4.05.69,6.3.44,6.78-4.11,6.5-8.32,8.54-3.8,1.84-6.92,5.71-10.83,8.06-6.87,4.12-14.25,7.04-22.09,8.62-1.53.31-2.12.44-2.26,2.18-.79,9.76-1.14,19.58-3.45,29.15-1.42,5.85-2.77,11.72-4.12,17.57-1.89,8.19-4.66,16.18-7.64,23.82-4.68,12.02-9.67,24.01-15.28,35.69-5.71,11.9-10.68,24.17-17.19,35.68-.72,1.27-.71,2.53.07,3.74,4.35,6.71,8.65,13.45,13.13,20.08,2.87,4.26,3.76,4.18,6.25-.3,4.08-7.31,12.22-12.29,21.72-9.98,5.79,1.41,8.8,5.4,9.94,10.6,2.26,10.36-1.56,18.59-9.73,25.19-6.34,5.12-13.77,7.48-21.51,7.64-8.81.17-15.99-3.98-21.96-10.84-4.69-5.39-7.34-11.81-11.32-18.16-1.78,3.46-3.38,6.72-5.12,9.9-4.22,7.68-10.49,12.11-16.12,10.44-4.87-1.45-9.48-3.89-13.7-6.89-1.04-.74-2.02-1.6-3.79-1.76-.16,6.57-.87,13.05-2.03,19.44-3.26,17.86-9.09,26.83-27,30.98-6.81,1.57-13.62-1.33-19.16-5.13-5.97-4.08-10.47-9.92-12.45-17.22-2.45-9.01,3.2-18.11,13.05-18.39,10.4-.3,10.41-.2,19.81,3.61,1.33-8.6,2.67-17.17,3.98-25.74.22-1.42-.21-2.41-1.61-3.17-18.41-9.99-35.23-22.49-52.7-33.95-10.81-7.09-21.39-14.56-31.56-22.59-10.77-8.51-21.4-17.22-30.56-27.41-13.12-14.61-22.76-31.22-27.29-50.65C-.03,136.97-.43,125.14.36,113.39c.78-11.6,4.29-22.71,11.26-32.36,1.94-2.69,3.66-4.93-.37-7.63-1.65-1.1-3.65-4.23,1.02-5.03,1.79,2.68,3.02,6.62,7.14,5.77,12.53-2.57,24.26-7.45,35.63-13.23,1.7-.86,3.11-2.06,3.65-4.08.37-1.4,1.26-3.04.14-4.11-1.09-1.05-2.4.39-3.51.89-12.14,5.44-24.29,10.81-37.26,14.13-2.5.64-2.93-.42-3.51-2.1Zm293.88,23.53c-1.22-.59-2.92,1.07-3.82-.68-.94-1.83,1.22-2.19,1.81-3.31.82-1.56,2.49-2.76,1.87-4.86.47.35.6.15.58-.34-.18.14-.35.28-.53.41-1.57,1.48-3.16,2.95-4.72,4.45-.79.75-1.73,1.35-2.65.53-.92-.82-.32-1.75.24-2.69,1.11-1.84,2.96-3.55,1.48-6.7-.98,1.72-2.62,2.2-3.09,3.91-.41,1.49-1.17,2.68-3.05,2.25-2.61-.58-.56-1.97-.47-2.97.16-1.68-.71-2.78-1.92-3.63-.38-.27-1.48-.26-1.56-.08-.53,1.25-2.08,2.48-1.28,3.81,1.72,2.87-.55,4.27-1.84,6-1.49,2.01-3.85,2.98-5.96,4.07-7.06,3.63-14,7.74-22.35,7.62-1.4-.02-3.38.32-3.26-1.79.13-2.19,1.58-1.49,3.17-1.05,2.22.63,3.98.26,3.2-3.05-3.83-16.32-10.83-30.86-22.6-43.08-5.54-5.76-10.66-9.33-19.76-8.05-9.98,1.41-20.46,1.28-30.69-.38-2.65-.43-5.5-.46-8.02.91-7.93,4.3-16.28,4.18-24.82,2.59-1.39-.26-2.83-.34-3.92,1.1-3.61,4.79-6.76,9.86-9.23,15.32-.84,1.85-1.43,3.48,1.44,4.44,2.8.93,5.29,2.8,8.32,3.17,1.07.13,2.11.24,2.01,1.66-.1,1.47-1.22,1.39-2.24,1.3-1.28-.11-2.49-.29-3.77-.73-7.42-2.56-13.52-7.17-18.97-12.54-4.27-4.2-10.26-7.53-9.26-15.17.23-1.78-1.42-1.47-2.39-.7-.48.38-.75,1.26-.78,1.93-.09,1.68-1.19,3.24-2.37,3.26-1.49.02-1.72-2.02-2.16-3.36-.39-1.18-.62-2.44-1.86-3.13-1.15.88-.67,1.92-.5,2.83.31,1.6,1.88,3.62-.31,4.56-1.98.85-2.23-1.71-3.19-2.82-.73-.85-1.55-2.24-2.68-1.23-1.1.99.18,2.08.86,2.95.84,1.08,2.63,2.04.99,3.55-1.32,1.21-2.32-.37-3.35-1.03-.61-.39-1.17-.85-1.79-1.23-.71-.44-1.5-.4-1.83.37-.16.37.15,1.16.51,1.49.62.58,1.4,1.02,2.17,1.4.9.44,2.19.67,2.09,1.87-.12,1.41-1.63,1.39-2.65,1.74-.77.26-1.73-.07-2.36.77.15,2.09,1.94,2.76,3.36,2.74,3.71-.06,5.84,2.19,7.94,4.63,8.59,10.01,18.27,18.6,30.63,23.74,1,.42,1.81.91,1.56,2.21-.23,1.22-1.18,1.19-1.99,1.03-2.97-.6-3.52.95-3.21,3.4.99,7.7.4,15.51,1.66,23.2.19,1.17.69,2.81-.75,3.55-1.74.9-1.9-.95-2.77-1.78-1.64-1.57-2.53-3.49-3.5-5.42-3.27-6.47-6.62-12.89-10.46-19.04-8.69-13.94-20.1-24.53-35.8-30.32-8.04-2.97-16.37-3.25-24.66-3.91-3.13-.25-3.96,3.88-6.78,5.19-10.64,4.94-21.19,10.21-32.81,12.29-4.63.83-7.1,3.31-9.32,6.78-10.87,17.05-12.22,35.81-9.66,55.19,3.78,28.59,18.43,51.07,39.4,70.08,18.12,16.43,38.38,29.94,58.54,43.61,14.34,9.73,28.8,19.27,43.87,28.43,0-2.24-.02-4.12,0-6,.02-1.32.6-2.25,2.01-2.36,1.89-.15,1.58,1.42,1.6,2.42.25,12.53-1.49,24.87-4.18,37.05-.5,2.24-.86,3.58,1.03,5.06.76.6,1.35,1.62.3,2.62-1.04.99-1.82.33-2.6-.41-.63-.6-1.24-1.23-1.92-1.77-6.7-5.31-14.06-7.07-22.42-4.57-6.34,1.89-9.7,10.28-6.7,15.81,1.61,2.95,3.2,5.85,5.51,8.29,13.59,14.37,31.44,11.19,40.39-2.25,5.58-8.37,6.16-18.24,6.99-27.86.79-9.12.3-18.25-1.55-27.28-.3-1.47-1.34-3.97.95-4.35,2.48-.42,2.04,2.38,2.29,3.85.75,4.42,1.24,8.9,1.73,13.36.14,1.32.12,2.57,1.53,3.29,5.28,2.69,10.16,6.14,15.8,8.18,4.1,1.49,7.91.69,10.14-2.67,5.68-8.55,13.47-16.88,6.3-28.39-.52-.84-.74-1.88-1.03-2.86-.43-1.46-1.67-3.46.35-4.17,2.15-.76,2.12,1.75,2.73,3.06.42.91.62,1.93.97,2.87,3.75,10.06,7.64,20.1,13.96,28.87,8.13,11.27,19.16,16.01,33.73,10.12,10.82-4.37,17.11-13.13,16.57-23.54-.38-7.39-5.21-11.84-12.54-11.23-7.51.62-11.81,5.6-14.91,11.85-1.16,2.33-1.95,4.83-2.92,7.25-.35.88-1.05,1.53-1.97,1.3-.9-.22-1.67-1.23-1.11-1.99,2.61-3.52-.79-4.75-2.36-6.72-6.65-8.38-12.37-17.37-17.4-26.8-1.89-3.54-1.83-3.58,2.11-3.67.94-.02.97-.88,1.25-1.42.6-1.13,1-2.37,1.57-3.52,12.01-24.22,23.39-48.74,32.25-74.32,6.37-18.39,11.48-37.11,11.67-56.8.03-2.87,1.01-6.5-4.23-5.56-1.31.23-2.03-.9-1.8-2.33.2-1.27,1.21-1.21,1.99-.96,6.4,2.02,12.07-1.1,17.94-2.55,10.81-2.68,18.4-11.3,27.58-15.85-.72-.15-2.81.48-3.02-1.82-.21-2.34,2.64-1.13,3.33-2.55,1.62.09,2.47-.85,3.18-2.51-1.85.17-3.03.67-3.09,2.58Zm-111.26-52.32c2.71,0,4.16.03,5.61,0,6.06-.16,9.93-3.31,10.59-8.61.72-5.74-3.81-13.89-8.67-14.47-4.83-.58-9.69-2.11-14.58-1.2-6.96,1.3-14.68,1.24-17.72,9.97-1.46,4.2,1.73,12,6.12,12.3,6.66.46,13.17,2.42,18.64,2.02Zm15.99-.17c6.08.78,11.78-.38,16.9-3.57,7.13-4.44,6.7-13.15-.67-16.98-5.51-2.87-11.35-3.21-17.88-2.47,5.21,7.61,6.85,15.12,1.65,23.02Zm-22.26-28.25c-1.35-.26-2.6-.61-3.87-.74-8.11-.86-16.24-1.69-24.21.84-3.13.99-5.36,3.27-6.67,6.21-3.48,7.74,4.89,17.82,14.42,17.48-3.88-11.01.48-18.73,12.03-21.58,2.75-.68,5.71-.67,8.31-2.21ZM20.22,42.57c-.21,2.66,1.46,4.9,1.69,7.43.19,2.06,1.13,2.05,2.56,1.28,4.88-2.62,10.04-4.57,15.25-6.4.76-.27,1.65-.23,1.44-1.58-.72-4.57-8.45-11.5-13.14-11.66-4.82-.16-7.83,4.06-7.8,10.93Zm213.06-8.48c4.38.03,6.86-2.06,9.18-4.1,6.26-5.52,5.71-11.94-.93-17-6.11-4.66-13.32-5.14-20.39-5.39-2.46-.09-5.76-.34-8.19,1.86,3.09-.43,5.86.91,8.84,1.15,6.33.51,12.68,2.42,15.37,9.05,2.06,5.06,1.53,10.17-3.89,14.43ZM27.84,61.14c6.02-2.11,12.15-4.02,17.66-7.21,1.65-.95-.68-2.98-1.18-4.5-.44-1.35-1.18-2.17-2.91-1.4-5.03,2.22-10.13,4.28-15.19,6.43-1.46.62-1.97,1.73-1.13,3.15.75,1.27.67,3.24,2.75,3.53Zm152.63-23.14c-5.86-.4-10.58-1.79-15.31-3.25-3.86-1.19-7.87-1.64-11.93-1.27-1.09.1-2.63-.07-2.79,1.24-.11.95.47,2.27,1.7,2.78,9.05,3.72,18.14,5.45,28.33.49ZM204.11,3.79c-3.06,0-6.69-.63-6.9,2.92-.15,2.65,2.93,4.16,5.66,3.91,2.84-.26,6.83-.27,6.9-4.13.08-3.99-3.8-2.24-5.67-2.71Z"/>
      <path class="cls-4" d="m14.57,65.62c.57,1.69,1.01,2.74,3.51,2.1,12.96-3.32,25.12-8.68,37.26-14.13,1.11-.5,2.42-1.94,3.51-.89,1.12,1.07.23,2.7-.14,4.11-.53,2.02-1.95,3.22-3.65,4.08-11.37,5.78-23.1,10.66-35.63,13.23-4.12.85-5.35-3.09-7.14-5.77.57-1.07.98-2.29,2.29-2.74Z"/>
      <path class="cls-2" d="m308.31,80.29c.62,2.1-1.06,3.31-1.87,4.87-.59,1.12-2.75,1.48-1.81,3.31.9,1.76,2.6.09,3.82.68l-.09-.07c-.7,1.42-3.55.22-3.33,2.55.21,2.3,2.3,1.66,3.02,1.82-9.19,4.56-16.77,13.17-27.58,15.85-5.87,1.46-11.54,4.58-17.94,2.55-.78-.25-1.79-.31-1.99.96-.23,1.43.5,2.56,1.8,2.33,5.24-.93,4.26,2.69,4.23,5.56-.19,19.69-5.3,38.41-11.67,56.8-8.86,25.58-20.24,50.09-32.25,74.32-.57,1.15-.97,2.39-1.57,3.52-.28.53-.31,1.4-1.25,1.42-3.95.09-4,.12-2.11,3.67,5.03,9.43,10.75,18.42,17.4,26.8,1.57,1.97,4.96,3.2,2.36,6.72-.56.76.21,1.77,1.11,1.99.93.23,1.62-.43,1.97-1.3.97-2.42,1.76-4.92,2.92-7.25,3.1-6.25,7.4-11.23,14.91-11.85,7.33-.61,12.16,3.85,12.54,11.23.54,10.41-5.75,19.17-16.57,23.54-14.58,5.89-25.61,1.15-33.73-10.12-6.32-8.77-10.21-18.81-13.96-28.87-.35-.95-.55-1.96-.97-2.87-.61-1.31-.58-3.82-2.73-3.06-2.02.71-.77,2.71-.35,4.17.28.97.5,2.02,1.03,2.86,7.17,11.51-.63,19.84-6.3,28.39-2.23,3.36-6.04,4.16-10.14,2.67-5.64-2.04-10.51-5.49-15.8-8.18-1.41-.72-1.38-1.97-1.53-3.29-.49-4.46-.98-8.94-1.73-13.36-.25-1.47.19-4.27-2.29-3.85-2.29.39-1.25,2.89-.95,4.35,1.85,9.03,2.34,18.16,1.55,27.28-.83,9.62-1.41,19.49-6.99,27.86-8.95,13.44-26.8,16.62-40.39,2.25-2.31-2.44-3.9-5.34-5.51-8.29-3-5.52.36-13.92,6.7-15.81,8.36-2.49,15.72-.73,22.42,4.57.68.54,1.29,1.17,1.92,1.77.77.74,1.56,1.4,2.6.41,1.05-1,.46-2.02-.3-2.62-1.89-1.48-1.52-2.82-1.03-5.06,2.69-12.18,4.42-24.52,4.18-37.05-.02-1,.29-2.56-1.6-2.42-1.4.11-1.99,1.04-2.01,2.36-.02,1.88,0,3.76,0,6-15.07-9.16-29.53-18.7-43.87-28.43-20.15-13.68-40.41-27.18-58.54-43.61-20.97-19.01-35.62-41.49-39.4-70.08-2.56-19.37-1.21-38.13,9.66-55.19,2.22-3.48,4.69-5.96,9.32-6.78,11.62-2.07,22.17-7.34,32.81-12.29,2.82-1.31,3.65-5.44,6.78-5.19,8.29.66,16.62.95,24.66,3.91,15.71,5.79,27.11,16.38,35.8,30.32,3.84,6.16,7.19,12.58,10.46,19.04.97,1.92,1.86,3.85,3.5,5.42.87.83,1.03,2.68,2.77,1.78,1.44-.75.95-2.38.75-3.55-1.27-7.69-.67-15.5-1.66-23.2-.32-2.45.24-4,3.21-3.4.81.16,1.76.19,1.99-1.03.25-1.3-.56-1.79-1.56-2.21-12.36-5.13-22.04-13.73-30.63-23.74-2.1-2.44-4.23-4.68-7.94-4.63-1.42.02-3.21-.65-3.36-2.74.62-.84,1.59-.51,2.36-.77,1.02-.35,2.54-.33,2.65-1.74.1-1.2-1.19-1.43-2.09-1.87-.77-.38-1.55-.82-2.17-1.4-.35-.33-.67-1.12-.51-1.49.33-.77,1.12-.81,1.83-.37.61.38,1.18.84,1.79,1.23,1.03.66,2.03,2.24,3.35,1.03,1.64-1.51-.15-2.47-.99-3.55-.68-.88-1.96-1.97-.86-2.95,1.13-1.02,1.95.38,2.68,1.23.96,1.11,1.21,3.67,3.19,2.82,2.19-.94.62-2.96.31-4.56-.17-.9-.65-1.95.5-2.83,1.24.69,1.47,1.95,1.86,3.13.44,1.34.67,3.38,2.16,3.36,1.18-.02,2.28-1.58,2.37-3.26.04-.67.3-1.55.78-1.93.97-.77,2.63-1.08,2.39.7-1,7.64,4.99,10.97,9.26,15.17,5.46,5.37,11.55,9.98,18.97,12.54,1.27.44,2.49.62,3.77.73,1.02.09,2.14.17,2.24-1.3.1-1.42-.94-1.53-2.01-1.66-3.04-.37-5.52-2.24-8.32-3.17-2.88-.96-2.28-2.59-1.44-4.44,2.47-5.47,5.62-10.53,9.23-15.32,1.09-1.44,2.53-1.36,3.92-1.1,8.54,1.59,16.89,1.71,24.82-2.59,2.51-1.36,5.37-1.34,8.02-.91,10.23,1.66,20.71,1.79,30.69.38,9.11-1.28,14.22,2.29,19.76,8.05,11.76,12.22,18.76,26.76,22.6,43.08.78,3.32-.98,3.68-3.2,3.05-1.59-.45-3.03-1.14-3.17,1.05-.13,2.1,1.86,1.77,3.26,1.79,8.35.12,15.3-3.98,22.35-7.62,2.11-1.09,4.47-2.06,5.96-4.07,1.29-1.73,3.57-3.13,1.84-6-.79-1.32.75-2.56,1.28-3.81.08-.18,1.18-.19,1.56.08,1.21.86,2.08,1.95,1.92,3.63-.09.99-2.14,2.38.47,2.97,1.88.42,2.65-.77,3.05-2.25.47-1.71,2.1-2.2,3.09-3.91,1.48,3.15-.38,4.86-1.48,6.7-.56.93-1.16,1.86-.24,2.69.91.82,1.86.22,2.65-.53,1.56-1.49,3.15-2.96,4.72-4.45,0,0-.05-.08-.05-.08Zm-129.72,7.95c3.16,3.31,3.13,7.22,2.14,11.31-.3,1.23-1.04,2.74.72,3.3,1.8.58,2.33-1.12,2.38-2.29.14-3.04,1.55-2.69,3.69-1.92,7.18,2.58,14.61,3.37,22.2,2.76,2.22-.18,4.07-.27,3.43,2.95-.22,1.1.15,2.49,1.76,2.42,1.38-.06,1.29-1.3,1.37-2.3.35-4.07,1.02-8.03,3.77-11.3,2.08,3.12,4.94,4.43,8.59,3.47,3.73-.99,5.89-3.6,6.53-7.33.61-3.58-1.32-6.17-4.01-8.12-2.52-1.82-5.41-2.1-8.19-.6-3.67,1.98-5.27,5.2-5.01,9.35-2.24,7.21-7.28,9.52-14.45,8.53-5.44-.75-10.88-1.32-16.07-3.28-1.55-.59-2.88-1.24-3.21-3.1-.5-2.77-2.29-4.91-3.67-7.25,1.96-3.61,1.25-7.42-1.85-9.93-2.92-2.36-7.64-2.48-10.44-.25-3.91,3.12-4.63,7.36-1.94,11.56,2.54,3.97,6.96,4.7,12.26,2.02Zm-136.24,30.73c-2.8-3.1-6.04-3.62-9.72-1.71-3.47,1.8-5.15,4.7-4.52,8.51.63,3.81,2.47,6.81,6.93,7.02,3.01,2.76,3.53-1.56,5.43-2.02,5.99,24.74,25.8,34.29,42.05,30.48,9.31-2.19,17.26-6.52,23.38-13.96,8.6-10.46,6.18-22.53,4.71-34.72,1.78.37,3.05,2.71,4.83.88.82-.23,1.77-.27,2.42-.74,3.44-2.42,4.04-5.98,3.11-9.7-.96-3.85-4.14-5.84-7.77-5.87-4.19-.04-7.47,2.1-8.55,6.59-1.06-.34-2.25-1.12-3.04.31-.78,1.4.33,2.06,1.31,2.73,1.18.8,2.67,1.34,3.09,2.89,2.08,7.7,3.6,15.39,2.69,23.52-1.89,16.8-26.87,31.42-44.72,23.17-7.19-3.32-12.77-8.14-15.89-15.25-2.82-6.42-7.11-12.92-2.79-20.45.45-.78.4-1.78-.36-2.38-1.08-.86-1.84.05-2.6.71Zm52.13,59.98c.28.32.57.63.85.95-.72,1.07-1.39,2.18-2.18,3.2-.71.91-1.77,1.69-.66,2.95,1.2,1.37,1.98.18,2.88-.48,1.01-.75,1.82-2.02,3.78-1.68-1.04,2.08-2.6,2.72-4.28,3.19-.82.23-2.35.54-2.1,1.14,1.68,4.19-2.45,4.89-4.16,6.59-8.72,8.64-19.2,13.78-31.65,14.46-1.45.08-3.73-.63-3.61,1.82.12,2.36,2.35,1.64,3.8,1.54,12.31-.8,22.97-5.62,32.09-13.76,2.4-2.14,4.41-4.41,7.98-4.46,1.63-.02,3.27-1.24,3.51-2.84.4-2.62,1.47-5.31,1.33-7.73-.18-3.05-2.85-5.69-3.25-8.98-.04-.3-.63-.72-1-.76-2.37-.27-3.85-1.67-5.49-3.34-2.14-2.18-4.24,1.05-6.09.94-1.99-.12-3.1-4.11-6.04-2.97-3.19,1.23-4.48,4.06-4.26,7.36.14,2.11-.4,3.53-2.18,4.74-7.86,5.36-15.97,9.99-25.89,10.01-1.13,0-2.56-.21-2.51,1.53.04,1.32,1,2.04,2.33,2.08,1.01.03,2.06.14,3.04-.05,7.3-1.36,14.24-3.81,20.46-7.89,4.18-2.74,9.68-4.76,8.17-11.66-.2-.93.43-2.1,1.57-2.32,1.5-.29,1.82,1.11,2.4,2.04.51.83.31,1.69-.07,2.49-.58,1.2.02,2.07.95,2.52,1.19.57,1.76-.42,2.3-1.34,1.03-1.74,1.77-3.8,4.17-4.64.76,2.75-.75,4.44-1.91,6.23-.6.92-1.02,1.73.06,2.64,1.11.93,1.87.25,2.61-.46,1.04-.99,2.03-2.04,3.04-3.07Zm100.4-10.01c-6.38-5.75-13.03-9.17-20.9-5.14-8.34,4.27-12.35,11.68-11.77,20.94.44,7.04,4.24,12.82,9.43,17.48,9.98,8.95,22.04,14.28,34.41,18.83,5.21,1.92,9.14.12,11.51-4.92,7.11-15.1,13.99-30.19,12.73-47.68-.78-10.9-8.74-19.21-19.26-18.47-8.82.61-15.17,7.89-16.16,18.98Zm6.89-90.67c1.59,5.25,4.2,8.33,9.19,8.04,4.79-.28,7.25-2.98,8.85-9.23,1.11-4.36,1.9-8.78,1.49-13.3-.73-7.98-7.48-11.19-13.9-6.53-1.42,1.03-1.71,1.14-2.76-.43-3.83-5.75-10.35-5.84-14.2-.1-3.99,5.95-5.63,12.7-4.83,19.82.8,7.05,7.45,9.73,13.12,5.41,1.09-.83,1.8-2.15,3.04-3.69Zm-128.8,27.53c-6.94-5.97-14.12-2.01-15.11,5.26-.95,6.98.22,13.92,4.25,19.96,3.45,5.17,9.82,4.96,13.29-.21,1-1.5,1.48-3.19,1.74-5.52,3.39,4.08,6.84,6.1,11.43,3.87,4.5-2.19,5.31-6.12,4.81-10.62-.5-4.48-1.55-8.82-3.52-12.87-1.6-3.29-3.5-6.05-7.98-6.26-4.78-.22-7.29,1.96-8.91,6.4Zm29.81,63.71c.71-1.91,2.13-1.76,3.33-2.06,1.44-.36,3.59.26,3.9-1.89.26-1.86-1.61-2.07-2.91-2.62-1.11-.47-2.25-1.17-1.84-2.53.5-1.62,2.03-.9,2.97-.64,2.98.85,5.31-.25,7.7-1.84,5.93-3.96,11.42-8.43,16.23-13.7,2.95-3.23,5.46-6.78,6.96-10.93.39-1.08,1.33-2.57-.49-3.25-1.44-.54-2.03.7-2.49,1.78-4.55,10.85-13.56,17.41-22.8,23.77-1.57,1.08-3.01,1.36-4.86.79-2.15-.66-5.26-.71-5.81,1.41-1,3.85-2.02,7.72-2.96,11.51-.44,1.79,1.4,5.96,2.41,8.98.5,1.49,2.83,1.6,3.16,3.78.41,2.74,2.58,3.64,5.24,3.19.96-.16,1.73-.48,2.83.1,4.09,2.14,7.98.85,9.09-3.54.87-3.41,2.98-5.07,5.6-6.63,8.04-4.79,14.92-10.97,21.25-17.8,2.56-2.77,4.93-5.69,6.69-9.07.63-1.2,1.3-2.46-.31-3.32-1.52-.8-1.91.57-2.48,1.56-4.55,7.95-11.42,13.76-18.12,19.76-5.61,5.03-14.35,6.78-16.44,15.59-.18.74-1.15,1.42-2.13,1.04-.82-.32-.54-1.19-.6-1.87-.09-1.08.58-2.52-.87-3.05-1.69-.62-2.1,1.06-2.92,1.97-.82.91-1.63,2.63-3,1.39-1.16-1.04.42-1.96,1.11-2.78.37-.44.84-.8,1.23-1.22.59-.64,1.31-1.37.69-2.27-.69-1-1.7-.95-2.67-.29-1.37.93-2.65,2.24-4.6,1.2.51-2.47,2.68-2.54,4.26-3.39.82-.44,1.56-1.08,1.25-2.02-.35-1.05-1.43-1.71-2.44-1.26-1.67.74-3.22,1.07-5.18.18Z"/>
      <path class="cls-4" d="m197.19,36.84c-5.47.41-11.98-1.56-18.64-2.02-4.39-.3-7.59-8.1-6.12-12.3,3.04-8.73,10.76-8.67,17.72-9.97,4.89-.91,9.75.62,14.58,1.2,4.86.58,9.39,8.74,8.67,14.47-.66,5.3-4.53,8.45-10.59,8.61-1.45.04-2.9,0-5.61,0Z"/>
      <path class="cls-4" d="m213.18,36.67c5.21-7.9,3.57-15.41-1.65-23.02,6.53-.73,12.36-.4,17.88,2.47,7.37,3.84,7.8,12.54.67,16.98-5.12,3.19-10.82,4.34-16.9,3.57Z"/>
      <path class="cls-4" d="m190.92,8.42c-2.6,1.55-5.56,1.53-8.31,2.21-11.54,2.85-15.91,10.57-12.03,21.58-9.54.34-17.9-9.74-14.42-17.48,1.32-2.94,3.55-5.22,6.67-6.21,7.97-2.53,16.1-1.7,24.21-.84,1.27.13,2.52.48,3.87.74Z"/>
      <path class="cls-4" d="m20.21,42.58c-.03-6.88,2.98-11.1,7.8-10.93,4.69.16,12.42,7.09,13.14,11.66.21,1.35-.68,1.32-1.44,1.58-5.21,1.83-10.37,3.77-15.25,6.4-1.43.77-2.37.78-2.56-1.28-.23-2.53-1.9-4.77-1.69-7.43Z"/>
      <path class="cls-4" d="m233.27,34.09c5.42-4.26,5.94-9.37,3.89-14.43-2.69-6.63-9.04-8.54-15.37-9.05-2.98-.24-5.75-1.59-8.84-1.15,2.43-2.2,5.73-1.95,8.19-1.86,7.07.25,14.28.72,20.39,5.39,6.64,5.07,7.19,11.48.93,17-2.32,2.05-4.8,4.14-9.18,4.1Z"/>
      <path class="cls-7" d="m27.84,61.14c-2.08-.29-2-2.26-2.75-3.53-.84-1.42-.32-2.53,1.13-3.15,5.06-2.15,10.16-4.21,15.19-6.43,1.73-.76,2.47.05,2.91,1.4.5,1.52,2.82,3.55,1.18,4.5-5.51,3.19-11.64,5.1-17.66,7.21Z"/>
      <path class="cls-4" d="m180.46,38c-10.19,4.96-19.29,3.23-28.33-.49-1.23-.51-1.81-1.83-1.7-2.78.15-1.31,1.7-1.14,2.79-1.24,4.06-.37,8.08.08,11.93,1.27,4.73,1.46,9.46,2.85,15.31,3.25Z"/>
      <path class="cls-4" d="m204.11,3.79c1.87.47,5.75-1.29,5.67,2.71-.08,3.86-4.06,3.87-6.9,4.13-2.73.25-5.82-1.26-5.66-3.91.21-3.55,3.84-2.92,6.9-2.92Z"/>
      <path class="cls-6" d="m194.88,168.95c.99-11.08,7.34-18.36,16.16-18.98,10.52-.73,18.48,7.57,19.26,18.47,1.25,17.5-5.62,32.59-12.73,47.68-2.37,5.04-6.3,6.84-11.51,4.92-12.37-4.55-24.43-9.88-34.41-18.83-5.19-4.65-8.99-10.44-9.43-17.48-.58-9.26,3.43-16.67,11.77-20.94,7.86-4.03,14.52-.61,20.9,5.14Zm32.53,5.41c.25-3.99-.47-7.83-1.86-11.52-2.95-7.84-9.14-11.14-16.87-9.1-6.48,1.71-11.9,10.12-10.81,16.89.34,2.13,2.37,5.07-.15,6.09-2.54,1.02-3.16-2.66-4.48-4.33-6.47-8.16-15.93-9.18-22.49-2.29-6.71,7.05-7.05,17.76-.37,25.78,9.65,11.6,23.33,16.74,36.79,22.04,3.32,1.31,6.19-.12,7.66-3.73,1.03-2.54,2.4-4.94,3.47-7.47,4.39-10.4,8.84-20.8,9.12-32.36Z"/>
      <path class="cls-6" d="m201.78,78.28c-1.25,1.54-1.96,2.86-3.04,3.69-5.67,4.31-12.32,1.63-13.12-5.41-.81-7.13.84-13.88,4.83-19.82,3.85-5.74,10.37-5.64,14.2.1,1.05,1.57,1.34,1.46,2.76.43,6.43-4.66,13.17-1.45,13.9,6.53.42,4.52-.38,8.94-1.49,13.3-1.6,6.25-4.06,8.95-8.85,9.23-4.99.29-7.6-2.79-9.19-8.04Zm12.65-13.32c-.2-.86-.32-2.18-.84-3.32-.8-1.74-2.33-2.95-4.12-1.69-1.76,1.24-3.64,3.7-1.49,5.36,3.61,2.78,1.12,3.22-.92,4.46-2.33,1.41-2.27,4.02-.99,5.61,1.45,1.79,3.75.98,5.19-.76,2.19-2.65,2.91-5.87,3.16-9.66Zm-15.64-2.37c-.03-.34-.06-.92-.13-1.49-.25-1.91-1.23-3.18-3.19-3.56-1.61-.31-2.29.83-3,1.94-1.07,1.68-1.18,2.94.77,4.32,2.24,1.58.76,2.48-1.02,3.05-1.99.64-3.24,1.93-3.04,4.13.11,1.19.78,2.16,2.11,2.39,2.04.35,3.72-.32,4.86-2.03,1.72-2.56,2.69-5.39,2.64-8.74Zm7.08,16.93c1.09,3.55,3.08,4.02,5.84,3.06,3.73-1.3,5.31-4.3,4.87-10.41-2.28,4.74-5.08,8.08-10.7,7.34Zm-4.86-9.16c-2.5,4.75-6.33,7.14-11.8,6.61.34,3.57,2.74,3.81,5.05,3.34,5.19-1.06,5.9-5.54,6.75-9.96Z"/>
      <path class="cls-6" d="m72.98,105.81c1.62-4.43,4.13-6.61,8.91-6.4,4.48.21,6.38,2.96,7.98,6.26,1.96,4.04,3.02,8.39,3.52,12.87.5,4.51-.31,8.44-4.81,10.62-4.59,2.23-8.04.22-11.43-3.87-.26,2.33-.74,4.03-1.74,5.52-3.46,5.17-9.84,5.38-13.29.21-4.03-6.04-5.19-12.98-4.25-19.96.99-7.27,8.17-11.23,15.11-5.26Zm.35,13.08c-.65-3.82-1.3-7.65-3.77-10.85-1.07-1.39-2.5-1.9-4.21-1.56-1.51.3-2.11,1.46-2.27,2.82-.22,1.83.25,4.14,1.89,4.44,4.36.78,3.13,2.33,1.65,5.05-1.22,2.24-.66,5.22,2.2,6.08,2.72.82,3.61-1.65,4.23-3.8.2-.68.19-1.42.28-2.17Zm16.1-3.23c-1.07-3.93-1.1-8.52-4.67-11.78-1.09-1-2.25-2.12-3.78-1.48-1.08.46-1.42,1.79-1.43,2.96-.02,1.66.42,3.69,2.02,3.97,3.79.67,3.89,1.85,1.66,4.67-1.36,1.71-.58,3.9.72,5.62.8,1.06,1.98,1.21,3.12.68,1.82-.84,2.17-2.55,2.36-4.63Zm.17,7.7c-7.31,1.31-10.04-1.02-10.17-8.98-.04-2.65-1.51-4.14-3.49-6.14.11,5.94,1.75,10.84,4.44,15.35,2.63,4.4,6.23,4.23,9.22-.24Zm-16.33,3.96c-4.86,2.63-7.85.09-10.64-3.36.98,2.83,1.23,6.12,4.75,6.88,2.61.56,4.78-.26,5.89-3.52Zm-12.47-12.5c1,3.33-.69,6.02,2.19,8.78-.97-3.07,1.72-5.75-2.19-8.78Z"/>
      <path class="cls-6" d="m102.79,169.53c1.96.89,3.52.57,5.18-.18,1-.45,2.09.21,2.44,1.26.31.94-.43,1.58-1.25,2.02-1.57.84-3.75.92-4.26,3.39,1.95,1.04,3.23-.26,4.6-1.2.97-.66,1.98-.71,2.67.29.62.89-.1,1.62-.69,2.27-.39.43-.87.78-1.23,1.22-.69.82-2.26,1.74-1.11,2.78,1.37,1.24,2.19-.48,3-1.39.82-.91,1.23-2.59,2.92-1.97,1.45.53.78,1.97.87,3.05.06.68-.23,1.56.6,1.87.98.38,1.95-.3,2.13-1.04,2.09-8.8,10.83-10.55,16.44-15.59,6.69-6,13.56-11.81,18.12-19.76.57-.99.96-2.37,2.48-1.56,1.61.85.94,2.11.31,3.32-1.76,3.37-4.13,6.3-6.69,9.07-6.33,6.83-13.21,13.01-21.25,17.8-2.62,1.56-4.74,3.22-5.6,6.63-1.12,4.39-5,5.68-9.09,3.54-1.11-.58-1.88-.26-2.83-.1-2.66.45-4.83-.45-5.24-3.19-.33-2.18-2.66-2.29-3.16-3.78-1.02-3.02-2.86-7.18-2.41-8.98.94-3.79,1.96-7.65,2.96-11.51.55-2.12,3.65-2.07,5.81-1.41,1.86.57,3.29.29,4.86-.79,9.24-6.36,18.24-12.92,22.8-23.77.45-1.08,1.04-2.33,2.49-1.78,1.82.69.88,2.17.49,3.25-1.5,4.15-4.01,7.7-6.96,10.93-4.81,5.27-10.3,9.74-16.23,13.7-2.39,1.6-4.72,2.69-7.7,1.84-.94-.27-2.47-.98-2.97.64-.42,1.36.73,2.06,1.84,2.53,1.3.55,3.17.77,2.91,2.62-.31,2.15-2.45,1.53-3.9,1.89-1.2.3-2.62.15-3.33,2.06Z"/>
      <path class="cls-6" d="m94.48,178.96c-1.01,1.03-2,2.07-3.04,3.07-.74.71-1.5,1.39-2.61.46-1.08-.9-.65-1.71-.06-2.64,1.15-1.78,2.66-3.48,1.91-6.23-2.39.84-3.13,2.89-4.17,4.64-.54.92-1.11,1.9-2.3,1.34-.93-.44-1.53-1.32-.95-2.52.39-.8.59-1.67.07-2.49-.58-.93-.9-2.34-2.4-2.04-1.15.22-1.78,1.39-1.57,2.32,1.51,6.9-3.99,8.92-8.17,11.66-6.22,4.08-13.16,6.53-20.46,7.89-.98.18-2.02.08-3.04.05-1.33-.05-2.29-.76-2.33-2.08-.05-1.74,1.38-1.52,2.51-1.53,9.92-.01,18.03-4.65,25.89-10.01,1.77-1.21,2.31-2.64,2.18-4.74-.22-3.3,1.08-6.13,4.26-7.36,2.94-1.14,4.05,2.85,6.04,2.97,1.85.11,3.94-3.12,6.09-.94,1.64,1.67,3.12,3.07,5.49,3.34.37.04.96.46,1,.76.4,3.3,3.06,5.94,3.25,8.98.14,2.41-.93,5.11-1.33,7.73-.24,1.6-1.88,2.81-3.51,2.84-3.57.05-5.58,2.31-7.98,4.46-9.12,8.14-19.78,12.96-32.09,13.76-1.46.09-3.68.82-3.8-1.54-.13-2.45,2.16-1.74,3.61-1.82,12.45-.68,22.93-5.82,31.65-14.46,1.71-1.7,5.84-2.4,4.16-6.59-.24-.6,1.28-.91,2.1-1.14,1.68-.47,3.23-1.11,4.28-3.19-1.95-.34-2.77.93-3.78,1.68-.9.67-1.68,1.85-2.88.48-1.11-1.27-.05-2.04.66-2.95.79-1.02,1.46-2.13,2.18-3.2.51-.53,1.09-1.22.36-1.79-.47-.36-.95.32-1.21.84Z"/>
      <path class="cls-6" d="m115.44,113.44c-1.78,1.83-3.05-.51-4.83-.88,1.47,12.19,3.89,24.26-4.71,34.72-6.12,7.44-14.07,11.78-23.38,13.96-16.25,3.81-36.06-5.74-42.05-30.48-1.89.46-2.42,4.78-5.43,2.02,2.44-4.61,4.87-9.21,7.31-13.81.76-.66,1.52-1.57,2.6-.71.76.6.81,1.6.36,2.38-4.32,7.53-.03,14.03,2.79,20.45,3.12,7.11,8.7,11.92,15.89,15.25,17.85,8.24,42.82-6.37,44.72-23.17.92-8.12-.61-15.82-2.69-23.52-.42-1.55-1.91-2.09-3.09-2.89-.98-.67-2.09-1.33-1.31-2.73.79-1.43,1.98-.64,3.04-.31,2.45,1.76,4.97,3.42,7.31,5.31,1.45,1.17,3.86,1.73,3.47,4.41Z"/>
      <path class="cls-6" d="m220.05,93.17c-2.75,3.27-3.42,7.23-3.77,11.3-.09,1,0,2.23-1.37,2.3-1.6.07-1.98-1.32-1.76-2.42.64-3.22-1.21-3.13-3.43-2.95-7.58.61-15.02-.18-22.2-2.76-2.14-.77-3.55-1.12-3.69,1.92-.05,1.18-.58,2.87-2.38,2.29-1.77-.57-1.02-2.07-.72-3.3.99-4.09,1.02-8-2.14-11.31-.31-1.11-1.91-1.86-.94-3.33.93-1.41,1.93-.48,2.91-.07,1.38,2.34,3.17,4.48,3.67,7.25.33,1.86,1.66,2.51,3.21,3.1,5.18,1.97,10.63,2.53,16.07,3.28,7.17.99,12.21-1.32,14.44-8.53.95-.35,1.88-1.51,2.9-.13,1.04,1.42-.46,2.26-.8,3.36Z"/>
      <path class="cls-1" d="m220.05,93.17c.34-1.1,1.85-1.94.8-3.36-1.01-1.38-1.94-.22-2.9.13-.25-4.15,1.34-7.37,5.01-9.35,2.78-1.5,5.67-1.22,8.19.6,2.69,1.95,4.62,4.54,4.01,8.12-.63,3.73-2.79,6.34-6.53,7.33-3.66.97-6.52-.35-8.59-3.47Z"/>
      <path class="cls-1" d="m180.56,84.84c-.98-.41-1.97-1.34-2.91.07-.98,1.47.63,2.22.94,3.33-5.29,2.69-9.72,1.96-12.26-2.02-2.68-4.2-1.97-8.44,1.94-11.56,2.79-2.23,7.51-2.12,10.44.25,3.1,2.51,3.81,6.32,1.85,9.93Z"/>
      <path class="cls-1" d="m115.44,113.44c.39-2.67-2.02-3.23-3.47-4.41-2.34-1.89-4.87-3.55-7.31-5.31,1.08-4.5,4.36-6.63,8.55-6.59,3.63.03,6.81,2.02,7.77,5.87.92,3.72.32,7.28-3.11,9.7-.66.46-1.61.5-2.42.74Z"/>
      <path class="cls-1" d="m42.35,118.97c-2.44,4.6-4.87,9.21-7.31,13.81-4.46-.21-6.3-3.21-6.93-7.02-.63-3.81,1.04-6.71,4.52-8.51,3.68-1.9,6.93-1.38,9.72,1.71Z"/>
      <path class="cls-1" d="m227.42,174.36c-.27,11.56-4.73,21.95-9.12,32.36-1.07,2.53-2.44,4.93-3.47,7.47-1.47,3.62-4.33,5.04-7.66,3.73-13.46-5.3-27.14-10.44-36.79-22.04-6.67-8.03-6.34-18.74.37-25.78,6.56-6.89,16.02-5.87,22.49,2.29,1.32,1.67,1.94,5.35,4.48,4.33,2.52-1.01.49-3.96.15-6.09-1.09-6.77,4.33-15.18,10.81-16.89,7.73-2.04,13.92,1.26,16.87,9.1,1.39,3.69,2.11,7.53,1.86,11.52Z"/>
      <path class="cls-5" d="m214.43,64.97c-.26,3.79-.98,7.01-3.16,9.66-1.44,1.74-3.74,2.55-5.19.76-1.28-1.59-1.35-4.21.99-5.61,2.04-1.23,4.54-1.68.92-4.46-2.15-1.66-.28-4.12,1.49-5.36,1.79-1.26,3.33-.05,4.12,1.69.52,1.14.63,2.47.84,3.32Z"/>
      <path class="cls-5" d="m198.79,62.59c.05,3.36-.92,6.18-2.64,8.74-1.15,1.72-2.82,2.38-4.86,2.03-1.33-.23-2-1.2-2.11-2.39-.2-2.19,1.05-3.48,3.04-4.13,1.78-.58,3.26-1.48,1.02-3.05-1.95-1.37-1.84-2.64-.77-4.32.71-1.11,1.4-2.25,3-1.94,1.95.38,2.94,1.65,3.19,3.56.07.57.1,1.15.13,1.49Z"/>
      <path class="cls-3" d="m205.87,79.53c5.63.73,8.42-2.61,10.7-7.34.44,6.11-1.14,9.11-4.87,10.41-2.75.96-4.74.48-5.84-3.06Z"/>
      <path class="cls-3" d="m201.01,70.36c-.86,4.41-1.56,8.89-6.75,9.96-2.31.47-4.71.23-5.05-3.34,5.47.52,9.3-1.86,11.8-6.61Z"/>
      <path class="cls-5" d="m73.33,118.89c-.09.75-.09,1.49-.28,2.17-.62,2.15-1.51,4.63-4.23,3.8-2.86-.87-3.42-3.85-2.2-6.08,1.48-2.72,2.71-4.27-1.65-5.05-1.64-.29-2.11-2.61-1.89-4.44.16-1.35.76-2.51,2.27-2.82,1.71-.34,3.14.17,4.21,1.56,2.47,3.2,3.12,7.03,3.77,10.85Z"/>
      <path class="cls-5" d="m89.43,115.66c-.19,2.08-.54,3.79-2.36,4.63-1.15.53-2.32.38-3.12-.68-1.3-1.72-2.08-3.9-.72-5.62,2.23-2.82,2.14-4-1.66-4.67-1.6-.28-2.04-2.31-2.02-3.97.02-1.17.35-2.51,1.43-2.96,1.53-.64,2.69.48,3.78,1.48,3.56,3.26,3.6,7.86,4.67,11.78Z"/>
      <path class="cls-3" d="m89.6,123.36c-2.99,4.47-6.59,4.64-9.22.24-2.7-4.51-4.33-9.42-4.44-15.35,1.98,2,3.45,3.49,3.49,6.14.13,7.96,2.86,10.29,10.17,8.98Z"/>
      <path class="cls-3" d="m73.27,127.32c-1.12,3.26-3.29,4.08-5.89,3.52-3.52-.76-3.77-4.04-4.75-6.88,2.79,3.45,5.78,6,10.64,3.36Z"/>
      <path class="cls-3" d="m60.8,114.82c3.92,3.03,1.22,5.7,2.19,8.78-2.88-2.76-1.19-5.44-2.19-8.78Z"/>
      <path class="cls-2" d="m94.48,178.96c.26-.52.74-1.2,1.21-.84.73.57.15,1.26-.36,1.79-.28-.32-.57-.63-.85-.95Z"/>
    </g>
  </g>
</svg>