<?xml version="1.0" encoding="UTF-8"?>
<svg id="_레이어_2" data-name="레이어 2" xmlns="http://www.w3.org/2000/svg" viewBox="0 0 358.29 332.35">
  <defs>
    <style>
      .cls-1 {
        fill: #ec6978;
      }

      .cls-2 {
        fill: #fff;
      }

      .cls-3 {
        fill: #cb587d;
      }

      .cls-4 {
        fill: #c9c9c9;
      }

      .cls-5 {
        fill: #c49a6c;
      }

      .cls-6 {
        fill: #21f993;
      }

      .cls-7 {
        fill: #080706;
      }

      .cls-8 {
        fill: #616161;
      }
    </style>
  </defs>
  <g id="_레이어_1-2" data-name="레이어 1">
    <g>
      <path class="cls-4" d="m262.25,55.65c-2.38-3.62-5.41-5.86-10.15-4.21.82-3.35,3.35-3.46,5.24-2.95,3.14.84,5.14,3.21,5.4,6.68-.16.16-.33.32-.5.48Z"/>
      <path class="cls-2" d="m247.71,60.85c-2.71-4.22-5.87-5.53-10.16-4.08,1.06-3.67,4-3.35,6.03-2.91,2.86.62,3.76,3.35,4.12,6.99Z"/>
      <g>
        <path class="cls-7" d="m175.28,125.39c-6.43-3.66-8.25-9.41-8.19-16.47.06-7.1.87-14.07,1.88-21.06,1.26-8.7,4.73-16.67,7.9-24.78,2.95-7.57,7.94-13.75,12.12-20.51,1.49-2.42,3.57-4.51,4.86-7.22.94-1.96,3.95-3.29,5.84-5.28,6.21-6.54,13.15-12.57,20.46-17.54,6.58-4.48,14.58-7.53,22.7-9.27.53-.11,1.08-.09,1.6-.21,1.62-.37,1.72-2.75,3.75-2.7,13.57.36,27.32-2.14,40.62,2.57,15.48,5.49,24.92,16.87,30.6,31.74,1.78,4.66,2.68,9.64,3.95,14.46,2.95,11.18,2.33,22.34,2.11,33.66-.28,14.85-3.46,29.11-6.93,43.39-.56,2.32-.59,4.79-2.01,7.38,6.42-.28,11.72-2.67,16.83-5.49,2.34-1.29,1.2-4.27,2.53-6.34,2.1-3.25,4.83-4.33,7.94-1.89,1.7,1.34,3.72.4,5.53,1.11,1.38.54,2.97.88,3.37,2.29.55,1.9,1.57,2.76,3.43,2.95.35.04.71.39.97.69,1,1.12,1.64,11.11.67,12.3-.57.71-.73,1.33-.66,2.19.19,2.46-1.62,4.44-3.38,4.24-5.28-.58-8.97,2.61-13.06,4.7-8.96,4.57-18.55,6.11-28.42,6.44-2.25.08-3.39.78-4.24,3.03-7.37,19.42-16.77,37.79-28,55.3-4.91,7.66-10.65,14.67-15.95,22.01-1.46,2.03-1.74,3.46-.86,6.07,3.01,8.92,6.64,17.55,10.82,26.24,3.49-3.5,5.72-8.17,10.88-9.52,10.44-2.74,17.89-2.31,21.51,6.61,2.68,6.61.85,13.2-2.9,19.33-4.96,8.1-21.77,14.34-29.66,11.68-2.72-.92-5.89-.67-8.44-1.85-4.26-1.96-7.71-5.16-10.45-9.08-5.35-7.63-8.52-16.06-9.7-25.28-.06-.5-.29-.99-.59-1.94-3.42,2.95-6.69,5.58-9.73,8.45-2.16,2.04-4.73,3.37-7.22,4.84-3.32,1.97-5.71.54-5.17-3.3.68-4.83-.32-9.74,1.03-14.52.27-.96.2-2.43-1.08-2.78-6.22-1.67-12.13-4.52-18.76-4.94,2.88,1.47,5.68,3.12,8.65,4.37,2.56,1.08,2.61,2.54,1.6,4.75-2.64,5.8-5.12,11.66-7.73,17.47-1.77,3.94-5.36,5.49-10.97,4.57-8.58-1.41-17.18-2.58-25.71-4.36-4.14-.87-8.24-2.15-12.86-2.84.65,3.88.21,7.55,1.61,11.19,1.42,3.69-.19,7.66.27,11.56,1.04,8.85-.56,17.3-4.97,25.12-5.42,9.61-16.35,14.69-27.12,13.14-9.74-1.4-16.88-6.37-21.91-14.64-3.2-5.26-3.23-10.87-.83-16.27,2.11-4.72,6.87-5.97,11.48-6.9,4.89-.98,9.83-.63,14.57.79,2.29.69,2.87.15,2.9-1.99.07-4.82,1.29-9.55-.31-14.47-.81-2.5,1.04-5.31.8-8.31-.38-4.82-1.74-7.21-6.82-8.99-18.2-6.36-35.52-14.81-52.04-24.81-4.94-2.99-9.65-6.38-14.4-9.67-2.7-1.87-5.18-2.15-7.97-.09-7.06,5.19-15.04,8.89-23.13,11.91-3.9,1.46-6.98,2.71-9.49,6.19-1.74,2.41-4.9,2.89-7.9,1.2-1.35-.76-2.81-1.31-4.23-1.92-2.89-1.23-2.5-4-3.51-6.16-1.17-2.5-3.28-4.12-1-6.74,1.25-1.44.03-1.58-.6-2.3-.72-.83-2.86-1.13-1.99-2.48.75-1.16,1.37-3.06,3.39-3.02,2.44.04,2.89-1.22,2.37-3.35-.18-.75-.17-1.73.17-2.39.95-1.82,1.12-4.64,4.71-2.43,4.67,2.88,9.33,2.48,13.28-1.96.57-.64,2.67.21,3.43-.41,2.91-2.36,6.38-3.7,10.34-5.68-5.01-2.14-5.96-6.81-8.55-10.19-7.02-9.16-11.65-19.75-13.92-30.97-1.05-5.22-.91-10.93-1.19-16.43-.65-12.88,4.7-23.87,10.71-34.6,4.35-7.77,10.72-14.03,17.78-19.25,16.12-11.9,34.11-17.92,54.9-17.23,10.8.36,21.2,3.24,31.51,6.5,8.94,2.83,16.14,8.47,23.93,13.21,5.19,3.15,4.78,8.54,4.84,13.03.08,5.91-.26,6.95,5.01,9.52,4.04,1.98,8.2,3.74,12.3,5.59.17.81.84.77,1.43.85.53.28,1.05.57,1.58.85.17.5.48.99.5,1.49.04,1.18.2,2.19,1.73,1.97.5-.07,1.28-.18,1.4-.48.45-1.14-.66-1.57-1.29-2.17-.57-.54-1.25-.97-1.88-1.45-.44-.32-.89-.64-1.33-.96-.37-.98-1.08-1.33-2.08-1.11Zm175.01,12.14c-1.77-1.31-.7-2.21.43-3.15,1.58-1.32,3.29-2.55,3.96-4.92-2.05.06-2.79,1.59-4.04,2.24-1.21.63-2.35,2.63-3.75,1.25-1.49-1.46.42-2.57,1.28-3.67,1.13-1.44,2.75-2.73,1.55-4.98-2.1.71-3.24,2.41-4.53,3.93-.69.82-1.37,2.01-2.6,1.26-1.11-.68-.77-1.91-.27-2.91,1.01-2.02.51-4.46-1.21-4.77-2.21-.39-2.85,2.26-2.82,4.12.05,2.78-1.49,4.07-3.63,5.25-5.46,3-11.41,4.72-17.33,6.36-4.03,1.11-8.26.68-12.36-.39-1.1-.29-2.32-.62-2.03-1.99.35-1.68,1.67-1.4,2.91-.96.62.22,1.26.4,1.91.56,3.91.99,5.64-.01,6.73-3.82.85-2.95,1.99-5.84,2.57-8.85,2.72-14.1,5.47-28.16,5.62-42.65.14-13.61-.45-27.1-4.65-40.07-6.68-20.62-19.95-34.21-42.44-36.19-15.81-1.39-31.31.92-45.54,8.22-29.59,15.17-41.69,42.28-48.4,72.76-2.02,9.17-3.39,18.45-2.24,27.98.27,2.25.83,3.18,2.63,4,5.27,2.4,10.52,4.87,15.75,7.37,1.27.61,3.2,1.01,2.46,3.03-.91,2.48.44,2.5,2.08,2.19,5.67-1.06,11.37-2.04,16.99-3.34,10.58-2.44,21.69,3.55,23.72,12.97,2.67,12.41-3.33,22.29-15.15,24.84-4.46.96-8.94,1.87-13.44,2.62-1.74.29-2.48,1.07-2.94,2.71-2.53,9.08-5.17,18.13-7.77,27.19-.33,1.14-1.15,2.41.16,3.31,1.3.89,2.24-.46,3.2-1.02,6.52-3.84,12.69-8.2,18.7-12.78,5.04-3.85,11.07-4.2,16.6-3.03,7.72,1.63,12.52,7.19,13.95,15.14,1.36,7.58-1.16,13.88-7.16,18.63-3.38,2.67-7.03,4.99-10.56,7.48-7.42,5.25-15.26,9.85-23.59,14.88,5.96,3.04,11.24,6,16.75,8.45,3.7,1.65,4.96,3.41,2.71,7.25-1.76,3-3.06,6.32-4.22,9.62-.58,1.63-2.67,2.83-1.73,4.99,3.8-1.84,6.48-4.94,9.62-7.48,4.27-3.46,7.13-7.13,4.64-12.97-.51-1.19-.44-2.67-.42-4.01.02-1.31-1.17-3.42,1.05-3.67,2.02-.23,1.92,1.89,2.01,3.31.63,9.83,3.09,19.28,5.95,28.65,5.17,16.99,18.59,26.27,36.6,20.58,9.11-2.88,15.47-8.71,16.79-18.75,1.04-7.86-4.56-13.72-12.47-13.21-3.93.25-7.25,1.87-10.26,4.32-3.53,2.88-5.8,6.72-8.19,10.48-.51.8-1.13,1.68-2.26,1.05-1.06-.59-.96-1.61-.44-2.47,1.31-2.13,1.6-3.04-.26-6.01-6.07-9.69-9.52-20.76-12.6-31.83-.41-1.46.06-3.27,1.83-2.17,2.22,1.38,2.55-.35,3.3-1.31,17.86-22.81,31.85-47.8,42.1-74.88.57-1.5,1.12-2.78-1.24-3.16-1.15-.18-2.69-.53-1.97-2.27.65-1.58,1.95-.75,3.13-.54,5,.87,10.06,2.43,15.12,1.22,6.38-1.53,12.79-3.03,18.82-5.84,4.57-2.13,8.18-6.82,14.14-4.98-.56-2.24-5.92.1-3.17-4.3,2.48.38,4.49-.34,6.47-2.58-2.97-.89-4.33,1.95-6.53,1.69Zm-174.93-6.36c.09-.34.18-.68.27-1.02-2.39-1.14-4.81-2.21-7.15-3.43-4.16-2.16-10-2.72-12.18-6.57-2.23-3.93-1.92-9.41-2.31-14.24-.21-2.56-1.16-4.2-3.19-5.61-21.31-14.8-44.42-21.67-70.53-17.19-14.68,2.52-27.48,8.61-38.69,18.1-13.87,11.74-22.42,26.71-23.91,44.89-1.64,20.13,5.27,37.84,17.67,53.53,5.31,6.72,5.34,6.71,10.66-.13.72-.93,1.22-2.43,2.75-1.39,1.51,1.03.42,2.24-.28,3.11-1.52,1.89-3.05,3.81-4.85,5.41-5.71,5.09-12.45,8.49-19.52,11.23-4.11,1.59-8.24,4.29-12.74.81-.5-.39-1.32-.49-1.86.11-.65.72-.4,1.6.03,2.24.43.65,1.12,1.15,1.77,1.62.9.64,1.97,1.26,1.44,2.54-.51,1.22-1.82.82-2.83.9-1.61.12-3.34-.5-4.86.46.41,1.32,1.37,1.21,2.02,1.59,1.49.89,4.57-.64,4.55,2.12-.02,2.41-2.88,1.11-4.31,1.87-.96.51-2.23.92-1.87,2.22.41,1.48,1.87.96,2.75.63,1.31-.49,2.78-2.12,3.79-.31,1.07,1.9-1.23,2.2-2.3,3.04-.89.69-2.79,1.23-1.91,2.57.97,1.48,2.3.14,3.43-.57,1.01-.64,1.68-2.61,3.3-1.35,1.24.97.11,2.22-.06,3.36-.1.68-1.08,1.29-.09,2.1,1.16.95,1.67-.14,2.37-.62.55-.38,1.3-.77,1.49-1.32,1.49-4.2,5.27-5.01,8.84-6.23,11.84-4.05,22.97-9.35,31.93-18.4.68-.68,1.3-1.53,2.36-.7.97.76.79,1.85.05,2.47-3.36,2.79-.88,4.04,1.28,5.56,21.43,15.07,44.7,26.52,69.3,35.25.67-1.3-1.25-3.66,1.53-3.88,2.75-.22,1.77,2.22,2.01,3.54,1.5,8.11,1.12,16.35,1.07,24.53-.02,3.31.76,6.82-.32,9.97-.9,2.6-.88,4.22,1.69,5.53.84.43,1.51,1.33.6,2.32-.78.85-1.69.65-2.52-.04-5.87-4.87-12.59-5.38-19.85-4.41-8.48,1.13-13.15,8.24-9.96,16.11,3.44,8.49,14.78,16.28,24.91,15.88,10.73-.42,19.36-7.31,22.64-17.22,2.43-7.33,2.13-14.86,2.04-22.33-.05-4.64-.69-9.3-1.67-13.96-1.21-5.78-2.29-11.56-4.14-17.17-.27-.82-.65-1.92.54-2.41,1.35-.55,2.01.36,2.37,1.46.68,2.05,1.41,4.09,1.9,6.19.54,2.35,1.73,3.42,4.21,4.02,10.88,2.64,21.84,4.84,32.92,6.37,9.99,1.38,10.09,1.37,14.11-7.6,1.8-4.01,5.87-8.61,4.54-11.97-1.2-3.04-7.18-4.06-10.85-6.3-1.94-1.18-3.41-.84-5.23-.03-5.05,2.24-10.19,4.27-15.23,6.51-7.02,3.12-13.53,1.62-19.16-2.84-11.98-9.48-9.04-27.31,5.17-33.23,7.16-2.99,14.48-5.66,21.39-9.76-.73-.56-1.14-.91-1.58-1.2-6.72-4.44-6.75-4.45-4.58-12.04,2.49-8.76,5.04-17.51,7.69-26.71-1.77.15-2.95.29-4.14.35-12.07.58-24.14,1.58-36.22.65-8.09-.62-14.11-4.6-17.12-12.23-4.99-12.67,3.33-28.18,22.77-26.24,7.3.73,14.59.29,21.86-.51Zm13.96,34.58c11.16-.63,24.59-2.34,37.82-5.6,9.42-2.32,15.36-10.36,13.53-18.98-2-9.45-10.39-14.85-20.1-12.98-6.49,1.26-12.95,2.75-19.49,3.67-15.63,2.2-31.32,3.38-47.15,2.94-4.48-.13-9.27-.31-13.47,1.97-5.26,2.85-8.88,9.87-7.99,15.06,1.45,8.52,6.18,13.94,13.55,15.06,3.66.56,7.41.76,11.12.81,9.96.12,19.88-.85,32.19-1.93Zm63.79,33.73c.22-6.7-3.58-11.18-9.58-13.78-5.77-2.5-11.33-1.5-16.35,2.36-5.96,4.59-12.23,8.74-18.64,12.67-13.47,8.25-27.56,15.26-42.28,21.02-6.41,2.51-9.96,7.62-10.72,14.05-.77,6.55,2.73,11.8,8.26,15.09,4.16,2.48,8.72,3.39,13.77,1.44,24.81-9.58,47.72-22.51,69.06-38.31,4.78-3.54,7.48-8.04,6.48-14.53Zm-63.87,1.45c7.29-.6,11.7-3.53,13.03-11.16,1.34-7.68,4.12-15.11,6.6-23.8-4.9,3.05-10.38,3.25-12.02,8.48-2.74,8.73-5.07,17.59-7.6,26.48Zm1.45-153.74c-1.12.84-1.51,1-1.71,1.29-13.17,19.41-19.01,40.89-18.23,64.27.07,2.08.94,2.43,2.77,2.22,1.76-.2,3.15-.29,2.83-2.74-.45-3.48-1.2-7.07-.76-10.48,1.29-10.01,2.93-19.98,5.69-29.72,2.34-8.25,5.44-16.22,9.41-24.84Zm.98,124.21c-1.31.03-1.07,1.11-1.3,1.78-3.22,9.2-5.08,18.82-8.59,27.93-.65,1.68,1.03,1.7,1.93,2.31,1.54,1.05,1.58-.46,1.76-1.09,2.77-9.48,5.42-18.99,8.2-28.47.63-2.15-.88-2.09-2-2.47Zm-18.32-52.65c3.62,3.2,6.92,6.15,10.26,9.06,3.61,3.14,5.66,3.08,9.54.12,1.77-1.35,2.17-2.15-.24-3.19-3.83-1.65-7.62-3.43-11.34-5.31-2.52-1.28-5-1.95-8.22-.67Zm32.8,124.91c7.66,1.73,14.41,4.8,21.88,5.37-3.91-2.41-8.1-4.25-11.95-6.63-3.47-2.14-6.41-2.28-9.93,1.26Zm25.5,8.55c-4.84.08-6.28,3.62-4.14,9.44,1.37-3.13,2.65-6.06,4.14-9.44Zm-31.04-51.12c-3.65,1.17-6.46,2.07-9.51,3.04,2.79,1.94,4.38,1.45,9.51-3.04Zm25.96,62.16h-.17s.1.36.1.36l.07-.36Zm-35.66-216.74c-.08-.09-.15-.17-.22-.24-.06.08-.18.16-.18.24,0,.08.12.15.19.23.07-.07.14-.15.21-.22Z"/>
        <path class="cls-8" d="m176.66,127.25c-.6-.08-1.27-.04-1.43-.85.02-.34.03-.68.05-1.01,1.01-.21,1.72.13,2.08,1.11-.23.25-.47.5-.7.75Z"/>
        <path class="cls-1" d="m350.35,138.41c-2.75,4.4,2.6,2.06,3.17,4.3-5.97-1.84-9.58,2.85-14.14,4.98-6.03,2.82-12.44,4.32-18.82,5.84-5.06,1.21-10.12-.35-15.12-1.22-1.18-.21-2.48-1.05-3.13.54-.72,1.74.82,2.09,1.97,2.27,2.37.38,1.81,1.66,1.24,3.16-10.26,27.09-24.24,52.08-42.1,74.88-.75.96-1.08,2.69-3.3,1.31-1.77-1.1-2.23.71-1.83,2.17,3.08,11.07,6.54,22.14,12.6,31.83,1.86,2.97,1.57,3.88.26,6.01-.52.85-.62,1.88.44,2.47,1.14.63,1.75-.25,2.26-1.05,2.39-3.76,4.66-7.6,8.19-10.48,3.01-2.45,6.34-4.07,10.26-4.32,7.91-.51,13.51,5.35,12.47,13.21-1.33,10.04-7.68,15.87-16.79,18.75-18.01,5.69-31.43-3.59-36.6-20.58-2.85-9.37-5.31-18.82-5.95-28.65-.09-1.42,0-3.54-2.01-3.31-2.22.25-1.03,2.35-1.05,3.67-.02,1.34-.08,2.82.42,4.01,2.49,5.84-.37,9.52-4.64,12.97-3.13,2.54-5.82,5.64-9.62,7.48-.95-2.16,1.15-3.36,1.73-4.99,1.16-3.3,2.46-6.61,4.22-9.62,2.25-3.84,1-5.6-2.71-7.25-5.5-2.45-10.79-5.41-16.75-8.45,8.33-5.04,16.17-9.63,23.59-14.88,3.52-2.49,7.18-4.81,10.56-7.48,6-4.75,8.52-11.04,7.16-18.63-1.42-7.94-6.23-13.51-13.95-15.14-5.53-1.17-11.56-.82-16.6,3.03-6.01,4.59-12.18,8.94-18.7,12.78-.97.57-1.9,1.91-3.2,1.02-1.31-.9-.49-2.17-.16-3.31,2.61-9.06,5.24-18.11,7.77-27.19.46-1.64,1.2-2.42,2.94-2.71,4.5-.74,8.98-1.66,13.44-2.62,11.82-2.55,17.82-12.43,15.15-24.84-2.03-9.42-13.13-15.41-23.72-12.97-5.62,1.3-11.32,2.28-16.99,3.34-1.65.31-2.99.29-2.08-2.19.74-2.02-1.19-2.43-2.46-3.03-5.23-2.49-10.48-4.96-15.75-7.37-1.8-.82-2.36-1.76-2.63-4-1.14-9.53.22-18.81,2.24-27.98,6.72-30.48,18.81-57.59,48.4-72.76,14.24-7.3,29.74-9.61,45.54-8.22,22.49,1.98,35.76,15.57,42.44,36.19,4.21,12.97,4.79,26.46,4.65,40.07-.15,14.5-2.9,28.55-5.62,42.65-.58,3-1.72,5.89-2.57,8.85-1.09,3.81-2.82,4.81-6.73,3.82-.64-.16-1.28-.34-1.91-.56-1.24-.44-2.56-.72-2.91.96-.28,1.37.93,1.7,2.03,1.99,4.1,1.07,8.33,1.5,12.36.39,5.92-1.64,11.87-3.36,17.33-6.36,2.14-1.18,3.68-2.46,3.63-5.25-.03-1.86.61-4.51,2.82-4.12,1.72.3,2.21,2.75,1.21,4.77-.5.99-.84,2.23.27,2.91,1.23.75,1.9-.44,2.6-1.26,1.29-1.53,2.44-3.23,4.53-3.93,1.2,2.26-.42,3.54-1.55,4.98-.86,1.1-2.77,2.21-1.28,3.67,1.41,1.39,2.54-.62,3.75-1.25,1.26-.65,1.99-2.18,4.04-2.24-.66,2.37-2.38,3.6-3.96,4.92-1.13.94-2.2,1.84-.43,3.15.02.3.04.59.06.89Zm-96.37-66.95c3.68,3.79,7.43,4.93,11.61,2.31,3.51-2.19,4.69-6.16,3.28-11.55-.95-3.63-2.02-7.26-3.91-10.55-2-3.5-4.39-6.58-8.97-6.48-4.73.1-6.66,3.38-7.88,7.34-7.29-4.21-13.32-1.99-14.12,5.55-.78,7.31,1.02,14.27,5.65,20.13,3.45,4.37,9.17,3.88,12.3-.75,1.07-1.59,1.62-3.38,2.04-5.99Zm-16.38,23.6c.06.74.04,1.16.14,1.55.35,1.28-.72,3.54,1.46,3.58,1.91.03,1.8-2.1,1.76-3.5-.05-1.94.64-2.07,2.41-1.86,6.34.72,12.63,1.81,19.06-.29,2.64-.86,7.03-3.77,8.03,2.46.11.72.98.85,1.67.57.84-.34.63-1.13.52-1.74-.79-4.67.02-9.07,2.03-13.31.42-.88.57-1.91-.52-2.47-1.16-.6-1.81.25-2.18,1.13-.69,1.6-1.52,3.23-1.75,4.92-.35,2.53-1.63,3.58-4.01,4.22-7.12,1.95-14.29,2.58-21.62,1.63-2.54-.33-4.59-.89-5.58-3.68-.67-1.9-2.21-3.37-3.86-4.59-.89-.66-1.9-1.37-2.86-.33-1.11,1.19,0,1.91.84,2.58,3.03,2.44,4.69,5.52,4.47,9.14Z"/>
        <path class="cls-1" d="m175.36,131.16c-7.26.8-14.56,1.24-21.86.51-19.44-1.94-27.76,13.56-22.77,26.24,3.01,7.63,9.03,11.61,17.12,12.23,12.09.93,24.15-.07,36.22-.65,1.19-.06,2.37-.2,4.14-.35-2.65,9.21-5.2,17.95-7.69,26.71-2.16,7.6-2.14,7.6,4.58,12.04.44.29.85.64,1.58,1.2-6.91,4.11-14.24,6.78-21.39,9.76-14.21,5.93-17.15,23.75-5.17,33.23,5.63,4.46,12.14,5.97,19.16,2.84,5.05-2.24,10.19-4.27,15.23-6.51,1.82-.81,3.29-1.15,5.23.03,3.67,2.24,9.65,3.26,10.85,6.3,1.33,3.36-2.74,7.96-4.54,11.97-4.03,8.97-4.12,8.99-14.11,7.6-11.09-1.53-22.04-3.73-32.92-6.37-2.48-.6-3.67-1.67-4.21-4.02-.48-2.1-1.22-4.14-1.9-6.19-.37-1.1-1.02-2.02-2.37-1.46-1.2.49-.81,1.59-.54,2.41,1.85,5.62,2.93,11.39,4.14,17.17.97,4.66,1.61,9.32,1.67,13.96.09,7.47.39,15-2.04,22.33-3.29,9.91-11.91,16.8-22.64,17.22-10.12.39-21.47-7.39-24.91-15.88-3.19-7.87,1.48-14.98,9.96-16.11,7.26-.97,13.99-.46,19.85,4.41.83.69,1.74.89,2.52.04.91-.99.24-1.89-.6-2.32-2.57-1.31-2.59-2.93-1.69-5.53,1.09-3.15.3-6.66.32-9.97.05-8.17.43-16.41-1.07-24.53-.24-1.32.74-3.76-2.01-3.54-2.78.22-.86,2.57-1.53,3.88-24.61-8.72-47.87-20.18-69.3-35.25-2.16-1.52-4.64-2.77-1.28-5.56.75-.62.92-1.71-.05-2.47-1.06-.83-1.68.02-2.36.7-8.96,9.05-20.09,14.35-31.93,18.4-3.57,1.22-7.35,2.03-8.84,6.23-.19.55-.95.93-1.49,1.32-.69.49-1.21,1.57-2.37.62-.99-.81-.02-1.42.09-2.1.17-1.14,1.31-2.39.06-3.36-1.62-1.26-2.29.71-3.3,1.35-1.13.71-2.46,2.05-3.43.57-.88-1.34,1.02-1.88,1.91-2.57,1.07-.84,3.37-1.14,2.3-3.04-1.02-1.81-2.48-.19-3.79.31-.89.33-2.34.85-2.75-.63-.36-1.3.91-1.72,1.87-2.22,1.43-.76,4.29.54,4.31-1.87.02-2.77-3.06-1.23-4.55-2.12-.65-.39-1.61-.27-2.02-1.59,1.52-.96,3.26-.34,4.86-.46,1.01-.08,2.32.32,2.83-.9.54-1.28-.54-1.9-1.44-2.54-.65-.47-1.35-.97-1.77-1.62-.42-.65-.68-1.53-.03-2.24.54-.6,1.36-.5,1.86-.11,4.5,3.48,8.63.78,12.74-.81,7.07-2.73,13.81-6.14,19.52-11.23,1.8-1.6,3.34-3.52,4.85-5.41.7-.87,1.79-2.08.28-3.11-1.53-1.04-2.03.46-2.75,1.39-5.31,6.84-5.35,6.86-10.66.13-12.4-15.69-19.31-33.41-17.67-53.53,1.48-18.17,10.04-33.15,23.91-44.89,11.21-9.49,24.02-15.58,38.69-18.1,26.11-4.48,49.22,2.39,70.53,17.19,2.04,1.41,2.98,3.05,3.19,5.61.39,4.83.08,10.31,2.31,14.24,2.18,3.84,8.02,4.41,12.18,6.57,2.35,1.22,4.77,2.29,7.15,3.43-.09.34-.18.68-.27,1.02Zm-102.5,1.64c-2.65-2.96-5.66-3.8-9.01-2.48-3.51,1.38-5.21,4.38-5.38,7.92-.31,6.47.55,12.84,3.99,18.5,2.98,4.91,7.53,5.3,12,1.76,2.3-1.83,2.88-4.35,3.91-6.8,4.25,3.99,7.64,4.74,11.28,2.57,3.51-2.1,5-6.16,3.87-11-.89-3.8-1.89-7.58-3.61-11.11-1.85-3.8-4.44-6.84-9.1-6.82-4.56.02-6.49,3.25-7.96,7.46Zm-27.94,29.66c2.86,5.97,6.34,11.5,11.25,16.02,5.15,4.74,11.29,7.64,18.06,8.3,6.59.65,13.18-.4,19.27-3.52,7.92-4.06,14.26-9.79,18.07-17.89,5.39-11.44,1.75-22.35-2.72-32.92.78-.64,1.22-.28,1.7-.08,1.13.47,2.52,1.11,3.11-.43.61-1.57-1.02-2-2.05-2.48-3.42-1.59-6.88-3.09-10.34-4.62-.98-.43-1.9-.37-2.39.7-.53,1.18.31,1.74,1.22,2.14,1.69.76,3.6,1.11,4.44,3.16,1.33,3.24,3.13,6.32,4.13,9.65,2.19,7.28,3.85,14.83.66,22.15-5.31,12.18-15.13,19.6-28.01,21.1-13.8,1.61-24.79-5.44-31.97-19.42-1.82-3.54-4.03-7.11-2.02-11.42.43-.93.74-2.17-.86-2.57-1.56-.39-1.71.79-2.04,1.82-.98,3.08-2.11,6.12-2.94,9.25-.42,1.59-2.9,3.74-.36,4.83,2.49,1.08,2-2.55,3.79-3.8Z"/>
        <path class="cls-5" d="m189.32,165.75c-12.32,1.09-22.23,2.06-32.19,1.93-3.71-.05-7.45-.25-11.12-.81-7.37-1.12-12.1-6.54-13.55-15.06-.88-5.19,2.74-12.21,7.99-15.06,4.2-2.28,9-2.09,13.47-1.97,15.83.44,31.52-.74,47.15-2.94,6.54-.92,13-2.41,19.49-3.67,9.71-1.88,18.1,3.53,20.1,12.98,1.83,8.62-4.12,16.66-13.53,18.98-13.23,3.26-26.65,4.98-37.82,5.6Zm-1.91-5.51s0-.09-.01-.14c6.71-.58,13.42-1.23,20.14-1.71,3.14-.22,4.09-1.6,3.69-4.7-.6-4.67-.86-9.4-1.15-14.11-.14-2.28-.76-3.36-3.41-3.05-14.11,1.63-28.24,3.05-42.44,3.48-2.62.08-3.11,1.32-2.88,3.62.46,4.56.94,9.13,1,13.71.05,3.85,1.93,4.9,5.32,4.6,6.58-.59,13.16-1.14,19.73-1.71Z"/>
        <path class="cls-5" d="m253.11,199.48c1,6.49-1.7,10.99-6.48,14.53-21.34,15.8-44.25,28.74-69.06,38.31-5.06,1.95-9.61,1.04-13.77-1.44-5.53-3.29-9.03-8.54-8.26-15.09.76-6.43,4.31-11.54,10.72-14.05,14.71-5.76,28.8-12.77,42.28-21.02,6.41-3.93,12.68-8.08,18.64-12.67,5.02-3.86,10.59-4.85,16.35-2.36,6.01,2.6,9.8,7.08,9.58,13.78Zm-22.2,17.33c-.28-.52-.53-1-.79-1.47-2.55-4.57-5.19-9.1-7.63-13.74-1.24-2.35-2.63-2.14-4.53-.93-11.94,7.57-24.25,14.48-36.94,20.7-2.1,1.03-2.46,2.14-1.36,4.06,2.61,4.54,5.18,9.11,7.74,13.68.91,1.62,1.93,2.35,3.9,1.43,13.18-6.18,25.8-13.34,37.99-21.29.87-.57,1.89-1.14,1.63-2.45Zm4.94-20.12c.52-.5,1.37-1.02,1.03-2.11-.26-.82-.96-1.22-1.85-1.09-.93.13-1.39.76-1.29,1.64.12,1.03.75,1.63,2.11,1.57Zm-1.87,15.17c.09,1.11.94,1.22,1.71,1.34,1,.15,1.44-.38,1.42-1.35-.03-1.11-.54-1.81-1.71-1.61-.83.14-1.37.75-1.42,1.62Z"/>
        <path class="cls-3" d="m189.24,200.93c2.53-8.89,4.86-17.75,7.6-26.48,1.64-5.22,7.12-5.43,12.02-8.48-2.48,8.7-5.26,16.12-6.6,23.8-1.33,7.63-5.73,10.56-13.03,11.16Z"/>
        <path class="cls-3" d="m190.7,47.19c-3.97,8.62-7.07,16.59-9.41,24.84-2.76,9.75-4.4,19.72-5.69,29.72-.44,3.41.31,7,.76,10.48.31,2.45-1.07,2.54-2.83,2.74-1.82.21-2.7-.14-2.77-2.22-.78-23.38,5.06-44.86,18.23-64.27.2-.29.59-.46,1.71-1.29Z"/>
        <path class="cls-3" d="m173.37,118.74c3.21-1.28,5.7-.6,8.22.67,3.72,1.89,7.51,3.66,11.34,5.31,2.41,1.04,2,1.84.24,3.19-3.88,2.96-5.93,3.02-9.54-.12-3.34-2.91-6.64-5.86-10.26-9.06Z"/>
        <path class="cls-3" d="m206.17,243.66c3.51-3.54,6.46-3.4,9.93-1.26,3.86,2.38,8.05,4.22,11.95,6.63-7.47-.57-14.22-3.64-21.88-5.37Z"/>
        <path class="cls-3" d="m231.67,252.21c-1.48,3.38-2.76,6.31-4.14,9.44-2.14-5.82-.7-9.36,4.14-9.44Z"/>
        <path class="cls-8" d="m200.63,201.08c-5.14,4.49-6.72,4.99-9.51,3.04,3.05-.98,5.86-1.88,9.51-3.04Z"/>
        <path class="cls-8" d="m178.7,127.46c.63.48,1.3.91,1.88,1.45.64.59,1.74,1.03,1.29,2.17-.12.3-.9.41-1.4.48-1.54.22-1.69-.79-1.73-1.97-.02-.5-.32-.99-.5-1.49.16-.21.31-.43.46-.64Z"/>
        <polygon class="cls-3" points="226.6 263.24 226.52 263.6 226.43 263.24 226.6 263.24"/>
        <path class="cls-8" d="m177.36,126.5c.44.32.89.64,1.33.96-.15.21-.3.43-.45.64-.53-.28-1.05-.57-1.58-.85.23-.25.47-.5.7-.75Z"/>
        <path class="cls-7" d="m253.98,71.46c-.42,2.61-.96,4.4-2.04,5.99-3.13,4.63-8.84,5.12-12.3.75-4.63-5.86-6.42-12.82-5.65-20.13.8-7.53,6.83-9.75,14.12-5.55,1.22-3.96,3.15-7.23,7.88-7.34,4.58-.1,6.97,2.98,8.97,6.48,1.88,3.29,2.96,6.93,3.91,10.55,1.41,5.39.22,9.36-3.28,11.55-4.19,2.62-7.93,1.48-11.61-2.31Zm-6.62,5.38c-.25.21-.5.41-.75.62.51.51.86.18,1.2-.23.29-.31.91-.57.21-1.04-.05-.04-.43.42-.66.65Zm14.89-21.2c2.09,5.17,3.36,10.38.46,15.89,4.49-2.3,4.39-10.32.03-16.37-.27-3.47-2.26-5.84-5.4-6.68-1.9-.51-4.43-.4-5.24,2.95,4.75-1.65,7.77.59,10.15,4.21Zm-15.39,13.01c-.34-3.43-1.11-6.27-3.42-8.38-1.14-1.04-2.52-1.41-4.08-.72-1.4.62-2.05,1.68-2.05,3.15,0,1.45.54,3,2,3.13,4.67.41,3.14,1.97,1.12,4.19-1.61,1.77-.54,3.65.94,4.92,1.62,1.39,3.04.08,4.18-1.03,1.6-1.57,1.38-3.67,1.32-5.26Zm7.78-14.36c-1.46-.14-2.62.62-2.75,2.42-.12,1.69.34,3.77,2.08,3.89,4.2.28,3.44,1.79,1.47,4.07-1.52,1.75.15,2.92.89,4.24.59,1.04,1.38,1.67,2.64,1.24,1.62-.55,2.41-1.78,2.32-3.4-.15-2.58-.14-5.25-.88-7.68-.75-2.48-1.87-5.25-5.77-4.78Zm-6.93,6.55c-.36-3.64-1.27-6.37-4.12-6.99-2.03-.44-4.97-.76-6.03,2.91,4.28-1.45,7.45-.14,10.16,4.08Zm2.31,4.75c.48,3.18-.53,6.37-.7,9.61,2.31-3.02,1.62-6.26.7-9.61Z"/>
        <path class="cls-7" d="m237.6,95.06c.23-3.63-1.44-6.7-4.47-9.14-.84-.67-1.95-1.39-.84-2.58.97-1.04,1.97-.32,2.86.33,1.66,1.22,3.19,2.69,3.86,4.59.99,2.79,3.03,3.35,5.58,3.68,7.33.95,14.5.32,21.62-1.63,2.38-.65,3.66-1.7,4.01-4.22.23-1.69,1.07-3.32,1.75-4.92.38-.88,1.02-1.73,2.18-1.13,1.09.57.94,1.59.52,2.47-2.01,4.24-2.82,8.64-2.03,13.31.1.6.31,1.4-.52,1.74-.69.28-1.56.14-1.67-.57-1-6.23-5.39-3.32-8.03-2.46-6.43,2.1-12.72,1.01-19.06.29-1.77-.2-2.46-.08-2.41,1.86.04,1.41.14,3.54-1.76,3.5-2.18-.04-1.11-2.29-1.46-3.58-.11-.38-.08-.8-.14-1.55Z"/>
        <path class="cls-7" d="m72.86,132.8c1.47-4.21,3.4-7.43,7.96-7.46,4.66-.03,7.25,3.02,9.1,6.82,1.72,3.52,2.72,7.31,3.61,11.11,1.13,4.85-.36,8.9-3.87,11-3.64,2.17-7.03,1.43-11.28-2.57-1.04,2.45-1.61,4.97-3.91,6.8-4.47,3.55-9.02,3.16-12-1.76-3.44-5.67-4.3-12.03-3.99-18.5.17-3.54,1.87-6.54,5.38-7.92,3.36-1.32,6.36-.48,9.01,2.48Zm.69,11.68c-.22-3.57-1.37-6.81-3.54-9.66-1.18-1.54-2.69-2.16-4.6-1.6-1.72.5-2.39,2.02-2.27,3.41.15,1.65.71,3.72,2.72,4.04,3.26.51,3.82,1.39,1.57,4.11-1.41,1.71-.56,3.82.73,5.56.72.97,1.62,1.47,2.78,1.04,2.04-.77,2.55-2.61,2.79-4.5.1-.78-.11-1.59-.18-2.39Zm15.85-4.32c-.7-3.14-1.62-6.94-4.47-9.86-1.12-1.15-2.35-2.38-4.2-1.66-1.45.56-1.29,1.81-1.17,3.07.18,1.82.52,3.89,2.61,4.01,3.55.2,3.2,1.32,1.43,3.56-1.58,2-.84,4.04.53,5.92.85,1.17,1.99,1.43,3.19.83,2.16-1.06,2.43-3.02,2.08-5.85Zm-13.32-5.44c-.19,5.98,2.31,10.52,4.74,14.96.85,1.55,2.78,3.44,4.89,2.88,1.81-.48,4.32-1.03,4.31-3.94-6.11,1.52-9.92-.55-10.11-6.15-.11-3.13-1.03-5.35-3.82-7.75Zm-2.09,19.25c-7.45,1.2-10.5-1.32-10.16-9.05.1-2.33-1.45-1.98-2.45-2.77.21,4.3,1.31,8.3,3.31,11.99,2.94,5.4,5.91,5.3,9.3-.16Z"/>
        <path class="cls-7" d="m44.91,162.47c-1.79,1.25-1.3,4.88-3.79,3.8-2.54-1.1-.06-3.24.36-4.83.83-3.12,1.96-6.16,2.94-9.25.33-1.04.48-2.22,2.04-1.82,1.61.4,1.3,1.64.86,2.57-2.01,4.31.2,7.88,2.02,11.42,7.18,13.98,18.16,21.03,31.97,19.42,12.88-1.5,22.69-8.92,28.01-21.1,3.19-7.32,1.53-14.87-.66-22.15-1-3.33-2.8-6.41-4.13-9.65-.84-2.05-2.75-2.4-4.44-3.16-.9-.41-1.75-.96-1.22-2.14.49-1.08,1.41-1.14,2.39-.7,3.45,1.52,6.91,3.02,10.34,4.62,1.03.48,2.66.91,2.05,2.48-.59,1.54-1.98.89-3.11.43-.47-.19-.92-.56-1.7.08,4.47,10.57,8.11,21.48,2.72,32.92-3.82,8.1-10.15,13.82-18.07,17.89-6.09,3.12-12.68,4.17-19.27,3.52-6.77-.67-12.91-3.56-18.06-8.3-4.91-4.52-8.39-10.05-11.25-16.02Z"/>
        <path d="m187.41,160.23c-6.58.57-13.16,1.12-19.73,1.71-3.38.3-5.27-.75-5.32-4.6-.06-4.57-.54-9.15-1-13.71-.23-2.31.26-3.54,2.88-3.62,14.2-.43,28.33-1.85,42.44-3.48,2.65-.31,3.27.77,3.41,3.05.28,4.71.54,9.43,1.15,14.11.4,3.1-.55,4.48-3.69,4.7-6.72.48-13.43,1.13-20.14,1.71,0,.05,0,.09.01.14Zm-1.67-18.69s0,.08,0,.11c-6.19.53-12.37,1.15-18.57,1.56-2.09.14-2.82.77-2.52,2.94.45,3.21.74,6.45.83,9.69.07,2.37,1.09,2.87,3.27,2.75,9.17-.5,18.37-.52,27.48-1.81,3.96-.56,9.24.3,11.47-2.4,2.1-2.54-.22-7.47-.23-11.37,0-2.57-.79-3.48-3.6-3.12-6.02.77-12.1,1.12-18.15,1.64Z"/>
        <path class="cls-7" d="m230.91,216.81c.26,1.31-.75,1.88-1.63,2.45-12.19,7.95-24.81,15.11-37.99,21.29-1.96.92-2.99.2-3.9-1.43-2.56-4.57-5.13-9.14-7.74-13.68-1.11-1.92-.75-3.03,1.36-4.06,12.69-6.22,25-13.13,36.94-20.7,1.91-1.21,3.29-1.42,4.53.93,2.44,4.63,5.08,9.16,7.63,13.74.26.47.51.95.79,1.47Zm-4.21-1.36c-1.72-3.01-3.79-6.33-5.54-9.82-.98-1.94-1.81-2.22-3.66-1.06-10.64,6.66-21.59,12.78-32.82,18.4-1.89.95-1.88,1.82-.93,3.42,1.8,3,3.5,6.07,5.12,9.17.87,1.67,1.78,1.94,3.51,1.1,11.42-5.53,22.48-11.71,33.13-18.62.78-.5,1.73-.92,1.19-2.59Z"/>
        <path class="cls-7" d="m235.85,196.69c-1.36.06-1.99-.54-2.11-1.57-.1-.88.36-1.5,1.29-1.64.89-.13,1.59.27,1.85,1.09.34,1.09-.52,1.61-1.03,2.11Z"/>
        <path class="cls-7" d="m233.98,211.86c.06-.87.59-1.47,1.42-1.62,1.16-.2,1.68.49,1.71,1.61.02.97-.42,1.5-1.42,1.35-.77-.12-1.62-.23-1.71-1.34Z"/>
        <path class="cls-6" d="m246.86,68.66c.06,1.59.28,3.69-1.32,5.26-1.13,1.11-2.55,2.42-4.18,1.03-1.48-1.27-2.55-3.15-.94-4.92,2.02-2.22,3.55-3.78-1.12-4.19-1.46-.13-1.99-1.68-2-3.13,0-1.47.65-2.52,2.05-3.15,1.56-.69,2.94-.32,4.08.72,2.32,2.11,3.08,4.95,3.42,8.38Z"/>
        <path class="cls-6" d="m254.64,54.3c3.91-.47,5.02,2.3,5.77,4.78.74,2.43.72,5.1.88,7.68.1,1.62-.7,2.85-2.32,3.4-1.26.43-2.05-.2-2.64-1.24-.75-1.32-2.41-2.49-.89-4.24,1.97-2.28,2.73-3.79-1.47-4.07-1.74-.12-2.2-2.2-2.08-3.89.13-1.81,1.29-2.56,2.75-2.42Z"/>
        <path class="cls-4" d="m262.74,55.17c4.35,6.05,4.46,14.07-.03,16.37,2.9-5.51,1.63-10.72-.46-15.89.17-.16.33-.32.5-.48Z"/>
        <path class="cls-4" d="m250.02,65.6c.92,3.35,1.61,6.58-.7,9.61.17-3.24,1.17-6.43.7-9.61Z"/>
        <path class="cls-4" d="m247.81,77.23c-.34.4-.69.74-1.2.23.25-.21.5-.41.75-.62.15.13.3.26.45.39Z"/>
        <path class="cls-4" d="m247.36,76.84c.23-.23.61-.68.66-.65.7.47.08.73-.21,1.04-.15-.13-.3-.26-.45-.39Z"/>
        <path class="cls-6" d="m73.55,144.49c.07.8.28,1.62.18,2.39-.24,1.89-.75,3.73-2.79,4.5-1.16.44-2.06-.07-2.78-1.04-1.29-1.74-2.14-3.86-.73-5.56,2.25-2.72,1.68-3.6-1.57-4.11-2.01-.32-2.57-2.39-2.72-4.04-.12-1.38.55-2.91,2.27-3.41,1.92-.56,3.43.06,4.6,1.6,2.17,2.85,3.32,6.09,3.54,9.66Z"/>
        <path class="cls-6" d="m89.39,140.16c.35,2.83.08,4.79-2.08,5.85-1.2.59-2.34.34-3.19-.83-1.36-1.88-2.11-3.92-.53-5.92,1.76-2.24,2.12-3.35-1.43-3.56-2.09-.12-2.42-2.18-2.61-4.01-.13-1.25-.28-2.51,1.17-3.07,1.85-.71,3.09.52,4.2,1.66,2.85,2.93,3.77,6.72,4.47,9.86Z"/>
        <path class="cls-2" d="m76.07,134.73c2.79,2.4,3.71,4.62,3.82,7.75.19,5.59,4,7.67,10.11,6.15.02,2.91-2.5,3.46-4.31,3.94-2.11.56-4.04-1.33-4.89-2.88-2.43-4.43-4.92-8.98-4.74-14.96Z"/>
        <path class="cls-2" d="m73.98,153.97c-3.38,5.47-6.36,5.57-9.3.16-2.01-3.68-3.1-7.69-3.31-11.99.99.79,2.55.44,2.45,2.77-.34,7.73,2.71,10.25,10.16,9.05Z"/>
        <path class="cls-5" d="m185.74,141.54c6.05-.52,12.13-.87,18.15-1.64,2.8-.36,3.59.55,3.6,3.12,0,3.89,2.33,8.82.23,11.37-2.23,2.7-7.51,1.84-11.47,2.4-9.11,1.28-18.31,1.3-27.48,1.81-2.18.12-3.21-.38-3.27-2.75-.09-3.24-.38-6.48-.83-9.69-.3-2.16.43-2.8,2.52-2.94,6.2-.41,12.38-1.02,18.57-1.56,0-.04,0-.08,0-.11Z"/>
        <path class="cls-5" d="m226.7,215.45c.54,1.67-.41,2.08-1.19,2.59-10.65,6.91-21.7,13.09-33.13,18.62-1.74.84-2.65.57-3.51-1.1-1.62-3.1-3.32-6.17-5.12-9.17-.96-1.6-.96-2.47.93-3.42,11.23-5.61,22.17-11.74,32.82-18.4,1.85-1.16,2.68-.88,3.66,1.06,1.75,3.48,3.82,6.81,5.54,9.82Z"/>
      </g>
    </g>
  </g>
</svg>