<?xml version="1.0" encoding="UTF-8"?>
<svg id="_레이어_2" data-name="레이어 2" xmlns="http://www.w3.org/2000/svg" viewBox="0 0 63.41 67.36">
  <defs>
    <style>
      .cls-1 {
        fill: #fff;
      }

      .cls-2 {
        fill: #cb587d;
      }

      .cls-3 {
        fill: #080706;
      }
    </style>
  </defs>
  <g id="_레이어_1-2" data-name="레이어 1">
    <g>
      <path class="cls-3" d="m46.84,65.12c-5.21-.02-9.53-.85-12.74-4.52-1.12-1.28-1.43-.87-2.34.35-3.22,4.29-7.54,6.52-13.05,6.41-7.25-.14-11.31-4.57-10.05-11.69.31-1.75-.67-1.85-1.44-2.31-4.68-2.81-6.63-6.6-3.78-12.39,1.15-2.34,1.86-5.03,4.77-6.21,1.04-.42,1.93-1.49-.19-2.73-3-1.76-5.8-3.94-7.32-7.46-1.45-3.35-.54-7.82,1.92-10.32,4.52-4.61,9.85-2.11,14.72-1.74,2.74.21,2.83-.31,2.84-2.42C20.19,4.45,24.75.03,30.45,0c8.81-.05,13.82,3.22,16.16,10.45.79,2.44.35,4.91.3,7.36-.03,1.67.31,2.04,2.05,2.53,6.08,1.71,11.34,4.81,13.72,11.13,2.06,5.49-.31,10.19-6.28,12.63-1.65.67-2.89,1.11-.98,2.86,3.57,3.27,4.92,7.69,3.05,11.76-2.17,4.72-6.74,6.95-11.62,6.4Zm.36-2.85c.37-.04,1.51-.03,2.6-.26,6.71-1.43,8.69-6.76,4.51-12.21-.97-1.27-2.19-2.36-3.35-3.47-1.69-1.61-1.48-2.72.79-3.4.83-.25,1.67-.49,2.47-.8,7.31-2.88,8.48-8.53,2.94-14.17-2.78-2.84-6.18-4.71-10.03-5.37-2.87-.5-4.49-1.23-3.18-4.5.3-.75.02-1.72.13-2.57.87-6.89-4.35-12.82-11.65-13.2-5.97-.31-9.28,3.63-9.36,11.17,0,.25-.02.5,0,.75.2,2.8-.93,3.33-3.31,2.05-3.03-1.64-6.29-2.43-9.71-1.97-3.1.42-5.8,1.7-6.83,4.96-.96,3.03.68,5.28,2.64,7.3,1.75,1.8,3.95,2.98,6.11,4.24,3.81,2.22,3.75,2.2.02,4.79-3.82,2.65-6.96,5.79-6.26,11.01.44,3.27,2.11,4.28,5.21,3.41,1.21-.33,2.55-1.9,3.58-.79,1.4,1.52-.7,2.56-1.3,3.8-.32.67-.84,1.24-1.18,1.9-2.14,4.1-.82,7.24,3.63,8.71,5.79,1.92,12.13-.54,14.86-6.04,1.24-2.49,2.09-3.05,4.1-.65,3.03,3.62,7.06,5.39,12.58,5.33Z"/>
      <path class="cls-2" d="m47.2,62.27c-5.52.07-9.55-1.71-12.58-5.33-2.01-2.4-2.86-1.84-4.1.65-2.74,5.5-9.07,7.96-14.86,6.04-4.45-1.47-5.76-4.61-3.63-8.71.34-.66.86-1.23,1.18-1.9.6-1.24,2.7-2.28,1.3-3.8-1.03-1.12-2.37.45-3.58.79-3.1.86-4.77-.14-5.21-3.41-.7-5.21,2.43-8.36,6.26-11.01,3.73-2.58,3.79-2.57-.02-4.79-2.15-1.26-4.36-2.44-6.11-4.24-1.96-2.02-3.6-4.27-2.64-7.3,1.03-3.26,3.74-4.54,6.83-4.96,3.42-.46,6.69.33,9.71,1.97,2.38,1.29,3.51.75,3.31-2.05-.02-.25,0-.5,0-.75.08-7.54,3.39-11.49,9.36-11.17,7.3.38,12.52,6.32,11.65,13.2-.11.85.17,1.82-.13,2.57-1.31,3.27.31,4,3.18,4.5,3.85.67,7.25,2.54,10.03,5.37,5.54,5.64,4.37,11.28-2.94,14.17-.8.32-1.64.56-2.47.8-2.27.67-2.47,1.78-.79,3.4,1.16,1.11,2.38,2.2,3.35,3.47,4.18,5.45,2.19,10.78-4.51,12.21-1.09.23-2.22.23-2.6.26Zm-22.49-31.49c-1.55-.37-2.47.08-3.15,1.69-2.03,4.8.41,10.36,6.1,13.49,4.6,2.53,10.48.44,12.17-4.44,1.3-3.74-.06-6.9-2.74-9.47-2.71-2.61-5.95-4.06-9.85-3.26-1.01.21-1.44.89-1.46,1.87-.36.04-.72.07-1.08.11Z"/>
      <path class="cls-3" d="m25.8,30.67c.02-.99.45-1.67,1.46-1.87,3.9-.8,7.14.65,9.85,3.26,2.67,2.57,4.04,5.73,2.74,9.47-1.7,4.87-7.58,6.97-12.17,4.44-5.69-3.13-8.13-8.7-6.1-13.49.68-1.61,1.6-2.06,3.15-1.69-1.53,4.82-1.45,9.15,3.38,12.28,2.8,1.81,5.42,1.55,7.76-.5,2.36-2.07,1.95-4.69.44-7.07-1.62-2.56-4.05-3.89-7.12-4.07-1.15-.07-2.52.68-3.38-.75Z"/>
      <path class="cls-1" d="m25.8,30.67c.86,1.42,2.23.68,3.38.75,3.07.18,5.5,1.51,7.12,4.07,1.51,2.39,1.92,5-.44,7.07-2.33,2.05-4.96,2.31-7.76.5-4.83-3.13-4.92-7.46-3.38-12.28.36-.04.72-.07,1.08-.11Z"/>
    </g>
  </g>
</svg>