<?xml version="1.0" encoding="UTF-8"?>
<svg id="_레이어_2" data-name="레이어 2" xmlns="http://www.w3.org/2000/svg" viewBox="0 0 575.27 320.7">
  <defs>
    <style>
      .cls-1 {
        fill: #ec7278;
      }

      .cls-2 {
        fill: #ec6978;
      }

      .cls-3 {
        fill: #eb6a3c;
      }

      .cls-4 {
        fill: #fff;
      }

      .cls-5 {
        fill: #86d41f;
      }

      .cls-6 {
        fill: #cb587d;
      }

      .cls-7 {
        fill: #21f993;
      }

      .cls-8 {
        fill: #080706;
      }

      .cls-9 {
        fill: #29aae0;
      }
    </style>
  </defs>
  <g id="_레이어_1-2" data-name="레이어 1">
    <g>
      <path class="cls-8" d="m368.1,286.46c1.88-1.28,3.86-2.53,5.75-3.91,5.69-4.16,12.3-3.96,18.33-2.33,10.83,2.93,13.23,14.14,7.55,24.17-5.05,8.91-13.38,13.25-23.66,13.76-8.09.4-15.67-.73-22.39-5.85-5.12-3.9-8.94-8.59-10.97-14.71-.6-1.81-1.15-3.65-2.5-5.34-1.77,2.26-1.62,5.14-2.38,7.62-2.48,8.06-8.07,13.52-14.72,17.82-8.49,5.49-23.85,3.07-32.48-3.9-4.35-3.51-7.57-7.59-10.08-12.49-4.03-7.87-1.6-20.11,10.63-22.55,6.64-1.33,12.83-.66,18.83,1.86,2.43,1.02,3.11.63,3.45-1.66.48-3.23,1.05-6.44,1.44-9.68.29-2.45-.39-4.17-2.9-5.61-5.3-3.03-9.57-7.46-14.19-12.46-3.38,17.36-15.58,25.23-30.31,28.78-9.1,2.19-18.62.87-27.02-5.59-9.08-6.97-14.26-16.23-18.73-26.21-2.58-5.77-4.99-11.62-7.21-17.53-.71-1.9-1.36-1.15-2.37-.61-3.27,1.74-6.53,3.52-9.86,5.15-2.98,1.45-5.95,1.33-8.9-.33-2.93-1.65-6.17-2.85-8.89-4.78-3.1-2.2-4.25-.48-5.31,1.94-2.55,5.77-4.32,12.03-7.72,17.24-4.98,7.65-9.63,15.7-16.32,22.08-3.62,3.44-6.2,8.12-11.24,9.96-.92.33-.63,1.09-.73,1.73-1.62,10.85-8.23,17.25-18.2,20.97-11.79,4.4-22.73,3.1-33.45-3.42-9.12-5.55-12.31-14.43-14.9-24-2.03,2.61-1.92,6.06-2.75,9.03-4.52,16.14-19.65,25.3-34.55,23.16-13.05-1.88-26.23-11.65-29.24-26.82-1.68-8.47,7.13-17.82,16.7-18.26,6.24-.29,12.33.28,18.05,2.81,1.96.87,2.36.3,2-1.32-1.11-4.92,2.15-9.1,2.22-13.87.03-2.29.5-4.55-.09-6.87-1.24-4.84-1.57-6.01-6.54-8.95-6.57-3.89-12.71-8.38-18.13-13.6-5.17-4.98-9.72-10.65-13.47-16.92C3.6,192.81-.86,179.82.14,165.59c1.25-17.93,10.59-34.41,30.72-37.99,11.2-1.99,21.92,1.99,31.07,9.22,6.87,5.43,12.1,12.05,15.38,20.22,1.64,4.08,2.75,4.32,5.76,1.45,4.84-4.62,9.55-9.39,16.17-11.49,1.34-.42,1.87-1.04.72-2.34-4.1-4.63-5.96-10.71-10.45-15.3-2.06-2.1-2.5-6.63-3.82-10.04-4.2-10.78-7.88-21.62-8.71-33.44-1.49-21.2,5.65-43.02,18.11-59.01,10.27-13.18,23.04-22.33,39.38-25.81,9.55-2.04,19.17-.92,28.65,1.65,12.01,3.26,20.82,10.78,28.69,20,4.43,5.2,6.9,11.49,10.7,17.03,2.33,3.39,1.68,8.19,3.38,12.13.52,1.21.73,2.59,2.15,2.52.51-.02,1.14-1.54,1.39-2.47.92-3.38,1.22-7.45,2.85-10,2.68-4.19,4.7-8.82,7.79-12.72,3.13-3.95,6.13-8.11,9.8-11.49,9.24-8.51,20.07-14.01,32.61-16.13,12.56-2.12,24.63-.38,36.11,4.68,15.03,6.62,22.36,19.48,26.27,34.64,5.15,19.96.47,38.83-6.58,57.45-3.93,10.37-8.88,20.38-14.64,29.66-8.09,13.03-17.18,25.55-27.23,37.27-6.9,8.05-14.14,15.82-21.01,23.86-4.95,5.8-11.25,10.36-15.26,17.04-1.45,2.41-5.87,3.25-5.47,6.54.34,2.77,2.57,5.34,4.07,7.93,4.7,8.09,9.67,16.01,15.26,23.51.58.78,1.8,4.2,3.61.51,5.41-11.05,13.89-17.1,26.62-16.11.39.03.8-.16,1.3-.27-3.86-11.13-2.94-22.34,1.18-32.85,3.44-8.79,9.08-16.65,18.59-20.31,6.27-2.42,12.08-.32,17.62,2.56,6.38,3.31,10.12,9.17,13.67,15.08,1.63,2.71,2.7,2.53,4.92.45,10.15-9.57,21.26-15.16,33.05-16.71-5.55-5.2-10.11-10.8-14.67-16.41-8.56-10.54-14.01-22.56-18.4-35.32-4.73-13.77-5.18-27.87-4.82-42.1.15-5.95,1.92-11.7,3.69-17.4,3.3-10.65,9.69-19.46,18.12-26.22,13.7-10.98,29.76-14.84,47.19-12.05,13.87,2.22,25.72,8.37,34.94,19.12,8.34,9.73,13.93,21.08,18.98,32.73,1.32,3.04,2.61,6.09,4.15,9.68,4.79-11.8,9.46-22.79,15.47-33.25,3.47-6.04,7.92-11.52,12.67-15.88,6.9-6.34,15.24-11.5,25.02-13.6,13.45-2.9,26.4-2.94,37.85,5.7,10.01,7.55,15.4,18.13,17.98,30.28,1.69,7.97,2.93,15.98,2.46,24.13-.76,13.18-3.46,25.92-8.06,38.38-3.66,9.92-7.95,19.65-13.41,28.45-8.38,13.5-17.55,26.59-27.48,39.11-10.41,13.12-20.79,26.26-31.61,39.04-1.57,1.85-2.53,3.78-2.32,6.36.77,9.87,1.39,19.75,2.1,30.09,4.15-3.83,9.51-4.49,14.33-4.88,7.52-.61,15.39-.19,21.34,5.92,4.12,4.24,5.11,9.26,3.48,14.8-3.87,13.18-14.45,20.59-28.33,20.85-8.97.16-17.17-1.65-24.39-6.9-5.83-4.23-9.36-9.81-10.47-17.31-.76-5.19-1-10.48-.88-15.5.09-3.82.96-7.93,1.09-11.96.05-1.53.34-3.12-2.11-2.96-2.35.15-1.02,1.85-1.17,2.76-1.72,10.24.16,20.85-3.75,30.93-3.89,10.03-10.98,16.6-20.54,20.71-8.7,3.74-17.78,4.29-26.65.88-7.04-2.71-11.76-8.45-13.32-15.61-1.52-6.96-.26-14.01,5.51-19.23,6.03-5.45,13.29-3.84,20.27-2.96,2.36.3,4.74,1.34,6.83,2.54,2.57,1.48,3.54,1.03,3.99-1.87,1.36-8.69,1.73-17.59,3.59-26.11,1.57-7.18-2.03-10.1-6.62-13.68-12.3-9.59-24.39-19.45-36.98-29.55-.19,8.75-1.37,16.73-3.9,24.59-5.03,15.61-14.51,27.72-27.83,36.93-2.79,1.93-4.61,3.16-3.78,7.37,1.26,6.34,2.06,12.79,3.63,19.09.02.08.17.12.4.28Zm162.68-106.42c9.45-11.22,17.24-23.57,24.12-36.46,8.36-15.65,14.51-31.97,16.35-49.96,1.6-15.64.82-30.68-6.31-44.75-10.01-19.75-25.78-24.49-44.69-20.53-15.53,3.26-26.93,12.81-35.84,25.63-7.71,11.09-12.67,23.5-17.49,35.99-.64,1.66-.89,4.23-2.75,4.34-2.33.14-2.47-2.67-3.2-4.35-4.5-10.34-8.78-20.76-14.55-30.5-10.83-18.3-26.35-28.94-47.93-30.18-23.06-1.32-45.02,12.5-53.66,33.95-5.73,14.2-6.11,28.89-3.9,43.78,3.82,25.79,15.76,47.32,34.35,65.37,2.64,2.56,5.37,4.4,9.17,5.1,7.2,1.33,11.96,5.85,13.78,12.98.6,2.35,1.69,3.95,3.5,5.39,13.07,10.44,26.02,21.03,39.19,31.34,3.97,3.11,6.85,5.65,5.6,11.72-1.68,8.17-1.74,16.65-3.16,24.95-.53,3.1-2.51,6.37-.57,9.69.62,1.06,1.71,2.23.28,3.27-1.35.98-2.27-.36-3.22-1.12-4.57-3.65-9.84-5.72-15.55-6.72-7.84-1.37-14.53,1.8-17.13,8.01-3.8,9.11-.24,19.04,8.68,23.48,5.92,2.95,12.05,4.04,18.84,2.66,16.29-3.31,27.68-16.06,28.37-32.62.29-6.92.69-13.85.67-20.77,0-3.37.81-4.78,4.3-3.69.64.2,1.4.14,2.08.04,2.89-.43,3.96.66,3.83,3.67-.32,7.24-.25,14.5-.52,21.75-.54,14.22,4.63,22.54,17.06,26.89,7.57,2.65,15.3,2.96,23.05.94,7.23-1.88,13.2-5.73,15.92-12.94,3.72-9.88,1.01-18.17-10.07-20.33-10.01-1.96-19.08.18-26.74,7.22-.93.86-1.73,2.08-3.08.74-1-.99-.17-2.07.53-2.49,3.03-1.85,2.62-4.14,1.07-6.6-.75-1.18-.56-2.42-.55-3.64.06-8.04-.7-16.02-1.66-23.99-.28-2.37.07-4.5,1.81-6.54,6.41-7.54,12.71-15.18,18.86-22.93,7.26-9.14,14.92-17.99,21.2-27.88l-.08.08Zm-274.05,66.48c-2.88,2.08-4.08.94-5.38-.82-7.69-10.47-14.48-21.49-20.31-33.09-.99-1.97-4.35-5.43,1.98-4.84.85.08,1.95-1.44,2.79-2.35,9.95-10.74,20.07-21.34,29.76-32.31,18.15-20.55,34.59-42.33,46.15-67.4,8.26-17.92,14.22-36.36,11.52-56.55-4.83-36.04-29.99-48.59-60.41-44.39-14.85,2.05-26.39,10.47-36.24,21.56-9.94,11.19-13.14,25.33-17.74,38.87-.36,1.05.39,2.89-1.12,3.1-1.88.26-1.83-1.68-2.04-2.97-1.34-8.28-3.46-16.32-6.64-24.1-15.07-36.9-55.2-49.72-86.47-26.64-25.1,18.53-34.75,44.69-31.66,75.33,1.99,19.75,11.21,36.87,22.05,53.14,1.08,1.62,2.26,1.89,4.15,1.86,5.94-.1,11.91-.85,17.65,1.91,13.57,6.53,20.38,20.88,17.18,36.84-.27,1.35-1.19,3.02-.15,4.02,6.9,6.69,13.95,13.22,20.97,19.79.16.15.53.09.81.1,2.72.05,2.62,1.43,1.57,3.3-7.4,13.19-16.45,25.25-26.48,36.46-2.26,2.52-2.89,3.84-1.89,6.56.36.99.18,2.01-1.09,2.26-1,.19-1.52-.47-1.8-1.34-.29-.93-.51-1.89-.85-2.8-3.29-8.7-9.16-14.84-17.98-18.03-1.74-.63-3.4-.99-5.1.38-2.28,1.83-4.7,3.49-7.11,5.15-1.13.77-1.65,1.6-1.6,3.08.29,8.5,2.04,16.75,4.01,24.98.82,3.43,1.9,4.64,5.4,1.97,6.02-4.58,12.93-6.39,20.51-4.4,6.57,1.73,10.68,5.98,12.48,12.84,1.83-1.49,3.4-2.65,4.82-3.96,1.43-1.32,2.76-2.76,4.07-4.2,12.07-13.32,20.58-28.7,26.33-45.67.47-1.39.6-3.52,2.36-3.52,2.01,0,1.09,2.11,1.42,3.32.1.37.39.77.71.98,4.62,3.14,9.29,6.37,14.71,7.77,3.58.92,6.5-1.98,9.51-3.59,3.09-1.65,6.92-3.11,4.33-8.02-.42-.79-.27-2.1.97-2.39,1.26-.29,1.61.86,1.96,1.74.46,1.16.79,2.38,1.17,3.57,3.77,11.84,8.35,23.36,14.64,34.1,7.1,12.12,16.91,20.15,31.85,18.92,12.96-1.07,23.67-6.39,29.82-18.5,2.81-5.52,4.04-11.26-.47-16.82-1.29-1.59-2.23-3.58-2.9-5.54-1.03-2.99-3.24-3.99-6.02-4.29-5.23-.57-9.94.78-14.11,3.99-4.21,3.23-6.96,7.56-9.13,12.3-.98,2.15-1.74,4.4-2.62,6.59-.4,1-1.09,1.7-2.25,1.28-1.23-.44-1.11-1.39-.72-2.41.75-1.95,1.45-3.91,2.63-7.13Zm-117.56-70.08c-.36-2.69.1-5.3-.48-7.96-2.46-11.26-13.42-22.77-29.8-20.37-12.37,1.81-21.25,8.28-27.33,18.97-.64,1.12-.52,3.02-2.48,2.83-1.94-.19-1.65-2.03-1.88-3.25-1.48-7.72-4.9-14.5-9.94-20.44-6.99-8.26-15.67-13.95-26.49-15.44-9.25-1.27-17.49,1.08-24.75,7.58-5.43,4.86-9.2,10.51-10.82,17.36-2.58,10.94-2.1,21.81,1.54,32.63,3.45,10.23,8.71,19.36,15.97,27.1,14.68,15.64,33.73,24.25,53.33,31.82,1.68.65,3.06.51,4.74-.06,15.56-5.2,28.43-14.45,39.06-26.67,10.96-12.6,18.67-26.87,19.32-44.08Zm256.85,23.97c0-1.33.1-3.29-.02-5.24-.48-8.07-5.71-13.92-13.67-15.06-3.73-.54-7.5-.51-11.22.36-11.62,2.74-21.16,8.97-29.36,17.46-3.27,3.38-3.67,3.31-5.95-.65-2.93-5.08-5.9-10.12-10.33-14.09-9.03-8.09-19.62-7.67-27.69,1.22-6.4,7.05-9.73,15.44-10.62,24.89-2.38,25.24,16.24,47.29,33.08,55.05,6.59,3.03,13.37,3.94,20.92,2.92,27.44-3.68,55.77-32.3,54.86-66.85ZM53.8,241.38c-.9,8.25-1.72,16.21-2.69,24.14-.26,2.12-1.6,4.21,1.04,5.86.81.51,2.07,1.5,1.03,2.71-1.12,1.3-2.23.39-3.2-.51-7.34-6.73-16.14-8.19-25.47-6.29-5.95,1.21-12.91,6.92-10.44,16.22,1.4,5.27,4.29,9.12,8,12.64,17.52,16.62,42.19,10.35,49.32-12.65,3.2-10.32,3.24-21.06,3.16-31.76,0-1.06-.32-1.73-1.45-2.2-6.28-2.59-12.51-5.29-19.3-8.18Zm43.08,2.14c-5.13,2.74-9.7,5.57-14.92,6.62-2.38.48-2.86,1.47-2.94,3.57-.2,5.59.26,11.15.54,16.72,1.1,21.22,15.08,34.02,36.25,32.55,10.23-.71,19.04-5.05,22.79-15.05,3.64-9.7,1.48-17.14-8.19-19.61-4.8-1.23-9.92-.92-14.62,1.69-4.46,2.47-8.24,5.69-11.72,9.34-.81.85-1.68,1.72-2.82.71-1.25-1.1-.22-2.15.57-2.8,2.25-1.87,2.91-3.69.88-6.24-.8-1.01-.89-2.59-1.3-3.92-2.31-7.58-2.92-15.49-4.53-23.57Zm221.75,23.77c-.96,3.86-1.42,7.24-1.34,10.71.03,1.21-.12,3.07-.87,3.53-2.34,1.45-.73,1.99.24,3,.92.96,3.35,1.55,1.85,3.45-1.82,2.3-2.82-.39-3.92-1.2-7.87-5.81-16.38-7.55-25.51-3.64-6,2.56-8.2,8.73-6.12,14.86,1.53,4.51,4.3,8.04,7.71,11.21,16.78,15.56,39.34,7.05,44.77-11.8,2.28-7.91,3.04-16.04,3.12-24.25.02-1.73-.51-2.55-2.4-2.44-6.08.38-11.85-1.05-17.54-3.41Zm55.23,47.67c12.31.03,21.87-6.08,24.92-15.92,2.78-8.98-2.37-16.34-11.77-16.88-5.45-.31-10.1,1.77-14.28,4.96-2.2,1.68-4.15,3.71-6.21,5.58-.92.83-1.84,2.08-3.19,1-1.64-1.31-.05-2.33.75-2.99,2.15-1.79,2.83-3.27.46-5.58-.93-.9-.89-2.86-1.15-4.36-.81-4.63-1.64-9.27-2.3-13.92-.27-1.91-.56-2.76-2.76-1.68-4.25,2.1-8.74,3.64-13.43,4.47-1.86.33-2.41,1.25-2.49,3.11-.2,4.6.49,9.11.97,13.64,1.91,17.93,13.18,28.51,30.47,28.55Zm-233.79-124.16c-4.99,15.74-13.46,28.79-25.64,39.76,9.72,2.73,16.08,9.08,20.9,18.13.28-2.5,1.41-3.56,2.37-4.73,7.76-9.47,15.19-19.19,21.75-29.55,1.29-2.04,2.05-3.71-.25-5.78-6.31-5.67-12.42-11.56-19.13-17.84Z"/>
      <path class="cls-3" d="m256.72,246.53c-1.18,3.21-1.88,5.18-2.63,7.13-.39,1.02-.51,1.97.72,2.41,1.15.42,1.84-.29,2.25-1.28.88-2.19,1.64-4.45,2.62-6.59,2.17-4.73,4.92-9.06,9.13-12.3,4.17-3.21,8.88-4.56,14.11-3.99,2.78.3,5,1.3,6.02,4.29.67,1.95,1.61,3.95,2.9,5.54,4.5,5.55,3.27,11.29.47,16.82-6.15,12.11-16.86,17.43-29.82,18.5-14.93,1.23-24.75-6.8-31.85-18.92-6.29-10.74-10.86-22.26-14.64-34.1-.38-1.19-.71-2.41-1.17-3.57-.35-.88-.7-2.03-1.96-1.74-1.24.29-1.39,1.6-.97,2.39,2.59,4.91-1.24,6.37-4.33,8.02-3.01,1.61-5.94,4.51-9.51,3.59-5.42-1.4-10.09-4.62-14.71-7.77-.32-.22-.61-.61-.71-.98-.33-1.21.59-3.32-1.42-3.32-1.76,0-1.89,2.13-2.36,3.52-5.75,16.97-14.26,32.35-26.33,45.67-1.31,1.45-2.64,2.88-4.07,4.2-1.42,1.31-2.99,2.47-4.82,3.96-1.8-6.86-5.91-11.11-12.48-12.84-7.58-1.99-14.49-.19-20.51,4.4-3.5,2.66-4.58,1.46-5.4-1.97-1.97-8.22-3.72-16.48-4.01-24.98-.05-1.47.48-2.3,1.6-3.08,2.41-1.66,4.83-3.32,7.11-5.15,1.7-1.37,3.36-1.01,5.1-.38,8.81,3.19,14.68,9.33,17.98,18.03.34.91.56,1.87.85,2.8.27.88.8,1.54,1.8,1.34,1.28-.25,1.46-1.26,1.09-2.26-1-2.73-.36-4.04,1.89-6.56,10.03-11.21,19.08-23.27,26.48-36.46,1.05-1.87,1.15-3.24-1.57-3.3-.28,0-.65.05-.81-.1-7.02-6.57-14.07-13.1-20.97-19.79-1.03-1-.12-2.67.15-4.02,3.2-15.96-3.61-30.31-17.18-36.84-5.74-2.76-11.72-2.01-17.65-1.91-1.89.03-3.07-.24-4.15-1.86-10.85-16.27-20.07-33.39-22.05-53.14-3.08-30.64,6.57-56.81,31.66-75.33,31.27-23.08,71.41-10.26,86.47,26.64,3.18,7.78,5.3,15.82,6.64,24.1.21,1.29.16,3.23,2.04,2.97,1.5-.21.76-2.05,1.12-3.1,4.61-13.54,7.8-27.68,17.74-38.87,9.85-11.09,21.39-19.5,36.24-21.56,30.42-4.2,55.58,8.34,60.41,44.39,2.71,20.18-3.26,38.63-11.52,56.55-11.55,25.07-28,46.85-46.15,67.4-9.69,10.97-19.81,21.57-29.76,32.31-.84.91-1.94,2.43-2.79,2.35-6.33-.59-2.97,2.87-1.98,4.84,5.83,11.6,12.61,22.62,20.31,33.09,1.3,1.76,2.49,2.9,5.38.82Zm-87.56-161.94c-.3-.29-.6-.59-.9-.88l.03.06c.18-1.33-.66-1.97-1.65-2.61-4.06-2.61-8.47-2.07-12.03,1.53-3.86,3.9-4.02,8.17-.49,13.46-.4,2.21.5,2.98,2.64,2.4,1.26.3,2.53.6,3.79.9.08,2.09.14,4.17.26,6.26,1.18,21.14,17.2,37.46,37.55,38.26,24.02.95,40.49-11.98,43.72-34.36.51-3.52.91-7.05,1.39-10.78q4.68,3.38,5.3.02c4.58-2.43,6.26-6.45,4.85-11.56-.92-3.32-5.72-6.89-9.21-6.85-3.96.05-8.8,3.72-9.77,7.42-1.14,4.35.75,8.72,4.7,10.89,1.52,29.32-20.02,47.8-47.97,40.89-17.28-4.27-28.11-18.84-27.92-40.87,4.14-.32,6.27-2.89,7.49-6.58.98-2.97.91-5.62-1.84-7.66l.06.06Zm33.82,113.88c2.52,0,4.17,0,5.83,0,1.78,0,3.24-.79,4.44-2.03.78-.81,1.66-1.82.81-2.93-.94-1.24-1.95-.53-2.77.38-1.64,1.82-3.72,1.75-5.8,1.2-1.78-.47-3.9-1.28-3.39-3.49.6-2.63,2.69-.82,4.17-.73.55.03,1.09.21,1.64.27,2.53.3,4.75-.24,5.95-2.72,1.24-2.57.54-4.84-1.37-6.86-1.92-2.03-4.54-2.62-6.97-3.61-2.1-.86-4.8-1.91-3.66-4.58,1.08-2.54,3.42-.38,5.08.08,4.65,1.29,6.69.43,8.29-4.22,1.26-3.65,3.34-6.75,6.01-9.43,3.24-3.25,6.62-6.36,9.99-9.48.74-.69,2.33-.93,1.13-2.38-.95-1.15-2.01-.53-2.93.2-6.93,5.45-13.84,10.99-16.98,19.65-1.11,3.05-2.56,3.3-5.35,2.33-4.79-1.67-9.71-1.21-14.31.72-2.16.91-2.74.49-3.61-1.47-3.81-8.55-10.7-14.48-17.76-20.21-.81-.66-1.89-1.65-2.93-.56-1.37,1.45.32,2.26,1.08,3.01,1.58,1.56,3.42,2.86,5.04,4.39,4.57,4.31,9.13,8.66,11.74,14.55,2.33,5.25,2.45,5.33,7.96,2.98,1.05-.45,2.38-1.67,3.19.11.69,1.52-.25,2.71-1.65,3.37-1.13.53-2.36.83-3.51,1.32-2.89,1.23-5.36,2.92-6.65,5.97-1.24,2.93-.68,5.52,1.57,7.63,2.07,1.93,4.47,1.93,6.97.67,1.26-.64,2.36-1.85,4.16-1.74-2.12,3.78-6.63,5.65-10.88,4.5-1.21-.33-2.3-.67-2.72.72-.43,1.45.91,1.94,1.96,2.15,1.35.28,2.77.16,4.14.36,1.96.29,3.76-1.35,6.6-.56-3.62,3.09-6.97,4.08-10.9,3.31-5.38-1.05-11.1-6.91-9.68-16.22.66-4.28-1.21-6.45-3.74-8.78-4.57-4.21-10.12-6.83-15.65-9.47-1.14-.54-2.59-1.03-3.19.59-.53,1.42.94,1.84,1.87,2.31,3.73,1.89,7.55,3.58,11.05,5.92,4.62,3.09,7.59,6.45,7.04,12.9-.59,6.88,2.11,13.46,6.51,18.94,3.22,4.01,9.73,4.32,10.9.41,1.26-4.23,5.31-4.41,7.38-7.12.34-.44.91-.96,1.28-.32,1.63,2.82,6.92,1.48,6.88,6.44-.01,1.77,2.27,2.64,4.28,2.56,4.74-.17,7.92-2.77,9.55-6.95,2.37-6.09,4.49-12.34,4.15-19.01-.15-2.91.94-4.63,3.27-6.16,5.07-3.33,10.73-5.28,16.36-7.3,1.54-.55,3.96-.89,3.35-2.71-.61-1.79-2.87-.71-4.42-.22-5.3,1.7-10.41,3.77-15.29,6.54-4.66,2.64-7.79,5.76-6.49,11.61.2.92,0,1.95-.14,2.92-1.33,9.15-10.59,14.68-18.86,10.25Zm.94-85.08c2.72,6.34,5.56,8.45,10.49,7.99,4.47-.42,8.13-3.69,8.94-8.62.97-5.92,1.43-11.92.2-17.87-.89-4.31-2.89-7.94-7.5-9.16-4.38-1.15-7.48,1.08-10.01,4.38-.33.44-.58.95-.94,1.55-4.09-6.84-9.57-8.33-14.69-4.4-2.42,1.86-3.72,4.46-4.53,7.32-1.26,4.44-1.87,8.95-1.75,13.58.19,7.2,2.62,11.88,6.93,13.04,4.47,1.2,8.62-1.25,12.86-7.81Z"/>
      <path class="cls-1" d="m530.85,179.97c-6.28,9.89-13.94,18.74-21.2,27.88-6.16,7.75-12.45,15.39-18.86,22.93-1.73,2.04-2.09,4.17-1.81,6.54.95,7.97,1.71,15.95,1.66,23.99,0,1.23-.2,2.46.55,3.64,1.56,2.46,1.96,4.75-1.07,6.6-.7.43-1.52,1.5-.53,2.49,1.35,1.34,2.15.11,3.08-.74,7.65-7.04,16.72-9.17,26.74-7.22,11.08,2.17,13.79,10.46,10.07,20.33-2.72,7.21-8.69,11.06-15.92,12.94-7.75,2.02-15.48,1.72-23.05-.94-12.43-4.36-17.61-12.67-17.06-26.89.28-7.25.21-14.51.52-21.75.13-3.01-.94-4.1-3.83-3.67-.68.1-1.44.16-2.08-.04-3.48-1.09-4.31.32-4.3,3.69.02,6.92-.38,13.85-.67,20.77-.69,16.56-12.09,29.3-28.37,32.62-6.79,1.38-12.92.29-18.84-2.66-8.93-4.45-12.48-14.38-8.68-23.48,2.59-6.22,9.29-9.39,17.13-8.01,5.7,1,10.98,3.07,15.55,6.72.95.76,1.87,2.1,3.22,1.12,1.43-1.04.35-2.21-.28-3.27-1.95-3.32.04-6.59.57-9.69,1.41-8.3,1.48-16.78,3.16-24.95,1.25-6.07-1.63-8.61-5.6-11.72-13.17-10.31-26.12-20.9-39.19-31.34-1.8-1.44-2.9-3.04-3.5-5.39-1.82-7.13-6.59-11.65-13.78-12.98-3.8-.7-6.52-2.54-9.17-5.1-18.59-18.05-30.54-39.58-34.35-65.37-2.2-14.89-1.82-29.58,3.9-43.78,8.65-21.45,30.61-35.27,53.66-33.95,21.58,1.23,37.1,11.88,47.93,30.18,5.77,9.74,10.05,20.17,14.55,30.5.73,1.68.87,4.49,3.2,4.35,1.86-.11,2.11-2.68,2.75-4.34,4.82-12.49,9.78-24.9,17.49-35.99,8.91-12.82,20.31-22.38,35.84-25.63,18.91-3.97,34.68.77,44.69,20.53,7.13,14.08,7.91,29.12,6.31,44.75-1.84,17.99-7.99,34.31-16.35,49.96-6.88,12.88-14.67,25.24-24.12,36.45,2.98-11.87,5.88-23.75,13.69-33.69,1.78-2.27,3.19-4.9,4.37-7.55,1.82-4.06,2.66-8.5.28-12.49-1.87-3.12-2.36-5.64.04-8.53.91-1.09,1.06-2.54.94-3.98-.15-1.73.67-4.01-1.6-4.72-1.92-.6-4.52-1.19-5.91.62-3.27,4.24-6.11,3.38-9.17-.03-.36-.4-.9-.65-1.39-.91-2.58-1.34-5.08-1.49-7.25.75-2.23,2.3-1.87,4.74-.26,7.22.51.78,2.03,1.69,1.35,2.32-2.33,2.12-2,5.48-3.98,7.65-2.68,2.93-2.18,7-3.74,10.37-.72,1.55-.07,3.91,2.47,4.52.85.2,2.31.27,1.38,1.77-2.82,4.55-3.54,9.92-5.91,14.67-3.18,6.36-6.83,12.43-10.35,18.59-.54.94-1.82,2.19-.02,3.14,1.44.76,1.97-.58,2.52-1.48,5.59-9,11.18-18,14.28-28.25.65-2.14,1.42-4.21,3.01-5.88,1.02-1.07,3.59-1.17,2.52-3.6-.85-1.93-2.69-1.62-4.36-1.63-1.25,0-2.74.11-2.52-1.82.25-2.16,3.79-3.66,5.55-2.33,1.1.83,1.96,1.97,2.98,2.93.67.63,1.5.8,2.25.16.82-.69.55-1.52.01-2.22-2.17-2.84-4.51-5.44-8.75-4.74.97-2.98,2.93-3.44,5.38-2.79,2.26.6,3.95,2.06,5.24,3.93.7,1.02,1.44,1.93,2.65,1.13,1.58-1.04.48-2.19-.23-3.18-1.66-2.35-3.94-3.84-6.59-4.96-.96-.41-3.12.42-2.78-1.52.32-1.8,2-2.49,3.94-2.23,2.84.39,4.84,2,6.44,4.23.69.97,1.4,1.92,2.66.97,1.28-.96.46-2.03-.17-2.92-1.73-2.47-4.05-4.2-6.91-5.18-1.71-.59-3.39-1.18-4.74-2.53-1.16-1.16-2.31-2.46-1.16-3.96,1.11-1.44,2.78-.99,4.11.02,5.13,3.88,9.92,8.14,13.86,13.26,1.39,1.81,1.78,3.87,1.89,6.23.25,5.14-1.93,9.26-4.86,13.01-7.41,9.49-10.77,20.63-13.54,32.04-.48,1.98-.41,3.75,2.43,3.49Zm-103.13-42.99c-1.7.34-3.06.58-4.42.88-1.93.43-5.47.17-5.08,2.25.55,2.98,3.68,1.06,5.63.69,3.16-.59,4.93-.34,5.63,3.6,1.31,7.44,5.72,12.87,12.79,15.9,7.38,3.16,14.98,3.17,22.44.77,2.71-.87,5.06-.69,7.59-.2,18.96,3.67,30.48-4.97,32.52-22.56.21-1.77.34-2.88,2.52-2.74,1.2.08,3.24.94,3.42-1.13.19-2.18-1.97-1.84-3.4-2.09-.54-.1-1.11-.12-1.67-.1-2.31.1-3.24-.49-1.67-2.81.69-1.02,2.43-2.41.74-3.53-1.71-1.13-2.83.83-3.4,2.05-1.46,3.1-3.66,3.09-6.4,2.22.32-2.06,1.94-3.19,2.67-4.82.42-.93.21-1.63-.6-2.12-.69-.42-1.4-.16-1.86.42-.78.98-1.69,1.94-2.14,3.07-1.54,3.88-4.42,4.47-8.13,3.56.12-.53.19-1.08.37-1.59,2.21-6.25,2.15-6.61,1.05-6.42-3.26.56-3.47,3.66-4.12,6.02-.71,2.59-2.02,4.14-4.34,5.44-4.34,2.44-7.66,5.97-9.3,10.88-5.75-8.83-5.73-8.89-16.5-12.64-2.09-.73-2.24-2.17-2.4-3.86-.13-1.35.06-3.19-1.9-3.07-1.99.12-1.69,2.03-1.47,3.29.39,2.22.08,3.09-2.55,3.48-2.77.42-4.51.44-5.3-2.62-.27-1.04-1-1.99-1.63-2.9-.52-.77-1.34-1.01-2.19-.53-.88.5-1.01,1.2-.46,2.08.45.7.79,1.47,1.21,2.19,1.22,2.06,1.53,3.46-1.32,4.8-2.79,1.32-3.64.43-4.4-1.96-.33-1.04-1.02-1.97-1.53-2.96-.51-1.01-1.35-1.6-2.35-1.01-.95.56-.93,1.58-.4,2.57.92,1.7,2.03,3.32,2.32,5.49Zm-10.75,30.79c.57,4.28,1.04,8.54.84,12.84-.06,1.33-.21,3.32,1.61,3.15,1.72-.17,1.93-2.58,1.58-3.67-1.12-3.44-.3-6.87-.57-10.28-.8-9.88-2.13-19.69-8.26-27.97-1.48-2.01-.97-2.41.98-3.38,2.65-1.32,4.38-4.12,2.04-6.46-3.04-3.03-5.55-6.62-9.27-9.09-2.28-1.51-5.84-2.9-5.3-6.41.38-2.49.46-4.43-1.59-5.92-2.38-1.74-5.34-1.98-7.36-.05-2.96,2.84-5.34,3.27-8.72.75-2.49-1.86-5.2-.82-7.01,1.51-1.78,2.29-1.14,4.63.75,6.65.85.91,1.64,1.99,2.68,2.6,2.41,1.42,2.61,3.3,1.61,5.6-1.21,2.8-1.15,5.52-.03,8.38,1.69,4.27,5.12,6.44,9.08,8.07,2.11.87,4.28,1.82,4.74,4.27.81,4.34,1.74,8.7,1.08,13.17-.7,4.78-1.38,9.57-2.13,14.34-.2,1.26-.1,2.33,1.35,2.51,1.2.15,1.66-.74,1.8-1.83.89-7.27,2.68-14.44,2.27-21.85-.38-6.72-2.3-12.12-9.65-14.43-4.05-1.28-6.64-4.43-6.01-9.26.66-5.06,2.63-9.57,5.6-13.64.97-1.33,2.19-2.51,3.44-3.6,1.41-1.23,3.48-1.32,4.63-.31,1.53,1.34-.18,2.72-1.09,3.85-1.05,1.3-2.29,2.45-3.29,3.78-1.2,1.6-4.38,3.4-2.63,5.05,2.16,2.04,3.45-1.62,5-2.84,1.62-1.27,3.19-2.93,4.99-1.02,1.77,1.86-1.2,2.15-1.73,3.33-.47,1.05-1.28,1.99-.14,2.95.99.84,1.72.15,2.43-.67.53-.61,1.22-1.13,1.93-1.53,1.23-.7,2.49-.44,3.48.46,1.49,1.35-.31,1.81-.85,2.56-.5.7-1.14,1.42-.56,2.23.86,1.21,1.86.71,2.89.04,1.82-1.18,3.16.02,4.45,1.1.56.47.87,1.21.53,1.88-.81,1.59-2.18,1.3-3.6.97-1.62-.37-2.58.56-3.32,1.9-.76,1.37.19,2.1.97,2.84,7.93,7.46,9.22,17.43,10.35,27.42Zm-43.84-99.43c-2.91-2.65-5.57-3.92-9-4.01-8.45-.21-2.63,8.65-7.34,11.21-1.47.8.41,4.34,2.75,5.59,1.53.81,3.13,1.49,4.92,2.33-.62.69-1.1,1.17-1.52,1.71-3.95,5.02-2.38,9.17,3.95,10.23.94.16,1.4.61,2.02,1.16,3.8,3.37,7.94,2.3,9.61-2.58.61-1.77.75-3.7,1.15-5.82,2.47,1.9,4.61,4.11,7.57,5.09,4.53,1.51,7.56-.55,7.4-5.27-.04-1.3-.05-2.25.88-3.38,2.93-3.57,1.78-7.62-2.52-9.28-1.39-.53-2.88-.8-4.56-1.25.89-1.18,1.81-2.21,2.51-3.36,2.91-4.84.99-8.56-4.53-8.8-1.26-.06-2.14-.15-3.07-1.44-2.62-3.67-6.68-3.2-8.89.79-1.04,1.88-1.12,3.99-1.34,7.07Zm94.78,108.38c4.69-.1,8.09-1.98,10.69-5.39.6-.79,1.19-1.68.2-2.56-.96-.86-1.68-.23-2.51.43-7.06,5.62-8.43,5.72-15.65,1.16-.92-.58-1.77-1.03-2.58-.15-.84.92-.25,1.83.45,2.56,2.66,2.76,6.05,3.73,9.39,3.96Z"/>
      <path class="cls-5" d="m139.16,176.45c-.65,17.21-8.36,31.48-19.32,44.08-10.63,12.22-23.5,21.48-39.06,26.67-1.68.56-3.07.71-4.74.06-19.6-7.57-38.65-16.18-53.33-31.82-7.27-7.74-12.53-16.87-15.97-27.1-3.65-10.82-4.12-21.69-1.54-32.63,1.61-6.85,5.38-12.5,10.82-17.36,7.26-6.49,15.5-8.85,24.75-7.58,10.82,1.49,19.5,7.18,26.49,15.44,5.03,5.95,8.45,12.73,9.94,20.44.23,1.22-.06,3.06,1.88,3.25,1.96.19,1.85-1.71,2.48-2.83,6.08-10.69,14.96-17.16,27.33-18.97,16.39-2.4,27.34,9.12,29.8,20.37.58,2.66.12,5.28.48,7.96Zm-60.97,5.84c-4.83-7.52-13.3-8.19-16.94-.9-3.91,7.84-6.2,16.3-2.57,25.17,2.5,6.11,8.09,7.81,13.54,4.07,2.1-1.44,3.32-3.61,4.93-5.91.6,1.13.97,1.82,1.33,2.52,1.73,3.37,4.44,5.42,8.27,5.34,4.07-.09,7.6-1.92,8.87-5.84,2.62-8.1,2.84-16.53-.14-24.5-2.46-6.57-9.49-7.47-14.5-2.52-.88.87-1.82,1.68-2.79,2.57Zm.33,42.38c3.68-.32,8.02-.03,12.26-1.07,1.83-.45,3.26-.36,3.29,2.2.01,1.08.03,2.86,1.88,2.62,1.82-.24,1.31-1.87,1.23-3.03-.48-6.75.68-13.04,4.97-18.49.72-.92,1.38-1.85.17-2.88-1.41-1.21-2.02.21-2.62.95-2.87,3.53-4.55,7.61-5.42,12.06-.27,1.41-.3,2.82-2.49,3.22-10.58,1.93-21.04,1.82-31.45-.96-3.05-.81-4.57-2.34-4.22-5.85.44-4.34-1.66-8.08-3.91-11.66-.56-.88-1.24-1.6-2.38-1.04-1.21.59-1,1.57-.43,2.46,4.6,7.18,5.47,14.75,2.38,22.73-.41,1.05-.27,2.03.84,2.43,1.22.44,1.73-.56,2.11-1.48.38-.9.81-1.81.96-2.75.38-2.39,1.35-2.65,3.64-1.88,5.99,2.02,12.28,2.31,19.18,2.42Z"/>
      <path class="cls-9" d="m396.01,200.43c.91,34.56-27.42,63.17-54.86,66.85-7.55,1.01-14.33.11-20.92-2.92-16.85-7.76-35.46-29.81-33.08-55.05.89-9.45,4.21-17.84,10.62-24.89,8.07-8.88,18.66-9.31,27.69-1.22,4.43,3.97,7.4,9.02,10.33,14.09,2.29,3.97,2.69,4.04,5.95.65,8.21-8.49,17.75-14.72,29.36-17.46,3.72-.88,7.49-.9,11.22-.36,7.95,1.14,13.19,6.99,13.67,15.06.12,1.95.02,3.9.02,5.24Zm-63.16,32.28c3.23,6.83,6.44,8.85,11.84,7.64,5.06-1.14,8.29-5.8,7.89-12.16-.27-4.22.61-8.37.1-12.62-.54-4.5-2.14-8.2-6.28-10.07-4.19-1.89-7.91-.45-10.75,3.05-1.05,1.3-1.57,1.28-2.79.06-6.81-6.79-14.71-4.82-17.7,4.39-1.51,4.65-2.2,9.44-2.06,14.36.19,7.18,2.59,11.87,6.9,13,4.7,1.23,8.56-1.01,12.86-7.65Zm.34,19.23c2.09.5,3.96-.19,5.43-1.93.58-.69.8-1.47,0-2.18-.55-.49-1.19-.75-1.84-.19-3.35,2.9-5.99,1.97-8.24-1.46-.49-.74-1.23-1.15-2.09-.44-.73.61-.92,1.37-.44,2.21,1.55,2.73,3.59,4.6,7.19,3.98Z"/>
      <path class="cls-5" d="m53.8,241.38c6.79,2.89,13.02,5.59,19.3,8.18,1.13.46,1.44,1.13,1.45,2.2.08,10.7.03,21.44-3.16,31.76-7.12,23-31.8,29.26-49.32,12.65-3.71-3.52-6.6-7.37-8-12.64-2.47-9.3,4.49-15.01,10.44-16.22,9.34-1.9,18.13-.44,25.47,6.29.98.9,2.08,1.8,3.2.51,1.04-1.21-.21-2.2-1.03-2.71-2.64-1.65-1.3-3.74-1.04-5.86.97-7.94,1.78-15.9,2.69-24.14Z"/>
      <path class="cls-5" d="m96.88,243.52c1.61,8.08,2.23,15.99,4.53,23.57.4,1.33.49,2.91,1.3,3.92,2.02,2.55,1.36,4.37-.88,6.24-.79.66-1.81,1.7-.57,2.8,1.14,1.01,2.01.14,2.82-.71,3.48-3.65,7.26-6.87,11.72-9.34,4.7-2.6,9.83-2.92,14.62-1.69,9.67,2.48,11.83,9.91,8.19,19.61-3.75,10-12.57,14.34-22.79,15.05-21.17,1.47-35.15-11.33-36.25-32.55-.29-5.57-.75-11.13-.54-16.72.08-2.1.56-3.09,2.94-3.57,5.22-1.05,9.79-3.88,14.92-6.62Z"/>
      <path class="cls-9" d="m318.63,267.29c5.69,2.36,11.46,3.79,17.54,3.41,1.89-.12,2.41.7,2.4,2.44-.08,8.21-.85,16.35-3.12,24.25-5.43,18.86-28,27.37-44.77,11.8-3.41-3.16-6.17-6.7-7.71-11.21-2.08-6.13.12-12.3,6.12-14.86,9.14-3.91,17.64-2.17,25.51,3.64,1.1.81,2.1,3.5,3.92,1.2,1.5-1.89-.93-2.49-1.85-3.45-.97-1.01-2.58-1.55-.24-3,.75-.46.9-2.32.87-3.53-.08-3.47.37-6.85,1.34-10.71Z"/>
      <path class="cls-9" d="m373.86,314.96c-17.29-.04-28.56-10.63-30.47-28.55-.48-4.54-1.17-9.04-.97-13.64.08-1.86.63-2.79,2.49-3.11,4.69-.83,9.18-2.38,13.43-4.47,2.2-1.08,2.48-.24,2.76,1.68.66,4.66,1.48,9.29,2.3,13.92.26,1.5.23,3.46,1.15,4.36,2.37,2.31,1.68,3.79-.46,5.58-.8.66-2.39,1.68-.75,2.99,1.34,1.08,2.27-.17,3.19-1,2.06-1.87,4.01-3.89,6.21-5.58,4.19-3.2,8.83-5.28,14.28-4.96,9.4.54,14.55,7.9,11.77,16.88-3.05,9.84-12.61,15.95-24.92,15.92Z"/>
      <path class="cls-8" d="m202.98,198.47c8.26,4.43,17.53-1.1,18.86-10.25.14-.96.35-2,.14-2.92-1.3-5.85,1.84-8.97,6.49-11.61,4.88-2.77,9.99-4.84,15.29-6.54,1.55-.5,3.81-1.57,4.42.22.62,1.82-1.8,2.16-3.35,2.71-5.63,2.02-11.28,3.97-16.36,7.3-2.33,1.53-3.42,3.25-3.27,6.16.34,6.67-1.79,12.92-4.15,19.01-1.63,4.18-4.81,6.78-9.55,6.95-2.01.07-4.29-.79-4.28-2.56.04-4.96-5.25-3.63-6.88-6.44-.37-.64-.94-.12-1.28.32-2.08,2.7-6.12,2.89-7.38,7.12-1.17,3.91-7.68,3.6-10.9-.41-4.4-5.48-7.1-12.06-6.51-18.94.55-6.45-2.42-9.81-7.04-12.9-3.5-2.34-7.32-4.03-11.05-5.92-.94-.47-2.4-.89-1.87-2.31.6-1.62,2.05-1.13,3.19-.59,5.53,2.63,11.08,5.26,15.65,9.47,2.53,2.33,4.39,4.5,3.74,8.78-1.43,9.31,4.29,15.16,9.68,16.22,3.94.77,7.29-.22,10.9-3.31-2.84-.79-4.64.85-6.6.56-1.37-.2-2.79-.09-4.14-.36-1.05-.22-2.38-.7-1.96-2.15.41-1.4,1.5-1.05,2.72-.72,4.25,1.15,8.75-.71,10.88-4.5-1.8-.12-2.89,1.1-4.16,1.74-2.51,1.27-4.9,1.26-6.97-.67-2.26-2.1-2.81-4.7-1.57-7.63,1.29-3.05,3.77-4.74,6.65-5.97,1.15-.49,2.38-.78,3.51-1.32,1.39-.66,2.34-1.85,1.65-3.37-.81-1.77-2.14-.55-3.19-.11-5.51,2.35-5.63,2.28-7.96-2.98-2.61-5.88-7.17-10.23-11.74-14.55-1.62-1.53-3.46-2.83-5.04-4.39-.76-.75-2.45-1.56-1.08-3.01,1.03-1.09,2.11-.1,2.93.56,7.06,5.73,13.95,11.66,17.76,20.21.87,1.96,1.46,2.38,3.61,1.47,4.6-1.94,9.52-2.39,14.31-.72,2.78.97,4.24.72,5.35-2.33,3.14-8.65,10.05-14.19,16.98-19.65.92-.73,1.98-1.34,2.93-.2,1.19,1.44-.39,1.69-1.13,2.38-3.37,3.12-6.75,6.23-9.99,9.48-2.67,2.68-4.75,5.77-6.01,9.43-1.6,4.64-3.63,5.5-8.29,4.22-1.66-.46-4.01-2.61-5.08-.08-1.13,2.67,1.57,3.72,3.66,4.58,2.43.99,5.05,1.59,6.97,3.61,1.92,2.02,2.62,4.29,1.37,6.86-1.2,2.48-3.42,3.01-5.95,2.72-.55-.06-1.09-.24-1.64-.27-1.47-.09-3.57-1.9-4.17.73-.5,2.21,1.62,3.02,3.39,3.49,2.08.55,4.16.62,5.8-1.2.82-.91,1.83-1.62,2.77-.38.85,1.11-.03,2.13-.81,2.93-1.2,1.24-2.66,2.02-4.44,2.03-1.66,0-3.32,0-5.83,0Zm14.75,2.47c-2.11.93-4.25,1.79-6.31,2.82-.64.32-1.53.96-1,1.92.44.8,1.32.9,2.17.56,2.54-1,5.15-1.94,5.09-5.4.19,0,.39-.01.58-.02-.01-.12-.02-.25-.03-.37-.16.16-.33.32-.49.48Zm-6.58-14.69c.13-1.93-1.05-2.82-2.28-3.44-1.85-.94-4.17-1.22-5.68-2.5-2.69-2.27-4.79-1.24-7.35.05-2.47,1.24-5.32,1.81-6.85,4.44-.82,1.41-.98,2.96.05,4.31,1.16,1.53,2.74,1.3,4.11.39,4.51-3,9.35-2.8,14.28-1.57,1.94.48,3.29.27,3.72-1.68Zm-28.76,17.34c.6,2.52,2.28,3.55,4.45,3.83.95.12,2.05-.31,2.33-1.34.43-1.57-1.01-1.29-1.83-1.49-1.59-.37-3.19-.65-4.94-1Z"/>
      <path class="cls-8" d="m203.92,113.39c-4.24,6.56-8.39,9.01-12.86,7.81-4.31-1.16-6.74-5.84-6.93-13.04-.12-4.63.49-9.14,1.75-13.58.81-2.86,2.11-5.46,4.53-7.32,5.12-3.93,10.6-2.43,14.69,4.4.36-.6.6-1.11.94-1.55,2.53-3.3,5.63-5.53,10.01-4.38,4.61,1.21,6.61,4.84,7.5,9.16,1.23,5.95.77,11.95-.2,17.87-.81,4.93-4.47,8.19-8.94,8.62-4.93.47-7.77-1.65-10.49-7.99Zm-2.13-13.84c0-2.76.45-5.57-1.03-8.15-1.05-1.82-2.44-3-4.68-2.8-1.91.17-3.08,1.19-3.45,3.05-.41,2.08-.94,4.76,1.17,5.7,4.04,1.79,3.45,2.92.27,4.98-2.33,1.51-1.99,4.11-1.41,6.46.36,1.45,1.33,2.42,2.95,2.51,2.64.14,4-1.56,5.13-3.59,1.43-2.58,1.02-5.4,1.05-8.17Zm19.25,2.45c.09-3.23-.16-6.42-1.54-9.4-.84-1.81-2.03-3.6-4.19-3.64-2-.04-2.64,1.84-3.06,3.48-.55,2.16-.37,4.58,1.72,5.5,3.53,1.56,2.87,2.66.2,4.28-.67.41-1.23,1.16-1.59,1.88-1.32,2.6-1.5,5.28,1.26,6.91,2.78,1.64,4.76-.2,6.17-2.5,1.22-1.99,1.05-4.29,1.02-6.52Zm-13.31-9.43c-2.45,7.32-2.26,13.93-.31,20.6.81,2.76,2.32,4.77,5.36,5.01,3.02.24,5.32-.94,6.61-3.9-1.63.17-3.13.5-4.6.43-3.19-.17-7.12-4.35-6.14-7.05,1.8-4.96,2.06-9.61-.92-15.09Zm-8.99,22.48c-8.01-1.15-12.14-6.11-9.23-11.97,1.58-3.19.95-4.68-.84-6.67-.99,5.15-2.94,10.23-1.19,15.88.8,2.57,1.64,4.76,4.07,5.62,2.69.95,5.12.02,7.19-2.85Z"/>
      <path class="cls-8" d="m248.77,98.85q-.62,3.36-5.3-.02c-.48,3.74-.88,7.27-1.39,10.78-3.23,22.37-19.7,35.31-43.72,34.36-20.35-.8-36.37-17.12-37.55-38.26-.12-2.08-.17-4.17-.26-6.26.18-1.29.55-2.6-.13-3.99-1.67.59-2.67,1.83-3.66,3.09-2.14.58-3.04-.19-2.64-2.4,2.76-2.49,5.47-5.04,8.3-7.44,1.95-1.65,3-4.39,5.87-4.95,0,0-.03-.06-.03-.06.3.29.6.59.9.88,0,0-.06-.06-.06-.06.42,1.65-.71,2.63-1.73,3.5-3.33,2.87-3.92,6.68-3.92,10.74-.19,22.03,10.65,36.6,27.92,40.87,27.95,6.9,49.48-11.57,47.97-40.89.22-3.16,1.44-6.48-1.89-8.95-.78-.58-1.78-1.64-.56-2.78,1.43-1.33,2.26.01,3,.9,3,3.61,5.93,7.29,8.88,10.94Z"/>
      <path class="cls-2" d="m248.77,98.85c-2.95-3.65-5.88-7.33-8.88-10.94-.74-.89-1.58-2.23-3-.9-1.22,1.14-.22,2.21.56,2.78,3.34,2.47,2.11,5.8,1.89,8.95-3.95-2.16-5.84-6.53-4.7-10.89.97-3.69,5.81-7.37,9.77-7.42,3.49-.04,8.29,3.53,9.21,6.85,1.42,5.11-.27,9.13-4.85,11.56Z"/>
      <path class="cls-2" d="m168.3,83.76c-2.87.55-3.92,3.3-5.87,4.95-2.84,2.4-5.54,4.96-8.3,7.44-3.52-5.3-3.36-9.57.49-13.47,3.56-3.6,7.98-4.14,12.03-1.53.99.63,1.82,1.28,1.65,2.61Z"/>
      <path class="cls-2" d="m163.45,98.77c0-4.05.59-7.87,3.92-10.74,1.02-.87,2.14-1.85,1.73-3.5,2.74,2.04,2.81,4.69,1.84,7.66-1.22,3.69-3.34,6.26-7.49,6.58Z"/>
      <path class="cls-6" d="m156.76,98.56c.99-1.26,1.99-2.5,3.66-3.09.68,1.39.31,2.7.13,3.99-1.26-.3-2.53-.6-3.79-.9Z"/>
      <path class="cls-2" d="m169.16,84.59c-.3-.29-.6-.59-.9-.88.3.29.6.59.9.88Z"/>
      <path class="cls-8" d="m427.72,136.98c-.29-2.17-1.4-3.79-2.32-5.49-.53-.98-.55-2.01.4-2.57,1-.59,1.84,0,2.35,1.01.5.99,1.2,1.92,1.53,2.96.76,2.39,1.61,3.28,4.4,1.96,2.84-1.35,2.54-2.74,1.32-4.8-.43-.72-.76-1.49-1.21-2.19-.56-.88-.42-1.59.46-2.08.85-.48,1.67-.24,2.19.53.63.92,1.35,1.86,1.63,2.9.8,3.06,2.53,3.04,5.3,2.62,2.63-.39,2.94-1.26,2.55-3.48-.22-1.26-.52-3.17,1.47-3.29,1.96-.12,1.77,1.72,1.9,3.07.16,1.68.32,3.13,2.4,3.86,10.77,3.75,10.75,3.81,16.5,12.64,1.64-4.91,4.96-8.44,9.3-10.88,2.32-1.31,3.63-2.86,4.34-5.44.65-2.35.86-5.45,4.12-6.02,1.1-.19,1.15.17-1.05,6.42-.18.51-.25,1.06-.37,1.59,3.72.91,6.6.32,8.13-3.56.45-1.13,1.36-2.1,2.14-3.07.46-.57,1.17-.84,1.86-.42.81.49,1.02,1.2.6,2.12-.74,1.63-2.35,2.76-2.67,4.82,2.73.87,4.94.88,6.4-2.22.57-1.22,1.69-3.17,3.4-2.05,1.69,1.11-.05,2.5-.74,3.53-1.57,2.32-.64,2.9,1.67,2.81.55-.02,1.12,0,1.67.1,1.42.25,3.58-.09,3.4,2.09-.18,2.06-2.22,1.2-3.42,1.13-2.19-.14-2.32.96-2.52,2.74-2.04,17.59-13.56,26.22-32.52,22.56-2.53-.49-4.88-.67-7.59.2-7.47,2.4-15.07,2.39-22.44-.77-7.07-3.03-11.48-8.45-12.79-15.9-.7-3.94-2.47-4.19-5.63-3.6-1.96.36-5.08,2.28-5.63-.69-.38-2.08,3.15-1.81,5.08-2.25,1.35-.3,2.72-.55,4.42-.88Zm45.32,7.83c2.53-2.7,6.75-3.92,8.09-9.29-4.47,2.66-7.53,4.91-8.03,9.37-.19,0-.38,0-.57.01.05.15.1.31.15.46.12-.18.24-.37.36-.55Zm-8.34,1.67c.1.19.2.38.3.58l.19-.44c-.19-.02-.38-.03-.57-.05-.93-6.46-5.68-9.09-11.12-10.86-.82-.27-2.49-1.92-2.92.38-.27,1.44-.93,3.25,1.58,4,4.54,1.36,8.42,4.13,12.53,6.39Zm14.98,11.94c4.39.16,8.68-.27,12.41-2.78,1.36-.92,3.81-1.57,3.15-3.76-.61-2.02-2.94-2.25-4.83-2.74-1.69-.44-3.8,1.91-4.97-.24-1.37-2.51,2.34-2.55,2.77-4.37.1-.4.42-.74.5-1.14.29-1.38.62-2.93-.62-3.89-1.04-.8-2.03.39-2.95.83-4.87,2.33-8.86,5.75-11.92,10.18-1.22,1.77-3.37,3.71-2.41,5.9.99,2.25,3.84,1.55,5.96,1.82.96.12,1.94.13,2.91.2Zm-42.38-17.77c-.35,0-.91.07-1.46-.01-3.67-.51-4.17.91-3.16,4.24,2.18,7.18,6.84,11.5,13.89,13.72,2.35.74,3.14-.26,3.54-2.07.78-3.56-1.2-5.77-3.93-7.57-.79-.52-1.88-.95-1.45-2.2.39-1.14,1.44-1.13,2.45-1.11.56.02,1.12.03,1.67,0,1.11-.06,2.46-.13,2.63-1.43.17-1.31-1.34-1.25-2.14-1.51-3.83-1.25-7.7-2.38-12.02-2.07Zm15.1,18.38c2.92,0,5.55.08,8.18-.04,1.04-.05,2.06-.5,3.08-.82,2.97-.92,3.76-3.13,1.8-5.55-1.75-2.16-3.99-3.79-6.27-5.41-2.35-1.66-3.96-1.68-6.45.22-2.58,1.97-.26,2.93,0,4.35.42,2.32.5,4.65-.34,7.24Zm45.81-9.18c1.46-4.41,3.26-7.9,3.32-11.98.02-1.8-.39-2.4-2.33-2.14-7.16.95-7.35,1.09-7.63,8.11-.03.75-.34,1.5-.57,2.44,2.68-.02,4.86,1.26,7.21,3.57Zm-53.61-14.99c-.97.35-3.35-.36-3.32,1.53.02,1.61,2.44,1.18,3.78,1.66,1.25.44,2.07,0,2.07-1.58,0-1.65-.94-1.76-2.53-1.6Z"/>
      <path class="cls-8" d="m530.85,179.97c-2.85.26-2.91-1.52-2.43-3.49,2.77-11.41,6.14-22.55,13.54-32.04,2.92-3.75,5.1-7.87,4.86-13.01-.11-2.36-.5-4.42-1.89-6.23-3.94-5.12-8.73-9.38-13.86-13.26-1.33-1.01-3-1.46-4.11-.02-1.15,1.5,0,2.8,1.16,3.96,1.34,1.34,3.03,1.94,4.74,2.53,2.87.98,5.18,2.7,6.91,5.18.62.89,1.44,1.96.17,2.92-1.26.95-1.97,0-2.66-.97-1.6-2.23-3.6-3.84-6.44-4.23-1.93-.26-3.61.43-3.94,2.23-.35,1.93,1.81,1.11,2.78,1.52,2.65,1.12,4.92,2.61,6.59,4.96.71,1,1.81,2.14.23,3.18-1.21.8-1.95-.11-2.65-1.13-1.29-1.87-2.98-3.33-5.24-3.93-2.45-.65-4.41-.19-5.38,2.79,4.24-.7,6.58,1.89,8.75,4.74.53.7.8,1.53-.01,2.22-.76.64-1.58.48-2.25-.16-1.02-.95-1.88-2.09-2.98-2.93-1.76-1.33-5.3.17-5.55,2.33-.23,1.93,1.27,1.82,2.52,1.82,1.67,0,3.51-.3,4.36,1.63,1.07,2.43-1.51,2.53-2.52,3.6-1.59,1.68-2.37,3.75-3.01,5.88-3.11,10.26-8.7,19.26-14.28,28.25-.55.89-1.08,2.24-2.52,1.48-1.8-.95-.51-2.21.02-3.14,3.52-6.16,7.17-12.23,10.35-18.59,2.38-4.75,3.09-10.12,5.91-14.67.93-1.5-.53-1.56-1.38-1.77-2.55-.61-3.19-2.97-2.47-4.52,1.56-3.37,1.06-7.44,3.74-10.37,1.98-2.17,1.65-5.53,3.98-7.65.69-.62-.84-1.54-1.35-2.32-1.61-2.48-1.97-4.93.26-7.22,2.18-2.24,4.68-2.08,7.25-.75.49.26,1.04.51,1.39.91,3.06,3.41,5.9,4.27,9.17.03,1.39-1.81,3.99-1.22,5.91-.62,2.27.71,1.45,2.99,1.6,4.72.12,1.44-.03,2.88-.94,3.98-2.4,2.89-1.91,5.41-.04,8.53,2.39,3.99,1.54,8.42-.28,12.49-1.19,2.64-2.59,5.28-4.37,7.55-7.81,9.94-10.71,21.82-13.69,33.69,0,0,.08-.08.08-.08Zm13.41-60.67c1.75-1.49,2.45-3.52,3.16-5.5.37-1.04-.08-1.95-1.15-2.3-1.02-.33-5.39,3.2-5.16,4.31.32,1.55,1.87,2.22,3.16,3.5Z"/>
      <path class="cls-8" d="m416.97,167.76c-1.13-9.99-2.42-19.96-10.35-27.42-.78-.73-1.74-1.47-.97-2.84.74-1.34,1.7-2.27,3.32-1.9,1.42.33,2.79.62,3.6-.97.34-.66.03-1.41-.53-1.88-1.29-1.07-2.63-2.27-4.45-1.1-1.03.67-2.03,1.16-2.89-.04-.58-.82.07-1.53.56-2.23.54-.76,2.34-1.21.85-2.56-.99-.9-2.25-1.16-3.48-.46-.71.4-1.4.92-1.93,1.53-.71.82-1.44,1.5-2.43.67-1.13-.96-.33-1.9.14-2.95.53-1.18,3.5-1.47,1.73-3.33-1.8-1.91-3.37-.25-4.99,1.02-1.56,1.22-2.84,4.88-5,2.84-1.75-1.65,1.43-3.45,2.63-5.05,1-1.33,2.24-2.48,3.29-3.78.92-1.14,2.62-2.51,1.09-3.85-1.15-1-3.22-.92-4.63.31-1.25,1.09-2.47,2.27-3.44,3.6-2.97,4.08-4.95,8.59-5.6,13.64-.63,4.83,1.96,7.98,6.01,9.26,7.35,2.31,9.27,7.71,9.65,14.43.42,7.41-1.38,14.58-2.27,21.85-.13,1.09-.6,1.98-1.8,1.83-1.45-.18-1.55-1.25-1.35-2.51.75-4.78,1.43-9.56,2.13-14.34.66-4.47-.27-8.83-1.08-13.17-.46-2.45-2.63-3.4-4.74-4.27-3.95-1.63-7.39-3.8-9.08-8.07-1.13-2.86-1.19-5.59.03-8.38,1-2.3.8-4.18-1.61-5.6-1.04-.61-1.83-1.69-2.68-2.6-1.89-2.02-2.53-4.36-.75-6.65,1.81-2.33,4.52-3.37,7.01-1.51,3.38,2.52,5.76,2.09,8.72-.75,2.02-1.94,4.98-1.69,7.36.05,2.04,1.49,1.97,3.43,1.59,5.92-.54,3.51,3.02,4.9,5.3,6.41,3.72,2.47,6.23,6.05,9.27,9.09,2.34,2.33.61,5.13-2.04,6.46-1.94.97-2.46,1.37-.98,3.38,6.13,8.28,7.46,18.08,8.26,27.97.28,3.41-.55,6.84.57,10.28.36,1.09.15,3.5-1.58,3.67-1.82.18-1.68-1.81-1.61-3.15.2-4.3-.26-8.56-.84-12.84Zm-31.57-50.7c-1.1-1.8-2.66-2.81-4.58-3.2-1.15-.23-2.41.06-2.27,1.62.22,2.49,2.03,4.21,4.06,4.79,1.74.5,1.61-2.09,2.79-3.21Z"/>
      <path class="cls-8" d="m373.13,68.33c.21-3.08.3-5.19,1.34-7.07,2.21-3.99,6.27-4.46,8.89-.79.93,1.3,1.81,1.39,3.07,1.44,5.52.24,7.44,3.96,4.53,8.8-.7,1.16-1.62,2.18-2.51,3.36,1.68.45,3.17.71,4.56,1.25,4.3,1.65,5.45,5.71,2.52,9.28-.93,1.13-.92,2.08-.88,3.38.16,4.72-2.87,6.78-7.4,5.27-2.96-.98-5.1-3.2-7.57-5.09-.4,2.11-.54,4.05-1.15,5.82-1.67,4.88-5.81,5.95-9.61,2.58-.62-.55-1.08-1-2.02-1.16-6.33-1.06-7.89-5.21-3.95-10.23.42-.53.9-1.01,1.52-1.71-1.79-.84-3.39-1.52-4.92-2.33-2.34-1.25-4.21-4.79-2.75-5.59,4.71-2.56-1.11-11.43,7.34-11.21,3.43.09,6.08,1.36,9,4.01Zm2.62,11.79c2.91.92,4.18,3.42,6,5.32,1.54,1.61,3.14,3.16,5.14,4.21,1.4.73,2.95,1.36,4.25.16,1.16-1.07.16-2.35-.38-3.42-.66-1.3-1.49-2.69.5-3.38,1.41-.49,3.42-.25,2.83-2.54-.46-1.78-2.15-2.31-3.89-2.64-5.05-.97-9.53,1.43-14.45,2.29Zm1.61-2.91c3.14-2.03,5.92-3.77,8.64-5.61.67-.45,1.17-1.17,1.68-1.82,1.04-1.33,2.35-2.98,1.27-4.49-1.34-1.87-3.12-.21-4.36.58-2.77,1.77-4.08,1.58-3.73-2.05.09-.98.09-2.15-1.01-2.49-1.28-.4-1.97.61-2.57,1.61-.78,1.31-1.31,2.59-1.4,4.22-.18,3.24.72,6.25,1.48,10.06Zm-8.98,3.11c1.55.08,3.03-.16,4.5-.73.84-.33,1.37-.45,1.27-1.62-.35-3.93-4.38-9.33-8.05-10.53-1.21-.39-2.53-.85-3.4.45-.72,1.08-.21,2.2.65,3,3.14,2.94,2.01,4.09-1.71,4.29-.83.04-1.74.26-1.82,1.33-.07.97.7,1.44,1.43,1.88,2.19,1.33,4.54,2.11,7.14,1.92Zm7.49,1.72c-3.74,1.18-7.16,2.23-9.95,4.66-1.44,1.26-2.62,2.89-1.32,4.7,1.18,1.65,2.73.63,4-.3,1.56-1.14,2.72-.85,2.86,1.12.09,1.32-.81,3.02,1.42,3.09,2.16.07,2.81-1.82,2.93-3.42.24-3.16.07-6.35.07-9.84Z"/>
      <path class="cls-8" d="m467.92,176.71c-3.34-.23-6.73-1.2-9.39-3.96-.7-.73-1.29-1.64-.45-2.56.81-.88,1.66-.43,2.58.15,7.22,4.56,8.59,4.46,15.65-1.16.83-.66,1.54-1.29,2.51-.43.99.89.4,1.77-.2,2.56-2.6,3.41-6,5.29-10.69,5.39Z"/>
      <path class="cls-8" d="m78.19,182.3c.97-.89,1.91-1.7,2.79-2.57,5.01-4.94,12.05-4.04,14.5,2.52,2.98,7.97,2.76,16.4.14,24.5-1.27,3.92-4.8,5.75-8.87,5.84-3.83.09-6.54-1.97-8.27-5.34-.36-.7-.74-1.4-1.33-2.52-1.61,2.29-2.84,4.47-4.93,5.91-5.45,3.74-11.04,2.03-13.54-4.07-3.63-8.87-1.34-17.33,2.57-25.17,3.64-7.29,12.11-6.61,16.94.9Zm-5.3,22.96c-3.53.1-6.05-1.64-6.56-4.66-.54-3.19-.46-6.55.31-9.87.81-3.47,2.18-6.03,5.94-6.87.56-.13,1.87-.21,1.82-1.25-.06-1.18-.93-2.27-2.01-2.4-3.15-.39-6.54-1-8.45,2.62-3.48,6.6-4.66,13.53-2.8,20.85.63,2.48,1.34,5.03,4.31,5.53,3.22.54,5.63-.88,7.43-3.95Zm20.13-.66c-8.81-.93-9.4-1.72-9.26-12.27.07-5.27,2.96-8.02,8.93-8.44-.84-2.52-2.49-4.06-5.17-4.03-3.34.04-5.48,2.13-6.44,5.04-2.2,6.7-2.31,13.47.01,20.23,1,2.91,2.91,4.37,5.92,4.13,2.93-.23,5.24-1.44,6.01-4.67Zm-16.73-11.02c-.13-1.78-.14-3.03-.34-4.25-.18-1.12-.69-2.19-1.92-2.46-1.21-.27-2.33.31-2.84,1.3-1.64,3.18-3.07,6.54-2.37,10.19.28,1.45.96,3.4,3.01,3.45,1.91.04,3-1.41,3.49-3.05.54-1.84.73-3.78.98-5.17Zm16.68.57c0-.98-.03-1.95,0-2.93.06-1.79-.19-3.54-2.3-3.85-2.16-.31-2.87,1.47-3.26,3.1-.66,2.73-.58,5.52.09,8.26.37,1.54.93,3.12,2.94,2.84,2.01-.29,2.65-1.75,2.55-3.67-.07-1.25-.01-2.51-.01-3.76Z"/>
      <path class="cls-8" d="m78.53,224.68c-6.9-.1-13.19-.39-19.18-2.42-2.29-.77-3.26-.52-3.64,1.88-.15.94-.59,1.85-.96,2.75-.39.92-.9,1.92-2.11,1.48-1.1-.4-1.24-1.38-.84-2.43,3.09-7.98,2.23-15.55-2.38-22.73-.57-.89-.78-1.88.43-2.46,1.14-.55,1.82.16,2.38,1.04,2.25,3.57,4.35,7.31,3.91,11.66-.36,3.51,1.16,5.03,4.22,5.85,10.42,2.78,20.87,2.89,31.45.96,2.19-.4,2.21-1.8,2.49-3.22.87-4.45,2.55-8.53,5.42-12.06.6-.73,1.21-2.15,2.62-.95,1.2,1.03.55,1.96-.17,2.88-4.29,5.46-5.45,11.75-4.97,18.49.08,1.16.6,2.79-1.23,3.03-1.85.24-1.87-1.54-1.88-2.62-.03-2.56-1.46-2.65-3.29-2.2-4.24,1.04-8.59.75-12.26,1.07Z"/>
      <path class="cls-8" d="m332.85,232.7c-4.31,6.64-8.16,8.88-12.86,7.65-4.31-1.13-6.71-5.81-6.9-13-.13-4.93.55-9.71,2.06-14.36,2.99-9.21,10.89-11.18,17.7-4.39,1.22,1.22,1.74,1.24,2.79-.06,2.83-3.51,6.55-4.95,10.75-3.05,4.14,1.87,5.74,5.57,6.28,10.07.51,4.25-.36,8.4-.1,12.62.4,6.36-2.83,11.02-7.89,12.16-5.4,1.22-8.61-.81-11.84-7.64Zm-3.05-4.25c-5.38.34-6.79-.51-7.87-5.61-1.16-5.52-.54-10.76,4.19-15.05-2.88-.31-4.91.58-6.11,2.61-4.09,6.88-5.4,14.24-3.12,22.03.66,2.25,1.59,4.88,4.12,5.19,2.55.32,5.08-.86,6.8-3.04,1.3-1.64,2.24-3.49,2.51-5.62.05-.32.25-.84.13-.93-.41-.3-.58.07-.67.43Zm19.12-.75c-5.79,1.26-8.16-.14-9.53-5.95-1.1-4.68-.05-9.09,2.94-13.05-2.47-.58-3.57.78-4.44,2.2-4.54,7.38-3.88,15.19-.96,22.76,1.74,4.5,4.42,5.16,8.59,3.03,3.7-1.89,4.02-5.3,3.4-8.99Zm-24.03-8.19c0,.56-.02,1.12,0,1.67.09,1.84.14,3.9,2.54,4.11,2.18.19,3.04-1.57,3.71-3.35,1.09-2.92.69-5.9.44-8.88-.12-1.4-.76-2.51-2.16-2.68-1.33-.16-2.43.62-3.01,1.85-1.09,2.29-1.67,4.72-1.52,7.28Zm24.34-1.95c-.39-2.63.59-6.53-3.3-6.53-3.35,0-3.38,3.71-3.29,6.22.11,2.9-1.11,7.62,3.29,7.65,4.18.03,2.77-4.56,3.29-7.33Z"/>
      <path class="cls-8" d="m333.19,251.93c-3.6.62-5.65-1.25-7.19-3.98-.48-.85-.29-1.6.44-2.21.86-.72,1.61-.31,2.09.44,2.25,3.43,4.88,4.36,8.24,1.46.65-.56,1.29-.3,1.84.19.8.71.58,1.49,0,2.18-1.47,1.74-3.34,2.42-5.43,1.93Z"/>
      <path class="cls-3" d="m211.16,186.25c-.43,1.95-1.77,2.16-3.72,1.68-4.93-1.23-9.77-1.43-14.28,1.57-1.37.91-2.95,1.14-4.11-.39-1.03-1.35-.86-2.9-.05-4.31,1.52-2.63,4.38-3.2,6.85-4.44,2.56-1.29,4.66-2.32,7.35-.05,1.51,1.28,3.83,1.56,5.68,2.5,1.22.62,2.41,1.51,2.28,3.44Z"/>
      <path class="cls-3" d="m217.67,200.86c.06,3.46-2.55,4.4-5.09,5.4-.84.33-1.72.23-2.17-.56-.53-.96.36-1.6,1-1.92,2.06-1.03,4.2-1.9,6.31-2.82l-.06-.09Z"/>
      <path class="cls-3" d="m182.4,203.6c1.75.35,3.36.63,4.94,1,.82.19,2.26-.08,1.83,1.49-.28,1.03-1.38,1.47-2.33,1.34-2.16-.28-3.85-1.31-4.45-3.83Z"/>
      <path class="cls-3" d="m217.73,200.95c.16-.16.33-.32.49-.48.01.12.02.25.03.37-.19,0-.39.01-.58.02,0,0,.06.09.06.09Z"/>
      <path class="cls-7" d="m201.8,99.55c-.04,2.76.38,5.59-1.06,8.17-1.13,2.03-2.49,3.73-5.13,3.59-1.62-.09-2.59-1.07-2.95-2.51-.59-2.36-.93-4.96,1.41-6.46,3.18-2.05,3.76-3.19-.27-4.98-2.11-.94-1.58-3.62-1.17-5.7.37-1.86,1.54-2.88,3.45-3.05,2.24-.2,3.63.98,4.68,2.8,1.48,2.58,1.03,5.39,1.04,8.15Z"/>
      <path class="cls-7" d="m221.04,102c.04,2.24.2,4.54-1.02,6.52-1.41,2.3-3.39,4.14-6.17,2.5-2.76-1.63-2.58-4.31-1.26-6.91.37-.72.92-1.48,1.59-1.88,2.67-1.62,3.33-2.72-.2-4.28-2.09-.92-2.27-3.35-1.72-5.5.42-1.64,1.06-3.52,3.06-3.48,2.16.04,3.35,1.83,4.19,3.64,1.38,2.98,1.63,6.17,1.53,9.4Z"/>
      <path class="cls-4" d="m207.74,92.57c2.98,5.48,2.72,10.13.92,15.09-.98,2.7,2.95,6.88,6.14,7.05,1.47.08,2.96-.26,4.6-.43-1.29,2.96-3.59,4.14-6.61,3.9-3.04-.24-4.55-2.25-5.36-5.01-1.95-6.67-2.14-13.28.31-20.6Z"/>
      <path class="cls-4" d="m198.75,115.05c-2.06,2.88-4.49,3.81-7.19,2.85-2.43-.86-3.27-3.05-4.07-5.62-1.75-5.64.2-10.73,1.19-15.88,1.79,1.99,2.43,3.48.84,6.67-2.91,5.87,1.22,10.82,9.23,11.97Z"/>
      <path class="cls-7" d="m479.69,158.41c-.97-.06-1.95-.07-2.91-.2-2.12-.27-4.97.43-5.96-1.82-.96-2.19,1.19-4.13,2.41-5.9,3.05-4.43,7.05-7.85,11.92-10.18.92-.44,1.91-1.64,2.95-.83,1.24.96.91,2.51.62,3.89-.08.4-.41.74-.5,1.14-.44,1.82-4.14,1.86-2.77,4.37,1.17,2.16,3.28-.2,4.97.24,1.89.49,4.22.72,4.83,2.74.66,2.19-1.78,2.84-3.15,3.76-3.74,2.51-8.03,2.94-12.41,2.78Z"/>
      <path class="cls-7" d="m437.32,140.64c4.32-.31,8.19.82,12.02,2.07.8.26,2.32.2,2.14,1.51-.17,1.3-1.52,1.36-2.63,1.43-.56.03-1.11.01-1.67,0-1-.03-2.06-.03-2.45,1.11-.42,1.25.67,1.68,1.45,2.2,2.73,1.8,4.71,4.01,3.93,7.57-.4,1.81-1.19,2.81-3.54,2.07-7.05-2.22-11.71-6.54-13.89-13.72-1.01-3.33-.5-4.75,3.16-4.24.55.08,1.11.01,1.46.01Z"/>
      <path class="cls-4" d="m452.42,159.02c.83-2.59.76-4.92.34-7.24-.26-1.42-2.58-2.38,0-4.35,2.49-1.9,4.1-1.89,6.45-.22,2.28,1.61,4.53,3.25,6.27,5.41,1.95,2.42,1.16,4.62-1.8,5.55-1.02.32-2.04.77-3.08.82-2.62.12-5.26.04-8.18.04Z"/>
      <path class="cls-4" d="m498.23,149.84c-2.36-2.31-4.53-3.59-7.21-3.57.23-.95.54-1.69.57-2.44.27-7.02.47-7.16,7.63-8.11,1.94-.26,2.36.34,2.33,2.14-.05,4.08-1.86,7.57-3.32,11.98Z"/>
      <path class="cls-2" d="m464.71,146.47c-4.11-2.26-8-5.03-12.53-6.39-2.51-.75-1.85-2.56-1.58-4,.43-2.3,2.1-.65,2.92-.38,5.45,1.77,10.19,4.4,11.12,10.86l.07-.09Z"/>
      <path class="cls-6" d="m473.1,144.88c.5-4.46,3.56-6.71,8.03-9.37-1.34,5.37-5.56,6.59-8.09,9.29l.06.08Z"/>
      <path class="cls-6" d="m444.62,134.85c1.59-.16,2.53-.05,2.53,1.6,0,1.59-.82,2.02-2.07,1.58-1.34-.47-3.77-.04-3.78-1.66-.02-1.89,2.35-1.18,3.32-1.53Z"/>
      <path class="cls-2" d="m464.64,146.56c.19.02.38.03.57.05-.06.15-.13.3-.19.44-.1-.19-.2-.38-.3-.58l-.07.09Z"/>
      <path class="cls-6" d="m473.04,144.8c-.12.18-.24.37-.36.55-.05-.15-.1-.31-.15-.46.19,0,.38,0,.57-.01,0,0-.06-.08-.06-.08Z"/>
      <path class="cls-2" d="m544.26,119.29c-1.29-1.28-2.84-1.95-3.16-3.5-.23-1.11,4.14-4.64,5.16-4.31,1.08.35,1.53,1.26,1.15,2.3-.71,1.98-1.42,4.01-3.16,5.5Z"/>
      <path class="cls-2" d="m385.4,117.07c-1.18,1.12-1.04,3.72-2.79,3.21-2.04-.59-3.85-2.31-4.06-4.79-.14-1.55,1.13-1.85,2.27-1.62,1.91.39,3.48,1.4,4.58,3.2Z"/>
      <path class="cls-5" d="m375.76,80.12c4.92-.87,9.39-3.26,14.45-2.29,1.74.33,3.43.86,3.89,2.64.59,2.28-1.41,2.05-2.83,2.54-2,.69-1.16,2.07-.5,3.38.54,1.08,1.54,2.35.38,3.42-1.3,1.19-2.85.57-4.25-.16-2-1.05-3.6-2.6-5.14-4.21-1.82-1.9-3.09-4.4-6-5.32Z"/>
      <path class="cls-5" d="m377.37,77.21c-.76-3.8-1.65-6.82-1.48-10.06.09-1.62.61-2.91,1.4-4.22.6-1,1.29-2.01,2.57-1.61,1.1.34,1.1,1.51,1.01,2.49-.35,3.64.96,3.83,3.73,2.05,1.24-.79,3.02-2.45,4.36-.58,1.08,1.51-.23,3.16-1.27,4.49-.51.65-1.01,1.37-1.68,1.82-2.72,1.84-5.5,3.58-8.64,5.61Z"/>
      <path class="cls-5" d="m368.39,80.31c-2.6.18-4.95-.59-7.14-1.92-.73-.44-1.5-.91-1.43-1.88.08-1.06.99-1.28,1.82-1.33,3.72-.2,4.85-1.35,1.71-4.29-.86-.8-1.37-1.92-.65-3,.87-1.3,2.19-.85,3.4-.45,3.67,1.2,7.71,6.6,8.05,10.53.1,1.17-.43,1.3-1.27,1.62-1.47.57-2.94.81-4.49.72Z"/>
      <path class="cls-5" d="m375.88,82.03c0,3.49.17,6.68-.07,9.84-.12,1.6-.77,3.5-2.93,3.42-2.23-.08-1.33-1.77-1.42-3.09-.13-1.96-1.3-2.25-2.86-1.12-1.28.94-2.82,1.95-4,.3-1.29-1.81-.12-3.44,1.32-4.7,2.79-2.43,6.21-3.48,9.95-4.66Z"/>
      <path class="cls-4" d="m72.89,205.25c-1.81,3.07-4.22,4.49-7.43,3.95-2.97-.5-3.68-3.05-4.31-5.53-1.87-7.33-.68-14.26,2.8-20.85,1.91-3.62,5.3-3.01,8.45-2.62,1.07.13,1.95,1.23,2.01,2.4.05,1.04-1.25,1.13-1.82,1.25-3.76.83-5.13,3.4-5.94,6.87-.77,3.32-.86,6.68-.31,9.87.52,3.03,3.03,4.77,6.56,4.66Z"/>
      <path class="cls-4" d="m93.02,204.59c-.77,3.22-3.08,4.44-6.01,4.67-3.01.23-4.92-1.22-5.92-4.13-2.32-6.76-2.21-13.53-.01-20.23.96-2.92,3.1-5,6.44-5.04,2.68-.03,4.33,1.5,5.17,4.03-5.97.42-8.86,3.17-8.93,8.44-.13,10.55.45,11.34,9.26,12.27Z"/>
      <path class="cls-7" d="m76.3,193.58c-.25,1.4-.43,3.34-.98,5.17-.48,1.64-1.58,3.09-3.49,3.05-2.05-.04-2.73-2-3.01-3.45-.7-3.65.73-7.01,2.37-10.19.51-.99,1.63-1.58,2.84-1.3,1.23.28,1.74,1.34,1.92,2.46.2,1.22.21,2.47.34,4.25Z"/>
      <path class="cls-7" d="m92.98,194.15c0,1.25-.06,2.51.01,3.76.11,1.92-.54,3.38-2.55,3.67-2,.28-2.56-1.3-2.94-2.84-.66-2.74-.75-5.53-.09-8.26.4-1.63,1.11-3.42,3.26-3.1,2.11.31,2.35,2.06,2.3,3.85-.03.97,0,1.95,0,2.93Z"/>
      <path class="cls-4" d="m330.33,228.95c-.27,2.13-1.22,3.98-2.52,5.62-1.72,2.18-4.25,3.36-6.8,3.04-2.53-.31-3.46-2.94-4.12-5.19-2.28-7.79-.97-15.15,3.12-22.03,1.2-2.03,3.23-2.91,6.11-2.61-4.73,4.29-5.35,9.53-4.19,15.05,1.07,5.11,2.49,5.95,7.87,5.61.17.18.35.34.53.5Z"/>
      <path class="cls-4" d="m348.91,227.7c.62,3.69.31,7.1-3.4,8.99-4.17,2.13-6.85,1.46-8.59-3.03-2.92-7.57-3.58-15.38.96-22.76.87-1.42,1.97-2.78,4.44-2.2-2.99,3.97-4.05,8.37-2.94,13.05,1.37,5.8,3.74,7.21,9.53,5.95Z"/>
      <path class="cls-7" d="m324.89,219.51c-.17-2.57.41-4.99,1.5-7.28.58-1.23,1.68-2.01,3.01-1.85,1.4.17,2.04,1.29,2.16,2.68.26,2.98.66,5.96-.44,8.88-.66,1.77-1.53,3.53-3.71,3.35-2.39-.2-2.45-2.26-2.54-4.11-.03-.56,0-1.11,0-1.67Z"/>
      <path class="cls-7" d="m349.22,217.55c-.52,2.77.88,7.36-3.29,7.33-4.4-.03-3.18-4.74-3.29-7.65-.09-2.51-.06-6.22,3.29-6.22,3.89,0,2.91,3.9,3.3,6.53Z"/>
      <path class="cls-4" d="m329.8,228.45c.09-.36.26-.74.67-.43.12.09-.08.61-.13.93-.18-.16-.36-.32-.53-.5Z"/>
    </g>
  </g>
</svg>