<?xml version="1.0" encoding="UTF-8"?>
<svg id="_레이어_2" data-name="레이어 2" xmlns="http://www.w3.org/2000/svg" viewBox="0 0 219.02 248.07">
  <defs>
    <style>
      .cls-1 {
        fill: #ec6978;
      }

      .cls-2 {
        fill: #fff;
      }

      .cls-3 {
        fill: #86d41f;
      }

      .cls-4 {
        fill: #cb587d;
      }

      .cls-5 {
        fill: #21f993;
      }

      .cls-6 {
        fill: #080706;
      }
    </style>
  </defs>
  <g id="_레이어_1-2" data-name="레이어 1">
    <g>
      <path class="cls-6" d="m63.56,39.3c4.92,1.5,9.75,2.42,14.7-.21.94-.5,3.36-.05,1.81,2.43-1.86,2.98-.91,4.76,2.31,5.91,11.89,4.24,20.58,12.84,28.37,22.19,3.13,3.76,5.58,8.41,7.46,13.14.29.73.23,1.75,1.46,2.1,1.39-4.95,1.05-10.14,2.6-15.1,2.49-7.98,6.53-14.92,12.39-20.7,7.59-7.49,16.58-12.47,27.16-14.69,26.11-5.47,47.22,12.18,53.24,35.62,2.37,9.22,3.74,18.51,3.93,27.89.19,9.37-.67,18.7-2.85,27.99-2.1,8.95-4.58,17.71-7.88,26.24-1.7,4.4-3.85,8.63-5.74,12.96-4.75,10.88-12.19,20.24-17.38,30.85-5.71,11.66-11.87,23.12-16.47,35.31-1.36,3.61-2.93,7.21-4.93,10.51-4.15,6.85-13.87,8.46-19.89,3.28-7.8-6.71-16.21-12.56-25.02-17.75-10.3-6.06-20.91-11.61-31.48-17.2-17.11-9.04-34.3-18.11-48.59-31.46-7.34-6.87-14.2-14.15-19.77-22.75-6.43-9.93-11.56-20.29-15.08-31.52C-.06,111.69-1.15,98.89,1.3,85.79c.65-3.5,2.4-6.93,2.55-10.18.21-4.45,3.08-7.1,4.47-10.65,1.46-3.74-.05-7.38-.92-10.99-1.73-7.19-3.4-14.39-5.03-21.6-1.09-4.81-.85-9.31-.31-13.95C3.83,3.2,17.39-2.76,30.62,1.18c10.5,3.12,16.63,10.77,22.51,18.87,3.62,4.98,6.48,10.51,9.67,15.8.64,1.06,1.11,2.2.79,3.49-2.43.54-2.84-1.46-3.63-2.93-4.98-9.22-10.47-18.08-18.05-25.46-5.83-5.67-11.27-7.88-18.02-7.42,9.53,4.92,15.34,13.21,20.43,22.13,4.13,7.24,8.27,14.45,13.29,21.13,2.14,2.85,4.6,4.45,8.17,3.84,4.58-.78,8.53-2.52,10.74-7.3-2.96-.04-5.63,1.41-7.99.27-1.91-.92-5.77-.13-4.97-4.32Zm-18.65,17.43c.14.15.28.3.43.45.03-.11.05-.22.08-.34-.19-.02-.38-.03-.56-.05.72-1.26-.36-2.08-.81-3.01-1.87-3.93-3.83-7.81-5.75-11.72-4.9-9.92-9.25-20.13-15.35-29.43-1.97-3-4.22-5.76-7.85-7.62.15,6.87,1.83,13.05,3.89,19.17,4.28,12.74,10.54,24.72,14.47,37.59,1.07,3.51,2.77,3.97,5.53,1.49,1.38-1.24,2.15-2.85,2.07-4.63-.17-3.79,1.38-3.69,3.86-1.92Zm170.72,56.7c.28-2.89.28-8.09.44-13.29.41-13.41-1.52-26.44-7.11-38.53-8.67-18.78-21.8-25.83-39.13-25.11-19.1.8-33.49,10.59-42.06,27.82-6.1,12.26-5.83,25.23-2.29,38.25.37,1.37,2.09,3.47-.07,4.12-2.44.73-2.12-2.07-2.62-3.54-1.38-4-2.51-8.08-4.01-12.03-7.28-19.25-19.59-33.88-38.85-42.1-1.76-.75-3.02-.97-4.63.52-3.38,3.13-7.57,4.31-12.11,3.47-1.98-.37-2.7.18-3.51,1.94-2.63,5.71-7.83,7.91-13.87,5.86-1.7-.58-1.97.1-2.6,1.3-2.63,5-7.84,7.15-13.08,5.32-1.01-.35-1.56-.6-2.08.38-3.8,7.06-10.25,7.58-17.08,6.69-2.5-.33-3.39.48-4.31,2.65-4.35,10.31-4.47,20.96-2.89,31.76,4.63,31.6,21.42,55.75,46.17,74.93,12.94,10.02,27.53,17.34,41.87,25.04,18.82,10.12,37.94,19.76,54.32,33.8,1.24,1.06,2.67,1.77,4.31,2.09,5.57,1.1,10-1.31,12.4-7.07,9.23-22.18,19.8-43.65,32.16-64.3,10.64-17.76,17.48-37.09,20.63-59.99ZM21.84,6.32c4.02,5.17,6.92,10.03,9.45,15.12,5.81,11.68,11.61,23.36,17.48,35.01.46.92.7,2.63,2.01,2.37,2.45-.48,4.56-1.74,5.93-4.04,1.11-1.86.96-3.35-.41-5.07-5.66-7.14-10.21-15-14.61-22.95-3.21-5.81-6.98-11.2-11.9-15.71-2.06-1.89-4.19-3.75-7.96-4.73Zm8.99,57.86C25.75,45.54,15.49,29.07,12.31,9.29c-.53,4.46-1.64,8.1-1.23,11.57.96,8.24,2.88,16.32,5.59,24.23,2.75,8.03,4.9,16.26,5.19,24.97,2.75-.79,3.62-2.96,3.86-4.6.66-4.51,2.33-3.84,5.11-1.26Zm-22.57,6.68c2.63,1.09,4.88,1.05,7.1,1.16,2.91.15,4.17-.76,3.79-4.11-.85-7.47-2.87-14.63-5.08-21.76-3.64-11.75-7.15-23.51-4.85-37-4.21,4.89-4.8,9.89-4.51,14.96.59,10.36,3.32,20.34,6.06,30.29,1.6,5.8,1.97,11.26-2.52,16.46ZM22.09,6.38c-.08-.17-.11-.44-.23-.49-.18-.07-.49-.08-.64.03-.63.45.09.48.25.58.12.08.39-.07.61-.13Z"/>
      <path class="cls-1" d="m215.63,113.43c-3.14,22.9-9.99,42.23-20.63,59.99-12.36,20.65-22.92,42.12-32.16,64.3-2.4,5.76-6.83,8.17-12.4,7.07-1.64-.32-3.08-1.03-4.31-2.09-16.39-14.04-35.5-23.68-54.32-33.8-14.34-7.71-28.93-15.02-41.87-25.04C25.19,164.68,8.39,140.53,3.77,108.92c-1.58-10.8-1.47-21.45,2.89-31.76.92-2.18,1.81-2.98,4.31-2.65,6.83.89,13.28.37,17.08-6.69.53-.98,1.07-.73,2.08-.38,5.24,1.84,10.45-.32,13.08-5.32.64-1.21.9-1.88,2.6-1.3,6.04,2.05,11.24-.15,13.87-5.86.81-1.76,1.53-2.31,3.51-1.94,4.53.84,8.72-.34,12.11-3.47,1.61-1.49,2.87-1.27,4.63-.52,19.26,8.22,31.57,22.85,38.85,42.1,1.49,3.95,2.63,8.04,4.01,12.03.51,1.47.18,4.27,2.62,3.54,2.16-.65.44-2.76.07-4.12-3.54-13.02-3.81-26,2.29-38.25,8.57-17.23,22.96-27.02,42.06-27.82,17.33-.72,30.46,6.33,39.13,25.11,5.58,12.09,7.52,25.12,7.11,38.53-.16,5.2-.16,10.4-.44,13.29Zm-101.48,37.71c-3.57.68-6.78,1.23-9.11-2.37-.77-1.2-2.42-3.66-4.05-1.96-1.85,1.92,1.21,2.66,2.17,3.81,1.16,1.39,1.92,2.08-.5,3.03-2.05.81-3.11.25-4.44-1.18-.97-1.04-2.05-3.46-3.72-1.96-1.91,1.72.81,2.55,1.64,3.67.35.47,1.05.69,1.63,1.05-2.16,1.81-4.1,1.87-5.77,2.59-.98.42-2.45.56-1.82,2.17.48,1.21,1.53,1.03,2.52.53,2.59-1.32,3.5-.21,4.35,2.35,4.75,14.34,16.19,20.05,30.63,15.46,2.13-.68,4.21-1.5,6.3-2.31,1.16-.45,2.28-.87,3.59-.63,4.48.81,8.88-.03,13.2-1.05,10.92-2.57,16.83-9.26,18.15-20.22q.77-6.46,7.42-7.02c.37-.03.75-.05,1.12-.04.98.05,1.85-.3,1.9-1.31.04-.99-.99-.89-1.69-1.02-.61-.12-1.24-.15-1.84-.29-2.06-.47-4.76,1.31-6.03-.2-1.32-1.57.5-3.95.96-5.98.18-.81-.03-1.57-.82-1.87-1.09-.42-1.72.44-1.94,1.23-.48,1.65-1.59,3.09-1.52,4.92.03.69-.02,1.96-.67,1.9-1.7-.16-3.5-.5-4.99-1.3-1.14-.6-.09-2.04-.12-3.1-.03-1.58,2.03-4.01-.28-4.52-2.13-.47-1.94,2.57-2.6,4.16-.05.11-.05.24-.05.37-.22,4.81-4.05,2.83-6.42,3.23-2.72.45-1.1-2.08-1.62-3.16-.48-1.01.09-2.79-1.83-2.5-1.32.2-1.81,1.74-1.36,2.69,1.75,3.69-.59,4.76-3.3,5.85-1.01.41-1.85,1.24-2.78,1.87-4.36,2.99-6.23,7.69-8.08,12.57-3.3-4.56-6.28-6.72-11.78-8.43-1.98-.62-3.45-1.45-4.34-3.56-.75-1.78-2.21-3.28-3.43-4.84-.67-.85-1.63-1.32-2.56-.38-.86.87-.08,1.58.49,2.23,1.39,1.58,2.81,3.14,3.39,5.49ZM31.65,113.63c.57,1.9.93,3.22,1.36,4.52.85,2.55,2.55,4.36,5.22,4.81,4.56.77,5.37-5.18,9.57-5.54,1.39-.12,1.63-2.31,1.75-3.83.27-3.65-2.53-5.18-5.15-6.83,1.4-.99,2.57-1.71,3.63-2.57,4.2-3.42,4.11-5.91-.5-8.74-1.05-.64-.87-1.29-.91-2.12-.25-4.75-3.22-6.42-7.58-4.34-2.45,1.17-3.85,3.46-5.63,5.19-.75-1.76-1.26-3.6-2.23-5.15-2.69-4.31-7.44-4.26-9.52.27-.73,1.59-1.71,1.53-2.74,1.75-4.17.91-5.47,3.81-3.34,7.55,1.16,2.04,3.26,3.02,5.03,4.61-1.1.46-2.12.82-3.09,1.29-5.38,2.57-5.97,6.8-1.33,10.49.87.69.85,1.36,1,2.17.87,4.65,4.07,6.08,8.14,3.65,2.74-1.64,4.35-4.34,6.35-7.18Zm104.16,77.41c4.45.57,10.06-2.03,12.07-5.84.4-.75,1.05-1.58.15-2.33-.76-.64-1.44-.42-2.23.34-6.65,6.32-7.17,6.4-15.53,2.44-.89-.42-1.63-.73-2.24.23-.59.93-.09,1.6.69,2.17,2.02,1.48,4.15,2.7,7.09,2.99Z"/>
      <path class="cls-3" d="m44.91,56.73c-2.48-1.77-4.03-1.87-3.86,1.92.08,1.78-.69,3.39-2.07,4.63-2.75,2.48-4.46,2.01-5.53-1.49-3.93-12.87-10.18-24.85-14.47-37.59-2.06-6.12-3.74-12.3-3.89-19.17,3.63,1.86,5.88,4.62,7.85,7.62,6.1,9.29,10.45,19.5,15.35,29.43,1.93,3.9,3.88,7.79,5.75,11.72.44.93,1.53,1.75.81,3.01l.06-.07Z"/>
      <path class="cls-3" d="m63.56,39.3c-.81,4.19,3.06,3.4,4.97,4.32,2.36,1.14,5.03-.31,7.99-.27-2.2,4.79-6.16,6.53-10.74,7.3-3.56.6-6.03-.99-8.17-3.84-5.02-6.69-9.16-13.9-13.29-21.13-5.09-8.92-10.9-17.21-20.43-22.13,6.75-.46,12.19,1.74,18.02,7.42,7.57,7.37,13.06,16.24,18.05,25.46.8,1.47,1.2,3.47,3.63,2.93,0,0-.03-.04-.03-.04Z"/>
      <path class="cls-2" d="m21.84,6.32c3.77.98,5.9,2.84,7.96,4.73,4.92,4.5,8.69,9.9,11.9,15.71,4.39,7.95,8.95,15.81,14.61,22.95,1.37,1.72,1.52,3.21.41,5.07-1.37,2.31-3.48,3.56-5.93,4.04-1.31.26-1.55-1.46-2.01-2.37-5.87-11.65-11.67-23.33-17.48-35.01-2.53-5.08-5.42-9.95-9.45-15.12Z"/>
      <path class="cls-2" d="m30.83,64.19c-2.78-2.58-4.45-3.26-5.11,1.26-.24,1.64-1.11,3.82-3.86,4.6-.29-8.71-2.44-16.94-5.19-24.97-2.71-7.91-4.63-15.98-5.59-24.23-.41-3.47.71-7.11,1.23-11.57,3.17,19.79,13.44,36.26,18.52,54.9Z"/>
      <path class="cls-3" d="m8.26,70.86c4.49-5.2,4.12-10.66,2.52-16.46-2.74-9.94-5.47-19.92-6.06-30.29-.29-5.07.3-10.07,4.51-14.96-2.3,13.48,1.2,25.25,4.85,37,2.21,7.13,4.23,14.28,5.08,21.76.38,3.35-.89,4.26-3.79,4.11-2.22-.12-4.47-.08-7.1-1.16Z"/>
      <path class="cls-2" d="m22.09,6.38c-.22.05-.49.2-.61.13-.16-.1-.88-.13-.25-.58.15-.11.45-.1.64-.03.12.05.15.31.23.49Z"/>
      <path class="cls-3" d="m44.85,56.8c.19.02.38.03.56.05-.03.11-.05.22-.08.34-.14-.15-.28-.3-.43-.45,0,0-.06.07-.06.07Z"/>
      <path class="cls-6" d="m114.15,151.14c-.58-2.35-2-3.91-3.39-5.49-.57-.65-1.35-1.36-.49-2.23.92-.94,1.89-.47,2.56.38,1.23,1.56,2.68,3.06,3.43,4.84.89,2.11,2.36,2.94,4.34,3.56,5.49,1.71,8.48,3.86,11.78,8.43,1.85-4.88,3.72-9.57,8.08-12.57.92-.63,1.76-1.47,2.78-1.87,2.72-1.09,5.05-2.16,3.3-5.85-.45-.95.04-2.48,1.36-2.69,1.92-.29,1.34,1.49,1.83,2.5.51,1.07-1.1,3.61,1.62,3.16,2.37-.39,6.2,1.59,6.42-3.23,0-.12,0-.26.05-.37.67-1.59.47-4.62,2.6-4.16,2.31.51.25,2.94.28,4.52.02,1.06-1.02,2.49.12,3.1,1.49.79,3.29,1.13,4.99,1.3.65.06.7-1.21.67-1.9-.07-1.84,1.04-3.27,1.52-4.92.23-.79.86-1.65,1.94-1.23.8.3,1,1.06.82,1.87-.45,2.03-2.27,4.41-.96,5.98,1.27,1.51,3.96-.27,6.03.2.61.14,1.23.17,1.84.29.7.13,1.73.03,1.69,1.02-.04,1.01-.91,1.35-1.9,1.31-.37-.02-.75,0-1.12.04q-6.65.56-7.42,7.02c-1.31,10.96-7.23,17.65-18.15,20.22-4.32,1.02-8.72,1.86-13.2,1.05-1.32-.24-2.43.18-3.59.63-2.09.8-4.17,1.63-6.3,2.31-14.44,4.58-25.88-1.12-30.63-15.46-.85-2.55-1.76-3.66-4.35-2.35-.99.5-2.04.68-2.52-.53-.64-1.61.84-1.76,1.82-2.17,1.67-.71,3.61-.78,5.77-2.59-.58-.35-1.28-.57-1.63-1.05-.83-1.12-3.56-1.96-1.64-3.67,1.68-1.51,2.76.92,3.72,1.96,1.33,1.43,2.39,1.99,4.44,1.18,2.41-.95,1.66-1.64.5-3.03-.96-1.15-4.01-1.89-2.17-3.81,1.63-1.7,3.28.76,4.05,1.96,2.32,3.6,5.53,3.05,9.11,2.37Zm.54,26.25c6.15.13,11.14-1.15,16-3.07,2.99-1.18,3.28-2.43,1.11-4.87-4.25-4.77-9.46-8.01-15.74-9.36-1.11-.24-2.6-1.41-3.38-.01-.83,1.49-.04,3.12.91,4.52,1.01,1.49,4.19,1.65,3.67,3.43-.59,2.01-3.58.93-5.34,1.78-1.61.77-3.32,1.65-3.39,3.61-.06,1.67,1.8,1.83,2.92,2.45,1.27.7,2.5,1.64,3.24,1.52Zm51.95-23.28c.6-5.43-.09-6.01-5.22-4.49-3.94,1.17-7.72,2.74-11.21,4.9-.77.48-2.19.89-1.9,1.98.34,1.24,1.77,1.04,2.86.99.61-.03,1.22-.2,1.82-.35.86-.23,1.84-.56,2.41.28.71,1.07-.24,1.84-.91,2.52-1.93,1.96-3.22,4.11-2.39,6.99.75,2.59,1.87,3.85,4.76,2.09,5.68-3.45,9.07-8.26,9.78-14.9Zm-16.55,6.6c-1.32-.58-2.66-.97-3.76-1.72-1.06-.73-1.7-.54-2.55.22-2.7,2.4-5.2,4.95-6.78,8.26-1.42,2.97-.18,5.24,3.13,5.11,3.56-.14,7.22.14,10.82-1.38-1.96-3.36-3.15-6.84-.86-10.49Zm-38.55,6.08c-1.22-2.2-2.83-4.02-2.03-6.63.18-.59.13-1.33-.63-1.51-3.18-.78-6.31.13-9.43.46-.83.09-.33,1.24-.12,1.9,1.27,4.01,3.09,7.69,6.43,10.83,1.3-2.48,3.35-3.82,5.77-5.05Zm24.13-3.33c3.8-4.91,7.75-8.2,12.1-11.01,1.86-1.2.63-2.73.2-3.94-.62-1.77-1.84-.51-2.69-.08-5.73,2.87-8.78,7.58-9.62,15.03Zm-16.48-8.19c1.64,4.45,6.57,4.36,9.69,6.84-2.07-3.8-5.14-6.26-9.69-6.84Zm37.66-7.59c.29-1.31-.26-1.83-1.09-1.67-1.66.33-3.83-.64-4.84,1.4-.35.7-.06,2.48.94,2.33,1.82-.26,3.66-.99,5-2.06Zm-47.49,7.64c2.79.44,4.54,1.31,6.47.59.1-.04.11-.84-.07-.98-1.77-1.38-3.59-.83-6.4.39Z"/>
      <path class="cls-6" d="m31.65,113.63c-2,2.84-3.61,5.54-6.35,7.18-4.06,2.43-7.27,1-8.14-3.65-.15-.81-.14-1.48-1-2.17-4.64-3.69-4.05-7.93,1.33-10.49.97-.46,1.99-.83,3.09-1.29-1.78-1.59-3.87-2.57-5.03-4.61-2.13-3.74-.82-6.64,3.34-7.55,1.03-.22,2.01-.16,2.74-1.75,2.08-4.53,6.84-4.58,9.52-.27.97,1.55,1.49,3.39,2.23,5.15,1.78-1.72,3.18-4.02,5.63-5.19,4.36-2.08,7.33-.4,7.58,4.34.04.83-.14,1.48.91,2.12,4.61,2.83,4.7,5.32.5,8.74-1.05.86-2.22,1.58-3.63,2.57,2.62,1.65,5.42,3.18,5.15,6.83-.11,1.52-.36,3.71-1.75,3.83-4.21.36-5.01,6.31-9.57,5.54-2.67-.45-4.36-2.26-5.22-4.81-.43-1.29-.79-2.62-1.36-4.52Zm2.25-8.47c-3.23.82-6.5.53-9.78.51-2.33-.01-4.66.67-6.64,2.07-1.06.75-1.8,1.79-1.49,3.16.31,1.35,1.46,1.54,2.64,1.48,2.27-.11,2.57.94,1.66,2.75-.62,1.22-.63,2.55.43,3.4,1.07.87,2.4.45,3.43-.34,4.47-3.44,5.89-9.17,9.71-13.11,4.93.73,9.36-.34,13.11-3.72.64-.57,1.3-1.34.97-2.28-.34-.98-1.35-1.1-2.19-.94-4.39.83-4.12-.96-2.29-3.84.55-.87.66-2.02-.16-2.78-.79-.74-1.85-.51-2.82-.11-1.31.55-2.2,1.56-3.13,2.58-2.92,3.18-3,7.21-3.45,11.15Zm-13.27-11.37c-1.18-.07-2.27-.44-2.96.55-.78,1.12-.13,2.16.56,3.02,3,3.78,7.51,4.54,11.78,5.76.99.28,1.27-.5,1.24-1.32-.15-3.98-.53-7.94-2.57-11.47-.59-1.02-1.52-2.08-3.04-1.4-1.51.67-.89,1.93-.6,2.9.93,3.08.04,3.82-2.82,2.41-.54-.27-1.18-.34-1.58-.44Zm13.19,14.62c.88,3.13.68,6.56,2.27,9.62.7,1.35,1.69,2.27,3.23,1.91,1.69-.39,1.44-1.64,1.03-2.96-.52-1.64.13-2.36,1.88-1.96,1.58.36,3.56,1.64,4.28-.96.76-2.72-1.4-3.98-3.41-4.47-2.98-.71-6.1-.81-9.27-1.19Z"/>
      <path class="cls-6" d="m135.81,191.03c-2.94-.28-5.07-1.51-7.09-2.99-.78-.57-1.28-1.24-.69-2.17.61-.96,1.35-.65,2.24-.23,8.36,3.95,8.89,3.88,15.53-2.44.79-.75,1.46-.97,2.23-.34.9.75.25,1.58-.15,2.33-2.02,3.81-7.62,6.41-12.07,5.84Z"/>
      <path class="cls-5" d="m114.69,177.39c-.74.13-1.98-.82-3.24-1.52-1.12-.62-2.99-.78-2.92-2.45.07-1.96,1.78-2.84,3.39-3.61,1.77-.85,4.76.23,5.34-1.78.52-1.78-2.66-1.94-3.67-3.43-.95-1.4-1.74-3.03-.91-4.52.78-1.39,2.27-.22,3.38.01,6.28,1.35,11.48,4.59,15.74,9.36,2.17,2.44,1.88,3.69-1.11,4.87-4.86,1.91-9.86,3.2-16,3.07Z"/>
      <path class="cls-5" d="m166.64,154.11c-.71,6.64-4.11,11.45-9.78,14.9-2.89,1.76-4.01.51-4.76-2.09-.83-2.89.46-5.04,2.39-6.99.67-.68,1.62-1.46.91-2.52-.56-.84-1.55-.51-2.41-.28-.6.16-1.21.32-1.82.35-1.09.05-2.52.26-2.86-.99-.3-1.08,1.12-1.5,1.9-1.98,3.5-2.16,7.27-3.73,11.21-4.9,5.12-1.52,5.81-.94,5.22,4.49Z"/>
      <path class="cls-2" d="m150.09,160.71c-2.29,3.66-1.1,7.13.86,10.49-3.6,1.52-7.26,1.24-10.82,1.38-3.3.13-4.54-2.14-3.13-5.11,1.58-3.31,4.08-5.86,6.78-8.26.86-.76,1.5-.95,2.55-.22,1.09.75,2.44,1.14,3.76,1.72Z"/>
      <path class="cls-2" d="m111.54,166.79c-2.42,1.23-4.47,2.57-5.77,5.05-3.34-3.14-5.17-6.82-6.43-10.83-.21-.65-.71-1.81.12-1.9,3.13-.33,6.26-1.24,9.43-.46.76.19.81.92.63,1.51-.81,2.6.81,4.43,2.03,6.63Z"/>
      <path class="cls-1" d="m135.67,163.46c.84-7.46,3.88-12.16,9.62-15.03.84-.42,2.07-1.68,2.69.08.43,1.22,1.65,2.74-.2,3.94-4.35,2.81-8.3,6.09-12.1,11.01Z"/>
      <path class="cls-4" d="m119.19,155.27c4.55.59,7.62,3.05,9.69,6.84-3.12-2.48-8.05-2.4-9.69-6.84Z"/>
      <path class="cls-1" d="m156.85,147.68c-1.33,1.07-3.18,1.8-5,2.06-.99.14-1.29-1.63-.94-2.33,1.01-2.04,3.18-1.07,4.84-1.4.83-.16,1.38.36,1.09,1.67Z"/>
      <path class="cls-4" d="m109.36,155.31c2.81-1.22,4.63-1.77,6.4-.39.18.14.17.94.07.98-1.92.73-3.68-.15-6.47-.59Z"/>
      <path class="cls-3" d="m33.85,105.1c-3.82,3.94-5.24,9.67-9.71,13.11-1.03.79-2.36,1.21-3.43.34-1.05-.85-1.04-2.18-.43-3.4.92-1.81.62-2.86-1.66-2.75-1.18.06-2.32-.13-2.64-1.48-.32-1.37.43-2.41,1.49-3.16,1.98-1.4,4.31-2.08,6.64-2.07,3.28.01,6.55.31,9.78-.51l-.05-.06Z"/>
      <path class="cls-3" d="m33.9,105.16c.45-3.93.53-7.96,3.45-11.15.93-1.02,1.82-2.03,3.13-2.58.97-.41,2.02-.63,2.82.11.81.76.71,1.91.16,2.78-1.84,2.88-2.11,4.68,2.29,3.84.84-.16,1.85-.04,2.19.94.33.94-.33,1.71-.97,2.28-3.75,3.38-8.18,4.45-13.12,3.72,0,0,.05.06.05.06Z"/>
      <path class="cls-3" d="m20.63,93.79c.4.11,1.04.18,1.58.44,2.86,1.41,3.74.67,2.82-2.41-.29-.97-.91-2.23.6-2.9,1.52-.68,2.46.38,3.04,1.4,2.04,3.53,2.42,7.49,2.57,11.47.03.83-.25,1.61-1.24,1.32-4.26-1.22-8.78-1.98-11.78-5.76-.68-.86-1.34-1.9-.56-3.02.69-.99,1.78-.62,2.96-.55Z"/>
      <path class="cls-3" d="m33.83,108.41c3.17.37,6.29.48,9.27,1.19,2.02.48,4.17,1.75,3.41,4.47-.72,2.6-2.7,1.32-4.28.96-1.75-.4-2.4.32-1.88,1.96.42,1.32.66,2.57-1.03,2.96-1.53.35-2.52-.56-3.23-1.91-1.59-3.05-1.39-6.49-2.27-9.62Z"/>
    </g>
  </g>
</svg>