<?xml version="1.0" encoding="UTF-8"?>
<svg id="_레이어_2" data-name="레이어 2" xmlns="http://www.w3.org/2000/svg" viewBox="0 0 484.45 574.06">
  <defs>
    <style>
      .cls-1 {
        fill: #ec6978;
      }

      .cls-2 {
        fill: #fff;
      }

      .cls-3 {
        fill: #86d41f;
      }

      .cls-4 {
        fill: #cb587d;
      }

      .cls-5 {
        fill: #21f993;
      }

      .cls-6 {
        fill: #080706;
      }
    </style>
  </defs>
  <g id="_레이어_1-2" data-name="레이어 1">
    <g>
      <path class="cls-6" d="m257.53,130.9c5.8-13.48,10.83-25.53,16.15-37.47,8.14-18.29,18.59-35.1,31.56-50.45,12.53-14.82,27.75-25.84,45.24-33.73,17.88-8.07,36.28-10.87,56.29-8.38,14.58,1.81,27.06,7.9,38.22,15.2,9.53,6.24,15.89,17.58,21.97,28.04,8.94,15.37,12.11,32.27,15.08,49.43,2.1,12.19,3.21,24.34,1.8,36.58-3.03,26.29-8.49,51.93-18.14,76.79-14.03,36.16-34.41,68.51-56.83,99.79-1.31,1.82-2.39,3.81-3.5,5.6,3.6,3.19,8.37,3.99,12.78,4.95,4.89,1.06,10.41,1.97,13.68-4.16,1.01-1.88,3.1-3.88,5.07-4.41,4.9-1.33,10.26-4.32,14.99-.03,4.56,4.14,1.83,9.41,1.63,14.75,1.51,1.26,3.84.22,5.98.41,6.32.56,8.86,4.37,7.1,10.45-.88,3.01-2.06,5.55,2.05,8.34,5.45,3.72,2.55,9.86-6.23,14.21,4.62,7.05,2.39,12.88-5.9,14.77-2.03.46-3.79.51-5.27,2.38-4.52,5.71-12.57,6.13-17.13.81-2.21-2.58-4.81-3.25-7.86-3.07-18.4,1.1-35.97-1.64-51.97-11.39-2.49-1.52-4.45-1.3-5.96.89-6.96,10.05-15.47,18.87-22.71,28.75-5.41,7.38-11.87,14.64-18.34,21.54-3.63,3.87-6.9,8.07-10.49,11.97-2.7,2.94-1.85,6.57-1.23,9.48,2.8,12.96,2.13,26.12,2.77,39.17.26,5.34.96,10.55,1.72,15.78.83,5.68,5.75,3.3,7.73,2.39,14.54-6.7,29.5-7.62,44.92-4.48,24.34,4.95,31.31,21.42,26.54,41.61-5.46,23.09-22.38,33.97-44.47,38.7-13.39,2.87-27.28,3.07-39.73-.74-10.31-3.16-21.17-7.82-29.12-17.24-7.95-9.41-13.86-18.91-13.8-31.51.08-16.71-.15-33.42.12-50.12.09-5.56.15-10.19-7.92-8.8,1.5,13.09-1.57,26.47-1.47,40.03.06,7.52-2.37,14.74-3.71,22.1-3.59,19.72-17.73,31.73-32.11,42.96-17.93,14-53.71,15-72.67,2.72-7.81-5.06-13.84-12.39-17.33-21.21-7.4-18.7-4.17-32.51,10.76-46.79,6.45-6.17,14.97-7.47,23.11-6.81,10.68.86,21.48,2.7,31.09,8.07,3.75,2.09,4.64,1.74,5.72-2.72,2.9-11.96,4.78-23.99,6.09-36.23.71-6.66.63-13.47,2.59-20.13,2.54-8.67-1.04-16.02-7.86-21.48-11.45-9.17-23.22-17.95-34.76-27.02-6.21-4.89-12.58-9.67-18.15-15.23-3.08-3.07-4.92-3.37-8.25-.88-13.91,10.41-30.5,15.07-46.31,21.46-3.75,1.52-7.56,3.4-9.76,7.9-2.56,5.26-7.22,9.18-13.28,10.33-2.05.39-5.29,1.35-6.43-1-3.96-8.16-17.19-4.55-18.42-11.9-1.1-6.55-4.73-11.37-6.06-17.28-.45-2,.47-4.6,1.48-6.57,1.29-2.53,1.01-4.17-.52-6.62-4.52-7.26-1.56-12.52,7.25-13.63,1.25-.16,2.53-.14,4.38-.24-.56-1.48-1.05-2.53-1.37-3.63-1.29-4.42-1.16-8.55,2.31-12.13,3.84-3.96,8.53-2.69,11.83-.45,11.99,8.15,20.34-1.29,29.63-5.59,3.29-1.52.49-4.24-.96-5.23-14.94-10.19-26.15-24.38-38.59-37.08-18.03-18.4-32.52-39.69-43.04-63.52-9.22-20.89-14.83-42.78-18.59-65.12-1.43-8.51-.53-17.41-.82-26.12-.81-24.62,2.8-48.41,13.58-70.75,7.93-16.43,19.86-29.42,34.5-40.33C67.55,13.14,89.47,5.21,113.05,4.44c19.18-.63,38.31,2.63,56.52,10.49,27.79,11.99,46.52,32.75,60.96,58.47,10.07,17.94,17.95,36.87,27,57.51Zm219.61-13.52c.65-11.19-.19-23.39-2.49-35.45-2.28-11.97-7.15-22.92-12.54-33.87-8.7-17.65-21.72-30.6-39.83-37.11-35.17-12.64-67.29-2.87-95.3,18.84-24.62,19.09-39.51,46.14-51.93,74.5-4.91,11.23-6.53,23.66-13.25,34.15-1.11,1.73-1.92,3.59-4.36,3.61-2.48.02-2.63-2.3-3.27-3.71-4.94-10.97-9.78-21.98-14.46-33.06-9.15-21.64-19.72-42.51-35.95-59.76-23.63-25.13-53.12-36.1-87.46-34.8-33.69,1.28-61.99,12.97-83.74,39.93-15.25,18.9-22.39,40.49-25.62,63.88-3.4,24.55-.15,48.81,4.97,72.69,5.36,25.01,15.48,48.27,29.52,69.82,16.52,25.35,38.01,46.14,60.11,66.36,8.97,8.21,9.54,7.96,17.28-1.91,1.9-2.42,4.02-3.01,5.66-1.9,2.69,1.83.48,4.01-.98,5.67-8.56,9.78-18.62,17.65-30.68,22.56-7.16,2.91-14.57,5.8-21.94-.4-1.43-1.2-4.52-3.92-6.57-.87-1.88,2.79-.85,5.95,1.65,8.34,1.11,1.06,2.45,1.9,3.48,3.03,1.27,1.4,3.8,2.63,2.13,5.02-1.37,1.96-3.7,2.85-6.03,1.78-3.21-1.49-6.51-1.15-9.81-.97-1.22.07-2.72.28-2.85,1.93-.11,1.31.42,2.45,1.77,3.09,3.24,1.54,6.52,2.91,10.2,2.91,1.83,0,3.96.1,3.98,2.47.01,2.02-1.78,3-3.64,3.41-2.98.64-6.07.93-8.96,1.86-2.83.91-4.16,3.44-2.93,6.14,1.26,2.76,4.16,2.02,5.86.66,1.96-1.57,3.8-2.53,6.23-2.19,1.6.23,3.86-.93,4.54,1.48.65,2.32-.67,3.78-2.81,4.73-2.07.92-4.17,1.88-5.99,3.19-2.05,1.47-4.65,3.35-2.62,6.24,1.57,2.23,4.03,1.61,6.15.07.98-.72,2.35-1.03,3.11-1.91,2.01-2.32,4.64-4.28,7.3-2.71,3.63,2.15-.21,4.89-.51,7.39-.23,1.9-2.3,3.98.04,5.58,1.8,1.23,3.96.65,5.84-.43,2.47-1.41,4.45-3.01,5.52-5.99,1.28-3.55,3.92-6.64,7.42-8.09,20.5-8.5,42.44-14.27,58.21-31.49,1.5-1.64,3.29-1.31,4.96-.83,1.43.41,1.97,2.2,1.25,3.14-3.36,4.42.72,5.81,3.04,7.75,6.07,5.09,12.24,10.07,18.42,15.02,13.95,11.19,27.95,22.33,41.89,33.54,1.33,1.07,3.09,1.99,2.82,4.22-2.22,18.6-4.96,37.16-6.44,55.83-.75,9.44-8.3,18.75-1.14,28.57.8,1.09-.14,2.38-1.14,3.35-1.28,1.25-2.35.63-3.29-.28-4.59-4.43-10.58-6.68-16.03-9.53-13.3-6.96-27.86-9.15-41.63-2.65-15.66,7.38-19.24,30.87-8.86,47.93,8.73,14.35,23.57,17,37.99,19.17,15.92,2.38,30.39-3.65,43.47-12.32,12.26-8.13,20.99-19.14,25.31-33.57,5.52-18.45,6.09-37.32,6.08-56.32,0-4.55-1.79-9.87,1.02-13.49,2.98-3.86,7.47,1.98,11.44.31.22-.09.51.02.77-.02,5.24-.85,7.21,1.03,6.94,6.62-.65,13.34-.35,26.73-1.09,40.06-.54,9.87.66,19.65,2.87,28.96,2.7,11.37,11.02,19.38,21.35,24.96,14.55,7.86,29.62,9.64,46.31,7.96,20.66-2.07,35.32-10.78,44.33-29.15,6.4-13.06.31-32.78-12.36-36.92-22.8-7.45-44.64-6.22-63.37,11.13-1.75,1.62-3.5,4.71-6.27,1.93-2.52-2.53.66-4.49,1.68-6.46.78-1.51,2.36-2.56,4.23-3.1,1.13-.33,2.19-1.22.64-2.69-5.68-5.37-3.74-12.95-4.15-19.21-.98-14.72-1.08-29.48-3.35-44.13-.58-3.77-.51-7.46,2.67-11.17,14.75-17.24,29.34-34.64,43.28-52.54,19.09-24.53,38.88-48.55,55.97-74.6,17.1-26.06,34.39-51.98,46.13-81.12,12.15-30.18,21.22-60.93,19.85-95.02Zm-31.13,255.11c-.83-3.09-3.21-4.53-5.56-6.06-1.71-1.11-2.47-3.08-1.45-4.66,1.16-1.82,2.92-.89,4.7-.04,3.18,1.52,6.3,3.39,9.98,3.59,2.2.12,4.75-.59,5.01-2.51.29-2.11-1.99-3.33-4.28-3.41-2.05-.07-4.11,0-6.15-.08-2.33-.1-4.31-1.48-4.33-3.58-.03-2.62,2.53-2.63,4.58-2.62,4.4.03,8.7-.58,12.69-2.42,1.29-.6,4.23-.45,3.1-3.2-.76-1.85-2.91-2.57-4.58-1.62-3.42,1.96-7,.8-10.5,1.12-2.36.22-5.18.09-5.56-2.66-.39-2.85,2.13-3.25,4.63-3.71,4.21-.77,8.29-2.27,11.68-5.07,1.21-1,2.09-2.36,1.65-4.05-.55-2.15-2.43-1.31-3.79-1.44-4.44-.43-8.63.89-12.83,2.01-1.7.45-3.52,1.54-4.48-.95-.82-2.13.54-3.29,2.19-4.29,1.3-.79,2.97-1.44,3.68-2.63,1.77-2.95,3.35-6.54,1.74-9.68-1.51-2.96-5.18-1.45-7.78-1.13-1.41.17-2.95,1.91-3.84,3.32-4.67,7.42-11.02,8.68-18.88,5.82-4.05-1.47-8.43-2.07-12.38-3.73-2.93-1.23-3.81-.85-5.81,1.88-7.36,10.08-15.12,19.9-23.3,29.34-3.3,3.8-.8,4.62,1.66,5.82,15.03,7.34,30.82,10.97,47.63,9.64,4.51-.36,8.86-1.1,11.62,4.58,1.04,2.13,5.12,4.05,8.96,2.41Z"/>
      <path class="cls-1" d="m477.14,117.38c1.37,34.08-7.7,64.84-19.85,95.02-11.74,29.14-29.03,55.06-46.13,81.12-17.09,26.05-36.87,50.07-55.97,74.6-13.93,17.9-28.53,35.3-43.28,52.54-3.17,3.71-3.25,7.4-2.67,11.17,2.27,14.65,2.37,29.41,3.35,44.13.42,6.26-1.53,13.83,4.15,19.21,1.55,1.47.49,2.36-.64,2.69-1.87.54-3.44,1.59-4.23,3.1-1.02,1.97-4.2,3.92-1.68,6.46,2.77,2.78,4.52-.31,6.27-1.93,18.74-17.35,40.58-18.58,63.37-11.13,12.67,4.14,18.76,23.86,12.36,36.92-9.01,18.37-23.67,27.08-44.33,29.15-16.68,1.67-31.76-.11-46.31-7.96-10.33-5.58-18.64-13.59-21.35-24.96-2.21-9.31-3.42-19.09-2.87-28.96.73-13.33.44-26.72,1.09-40.06.27-5.59-1.71-7.47-6.94-6.62-.25.04-.55-.08-.77.02-3.97,1.67-8.46-4.17-11.44-.31-2.8,3.63-1.02,8.94-1.02,13.49,0,19-.56,37.88-6.08,56.32-4.32,14.43-13.05,25.44-25.31,33.57-13.08,8.67-27.56,14.71-43.47,12.32-14.42-2.16-29.26-4.82-37.99-19.17-10.38-17.06-6.8-40.54,8.86-47.93,13.78-6.5,28.33-4.31,41.63,2.65,5.45,2.85,11.44,5.1,16.03,9.53.94.91,2.01,1.52,3.29.28,1-.97,1.94-2.26,1.14-3.35-7.15-9.82.4-19.13,1.14-28.57,1.48-18.66,4.21-37.22,6.44-55.83.27-2.23-1.49-3.15-2.82-4.22-13.94-11.2-27.94-22.34-41.89-33.54-6.18-4.96-12.35-9.94-18.42-15.02-2.32-1.94-6.4-3.33-3.04-7.75.72-.94.18-2.73-1.25-3.14-1.67-.48-3.46-.81-4.96.83-15.77,17.22-37.71,23-58.21,31.49-3.5,1.45-6.14,4.54-7.42,8.09-1.07,2.98-3.06,4.58-5.52,5.99-1.88,1.08-4.03,1.66-5.84.43-2.34-1.6-.27-3.68-.04-5.58.3-2.5,4.14-5.24.51-7.39-2.66-1.57-5.29.39-7.3,2.71-.76.88-2.12,1.19-3.11,1.91-2.11,1.54-4.57,2.16-6.15-.07-2.03-2.88.57-4.76,2.62-6.24,1.82-1.31,3.93-2.27,5.99-3.19,2.14-.95,3.47-2.41,2.81-4.73-.68-2.41-2.94-1.25-4.54-1.48-2.43-.34-4.27.62-6.23,2.19-1.7,1.36-4.6,2.11-5.86-.66-1.23-2.7.1-5.22,2.93-6.14,2.88-.93,5.97-1.21,8.96-1.86,1.87-.4,3.66-1.39,3.64-3.41-.01-2.38-2.14-2.47-3.98-2.47-3.69,0-6.96-1.37-10.2-2.91-1.35-.64-1.87-1.78-1.77-3.09.13-1.64,1.63-1.86,2.85-1.93,3.3-.18,6.6-.52,9.81.97,2.33,1.08,4.66.19,6.03-1.78,1.67-2.39-.86-3.61-2.13-5.02-1.03-1.13-2.37-1.97-3.48-3.03-2.5-2.38-3.53-5.55-1.65-8.34,2.05-3.05,5.15-.33,6.57.87,7.37,6.2,14.78,3.31,21.94.4,12.06-4.91,22.12-12.78,30.68-22.56,1.46-1.66,3.67-3.84.98-5.67-1.64-1.11-3.76-.53-5.66,1.9-7.74,9.87-8.31,10.11-17.28,1.91-22.09-20.22-43.59-41.01-60.11-66.36-14.04-21.55-24.16-44.81-29.52-69.82-5.12-23.88-8.36-48.14-4.97-72.69,3.24-23.38,10.38-44.97,25.62-63.88C54.31,23.69,82.61,12,116.3,10.72c34.33-1.31,63.82,9.67,87.46,34.8,16.23,17.26,26.8,38.12,35.95,59.76,4.68,11.08,9.52,22.09,14.46,33.06.63,1.41.78,3.74,3.27,3.71,2.44-.02,3.24-1.88,4.36-3.61,6.72-10.48,8.34-22.92,13.25-34.15,12.42-28.37,27.3-55.42,51.93-74.5,28-21.71,60.13-31.48,95.3-18.84,18.11,6.51,31.13,19.46,39.83,37.11,5.4,10.95,10.26,21.91,12.54,33.87,2.3,12.05,3.14,24.25,2.49,35.45Zm-206.31,186.9c-6.16-12.87-15.42-21.74-28.89-24.64-7.24-1.55-10.99-4.09-9.93-11.77.27-1.99-.98-2.59-2.81-2.66-2.16-.08-3.5.5-3.35,2.95.11,1.78-.42,3.91.36,5.3,2.19,3.87-.15,3.56-2.87,4.56-8.24,3.03-12.8.26-15.27-7.8-.77-2.52-2.55-6.33-5.79-4.54-2.9,1.6-1.07,5.33.56,7.37,4.83,6.07,3.21,9.64-3.72,11.85-1.6.51-3.07,1.42-4.64,2.16-1.09-2.66-1.71-5.22-3.1-7.26-1.95-2.86-2.35-9.65-6.79-7.3-5.07,2.68.14,6.72,1.96,9.97,2.27,4.07,3.84,7.62-3.52,7.53-3.73-.05-7.46,1.43-11.2,1.49-2.89.04-3.86,2.12-3.89,3.67-.04,1.74,2.28,2.44,4.11,2.46,3.03.04,5.97-.55,8.96-1.1,3.93-.73,8.19-2.6,10.02,5.57,2.51,11.22,6.98,22.89,18.29,29.4,18.22,10.49,37.21,12.52,57.11,5.27,1.88-.68,3.26-2.16,6.17-1.21,12.37,4.04,25.37,4.15,37.75,1.1,19.72-4.87,32.3-22.18,34.19-45.09.38-4.59,1.71-6.45,6.38-6.34,2.04.05,5.93,1.95,5.87-2.39-.05-3.66-3.51-1.97-5.45-2.1-9.96-.67-10.64-1.56-6.43-10.39.98-2.05.98-3.42-.9-4.45-1.71-.93-3.44-.92-4.59,1.13-1.24,2.2-2.58,4.35-3.84,6.54-2.41,4.19-6.89,3.4-9.51,2.04-3.95-2.05.32-4.49,1.29-6.69.4-.92,1-1.77,1.62-2.56,1.14-1.44,2.34-2.72.54-4.6-2.3-2.41-4.26-.07-5.21.95-2.19,2.36-3.74,5.35-5.39,8.19-3.05,5.26-9.05,6.52-13,4.76-4.24-1.89.36-6.38,1.32-9.7.21-.71.66-1.36,1.05-2.01.97-1.63,1.8-3.69-.32-4.54-1.51-.6-4.02-1.41-5.08,1.55-1.69,4.71-5.85,8.58-5.87,13.71-.01,3.62-1.59,4.83-4.27,6.19-9.91,5.05-18.54,11.39-21.88,23.47Zm-191.64-121.77c-1.41,1.74-2.6,3.39-3.98,4.86-4.97,5.29-5.34,10.92-.47,16.18,5.52,5.97,15.03,4.71,20.78,10.66.32.33,2.15-.93,3.33-1.29,6.54-2.02,8.13-7.67,10.14-13.24,1.31-3.63,3.44-6.77,7.31-1.78,2.47,3.18,6.22,4.24,9.9,5.08,8.88,2.01,13.19-1.35,13.26-10.36.03-3.14.63-5.35,3.17-7.86,5.43-5.35,3.74-12.96-3.12-16.55-4.08-2.14-8.51-3.49-14.08-3.54,2.77-2.95,4.83-4.87,6.55-7.05,3.64-4.62,4.36-10.25,1.94-15.15-2.3-4.65-7.48-4.34-12.21-3.42-1.32.26-3.15,2.19-3.93-1.17-1.54-6.64-7.09-5.16-11.82-5.38-4.86-.22-5.48,3.74-7.14,6.76-2.15,3.89-2.95,8.14-2.63,13.34-5.23-5.18-9.78-7.71-15.3-8.88-9.33-1.98-15.08,3.76-12.03,12.45,1.28,3.63-1.32,4.62-2.92,6.27-5.21,5.39-4.66,10.26,1.21,15.03,3.52,2.85,7.85,3.11,12.02,5.04Zm189.53,187.62c6.73.17,19.59-7.02,22.58-12.33.57-1.01,1-2.58.61-3.53-.71-1.73-2.78-1.47-3.99-.88-1.76.86-3.26,2.33-4.75,3.67-10.05,9.03-17.55,9.19-27.59.41-1.78-1.56-3.46-3.67-5.64-.98-1.87,2.29-.27,4.24,1.38,5.99,4.93,5.25,11.81,5.85,17.4,7.66Z"/>
      <path class="cls-1" d="m446.01,372.49c-3.84,1.63-7.92-.28-8.96-2.41-2.76-5.67-7.11-4.93-11.62-4.58-16.81,1.33-32.6-2.3-47.63-9.64-2.46-1.2-4.95-2.02-1.66-5.82,8.17-9.43,15.94-19.25,23.3-29.34,1.99-2.73,2.87-3.1,5.81-1.88,3.95,1.66,8.33,2.26,12.38,3.73,7.86,2.86,14.21,1.6,18.88-5.82.89-1.41,2.43-3.15,3.84-3.32,2.6-.31,6.27-1.82,7.78,1.13,1.6,3.14.02,6.74-1.74,9.68-.71,1.19-2.38,1.84-3.68,2.63-1.64,1-3.01,2.16-2.19,4.29.96,2.49,2.78,1.4,4.48.95,4.2-1.12,8.39-2.44,12.83-2.01,1.37.13,3.24-.71,3.79,1.44.43,1.68-.44,3.05-1.65,4.05-3.39,2.8-7.47,4.3-11.68,5.07-2.5.46-5.03.85-4.63,3.71.38,2.75,3.2,2.88,5.56,2.66,3.49-.32,7.07.84,10.5-1.12,1.67-.96,3.82-.23,4.58,1.62,1.13,2.76-1.8,2.61-3.1,3.2-3.99,1.84-8.3,2.46-12.69,2.42-2.05-.02-4.61,0-4.58,2.62.02,2.09,2,3.48,4.33,3.58,2.05.09,4.1.01,6.15.08,2.29.08,4.57,1.3,4.28,3.41-.27,1.92-2.82,2.63-5.01,2.51-3.68-.2-6.8-2.07-9.98-3.59-1.78-.85-3.54-1.78-4.7.04-1.01,1.58-.25,3.55,1.45,4.66,2.35,1.53,4.74,2.97,5.56,6.06Z"/>
      <path class="cls-6" d="m270.83,304.28c3.34-12.08,11.97-18.42,21.88-23.47,2.69-1.37,4.26-2.58,4.27-6.19.02-5.13,4.18-9,5.87-13.71,1.06-2.96,3.57-2.15,5.08-1.55,2.12.85,1.3,2.91.32,4.54-.39.65-.85,1.3-1.05,2.01-.95,3.32-5.56,7.81-1.32,9.7,3.95,1.76,9.94.5,13-4.76,1.64-2.83,3.2-5.82,5.39-8.19.95-1.03,2.91-3.36,5.21-.95,1.8,1.89.6,3.16-.54,4.6-.62.79-1.22,1.65-1.62,2.56-.97,2.21-5.24,4.65-1.29,6.69,2.62,1.36,7.1,2.14,9.51-2.04,1.26-2.19,2.6-4.34,3.84-6.54,1.15-2.05,2.88-2.05,4.59-1.13,1.89,1.02,1.88,2.39.9,4.45-4.21,8.84-3.53,9.72,6.43,10.39,1.95.13,5.4-1.55,5.45,2.1.06,4.34-3.83,2.43-5.87,2.39-4.67-.11-6,1.75-6.38,6.34-1.88,22.91-14.47,40.23-34.19,45.09-12.37,3.05-25.38,2.94-37.75-1.1-2.91-.95-4.29.53-6.17,1.21-19.89,7.25-38.88,5.22-57.11-5.27-11.31-6.51-15.78-18.18-18.29-29.4-1.83-8.17-6.09-6.3-10.02-5.57-2.99.56-5.93,1.14-8.96,1.1-1.83-.02-4.15-.72-4.11-2.46.04-1.55,1-3.63,3.89-3.67,3.74-.05,7.47-1.53,11.2-1.49,7.36.09,5.79-3.46,3.52-7.53-1.81-3.25-7.03-7.29-1.96-9.97,4.44-2.35,4.84,4.44,6.79,7.3,1.39,2.04,2,4.6,3.1,7.26,1.57-.74,3.04-1.66,4.64-2.16,6.94-2.21,8.56-5.78,3.72-11.85-1.63-2.04-3.46-5.78-.56-7.37,3.24-1.78,5.02,2.02,5.79,4.54,2.48,8.06,7.04,10.83,15.27,7.8,2.72-1,5.06-.69,2.87-4.56-.78-1.39-.25-3.51-.36-5.3-.15-2.45,1.19-3.03,3.35-2.95,1.83.07,3.09.67,2.81,2.66-1.05,7.68,2.69,10.22,9.93,11.77,13.47,2.89,22.73,11.77,28.89,24.64Zm-6.64,5.95c.2-.03.4-.07.6-.1-.24.08-.48.15-.72.23-.47-10.63-10.91-22.33-22.53-24.64-2.48-.49-6.38-2.45-7.67,1.94-1.15,3.91.28,6.57,4.59,7.98,9.52,3.11,18.15,7.97,25.73,14.59Zm30.56,22.79c6.64.91,13.05-1.01,19.09-3.56,4.95-2.09,12.9-4.48,11.7-10.15-1.4-6.65-9.14-6.99-15.57-5.52-1.95.45-3.7.46-4.69-1.39-1.15-2.14.56-3.26,2.09-4.23,4.42-2.81,5.84-6.84,5.13-11.9-.43-3.07-1.84-4.03-4.69-2.72-13.93,6.42-25.03,15.94-31.86,29.86-2.05,4.18-1.04,7.04,4.39,8.08,4.75.91,9.4,1.94,14.41,1.52Zm-56.37-30.42c-11.86-5.98-24.52-7.2-37.23-7.9-3.54-.2-4.67,2.29-4.3,5.72,1.6,14.66,16.46,30.29,30.88,32.69,4.14.69,5.53-.84,5.88-4.71.58-6.38-.98-11.58-6.73-15.12-1.82-1.12-4.73-2.01-3.59-5.01.94-2.46,3.46-1.61,5.42-1.47,3.77.27,7.03-.54,9.66-4.2Zm5.78,32c6.13.24,11.5-1.36,16.88-2.67,7.03-1.71,8.62-6.44,4-11.96-4.13-4.95-9.74-8.19-14.71-12.18-6.89-5.53-9.46,1.71-13.47,3.76-3.45,1.76,1.04,3.72,1.32,5.79.5,3.69,3.28,7.45,1.47,10.98-3.36,6.57.18,6.72,4.51,6.29Zm94.61-42.66c1.94-10.28-5.34-5.24-8.87-5.08-11.09.53-11.8,1.47-11.39,11.58.02.51.16,1.09-.03,1.52-2.53,5.56-1.66,9.24,5.27,9.4,3.3.08,4.49,6.93,8.34,3.16,2.35-2.31,3.34-6.23,4.39-9.59,1.11-3.55,1.56-7.31,2.3-10.98Zm-59.76,13.84c6.4-5.2,11.28-9.05,16.03-13.07,1.72-1.45,2.36-3.91.87-5.45-1.43-1.49-3.25.39-4.62,1.34-5.48,3.82-9.62,8.66-12.28,17.18Zm-56.42-21.58c-1.87.88-7.22-.79-7.23,3.07-.02,4.64,5.7,2.3,8.64,3.78,2.62,1.31,3.43-.54,3.43-3.11,0-2.77-.55-4.59-4.84-3.74Zm92.14-1.93c-4.31-.98-7.43-.07-10.48.79-1.68.48-2.39,2.07-1.92,3.64.72,2.4,2.35,1.07,3.58.45,2.65-1.34,5.92-1.47,8.82-4.88Zm-35.23,23.62c-.16-.17-.31-.34-.47-.51-.16.17-.31.34-.47.51.23.17.47.34.7.51.08-.17.16-.34.24-.51Z"/>
      <path class="cls-6" d="m79.2,182.52c-4.17-1.93-8.5-2.19-12.02-5.04-5.87-4.76-6.43-9.63-1.21-15.03,1.59-1.65,4.19-2.64,2.92-6.27-3.05-8.69,2.7-14.43,12.03-12.45,5.52,1.17,10.07,3.7,15.3,8.88-.32-5.19.49-9.45,2.63-13.34,1.66-3.01,2.27-6.98,7.14-6.76,4.74.21,10.28-1.27,11.82,5.38.78,3.36,2.61,1.43,3.93,1.17,4.73-.92,9.91-1.23,12.21,3.42,2.42,4.9,1.7,10.53-1.94,15.15-1.72,2.18-3.78,4.09-6.55,7.05,5.57.05,10,1.4,14.08,3.54,6.85,3.59,8.54,11.2,3.12,16.55-2.54,2.51-3.14,4.72-3.17,7.86-.08,9-4.39,12.37-13.26,10.36-3.69-.84-7.44-1.9-9.9-5.08-3.87-4.99-6-1.85-7.31,1.78-2.01,5.57-3.6,11.22-10.14,13.24-1.18.36-3.01,1.62-3.33,1.29-5.76-5.95-15.26-4.7-20.78-10.66-4.87-5.26-4.51-10.9.47-16.18,1.38-1.47,2.57-3.12,3.98-4.86Zm23.22,6.14c0,.5-.17-.81.04-2.06.42-2.55-1.98-6.07,1.52-7.5,3.44-1.41,4.69,2.21,6.5,4.18,4.17,4.53,8.14,9.29,13.58,12.4,2.98,1.7,6.55,3.09,9.31.67,2.88-2.53.79-5.6-.96-8.25-1.71-2.58-1.84-5.27,1.7-5.86,3.13-.52,5.81-.95,5.51-4.72-.33-4.04-3.65-5.54-6.98-6.06-6.64-1.05-13.23-.72-19.75,1.44-10.82,3.58-12.22,2.98-16.06-7.24-2.78-7.38-7.33-12.93-14.77-15.65-2.27-.83-5.31-1.43-6.97,1.3-1.36,2.24-.39,4.47,1.43,6.22,4.6,4.43,5.8,7.64-2.57,7.98-2.01.08-4.46.6-4.95,2.93-.6,2.84,2.02,3.96,3.97,4.97,6.81,3.54,13.9,4.98,21.55,2.7,2.15-.64,5.49-2.5,6.48,1.24.98,3.68-2.86,3.63-5,4.43-5.56,2.09-10.98,4.41-15.3,8.61-2.53,2.47-4.16,5.59-1.79,8.92,2.41,3.39,5.3,1.98,8.01.02,3.53-2.54,6.3-3.07,6.09,2.71-.09,2.4-.33,4.96,2.75,5.41,2.95.43,4.78-1.63,5.87-4.09,1.85-4.16.95-8.58.79-14.69Zm2.64-18.73c8.29-4.22,16.33-7.71,21.72-14.88,2.01-2.67,5.27-6.2,1.82-9.51-2.87-2.75-6.42-.33-9.07,1.55-5.21,3.7-7.83,3.2-7.9-3.77-.02-1.99,1.48-5.2-1.87-5.71-2.37-.37-3.99,1.79-5.31,3.82-1.45,2.23-1.91,4.53-2,7.18-.26,6.94.42,13.73,2.62,21.33Z"/>
      <path class="cls-6" d="m268.73,370.14c-5.58-1.8-12.46-2.41-17.4-7.66-1.65-1.76-3.25-3.7-1.38-5.99,2.18-2.68,3.86-.57,5.64.98,10.04,8.78,17.54,8.62,27.59-.41,1.49-1.34,2.99-2.81,4.75-3.67,1.21-.59,3.27-.85,3.99.88.39.95-.05,2.52-.61,3.53-2.99,5.31-15.86,12.51-22.58,12.33Z"/>
      <path class="cls-5" d="m294.75,333.03c-5.01.42-9.66-.61-14.41-1.52-5.43-1.04-6.45-3.9-4.39-8.08,6.83-13.92,17.93-23.44,31.86-29.86,2.85-1.31,4.26-.35,4.69,2.72.71,5.06-.71,9.09-5.13,11.9-1.53.97-3.24,2.09-2.09,4.23.99,1.85,2.74,1.84,4.69,1.39,6.44-1.47,14.17-1.13,15.57,5.52,1.19,5.67-6.75,8.06-11.7,10.15-6.04,2.55-12.45,4.47-19.09,3.56Z"/>
      <path class="cls-5" d="m238.38,302.61c-2.63,3.66-5.89,4.47-9.66,4.2-1.96-.14-4.48-.99-5.42,1.47-1.15,3,1.76,3.89,3.59,5.01,5.75,3.54,7.31,8.74,6.73,15.12-.35,3.86-1.73,5.4-5.88,4.71-14.42-2.4-29.28-18.03-30.88-32.69-.38-3.44.76-5.92,4.3-5.72,12.71.71,25.37,1.93,37.23,7.9Z"/>
      <path class="cls-2" d="m244.16,334.61c-4.33.43-7.87.28-4.51-6.29,1.81-3.53-.98-7.29-1.47-10.98-.28-2.07-4.77-4.03-1.32-5.79,4.01-2.05,6.59-9.29,13.47-3.76,4.97,3.98,10.58,7.23,14.71,12.18,4.61,5.52,3.02,10.25-4,11.96-5.38,1.31-10.75,2.91-16.88,2.67Z"/>
      <path class="cls-2" d="m338.77,291.95c-.74,3.67-1.19,7.43-2.3,10.98-1.05,3.37-2.03,7.29-4.39,9.59-3.85,3.77-5.04-3.09-8.34-3.16-6.93-.16-7.79-3.84-5.27-9.4.19-.42.05-1.01.03-1.52-.41-10.11.3-11.05,11.39-11.58,3.53-.17,10.82-5.2,8.87,5.08Z"/>
      <path class="cls-1" d="m264.17,310.26c-7.57-6.64-16.2-11.5-25.72-14.61-4.31-1.41-5.74-4.06-4.59-7.98,1.29-4.39,5.19-2.44,7.67-1.94,11.62,2.31,22.06,14.01,22.53,24.64l.11-.11Z"/>
      <path class="cls-1" d="m279.01,305.79c2.65-8.52,6.8-13.36,12.28-17.18,1.36-.95,3.18-2.83,4.62-1.34,1.49,1.54.85,4-.87,5.45-4.75,4.01-9.63,7.87-16.03,13.07Z"/>
      <path class="cls-1" d="m222.59,284.21c4.29-.85,4.84.97,4.84,3.74,0,2.57-.81,4.42-3.43,3.11-2.94-1.47-8.66.86-8.64-3.78.02-3.86,5.37-2.19,7.23-3.07Z"/>
      <path class="cls-4" d="m314.73,282.28c-2.91,3.41-6.17,3.54-8.82,4.88-1.22.62-2.86,1.95-3.58-.45-.47-1.57.24-3.17,1.92-3.64,3.06-.87,6.17-1.77,10.48-.79Z"/>
      <path class="cls-1" d="m264.07,310.36c.24-.08.48-.15.72-.23-.2.03-.4.07-.61.11,0,.01-.12.12-.12.12Z"/>
      <path class="cls-1" d="m279.5,305.9c-.08.17-.16.34-.24.51-.23-.17-.47-.34-.7-.51.16-.17.31-.34.47-.51.16.17.31.34.47.51Z"/>
      <path class="cls-3" d="m102.42,188.66c.16,6.11,1.07,10.53-.79,14.69-1.09,2.46-2.92,4.52-5.87,4.09-3.08-.44-2.84-3.01-2.75-5.41.21-5.79-2.55-5.26-6.09-2.71-2.71,1.95-5.6,3.37-8.01-.02-2.37-3.33-.75-6.46,1.79-8.92,4.31-4.2,9.73-6.52,15.3-8.61,2.13-.8,5.98-.75,5-4.43-1-3.74-4.33-1.89-6.48-1.24-7.65,2.28-14.73.85-21.55-2.7-1.95-1.01-4.57-2.13-3.97-4.97.49-2.33,2.94-2.85,4.95-2.93,8.37-.33,7.17-3.55,2.57-7.98-1.82-1.75-2.79-3.98-1.43-6.22,1.66-2.73,4.7-2.12,6.97-1.3,7.44,2.72,12,8.27,14.77,15.65,3.84,10.22,5.25,10.83,16.06,7.24,6.51-2.16,13.11-2.49,19.75-1.44,3.33.53,6.66,2.02,6.98,6.06.3,3.77-2.38,4.2-5.51,4.72-3.54.58-3.41,3.27-1.7,5.86,1.75,2.64,3.84,5.72.96,8.25-2.76,2.42-6.33,1.03-9.31-.67-5.44-3.11-9.41-7.87-13.58-12.4-1.81-1.97-3.06-5.59-6.5-4.18-3.5,1.43-1.09,4.95-1.52,7.5-.21,1.25-.04,2.56-.04,2.06Z"/>
      <path class="cls-3" d="m105.06,169.93c-2.2-7.6-2.87-14.39-2.62-21.33.1-2.65.55-4.95,2-7.18,1.33-2.03,2.94-4.19,5.31-3.82,3.36.52,1.85,3.73,1.87,5.71.07,6.97,2.69,7.47,7.9,3.77,2.64-1.88,6.2-4.29,9.07-1.55,3.45,3.31.19,6.84-1.82,9.51-5.39,7.18-13.43,10.66-21.72,14.88Z"/>
    </g>
  </g>
</svg>