<?xml version="1.0" encoding="UTF-8"?>
<svg id="_레이어_2" data-name="레이어 2" xmlns="http://www.w3.org/2000/svg" viewBox="0 0 64.93 63.12">
  <defs>
    <style>
      .cls-1 {
        fill: #eb6a3c;
      }

      .cls-2 {
        fill: #080706;
      }
    </style>
  </defs>
  <g id="_레이어_1-2" data-name="레이어 1">
    <g>
      <path class="cls-2" d="m35.29,14.56c6.33-7.86,14.79-10.14,21.74-6.16,8.3,4.75,10.11,15.02,5.21,23.63-7.87,13.82-20.66,21.73-33.62,29.53-4.33,2.6-8.19,1.98-11.16-2.09C10.42,49.8,4.02,39.71,1,27.94c-1.57-6.12-1.52-12.4,1.7-17.92C6.93,2.74,13.69-.82,22.13.16c7.96.92,11.25,6.86,13.16,14.4Zm21.8,20.47c2.2-2.88,3.59-6.14,4.4-9.62,1.72-7.4-1.28-13-8.13-15.36-5.74-1.98-14.07,1.63-16.66,7.28-.81,1.78-.77,5.02-3.18,4.51-2.43-.51-1.04-3.59-1.2-5.52-.76-9.41-7.38-14.94-15.8-13.05C7.92,5.2,2.26,13.11,3.25,22.52c1.43,13.6,9.15,24.37,16.63,35.15,1.85,2.66,4.72,3.03,7.65,1.04,2.06-1.39,4.3-2.51,6.38-3.88,8.55-5.63,17.14-11.22,23.18-19.8Z"/>
      <path class="cls-1" d="m57.08,35.03c-6.03,8.57-14.62,14.17-23.18,19.8-2.08,1.37-4.32,2.49-6.38,3.88-2.93,1.98-5.81,1.62-7.65-1.04C12.4,46.89,4.68,36.12,3.25,22.52,2.26,13.11,7.92,5.2,16.52,3.27c8.41-1.89,15.03,3.65,15.8,13.05.16,1.93-1.23,5.01,1.2,5.52,2.41.5,2.36-2.74,3.18-4.51,2.59-5.65,10.91-9.26,16.66-7.28,6.85,2.36,9.86,7.97,8.13,15.36-.81,3.48-2.21,6.74-4.4,9.62Z"/>
    </g>
  </g>
</svg>