<?xml version="1.0" encoding="UTF-8"?>
<svg id="_레이어_2" data-name="레이어 2" xmlns="http://www.w3.org/2000/svg" viewBox="0 0 71.14 64.67">
  <defs>
    <style>
      .cls-1 {
        fill: #fff;
      }

      .cls-2 {
        fill: #cb587d;
      }

      .cls-3 {
        fill: #080706;
      }
    </style>
  </defs>
  <g id="_레이어_1-2" data-name="레이어 1">
    <g>
      <path class="cls-3" d="m58.29,30.54c4.25,2.28,8.8,3.93,11.45,8.37,2.37,3.98,1.74,8.68-1.96,11.4-5.59,4.11-11.65,5.06-18.3,2.17-.06.97-.06,1.7-.16,2.42-.28,1.96,2.02,3.98-.63,5.97-3.59,2.7-7.23,4.57-11.85,3.49-5.94-1.39-10.5-4.69-13.41-10.02-1.01-1.85-1.74-1.13-2.76-.35-1.85,1.42-3.75,2.63-6.12,3.13-4.84,1.01-10.15-6.08-10.82-11.26-.68-5.24.73-9.92,4.38-13.83-2.56-1.94-5.99-2.58-7.32-6.18-2.27-6.14.5-11.17,7.06-12.13.61-.09,1.24,0,1.87-.03,2.58-.11,5.33.85,7.55.36,1.2-.27,1.27-4.34,2.42-6.38C24.23-.41,36.34-2.06,41.69,2.51c1.41,1.21,6.46,1.67,8.27.86,6.99-3.13,13.99,1.4,14.37,9.05.31,6.21-1.26,11.68-5.14,16.52-.38.47-.6,1.07-.9,1.6Zm2.99-15.02c0-1.38-.06-2.13,0-2.87.28-3.08-1.07-5.41-3.66-6.8-2.56-1.36-5.09-.58-7.33,1.08-1.72,1.27-3.13,2.84-4.37,4.57-.58.82-1.1,1.82-2.3,1.51-1.29-.34-1.02-1.53-1.06-2.49-.12-3.08-1.13-5.99-4.2-6.86-8.04-2.27-17.86,2.04-17.34,11.22.15,2.57-.86,3.21-3.03,2.47-3.05-1.05-6.17-.73-9.25-.57-2.78.14-5.08,1.57-5.87,4.4-.75,2.71.99,4.51,3,5.89,1.42.98,3,1.76,4.61,2.39,2.58,1.01,2.6,2.05.65,3.92-4.51,4.32-5.66,9.57-3.33,15.36,2.44,6.07,7.45,6.92,11.96,2.18.77-.81,1.41-1.73,2.1-2.61.53-.67.92-1.62,1.99-1.38,1.04.22,1.18,1.16,1.27,2.05.78,7.2,5.69,10.4,11.97,12.06,7.52,1.99,11.19-1.74,9.12-9.09-.32-1.15-1.38-2.47-.25-3.47,1.3-1.15,2.52.24,3.7.76,5.31,2.36,10.59,2.77,15.68-.45,3.92-2.48,4.36-5.88,1.39-9.44-2.3-2.75-5.4-4.36-8.58-5.8-4.45-2.02-4.42-1.94-1.59-5.67,2.9-3.82,5.36-7.85,4.68-12.35Z"/>
      <path class="cls-2" d="m61.29,15.52c.67,4.5-1.79,8.53-4.68,12.35-2.83,3.74-2.86,3.65,1.59,5.67,3.18,1.44,6.28,3.05,8.58,5.8,2.97,3.56,2.53,6.96-1.39,9.44-5.09,3.22-10.37,2.81-15.68.45-1.18-.52-2.4-1.91-3.7-.76-1.13,1-.07,2.32.25,3.47,2.07,7.35-1.6,11.08-9.12,9.09-6.28-1.66-11.19-4.86-11.97-12.06-.1-.89-.24-1.82-1.27-2.05-1.07-.23-1.46.72-1.99,1.38-.69.88-1.34,1.8-2.1,2.61-4.51,4.74-9.52,3.89-11.96-2.18-2.32-5.79-1.18-11.04,3.33-15.36,1.95-1.87,1.93-2.91-.65-3.92-1.61-.63-3.19-1.42-4.61-2.39-2.01-1.38-3.76-3.19-3-5.89.79-2.83,3.09-4.26,5.87-4.4,3.07-.16,6.2-.47,9.25.57,2.17.74,3.17.1,3.03-2.47-.52-9.18,9.29-13.5,17.34-11.22,3.07.87,4.08,3.78,4.2,6.86.04.96-.24,2.15,1.06,2.49,1.2.31,1.72-.69,2.3-1.51,1.24-1.73,2.65-3.3,4.37-4.57,2.25-1.66,4.77-2.44,7.33-1.08,2.59,1.38,3.94,3.71,3.66,6.8-.07.74,0,1.49,0,2.87Zm-27.96,8.63c-5.42,0-9.5,4.11-9.44,9.51.05,4.87,3.56,8.36,8.51,8.44,5.19.09,10.21-4.51,10.22-9.36.02-6.22-2.54-8.59-9.29-8.59Z"/>
      <path class="cls-3" d="m33.32,24.15c6.75,0,9.31,2.36,9.29,8.59-.02,4.85-5.04,9.44-10.22,9.36-4.95-.08-8.46-3.57-8.51-8.44-.05-5.4,4.02-9.51,9.44-9.51Zm-6.38,9.29c-.03,3.94,1.85,5.72,5.95,5.67,3.83-.05,7.53-3.84,7.44-7.63-.07-2.69-2.54-4.32-6.56-4.31-4.42,0-6.8,2.19-6.82,6.27Z"/>
      <path class="cls-1" d="m26.94,33.44c.03-4.08,2.4-6.26,6.82-6.27,4.02,0,6.5,1.62,6.56,4.31.09,3.79-3.61,7.59-7.44,7.63-4.1.05-5.98-1.73-5.95-5.67Z"/>
    </g>
  </g>
</svg>