<?xml version="1.0" encoding="UTF-8"?>
<svg id="_레이어_2" data-name="레이어 2" xmlns="http://www.w3.org/2000/svg" viewBox="0 0 493.51 795.33">
  <defs>
    <style>
      .cls-1 {
        fill: #0070bb;
      }

      .cls-2 {
        fill: #ec6978;
      }

      .cls-3 {
        fill: #eb6a3c;
      }

      .cls-4 {
        fill: #fff;
      }

      .cls-5 {
        fill: #86d41f;
      }

      .cls-6 {
        fill: #c9c9c9;
      }

      .cls-7 {
        fill: #21f993;
      }

      .cls-8 {
        fill: #080706;
      }

      .cls-9 {
        fill: #29aae0;
      }

      .cls-10 {
        fill: #616161;
      }
    </style>
  </defs>
  <g id="_레이어_1-2" data-name="레이어 1">
    <g>
      <path class="cls-8" d="m76.34,649.94c-.11,2.94.68,6.93-3.59,6.85-4.01-.08-2.94-4.16-2.67-6.52,1.1-9.46-.93-18.5-3.47-27.41-3.95-13.87-16.33-25.13-26.91-26.42-19.17-2.34-31.8,15.48-32.33,32.67-.72,22.93,9.49,40.35,28.93,52.45,10.13,6.3,20.22,11.22,32.87,12.25,17.29,1.4,30.3-6.14,42.8-15.52,15.04-11.29,27.69-25.24,39.99-39.43,3.61-4.16,6.95-8.56,10.62-12.66,2.86-3.2,3.09-5.01-1.41-7.09-6.99-3.22-13.86-6.86-20.28-11.09-4.1-2.7-6.47-1.94-9.92.97-13.65,11.54-27.86,22.4-43.22,31.59-2.81,1.68-6.67,6.53-9.81-.12,15.19-10.23,30.26-20.61,44.43-32.25,8.27-6.79,8.48-7.01-.03-13.46-35.01-26.5-55.19-62.49-66.7-104.03-4.25-15.33-5.95-31.08-7.12-46.91-1.66-22.47-1.75-44.85,2.87-67.06,7.82-37.51,26.8-68.57,54.47-94.61,13.84-13.02,29.4-23.95,46.05-32.76,12.36-6.54,13.03-5.25,9.9-18.43-5.12-21.57-6.06-43.24-2.4-65.18.99-5.95,2.75-11.83-.72-18.38-2.58-4.85-.98-11.1,6.67-12.14,2.19-.3,3.17-1.36,3.73-3.53,1.64-6.3,8.09-7.53,11.82-6.05,3.97,1.58,5.87-.59,8.7-.93,3.44-.41,7.89-3.86,10.03,1.04,1.55,3.54,3.36,3.61,6.56,4.23,6.22,1.21,11.69,4.32,10.09,12.29-.53,2.62-.13,4.67,2.5,4.49,6.02-.41,8.71,2.43,8.8,8.01.1,6.16-3.02,12.41-8.15,13.59-8.1,1.86-9.3,5.79-7.76,12.48.4,1.74-.46,3.1-.77,4.64-2.75,13.44-1.41,26.72,2.24,39.84.4,1.43.82,2.83,2.59,2.05,6.07-2.67,13.09.43,19.08-2.98-1.09-2.39-2.04-4.58-3.07-6.73-7.82-16.46-7.51-16.48,8.81-23.33,3.93-1.65,11.24-1.15,10.97-8.43-.31-8.34-.25-16.92-2.21-24.94-4.08-16.61-2.12-33.01-.51-49.54.41-4.25,6.23-9.76-2.58-12.25-1-.28.07-1.93.02-2.83-.71-14.22-1.02-28.42.64-42.61.6-5.1-.59-8.91-6.91-9.55-3.33-.33-8.21-1.28-7.5-5.79.54-3.4-1.14-4.42-2.42-6.61-2.4-4.11-5.95-10.24-2.19-13.3,2.98-2.43,6.13-2.02,3.56-7.02-.88-1.71,1.79-2.94,3.93-2.86,1.31.05,3.23.49,3.09-1.47-.8-11.21,6.02-5.12,10.13-4.37,2.51.46,4.99,3.1,7.47,1.08,2.36-1.92,3.33-6.31,7.54-2.23,3.29,3.19,6.69,5.89,3.97,11.25-1.82,3.57-1.42,6.72,2.07,9.76,2.66,2.31,6.72,6.16,4.51,9.46-4.59,6.83-.33,11.24,2.84,15.89,4.02,5.9,9,11.14,13.05,17.03,4.4,6.38,8.47,13.03,12.15,19.85,1.92,3.55.48,8.91,5.58,10.77,7.45,2.74,11.28,9.52,16.71,14.54,7.89,7.27,8.07,8.93.19,15.6-1.2,1.02-3.09,1.3-4.11,2.42-3.3,3.63-7.42,6.73-3.02,12.86,2.33,3.25,3.68,8.11,2.07,12.55-2.86,7.91-.05,15.3,1.46,22.92,3.6,18.11,11.6,36.1,1.26,54.46,7.6,2.2,14.63,3.36,20.83,6.28,5.9,2.78,6.98.15,8.54-4.42,4.41-12.91,4.94-26.45,6.81-39.75,1.09-7.74-.72-14.71-6.23-20.94-5.97-6.74-3.49-13.82,5.31-15.56,4.28-.84,5.38-1.9,5.56-6.53.28-7.34,5.58-10.04,12.57-7.42,2.43.91,3.9.61,5.68-1.31,3.6-3.86,7.92-6.26,12.6-1.84,4.61,4.34,9.86-3.95,13.68.89,1.36,1.72,6,1.57,4.1,5.96-.32.74,1.43,2.97,3.6,4.05,8.45,4.24,10.4,18.66,2.52,23.78-4.93,3.2-4.81,7.31-4.8,10.82.11,26.99-4.13,53.15-13.25,78.55-.88,2.45-1.51,4.84,1.68,6.78,9.26,5.61,16.92,13.14,24.36,20.96,25.69,26.98,46.03,57.67,56.61,93.28,5.87,19.74,10.36,40.26,10.93,61.58.65,24.19-2.71,47.43-10.09,70-7.12,21.77-17.3,42.07-32.19,60.18-13.81,16.79-28.74,31.83-47.18,43.27-20.06,12.44-41.38,20.74-65.23,23.61-14.5,1.74-29.04,2.33-43.53,3.53-5.32.44-6.03,1.12-6.3,6.14-.97,17.89.6,35.76.01,53.59-.25,7.51,1.95,6.67,7.04,5.28,9.4-2.57,18.84-4.52,28.82-3.34,17.5,2.07,34.76,10.58,35.19,33.43.25,13.11-7.04,23.18-15.45,31.91-16.37,16.99-36.4,24.94-60.17,20.21-9.94-1.98-19.47-5.56-27.38-12.3-19.96-17.02-25.03-40.36-25.83-64.76-.76-23.12,1.79-46.15,7.79-68.59,1.37-5.14-1.49-6.9-4.84-7.22-20.41-1.98-39.49-8.72-58.51-15.71-2.63-.97-2.88-.77-4.99,1.76-16.89,20.25-33.54,40.86-54.87,56.81-18.52,13.84-39.26,20.81-61.95,13.81-26.77-8.26-43.27-27.99-53.37-53.51-.29-.74-.5-1.65-.34-2.4,1.86-8.53,1.33-17.38,4.02-25.86,4.9-15.46,15.57-24.07,31.18-25.21,13.68-.99,24.08,5.63,31.84,17.34,6.3,9.52,7.59,20.18,9.84,30.75-.21,3.68-.47,7.36-.6,11.05ZM259.63,100.41c1.68.1,2.58-.76,2.91-2.34.65-.35,1.3-.7,1.95-1.06-.21-.13-.58-.4-.61-.37-.43.48-.82,1.01-1.21,1.52-1.56.02-2.63.67-2.91,2.3-1.27.96-1.3,2.23-.87,3.6-1.53.91-1.45,2.21-.86,3.63-5.29,6.79-4.4,15.02-4.86,22.76-1.11,18.61-4.01,20.13,19.12,18.87,11.51-.63,22.06-4.79,32.44-9.02,7.8-3.18,1.06-6.48-.63-11.13-6.42,11.88-15.64,16.6-27.16,15.9-10.6-.65-17.99-9.9-18.95-22.64-.37-4.91-.09-9.87-.1-14.81,1.29-.97,1.11-2.3.86-3.63,1.34-.94,1.67-2.12.88-3.58Zm.26-60.38c-.16-2.27.06-4.7-1.88-6.42-.34-.3-1.3-.45-1.56-.21-2.05,1.87-.05,3.91-.07,5.88-.02,1.35.4,2.71.62,4.06-1.93,1.04-5.08,1.06-3.77,5.31,2.6-.92,3.18-3.14,3.97-5.17,1.98-.31,2.82-1.57,2.69-3.44Zm-75.68,103.54c-.75,2.33-2.28,4.28-4.72,3.42-1.92-.68-1.82-3.15-1.54-5.12.48-3.41,2.78-6.81-.14-10.59-4.68,2.89-4.19,7.17-3.55,11.52.37,2.54,2.74,6.02-.9,7.18-3.26,1.04-3.84-3.11-5.35-5.2-.75-1.05-.98-2.65-2.79-2.43-1.44.62-1.21,2.19-.78,2.75,6.28,8.28,1.76,16.63.55,25.07-4.36,30.43-1.06,59.65,14.85,86.62,1.23,2.08,2.47,3.85.2,5.63-2.55,2.01-3.77-.29-5.24-1.95-2.87-3.23-3.34-9.61-7.61-10.02-5.34-.51-10.14,3.67-14.96,6.27-41.6,22.44-72.45,54.8-88.76,99.5-11.45,31.37-12.31,63.98-7.91,96.97,1.64,12.27,3.18,24.48,6.25,36.47,15.31,59.82,51.78,101.79,107.88,126.66,40.97,18.17,84.18,25.22,128.88,23.64,6.79-.24,13.97,1.82,19.68-3.84,8.93,7.03,17.7.04,26.23-.98,22.91-2.75,44.34-10.92,62.66-25.09,57.7-44.6,85-103.43,78.38-176.37-5.85-64.44-36.9-115.87-85.91-157.12-3.03-2.55-4.88-2.82-6.85,1.03-1.03,2.01-2.56,5.03-5.62,2.79-2.33-1.7-.7-3.83.34-5.85,13.18-25.55,17.57-53.11,18.51-81.46.28-8.63-1.01-17.65,7.24-24.03,1.54-1.19,2.21-3.78,2.77-5.86.5-1.83.49-4.09-1.46-5.2-1.69-.97-2.98.65-4.36,1.44-2.21,1.26-3.98,5.08-6.93,2.66-3.27-2.67.08-5.47,1.16-8.06.77-1.85,1.35-3.69.6-5.58-.48-1.2-1.18-2.87-2.16-3.2-1.8-.61-3.17.91-3.68,2.52-.92,2.87-1.44,5.87-2.25,8.77-.44,1.58-1.04,3.45-3.07,3.34-2.47-.13-2.95-2.18-2.98-4.21-.03-1.92.42-3.86.23-5.75-.25-2.38-.33-5.69-3.64-5.44-2.99.22-3.34,3.27-3.34,5.83,0,1.92.21,3.85.41,5.76.22,2.11,1.38,4.72-1.75,5.43-2.77.63-3.67-1.9-4.66-3.83-1.82-3.55-3.5-10.14-7.12-8.39-3.62,1.74.01,7.66,1.53,11.5.91,2.29,2.94,4.48.1,6.52-2.18,1.57-4.05,0-5.9-1.31-1.76-1.27-3.63-2.57-5.65-3.25-1.83-.61-3.93-.19-5.2,1.61-1.19,1.69-.26,3.5.92,4.42,10.36,8.05,7.81,18.99,6.93,29.61-1.59,19.05-4.6,37.72-13.9,54.81-.53.97-.82,2.12-1.53,2.91-3.08,3.47-5.42,11.67-9.84,8.81-5.57-3.6,2.23-7.55,4.25-11.03,3.29-5.7,4.05-9.17-3.73-10.74-4.29-.87-8.52-2.34-12.59-4.01-6.94-2.86-12.84-1.86-19.31,2.2-15.08,9.45-50.58,5.39-64.66-6.7-3.24-2.79-23.23-3.06-25.78-.1-2.21,2.57.8,4.31,1.62,6.39.91,2.28,4.05,4.77-.19,6.76-3.52,1.65-4.33-1.88-5.21-3.67-8.28-16.94-11.01-34.99-10.07-53.68.23-4.66.65-9.33,1.31-13.95.8-5.59,1.91-10.7,9.4-11.45,4-.4,5.61-4.79,7.12-8.32.4-.94.64-2.24-.75-2.79-3.14-1.26-6.44-1.88-9.65-.71-1.44.52-2.47,2.13-3.75,3.16-1.33,1.08-2.98,2-4.51.88-2-1.47-1.04-3.31-.06-5.07,1.87-3.37,3.75-6.74,5.4-10.21.65-1.37,1.75-3.25.1-4.51-1.88-1.44-3.77-.31-5.11,1.15-1.85,2-3.34,4.33-5.19,6.34-1.94,2.11-1.71,7.85-6.32,5.5-4.21-2.15-.17-5.83.26-8.79.57-3.9,3.63-7.34,2.29-13.14-5.25,4.95-7.43,9.92-9.12,15.18Zm99.22,582.29c-1.85,1.69-4.26,2.32-5.73.12-1.32-1.98.13-4.6,2.03-5.28,6.9-2.45,3.85-6.86,3.4-11.59-1.11-11.61-1.35-23.33-1.57-35.01-.15-7.85-.02-15.75.7-23.57.4-4.31-1.6-4.34-4.66-4.53-9.03-.56-18.13-.8-27.04-2.19-6.12-.95-5.54,3.7-6.22,6.41-5.47,22.03-7.89,44.38-7.03,67.13.59,15.58,2.61,30.73,10.39,44.49,13.37,23.67,46.17,33.77,70.99,21.91,11.82-5.65,22.43-12.7,29.18-24.64,4.57-8.09,8.17-16.45,4.55-25.32-4.96-12.18-14.97-18.33-28.07-19.7-6.72-.7-12.99,1.1-20.98,2.82-6.4.86-13.83,3.35-19.96,8.93Zm-6.56-505.39c-1.2-.89-3.09-3.28-3.92-1.72-3.28,6.19-8.48,8.11-14.91,8.59-.65.05-1.14,3.23-3.31,2.33-2.47-1.02-2.37-3.55-2.41-5.7-.14-7.16-.71-13.95-4.29-20.67-2.75-5.16-5-4.54-8.85-2.26-3.31,1.96-7.73,1.98-5.08,8.56,10.87,27.02,24.16,33.36,58.48,29.23,22.84-2.75,31.36-15.71,27.02-38.31-2.39-12.44-5.49-24.75-8.27-37.12-.49-2.17-.81-4.72-3.36-5.21-3.35-.64-2.67,2.69-3.65,4.39-.53.92-1.33,2.62-1.73,2.54-6.07-1.2-12.1-2.69-15.58,4.66-.91-.52-2.52-.94-2.63-1.59-.7-4.45,2.16-7.78,4.12-11.33,1.9-3.46,4.44-2.19,6.99-.63,1.25.77,3.13,2.57,4.04.23,2.02-5.18,5.5-5.46,9.97-3.92,1.6.55,2.74-.03,2.69-1.84-.05-1.61.11-3.59-.74-4.73-1.1-1.48-3.05-.48-4.52.18-10.4,4.7-21.47,6.92-32.6,8.88-4.04.71-8.24,1.25-12.29.93-5.24-.41-7.25,1.05-6.68,6.55.84,8.21,1.2,16.47,1.56,24.71.2,4.7,2.83,7.97,6.51,9.86,3.81,1.95,4.64-2.76,6.81-4.45,2.67-2.07,4.92-4.64,8.34-.98,1.29,1.37,2.52,4.9,4.95,2.72,2.53-2.27,4.96-5.53,3.34-9.48-1.03-2.51-3.5-5.38.25-6.89,3.52-1.42,4.31,2.66,5.56,4.82,8.05,13.84,11.97,28.73,10.9,44.83-.18,2.71.49,6.31-3.49,6.07-3.35-.2-2.47-3.75-2.64-6.03-.18-2.43.54-4.96-1.24-7.76q-9.47,7.87-19.35.54Zm-18.41-12.29c.25,3.64-1.68,8.11,3.2,10.09,5.43,2.2,4.77-3.8,7.02-5.82,3-2.69,5.11-3.16,8.52-.56,3.29,2.5,5.31,9.16,10.84,5.98,7.59-4.35,8.3-9.68,4.12-19.08-.33-.73-.75-1.42-1.38-2.59-1.01,1.28-1.99,2.22-2.62,3.36-2.89,5.26-6.11,5.93-10.01.99-1.6-2.03-3.47-4.17-5.65-.67-3.79,6.11-8.41,7.38-14.84,1.34.39,3.33.67,5.14.79,6.95Zm36.77-104.62c-3.46-4.83-8.59-6.67-14.46-5.95-6.21.76-11.96,2.66-14.48,9.14-1.8,4.62-1.43,8.46,5.09,7.7,6.78-.79,13.53-1.84,20.51-2.8,6.36-.3,6.36-3.88,3.34-8.09Zm-20.61-42.48c1.68-1.76,1.47-3.46.01-5.06-1.06-1.17-2.42-1.27-3.49.08-6.99,8.75-14.8,16.94-19.21,27.48-.63,1.5-.69,3.23.96,5.23,6.82-9.73,13.65-19.24,21.73-27.73Zm-5.14,24.31c3.72-4.72,7.73-9.21,11.73-13.71,1.52-1.71,1.87-3.05.12-4.88-1.76-1.85-2.73-.77-3.89.53-6.14,6.87-12.11,13.84-16.9,22.22,4.29.28,6.74-1.36,8.94-4.16Zm10.6,49.22c-4.77-.1-7.4-4.05-9.37-8.12-1.05-2.17-.5-6.62-4.63-4.87-2.8,1.19-.56,4.39-.03,6.45,3.12,12.01,15.88,14.38,27.8,3.63-5.84,1.32-9.83,2.98-13.77,2.9Zm-12.86-83.51c1.47-1.77,1.57-3.58-.03-5.06-2.27-2.11-3.57.3-4.44,1.66-4.02,6.31-11.06,11.23-10.32,21.5,5.55-6.8,10.13-12.48,14.78-18.1Zm15.28,68.26c-2.2.29-5.46-.38-6.09,2.64-.43,2.05.96,4.22,2.84,5.6,2.56,1.89,5.15,1.58,7.58-.24,2.63-1.96,3.16-4.95,3.71-7.94-2.73-.05-5.43-.41-8.04-.07Zm10.88-35c-.67-3.97-2.83-8.42-5.42-8.48-5.3-.11-6.36,6.32-10.78,9.02,6.13,3.03,10.83.25,16.19-.55Zm-50.57-57.27c3.45.56,6.82.1,7.63-3.15.32-1.27-3.01-3.45-5.07-5.63-2.37,3.38-.03,6.56-2.56,8.78Zm67.82,82.43c-4.15,6.29-2.39,12.45.4,18.23-1.32-6.28-1.27-12.24-.4-18.23ZM246.32,9.07c-2.92,2.32-.59,4.27.17,6.57,1.88-2.37,2.23-4.38-.17-6.57Zm50.44,118.87c.32-.26.42-.77.62-1.17-.73-.14-1.46-.32-2.19-.35-.08,0-.19.9-.29,1.38.56.97,1.27.63,1.85.14Zm-1.87,3.15c.14,0,.26-.38.39-.58-.38-.08-.77-.22-1.15-.2-.14,0-.26.38-.39.59.38.09.77.22,1.15.2Z"/>
      <path class="cls-9" d="m76.94,638.9c-.21,3.68-.47,7.36-.6,11.05-.11,2.94.68,6.93-3.59,6.85-4.01-.08-2.94-4.16-2.67-6.52,1.1-9.46-.93-18.5-3.47-27.41-3.95-13.87-16.33-25.13-26.91-26.42-19.17-2.34-31.8,15.48-32.33,32.67-.72,22.93,9.49,40.35,28.93,52.45,10.13,6.3,20.22,11.22,32.87,12.25,17.29,1.4,30.3-6.14,42.8-15.52,15.04-11.29,27.69-25.24,39.99-39.43,3.61-4.16,6.95-8.56,10.62-12.66,2.86-3.2,3.09-5.01-1.41-7.09-6.99-3.22-13.86-6.86-20.28-11.09-4.1-2.7-6.47-1.94-9.92.97-13.65,11.54-27.86,22.4-43.22,31.59-2.81,1.68-6.67,6.53-9.81-.12-.33-.52-.66-1.05-.99-1.57Z"/>
      <path class="cls-9" d="m191.04,141.53c-.43,2.96-4.47,6.64-.26,8.79,4.61,2.35,4.38-3.39,6.32-5.5,1.85-2.01,3.34-4.34,5.19-6.34,1.35-1.46,3.24-2.58,5.11-1.15,1.65,1.26.55,3.14-.1,4.51-1.65,3.48-3.53,6.85-5.4,10.21-.98,1.76-1.94,3.61.06,5.07,1.53,1.12,3.18.2,4.51-.88,1.28-1.03,2.31-2.64,3.75-3.16,3.21-1.17,6.52-.54,9.65.71,1.39.56,1.15,1.85.75,2.79-1.5,3.53-3.11,7.92-7.12,8.32-7.49.75-8.6,5.86-9.4,11.45-.67,4.62-1.08,9.29-1.31,13.95-.94,18.69,1.79,36.74,10.07,53.68.88,1.79,1.69,5.32,5.21,3.67,4.24-1.99,1.1-4.48.19-6.76-.83-2.08-3.83-3.82-1.62-6.39,2.54-2.96,22.53-2.68,25.78.1,14.08,12.1,49.59,16.16,64.66,6.7,6.46-4.05,12.36-5.05,19.31-2.2,4.06,1.67,8.29,3.14,12.59,4.01,7.78,1.57,7.02,5.04,3.73,10.74-2.01,3.49-9.82,7.43-4.25,11.03,4.42,2.85,6.76-5.34,9.84-8.81.71-.8,1-1.95,1.53-2.91,9.3-17.08,12.31-35.76,13.9-54.81.89-10.62,3.43-21.57-6.93-29.61-1.18-.92-2.11-2.73-.92-4.42,1.27-1.79,3.37-2.22,5.2-1.61,2.02.68,3.89,1.98,5.65,3.25,1.84,1.32,3.72,2.88,5.9,1.31,2.84-2.04.81-4.23-.1-6.52-1.52-3.84-5.15-9.76-1.53-11.5,3.62-1.74,5.3,4.85,7.12,8.39.99,1.93,1.89,4.46,4.66,3.83,3.14-.72,1.97-3.33,1.75-5.43-.2-1.92-.41-3.84-.41-5.76,0-2.57.34-5.61,3.34-5.83,3.31-.24,3.39,3.06,3.64,5.44.2,1.89-.25,3.83-.23,5.75.03,2.02.52,4.07,2.98,4.21,2.03.11,2.63-1.76,3.07-3.34.82-2.91,1.34-5.9,2.25-8.77.52-1.61,1.88-3.13,3.68-2.52.98.33,1.68,2,2.16,3.2.75,1.89.17,3.73-.6,5.58-1.08,2.59-4.43,5.38-1.16,8.06,2.96,2.42,4.73-1.41,6.93-2.66,1.38-.79,2.67-2.41,4.36-1.44,1.95,1.12,1.96,3.38,1.46,5.2-.56,2.08-1.23,4.68-2.77,5.86-8.25,6.37-6.96,15.4-7.24,24.03-.93,28.34-5.32,55.91-18.51,81.46-1.04,2.02-2.66,4.15-.34,5.85,3.06,2.24,4.59-.78,5.62-2.79,1.98-3.85,3.82-3.59,6.85-1.03,49,41.26,80.05,92.69,85.91,157.12,6.63,72.94-20.68,131.77-78.38,176.37-18.33,14.17-39.75,22.33-62.66,25.09-8.53,1.03-17.29,8.01-26.23.98-5.71,5.67-12.89,3.6-19.68,3.84-44.7,1.58-87.91-5.47-128.88-23.64-56.1-24.88-92.57-66.85-107.88-126.66-3.07-11.99-4.62-24.2-6.25-36.47-4.4-33-3.53-65.6,7.91-96.97,16.31-44.7,47.15-77.06,88.76-99.5,4.82-2.6,9.62-6.78,14.96-6.27,4.27.41,4.74,6.79,7.61,10.02,1.47,1.66,2.69,3.96,5.24,1.95,2.27-1.78,1.03-3.55-.2-5.63-15.9-26.97-19.2-56.19-14.85-86.62,1.21-8.45,5.72-16.8-.55-25.07-.43-.56-.66-2.13.78-2.75,1.82-.22,2.04,1.38,2.79,2.43,1.51,2.1,2.09,6.24,5.35,5.2,3.64-1.16,1.28-4.65.9-7.18-.64-4.35-1.13-8.63,3.55-11.52,2.92,3.78.62,7.18.14,10.59-.28,1.97-.38,4.44,1.54,5.12,2.44.86,3.97-1.09,4.72-3.42,1.69-5.26,3.87-10.22,9.12-15.18,1.34,5.81-1.73,9.25-2.29,13.14Zm106.21,325.67c21.35,31.13,46.8,58.98,70.81,87.98,5.97,7.21,12.21,14.2,18.1,21.46,3.59,4.42,6.43,5.1,11.25.99,42.49-36.26,60.69-82.32,57.78-137.79-1.15-21.94-4.62-43.54-11.73-63.87-13.79-39.48-39.07-70.41-76.15-90.99-20.68-11.48-42.75-18.88-65.75-24-6.39-1.42-7.55,1.16-7.77,6.59-1.7,41.74-3.46,83.48-5.42,125.2-.73,15.54-2.02,31.04-3.06,46.57-.16,2.46-.33,4.92-.55,8.17,3.96,6.27,7.99,13.14,12.48,19.7Zm-211.84-38.01c1.39,32.15,9.98,61.52,24.19,89.82,2.95,5.88,5.86,7.19,12.12,3.76,41.92-22.96,84.03-45.6,126.19-68.13,5.42-2.9,7.75-6.45,8.15-12.73,3.76-58.4,7.81-116.79,11.91-175.17.42-6.05-1.71-8.54-7.83-8.2-16.48.93-32.99,1.46-48.26,5.08-81.73,15.67-129.4,97.57-126.47,165.55Zm137.86,62.67c-27.04,15.3-54.66,29.6-80.37,47.21-6.35,4.35-6.52,7.19-1.23,12.6,26.06,26.7,56.98,44.92,92.94,54.74,5.57,1.52,8.45,1.09,9.13-5.91,3.87-39.66,8.2-79.27,12.43-118.9.39-3.66,1.38-7.44-3.84-6.99-10.11,6.02-19.47,11.83-29.05,17.25Zm134.51,104.35c4.55-2.26,4.83-4.23,1.98-8.1-25.44-34.55-50.78-69.17-76.09-103.81-1.2-1.64-2.23-3.31-4.5-2.81-2.86.64-2.64,3.29-2.85,5.36-2.03,19.93-4.01,39.87-5.91,59.82-1.75,18.33-3.17,36.69-5.23,54.98-.76,6.73.34,10.06,8.05,9.97,18.21-.23,36.2-1.99,55.74-6.57,8.21-3.23,19.08-4.01,28.81-8.84Z"/>
      <path class="cls-9" d="m303.39,716.92c-6.4.86-13.83,3.35-19.96,8.93-1.85,1.69-4.26,2.32-5.73.12-1.32-1.98.13-4.6,2.03-5.28,6.9-2.45,3.85-6.86,3.4-11.59-1.11-11.61-1.35-23.33-1.57-35.01-.15-7.85-.02-15.75.7-23.57.4-4.31-1.6-4.34-4.66-4.53-9.03-.56-18.13-.8-27.04-2.19-6.12-.95-5.54,3.7-6.22,6.41-5.47,22.03-7.89,44.38-7.03,67.13.59,15.58,2.61,30.73,10.39,44.49,13.37,23.67,46.17,33.77,70.99,21.91,11.82-5.65,22.43-12.7,29.18-24.64,4.57-8.09,8.17-16.45,4.55-25.32-4.96-12.18-14.97-18.33-28.07-19.7-6.72-.7-12.99,1.1-20.98,2.82Z"/>
      <path class="cls-10" d="m296.23,219.92q-9.47,7.87-19.35.54c-1.2-.89-3.09-3.28-3.92-1.72-3.28,6.19-8.48,8.11-14.91,8.59-.65.05-1.14,3.23-3.31,2.33-2.47-1.02-2.37-3.55-2.41-5.7-.14-7.16-.71-13.95-4.29-20.67-2.75-5.16-5-4.54-8.85-2.26-3.31,1.96-7.73,1.98-5.08,8.56,10.87,27.02,24.16,33.36,58.48,29.23,22.84-2.75,31.36-15.71,27.02-38.31-2.39-12.44-5.49-24.75-8.27-37.12-.49-2.17-.81-4.72-3.36-5.21-3.35-.64-2.67,2.69-3.65,4.39-.53.92-1.33,2.62-1.73,2.54-6.07-1.2-12.1-2.69-15.58,4.66-.91-.52-2.52-.94-2.63-1.59-.7-4.45,2.16-7.78,4.12-11.33,1.9-3.46,4.44-2.19,6.99-.63,1.25.77,3.13,2.57,4.04.23,2.02-5.18,5.5-5.46,9.97-3.92,1.6.55,2.74-.03,2.69-1.84-.05-1.61.11-3.59-.74-4.73-1.1-1.48-3.05-.48-4.52.18-10.4,4.7-21.47,6.92-32.6,8.88-4.04.71-8.24,1.25-12.29.93-5.24-.41-7.25,1.05-6.68,6.55.84,8.21,1.2,16.47,1.56,24.71.2,4.7,2.83,7.97,6.51,9.86,3.81,1.95,4.64-2.76,6.81-4.45,2.67-2.07,4.92-4.64,8.34-.98,1.29,1.37,2.52,4.9,4.95,2.72,2.53-2.27,4.96-5.53,3.34-9.48-1.03-2.51-3.5-5.38.25-6.89,3.52-1.42,4.31,2.66,5.56,4.82,8.05,13.84,11.97,28.73,10.9,44.83-.18,2.71.49,6.31-3.49,6.07-3.35-.2-2.47-3.75-2.64-6.03-.18-2.43.54-4.96-1.24-7.76Z"/>
      <path class="cls-10" d="m258.02,107.7c-5.29,6.79-4.4,15.01-4.86,22.76-1.11,18.61-4.01,20.13,19.12,18.87,11.51-.63,22.06-4.79,32.44-9.02,7.8-3.18,1.06-6.48-.63-11.13-6.42,11.88-15.64,16.6-27.16,15.9-10.6-.65-17.99-9.9-18.95-22.64-.37-4.91-.09-9.87-.1-14.81,0,0,.14.07.14.07Z"/>
      <path class="cls-10" d="m257.67,201.21c.39,3.33.67,5.14.79,6.95.25,3.64-1.68,8.11,3.2,10.09,5.43,2.2,4.77-3.8,7.02-5.82,3-2.69,5.11-3.16,8.52-.56,3.29,2.5,5.31,9.16,10.84,5.98,7.59-4.35,8.3-9.68,4.12-19.08-.33-.73-.75-1.42-1.38-2.59-1.01,1.28-1.99,2.22-2.62,3.36-2.89,5.26-6.11,5.93-10.01.99-1.6-2.03-3.47-4.17-5.65-.67-3.79,6.11-8.41,7.38-14.84,1.34Z"/>
      <path class="cls-10" d="m291.89,111.64c6.36-.3,6.36-3.88,3.34-8.09-3.46-4.83-8.59-6.67-14.46-5.95-6.21.76-11.96,2.66-14.48,9.14-1.8,4.62-1.43,8.46,5.09,7.7,6.78-.79,13.53-1.84,20.51-2.8Z"/>
      <path class="cls-3" d="m252.89,88.81c6.82-9.73,13.65-19.24,21.73-27.73,1.68-1.76,1.47-3.46.01-5.06-1.06-1.17-2.42-1.27-3.49.08-6.99,8.75-14.8,16.94-19.21,27.48-.63,1.5-.69,3.23.96,5.23Z"/>
      <path class="cls-5" d="m260.54,89.55c4.29.28,6.74-1.36,8.94-4.16,3.72-4.72,7.73-9.21,11.73-13.71,1.52-1.71,1.87-3.05.12-4.88-1.76-1.85-2.73-.77-3.89.53-6.14,6.87-12.11,13.84-16.9,22.22Z"/>
      <path class="cls-4" d="m293.85,131.7c-5.84,1.32-9.83,2.98-13.77,2.9-4.77-.1-7.4-4.05-9.37-8.12-1.05-2.17-.5-6.62-4.63-4.87-2.8,1.19-.56,4.39-.03,6.45,3.12,12.01,15.88,14.38,27.8,3.63Z"/>
      <path class="cls-5" d="m252.44,69.19c5.55-6.8,10.13-12.48,14.78-18.1,1.47-1.77,1.57-3.58-.03-5.06-2.27-2.11-3.57.3-4.44,1.66-4.02,6.31-11.06,11.23-10.32,21.5Z"/>
      <path class="cls-7" d="m290.53,119.42c-2.73-.05-5.43-.41-8.04-.07-2.2.29-5.46-.38-6.09,2.64-.43,2.05.96,4.22,2.84,5.6,2.56,1.89,5.15,1.58,7.58-.24,2.63-1.96,3.16-4.95,3.71-7.94Z"/>
      <path class="cls-3" d="m277.19,84.9c6.13,3.03,10.83.25,16.19-.55-.67-3.97-2.83-8.42-5.42-8.48-5.3-.11-6.36,6.32-10.78,9.02Z"/>
      <path class="cls-10" d="m245.37,18.31c-2.37,3.38-.03,6.56-2.56,8.78,3.45.56,6.82.1,7.63-3.15.32-1.27-3.01-3.45-5.07-5.63Z"/>
      <path class="cls-6" d="m311.03,127.75c-1.32-6.28-1.27-12.24-.4-18.23-4.15,6.29-2.39,12.45.4,18.23Z"/>
      <path class="cls-10" d="m257.2,43.47c1.97-.31,2.82-1.57,2.69-3.45-.16-2.27.06-4.7-1.88-6.42-.34-.3-1.3-.45-1.56-.21-2.05,1.87-.05,3.91-.07,5.88-.02,1.35.4,2.71.62,4.06l.2.14Z"/>
      <path class="cls-10" d="m246.49,15.64c1.88-2.37,2.23-4.38-.17-6.57-2.92,2.32-.59,4.27.17,6.57Z"/>
      <path class="cls-10" d="m256.99,43.33c-1.93,1.04-5.08,1.06-3.77,5.31,2.6-.92,3.18-3.14,3.97-5.17,0,0-.2-.14-.2-.14Z"/>
      <path class="cls-4" d="m294.92,127.79c.54.98,1.25.64,1.83.15.32-.26.42-.77.62-1.17-.73-.14-1.46-.32-2.19-.35-.08,0-.19.9-.27,1.37Z"/>
      <path class="cls-10" d="m262.54,98.07c.65-.35,1.3-.7,1.95-1.06-.21-.13-.58-.4-.61-.37-.43.48-.82,1.01-1.21,1.52,0,0-.12-.1-.12-.1Z"/>
      <path class="cls-10" d="m262.66,98.17c-1.56.02-2.63.67-2.91,2.3,0,0-.12-.06-.12-.06,1.68.1,2.58-.76,2.91-2.34,0,0,.12.1.12.1Z"/>
      <path class="cls-10" d="m258.75,103.99c1.34-.94,1.67-2.12.88-3.58,0,0,.12.06.12.06-1.27.96-1.3,2.23-.86,3.6l-.14-.07Z"/>
      <path class="cls-10" d="m258.88,104.07c-1.53.91-1.45,2.21-.86,3.63,0,0-.14-.07-.14-.07,1.29-.97,1.11-2.29.86-3.63,0,0,.14.07.14.07Z"/>
      <path class="cls-4" d="m293.74,130.91c.38.07.77.21,1.15.18.14,0,.26-.38.39-.58-.38-.08-.77-.22-1.15-.2-.14,0-.26.38-.39.6Z"/>
      <path class="cls-8" d="m285.31,439.33c1.04-15.52,2.33-31.03,3.06-46.57,1.96-41.73,3.72-83.46,5.42-125.2.22-5.42,1.38-8.01,7.77-6.59,23,5.12,45.07,12.52,65.75,24,37.08,20.58,62.36,51.52,76.15,90.99,7.1,20.34,10.57,41.93,11.73,63.87,2.91,55.47-15.29,101.53-57.78,137.79-4.83,4.12-7.67,3.44-11.25-.99-5.89-7.27-12.13-14.26-18.1-21.46-24.01-29-49.46-56.85-70.81-87.98-4.5-6.55-8.53-13.43-12.48-19.7.22-3.24.38-5.7.55-8.17Zm13.9,19.57c26.76,39.57,59.53,74.3,89.63,111.18,3.8,4.65,5.93,1.6,8.52-.75,33.84-30.7,51.78-68.65,51.67-114.61-.09-37.44-6.37-73.63-25.39-106.44-22.45-38.73-57.31-61.6-99.19-74.81-6.03-1.9-12.26-3.17-18.32-5-4.77-1.44-6.13.04-6.27,4.97-.62,21.44-1.55,42.87-2.53,64.3-1.57,34.29-2.35,68.64-6.38,102.78-.19,1.6.23,3.27.44,5.81,2.33,3.77,4.92,8.29,7.83,12.59Z"/>
      <path class="cls-8" d="m260.14,258.55c6.12-.35,8.25,2.14,7.83,8.2-4.1,58.38-8.15,116.76-11.91,175.17-.4,6.27-2.73,9.83-8.15,12.73-42.16,22.53-84.26,45.17-126.19,68.13-6.27,3.43-9.17,2.12-12.12-3.76-14.21-28.31-22.8-57.67-24.19-89.82-2.93-67.99,44.73-149.88,126.47-165.55,15.27-3.62,31.78-4.15,48.26-5.08Zm-164.14,129.39c-5.49,20.86-5.12,42.1-2.05,63.81,2.99,21.14,10.09,40.31,18.68,59.4,2.65,5.89,4.94,6.89,10.89,3.62,39.5-21.7,79.15-43.16,118.99-64.22,6.07-3.21,7.3-6.87,7.67-13.2,2.66-45,5.86-89.96,8.89-134.93.66-9.87.99-19.78,2.13-29.6.7-6.03-.59-8.41-7.14-7.82-14.81,1.33-29.68,1.96-44.48,5.25-61.37,16.41-97.7,57.44-113.58,117.69Z"/>
      <path class="cls-8" d="m256.16,481.6c-4.23,39.62-8.55,79.24-12.43,118.9-.68,6.99-3.56,7.43-9.13,5.91-35.96-9.82-66.87-28.04-92.94-54.74-5.28-5.41-5.12-8.25,1.23-12.6,25.71-17.61,53.32-31.91,80.37-47.21,9.58-5.42,18.95-11.24,29.05-17.25,5.22-.45,4.23,3.33,3.84,6.99Zm-60.93,33.03c-14.76,8.5-29.2,17.54-43.85,26.23-5.04,2.98-6.4,5.15-1.28,10.2,22.85,22.53,49.51,38.29,80.19,47.44,3.86,1.15,7.04,2.6,7.68-3.88,3.6-36.35,7.57-72.66,11.56-110.38-19,10.6-36.77,20.29-54.31,30.39Z"/>
      <path class="cls-8" d="m273.23,611.61c-7.71.1-8.81-3.24-8.05-9.97,2.06-18.29,3.47-36.65,5.23-54.98,1.91-19.95,3.89-39.89,5.91-59.82.21-2.07-.01-4.72,2.85-5.36,2.26-.5,3.3,1.17,4.5,2.81,25.31,34.64,50.65,69.26,76.09,103.81,2.85,3.87,2.57,5.84-1.98,8.1-9.73,4.83-20.6,5.6-28.81,8.84-19.54,4.58-37.52,6.34-55.74,6.57Zm4.66-78.39c-2.02,21.63-3.82,43.29-6.16,64.89-.58,5.34.4,7.36,6.01,7.19,24.09-.76,47.74-3.83,70.48-12.27,3.1-1.15,6.02-1.98,2.93-6.17-22.55-30.5-45.04-61.06-67.55-91.59-.71.16-1.42.32-2.14.48-1.19,12.49-2.41,24.98-3.58,37.48Z"/>
      <path class="cls-1" d="m290.95,440.5c4.04-34.14,4.81-68.49,6.38-102.78.98-21.43,1.92-42.86,2.53-64.3.14-4.93,1.5-6.41,6.27-4.97,6.06,1.83,12.29,3.1,18.32,5,41.88,13.22,76.74,36.08,99.19,74.81,19.02,32.81,25.3,69,25.39,106.44.11,45.96-17.83,83.9-51.67,114.61-2.6,2.36-4.72,5.41-8.52.75-30.1-36.88-62.86-71.61-89.63-111.18-2.91-4.3-5.5-8.82-7.83-12.59-.21-2.53-.62-4.21-.44-5.81Zm57.18-121.44c.88-2.34,1.91-6.3-1.52-7.16-4.54-1.14-3.82,3.34-4.64,6.03-.43,1.42-.07,3.49-2.5,3.83-2.67-2.21-.54-5.09-.85-7.61-.33-2.65.72-6.23-3.17-6.38-3.54-.13-2.54,3.44-3.1,5.7-.73,2.93,1.1,6.79-2.94,8.74-2.99-2.48-.76-5.77-1.56-8.51-.51-1.76-1.5-3.06-3.2-3.42-1.59-.33-2.97,1-2.82,2.3,1.86,15.9-9.8,28.99-8.99,44.87.41,8.05,1.19,15.91,3.27,23.57,1.97,7.3,8.04,10.2,14.94,11.19,7.66,1.1,13.29-2.45,17.36-8.75.88-1.37,1.62-2.82,2.45-4.27,3.35.76,2.75,3.96,4.09,5.8,4.83,6.67,10.8,11.26,19.39,10.32,8.27-.9,12.56-7.04,14.42-14.18,4.33-16.65,4.57-33.37-4.3-48.78-2.38-4.14-.11-6.71.36-9.98.43-2.97,1.69-6.88-2.09-7.78-4.09-.98-3.09,3.46-3.91,5.77-.61,1.73-.46,3.91-3.07,4.53-2.22-2.98-.35-6.32-.72-9.43-.28-2.42.56-5.54-2.89-5.82-3.59-.29-3.5,2.64-3.31,5.24.04.55.1,1.13-.04,1.65-.68,2.5.99,6.7-2.4,7.14-4.27.55-2.14-4-3.07-6.18-.81-1.91-.35-5.01-3.26-4.96-3.76.07-2.86,3.44-2.84,5.7.05,5.78.52,11.6-4.59,16.77-3.65-5.02-6.86-9.57-4.47-15.95Zm-20.14,103.67c0-2,.62-3.97-2.02-4.52-1.92-.4-3.62.78-3.77,2.38-.47,5.03-10.79,10.98,1.21,15.11.98.34,1.46,2.24,2.1,3.45,9.06,17.42,25.83,23.93,43.52,16.06,4.94-2.2,6.42-.56,9.05,2.94,9.24,12.3,23.1,12.99,32.07,2.24,4.25-5.09,4.38-10.84,2.54-16.3-3.34-9.94-9.22-18.26-19.55-22.09-4.3-1.59-6.36-4.38-3.5-7.74,3.97-4.67,1.25-5.99-2.35-7.74-1.48-.72-2.8-1.79-4.29-2.46-2.56-1.15-5.38-4.56-7.95-1.07-2.56,3.49,1.98,4.31,3.56,6.11,11.66,13.29,2.19,37.39-16.43,41.68-19.39,4.46-34.2-7.64-34.17-28.04Z"/>
      <path class="cls-1" d="m209.57,270.24c-61.37,16.41-97.7,57.44-113.58,117.69-5.49,20.86-5.12,42.1-2.05,63.81,2.99,21.14,10.09,40.31,18.68,59.4,2.65,5.89,4.94,6.89,10.89,3.62,39.5-21.7,79.15-43.16,118.99-64.22,6.07-3.21,7.3-6.87,7.67-13.2,2.66-45,5.86-89.96,8.89-134.93.66-9.87.99-19.78,2.13-29.6.7-6.03-.59-8.41-7.14-7.82-14.81,1.33-29.68,1.96-44.48,5.25Z"/>
      <path class="cls-1" d="m249.55,484.23c-19,10.6-36.77,20.29-54.31,30.39-14.76,8.5-29.2,17.54-43.85,26.23-5.04,2.98-6.4,5.15-1.28,10.2,22.85,22.53,49.51,38.29,80.19,47.44,3.86,1.15,7.04,2.6,7.68-3.88,3.6-36.35,7.57-72.66,11.56-110.38Z"/>
      <path class="cls-1" d="m281.47,495.75c-1.19,12.49-2.41,24.98-3.58,37.48-2.02,21.63-3.82,43.29-6.16,64.89-.58,5.34.4,7.36,6.01,7.19,24.09-.76,47.74-3.83,70.48-12.27,3.1-1.15,6.02-1.98,2.93-6.17-22.55-30.5-45.04-61.06-67.55-91.59-.71.16-1.42.32-2.14.48Z"/>
      <path class="cls-8" d="m357.19,318.23c-.02-2.26-.92-5.63,2.84-5.7,2.91-.06,2.44,3.05,3.26,4.96.93,2.18-1.2,6.73,3.07,6.18,3.39-.44,1.72-4.64,2.4-7.14.14-.52.08-1.1.04-1.65-.19-2.6-.28-5.53,3.31-5.24,3.46.28,2.61,3.4,2.89,5.82.37,3.11-1.5,6.44.72,9.43,2.62-.62,2.46-2.8,3.07-4.53.82-2.31-.18-6.75,3.91-5.77,3.78.91,2.52,4.81,2.09,7.78-.47,3.28-2.74,5.85-.36,9.98,8.88,15.41,8.63,32.13,4.3,48.78-1.86,7.15-6.15,13.28-14.42,14.18-8.59.94-14.57-3.65-19.39-10.32-1.34-1.85-.74-5.05-4.09-5.8-.83,1.45-1.57,2.9-2.45,4.27-4.07,6.3-9.69,9.85-17.36,8.75-6.89-.99-12.97-3.89-14.94-11.19-2.07-7.67-2.86-15.52-3.27-23.57-.81-15.89,10.86-28.97,8.99-44.87-.15-1.3,1.23-2.63,2.82-2.3,1.71.35,2.69,1.66,3.2,3.42.8,2.74-1.43,6.04,1.56,8.51,4.05-1.95,2.21-5.81,2.94-8.74.56-2.25-.44-5.83,3.1-5.7,3.9.15,2.84,3.73,3.17,6.38.32,2.52-1.82,5.4.85,7.61,2.43-.34,2.07-2.41,2.5-3.83.82-2.69.09-7.17,4.64-6.03,3.43.86,2.4,4.82,1.52,7.16-2.39,6.38.83,10.93,4.47,15.95,5.11-5.18,4.64-10.99,4.59-16.77Zm9.2,56.8c3.87.86,6.6-1.04,7.76-4.53,1.87-5.63,1.51-10.87-4.1-14.57-3.68-2.43-4.11-4.37.91-5.6,6.05-1.48,6.54-6.8,6.72-11.49.19-4.69-3.28-7.62-7.67-8.26-5.08-.74-8.24,2.57-10.13,6.89-3.65,8.33-3.81,17.06-2.58,25.54,1.44,5.53,2.91,10.65,9.09,12.02Zm-37.86-2.29c4.36.73,5.5-2.43,7.16-5.35,3.24-5.69,1.14-9.81-3.44-13.4-3.93-3.07-5.52-5.19,1.06-7.43,5.71-1.95,7.04-11.9,2.68-16.22-3.91-3.88-7.17-1.25-9.68,1.86-7.09,8.81-7.01,19.22-6.24,29.66.94,5.2,2.28,9.84,8.46,10.87Zm13.42,8.88c6.98-11.3,7.43-24.17,6.44-37.06-.1-1.35.09-3.65-2.31-3.61-1.69.03-1.86,1.73-2.4,2.95-1.97,4.38-4.42,7.51-1.13,13.63,5.64,10.51-4.99,21.29-20.31,21.14,5.28,8.72,15.21,10.26,19.72,2.95Zm31.67,7.32c6.35-.59,7.92-6.04,9.64-11.01,3.44-9.95,1.3-20.11,1.41-30.99-4.45,3.01-6.78,4.98-4.49,10.84,5.81,14.85-3.79,25.44-20.27,22.68,2.98,5.87,7.4,9.07,13.71,8.48Z"/>
      <path class="cls-8" d="m378.6,409.09c-1.58-1.8-6.12-2.62-3.56-6.11,2.57-3.5,5.39-.09,7.95,1.07,1.5.68,2.81,1.75,4.29,2.46,3.6,1.75,6.32,3.07,2.35,7.74-2.86,3.36-.8,6.15,3.5,7.74,10.34,3.83,16.21,12.15,19.55,22.09,1.84,5.47,1.71,11.21-2.54,16.3-8.98,10.75-22.83,10.06-32.07-2.24-2.63-3.5-4.11-5.14-9.05-2.94-17.68,7.87-34.46,1.35-43.52-16.06-.63-1.22-1.12-3.12-2.1-3.45-12-4.13-1.67-10.08-1.21-15.11.15-1.6,1.86-2.78,3.77-2.38,2.64.56,2.03,2.53,2.02,4.52-.03,20.4,14.78,32.51,34.17,28.04,18.62-4.29,28.1-28.39,16.43-41.68Zm28.61,38.95c-1.44-7.59-5.87-13.52-12.02-18.04-1.52-1.12-3.78-3.57-5.61-1.1-1.58,2.12-2.2,5.12.7,7.28,3.11,2.32,5.81,5.07,7.64,8.48.8,1.49,2.35,3.52-.36,4.85-1.73.85-3,.27-3.99-1.48-.65-1.14-1.75-2.1-2.81-2.92-1.74-1.36-2.99-5.32-5.63-2.98-2.35,2.08-5.68,4.54-4.13,9.01,2.18,6.28,10.57,11.47,17.06,10.2,6.6-1.28,10.45-6.48,9.16-13.29Z"/>
      <path class="cls-7" d="m357.31,363.01c1.44,5.53,2.91,10.65,9.09,12.02,3.87.86,6.6-1.04,7.76-4.53,1.87-5.63,1.51-10.87-4.1-14.57-3.68-2.43-4.11-4.37.91-5.6,6.05-1.48,6.54-6.8,6.72-11.49.19-4.69-3.28-7.62-7.67-8.26-5.08-.74-8.24,2.57-10.13,6.89-3.65,8.33-3.81,17.06-2.58,25.54Z"/>
      <path class="cls-7" d="m320.08,361.87c.94,5.2,2.28,9.84,8.46,10.87,4.36.73,5.5-2.43,7.16-5.35,3.24-5.69,1.14-9.81-3.44-13.4-3.93-3.07-5.52-5.19,1.06-7.43,5.71-1.95,7.04-11.9,2.68-16.22-3.91-3.88-7.17-1.25-9.68,1.86-7.09,8.81-7.01,19.22-6.24,29.66Z"/>
      <path class="cls-4" d="m322.23,378.66c5.28,8.72,15.21,10.26,19.72,2.95,6.98-11.3,7.43-24.17,6.44-37.06-.1-1.35.09-3.65-2.31-3.61-1.69.03-1.86,1.73-2.4,2.95-1.97,4.38-4.42,7.51-1.13,13.63,5.64,10.51-4.99,21.29-20.31,21.14Z"/>
      <path class="cls-4" d="m359.92,380.45c2.98,5.87,7.4,9.07,13.71,8.48,6.35-.59,7.92-6.04,9.64-11.01,3.44-9.95,1.3-20.11,1.41-30.99-4.45,3.01-6.78,4.98-4.49,10.84,5.81,14.85-3.79,25.44-20.27,22.68Z"/>
      <path class="cls-2" d="m398.05,461.33c6.6-1.28,10.45-6.48,9.16-13.29-1.44-7.59-5.87-13.52-12.02-18.04-1.52-1.12-3.78-3.57-5.61-1.1-1.58,2.12-2.2,5.12.7,7.28,3.11,2.32,5.81,5.07,7.64,8.48.8,1.49,2.35,3.52-.36,4.85-1.73.85-3,.27-3.99-1.48-.65-1.14-1.75-2.1-2.81-2.92-1.74-1.36-2.99-5.32-5.63-2.98-2.35,2.08-5.68,4.54-4.13,9.01,2.18,6.28,10.57,11.47,17.06,10.2Z"/>
    </g>
  </g>
</svg>