<?xml version="1.0" encoding="UTF-8"?>
<svg id="_레이어_2" data-name="레이어 2" xmlns="http://www.w3.org/2000/svg" viewBox="0 0 239.27 385.61">
  <defs>
    <style>
      .cls-1 {
        fill: #0070bb;
      }

      .cls-2 {
        fill: #ec6978;
      }

      .cls-3 {
        fill: #eb6a3c;
      }

      .cls-4 {
        fill: #fff;
      }

      .cls-5 {
        fill: #86d41f;
      }

      .cls-6 {
        fill: #c9c9c9;
      }

      .cls-7 {
        fill: #21f993;
      }

      .cls-8 {
        fill: #080706;
      }

      .cls-9 {
        fill: #29aae0;
      }

      .cls-10 {
        fill: #616161;
      }
    </style>
  </defs>
  <g id="_레이어_1-2" data-name="레이어 1">
    <g>
      <path class="cls-8" d="m201.97,309.77c1.09-5.12,1.72-10.29,4.77-14.91,3.76-5.68,8.8-8.89,15.44-8.41,7.57.55,12.75,4.72,15.12,12.22,1.3,4.11,1.05,8.4,1.95,12.54.08.36-.02.81-.16,1.16-4.9,12.37-12.9,21.94-25.88,25.94-11,3.39-21.06.01-30.03-6.7-10.34-7.73-18.42-17.73-26.6-27.54-1.02-1.23-1.14-1.32-2.42-.85-9.22,3.39-18.47,6.66-28.37,7.62-1.62.16-3.01,1.01-2.35,3.5,2.91,10.88,4.14,22.05,3.78,33.26-.39,11.83-2.85,23.15-12.52,31.4-3.83,3.27-8.45,5-13.27,5.96-11.53,2.29-21.24-1.56-29.18-9.8-4.08-4.23-7.61-9.12-7.49-15.47.21-11.08,8.58-15.2,17.06-16.21,4.84-.57,9.42.37,13.97,1.62,2.47.68,3.53,1.08,3.41-2.56-.29-8.64.48-17.31,0-25.98-.13-2.43-.48-2.77-3.06-2.98-7.03-.58-14.07-.86-21.1-1.71-11.56-1.39-21.9-5.41-31.63-11.45-8.94-5.55-16.18-12.84-22.87-20.98-7.22-8.78-12.15-18.62-15.61-29.18C1.35,239.32-.28,228.05.04,216.33c.28-10.34,2.45-20.28,5.3-29.86,5.13-17.27,14.99-32.14,27.45-45.23,3.61-3.79,7.32-7.44,11.81-10.16,1.55-.94,1.24-2.1.81-3.28-4.42-12.31-6.48-25-6.42-38.08,0-1.7.06-3.69-2.33-5.25-3.82-2.48-2.88-9.47,1.22-11.53,1.05-.53,1.9-1.61,1.74-1.97-.92-2.13,1.33-2.05,1.99-2.89,1.85-2.35,4.4,1.67,6.63-.43,2.27-2.14,4.36-.98,6.11.89.86.93,1.58,1.08,2.76.63,3.39-1.27,5.96.04,6.09,3.6.09,2.25.62,2.76,2.7,3.17,4.27.84,5.47,4.27,2.57,7.54-2.67,3.02-3.55,6.4-3.02,10.15.91,6.45,1.16,13.02,3.3,19.27.76,2.22,1.28,3.49,4.14,2.14,3.01-1.42,6.41-1.98,10.1-3.05-5.01-8.9-1.13-17.63.61-26.41.73-3.69,2.09-7.27.71-11.11-.78-2.16-.12-4.51,1-6.09,2.13-2.97.14-4.48-1.46-6.24-.5-.54-1.41-.68-1.99-1.17-3.82-3.23-3.73-4.04.09-7.56,2.63-2.43,4.49-5.72,8.1-7.05,2.47-.91,1.77-3.5,2.7-5.22,1.79-3.31,3.76-6.53,5.89-9.62,1.96-2.85,4.38-5.4,6.33-8.26,1.54-2.25,3.6-4.39,1.37-7.7-1.08-1.6.89-3.47,2.18-4.59,1.69-1.47,1.89-3,1.01-4.73-1.32-2.6.33-3.91,1.92-5.46,2.04-1.98,2.52.15,3.66,1.08,1.2.98,2.4-.3,3.62-.52,1.99-.36,5.3-3.32,4.91,2.12-.07.95.86.74,1.5.71,1.04-.04,2.33.56,1.9,1.39-1.25,2.43.28,2.23,1.73,3.4,1.82,1.48.1,4.45-1.06,6.45-.62,1.06-1.43,1.56-1.17,3.21.35,2.19-2.02,2.65-3.64,2.81-3.06.31-3.64,2.15-3.35,4.63.81,6.88.66,13.76.31,20.66-.02.44.5,1.24,0,1.37-4.27,1.21-1.45,3.88-1.25,5.94.78,8.01,1.73,15.97-.25,24.02-.95,3.89-.92,8.05-1.07,12.09-.13,3.53,3.41,3.29,5.32,4.09,7.91,3.32,8.06,3.33,4.27,11.31-.5,1.04-.96,2.1-1.49,3.26,2.9,1.66,6.31.15,9.25,1.45.86.38,1.06-.3,1.26-1,1.77-6.36,2.42-12.8,1.09-19.32-.15-.75-.57-1.41-.38-2.25.75-3.24.17-5.15-3.76-6.05-2.48-.57-4-3.6-3.95-6.59.04-2.7,1.34-4.08,4.27-3.88,1.28.09,1.47-.91,1.21-2.18-.78-3.87,1.88-5.37,4.89-5.96,1.55-.3,2.43-.33,3.18-2.05,1.04-2.38,3.19-.7,4.86-.5,1.38.17,2.29,1.22,4.22.45,1.81-.72,4.93-.13,5.73,2.93.28,1.05.75,1.57,1.81,1.71,3.71.5,4.48,3.53,3.24,5.89-1.69,3.18-.83,6.03-.35,8.91,1.77,10.64,1.32,21.15-1.17,31.6-1.52,6.39-1.19,5.77,4.8,8.94,8.07,4.27,15.62,9.57,22.33,15.88,13.42,12.62,22.62,27.68,26.41,45.87,2.24,10.77,2.2,21.62,1.39,32.51-.57,7.67-1.39,15.31-3.45,22.74-5.58,20.14-15.36,37.59-32.34,50.44-4.13,3.12-4.02,3.23-.01,6.52,6.87,5.64,14.18,10.68,21.54,15.64-1.52,3.22-3.39.87-4.76.06-7.45-4.46-14.33-9.72-20.95-15.32-1.67-1.41-2.82-1.78-4.81-.47-3.11,2.05-6.45,3.82-9.83,5.38-2.19,1.01-2.07,1.89-.68,3.44,1.78,1.99,3.4,4.12,5.15,6.14,5.96,6.88,12.1,13.64,19.39,19.12,6.06,4.55,12.37,8.21,20.75,7.53,6.13-.5,11.02-2.88,15.94-5.94,9.43-5.86,14.38-14.31,14.03-25.43-.26-8.34-6.39-16.97-15.68-15.84-5.13.63-11.13,6.09-13.05,12.81-1.23,4.32-2.22,8.7-1.68,13.29.13,1.15.65,3.13-1.29,3.16-2.07.04-1.69-1.9-1.74-3.32-.07-1.79-.19-3.57-.29-5.36ZM113.82,50.42c-.12.65-.21,1.29.42,1.76,0,2.39.13,4.8-.05,7.18-.46,6.18-4.05,10.66-9.19,10.97-5.58.34-10.05-1.94-13.17-7.71-.82,2.25-4.08,3.85-.3,5.39,5.03,2.05,10.15,4.07,15.73,4.37,11.21.61,9.81-.12,9.27-9.15-.22-3.76.21-7.74-2.36-11.04.29-.69.32-1.32-.42-1.76.21-.67.2-1.28-.42-1.75-.14-.79-.66-1.11-1.41-1.11-.19-.25-.38-.5-.59-.74-.01-.02-.19.12-.3.18.31.17.63.34.94.51.16.76.6,1.18,1.41,1.13-.38.71-.22,1.28.43,1.74Zm.75-29.34c.38.99.66,2.06,1.92,2.51.64-2.06-.89-2.07-1.83-2.58.11-.66.31-1.31.3-1.97-.01-.96.96-1.94-.03-2.85-.13-.11-.59-.04-.76.1-.94.83-.83,2.01-.91,3.11-.06.91.35,1.52,1.31,1.67Zm30.96,41.17c-.65,2.82.84,4.48,1.11,6.37.21,1.44,2.17,3.22.13,4.26-2.23,1.14-2.12-1.64-3.06-2.66-.9-.97-1.62-2.1-2.52-3.07-.65-.71-1.57-1.25-2.48-.56-.8.61-.27,1.52.05,2.19.8,1.69,1.71,3.32,2.62,4.95.47.85.94,1.75-.03,2.46-.74.54-1.54.1-2.19-.42-.62-.5-1.12-1.28-1.82-1.53-1.56-.57-3.16-.26-4.68.35-.68.27-.56.9-.36,1.35.73,1.71,1.51,3.84,3.45,4.04,3.63.36,4.17,2.84,4.56,5.55.32,2.24.52,4.5.64,6.76.46,9.06-.87,17.82-4.88,26.03-.43.87-.82,2.58-2.53,1.78-2.06-.96-.53-2.17-.09-3.28.4-1.01,1.86-1.85.79-3.1-1.23-1.43-10.93-1.3-12.5.05-6.83,5.86-24.04,7.83-31.35,3.25-3.13-1.96-5.99-2.45-9.36-1.06-1.97.81-4.02,1.52-6.1,1.94-3.77.76-3.41,2.44-1.81,5.2.98,1.69,4.76,3.6,2.06,5.35-2.14,1.38-3.28-2.59-4.77-4.27-.34-.39-.49-.94-.74-1.41-4.51-8.28-5.97-17.34-6.74-26.57-.43-5.15-1.66-10.46,3.36-14.36.57-.44,1.02-1.33.45-2.14-.61-.87-1.63-1.08-2.52-.78-.98.33-1.88.96-2.74,1.57-.89.64-1.8,1.4-2.86.64-1.38-.99-.39-2.05.05-3.16.74-1.86,2.5-4.73.74-5.58-1.75-.84-2.57,2.35-3.45,4.07-.48.94-.92,2.16-2.26,1.86-1.52-.35-.96-1.61-.85-2.63.1-.93.2-1.86.2-2.79,0-1.24-.17-2.72-1.62-2.83-1.61-.12-1.64,1.48-1.76,2.64-.09.92.12,1.86.11,2.79-.01.98-.25,1.97-1.45,2.04-.99.05-1.27-.85-1.49-1.62-.4-1.41-.65-2.86-1.09-4.25-.25-.78-.91-1.52-1.78-1.22-.48.16-.82.97-1.05,1.55-.36.92-.08,1.81.29,2.71.52,1.26,2.15,2.61.56,3.91-1.43,1.17-2.29-.68-3.36-1.29-.67-.38-1.29-1.17-2.11-.7-.95.54-.95,1.64-.71,2.52.27,1.01.6,2.27,1.34,2.84,4,3.09,3.37,7.47,3.51,11.65.45,13.74,2.58,27.11,8.97,39.49.51.98,1.29,2.01.16,2.84-1.48,1.08-2.22-.38-2.72-1.35-.96-1.87-1.85-1.74-3.32-.5C21.77,154.08,6.71,179.02,3.87,210.26c-3.21,35.36,10.03,63.89,38,85.51,8.89,6.87,19.27,10.83,30.38,12.16,4.14.5,8.39,3.88,12.72.48,2.77,2.75,6.25,1.75,9.54,1.86,21.67.77,42.62-2.65,62.49-11.46,27.2-12.06,44.88-32.41,52.3-61.41,1.49-5.81,2.24-11.73,3.03-17.68,2.13-16,1.71-31.81-3.84-47.02-7.91-21.67-22.86-37.36-43.03-48.24-2.34-1.26-4.66-3.29-7.25-3.04-2.07.2-2.3,3.29-3.69,4.86-.71.8-1.3,1.92-2.54.95-1.1-.86-.5-1.72.1-2.73,7.71-13.08,9.31-27.24,7.2-42-.59-4.09-2.77-8.14.27-12.16.21-.27.32-1.03-.38-1.33-.88-.11-.99.67-1.35,1.18-.73,1.02-1.01,3.02-2.59,2.52-1.77-.56-.62-2.25-.44-3.48.31-2.11.55-4.18-1.72-5.58-1.42,1.83-.3,3.48-.07,5.13.13.96.18,2.15-.75,2.48-1.18.42-1.93-.53-2.29-1.66-.82-2.55-1.87-4.96-4.42-7.36Zm-53.36,285.35c-3.87-.83-6.91-1.71-10.17-1.37-6.35.66-11.2,3.64-13.61,9.55-1.75,4.3,0,8.35,2.21,12.27,3.27,5.79,8.42,9.21,14.15,11.95,12.03,5.75,27.94.85,34.42-10.62,3.77-6.67,4.75-14.02,5.04-21.57.42-11.03-.76-21.87-3.41-32.55-.33-1.32-.05-3.57-3.01-3.11-4.32.67-8.73.79-13.11,1.06-1.48.09-2.45.11-2.26,2.2.35,3.79.41,7.62.34,11.43-.11,5.66-.22,11.34-.76,16.97-.22,2.29-1.7,4.43,1.65,5.62.92.33,1.62,1.6.98,2.56-.71,1.07-1.88.76-2.78-.06-2.97-2.71-6.58-3.91-9.68-4.33Zm3.47-240.97c-.86,1.36-.51,2.58-.6,3.76-.08,1.11.34,2.83-1.28,2.93-1.93.11-1.6-1.63-1.69-2.94-.52-7.8,1.38-15.02,5.28-21.74.61-1.05.99-3.02,2.7-2.34,1.81.73.62,2.12.12,3.34-.78,1.92.39,3.5,1.62,4.6,1.18,1.06,1.78-.65,2.4-1.32,1.66-1.77,2.75-.53,4.05.48,1.05.82,1.45,3.11,3.3,2.16,1.79-.91,3.06-2.5,3.16-4.78.17-4,.35-8,.76-11.98.27-2.66-.7-3.38-3.24-3.17-1.96.16-4-.11-5.96-.45-5.39-.95-10.77-2.03-15.81-4.3-.71-.32-1.66-.81-2.19-.09-.41.55-.33,1.51-.36,2.29-.03.88.53,1.16,1.3.89,2.16-.75,3.85-.61,4.83,1.9.44,1.13,1.35.26,1.96-.11,1.24-.76,2.47-1.37,3.39.31.95,1.72,2.34,3.34,2,5.49-.05.32-.83.52-1.27.77-1.69-3.57-4.61-2.84-7.55-2.26-.19.04-.58-.78-.84-1.23-.47-.82-.14-2.44-1.77-2.13-1.24.24-1.39,1.47-1.63,2.52-1.35,6-2.85,11.96-4.01,18-2.1,10.96,2.03,17.24,13.1,18.57,16.64,2,23.09-1.07,28.35-14.17,1.28-3.19-.86-3.2-2.47-4.15-1.87-1.11-2.96-1.4-4.29,1.1-1.74,3.26-2.01,6.55-2.08,10.02-.02,1.04.03,2.27-1.17,2.76-1.05.43-1.29-1.11-1.61-1.13-3.12-.23-5.64-1.16-7.23-4.16-.4-.76-1.32.4-1.9.83q-4.79,3.55-9.38-.26Zm18.7-9.07c-3.12,2.93-5.35,2.32-7.19-.65-1.05-1.7-1.96-.66-2.74.32-1.89,2.39-3.45,2.07-4.85-.48-.3-.55-.78-1.01-1.27-1.63-.31.57-.51.9-.67,1.26-2.03,4.56-1.68,7.14,2,9.25,2.68,1.54,3.66-1.69,5.25-2.9,1.65-1.26,2.68-1.03,4.13.27,1.09.98.77,3.89,3.4,2.82,2.37-.96,1.43-3.13,1.55-4.89.06-.88.2-1.76.39-3.37Zm-16.59-43.43c3.38.47,6.66.98,9.94,1.36,3.16.37,3.34-1.5,2.47-3.74-1.22-3.14-4.01-4.06-7.02-4.43-2.84-.35-5.33.54-7.01,2.88-1.46,2.04-1.46,3.78,1.62,3.92Zm18.91-11.07c.8-.97.77-1.81.47-2.54-2.14-5.11-5.92-9.08-9.31-13.32-.52-.65-1.18-.6-1.69-.04-.71.78-.81,1.6,0,2.45,3.92,4.12,7.23,8.73,10.54,13.45Zm-3.71.36c-2.32-4.06-5.22-7.44-8.19-10.77-.56-.63-1.03-1.15-1.89-.26-.85.89-.68,1.54.06,2.37,1.94,2.18,3.88,4.36,5.69,6.64,1.07,1.36,2.26,2.15,4.34,2.02Zm-16.15,20.44c5.78,5.21,11.97,4.06,13.48-1.76.26-1,1.34-2.55-.01-3.13-2-.85-1.74,1.31-2.25,2.36-.96,1.97-2.23,3.89-4.54,3.94-1.91.04-3.84-.77-6.68-1.41Zm20.08-30.31c.36-4.98-3.05-7.36-5-10.42-.42-.66-1.05-1.83-2.15-.8-.78.72-.72,1.59-.01,2.45,2.26,2.72,4.48,5.48,7.17,8.77Zm-18.47,24.35c.26,1.45.52,2.9,1.8,3.85,1.18.88,2.43,1.03,3.67.11.91-.67,1.58-1.72,1.38-2.72-.3-1.46-1.88-1.14-2.95-1.28-1.26-.17-2.57,0-3.9.03Zm6.47-16.74c-2.14-1.31-2.65-4.43-5.22-4.37-1.26.03-2.3,2.18-2.63,4.11,2.6.39,4.88,1.74,7.85.27Zm15.43-32.29c-1,1.06-2.61,2.11-2.46,2.73.39,1.58,2.02,1.8,3.7,1.53-1.23-1.07-.09-2.62-1.24-4.26Zm-31.84,53.06c1.35-2.8,2.2-5.79.19-8.84.42,2.91.45,5.8-.19,8.84ZM119.77,7.58c.37-1.12,1.5-2.06.08-3.18-1.16,1.06-.99,2.04-.08,3.18Zm-23.48,54.38c-.05-.23-.1-.67-.14-.67-.36.01-.71.1-1.06.17.1.19.15.44.3.57.28.24.63.4.9-.07Zm.56,1.5c-.06-.1-.12-.28-.19-.28-.18,0-.37.06-.56.1.06.1.12.28.19.28.18.01.37-.05.56-.1Z"/>
      <path class="cls-9" d="m201.97,309.77c.1,1.79.23,3.57.29,5.36.05,1.43-.33,3.36,1.74,3.32,1.94-.04,1.43-2.02,1.29-3.16-.53-4.59.45-8.97,1.68-13.29,1.91-6.72,7.92-12.18,13.05-12.81,9.29-1.13,15.42,7.5,15.68,15.84.35,11.12-4.6,19.56-14.03,25.43-4.91,3.06-9.8,5.44-15.94,5.94-8.38.68-14.69-2.98-20.75-7.53-7.29-5.47-13.43-12.24-19.39-19.12-1.75-2.02-3.37-4.15-5.15-6.14-1.39-1.55-1.5-2.43.68-3.44,3.39-1.56,6.72-3.33,9.83-5.38,1.99-1.31,3.14-.94,4.81.47,6.62,5.59,13.51,10.86,20.95,15.32,1.36.82,3.23,3.17,4.76-.06.16-.25.32-.51.48-.76Z"/>
      <path class="cls-9" d="m145.54,62.25c2.55,2.4,3.6,4.81,4.42,7.36.36,1.13,1.11,2.08,2.29,1.66.93-.33.88-1.53.75-2.48-.23-1.65-1.35-3.3.07-5.13,2.27,1.4,2.03,3.48,1.72,5.58-.18,1.23-1.33,2.92.44,3.48,1.58.5,1.86-1.51,2.59-2.52.37-.51.47-1.29,1.35-1.18.7.3.58,1.06.38,1.33-3.04,4.01-.85,8.06-.27,12.16,2.11,14.75.51,28.92-7.2,42-.6,1.01-1.2,1.87-.1,2.73,1.24.97,1.83-.14,2.54-.95,1.39-1.57,1.62-4.66,3.69-4.86,2.59-.25,4.91,1.78,7.25,3.04,20.17,10.88,35.13,26.57,43.03,48.24,5.55,15.21,5.97,31.02,3.84,47.02-.79,5.95-1.54,11.87-3.03,17.68-7.42,29-25.11,49.35-52.3,61.41-19.86,8.81-40.81,12.23-62.49,11.46-3.29-.12-6.77.88-9.54-1.86-4.33,3.41-8.58.02-12.72-.48-11.11-1.33-21.5-5.29-30.38-12.16C13.9,274.15.66,245.62,3.87,210.26c2.84-31.24,17.89-56.18,41.65-76.18,1.47-1.24,2.36-1.37,3.32.5.5.98,1.24,2.44,2.72,1.35,1.13-.82.34-1.86-.16-2.84-6.39-12.39-8.52-25.75-8.97-39.49-.14-4.18.49-8.56-3.51-11.65-.75-.58-1.07-1.83-1.34-2.84-.24-.89-.24-1.98.71-2.52.82-.47,1.44.32,2.11.7,1.07.61,1.93,2.46,3.36,1.29,1.59-1.3-.04-2.65-.56-3.91-.37-.9-.65-1.79-.29-2.71.23-.58.57-1.39,1.05-1.55.87-.3,1.54.44,1.78,1.22.44,1.39.7,2.84,1.09,4.25.21.76.5,1.67,1.49,1.62,1.2-.07,1.43-1.06,1.45-2.04.01-.93-.2-1.87-.11-2.79.12-1.15.16-2.76,1.76-2.64,1.45.11,1.62,1.58,1.62,2.83,0,.93-.1,1.87-.2,2.79-.11,1.02-.67,2.29.85,2.63,1.34.31,1.78-.92,2.26-1.86.88-1.72,1.7-4.91,3.45-4.07,1.76.85,0,3.71-.74,5.58-.44,1.11-1.43,2.17-.05,3.16,1.06.76,1.97,0,2.86-.64.86-.61,1.76-1.25,2.74-1.57.89-.3,1.91-.09,2.52.78.58.82.12,1.7-.45,2.14-5.02,3.9-3.79,9.21-3.36,14.36.77,9.23,2.23,18.29,6.74,26.57.25.47.4,1.03.74,1.41,1.49,1.68,2.63,5.66,4.77,4.27,2.7-1.74-1.08-3.66-2.06-5.35-1.6-2.76-1.96-4.44,1.81-5.2,2.08-.42,4.13-1.13,6.1-1.94,3.37-1.39,6.23-.9,9.36,1.06,7.31,4.58,24.52,2.61,31.35-3.25,1.57-1.35,11.26-1.48,12.5-.05,1.07,1.25-.39,2.09-.79,3.1-.44,1.11-1.96,2.31.09,3.28,1.71.8,2.1-.91,2.53-1.78,4.02-8.21,5.34-16.97,4.88-26.03-.11-2.26-.31-4.52-.64-6.76-.39-2.71-.93-5.19-4.56-5.55-1.94-.19-2.72-2.32-3.45-4.04-.19-.46-.31-1.08.36-1.35,1.52-.61,3.12-.91,4.68-.35.7.25,1.2,1.03,1.82,1.53.65.52,1.44.97,2.19.42.97-.71.5-1.61.03-2.46-.91-1.63-1.82-3.27-2.62-4.95-.32-.66-.85-1.58-.05-2.19.91-.7,1.83-.15,2.48.56.9.97,1.62,2.1,2.52,3.07.94,1.02.83,3.81,3.06,2.66,2.04-1.04.08-2.83-.13-4.26-.28-1.89-1.76-3.56-1.11-6.37Zm-44.33,154.72c-.11-1.57-.19-2.77-.27-3.96-.5-7.53-1.13-15.04-1.48-22.58-.95-20.23-1.8-40.47-2.63-60.7-.11-2.63-.67-3.88-3.77-3.19-11.15,2.48-21.85,6.07-31.88,11.64-17.98,9.98-30.24,24.98-36.92,44.12-3.44,9.86-5.13,20.33-5.69,30.97-1.41,26.89,7.41,49.23,28.01,66.81,2.34,2,3.72,1.67,5.46-.48,2.86-3.52,5.88-6.91,8.78-10.41,11.64-14.06,23.98-27.56,34.33-42.66,2.18-3.18,4.13-6.51,6.05-9.55Zm35.34-89.15c-7.4-1.76-15.41-2.01-23.4-2.47-2.97-.17-4,1.04-3.8,3.97,1.99,28.31,3.95,56.61,5.77,84.93.2,3.04,1.32,4.77,3.95,6.17,20.44,10.92,40.85,21.9,61.18,33.03,3.04,1.66,4.45,1.03,5.88-1.82,6.89-13.72,11.06-27.96,11.73-43.55,1.42-32.96-21.69-72.67-61.32-80.27Zm-19.61,102.29c-2.53-.22-2.05,1.61-1.86,3.39,2.05,19.21,4.15,38.42,6.03,57.65.33,3.39,1.72,3.6,4.43,2.86,17.43-4.76,32.42-13.59,45.06-26.54,2.56-2.63,2.48-4-.6-6.11-12.47-8.54-25.85-15.47-38.97-22.89-4.65-2.63-9.19-5.45-14.09-8.37Zm-37.16,63.24c9.47,2.22,18.19,3.07,27.02,3.18,3.74.05,4.27-1.57,3.9-4.83-1-8.87-1.68-17.77-2.53-26.66-.93-9.67-1.88-19.34-2.87-29-.1-1,0-2.29-1.38-2.6-1.1-.24-1.6.57-2.18,1.36-12.27,16.79-24.56,33.58-36.89,50.33-1.38,1.88-1.25,2.83.96,3.93,4.72,2.34,9.99,2.72,13.97,4.28Z"/>
      <path class="cls-9" d="m92.18,347.6c3.1.42,6.71,1.62,9.68,4.33.9.82,2.07,1.12,2.78.06.64-.96-.06-2.23-.98-2.56-3.34-1.19-1.87-3.33-1.65-5.62.54-5.63.66-11.31.76-16.97.07-3.81.01-7.64-.34-11.43-.19-2.09.78-2.1,2.26-2.2,4.38-.27,8.79-.39,13.11-1.06,2.97-.46,2.69,1.79,3.01,3.11,2.65,10.68,3.82,21.52,3.41,32.55-.29,7.55-1.26,14.9-5.04,21.57-6.48,11.48-22.39,16.37-34.42,10.62-5.73-2.74-10.88-6.16-14.15-11.95-2.22-3.92-3.96-7.98-2.21-12.27,2.41-5.91,7.26-8.89,13.61-9.55,3.26-.34,6.3.53,10.17,1.37Z"/>
      <path class="cls-10" d="m95.65,106.63q4.59,3.82,9.38.26c.58-.43,1.5-1.59,1.9-.83,1.59,3,4.11,3.93,7.23,4.16.31.02.55,1.56,1.61,1.13,1.2-.49,1.15-1.72,1.17-2.76.07-3.47.34-6.76,2.08-10.02,1.33-2.5,2.42-2.2,4.29-1.1,1.61.95,3.75.96,2.47,4.15-5.27,13.1-11.71,16.18-28.35,14.17-11.08-1.33-15.21-7.62-13.1-18.57,1.16-6.03,2.66-12,4.01-18,.24-1.05.39-2.29,1.63-2.52,1.63-.31,1.29,1.31,1.77,2.13.26.45.65,1.27.84,1.23,2.94-.58,5.87-1.3,7.55,2.26.44-.25,1.22-.46,1.27-.77.34-2.16-1.05-3.77-2-5.49-.92-1.68-2.15-1.06-3.39-.31-.61.37-1.52,1.25-1.96.11-.98-2.51-2.67-2.65-4.83-1.9-.78.27-1.33-.01-1.3-.89.03-.78-.05-1.74.36-2.29.54-.72,1.48-.23,2.19.09,5.04,2.28,10.41,3.35,15.81,4.3,1.96.34,3.99.61,5.96.45,2.54-.2,3.51.51,3.24,3.17-.41,3.98-.58,7.98-.76,11.98-.1,2.28-1.37,3.87-3.16,4.78-1.85.95-2.25-1.34-3.3-2.16-1.29-1.01-2.39-2.25-4.05-.48-.62.67-1.22,2.38-2.4,1.32-1.23-1.1-2.4-2.68-1.62-4.6.5-1.22,1.69-2.61-.12-3.34-1.71-.69-2.09,1.29-2.7,2.34-3.9,6.71-5.8,13.93-5.28,21.74.09,1.31-.24,3.06,1.69,2.94,1.62-.1,1.2-1.82,1.28-2.93.09-1.18-.26-2.4.6-3.76Z"/>
      <path class="cls-10" d="m114.17,52.22c2.57,3.29,2.13,7.28,2.36,11.04.54,9.02,1.94,9.76-9.27,9.15-5.58-.31-10.7-2.32-15.73-4.37-3.78-1.54-.51-3.14.3-5.39,3.11,5.76,7.58,8.05,13.17,7.71,5.14-.31,8.72-4.8,9.19-10.97.18-2.38.04-4.79.05-7.18,0,0-.07.03-.07.03Z"/>
      <path class="cls-10" d="m114.34,97.56c-.19,1.62-.32,2.49-.39,3.37-.12,1.77.81,3.93-1.55,4.89-2.63,1.07-2.31-1.84-3.4-2.82-1.45-1.3-2.48-1.53-4.13-.27-1.59,1.21-2.57,4.44-5.25,2.9-3.68-2.11-4.02-4.69-2-9.25.16-.36.37-.69.67-1.26.49.62.97,1.08,1.27,1.63,1.4,2.55,2.96,2.87,4.85.48.78-.98,1.68-2.02,2.74-.32,1.84,2.96,4.08,3.58,7.19.65Z"/>
      <path class="cls-10" d="m97.75,54.13c-3.08-.14-3.08-1.88-1.62-3.92,1.68-2.34,4.16-3.23,7.01-2.88,3.01.37,5.8,1.29,7.02,4.43.87,2.24.69,4.1-2.47,3.74-3.29-.38-6.56-.89-9.94-1.36Z"/>
      <path class="cls-3" d="m116.66,43.06c-3.3-4.72-6.62-9.33-10.54-13.45-.81-.86-.71-1.68,0-2.45.52-.57,1.17-.61,1.69.04,3.39,4.24,7.18,8.21,9.31,13.32.3.73.33,1.57-.47,2.54Z"/>
      <path class="cls-5" d="m112.95,43.42c-2.08.13-3.27-.66-4.34-2.02-1.8-2.29-3.75-4.47-5.69-6.64-.74-.83-.91-1.48-.06-2.37.85-.9,1.32-.37,1.89.26,2.98,3.33,5.87,6.71,8.19,10.77Z"/>
      <path class="cls-4" d="m96.8,63.86c2.83.64,4.76,1.45,6.68,1.41,2.31-.05,3.59-1.97,4.54-3.94.51-1.05.24-3.21,2.25-2.36,1.36.58.27,2.13.01,3.13-1.51,5.82-7.7,6.97-13.48,1.76Z"/>
      <path class="cls-5" d="m116.88,33.55c-2.69-3.3-4.91-6.05-7.17-8.77-.71-.86-.76-1.73.01-2.45,1.1-1.02,1.73.15,2.15.8,1.95,3.06,5.36,5.45,5,10.42Z"/>
      <path class="cls-7" d="m98.41,57.9c1.32-.03,2.63-.2,3.9-.03,1.07.14,2.65-.18,2.95,1.28.21,1-.47,2.05-1.38,2.72-1.24.92-2.49.76-3.67-.11-1.28-.95-1.53-2.4-1.8-3.85Z"/>
      <path class="cls-3" d="m104.88,41.16c-2.97,1.47-5.25.12-7.85-.27.33-1.92,1.37-4.08,2.63-4.11,2.57-.05,3.08,3.07,5.22,4.37Z"/>
      <path class="cls-10" d="m120.31,8.88c1.15,1.64.01,3.18,1.24,4.26-1.67.27-3.31.05-3.7-1.53-.15-.62,1.46-1.67,2.46-2.73Z"/>
      <path class="cls-6" d="m88.47,61.94c.64-3.04.62-5.93.19-8.84,2.01,3.05,1.16,6.04-.19,8.84Z"/>
      <path class="cls-10" d="m114.57,21.08c-.96-.15-1.37-.76-1.3-1.67.08-1.1-.03-2.28.91-3.11.17-.15.63-.22.76-.1,1,.91.02,1.89.03,2.85,0,.65-.19,1.31-.3,1.97l-.1.07Z"/>
      <path class="cls-10" d="m119.77,7.58c-.91-1.15-1.08-2.12.08-3.18,1.41,1.13.29,2.07-.08,3.18Z"/>
      <path class="cls-10" d="m114.67,21.01c.93.5,2.46.52,1.83,2.58-1.26-.45-1.54-1.52-1.92-2.51,0,0,.1-.07.1-.07Z"/>
      <path class="cls-4" d="m96.28,61.96c-.26.48-.6.31-.89.07-.15-.13-.21-.38-.3-.57.35-.07.71-.15,1.06-.17.04,0,.09.43.13.66Z"/>
      <path class="cls-10" d="m111.98,47.55c-.31-.17-.63-.34-.94-.51.1-.06.28-.2.3-.18.21.23.4.49.59.74,0,0,.06-.05.06-.05Z"/>
      <path class="cls-10" d="m111.92,47.6c.76,0,1.27.32,1.41,1.11,0,0,.06-.03.06-.03-.81.05-1.25-.37-1.41-1.13,0,0-.06.05-.06.05Z"/>
      <path class="cls-10" d="m113.82,50.42c-.65-.45-.81-1.03-.43-1.74,0,0-.06.03-.06.03.62.47.63,1.08.42,1.75l.07-.04Z"/>
      <path class="cls-10" d="m113.76,50.46c.74.44.7,1.07.42,1.76,0,0,.07-.03.07-.03-.62-.47-.54-1.11-.42-1.76,0,0-.07.04-.07.04Z"/>
      <path class="cls-4" d="m96.85,63.47c-.19.03-.37.1-.56.09-.07,0-.13-.18-.19-.28.19-.04.37-.1.56-.1.07,0,.13.18.19.29Z"/>
      <path class="cls-8" d="m101.21,216.97c-1.92,3.04-3.87,6.37-6.05,9.55-10.35,15.1-22.69,28.6-34.33,42.66-2.89,3.49-5.92,6.88-8.78,10.41-1.74,2.15-3.12,2.47-5.46.48-20.6-17.58-29.43-39.91-28.01-66.81.56-10.64,2.24-21.11,5.69-30.97,6.69-19.14,18.94-34.14,36.92-44.12,10.03-5.56,20.73-9.15,31.88-11.64,3.1-.69,3.66.56,3.77,3.19.83,20.24,1.68,40.47,2.63,60.7.35,7.53.98,15.05,1.48,22.58.08,1.19.16,2.39.27,3.96Zm-3.21-.58c.1-1.23.3-2.04.21-2.81-1.96-16.55-2.33-33.21-3.1-49.83-.48-10.39-.93-20.78-1.23-31.17-.07-2.39-.73-3.11-3.04-2.41-2.94.89-5.96,1.5-8.88,2.43-20.31,6.41-37.21,17.49-48.09,36.27-9.22,15.91-12.27,33.45-12.31,51.61-.05,22.28,8.65,40.68,25.05,55.57,1.26,1.14,2.29,2.62,4.13.37,14.59-17.88,30.48-34.72,43.45-53.9,1.41-2.09,2.66-4.28,3.8-6.11Z"/>
      <path class="cls-8" d="m136.55,127.82c39.63,7.6,62.74,47.3,61.32,80.27-.67,15.59-4.84,29.83-11.73,43.55-1.43,2.85-2.84,3.49-5.88,1.82-20.33-11.13-40.74-22.11-61.18-33.03-2.63-1.41-3.76-3.13-3.95-6.17-1.82-28.32-3.79-56.62-5.77-84.93-.21-2.93.83-4.14,3.8-3.97,7.99.45,16,.71,23.4,2.47Zm1.12,3.2c-7.18-1.6-14.39-1.9-21.56-2.55-3.17-.28-3.8.87-3.46,3.79.55,4.76.71,9.56,1.03,14.35,1.47,21.81,3.02,43.61,4.31,65.42.18,3.07.78,4.85,3.72,6.4,19.32,10.21,38.54,20.61,57.69,31.14,2.89,1.59,3.99,1.1,5.28-1.76,4.16-9.25,7.61-18.55,9.06-28.8,1.49-10.52,1.67-20.82-1-30.94-7.7-29.22-25.31-49.11-55.07-57.06Z"/>
      <path class="cls-8" d="m116.94,230.11c4.9,2.92,9.44,5.74,14.09,8.37,13.11,7.42,26.5,14.35,38.97,22.89,3.08,2.11,3.16,3.48.6,6.11-12.64,12.95-27.63,21.78-45.06,26.54-2.7.74-4.1.53-4.43-2.86-1.88-19.23-3.98-38.44-6.03-57.65-.19-1.78-.67-3.61,1.86-3.39Zm1.34,4.67c1.94,18.29,3.86,35.89,5.61,53.52.31,3.14,1.86,2.44,3.73,1.88,14.87-4.43,27.8-12.08,38.88-23,2.48-2.45,1.82-3.5-.62-4.95-7.1-4.21-14.11-8.59-21.26-12.72-8.5-4.9-17.12-9.6-26.33-14.74Z"/>
      <path class="cls-8" d="m79.78,293.35c-3.98-1.57-9.25-1.94-13.97-4.28-2.21-1.09-2.34-2.05-.96-3.93,12.33-16.75,24.62-33.54,36.89-50.33.58-.79,1.08-1.61,2.18-1.36,1.39.31,1.28,1.59,1.38,2.6.98,9.67,1.94,19.33,2.87,29,.85,8.89,1.54,17.79,2.53,26.66.37,3.26-.16,4.88-3.9,4.83-8.83-.11-17.55-.96-27.02-3.18Zm23.03-52.99c-.35-.08-.69-.15-1.04-.23-10.91,14.81-21.82,29.62-32.75,44.41-1.5,2.03-.08,2.43,1.42,2.99,11.03,4.09,22.49,5.58,34.17,5.95,2.72.09,3.2-.89,2.92-3.48-1.14-10.47-2-20.97-2.99-31.46-.57-6.06-1.16-12.11-1.73-18.17Z"/>
      <path class="cls-1" d="m98,216.39c-1.13,1.83-2.39,4.02-3.8,6.11-12.97,19.19-28.86,36.02-43.45,53.9-1.84,2.26-2.87.78-4.13-.37-16.41-14.89-25.1-33.29-25.05-55.57.04-18.15,3.09-35.7,12.31-51.61,10.89-18.78,27.78-29.86,48.09-36.27,2.92-.92,5.95-1.54,8.88-2.43,2.31-.7,2.97.02,3.04,2.41.3,10.39.75,20.78,1.23,31.17.76,16.63,1.14,33.28,3.1,49.83.09.78-.11,1.59-.21,2.81Zm-29.68-53.96c-2.48-2.51-2.25-5.33-2.22-8.13,0-1.1.45-2.73-1.38-2.76-1.41-.03-1.18,1.48-1.58,2.4-.45,1.06.58,3.26-1.49,3-1.64-.21-.83-2.25-1.16-3.46-.07-.25-.04-.53-.02-.8.09-1.26.13-2.68-1.6-2.54-1.68.14-1.26,1.65-1.4,2.82-.18,1.51.73,3.12-.35,4.57-1.27-.3-1.19-1.36-1.49-2.2-.4-1.12.09-3.27-1.9-2.8-1.83.44-1.22,2.33-1.01,3.77.23,1.59,1.33,2.84.18,4.84-4.3,7.47-4.19,15.58-2.09,23.65.9,3.46,2.98,6.44,6.99,6.88,4.16.45,7.06-1.77,9.4-5,.65-.9.36-2.45,1.98-2.81.4.7.76,1.41,1.19,2.07,1.97,3.06,4.7,4.77,8.42,4.24,3.34-.48,6.29-1.89,7.24-5.42,1-3.72,1.39-7.53,1.58-11.43.39-7.7-5.26-14.05-4.36-21.76.07-.63-.59-1.27-1.37-1.12-.83.17-1.31.8-1.55,1.66-.39,1.33.69,2.93-.75,4.13-1.96-.95-1.07-2.82-1.43-4.24-.27-1.09.21-2.83-1.5-2.76-1.89.07-1.38,1.81-1.54,3.09-.15,1.22.88,2.62-.41,3.69-1.18-.16-1-1.17-1.21-1.86-.4-1.31-.04-3.48-2.25-2.93-1.66.42-1.16,2.34-.74,3.47,1.16,3.09-.4,5.3-2.17,7.73Zm-4.63,56.13c-9.03-2.08-13.62-13.76-7.97-20.21.77-.87,2.97-1.27,1.72-2.96-1.24-1.69-2.61-.04-3.85.52-.73.33-1.36.85-2.08,1.19-1.75.85-3.06,1.49-1.14,3.75,1.39,1.63.39,2.98-1.7,3.75-5.01,1.86-7.86,5.89-9.48,10.71-.89,2.65-.83,5.44,1.23,7.9,4.35,5.21,11.07,4.88,15.55-1.09,1.28-1.7,1.99-2.49,4.39-1.43,8.57,3.82,16.71.66,21.1-7.79.31-.59.54-1.51,1.02-1.68,5.82-2,.81-4.89.58-7.33-.07-.78-.9-1.35-1.83-1.15-1.28.27-.98,1.22-.98,2.19.02,9.89-7.17,15.76-16.57,13.6Z"/>
      <path class="cls-1" d="m137.66,131.03c29.75,7.96,47.37,27.85,55.07,57.06,2.66,10.11,2.48,20.41,1,30.94-1.45,10.25-4.89,19.55-9.06,28.8-1.28,2.85-2.39,3.34-5.28,1.76-19.15-10.52-38.37-20.93-57.69-31.14-2.94-1.55-3.54-3.33-3.72-6.4-1.29-21.82-2.84-43.62-4.31-65.42-.32-4.79-.48-9.59-1.03-14.35-.34-2.92.29-4.08,3.46-3.79,7.18.64,14.39.95,21.56,2.55Z"/>
      <path class="cls-1" d="m118.28,234.78c9.21,5.14,17.83,9.84,26.33,14.74,7.15,4.12,14.16,8.5,21.26,12.72,2.44,1.45,3.1,2.5.62,4.95-11.08,10.92-24.01,18.57-38.88,23-1.87.56-3.41,1.26-3.73-1.88-1.75-17.62-3.67-35.23-5.61-53.52Z"/>
      <path class="cls-1" d="m102.81,240.36c.58,6.06,1.17,12.11,1.73,18.17.98,10.49,1.85,20.99,2.99,31.46.28,2.59-.2,3.57-2.92,3.48-11.68-.37-23.15-1.86-34.17-5.95-1.5-.56-2.92-.96-1.42-2.99,10.93-14.79,21.84-29.6,32.75-44.41.35.08.69.15,1.04.23Z"/>
      <path class="cls-8" d="m68.32,162.42c1.77-2.43,3.33-4.64,2.17-7.73-.42-1.14-.93-3.05.74-3.47,2.2-.55,1.85,1.62,2.25,2.93.21.69.03,1.69,1.21,1.86,1.3-1.07.26-2.47.41-3.69.16-1.29-.35-3.02,1.54-3.09,1.72-.06,1.23,1.67,1.5,2.76.36,1.42-.53,3.29,1.43,4.24,1.45-1.2.37-2.8.75-4.13.25-.85.73-1.49,1.55-1.66.77-.16,1.44.49,1.37,1.12-.9,7.71,4.75,14.05,4.36,21.76-.2,3.9-.58,7.71-1.58,11.43-.96,3.54-3.9,4.95-7.24,5.42-3.72.53-6.44-1.19-8.42-4.24-.43-.66-.79-1.37-1.19-2.07-1.63.37-1.34,1.92-1.98,2.81-2.34,3.23-5.24,5.46-9.4,5-4.01-.44-6.09-3.41-6.99-6.88-2.1-8.07-2.22-16.18,2.09-23.65,1.16-2.01.05-3.25-.18-4.84-.21-1.44-.82-3.33,1.01-3.77,1.98-.48,1.5,1.68,1.9,2.8.3.84.22,1.89,1.49,2.2,1.08-1.45.17-3.06.35-4.57.14-1.17-.27-2.69,1.4-2.82,1.74-.14,1.7,1.28,1.6,2.54-.02.27-.05.55.02.8.33,1.21-.48,3.25,1.16,3.46,2.07.27,1.04-1.94,1.49-3,.4-.92.17-2.43,1.58-2.4,1.82.03,1.39,1.67,1.38,2.76-.03,2.8-.25,5.62,2.22,8.13Zm-2.28,13.58c.6-4.11.52-8.34-1.25-12.38-.92-2.09-2.45-3.7-4.91-3.34-2.13.31-3.81,1.73-3.72,4,.09,2.27.33,4.85,3.26,5.57,2.43.59,2.22,1.54.44,2.71-2.72,1.79-2.89,4.33-1.99,7.06.56,1.69,1.88,2.61,3.76,2.2,3-.66,3.71-3.15,4.41-5.83Zm18.05-.55c.37-5.06.41-10.11-3.03-14.38-1.22-1.51-2.79-2.78-4.69-.9-2.11,2.09-1.47,6.92,1.3,7.86,3.19,1.09,2.42,2.11.51,3.6-2.22,1.74-3.24,3.74-1.67,6.49.81,1.41,1.36,2.95,3.47,2.59,2.99-.5,3.64-2.75,4.1-5.27Zm-1.04,8.14c-7.42.07-12.58-5.16-9.85-10.25,1.59-2.96.4-4.49-.55-6.61-.26-.59-.35-1.42-1.17-1.43-1.17-.02-1.07,1.09-1.12,1.75-.48,6.25-.26,12.49,3.12,17.97,2.19,3.54,7,2.8,9.56-1.43Zm-18.27.87c-7.99,1.34-12.64-3.8-9.83-11,1.11-2.84-.02-3.79-2.18-5.25.05,5.28-.99,10.2.68,15.02.83,2.41,1.59,5.05,4.67,5.34,3.06.29,5.2-1.27,6.65-4.11Z"/>
      <path class="cls-8" d="m63.68,218.55c9.4,2.16,16.58-3.71,16.57-13.6,0-.97-.3-1.92.98-2.19.93-.2,1.76.38,1.83,1.15.23,2.44,5.23,5.32-.58,7.33-.48.16-.71,1.09-1.02,1.68-4.39,8.44-12.52,11.6-21.1,7.79-2.4-1.07-3.11-.27-4.39,1.43-4.48,5.96-11.2,6.3-15.55,1.09-2.06-2.47-2.12-5.25-1.23-7.9,1.62-4.82,4.47-8.85,9.48-10.71,2.08-.77,3.08-2.12,1.7-3.75-1.92-2.26-.61-2.91,1.14-3.75.72-.35,1.36-.87,2.08-1.19,1.24-.56,2.61-2.21,3.85-.52,1.24,1.69-.96,2.09-1.72,2.96-5.66,6.44-1.06,18.13,7.97,20.21Zm-17.4,5.12c3.14.61,7.21-1.9,8.27-4.95.75-2.17-.86-3.36-2-4.37-1.28-1.13-1.89.79-2.73,1.45-.51.4-1.05.86-1.36,1.42-.48.85-1.1,1.13-1.94.72-1.31-.65-.56-1.63-.17-2.35.89-1.65,2.2-2.99,3.71-4.11,1.4-1.05,1.1-2.5.34-3.53-.89-1.2-1.99,0-2.72.53-2.98,2.19-5.13,5.07-5.83,8.75-.63,3.3,1.24,5.82,4.44,6.44Z"/>
      <path class="cls-7" d="m66.03,176c-.7,2.68-1.41,5.17-4.41,5.83-1.88.42-3.2-.51-3.76-2.2-.91-2.73-.73-5.27,1.99-7.06,1.78-1.18,1.99-2.12-.44-2.71-2.93-.72-3.17-3.3-3.26-5.57-.09-2.27,1.59-3.69,3.72-4,2.46-.36,3.99,1.25,4.91,3.34,1.77,4.04,1.85,8.27,1.25,12.38Z"/>
      <path class="cls-7" d="m84.09,175.45c-.46,2.52-1.11,4.77-4.1,5.27-2.11.35-2.67-1.18-3.47-2.59-1.57-2.76-.55-4.76,1.67-6.49,1.91-1.49,2.68-2.52-.51-3.6-2.77-.94-3.41-5.77-1.3-7.86,1.9-1.88,3.48-.61,4.69.9,3.44,4.27,3.4,9.32,3.03,14.38Z"/>
      <path class="cls-4" d="m83.04,183.59c-2.56,4.23-7.37,4.98-9.56,1.43-3.39-5.48-3.6-11.72-3.12-17.97.05-.66-.05-1.77,1.12-1.75.82.01.9.84,1.17,1.43.95,2.12,2.14,3.64.55,6.61-2.74,5.09,2.42,10.32,9.85,10.25Z"/>
      <path class="cls-4" d="m64.77,184.46c-1.45,2.85-3.59,4.4-6.65,4.11-3.08-.29-3.84-2.93-4.67-5.34-1.67-4.82-.63-9.75-.68-15.02,2.16,1.46,3.29,2.41,2.18,5.25-2.82,7.2,1.84,12.33,9.83,11Z"/>
      <path class="cls-2" d="m46.28,223.68c-3.2-.62-5.07-3.14-4.44-6.44.7-3.68,2.85-6.55,5.83-8.75.74-.54,1.83-1.73,2.72-.53.77,1.03,1.07,2.48-.34,3.53-1.51,1.13-2.82,2.46-3.71,4.11-.39.72-1.14,1.71.17,2.35.84.41,1.45.13,1.94-.72.32-.55.85-1.02,1.36-1.42.85-.66,1.45-2.58,2.73-1.45,1.14,1.01,2.75,2.2,2,4.37-1.06,3.05-5.13,5.56-8.27,4.95Z"/>
    </g>
  </g>
</svg>