<?xml version="1.0" encoding="UTF-8"?>
<svg id="_레이어_2" data-name="레이어 2" xmlns="http://www.w3.org/2000/svg" viewBox="0 0 194.32 166.43">
  <defs>
    <style>
      .cls-1 {
        fill: #f3af3c;
      }

      .cls-2 {
        fill: #fff;
      }

      .cls-3 {
        fill: #080706;
      }
    </style>
  </defs>
  <g id="_레이어_1-2" data-name="레이어 1">
    <g>
      <path class="cls-3" d="m63.92,40.35c-5.26-16.85-.11-29.85,12.73-37.38,8.59-5.03,19.26,3.85,25.43,18.37,4.11-3.75,8.32-7.17,12.02-11.07C122.99.91,140.42-2.57,152.66,2c16.49,6.16,19.12,23.82,12.45,37.8-1.46,3.07-4.19,5.51-5.91,8.49-1.36,2.36-6.1,2.95-3.9,7.21,1.95,3.77,5.7,3.99,9.15,4.27,8.68.71,16.6,2.99,23.48,8.7,8.31,6.89,8.45,16.2.83,23.72-7.42,7.32-17.25,8.2-26.32,11.11-2.37.76-4.43.09-3.06,3.96,6.81,19.25-.48,37.48-17.91,47.8-13.54,8.02-26.06,7.14-38.46-1.97-1.63-1.2-2.93-5.24-5.17.08-8.61,20.48-29.28,14.2-39.79,1.65-7.12-8.5-10.16-18.71-8.71-30.85-7.28,3.08-11.98,8.9-19.62,9.27-13.08.64-21.83-9.63-27.54-25.15-5.95-16.16.24-37.88,19.61-45.72,3.84-1.55,3.74-3.61,1.28-5.61-6.08-4.93-7.61-12.02-4.25-17.64,3.13-5.24,10.33-6.97,17.03-7.23,8.8-.34,16.13.89,28.07,8.48Zm85.41,24.38c-3.19.18-6.38.46-9.57.52-2.43.05-5.68,1.81-6.95-1.47-1.48-3.85,2.35-4.68,4.65-6.13,8.67-5.48,16.78-11.56,21.86-20.77,4.25-7.71,4.99-15.55-.82-22.8-5.8-7.26-13.82-8.24-22.48-7.12-13.06,1.68-20.57,10.67-27.97,20.25-2.98,3.85-2.99,12.36-9.08,10.91-5.4-1.28-2.15-8.66-2.84-13.3-1.37-9.25-6.4-15.61-12.64-15.41-6.98.23-13.17,7.76-13.77,16.62-.32,4.74.53,9.27,2.47,13.55,1.19,2.63,2.8,5.07,4.17,7.62.76,1.41.71,2.74-.63,3.86-1.27,1.06-2.61,1.25-3.93.21-6.15-4.81-14.66-4.98-20.45-10.67-2.08-2.04-5.42-1.79-8.36-1.67-6.5.26-14.96-2.05-17.48,5.92-2.18,6.9,5.38,9.9,10.11,13.47,1.83,1.39,4.24,2.53,3.32,5.4-.74,2.32-3.09,2.28-5.05,2.7C9.42,71.73.93,89.41,11.82,112.42c7.75,16.38,21.76,18.47,33.55,4.69,3.93-4.59,6.96-9.96,10.22-15.1,1.27-2,2.22-4.58,5.1-3.4,3.66,1.49,1.83,4.19.87,6.58-.87,2.15-1.82,4.27-2.52,6.47-4.14,12.98-4.92,25.71,3.88,37.27,6.29,8.27,17.18,12.14,23.54,8.8,6.37-3.34,7.58-10.91,4.46-22.83-.98-3.74-6.45-9.12-1.23-11.31,6.42-2.7,5.65,5.59,7.66,9,5.86,9.93,11.92,20.3,24.44,21.13,13.25.88,22.79-7.19,29.78-17.94,1.86-2.86,3.13-6.21,4.14-9.5,3.16-10.2.47-16.25-8.98-20.44-2.32-1.03-5.74-1.01-5.14-4.61.68-4.13,4.43-2.94,7.1-3.03,10.23-.34,19.96-2.81,29.31-6.77,4.91-2.08,10.04-5.11,10.11-10.87.08-6.28-5.48-9.19-10.61-11.44-8.96-3.93-18.48-4.75-28.16-4.39Z"/>
      <path class="cls-1" d="m149.33,64.74c9.67-.37,19.2.46,28.16,4.39,5.12,2.25,10.69,5.16,10.61,11.44-.07,5.75-5.19,8.78-10.11,10.87-9.35,3.96-19.08,6.43-29.31,6.77-2.68.09-6.42-1.1-7.1,3.03-.6,3.6,2.82,3.59,5.14,4.61,9.45,4.19,12.14,10.24,8.98,20.44-1.02,3.29-2.28,6.63-4.14,9.5-6.99,10.76-16.53,18.82-29.78,17.94-12.52-.83-18.57-11.2-24.44-21.13-2.01-3.41-1.24-11.7-7.66-9-5.21,2.19.25,7.57,1.23,11.31,3.13,11.92,1.91,19.49-4.46,22.83-6.36,3.34-17.25-.54-23.54-8.8-8.8-11.56-8.01-24.29-3.88-37.27.7-2.2,1.65-4.33,2.52-6.47.97-2.39,2.79-5.09-.87-6.58-2.89-1.18-3.83,1.4-5.1,3.4-3.26,5.13-6.3,10.51-10.22,15.1-11.8,13.79-25.8,11.7-33.55-4.69-10.89-23.01-2.4-40.69,22.08-46,1.96-.42,4.31-.38,5.05-2.7.91-2.87-1.49-4.01-3.32-5.4-4.73-3.58-12.28-6.57-10.11-13.47,2.51-7.97,10.98-5.65,17.48-5.92,2.94-.12,6.28-.38,8.36,1.67,5.79,5.69,14.31,5.86,20.45,10.67,1.33,1.04,2.66.85,3.93-.21,1.34-1.12,1.38-2.45.63-3.86-1.37-2.55-2.98-4.99-4.17-7.62-1.93-4.28-2.78-8.81-2.47-13.55.6-8.86,6.79-16.39,13.77-16.62,6.24-.21,11.27,6.16,12.64,15.41.69,4.64-2.57,12.02,2.84,13.3,6.09,1.45,6.1-7.05,9.08-10.91,7.4-9.58,14.91-18.57,27.97-20.25,8.66-1.11,16.68-.13,22.48,7.12,5.8,7.25,5.07,15.09.82,22.8-5.08,9.21-13.18,15.29-21.86,20.77-2.3,1.45-6.14,2.28-4.65,6.13,1.26,3.28,4.51,1.53,6.95,1.47,3.19-.07,6.38-.34,9.57-.52Zm-61.12-6.65c-12.9-.07-16.16,2.25-17.67,12.59-2.33,16.01,13.34,30.63,29.3,27.34,8.23-1.69,14.64-8.71,15.93-17.28,1.38-9.16-3.3-14.93-10.81-18.82-5.18-2.68-10.83-4.02-16.75-3.83Z"/>
      <path class="cls-3" d="m88.21,58.09c5.92-.19,11.57,1.14,16.75,3.83,7.51,3.89,12.18,9.66,10.81,18.82-1.29,8.57-7.7,15.59-15.93,17.28-15.96,3.29-31.63-11.33-29.3-27.34,1.51-10.34,4.77-12.66,17.67-12.58Zm20.18,20.35c-.04-8.64-7.15-13.52-19.91-13.66-9.02-.1-14.81,7.8-10.74,15.61,3.45,6.62,9.11,11.11,17.23,11.23,8.58.13,13.47-4.65,13.43-13.18Z"/>
      <path class="cls-2" d="m108.39,78.44c.04,8.53-4.85,13.3-13.43,13.18-8.12-.12-13.78-4.61-17.23-11.23-4.07-7.81,1.72-15.71,10.74-15.61,12.76.14,19.88,5.02,19.91,13.66Z"/>
    </g>
  </g>
</svg>