<?xml version="1.0" encoding="UTF-8"?>
<svg id="_레이어_2" data-name="레이어_2" xmlns="http://www.w3.org/2000/svg" viewBox="0 0 113.44 45.09">
  <defs>
    <style>
      .cls-1 {
        fill: #5e5e5e;
      }
    </style>
  </defs>
  <g id="_레이어_1-2" data-name="레이어_1">
    <g>
      <path class="cls-1" d="M.1,22.02l-.1-1.91h13.25v-3.83h9.85v3.83h13.34l-.1,1.91v3.25l.1,1.92H0l.1-1.92v-3.25ZM12.75,7.66H2.56l.1-2.39v-2.78l-.1-2.39h31.41l-.1,2.39v2.78l.1,2.39h-10.19c2.41,2.01,6.99,3.21,12.31,3.88l-3.5,7.47c-5.56-.86-11.37-3.16-14.33-6.22-2.96,3.06-8.76,5.36-14.33,6.22L.44,11.54c5.32-.67,9.9-1.87,12.31-3.88ZM2.56,36.47c0-5.65,6.06-8.33,15.61-8.33s15.56,2.73,15.56,8.23-6.01,8.71-15.56,8.71-15.61-2.87-15.61-8.62ZM22.85,38.05c.89-.24,1.43-.91,1.43-1.63,0-.62-.59-1.2-1.48-1.53-.94-.33-2.86-.57-4.63-.57s-3.74.29-4.83.62c-.94.29-1.38.86-1.38,1.48,0,.67.44,1.24,1.38,1.53,1.08.33,3.1.62,4.83.62s3.69-.29,4.68-.53Z"/>
      <path class="cls-1" d="M38.7,35.76l-.1-2.15h12.7l-.1-4.21h10.73l-.1,4.21h13.2l-.1,2.15v4.16l.1,2.15h-36.44l.1-2.15v-4.16ZM41.16,15.94l-.1-4.6h20.34v-2.2h-20.43l.05-2.25v-3.35l-.05-2.25h30.43l-.05,4.55v8.09l.05,4.55h-20.04v2.25h20.53l-.1,2.3v3.06l.1,2.25h-30.82l.1-4.55v-7.85Z"/>
      <path class="cls-1" d="M90.05,27h-13.54l.1-2.15v-4.16l-.1-2.15h22.5c.64-3.21,1.23-6.89,1.58-10h-21.62l.1-2.39v-3.73l-.1-2.39h32.01l-.3,5.03c-.39,4.02-1.08,9.05-1.87,13.5h4.63l-.1,2.15v4.16l.1,2.15h-13.34v11.39l.1,5.7h-10.24l.1-5.7v-11.39Z"/>
    </g>
  </g>
</svg>