<?xml version="1.0" encoding="UTF-8"?>
<svg id="_레이어_2" data-name="레이어_2" xmlns="http://www.w3.org/2000/svg" viewBox="0 0 277.04 45.57">
  <defs>
    <style>
      .cls-1 {
        fill: #5e5e5e;
      }
    </style>
  </defs>
  <g id="_레이어_1-2" data-name="레이어_1">
    <g>
      <path class="cls-1" d="M2.86,28.82c4.63-5.84,4.14-15.46,4.14-23.12,0-.77-.05-2.25-.15-3.54h10.34c-.15,1.29-.1,2.78-.1,3.54,0,7.47.1,15.7,4.19,21.59.64.96,1.87,2.3,3.15,3.02l-4.38,8.62c-3.45-1.96-6.25-6.08-7.43-10.87-1.33,5.27-4.43,10-7.98,11.73L0,31.26c1.08-.57,1.77-1.1,2.86-2.44ZM25.21,22.26h-5.37l.1-2.39v-4.36l-.1-2.44h5.37V4.79l-.1-4.79h10.44l-.1,4.79v35.13l.1,4.79h-10.44l.1-4.79v-17.66Z"/>
      <path class="cls-1" d="M38.85,18.72l-.1-1.77h36.44l-.1,1.77v2.87l.1,1.87h-13.25v1.34h10.04l-.1,4.79v3.4l.1,4.21h-19.5v1.67h20.34l-.1,2.39v1.58l.1,2.39h-31.51l.1-4.79v-3.49l-.1-4.83h20.04v-1.44h-20.14l.1-2.39v-1.1l-.1-2.39h10.88v-1.34h-13.34l.1-1.87v-2.87ZM40.57,8.28C40.57,3.02,47.71.14,56.97.14s16.4,2.87,16.4,8.14-7.09,7.66-16.4,7.66-16.4-2.2-16.4-7.66ZM61.64,9.67c.79-.19,1.38-.48,1.38-1.34,0-.67-.54-1.01-1.38-1.24-.99-.19-2.86-.43-4.63-.43s-3.69.24-4.68.43c-.84.24-1.33.57-1.33,1.24,0,.86.54,1.15,1.33,1.34.99.24,2.91.43,4.68.43s3.64-.19,4.63-.43Z"/>
      <path class="cls-1" d="M77.25,24.27l-.1-1.82h36.44l-.1,1.82v3.02l.1,1.87h-36.44l.1-1.87v-3.02ZM110.88,41.55l.1,4.02h-10.29l.1-3.5v-4.31h-21.08l.1-2.11v-2.63l-.1-2.15h31.27l-.1,4.26v6.41ZM79.96,5.65l-.1-4.79h30.92l-.1,2.39v1.05l.1,2.39h-20.73v1.39h20.58l-.05,2.25v1.05l.05,2.25h-20.58v1.53h20.93l-.05,2.39v1.05l.05,2.39h-31.12l.1-4.79V5.65Z"/>
      <path class="cls-1" d="M136.97,21.25v1.68h-19.94l.1-4.79V3.93l-.1-3.06h9.06l-.05,2.82v1.58h2.81v-1.58l-.05-2.82h8.17l-.05,3.06h3.84l-.1-3.93h10.09l-.1,4.79v13.79l.1,4.79h-10.09l.05-2.11h-3.74ZM151.25,42.89l.1,2.39h-31.91l.1-4.79v-3.54l-.1-4.83h20.93v-1.67h-21.03l.1-2.39v-1l-.1-2.39h31.46l-.1,4.79v3.59l.1,4.17h-20.38v1.77h20.93l-.1,2.39v1.53ZM128.85,11.73h-2.81v4.21h2.81v-4.21ZM140.76,10.87h-3.84v3.4h3.84v-3.4Z"/>
      <path class="cls-1" d="M156.91,28.58c3.79-4.36,4.28-14.79,4.28-22.88,0-.72-.1-2.11-.2-3.59h10.29c-.15,1.58-.15,3.06-.15,3.3,0,8.19.69,16.56,3.2,21.11,1.03,2.01,2.27,3.21,3.74,4.07l-4.33,8.81c-3.59-2.3-6.3-5.5-7.39-9.81-1.43,4.4-4.43,8.47-7.68,10.48l-4.97-8.95c1.38-.77,2.17-1.34,3.2-2.54ZM178.57,4.79l-.1-4.79h10.44l-.1,4.79v35.13l.1,4.79h-10.44l.1-4.79V4.79Z"/>
      <path class="cls-1" d="M204.91,29.49c3.74-3.59,4.58-9.43,4.78-18.24h-6.45l.1-2.44v-4.07l-.1-2.39h22.16l-.1,2.39v4.07l.1,2.44h-5.81c.05,9.19,1.23,14.98,4.53,18.09.94.91,1.67,1.44,2.46,1.92l-4.28,8.95c-3-1.58-6.16-4.74-7.68-8.9-1.38,4.16-4.09,7.18-8.17,9.33l-4.48-9c1.23-.62,2.26-1.48,2.95-2.15ZM227.31,4.79l-.1-4.79h9.95l-.1,4.79v35.13l.1,4.79h-9.95l.1-4.79V4.79Z"/>
      <path class="cls-1" d="M240.7,35.57l-.1-2.2h12.95v-1.87l-.1-4.36h10.73l-.1,4.36v1.87h12.95l-.1,2.2v4.55l.1,2.25h-36.44l.1-2.25v-4.55ZM243.36,6.75l-.1-4.79h30.92l-.05,2.39v3.54l.05,2.39h-21.03v6.46h21.27l-.05,2.39v3.69l.05,2.39h-31.17l.1-4.79V6.75Z"/>
    </g>
  </g>
</svg>