<?xml version="1.0" encoding="UTF-8"?>
<svg id="_레이어_2" data-name="레이어_2" xmlns="http://www.w3.org/2000/svg" viewBox="0 0 112.73 95.98">
  <defs>
    <style>
      .cls-1 {
        fill: #f0f;
      }
    </style>
  </defs>
  <g id="_레이어_1-2" data-name="레이어_1">
    <path class="cls-1" d="M40.89,83.82c4.66,0,7-2.31,7-6.93V9.81h58.92c1.79,0,3.23.5,4.3,1.5,1.08,1,1.61,2.38,1.61,4.12v74.93c0,1.83-.54,3.22-1.61,4.18-1.08.96-2.51,1.44-4.3,1.44H5.92c-1.79,0-3.23-.5-4.3-1.5-1.08-1-1.61-2.38-1.61-4.12V15.43c0-1.74.54-3.12,1.61-4.12,1.08-1,2.51-1.5,4.3-1.5h7.26v67.08c0,4.62,2.33,6.93,7,6.93h20.72ZM21.93,80.42c-3.14,0-4.71-1.48-4.71-4.45V3.79c0-1.22.47-2.16,1.41-2.81.94-.65,2.04-.98,3.3-.98h17.22c1.25,0,2.35.33,3.3.98.94.65,1.41,1.59,1.41,2.81v72.18c0,2.96-1.57,4.45-4.71,4.45h-17.22ZM100.08,34.39v-9.81h-41.43v9.81h41.43ZM64.57,50.21c1.52,0,2.76-.48,3.7-1.44.94-.96,1.41-2.13,1.41-3.53,0-1.48-.47-2.7-1.41-3.66-.94-.96-2.18-1.44-3.7-1.44s-2.78.48-3.77,1.44c-.99.96-1.48,2.18-1.48,3.66,0,1.4.49,2.57,1.48,3.53.99.96,2.24,1.44,3.77,1.44ZM64.57,64.6c1.52,0,2.76-.48,3.7-1.44.94-.96,1.41-2.18,1.41-3.66,0-1.39-.47-2.57-1.41-3.53-.94-.96-2.18-1.44-3.7-1.44s-2.78.48-3.77,1.44c-.99.96-1.48,2.14-1.48,3.53,0,1.48.49,2.7,1.48,3.66.99.96,2.24,1.44,3.77,1.44ZM64.57,78.98c1.52,0,2.76-.48,3.7-1.44.94-.96,1.41-2.14,1.41-3.53,0-1.48-.47-2.7-1.41-3.66-.94-.96-2.18-1.44-3.7-1.44s-2.78.48-3.77,1.44c-.99.96-1.48,2.18-1.48,3.66,0,1.4.49,2.57,1.48,3.53.99.96,2.24,1.44,3.77,1.44ZM79.37,50.21c1.52,0,2.78-.48,3.77-1.44.99-.96,1.48-2.13,1.48-3.53,0-1.48-.49-2.7-1.48-3.66-.99-.96-2.24-1.44-3.77-1.44-1.44,0-2.65.48-3.63,1.44-.99.96-1.48,2.18-1.48,3.66,0,1.4.49,2.57,1.48,3.53.99.96,2.2,1.44,3.63,1.44ZM79.37,64.6c1.52,0,2.78-.48,3.77-1.44.99-.96,1.48-2.18,1.48-3.66,0-1.39-.49-2.57-1.48-3.53-.99-.96-2.24-1.44-3.77-1.44-1.44,0-2.65.48-3.63,1.44-.99.96-1.48,2.14-1.48,3.53,0,1.48.49,2.7,1.48,3.66.99.96,2.2,1.44,3.63,1.44ZM79.37,78.98c1.52,0,2.78-.48,3.77-1.44.99-.96,1.48-2.14,1.48-3.53,0-1.48-.49-2.7-1.48-3.66-.99-.96-2.24-1.44-3.77-1.44-1.44,0-2.65.48-3.63,1.44-.99.96-1.48,2.18-1.48,3.66,0,1.4.49,2.57,1.48,3.53.99.96,2.2,1.44,3.63,1.44ZM94.3,50.21c1.43,0,2.64-.48,3.63-1.44.99-.96,1.48-2.13,1.48-3.53,0-1.48-.49-2.7-1.48-3.66-.99-.96-2.2-1.44-3.63-1.44-1.53,0-2.78.48-3.77,1.44-.99.96-1.48,2.18-1.48,3.66,0,1.4.49,2.57,1.48,3.53.99.96,2.24,1.44,3.77,1.44ZM94.3,64.6c1.43,0,2.64-.48,3.63-1.44.99-.96,1.48-2.18,1.48-3.66,0-1.39-.49-2.57-1.48-3.53-.99-.96-2.2-1.44-3.63-1.44-1.53,0-2.78.48-3.77,1.44-.99.96-1.48,2.14-1.48,3.53,0,1.48.49,2.7,1.48,3.66.99.96,2.24,1.44,3.77,1.44ZM94.3,78.98c1.43,0,2.64-.48,3.63-1.44.99-.96,1.48-2.14,1.48-3.53,0-1.48-.49-2.7-1.48-3.66-.99-.96-2.2-1.44-3.63-1.44-1.53,0-2.78.48-3.77,1.44-.99.96-1.48,2.18-1.48,3.66,0,1.4.49,2.57,1.48,3.53.99.96,2.24,1.44,3.77,1.44Z"/>
  </g>
</svg>