<?xml version="1.0" encoding="UTF-8"?>
<svg id="_레이어_2" data-name="레이어_2" xmlns="http://www.w3.org/2000/svg" viewBox="0 0 310.83 263.54">
  <g id="_레이어_1-2" data-name="레이어_1">
    <path d="M179.5,263.54l-11.45-17.68h-6.74l-20.54-32.08-38.05,49.76H18.19l13.47-17.68H0l89.24-114.58c-13.47-20.95-27.39-42.89-41.76-65.8C33.11,42.56,19.42,20.74,6.4,0h131.67l11.45,17.68h6.74l9.43,15.06L190.61,0h84.53l-13.47,17.68h31.66l-75.77,97.89,93.28,147.97h-131.34ZM283.89,241.28l-90.59-144.05L265.03,4.58h-71.73l-31.66,41.58-26.27-41.58H15.15l80.15,127.02L10.1,241.28h71.73l45.13-58.6,37.04,58.6h119.89Z"/>
  </g>
</svg>