<?xml version="1.0" encoding="UTF-8"?>
<svg id="_레이어_2" data-name="레이어_2" xmlns="http://www.w3.org/2000/svg" viewBox="0 0 112.73 95.98">
  <defs>
    <style>
      .cls-1 {
        fill: aqua;
      }
    </style>
  </defs>
  <g id="_레이어_1-2" data-name="레이어_1">
    <path class="cls-1" d="M107.21,9.81c1.79,0,3.16.48,4.1,1.44.94.96,1.41,2.31,1.41,4.05v75.19c0,1.74-.47,3.09-1.41,4.05-.94.96-2.31,1.44-4.1,1.44H5.52c-1.79,0-3.16-.48-4.1-1.44-.94-.96-1.41-2.31-1.41-4.05V15.3c0-1.74.47-3.09,1.41-4.05.94-.96,2.31-1.44,4.1-1.44h9.82v-4.97c0-3.22,1.61-4.84,4.84-4.84h23.41c3.23,0,4.84,1.61,4.84,4.84v4.97h58.78ZM107.61,14.38h-59.19v63.29c0,3.31-1.61,4.97-4.84,4.97h-23.41c-3.23,0-4.84-1.65-4.84-4.97V14.38H5.11v77.02h102.5V14.38ZM20.18,78.2h23.41V4.32h-23.41v73.88ZM96.31,35.05h-40.36v-10.07h40.36v10.07ZM61.21,50.21c-1.44,0-2.67-.48-3.7-1.44-1.03-.96-1.55-2.14-1.55-3.53,0-1.48.52-2.72,1.55-3.73,1.03-1,2.26-1.5,3.7-1.5,1.52,0,2.8.5,3.83,1.5,1.03,1,1.55,2.25,1.55,3.73,0,1.4-.52,2.57-1.55,3.53-1.03.96-2.31,1.44-3.83,1.44ZM61.21,64.47c-1.44,0-2.67-.5-3.7-1.5-1.03-1-1.55-2.24-1.55-3.73s.52-2.68,1.55-3.6c1.03-.92,2.26-1.37,3.7-1.37,1.52,0,2.8.46,3.83,1.37,1.03.92,1.55,2.11,1.55,3.6s-.52,2.73-1.55,3.73c-1.03,1-2.31,1.5-3.83,1.5ZM61.21,68.26c1.52,0,2.8.5,3.83,1.5,1.03,1,1.55,2.25,1.55,3.73s-.52,2.7-1.55,3.66c-1.03.96-2.31,1.44-3.83,1.44-1.44,0-2.67-.48-3.7-1.44-1.03-.96-1.55-2.18-1.55-3.66s.52-2.72,1.55-3.73c1.03-1,2.26-1.5,3.7-1.5ZM76.14,40.01c1.52,0,2.78.5,3.77,1.5.99,1,1.48,2.25,1.48,3.73,0,1.4-.49,2.57-1.48,3.53-.99.96-2.24,1.44-3.77,1.44s-2.8-.48-3.83-1.44c-1.03-.96-1.55-2.14-1.55-3.53,0-1.48.51-2.72,1.55-3.73,1.03-1,2.31-1.5,3.83-1.5ZM76.14,54.27c1.52,0,2.78.46,3.77,1.37.99.92,1.48,2.11,1.48,3.6s-.49,2.73-1.48,3.73c-.99,1-2.24,1.5-3.77,1.5s-2.8-.5-3.83-1.5c-1.03-1-1.55-2.24-1.55-3.73s.51-2.68,1.55-3.6c1.03-.92,2.31-1.37,3.83-1.37ZM76.14,68.26c1.52,0,2.78.5,3.77,1.5.99,1,1.48,2.25,1.48,3.73s-.49,2.7-1.48,3.66c-.99.96-2.24,1.44-3.77,1.44s-2.8-.48-3.83-1.44c-1.03-.96-1.55-2.18-1.55-3.66s.51-2.72,1.55-3.73c1.03-1,2.31-1.5,3.83-1.5ZM90.93,40.01c1.52,0,2.78.5,3.77,1.5.99,1,1.48,2.25,1.48,3.73,0,1.4-.49,2.57-1.48,3.53-.99.96-2.24,1.44-3.77,1.44s-2.78-.48-3.77-1.44c-.99-.96-1.48-2.14-1.48-3.53,0-1.48.49-2.72,1.48-3.73.99-1,2.24-1.5,3.77-1.5ZM90.93,54.27c1.52,0,2.78.46,3.77,1.37.99.92,1.48,2.11,1.48,3.6s-.49,2.73-1.48,3.73c-.99,1-2.24,1.5-3.77,1.5s-2.78-.5-3.77-1.5c-.99-1-1.48-2.24-1.48-3.73s.49-2.68,1.48-3.6c.99-.92,2.24-1.37,3.77-1.37ZM90.93,68.26c1.52,0,2.78.5,3.77,1.5.99,1,1.48,2.25,1.48,3.73s-.49,2.7-1.48,3.66c-.99.96-2.24,1.44-3.77,1.44s-2.78-.48-3.77-1.44c-.99-.96-1.48-2.18-1.48-3.66s.49-2.72,1.48-3.73c.99-1,2.24-1.5,3.77-1.5Z"/>
  </g>
</svg>