<?xml version="1.0" encoding="UTF-8"?>
<svg id="_레이어_2" data-name="레이어_2" xmlns="http://www.w3.org/2000/svg" viewBox="0 0 114.08 45.9">
  <defs>
    <style>
      .cls-1 {
        fill: #5e5e5e;
      }
    </style>
  </defs>
  <g id="_레이어_1-2" data-name="레이어_1">
    <g>
      <path class="cls-1" d="M2.51,18.67c4.58-.81,8.22-3.73,8.62-8.86H1.72l.1-2.39v-3.59l-.1-2.39h20.24c.39,16.9-5.71,23.89-18.32,26.23L0,19.05c.74,0,1.72-.24,2.51-.38ZM3.25,36c0-6.03,6.3-9.53,15.81-9.53s15.76,3.59,15.76,9.53-6.25,9.91-15.76,9.91-15.81-3.83-15.81-9.91ZM23.73,37.77c.84-.24,1.38-.96,1.38-1.68s-.54-1.39-1.38-1.72c-.98-.43-2.9-.72-4.68-.72s-3.79.29-4.88.72c-.89.29-1.28,1-1.28,1.72s.39,1.39,1.28,1.68c1.03.33,3.1.62,4.88.62s3.69-.29,4.68-.62ZM24.33,4.79l-.1-4.79h9.95l-.1,4.79v4.55h3.59l-.1,2.39v3.97l.1,2.39h-3.59v3.21l.1,4.79h-9.95l.1-4.79V4.79Z"/>
      <path class="cls-1" d="M40.08,6.13l-.1-4.79h10.49l-.1,4.79v8.33c3.3-.14,6.7-.58,9.7-1.2l1.28,8.38c-4.73,1-9.9,1.63-15.31,1.77-2.41.1-4.19.14-6.06.1l.1-4.88V6.13ZM72.72,45.43h-10.14v-1.2h-10.49v1.2h-10.14l.1-4.79v-10.2l-.1-4.79h30.77l-.1,4.79v10.2l.1,4.79ZM52.09,32.79v3.97h10.49v-3.97h-10.49ZM62.73,4.79l-.1-4.79h10.09l-.1,4.79v3.35h3.45l-.1,2.39v3.54l.1,2.39h-3.45v3.11l.1,4.79h-10.09l.1-4.79V4.79Z"/>
      <path class="cls-1" d="M90.69,27.86h-13.54l.1-2.15v-4.16l-.1-2.15h22.5c.64-3.21,1.23-6.89,1.58-10h-21.62l.1-2.39v-3.73l-.1-2.39h32.01l-.29,5.03c-.39,4.02-1.08,9.05-1.87,13.5h4.63l-.1,2.15v4.16l.1,2.15h-13.34v11.39l.1,5.7h-10.24l.1-5.7v-11.39Z"/>
    </g>
  </g>
</svg>