<?xml version="1.0" encoding="UTF-8"?>
<svg id="_레이어_2" data-name="레이어_2" xmlns="http://www.w3.org/2000/svg" viewBox="0 0 113.73 45.28">
  <defs>
    <style>
      .cls-1 {
        fill: #5e5e5e;
      }
    </style>
  </defs>
  <g id="_레이어_1-2" data-name="레이어_1">
    <g>
      <path class="cls-1" d="M3.54,12.35h7.68v7.66c4.28-.14,8.42-.33,10.98-.53l.69,7.66c-4.48.48-15.51,1.1-21.52,1.29l-1.38-8.14,3.54-.05v-7.9ZM13.44,9.09H1.77l.1-1.96V2.92l-.1-1.92h20.88c-.1,1.29-.15,2.54-.2,3.78-.15,2.82-.69,9.43-1.13,13.02l-8.62-.48c.34-2.92.59-5.36.74-8.23ZM3.64,33.84l-.1-3.93h10.73l-.1,4.21v2.25h20.34l-.05,2.39v3.64l.05,2.39H3.54l.1-3.97v-6.99ZM24.28,4.79l-.1-4.79h9.85l-.1,4.79v7.42h3.4l-.1,2.39v4.4l.1,2.39h-3.4v5.74l.1,4.79h-9.85l.1-4.79V4.79Z"/>
      <path class="cls-1" d="M38.16,12.83c0-5.84,2.95-12.01,11.28-12.01s11.28,6.17,11.28,12.01-2.81,11.97-11.28,11.97-11.28-6.03-11.28-11.97ZM72.28,40.73l.1,4.55h-9.8l.1-4.45v-5.27h-21.17l.1-2.39v-3.21l-.1-2.39h30.87l-.1,4.64v8.52ZM51.79,12.83c0-1.77-.49-3.78-2.12-3.78s-2.02,2.01-2.02,3.78c0,1.63.44,3.54,2.02,3.54s2.12-1.91,2.12-3.54ZM62.68,4.83l-.1-4.79h9.8l-.1,4.79v4.45h3.45l-.1,2.39v3.78l.1,2.39h-3.45v3.64l.1,4.79h-9.8l.1-4.79V4.83Z"/>
      <path class="cls-1" d="M90.34,27.91h-13.54l.1-2.15v-4.16l-.1-2.15h22.5c.64-3.21,1.23-6.89,1.58-10h-21.62l.1-2.39v-3.73l-.1-2.39h32.01l-.29,5.03c-.39,4.02-1.08,9.05-1.87,13.5h4.63l-.1,2.15v4.16l.1,2.15h-13.34v11.39l.1,5.7h-10.24l.1-5.7v-11.39Z"/>
    </g>
  </g>
</svg>