<?xml version="1.0" encoding="UTF-8"?>
<svg id="_레이어_2" data-name="레이어_2" xmlns="http://www.w3.org/2000/svg" viewBox="0 0 112.75 44.95">
  <defs>
    <style>
      .cls-1 {
        fill: #5e5e5e;
      }
    </style>
  </defs>
  <g id="_레이어_1-2" data-name="레이어_1">
    <g>
      <path class="cls-1" d="M20.38,34.23l.1,4.79H0l.1-4.79V7.13l-.1-4.79h20.48l-.1,4.79v27.09ZM8.86,10.87v19.58h3.64V10.87h-3.64ZM22.8,4.79l-.1-4.79h10.09l-.1,4.79v12.11h3.64l-.1,2.39v4.83l.1,2.39h-3.64v13.4l.1,4.79h-10.09l.1-4.79V4.79Z"/>
      <path class="cls-1" d="M38.01,35.66l-.1-2.25h12.56v-.43l-.1-4.36h11.13l-.1,4.36v.43h12.95l-.1,2.25v4.45l.1,2.25h-36.44l.1-2.25v-4.45ZM40.12,4.55l-.1-2.39h31.81l-.1,2.39v2.92l.1,2.39h-31.81l.1-2.39v-2.92ZM40.27,21.92l-.1-2.39h4.33l-1.28-8.42,9.46-.38.98,8.81h4.53l1.08-8.81,9.36.38-1.28,8.42h4.23l-.1,2.39v2.82l.1,2.39h-31.42l.1-2.39v-2.82Z"/>
      <path class="cls-1" d="M89.36,27.86h-13.54l.1-2.15v-4.16l-.1-2.15h22.5c.64-3.21,1.23-6.89,1.58-10h-21.62l.1-2.39v-3.73l-.1-2.39h32.01l-.3,5.03c-.39,4.02-1.08,9.05-1.87,13.5h4.63l-.1,2.15v4.16l.1,2.15h-13.34v11.39l.1,5.7h-10.24l.1-5.7v-11.39Z"/>
    </g>
  </g>
</svg>