<?xml version="1.0" encoding="UTF-8"?>
<svg id="_레이어_2" data-name="레이어_2" xmlns="http://www.w3.org/2000/svg" viewBox="0 0 113.49 46">
  <defs>
    <style>
      .cls-1 {
        fill: #5e5e5e;
      }
    </style>
  </defs>
  <g id="_레이어_1-2" data-name="레이어_1">
    <g>
      <path class="cls-1" d="M.1,21.92l-.1-1.92h5.71v-3.02h4.14c-4.43-1.2-7.44-3.59-7.44-7.61C2.41,3.59,9.65.38,18.22.38s15.81,3.21,15.81,9c0,4.02-2.86,6.41-7.29,7.61h3.94v3.02h5.76l-.1,1.92v3.25l.1,1.92H0l.1-1.92v-3.25ZM2.56,36.86c0-5.89,6.15-8.81,15.76-8.81s15.66,2.97,15.66,8.71-6.06,9.24-15.66,9.24-15.76-3.25-15.76-9.14ZM23,38.34c.89-.19,1.38-.86,1.38-1.48s-.49-1.25-1.38-1.48c-1.03-.29-2.91-.57-4.68-.57s-3.74.29-4.88.57c-.89.24-1.28.86-1.28,1.48s.39,1.24,1.28,1.44c1.13.29,3.1.57,4.88.57s3.64-.24,4.68-.53ZM22.65,10.96c.79-.19,1.33-.58,1.33-1.53,0-.62-.49-1.05-1.33-1.29-.98-.29-2.61-.58-4.38-.58s-3.45.29-4.38.58c-.84.24-1.33.67-1.33,1.29,0,1,.54,1.34,1.33,1.53.94.29,2.61.53,4.38.53s3.4-.24,4.38-.53ZM14.82,17.81v2.2h6.75v-2.2c-1.08.1-2.21.14-3.35.14s-2.31-.05-3.4-.14Z"/>
      <path class="cls-1" d="M40.12,18.43c4.19-3.73,4.92-9.05,4.92-14.84,0-.72-.05-1.53-.1-2.3h10.69c-.05.81-.1,1.68-.1,2.35,0,5.55.54,10.48,4.43,13.93.69.62,1.62,1.34,2.46,1.72l-4.14,8.33c-3.54-1.53-6.7-4.64-8.12-9.05-1.38,4.83-4.24,8.23-8.57,10l-4.14-8.52c.94-.29,1.77-.77,2.66-1.63ZM41.6,33.75l-.1-4.02h10.49l-.1,4.31v2.15h21.07l-.05,2.39v3.88l.05,2.39h-31.46l.1-4.07v-7.04ZM62.58,4.79l-.1-4.79h9.7l-.1,4.79v7.18h3.4l-.1,2.39v4.5l.1,2.39h-3.4v6.8l.1,4.79h-9.7l.1-4.79V4.79Z"/>
      <path class="cls-1" d="M90.1,27.86h-13.54l.1-2.15v-4.16l-.1-2.15h22.5c.64-3.21,1.23-6.89,1.58-10h-21.62l.1-2.39v-3.73l-.1-2.39h32.01l-.29,5.03c-.39,4.02-1.08,9.05-1.87,13.5h4.63l-.1,2.15v4.16l.1,2.15h-13.34v11.39l.1,5.7h-10.24l.1-5.7v-11.39Z"/>
    </g>
  </g>
</svg>