<svg xmlns="http://www.w3.org/2000/svg" width="175.9" height="149.252" viewBox="0 0 175.9 149.252">
  <g id="그룹_170" data-name="그룹 170" transform="translate(-870.264 -392.989)">
    <path id="패스_13" data-name="패스 13" d="M1072.157,457.2v3.182H941.467v6.743h130.69v0H1089.7v-5.637Z" transform="translate(-43.54)" fill="#fff"/>
    <rect id="사각형_7" data-name="사각형 7" width="13.486" height="149.185" transform="translate(870.264 392.989)" fill="#fff"/>
    <path id="패스_14" data-name="패스 14" d="M1072.172,481.336H941.466v6.743H1085v-.036h4.7v-5.636l-17.531-4.291Z" transform="translate(-43.54)" fill="#fff"/>
    <rect id="사각형_8" data-name="사각형 8" width="13.486" height="16.17" transform="translate(1022.811 502.245)" fill="#fff"/>
    <path id="패스_15" data-name="패스 15" d="M1054.183,446.2h17.531V440.56l-17.531-4.291v3.178H969.137v6.743h85.046Z" transform="translate(-43.54)" fill="#fff"/>
    <rect id="사각형_9" data-name="사각형 9" width="13.486" height="52.858" transform="translate(897.958 393.328)" fill="#fff"/>
    <path id="패스_16" data-name="패스 16" d="M1006.671,425.337h8.618V419.7l-17.531-4.29v3.183H969.137v6.743h37.534Z" transform="translate(-43.54)" fill="#fff"/>
    <path id="패스_17" data-name="패스 17" d="M945.855,502.759l-5.3,15.656h3.958l1.057-3.352h5.453l1.058,3.352h3.957l-5.309-15.656Zm.608,9.482,1.771-5.61h.13l1.77,5.61Z" transform="translate(-43.54)" fill="#fff"/>
    <path id="패스_18" data-name="패스 18" d="M972.03,502.759l-5.3,15.656h3.957l1.057-3.352H977.2l1.058,3.352h3.957l-5.308-15.656Zm.608,9.482,1.771-5.61h.13l1.77,5.61Z" transform="translate(-43.54)" fill="#fff"/>
    <path id="패스_19" data-name="패스 19" d="M1003.223,511.939h-.14l-6.271-9.179h-3.19v15.655H997.3v-9.189h.119l6.336,9.189h3.135V502.76h-3.665Z" transform="translate(-43.54)" fill="#fff"/>
    <path id="패스_20" data-name="패스 20" d="M1033.631,502.759h-4.357l-5.265,6.681h-.216v-6.681h-3.676v15.655h3.676v-4.292l1.535-1.925,3.989,6.217h4.411l-5.7-8.669Z" transform="translate(-43.54)" fill="#fff"/>
    <path id="패스_21" data-name="패스 21" d="M950.666,536.034a4.428,4.428,0,0,0,2.006-1.734,5.133,5.133,0,0,0,.7-2.73,5.341,5.341,0,0,0-.692-2.762A4.579,4.579,0,0,0,950.7,527a6.789,6.789,0,0,0-3.033-.633h-6.4v15.655h3.676v-5.395h2.043l2.865,5.395h4.055l-3.267-5.981a.224.224,0,0,0,.023-.009m-5.719-6.681h1.946a3.922,3.922,0,0,1,1.465.239,1.782,1.782,0,0,1,.892.74,2.374,2.374,0,0,1,.3,1.238,2.178,2.178,0,0,1-.3,1.2,1.8,1.8,0,0,1-.892.7,3.958,3.958,0,0,1-1.454.234h-1.957Z" transform="translate(-43.54)" fill="#fff"/>
    <path id="패스_22" data-name="패스 22" d="M971.3,532.954h-.13l-3.373-6.585h-4.13l5.73,10.358v5.3h3.665v-5.3l5.73-10.358h-4.13Z" transform="translate(-43.54)" fill="#fff"/>
    <path id="패스_23" data-name="패스 23" d="M1000.131,527.094a8.21,8.21,0,0,0-7.633,0,6.63,6.63,0,0,0-2.654,2.762,10.181,10.181,0,0,0,0,8.666,6.708,6.708,0,0,0,2.654,2.767,8.126,8.126,0,0,0,7.633,0,6.752,6.752,0,0,0,2.66-2.762,10.155,10.155,0,0,0,0-8.671,6.673,6.673,0,0,0-2.66-2.762m-.568,9.714a3.348,3.348,0,0,1-3.249,2.2,3.45,3.45,0,0,1-1.968-.573,3.563,3.563,0,0,1-1.264-1.627,6.8,6.8,0,0,1-.443-2.611,6.877,6.877,0,0,1,.443-2.622,3.526,3.526,0,0,1,1.264-1.632,3.427,3.427,0,0,1,1.968-.557,3.3,3.3,0,0,1,3.249,2.189A6.96,6.96,0,0,1,1000,534.2a6.879,6.879,0,0,1-.438,2.611" transform="translate(-43.54)" fill="#fff"/>
    <path id="패스_24" data-name="패스 24" d="M1029.193,526.369h-4.357l-5.265,6.681h-.216v-6.681h-3.676v15.655h3.676v-4.292l1.535-1.925,3.989,6.217h4.411l-5.7-8.669Z" transform="translate(-43.54)" fill="#fff"/>
    <path id="패스_25" data-name="패스 25" d="M1044.979,526.369l-5.3,15.656h3.957l1.057-3.352h5.453l1.058,3.352h3.957l-5.308-15.656Zm.608,9.482,1.771-5.61h.13l1.77,5.61Z" transform="translate(-43.54)" fill="#fff"/>
    <path id="패스_26" data-name="패스 26" d="M1076.172,535.548h-.14l-6.271-9.179h-3.19v15.655h3.676v-9.189h.119l6.336,9.189h3.135V526.369h-3.665Z" transform="translate(-43.54)" fill="#fff"/>
  </g>
</svg>
