<svg xmlns="http://www.w3.org/2000/svg" width="146.089" height="10.084" viewBox="0 0 146.089 10.084">

<path id="패스_816" data-name="패스 816" d="M0,378.2L0.1,378.2L0.1,378.2 c0,0,173-15.8,346.4-31.6s347.3-31.7,349.1-31.9c32.4-2.9,58.2-1.7,75.7-3.2c17.5-1.5,26.8-5.5,26.3-18.6 c-0.9-15.3-12.2-22-26.2-24.8c-14-2.9-30.7-2-42.4-2c-36.6,0-59.6,3.4-73.6,13.2c-14,9.7-19,25.8-19.4,51 c1.1,23.1,8.4,35.6,22.5,42.1c14.1,6.5,35,7,63.2,5.8c16.7-1.4,27-2.2,35.2-3.6s14.3-3.4,22.7-7.1c5.3-2.4,8.3-6.3,10-10.7 c1.7-4.4,2.1-9.4,2.4-13.8c0.4-5.5-0.1-11.3-1.9-15.6c-1.8-4.3-5.1-7.2-10.4-6.8c-6.5,0.5-9.1,7.9-10.1,15.2 c-1,7.3-0.3,14.4-0.3,14.4c3,70.9,13.3,126.2-0.4,167.9c-13.7,41.6-51.4,69.6-144.4,85.8c-25.4,2.6-41.1-14.7-45.3-35 c-4.1-20.3,3.3-43.7,24.5-53.2c0,0,17.2-6.9,34.8-15.6s35.6-19,37.4-25.9c1.7-6.9,1.8-37.8,1.4-67.1c-0.4-29.3-1.2-56.8-1.2-56.8 c0.7-10.8-2-23.6,0.1-34.2c2.1-10.6,8.9-19.1,28.7-21.1c45.2-4.6,169.9-11.8,312.8-8s304.2,22.2,422.6,73" fill="none"/>
  <g id="그룹_40" data-name="그룹 40" transform="translate(-22.987 -53.874)">
    <path id="패스_817" data-name="패스 817" d="M66.423,148.1l-3.389,9.812H65.21l.739-2.264h3.559l.737,2.264h2.189l-3.4-9.812Zm.046,5.956,1.221-3.741h.081l1.218,3.741Z" transform="translate(-40.047 -94.092)"/>
    <path id="패스_818" data-name="패스 818" d="M106.946,148.1l-3.389,9.812h2.176l.739-2.264h3.559l.737,2.264h2.189l-3.4-9.812Zm.046,5.956,1.221-3.741h.081l1.218,3.741Z" transform="translate(-65.792 -94.092)"/>
    <path id="패스_819" data-name="패스 819" d="M151.738,154.329h-.088l-4.276-6.228h-1.789v9.812h2.033v-6.234h.074l4.31,6.234h1.762V148.1h-2.026Z" transform="translate(-92.494 -94.092)"/>
    <path id="패스_820" data-name="패스 820" d="M193.971,148.1h-2.453l-3.564,4.351h-.129V148.1h-2.033v9.812h2.033v-2.805l1.023-1.253,2.718,4.059h2.447l-3.707-5.421Z" transform="translate(-118.038 -94.092)"/>
    <path id="패스_821" data-name="패스 821" d="M251.927,154.054a2.7,2.7,0,0,0,1.219-1.081,3.226,3.226,0,0,0,.417-1.674,3.365,3.365,0,0,0-.413-1.694,2.743,2.743,0,0,0-1.206-1.115,4.266,4.266,0,0,0-1.9-.389h-3.836v9.813h2.033V154.43h1.551l1.858,3.483h2.264l-2.09-3.82c.033-.014.069-.024.1-.039m-3.683-4.279h1.43a2.586,2.586,0,0,1,1,.17,1.193,1.193,0,0,1,.6.515,1.672,1.672,0,0,1,.2.84,1.541,1.541,0,0,1-.2.816,1.215,1.215,0,0,1-.6.488,2.607,2.607,0,0,1-1,.166h-1.436Z" transform="translate(-156.424 -94.092)"/>
    <path id="패스_822" data-name="패스 822" d="M285.348,152.33h-.088L283,148.1h-2.284l3.578,6.315v3.5h2.026v-3.5L289.9,148.1h-2.291Z" transform="translate(-178.344 -94.092)"/>
    <path id="패스_823" data-name="패스 823" d="M326.815,148.325a4.948,4.948,0,0,0-4.71,0,4.151,4.151,0,0,0-1.633,1.738,6.465,6.465,0,0,0,0,5.408,4.177,4.177,0,0,0,1.633,1.742,4.925,4.925,0,0,0,4.71,0,4.179,4.179,0,0,0,1.633-1.738,6.473,6.473,0,0,0,0-5.411,4.151,4.151,0,0,0-1.633-1.738m-.142,6.2a2.426,2.426,0,0,1-.878,1.1,2.387,2.387,0,0,1-1.335.386,2.359,2.359,0,0,1-1.325-.386,2.476,2.476,0,0,1-.881-1.1,4.369,4.369,0,0,1-.315-1.752,4.414,4.414,0,0,1,.315-1.762,2.452,2.452,0,0,1,.881-1.1,2.338,2.338,0,0,1,1.325-.376,2.367,2.367,0,0,1,1.335.376,2.4,2.4,0,0,1,.878,1.1,4.5,4.5,0,0,1,.309,1.762,4.456,4.456,0,0,1-.309,1.752" transform="translate(-203.227 -93.855)"/>
    <path id="패스_824" data-name="패스 824" d="M370.438,148.1h-2.453l-3.564,4.351h-.129V148.1h-2.033v9.812h2.033v-2.805l1.023-1.253,2.718,4.059h2.447l-3.707-5.421Z" transform="translate(-230.152 -94.092)"/>
    <path id="패스_825" data-name="패스 825" d="M402.566,148.1l-3.389,9.812h2.176l.739-2.264h3.559l.737,2.264h2.189l-3.4-9.812Zm.046,5.956,1.221-3.741h.081l1.218,3.741Z" transform="translate(-253.607 -94.092)"/>
    <path id="패스_826" data-name="패스 826" d="M447.358,154.329h-.088l-4.276-6.228H441.2v9.812h2.033v-6.234h.074l4.31,6.234h1.762V148.1h-2.026Z" transform="translate(-280.308 -94.092)"/>
  </g>
</svg>
